<svg width="101" height="101" viewBox="0 0 101 101" fill="none" xmlns="http://www.w3.org/2000/svg">
<g clip-path="url(#clip0_721_6680)">
<path d="M101 50.3968C101.063 78.7209 77.8058 101.618 49.3559 100.987C21.7216 100.377 -0.412674 77.5552 0.00483411 49.7144C0.420736 22.0166 23.2777 -0.607351 51.6457 0.0124383C79.0487 0.611354 100.958 22.996 101 50.3968ZM27.1171 77.9582H73.8909V77.0269C73.8909 74.3792 73.8684 71.7282 73.9005 69.0804C73.9232 67.4689 73.5691 65.8744 72.8664 64.424C70.8897 60.2894 67.5046 57.7107 63.3135 56.227C55.482 53.4572 47.5108 53.4749 39.5477 55.5944C35.7532 56.6027 32.4115 58.4942 29.9016 61.6141C28.0887 63.862 27.0288 66.399 27.1075 69.3662C27.1749 71.9064 27.122 74.4498 27.122 76.9916L27.1171 77.9582ZM36.4822 37.081C36.4741 38.9376 36.8342 40.7774 37.5418 42.494C38.2494 44.2105 39.2904 45.7697 40.6046 47.0813C41.9187 48.393 43.4799 49.4311 45.1979 50.1355C46.9158 50.8399 48.7565 51.1967 50.6132 51.1852C58.3805 51.1852 64.6543 44.8733 64.6575 37.0553C64.6575 29.3593 58.3371 22.9752 50.7112 22.9719C42.7833 22.9703 36.4806 29.2228 36.4822 37.081Z" fill="#D9D9D9"/>
<path d="M27.1172 77.9583V76.9949C27.1172 74.4531 27.1702 71.9097 27.1027 69.3695C27.024 66.4022 28.0839 63.8717 29.8968 61.6173C32.4067 58.4975 35.7484 56.606 39.5429 55.5977C47.5108 53.4782 55.482 53.4605 63.3087 56.2303C67.4998 57.7139 70.8849 60.2927 72.8616 64.4273C73.5643 65.8777 73.9184 67.4722 73.8957 69.0837C73.8636 71.7331 73.8861 74.3824 73.8861 77.0302V77.9615L27.1172 77.9583Z" fill="#828282"/>
<path d="M36.4826 37.0814C36.4826 29.2233 42.7901 22.9708 50.7164 22.9756C58.3423 22.9756 64.666 29.363 64.6628 37.0589C64.6628 44.8737 58.3857 51.1889 50.6184 51.1889C48.761 51.201 46.9196 50.8446 45.2009 50.1402C43.4821 49.4359 41.9202 48.3976 40.6055 47.0856C39.2908 45.7735 38.2495 44.2137 37.5417 42.4965C36.834 40.7793 36.474 38.9387 36.4826 37.0814Z" fill="#828282"/>
</g>
<defs>
<clipPath id="clip0_721_6680">
<rect width="101" height="101" fill="white"/>
</clipPath>
</defs>
</svg>
