<svg width="80" height="11" viewBox="0 0 80 11" fill="none" xmlns="http://www.w3.org/2000/svg">
<g clip-path="url(#clip0_504_978)">
<path d="M47.378 9.5166C47.52 9.5166 47.6588 9.55865 47.7769 9.63744C47.895 9.71622 47.987 9.8282 48.0413 9.95922C48.0956 10.0902 48.1099 10.2344 48.0822 10.3735C48.0545 10.5126 47.9861 10.6403 47.8857 10.7406C47.7853 10.8408 47.6574 10.9091 47.5181 10.9368C47.3789 10.9645 47.2345 10.9503 47.1033 10.896C46.9722 10.8417 46.86 10.7498 46.7811 10.6319C46.7023 10.514 46.6602 10.3754 46.6602 10.2336C46.6626 10.0442 46.739 9.86321 46.8731 9.72927C47.0072 9.59533 47.1884 9.51901 47.378 9.5166Z" fill="white"/>
<path d="M49.5562 10.8791V7.49899C49.5562 6.59888 49.6307 5.79499 50.5289 5.2363C50.7974 5.07632 51.0965 4.97409 51.4068 4.93615C51.7172 4.8982 52.0321 4.92537 52.3314 5.01592C52.7449 5.1368 53.1052 5.39388 53.3538 5.74532C53.6031 5.39457 53.9632 5.13768 54.3763 5.01592C54.6728 4.92475 54.9851 4.89616 55.2932 4.93196C55.6014 4.96776 55.8987 5.06717 56.1663 5.22388C57.0987 5.78257 57.1515 6.56164 57.1515 7.48658V10.8791H56.0825V7.41208C56.0825 6.92478 56.0452 6.37851 55.5231 6.07433C55.3573 5.98191 55.1706 5.93339 54.9808 5.93339C54.7909 5.93339 54.6042 5.98191 54.4384 6.07433C53.8417 6.41575 53.8915 7.05825 53.8915 7.62625V10.8791H52.8193V7.64487C52.8193 7.07066 52.869 6.42817 52.2723 6.09295C52.1094 5.99731 51.9237 5.94694 51.7347 5.94707C51.5438 5.94284 51.3552 5.98888 51.1877 6.08054C50.6408 6.39093 50.6283 6.95583 50.6283 7.4183V10.8791H49.5562Z" fill="white"/>
<path d="M59.8677 8.95777L59.4389 8.10422L62.3229 6.49954C62.1521 6.31349 61.9425 6.16706 61.7089 6.07054C61.4754 5.97402 61.2235 5.92975 60.971 5.94084C59.8273 5.94084 59.0597 6.80371 59.0597 7.95834C59.044 8.29928 59.1163 8.63853 59.2698 8.94347C59.4233 9.24842 59.6528 9.50881 59.9361 9.6996C60.2503 9.88241 60.6074 9.9788 60.971 9.97894C61.3573 9.99422 61.7406 9.90522 62.0805 9.72132C62.3419 9.55332 62.5584 9.32418 62.7111 9.05375C62.8638 8.78331 62.9482 8.47975 62.9569 8.1694L64.0384 8.30287C64.0062 8.78187 63.8546 9.24523 63.5973 9.65074C63.34 10.0562 62.9853 10.391 62.5653 10.6245C62.1171 10.868 61.6174 11.0017 61.1074 11.0146C60.5974 11.0276 60.0915 10.9194 59.6316 10.699C59.0141 10.3936 58.5182 9.88848 58.2247 9.26582C57.9312 8.64316 57.8574 7.93963 58.0152 7.26971C58.173 6.5998 58.5531 6.00294 59.0937 5.57624C59.6344 5.14955 60.3037 4.91814 60.9928 4.91968C61.5941 4.91203 62.1841 5.08366 62.6873 5.41263C63.1905 5.7416 63.5841 6.21296 63.8177 6.76647L59.8677 8.95777Z" fill="white"/>
<path d="M70.9376 2.36523V7.5952C70.9376 9.6127 69.7567 11.0094 67.9076 11.0094C65.8875 11.0094 64.8278 9.42647 64.8278 7.90559C64.8165 7.35851 64.9586 6.81918 65.2382 6.34857C65.5177 5.87796 65.9235 5.49483 66.4096 5.24249C66.8692 5.02421 67.374 4.91784 67.8827 4.9321C68.4258 4.9467 68.958 5.08808 69.4366 5.34492V6.4654C68.9889 6.15187 68.4602 5.97405 67.9138 5.95327C67.5298 5.94805 67.1513 6.04443 66.8167 6.23261C66.533 6.42012 66.3022 6.6773 66.1465 6.97949C65.9909 7.28168 65.9156 7.61874 65.9279 7.95835C65.9167 8.22621 65.9608 8.4935 66.0576 8.74358C66.1544 8.99365 66.3016 9.22114 66.4903 9.41188C66.6789 9.60261 66.9049 9.7525 67.1541 9.8522C67.4032 9.9519 67.6703 9.99927 67.9386 9.99137C68.2436 9.99643 68.5449 9.92492 68.815 9.7834C69.825 9.23713 69.8748 8.05767 69.8748 7.61072V2.36523H70.9376Z" fill="white"/>
<path d="M72.3924 3.09464C72.5203 3.09402 72.6456 3.13136 72.7523 3.20193C72.859 3.27249 72.9424 3.37311 72.9918 3.49102C73.0412 3.60893 73.0544 3.73884 73.0298 3.86427C73.0053 3.98971 72.9439 4.10503 72.8536 4.19563C72.7634 4.28623 72.6482 4.34803 72.5227 4.37319C72.3972 4.39836 72.2671 4.38575 72.1488 4.33698C72.0305 4.28821 71.9294 4.20546 71.8582 4.09923C71.787 3.993 71.749 3.86805 71.749 3.74024C71.7456 3.65479 71.7598 3.56955 71.7909 3.48985C71.8219 3.41016 71.8691 3.33773 71.9295 3.27712C71.9899 3.2165 72.0622 3.169 72.1419 3.1376C72.2215 3.1062 72.3068 3.09157 72.3924 3.09464ZM71.8703 10.8791V5.04074H72.9424V10.8791H71.8703Z" fill="white"/>
<path d="M78.4928 10.4414C78.0106 10.8188 77.4116 11.0164 76.7991 11.0001C76.4065 11.0153 76.0149 10.9494 75.6491 10.8063C75.2832 10.6632 74.9509 10.4461 74.6731 10.1686C74.3952 9.8911 74.1778 9.55922 74.0346 9.19381C73.8913 8.82839 73.8252 8.43734 73.8405 8.04521C73.829 7.63161 73.902 7.22001 74.0552 6.83557C74.2083 6.45113 74.4384 6.10195 74.7314 5.80937C75.0243 5.5168 75.374 5.28699 75.7589 5.13401C76.1438 4.98103 76.5559 4.90808 76.97 4.91964C78.4928 4.91964 80.0001 5.8508 80.0001 8.29973V10.879H78.931V8.26248C78.931 6.30707 77.7377 5.94081 76.9327 5.94081C76.4164 5.97243 75.9319 6.20038 75.5786 6.57779C75.2254 6.95521 75.0303 7.45343 75.0335 7.97006C75.0367 8.48668 75.2379 8.98247 75.5957 9.35552C75.9536 9.72856 76.4409 9.95053 76.9576 9.9758C77.2443 9.97257 77.5275 9.91277 77.791 9.79984C78.0545 9.68692 78.293 9.5231 78.4928 9.31779V10.4414Z" fill="white"/>
<path d="M40.6901 11C43.7315 11 46.197 8.53757 46.197 5.5C46.197 2.46243 43.7315 0 40.6901 0C37.6487 0 35.1831 2.46243 35.1831 5.5C35.1831 8.53757 37.6487 11 40.6901 11Z" fill="white"/>
<path d="M0 11.0001V4.79239C0 3.13805 0.152277 1.66372 2.01693 0.636348C2.73057 0.253176 3.52821 0.0526871 4.33844 0.0528249C4.81494 0.0452928 5.29006 0.105916 5.74936 0.232848C6.58195 0.438283 7.32488 0.908979 7.86574 1.57371C8.40661 0.908979 9.14954 0.438283 9.98213 0.232848C11.2219 -0.10828 12.5447 0.0268198 13.6897 0.611517C15.6041 1.64199 15.7315 3.07286 15.7315 4.77066V11.0063H13.5125V4.63099C13.5125 3.73708 13.438 2.72833 12.3534 2.16964C12.0022 2.00272 11.6175 1.91817 11.2286 1.92248C10.8397 1.92678 10.4569 2.01982 10.1096 2.19448C8.86645 2.81524 8.97522 4.00401 8.97522 5.05311V11.0001H6.75627V5.05311C6.75627 4.00401 6.85884 2.81835 5.62195 2.19448C5.27994 2.01483 4.89889 1.92208 4.51248 1.92444C4.12029 1.91565 3.73158 1.99968 3.37814 2.16964C2.2438 2.75317 2.21895 3.78053 2.21895 4.63099V11.0001H0Z" fill="white"/>
<path d="M17.7451 10.9999V4.79218C17.7451 3.13784 17.8974 1.66351 19.7621 0.636139C20.4747 0.253344 21.2712 0.0528621 22.0804 0.052616C22.558 0.0450855 23.0341 0.105706 23.4945 0.232639C24.3271 0.438074 25.07 0.908771 25.6109 1.5735C26.1517 0.908771 26.8947 0.438074 27.7272 0.232639C28.9671 -0.108184 30.2897 0.0269051 31.4348 0.611308C33.3492 1.64178 33.4766 3.07265 33.4766 4.77045V11.0061H31.2577V4.63078C31.2577 3.73687 31.18 2.72813 30.0985 2.16944C29.7473 2.00251 29.3626 1.91797 28.9737 1.92227C28.5848 1.92657 28.202 2.01961 27.8547 2.19427C26.6116 2.81503 26.7203 4.00381 26.7203 5.0529V10.9999H24.5014V5.0529C24.5014 4.00381 24.6008 2.81814 23.367 2.19427C23.025 2.01462 22.644 1.92187 22.2576 1.92423C21.8654 1.91544 21.4767 1.99947 21.1233 2.16944C19.9889 2.75296 19.964 3.78032 19.964 4.63078V10.9999H17.7451Z" fill="white"/>
</g>
<defs>
<clipPath id="clip0_504_978">
<rect width="80" height="11" fill="white"/>
</clipPath>
</defs>
</svg>
