<?xml version="1.0" encoding="utf-8"?><svg viewBox="0 0 57 48" xmlns="http://www.w3.org/2000/svg" xmlns:xlink="http://www.w3.org/1999/xlink"><style>:root>svg{display:none}:root>svg:target{display:block}</style><svg fill="none" viewBox="0 0 26 24" id="account" xmlns="http://www.w3.org/2000/svg"><path d="M23.113 21.509a7.888 7.888 0 0 0-1.367-3.693c-1.393-2.025-3.457-3.307-5.939-4.109-.603-.195-.976-.534-1.027-1.1-.053-.555.251-.935.801-1.204 1.991-.974 3.1-2.99 2.719-4.91-.402-2.024-2.155-3.61-4.366-3.949-2.588-.397-5.163.894-6.035 3.023-.918 2.241.075 4.644 2.425 5.828.555.28.867.665.811 1.233-.052.525-.395.866-.939 1.072-1.773.671-3.364 1.67-4.664 2.926-1.78 1.699-2.695 3.706-2.725 6.02-.006.455-.156.843-.59 1.11-.451.28-.943.326-1.437.102-.513-.233-.782-.617-.78-1.133.01-2.665.955-5.04 2.836-7.128 1.153-1.28 2.56-2.3 4.115-3.177l.144-.082c-3.472-3.15-2.863-7.94.358-10.48C8.97.659 10.934-.002 12.97 0c2.036.002 4 .669 5.511 1.871 3.161 2.515 3.806 7.15.473 10.348.5.288 1.01.56 1.493.865 2.995 1.888 4.806 4.435 5.39 7.642.114.62.143 1.253.162 1.882.027.872-.568 1.385-1.555 1.385H9.96c-.219 0-.438.004-.657 0-.807-.018-1.413-.546-1.417-1.231-.005-.685.595-1.223 1.399-1.251.23-.008.46 0 .693 0h13.135v-.002Z" fill="currentColor"/></svg><svg fill="none" viewBox="0 0 14 8" id="arrow-accordion" xmlns="http://www.w3.org/2000/svg"><path d="m1 1 6 6 6-6" stroke="currentColor" stroke-width="2" stroke-linecap="round" stroke-linejoin="round"/></svg><svg fill="none" viewBox="0 0 26 46" id="arrow-carousel" xmlns="http://www.w3.org/2000/svg"><path d="M23.07 43.139 3.001 23.069 23.071 3" stroke="currentColor" stroke-width="5" stroke-linecap="round" stroke-linejoin="round"/></svg><svg viewBox="4 2 15 20" fill="currentColor" id="arrow-catalog" xmlns="http://www.w3.org/2000/svg"><path d="m4 2 .005 20L19 11.992 4 2Z"/></svg><svg fill="none" viewBox="0 0 21 17" id="arrow-nav" xmlns="http://www.w3.org/2000/svg"><path d="m.646 0 .007 16.712L21 8.35.646 0Z" fill="#E63E1D"/></svg><svg fill="none" viewBox="0 0 24 24" id="book" xmlns="http://www.w3.org/2000/svg"><path d="M2 3h6a4 4 0 0 1 4 4v14a3 3 0 0 0-3-3H2V3ZM22 3h-6a4 4 0 0 0-4 4v14a3 3 0 0 1 3-3h7V3Z" stroke="currentColor" stroke-width="2" stroke-linecap="round" stroke-linejoin="round"/></svg><svg fill="none" viewBox="0 0 24 24" id="box" xmlns="http://www.w3.org/2000/svg"><path d="m16.5 9.4-9-5.19M21 16V8a2 2 0 0 0-1-1.73l-7-4a2 2 0 0 0-2 0l-7 4A2 2 0 0 0 3 8v8a2 2 0 0 0 1 1.73l7 4a2 2 0 0 0 2 0l7-4A2 2 0 0 0 21 16Z" stroke="currentColor" stroke-width="2" stroke-linecap="round" stroke-linejoin="round"/><path d="M3.27 6.96 12 12.01l8.73-5.05M12 22.08V12" stroke="currentColor" stroke-width="2" stroke-linecap="round" stroke-linejoin="round"/></svg><svg fill="none" viewBox="0 0 24 24" id="car" xmlns="http://www.w3.org/2000/svg"><path d="M16 3H1v13h15V3ZM16 8h4l3 3v5h-7V8ZM5.5 21a2.5 2.5 0 1 0 0-5 2.5 2.5 0 0 0 0 5ZM18.5 21a2.5 2.5 0 1 0 0-5 2.5 2.5 0 0 0 0 5Z" stroke="currentColor" stroke-width="2" stroke-linecap="round" stroke-linejoin="round"/></svg><svg fill="none" viewBox="0 0 40 40" id="card-list" xmlns="http://www.w3.org/2000/svg"><path d="M34.735 40H5.268a1.83 1.83 0 0 0-.178-.037c-.662-.07-1.3-.24-1.888-.55C1.12 38.31.016 36.574.01 34.214A6558.13 6558.13 0 0 1 .002 9.936c0-1.442-.003-2.884.003-4.325.004-.662.13-1.316.372-1.931C1.252 1.426 3.345.003 5.797.003h22.91c1.899 0 3.796-.012 5.694.005 2.465.022 4.68 1.719 5.357 4.09.108.381.163.78.24 1.17v29.466c-.012.059-.027.117-.036.176-.346 2.395-1.66 4.006-3.94 4.809-.41.145-.857.19-1.287.281ZM19.99 25.432H30.5c.422 0 .843.008 1.266-.003a1.708 1.708 0 0 0 1.593-2.183c-.223-.771-.88-1.242-1.735-1.242H8.38c-.061 0-.122 0-.183.003a1.711 1.711 0 0 0-1.593 2.004c.157.858.848 1.42 1.756 1.42h11.63Zm.031 4h-8.387c-1.123 0-2.247-.01-3.367.002a1.71 1.71 0 0 0-1.612 2.232c.235.74.892 1.193 1.734 1.193h23.222c.068 0 .136 0 .205-.003a1.72 1.72 0 0 0 1.61-1.65c.029-1.001-.74-1.773-1.773-1.774-3.88-.003-7.756-.003-11.632-.002v.001Zm-6-22.286h-1.795c-1.312 0-2.624-.005-3.937 0a1.709 1.709 0 0 0-1.715 1.77c.023.937.787 1.656 1.77 1.656 3.785.002 7.572.002 11.361 0 .048 0 .095 0 .143-.003a1.716 1.716 0 0 0 1.622-1.678c.012-.98-.743-1.743-1.738-1.746-1.903-.002-3.807.001-5.71.001Zm-.02 10.856c1.897 0 3.795.004 5.693 0 .992-.002 1.752-.778 1.734-1.753-.018-.949-.782-1.672-1.775-1.673H8.737c-.177 0-.354-.004-.531.003a1.717 1.717 0 0 0-1.631 1.65 1.71 1.71 0 0 0 1.733 1.774c1.898.003 3.796 0 5.694 0ZM28.29 14.18c-.057-.069-.101-.13-.154-.183a763.27 763.27 0 0 0-2.295-2.293c-.4-.399-.873-.543-1.418-.367-.967.316-1.234 1.511-.5 2.246 1.102 1.11 2.209 2.215 3.32 3.316.694.695 1.446.695 2.138 0l5.381-5.38c.064-.062.125-.126.181-.194.296-.371.39-.788.254-1.245a1.335 1.335 0 0 0-2.229-.572c-.798.779-1.578 1.577-2.367 2.365-.76.762-1.52 1.52-2.31 2.307Z" fill="currentColor"/></svg><svg fill="none" viewBox="0 0 27 25" id="cart" xmlns="http://www.w3.org/2000/svg"><path d="M26 4.9c-.076.374-.143.75-.23 1.122-.6 2.522-1.201 5.044-1.806 7.566-.222.92-.48 1.83-.71 2.748-.163.658-.477.941-1.213.965-.67.022-1.343-.003-2.015-.005l-5.12-.021-6.008-.033c-.456-.002-.91.016-1.352.15-.54.162-.925.493-1.05 1.08-.084.401.054.746.308 1.046.193.228.437.38.708.492.07.027.116.02.154-.049.056-.103.115-.205.173-.307.542-.94 1.347-1.416 2.401-1.398.836.013 1.543.354 2.098 1.01.196.23.344.5.435.792.021.068.045.103.126.103 1.304-.004 2.608-.005 3.912-.003.068 0 .1-.018.123-.088.454-1.334 1.706-1.89 2.83-1.782.815.076 1.501.41 1.983 1.112.156.227.26.493.396.756.227 0 .484-.014.74.004.231.017.468.041.69.11.4.122.579.416.574.874-.004.434-.191.74-.586.837-.31.076-.638.078-.956.105a2.99 2.99 0 0 1-.385-.002c-.071-.003-.112.018-.138.092-.699 2.023-3.185 2.283-4.482 1.059a2.372 2.372 0 0 1-.65-1.031c-.03-.093-.068-.127-.166-.127-1.282.006-2.564.008-3.846.005-.11 0-.14.054-.173.14-.65 1.693-2.758 2.326-4.16 1.251-.418-.32-.71-.747-.929-1.228a.517.517 0 0 0-.35-.309 6.649 6.649 0 0 1-.982-.369c-1.03-.515-1.593-1.385-1.67-2.556-.083-1.242.385-2.24 1.373-2.965a2.96 2.96 0 0 1 .998-.461c.03-.008.058-.018.099-.03-.012-.051-.021-.1-.035-.145L3.055 2.081c-.03-.098-.071-.14-.173-.137-.486.012-.973.034-1.459.02a3.003 3.003 0 0 1-.806-.132c-.432-.137-.658-.52-.61-.955C.058.433.362.11.8.051c.188-.024.378-.036.568-.037.69-.008 1.379-.011 2.069-.01.137 0 .273.01.41.027a.758.758 0 0 1 .647.499c.17.439.324.886.466 1.336.206.654.395 1.314.598 1.994H5.7l6.977-.004 10.292.001c.399 0 .795-.031 1.193-.032.296-.006.592.008.886.04.457.057.831.25.952.764L26 4.9Zm-19.855.875.032.12c.169.552.34 1.102.503 1.656.031.104.072.14.181.14 1.374-.004 2.749-.002 4.123 0h.138V5.775H6.145Zm6.874 9.582h4.63v-1.902h-4.63v1.902Zm-.007-9.576v1.906h4.632V5.78l-4.632.001Zm0 3.832v1.9h4.627v-1.9h-4.627Zm6.497-3.836v1.911h3.883l.489-1.911h-4.372ZM7.296 9.614c.006.035.008.053.013.07.18.58.362 1.16.538 1.743.027.085.068.099.143.099 1.007-.002 2.014-.002 3.021 0 .035 0 .07-.004.115-.007V9.614h-3.83Zm12.218 1.9a.28.28 0 0 0 .044.01l2.863-.015c.074 0 .094-.035.11-.102.136-.576.276-1.15.414-1.724a.304.304 0 0 0 0-.066h-3.431v1.897ZM8.456 13.45c.048.197.086.39.143.574.12.39.249.778.378 1.164.043.127.124.183.271.18.584-.013 1.167-.007 1.75-.009.042 0 .084-.005.135-.008V13.45H8.456Zm11.052 1.92c.044.002.078.006.113.005.587-.005 1.174-.016 1.762-.015.122 0 .193-.038.223-.156.146-.58.29-1.16.438-1.754h-2.536v1.92Zm-1.025 5.744c.008.633.429 1.066 1.027 1.054.604-.011 1.03-.447 1.023-1.048-.007-.63-.427-1.055-1.033-1.046-.593.008-1.025.449-1.017 1.038v.002Zm-8.264-1.04c-.591 0-1.046.45-1.046 1.036 0 .608.437 1.062 1.019 1.058.604-.004 1.03-.428 1.03-1.026 0-.63-.412-1.068-1.003-1.068Z" fill="currentColor"/></svg><svg viewBox="0 0 18 13" fill="none" id="check" xmlns="http://www.w3.org/2000/svg"><path d="M17 1 6 12 1 7" stroke="currentColor" stroke-width="2" stroke-linecap="round" stroke-linejoin="round"/></svg><svg fill="none" viewBox="0 0 24 24" id="close" xmlns="http://www.w3.org/2000/svg"><path d="M18 6 6 18M6 6l12 12" stroke="currentColor" stroke-width="2" stroke-linecap="round" stroke-linejoin="round"/></svg><svg viewBox="0 -4 48 48" fill="none" id="communication-phone" xmlns="http://www.w3.org/2000/svg"><path d="M23.955 40c-3.102-.045-6.15-.41-9.11-1.364-2.834-.915-5.404-2.289-7.551-4.38a13.204 13.204 0 0 1-.916-.994 2.704 2.704 0 0 1-.656-1.854c.152-6.08 2.423-11.176 7.119-15.126a16.67 16.67 0 0 1 5.662-3.114c.24-.078.312-.188.302-.43-.02-.467-.011-.935-.003-1.402.003-.16-.043-.254-.189-.337-1.069-.612-1.542-1.565-1.55-2.767-.005-.662.483-1.171 1.149-1.229.628-.054 1.257.386 1.302 1.026.052.724.467 1.104 1.283 1.109 2.133.012 4.267.01 6.4-.031.78-.016 1.02-.43 1.052-.98.039-.672.655-1.173 1.306-1.126.682.049 1.185.583 1.167 1.267-.03 1.188-.512 2.125-1.56 2.746a.395.395 0 0 0-.173.28c-.016.52-.001 1.04-.012 1.561-.003.165.065.229.212.276 6.63 2.14 11.513 8.139 12.599 15.206.158 1.034.196 2.088.265 3.134.045.703-.216 1.313-.672 1.843-1.555 1.812-3.449 3.18-5.591 4.22-2.676 1.298-5.52 1.986-8.47 2.26-1.118.108-2.243.14-3.365.205ZM24 31.972c2.608-.05 5-.784 7.009-2.542 1.459-1.277 2.392-2.86 2.532-4.82.17-2.369-.79-4.291-2.543-5.819-2.206-1.925-4.838-2.658-7.727-2.505-2.404.127-4.579.907-6.396 2.518-1.662 1.474-2.623 3.3-2.536 5.565.08 2.07 1.028 3.736 2.564 5.076 2.018 1.76 4.423 2.486 7.097 2.527Z" fill="currentColor"/><path d="M32.76 7.207c-.268-.199-.52-.403-.79-.583-1.561-1.03-3.301-1.572-5.136-1.819-2.695-.363-5.37-.286-7.997.492-1.242.368-2.39.924-3.4 1.748-.172.142-.204.246-.081.452.67 1.123.987 2.344.838 3.649a3.88 3.88 0 0 1-1.253 2.446 3.906 3.906 0 0 1-2.564 1.01c-1.638.026-3.275.026-4.913 0-1.925-.032-3.396-1.568-3.46-3.488-.094-2.85 1.243-5.014 3.243-6.87.184-.17.414-.307.644-.414C12.314 1.784 16.934.454 21.811.081c3.759-.288 7.437.213 11.066 1.164A46.798 46.798 0 0 1 39.59 3.58a5.622 5.622 0 0 1 2.208 1.685c.867 1.086 1.627 2.246 1.965 3.6.308 1.236.379 2.513-.16 3.713-.573 1.277-1.618 1.99-3.02 2.035a83.798 83.798 0 0 1-5.125.002c-2.086-.06-3.72-1.797-3.739-3.898a6.04 6.04 0 0 1 .85-3.182c.059-.098.115-.197.192-.328ZM23.994 28.3c-1.498-.017-2.896-.368-4.099-1.295-1.038-.802-1.664-1.826-1.537-3.188.094-1.008.625-1.785 1.384-2.419.966-.806 2.105-1.22 3.343-1.36 1.736-.197 3.371.098 4.83 1.102.313.217.598.47.85.755 1.24 1.393 1.207 3.232-.08 4.587-1.049 1.105-2.388 1.601-3.87 1.78-.175.02-.353.028-.53.037-.096.006-.194.002-.291.002Z" fill="currentColor"/></svg><svg viewBox="0 0 40 34" fill="none" id="communication-request" xmlns="http://www.w3.org/2000/svg"><path d="M0 21.19c.091-.705.34-1.359.658-1.988.488-.964 1.154-1.796 1.907-2.612.006.104.012.176.014.247.025 1.402.05 2.804.077 4.206.004.206.026.41.04.614.038.493.352.789.748 1.003.45.241.933.278 1.427.164.293-.068.512-.247.682-.488.392-.558.755-1.14 1.18-1.672.47-.59.987-1.144 1.504-1.695.298-.318.7-.38 1.114-.321.71.099 1.063.875.703 1.575-.127.247-.3.472-.462.7-.336.472-.69.932-1.017 1.41-.66.964-.97 2.042-1.072 3.205a45.982 45.982 0 0 1-.407 3.233c-.126.786-.212.854-.995.9-1.786.1-3.573.15-5.346-.184-.203-.038-.327-.132-.35-.336-.055-.461-.123-.922-.153-1.385-.082-1.18-.149-2.361-.223-3.542-.004-.067-.02-.134-.029-.2V21.19Z" fill="currentColor"/><path d="m34.742 27.245-.496-2.044c.303 0 .572-.023.837.005.427.045.543-.002.588-.429.065-.604.12-1.213.12-1.82.009-6.324.009-12.648 0-18.972 0-.5-.02-1-.044-1.498-.016-.349-.053-.388-.402-.394-1.516-.027-3.033-.062-4.55-.064-7.659-.009-15.319-.012-22.98-.01-.299 0-.415.095-.426.404-.03.823-.063 1.642-.065 2.463-.01 4.455-.013 8.91-.01 13.366a.593.593 0 0 1-.149.425c-.817.93-1.54 1.93-2.214 2.969-.207.32-.703.415-1.018.197-.24-.164-.39-.359-.388-.7.029-5.764.05-11.526.06-17.29.003-.608.042-1.216.056-1.825.008-.299.117-.56.275-.804.254-.391.6-.713 1.007-.94.306-.173.633-.234.98-.237C7.767.033 9.61.007 11.453.004 19.047 0 26.639 0 34.23.004c1.123 0 2.247.024 3.367-.005.471-.013.86.142 1.243.37.58.347.9.897 1.144 1.502a.439.439 0 0 1 .017.16c-.007 7.187-.015 14.374-.025 21.56 0 .56-.031 1.121-.057 1.682a.843.843 0 0 1-.073.337c-.43.837-1.022 1.492-2.02 1.551-1.017.063-2.038.06-3.083.084Zm3.19-12.899c.395 0 .777-.385.785-.784.008-.322-.34-.781-.807-.752-.408.024-.77.353-.77.744 0 .412.383.794.793.792Z" fill="currentColor"/><path d="M25.285 27.485c-.122-.538-.221-1.083-.371-1.613-.49-1.734-1.001-3.463-1.499-5.195a7.544 7.544 0 0 1-.17-.78.737.737 0 0 1 .163-.596c.353-.455.91-.637 1.416-.462a1.046 1.046 0 0 1 .686.705c.397 1.22.792 2.44 1.185 3.662.077.237.147.477.23.746.084-.06.133-.09.179-.127.478-.385 1.064-.425 1.567-.073.182.127.305.144.494.008.431-.312.962-.294 1.406.01.073.05.145.1.207.09.276-.101.544-.234.829-.297.467-.104.874.06 1.092.486.271.52.5 1.06.681 1.617.47 1.488.66 3.028.742 4.582.03.58.05 1.162.059 1.744a.406.406 0 0 1-.123.273c-.61.554-1.359.845-2.125 1.09-1.316.422-2.662.669-4.049.643a7.393 7.393 0 0 1-.892-.084c-.069-.01-.143-.09-.187-.157-.594-.898-1.158-1.82-1.782-2.697a13.296 13.296 0 0 0-2.776-2.849 5.318 5.318 0 0 1-.52-.459c-.328-.325-.403-.797-.217-1.233a1.11 1.11 0 0 1 1.051-.696c.327 0 .623.086.878.282.54.414 1.071.84 1.606 1.261l.188.148.052-.029ZM8.3 27.218c.042-.522.071-1.032.13-1.54.056-.5.069-.498.578-.498h12.449c-.605.579-1.052 1.19-.987 2.038H8.3ZM21.824 9.728h-5.49c-.272 0-.544-.017-.817-.038-.283-.022-.456-.22-.452-.503.003-.276.163-.472.444-.483a60.24 60.24 0 0 1 2.264-.057c3.415-.007 6.83-.003 10.245-.01.316 0 .429.224.551.437.112.194-.045.329-.151.469-.116.152-.255.205-.453.205-2.048-.008-4.095-.005-6.143-.005l.002-.015ZM21.855 5.978c-2.047-.021-4.093-.043-6.14-.066a2.036 2.036 0 0 1-.304-.03c-.228-.037-.353-.186-.348-.403.004-.217.136-.376.367-.386.713-.03 1.427-.067 2.14-.067 3.278-.002 6.556.003 9.834.014.272 0 .544.017.814.045.217.022.39.216.39.404.001.187-.173.386-.388.408a8.77 8.77 0 0 1-.876.048c-1.829.005-3.658.006-5.488.003v.03ZM21.73 13.345c-1.742 0-3.483 0-5.224-.002-.347 0-.695-.018-1.04-.046-.336-.028-.502-.333-.351-.615.086-.16.237-.194.398-.199.64-.018 1.278-.048 1.917-.048 3.298-.003 6.597-.001 9.895.006.292 0 .585.02.876.041.224.018.408.215.408.411 0 .197-.186.4-.412.407-.835.026-1.671.05-2.507.055-1.32.01-2.64.003-3.959.003l-.002-.013ZM27.041 16.05c.258.014.516.024.773.042a.653.653 0 0 1 .625.588 2.08 2.08 0 0 1-.004.47c-.032.3-.208.489-.5.545a5.226 5.226 0 0 1-1.983-.003c-.35-.068-.622-.42-.618-.747.005-.407.281-.765.672-.843a3.51 3.51 0 0 1 .526-.045c.17-.007.34 0 .51 0v-.006ZM21.71 17.78c-.292-.012-.584-.014-.875-.04-.413-.038-.672-.369-.673-.833 0-.458.245-.785.66-.81a19.904 19.904 0 0 1 1.627-.03c.343.009.604.197.747.52.129.291.091.572-.095.832-.172.24-.428.301-.699.314-.23.01-.461.002-.692.002v.046ZM16.492 16.047l.851.052c.301.018.512.175.572.464.045.218.049.443.01.662-.053.284-.245.48-.55.49-.583.017-1.168.038-1.75.014-.38-.016-.637-.388-.637-.823.001-.434.255-.772.645-.812.304-.03.61-.034.86-.047Z" fill="currentColor"/></svg><svg viewBox="0 -3 48 42" fill="none" id="communication-search" xmlns="http://www.w3.org/2000/svg"><path d="M4 23.265c.039-.12.074-.242.117-.361.22-.61.645-.917 1.264-.917 7.453 0 14.906-.003 22.359-.008.907 0 1.35.703 1.415 1.353.059.578-.082 1.095-.505 1.496a1.01 1.01 0 0 1-.705.291H5.524c-.878 0-1.273-.324-1.492-1.22A.579.579 0 0 0 4 23.82v-.556ZM37.673 32.21c-.066-.65-.508-1.355-1.415-1.353-2.804.006-5.61.009-8.414.009a1.908 1.908 0 0 0-.207-.011h-5.962c-5.424 0-10.849-.002-16.273-.005-.598 0-.999.27-1.245.82-.069.153-.105.322-.157.484v.559c.023.073.05.145.07.219.152.561.5.915 1.033 1.069h31.075c.095 0 .19 0 .286-.002.262 0 .514-.104.706-.292.421-.402.562-.919.503-1.496ZM4 5.571c.038-.12.072-.243.115-.362.219-.61.645-.921 1.261-.921 4.48 0 8.958.01 13.436-.009.898-.004 1.332.717 1.4 1.347.047.424-.02.829-.245 1.191-.245.39-.581.605-1.04.605-4.54-.002-9.08-.003-13.62-.002-.578 0-1.025-.366-1.218-.985-.031-.1-.058-.204-.087-.306L4 5.571ZM4 14.417c.055-.167.095-.344.17-.5.24-.51.613-.791 1.18-.791 4.485.005 8.97.014 13.456-.007.858-.004 1.323.655 1.402 1.318.068.567-.057 1.081-.462 1.492-.101.106-.222.19-.355.247a1.036 1.036 0 0 1-.419.084H5.25c-.552 0-1.004-.417-1.183-1.063-.02-.074-.045-.147-.067-.22v-.56ZM35.38 20.61c-2.903.915-5.676.64-8.283-.99-2.089-1.307-3.552-3.186-4.338-5.606-1.66-5.106.5-10.548 5.11-12.95 4.434-2.309 9.918-.742 12.713 3.614 2.973 4.633 2.012 11.155-2.535 14.521.03.066.058.137.09.205 1.893 4.078 3.76 8.17 5.694 12.226.581 1.22-.41 2.362-1.473 2.302-.534-.03-.92-.283-1.16-.801-1.898-4.1-3.799-8.197-5.704-12.292-.039-.078-.076-.152-.113-.23Zm4.025-10.04c.008-4.127-3.2-7.512-7.134-7.529-3.945-.017-7.18 3.368-7.184 7.52-.005 4.14 3.206 7.519 7.155 7.524 3.94.01 7.155-3.366 7.163-7.515Z" fill="currentColor"/></svg><svg viewBox="0 -4 48 48" fill="none" id="communication-telegram" xmlns="http://www.w3.org/2000/svg"><path d="M24 0C12.954 0 4 8.955 4 20s8.955 20 20 20c11.044 0 20-8.955 20-20C44 8.956 35.047 0 24 0Zm10.088 12.255c-.057.39-.158 1.101-.264 1.811a3135.309 3135.309 0 0 1-1.106 7.365l-.489 3.22c-.192 1.254-.378 2.51-.585 3.761-.075.459-.266.877-.647 1.166-.44.334-.944.302-1.447.187-.606-.14-1.155-.421-1.672-.76-1.166-.765-2.335-1.527-3.477-2.326a71.611 71.611 0 0 1-2.838-2.104c-.596-.464-.627-1.21-.09-1.734.827-.81 1.673-1.597 2.513-2.394.393-.373.79-.744 1.18-1.12.911-.873 1.827-1.74 2.723-2.628.205-.203.355-.47.497-.724.054-.1.074-.303.013-.366-.06-.063-.266-.085-.371-.039-.386.17-.78.338-1.128.571-2.172 1.453-4.334 2.923-6.498 4.388-.753.51-1.49 1.042-2.26 1.525-.527.332-1.138.331-1.743.288-.79-.054-1.52-.359-2.266-.579-.82-.24-1.629-.515-2.45-.745-.486-.137-.864-.832-.284-1.288.267-.2.555-.37.86-.507.817-.38 1.642-.744 2.467-1.105 1.52-.666 3.037-1.342 4.567-1.985 2.287-.961 4.585-1.901 6.88-2.844a918.37 918.37 0 0 1 5.499-2.239c.309-.124.625-.25.95-.313.91-.175 1.533.18 1.465 1.518h.001Z" fill="currentColor"/></svg><svg viewBox="0 -4 48 48" fill="none" id="communication-whatsapp" xmlns="http://www.w3.org/2000/svg"><path d="M43.9 20.022c-.023 9.587-6.803 17.817-16.21 19.613-4.36.832-8.553.241-12.542-1.723a1.05 1.05 0 0 0-.797-.078 815.208 815.208 0 0 1-5.934 1.572c-1.81.471-3.487-.612-3.726-2.426-.048-.36.006-.754.1-1.11a443.98 443.98 0 0 1 1.576-5.824c.077-.274.068-.496-.072-.758-3.833-7.151-2.788-16.25 2.559-22.353C12.148 3.175 16.255.854 21.202.2c6.198-.82 11.666.92 16.301 5.133 3.163 2.874 5.16 6.452 5.988 10.652.26 1.324.344 2.683.508 4.026l-.1.012Zm-1.953-1.016c0-1.47-.443-3.831-1.423-6.076C37.23 5.382 29.838 1.107 21.681 2.093c-4.749.575-8.668 2.78-11.68 6.49-4.71 5.805-5.387 13.631-1.827 20.206.213.392.258.762.14 1.193-.57 2.054-1.121 4.114-1.676 6.173-.275 1.02.31 1.623 1.32 1.36 2.083-.544 4.17-1.079 6.246-1.653.532-.148.968-.084 1.452.162 3.746 1.903 7.694 2.502 11.818 1.676 8.416-1.687 14.459-9.105 14.473-18.694Z" fill="currentColor"/><path d="M10.313 33.894c.294-1.073.559-2.084.85-3.087.348-1.2.206-2.323-.407-3.414-1.343-2.393-1.974-4.972-1.93-7.718.093-5.943 3.823-11.429 9.307-13.681 7.71-3.168 16.367.353 19.699 8.01 3.582 8.233-.993 18.019-9.587 20.51-4.014 1.165-7.865.715-11.564-1.187a3.872 3.872 0 0 0-2.878-.31c-1.034.274-2.07.543-3.106.81-.101.026-.206.036-.384.067Zm7.434-22.684c-.658-.062-1.212.01-1.671.446-1.506 1.427-2.058 3.163-1.662 5.194.294 1.51 1.095 2.778 1.939 4.03 2.649 3.937 6.079 6.784 10.768 7.944 1.753.433 3.392.442 4.943-.667 1.162-.83 1.49-1.981 1.483-3.293 0-.21-.167-.524-.345-.613-1.314-.663-2.649-1.282-3.98-1.911-.402-.19-.704-.063-.97.29-.444.59-.912 1.16-1.387 1.725-.387.457-.553.474-1.123.251-2.774-1.091-4.87-2.97-6.391-5.519-.294-.493-.258-.643.116-1.106.409-.51.813-1.031 1.146-1.59.121-.204.119-.564.03-.798-.422-1.116-.91-2.206-1.342-3.318-.295-.756-.706-1.28-1.554-1.065Z" fill="currentColor"/></svg><svg fill="none" viewBox="0 0 26 24" id="favorite" xmlns="http://www.w3.org/2000/svg"><path d="M12.998 23.999a.996.996 0 0 1-.529-.153C11.96 23.53 0 15.924 0 7.669 0 6.15.43 4.668 1.237 3.406A7.414 7.414 0 0 1 4.53.582 7.034 7.034 0 0 1 8.768.148a7.24 7.24 0 0 1 3.754 2.103l.479.501.478-.501A7.239 7.239 0 0 1 17.233.148a7.033 7.033 0 0 1 4.238.434 7.413 7.413 0 0 1 3.293 2.824A7.922 7.922 0 0 1 26 7.67c0 5.48-5.14 10.647-9.45 14.018a.997.997 0 0 1-.756.18 1.025 1.025 0 0 1-.663-.419 1.116 1.116 0 0 1 .184-1.49c3.222-2.516 8.621-7.46 8.621-12.29 0-1.09-.31-2.157-.889-3.064a5.33 5.33 0 0 0-2.367-2.031 5.056 5.056 0 0 0-3.048-.312 5.204 5.204 0 0 0-2.699 1.513l-1.21 1.264c-.095.1-.209.18-.334.234a.99.99 0 0 1-1.122-.234l-1.203-1.265a5.205 5.205 0 0 0-2.7-1.512 5.057 5.057 0 0 0-3.047.311 5.33 5.33 0 0 0-2.368 2.032 5.696 5.696 0 0 0-.889 3.065c0 7.039 11.355 14.26 11.47 14.33.193.12.343.304.427.523.083.22.096.46.036.688a1.08 1.08 0 0 1-.37.57 1 1 0 0 1-.624.219Z" fill="currentColor"/><path d="M4.993 11.206a.996.996 0 0 1-.547-.165 1.063 1.063 0 0 1-.38-.442c-.481-1.036-.725-2.022-.725-2.93 0-.548.103-1.09.304-1.597.2-.507.494-.967.865-1.355.37-.387.81-.694 1.295-.904a3.837 3.837 0 0 1 1.527-.317.99.99 0 0 1 .404.072c.129.052.246.13.345.231.1.1.178.221.232.354a1.121 1.121 0 0 1-.232 1.194c-.099.1-.216.18-.345.231a.99.99 0 0 1-.404.073c-.254 0-.505.051-.74.153-.233.101-.446.25-.626.437-.18.188-.321.41-.418.655a2.098 2.098 0 0 0-.147.773c0 .579.174 1.249.518 1.992a1.12 1.12 0 0 1-.053 1.043 1.051 1.051 0 0 1-.374.37.994.994 0 0 1-.499.136v-.004Z" fill="currentColor"/></svg><svg fill="none" viewBox="0 0 45 40" id="favorite-fill" xmlns="http://www.w3.org/2000/svg"><path d="M41.53 3.536A11.829 11.829 0 0 0 37.688.92a11.648 11.648 0 0 0-9.065 0 11.827 11.827 0 0 0-3.842 2.617L22.5 5.862l-2.281-2.326A11.732 11.732 0 0 0 11.843.001 11.732 11.732 0 0 0 3.47 3.536 12.188 12.188 0 0 0 0 12.071c0 3.2 1.248 6.27 3.469 8.534l2.282 2.326L22.499 40l16.75-17.07 2.281-2.325a12.085 12.085 0 0 0 2.568-3.915 12.267 12.267 0 0 0 0-9.238 12.086 12.086 0 0 0-2.568-3.916Z" fill="currentColor"/></svg><svg viewBox="0 0 40 36" id="favorite-stroke" xmlns="http://www.w3.org/2000/svg"><path class="as-favorite" d="M35.224 4.829a9.464 9.464 0 0 0-3.073-2.094 9.318 9.318 0 0 0-7.252 0 9.462 9.462 0 0 0-3.074 2.094L20 6.689l-1.826-1.86a9.385 9.385 0 0 0-6.7-2.828 9.385 9.385 0 0 0-6.699 2.828A9.75 9.75 0 0 0 2 11.657a9.75 9.75 0 0 0 2.775 6.827l1.826 1.86L20 34l13.398-13.655 1.826-1.86a9.669 9.669 0 0 0 2.055-3.133 9.814 9.814 0 0 0 0-7.39 9.668 9.668 0 0 0-2.055-3.133Z" fill="inherit" stroke="inherit" stroke-width="3" stroke-linecap="round" stroke-linejoin="round"/></svg><svg fill="none" viewBox="0 0 22 23" id="instagram" xmlns="http://www.w3.org/2000/svg"><path fill-rule="evenodd" clip-rule="evenodd" d="M11.44 8.766a3.006 3.006 0 0 0-3.12 1.617 2.988 2.988 0 0 0 .557 3.459 3.002 3.002 0 0 0 5.09-2.554 2.991 2.991 0 0 0-2.526-2.522ZM8.7 7.286a4.997 4.997 0 0 1 7.247 3.706 5.005 5.005 0 0 1-2.7 5.204 4.997 4.997 0 0 1-7.182-3.674 5.005 5.005 0 0 1 2.635-5.237ZM15.457 6.73c0-.556.447-1.006 1-1.006h.01c.552 0 1 .45 1 1.005 0 .555-.448 1.005-1 1.005h-.01c-.553 0-1-.45-1-1.005Z" fill="currentColor"/><path fill-rule="evenodd" clip-rule="evenodd" d="M6 2.736c-2.214 0-4 1.793-4 3.993v9.995c0 2.2 1.786 3.993 4 3.993h10c2.214 0 4-1.792 4-3.993V6.73c0-2.2-1.786-3.993-4-3.993H6ZM0 6.73A6.001 6.001 0 0 1 6 .727h10c3.309 0 6 2.682 6 6.002v9.995a6.001 6.001 0 0 1-6 6.003H6c-3.309 0-6-2.683-6-6.003V6.73Z" fill="currentColor"/></svg><svg viewBox="45 2 16 16" fill="none" id="magnify" xmlns="http://www.w3.org/2000/svg"><path d="M52.816 15.192c3.212 0 5.816-2.574 5.816-5.748 0-3.175-2.604-5.748-5.816-5.748C49.604 3.696 47 6.269 47 9.444c0 3.174 2.604 5.748 5.816 5.748ZM60.086 16.629l-3.163-3.126" stroke="currentColor" stroke-linecap="round" stroke-linejoin="round"/></svg><svg fill="none" viewBox="0 0 24 24" id="mail" xmlns="http://www.w3.org/2000/svg"><path d="M4 4h16c1.1 0 2 .9 2 2v12c0 1.1-.9 2-2 2H4c-1.1 0-2-.9-2-2V6c0-1.1.9-2 2-2Z" stroke="currentColor" stroke-width="2" stroke-linecap="round" stroke-linejoin="round"/><path d="m22 6-10 7L2 6" stroke="currentColor" stroke-width="2" stroke-linecap="round" stroke-linejoin="round"/></svg><svg fill="none" viewBox="0 0 24 24" id="medal" xmlns="http://www.w3.org/2000/svg"><path d="M12 15a7 7 0 1 0 0-14 7 7 0 0 0 0 14Z" stroke="currentColor" stroke-width="2" stroke-linecap="round" stroke-linejoin="round"/><path d="M8.21 13.89 7 23l5-3 5 3-1.21-9.12" stroke="currentColor" stroke-width="2" stroke-linecap="round" stroke-linejoin="round"/></svg><svg fill="none" viewBox="0 0 24 24" id="mens" xmlns="http://www.w3.org/2000/svg"><path d="M17 21v-2a4 4 0 0 0-4-4H5a4 4 0 0 0-4 4v2M9 11a4 4 0 1 0 0-8 4 4 0 0 0 0 8ZM23 21v-2a4 4 0 0 0-3-3.87M16 3.13a4 4 0 0 1 0 7.75" stroke="currentColor" stroke-width="2" stroke-linecap="round" stroke-linejoin="round"/></svg><svg fill="none" viewBox="0 0 24 24" id="menu" xmlns="http://www.w3.org/2000/svg"><path d="M21 10H3M21 6H3M21 14H3M21 18H3" stroke="currentColor" stroke-width="2" stroke-linecap="round" stroke-linejoin="round"/></svg><svg fill="none" viewBox="0 0 24 24" id="more" xmlns="http://www.w3.org/2000/svg"><path fill-rule="evenodd" clip-rule="evenodd" d="M9 13a3 3 0 1 1 6 0 3 3 0 0 1-6 0ZM18 13a3 3 0 1 1 6 0 3 3 0 0 1-6 0ZM0 13a3 3 0 1 1 6 0 3 3 0 0 1-6 0Z" fill="currentColor"/></svg><svg fill="currentColor" viewBox="0 0 27 25" id="ok" xmlns="http://www.w3.org/2000/svg"><path d="m0 13.036 2.834-2.387 6.388 5.259c4.77-5.822 10.206-10.843 16.47-14.926l.171.413c.147.355.289.712.444 1.064.055.123.04.198-.056.291a59.206 59.206 0 0 0-3.75 3.995 77.287 77.287 0 0 0-4.96 6.452 75.485 75.485 0 0 0-3.55 5.634c-1.066 1.88-2.068 3.795-2.855 5.823-.022.056-.05.11-.087.19L0 13.036Z"/></svg><svg fill="none" viewBox="0 0 24 24" id="percent" xmlns="http://www.w3.org/2000/svg"><path d="M19 5 5 19M6.5 9a2.5 2.5 0 1 0 0-5 2.5 2.5 0 0 0 0 5ZM17.5 20a2.5 2.5 0 1 0 0-5 2.5 2.5 0 0 0 0 5Z" stroke="currentColor" stroke-width="2" stroke-linecap="round" stroke-linejoin="round"/></svg><svg fill="none" viewBox="0 0 4 7" id="separator" xmlns="http://www.w3.org/2000/svg"><path d="m1 6 2.5-2.5L1 1" stroke="currentColor" stroke-width=".5" stroke-linecap="round" stroke-linejoin="round"/></svg><svg fill="none" viewBox="0 0 40 40" id="share" xmlns="http://www.w3.org/2000/svg"><path d="M19.997 39.993H7.516a7.484 7.484 0 0 1-7.442-6.419 7.573 7.573 0 0 1-.07-1.095c-.005-8.29-.005-16.58 0-24.871 0-3.269 1.854-5.971 4.895-7.15A6.88 6.88 0 0 1 7.4.005c8.39-.002 16.78-.002 25.17 0 4.083.007 7.418 3.348 7.423 7.424.01 8.37-.01 16.74.009 25.109.009 4.037-3.436 7.488-7.49 7.46-4.174-.03-8.344-.005-12.514-.005Zm3.343-30.01c-.855.04-1.665.06-2.474.119-2.575.188-5.095.643-7.44 1.77-2.402 1.156-4.206 2.95-5.345 5.365-.869 1.842-1.234 3.815-1.359 5.837-.11 1.79-.077 3.561.457 5.297.809 2.632 2.199 4.946 3.839 7.129.237.321.606.4.956.254.41-.171.56-.41.518-.862-.068-.719-.164-1.436-.217-2.157-.151-2.048-.205-4.095.141-6.133.17-1.001.436-1.972.904-2.878.837-1.62 2.23-2.533 3.922-3.043 1.908-.574 3.877-.664 5.851-.693.183 0 .256.06.238.238-.004.069-.004.138 0 .208 0 1.228.003 2.456 0 3.684 0 .56.17 1.032.649 1.358.776.532 1.579.457 2.282-.237 1.28-1.268 2.551-2.547 3.826-3.821l5.188-5.19c.748-.752.748-1.694 0-2.446a1078.137 1078.137 0 0 0-4.136-4.141 6623.032 6623.032 0 0 0-5.024-5.02c-.356-.357-.783-.536-1.293-.452-.944.158-1.48.79-1.482 1.747-.004 1.228 0 2.456 0 3.685l-.002.382Z" fill="currentColor"/></svg><svg fill="none" viewBox="0 0 24 24" id="smail" xmlns="http://www.w3.org/2000/svg"><path d="M12 22c5.523 0 10-4.477 10-10S17.523 2 12 2 2 6.477 2 12s4.477 10 10 10Z" stroke="currentColor" stroke-width="2" stroke-linecap="round" stroke-linejoin="round"/><path d="M8 14s1.5 2 4 2 4-2 4-2M9 9h.01M15 9h.01" stroke="currentColor" stroke-width="2" stroke-linecap="round" stroke-linejoin="round"/></svg><svg fill="none" viewBox="0 0 22 23" id="telegram" xmlns="http://www.w3.org/2000/svg"><path fill-rule="evenodd" clip-rule="evenodd" d="M6 2.736c-2.214 0-4 1.793-4 3.993v9.995c0 2.2 1.786 3.993 4 3.993h10c2.214 0 4-1.792 4-3.993V6.73c0-2.2-1.786-3.993-4-3.993H6ZM0 6.73A6.001 6.001 0 0 1 6 .727h10c3.309 0 6 2.682 6 6.002v9.995a6.001 6.001 0 0 1-6 6.003H6c-3.309 0-6-2.683-6-6.003V6.73Z" fill="currentColor"/><path d="m16.997 7.866-.149.97a1342.292 1342.292 0 0 1-.626 3.947l-.276 1.725c-.109.673-.215 1.345-.331 2.016-.042.246-.15.47-.367.625-.249.18-.533.162-.817.1a3.004 3.004 0 0 1-.945-.407c-.66-.411-1.32-.819-1.966-1.247a39.367 39.367 0 0 1-1.605-1.128c-.337-.249-.355-.649-.05-.93.467-.433.946-.856 1.42-1.282.223-.2.447-.4.668-.6.515-.468 1.033-.934 1.54-1.41.115-.108.2-.25.28-.387.032-.054.042-.162.008-.196-.039-.038-.151-.046-.21-.02-.217.09-.441.179-.638.305-1.229.779-2.45 1.566-3.674 2.351-.426.273-.843.559-1.278.818-.298.178-.644.177-.986.154-.447-.03-.859-.193-1.282-.31-.464-.129-.922-.277-1.386-.4-.276-.073-.49-.446-.16-.69.15-.107.314-.199.486-.271.461-.204.928-.4 1.395-.593.86-.357 1.717-.72 2.582-1.063 1.294-.515 2.593-1.02 3.89-1.525 1.036-.403 2.073-.803 3.11-1.2.175-.066.354-.134.538-.167.515-.092.868.098.829.815Z" fill="currentColor"/></svg><svg fill="none" viewBox="0 0 57 40" id="video" xmlns="http://www.w3.org/2000/svg"><path d="M24.207 0h8.082c.085.016.17.026.256.032 2.035.029 4.068.043 6.1.084 3.71.075 7.414.26 11.1.7 2.924.348 4.91 1.969 5.978 4.703.538 1.377.722 2.853.857 4.31.178 1.92.258 3.848.38 5.774.007.11.027.21.04.315v8.078c-.016.221-.043.442-.047.663-.064 2.9-.262 5.787-.89 8.62-.664 3.005-2.432 5.018-5.43 5.765-1.09.272-2.243.302-3.37.407-3.648.341-7.308.475-10.972.507-4.35.038-8.7.035-13.05.022-5.301-.015-10.595-.186-15.87-.756-3.064-.331-5.568-2.455-6.309-5.473C.404 31.09.16 28.37.092 25.637c-.117-4.63-.18-9.264.157-13.89.134-1.85.336-3.698.832-5.484.826-2.984 2.743-4.91 5.815-5.382C9.11.54 11.365.409 13.607.298c2.95-.145 5.905-.18 8.859-.263.581-.005 1.162-.02 1.741-.035Zm-3.032 28.914c6.044-3.156 12.052-6.293 18.104-9.45L21.175 9.96v18.954Z" fill="currentColor"/></svg><svg fill="none" viewBox="0 0 22 23" id="vk" xmlns="http://www.w3.org/2000/svg"><path fill-rule="evenodd" clip-rule="evenodd" d="M6 2.736c-2.214 0-4 1.793-4 3.993v9.995c0 2.2 1.786 3.993 4 3.993h10c2.214 0 4-1.792 4-3.993V6.73c0-2.2-1.786-3.993-4-3.993H6ZM0 6.73A6.001 6.001 0 0 1 6 .727h10c3.309 0 6 2.682 6 6.002v9.995a6.001 6.001 0 0 1-6 6.003H6c-3.309 0-6-2.683-6-6.003V6.73Z" fill="currentColor"/><path d="M18 16.07c-.757 0-1.484.004-2.214-.006-.051 0-.125-.088-.147-.151-.29-.8-.747-1.482-1.43-2.004a3.48 3.48 0 0 0-1.796-.71v2.863a7.39 7.39 0 0 1-1.817-.128c-2.747-.544-4.372-2.268-5.16-4.86-.283-.932-.41-1.89-.435-2.863v-.176h2.2c.03.367.05.736.095 1.102.142 1.164.46 2.266 1.191 3.215.412.533.917.954 1.567 1.181.063.023.13.038.22.062v-5.56h2.137v3.168c.441-.048.809-.222 1.142-.464.887-.642 1.454-1.507 1.801-2.53.02-.058.038-.118.056-.177h2.101c-.354 1.726-1.31 3.021-2.745 4.003 1.641.896 2.702 2.234 3.234 4.036Z" fill="currentColor"/></svg><svg fill="none" viewBox="0 0 22 23" id="youtube" xmlns="http://www.w3.org/2000/svg"><path fill-rule="evenodd" clip-rule="evenodd" d="M7.496 6.86a.996.996 0 0 1 .996-.006l7.034 3.998a1.006 1.006 0 0 1 0 1.75l-7.034 3.997a.996.996 0 0 1-.996-.006A1.006 1.006 0 0 1 7 15.725V7.729c0-.358.189-.688.496-.868ZM9 9.452v4.551l4.003-2.275L9 9.45Z" fill="currentColor"/><path fill-rule="evenodd" clip-rule="evenodd" d="M6 2.736c-2.214 0-4 1.793-4 3.993v9.995c0 2.2 1.786 3.993 4 3.993h10c2.214 0 4-1.792 4-3.993V6.73c0-2.2-1.786-3.993-4-3.993H6ZM0 6.73A6.001 6.001 0 0 1 6 .727h10c3.309 0 6 2.682 6 6.002v9.995a6.001 6.001 0 0 1-6 6.003H6c-3.309 0-6-2.683-6-6.003V6.73Z" fill="currentColor"/></svg></svg>