<?xml version="1.0" encoding="utf-8"?><svg viewBox="0 0 48 48" xmlns="http://www.w3.org/2000/svg" xmlns:xlink="http://www.w3.org/1999/xlink"><style>:root>svg{display:none}:root>svg:target{display:block}</style><svg fill="none" viewBox="0 0 24 24" id="account" xmlns="http://www.w3.org/2000/svg"><path d="M20.668 21.509c-.134-1.359-.534-2.575-1.223-3.693-1.246-2.025-3.091-3.307-5.31-4.109-.54-.195-.873-.534-.92-1.1-.046-.555.226-.935.718-1.204 1.78-.974 2.771-2.99 2.43-4.91-.359-2.024-1.927-3.61-3.903-3.949-2.314-.397-4.618.894-5.397 3.023-.821 2.241.068 4.644 2.169 5.828.496.28.775.665.725 1.233-.047.525-.353.866-.84 1.072a12.123 12.123 0 0 0-4.17 2.926c-1.592 1.699-2.41 3.706-2.437 6.02-.005.455-.14.843-.527 1.11-.404.28-.844.326-1.285.102-.46-.233-.7-.617-.698-1.133.009-2.665.854-5.04 2.536-7.128 1.03-1.28 2.29-2.3 3.68-3.177l.128-.082c-3.104-3.15-2.56-7.94.32-10.48A7.434 7.434 0 0 1 11.599 0a7.433 7.433 0 0 1 4.928 1.871c2.826 2.515 3.402 7.15.422 10.348.447.288.903.56 1.335.865 2.678 1.888 4.298 4.435 4.82 7.642.102.62.128 1.254.145 1.882.024.872-.508 1.385-1.39 1.385H8.906c-.195 0-.391.004-.587 0-.722-.018-1.264-.546-1.268-1.231-.004-.685.532-1.223 1.251-1.251.206-.008.412 0 .62 0h11.746v-.002Z" fill="currentColor"/></svg><svg fill="none" viewBox="0 0 26 46" id="arrow-carousel" xmlns="http://www.w3.org/2000/svg"><path d="M23.07 43.139 3.001 23.069 23.071 3" stroke="currentColor" stroke-width="5" stroke-linecap="round" stroke-linejoin="round"/></svg><svg viewBox="4 2 15 20" fill="currentColor" id="arrow-catalog" xmlns="http://www.w3.org/2000/svg"><path d="m4 2 .005 20L19 11.992 4 2Z"/></svg><svg fill="none" viewBox="0 0 21 17" id="arrow-nav" xmlns="http://www.w3.org/2000/svg"><path d="m.646 0 .007 16.712L21 8.35.646 0Z" fill="#E63E1D"/></svg><svg fill="none" viewBox="0 0 24 24" id="book" xmlns="http://www.w3.org/2000/svg"><path d="M2 3h6a4 4 0 0 1 4 4v14a3 3 0 0 0-3-3H2V3ZM22 3h-6a4 4 0 0 0-4 4v14a3 3 0 0 1 3-3h7V3Z" stroke="currentColor" stroke-width="2" stroke-linecap="round" stroke-linejoin="round"/></svg><svg fill="none" viewBox="0 0 24 24" id="box" xmlns="http://www.w3.org/2000/svg"><path d="m16.5 9.4-9-5.19M21 16V8a2 2 0 0 0-1-1.73l-7-4a2 2 0 0 0-2 0l-7 4A2 2 0 0 0 3 8v8a2 2 0 0 0 1 1.73l7 4a2 2 0 0 0 2 0l7-4A2 2 0 0 0 21 16Z" stroke="currentColor" stroke-width="2" stroke-linecap="round" stroke-linejoin="round"/><path d="M3.27 6.96 12 12.01l8.73-5.05M12 22.08V12" stroke="currentColor" stroke-width="2" stroke-linecap="round" stroke-linejoin="round"/></svg><svg fill="none" viewBox="0 0 24 24" id="car" xmlns="http://www.w3.org/2000/svg"><path d="M16 3H1v13h15V3ZM16 8h4l3 3v5h-7V8ZM5.5 21a2.5 2.5 0 1 0 0-5 2.5 2.5 0 0 0 0 5ZM18.5 21a2.5 2.5 0 1 0 0-5 2.5 2.5 0 0 0 0 5Z" stroke="currentColor" stroke-width="2" stroke-linecap="round" stroke-linejoin="round"/></svg><svg fill="none" viewBox="0 0 27 25" id="cart" xmlns="http://www.w3.org/2000/svg"><path d="M26.77 4.9c-.079.374-.147.75-.237 1.122-.617 2.523-1.236 5.045-1.86 7.566-.228.92-.494 1.83-.73 2.748-.168.658-.492.942-1.249.966-.69.021-1.383-.003-2.075-.006l-5.271-.02c-2.062-.01-4.124-.022-6.186-.034-.47-.002-.938.017-1.393.15-.555.162-.951.493-1.08 1.08-.087.402.055.746.317 1.046.199.228.45.38.729.492.072.027.12.02.159-.048.058-.103.118-.205.178-.307.558-.94 1.387-1.416 2.472-1.399.86.014 1.589.355 2.16 1.01.201.23.354.5.448.792.021.068.046.103.13.103 1.342-.004 2.685-.005 4.028-.002.069 0 .102-.019.126-.089.467-1.333 1.756-1.89 2.914-1.782.838.077 1.545.411 2.041 1.112.161.227.268.494.408.756.234 0 .498-.013.76.005.24.016.483.04.712.11.412.121.596.416.591.873-.004.434-.196.74-.604.837-.318.076-.656.078-.984.106a3.189 3.189 0 0 1-.396-.002c-.073-.004-.115.018-.142.091-.72 2.024-3.28 2.284-4.614 1.06a2.364 2.364 0 0 1-.67-1.032c-.03-.093-.07-.127-.17-.126-1.32.005-2.64.007-3.96.005-.114 0-.144.053-.178.14-.67 1.693-2.84 2.326-4.283 1.25-.431-.32-.733-.746-.957-1.227a.527.527 0 0 0-.36-.31 6.962 6.962 0 0 1-1.011-.368c-1.06-.516-1.64-1.385-1.72-2.556-.086-1.243.396-2.24 1.414-2.966a3.09 3.09 0 0 1 1.027-.461l.102-.03c-.013-.051-.022-.099-.036-.144L3.146 2.08c-.03-.098-.073-.14-.178-.137-.5.012-1.002.035-1.502.02a3.176 3.176 0 0 1-.83-.131.863.863 0 0 1-.627-.955.912.912 0 0 1 .814-.826 4.97 4.97 0 0 1 .585-.038c.71-.007 1.42-.01 2.13-.01.14 0 .282.01.422.027.315.04.55.207.667.5.174.438.333.885.48 1.335.211.654.406 1.314.615 1.994h.148l7.183-.004c3.533 0 7.065 0 10.598.002.41 0 .818-.032 1.228-.033.304-.005.609.008.912.04.47.058.855.25.98.765l-.001.27Zm-20.442.876c.014.05.022.085.033.12.173.551.35 1.102.518 1.655.031.105.073.141.186.14 1.415-.003 2.83-.001 4.244 0h.143V5.777H6.328Zm7.077 9.582h4.767v-1.903h-4.768v1.903Zm-.007-9.576v1.905h4.768V5.78l-4.768.002Zm0 3.832v1.9h4.764v-1.9h-4.764Zm6.689-3.837V7.69h3.998l.503-1.912h-4.501ZM7.512 9.614c.007.035.008.053.014.07.185.581.373 1.161.554 1.744.027.085.07.098.147.098h3.11c.036 0 .072-.003.119-.006V9.614H7.512Zm12.58 1.9c.015.005.03.009.045.01l2.948-.015c.076 0 .097-.035.113-.102.14-.576.284-1.15.426-1.724a.304.304 0 0 0 0-.066h-3.532v1.897ZM8.707 13.45c.05.198.088.39.147.575.124.39.256.777.39 1.164.044.126.127.182.278.179.602-.013 1.201-.007 1.802-.008.043 0 .087-.005.14-.009v-1.9H8.707Zm11.379 1.92c.045.002.08.006.116.005.605-.005 1.21-.015 1.814-.014.126 0 .2-.039.23-.157.15-.58.299-1.16.45-1.753h-2.61v1.919Zm-1.055 5.744c.008.633.441 1.066 1.056 1.054.623-.01 1.062-.447 1.054-1.047-.007-.63-.44-1.055-1.063-1.046-.61.007-1.055.448-1.047 1.038v.001Zm-8.51-1.04c-.607 0-1.076.451-1.076 1.037 0 .607.45 1.061 1.05 1.058.621-.005 1.06-.429 1.06-1.027 0-.63-.425-1.068-1.033-1.068Z" fill="currentColor"/></svg><svg viewBox="0 -4 48 48" fill="none" id="communication-phone" xmlns="http://www.w3.org/2000/svg"><path d="M23.955 40c-3.102-.045-6.15-.41-9.11-1.364-2.834-.915-5.404-2.289-7.551-4.38a13.204 13.204 0 0 1-.916-.994 2.704 2.704 0 0 1-.656-1.854c.152-6.08 2.423-11.176 7.119-15.126a16.67 16.67 0 0 1 5.662-3.114c.24-.078.312-.188.302-.43-.02-.467-.011-.935-.003-1.402.003-.16-.043-.254-.189-.337-1.069-.612-1.542-1.565-1.55-2.767-.005-.662.483-1.171 1.149-1.229.628-.054 1.257.386 1.302 1.026.052.724.467 1.104 1.283 1.109 2.133.012 4.267.01 6.4-.031.78-.016 1.02-.43 1.052-.98.039-.672.655-1.173 1.306-1.126.682.049 1.185.583 1.167 1.267-.03 1.188-.512 2.125-1.56 2.746a.395.395 0 0 0-.173.28c-.016.52-.001 1.04-.012 1.561-.003.165.065.229.212.276 6.63 2.14 11.513 8.139 12.599 15.206.158 1.034.196 2.088.265 3.134.045.703-.216 1.313-.672 1.843-1.555 1.812-3.449 3.18-5.591 4.22-2.676 1.298-5.52 1.986-8.47 2.26-1.118.108-2.243.14-3.365.205ZM24 31.972c2.608-.05 5-.784 7.009-2.542 1.459-1.277 2.392-2.86 2.532-4.82.17-2.369-.79-4.291-2.543-5.819-2.206-1.925-4.838-2.658-7.727-2.505-2.404.127-4.579.907-6.396 2.518-1.662 1.474-2.623 3.3-2.536 5.565.08 2.07 1.028 3.736 2.564 5.076 2.018 1.76 4.423 2.486 7.097 2.527Z" fill="currentColor"/><path d="M32.76 7.207c-.268-.199-.52-.403-.79-.583-1.561-1.03-3.301-1.572-5.136-1.819-2.695-.363-5.37-.286-7.997.492-1.242.368-2.39.924-3.4 1.748-.172.142-.204.246-.081.452.67 1.123.987 2.344.838 3.649a3.88 3.88 0 0 1-1.253 2.446 3.906 3.906 0 0 1-2.564 1.01c-1.638.026-3.275.026-4.913 0-1.925-.032-3.396-1.568-3.46-3.488-.094-2.85 1.243-5.014 3.243-6.87.184-.17.414-.307.644-.414C12.314 1.784 16.934.454 21.811.081c3.759-.288 7.437.213 11.066 1.164A46.798 46.798 0 0 1 39.59 3.58a5.622 5.622 0 0 1 2.208 1.685c.867 1.086 1.627 2.246 1.965 3.6.308 1.236.379 2.513-.16 3.713-.573 1.277-1.618 1.99-3.02 2.035a83.798 83.798 0 0 1-5.125.002c-2.086-.06-3.72-1.797-3.739-3.898a6.04 6.04 0 0 1 .85-3.182c.059-.098.115-.197.192-.328ZM23.994 28.3c-1.498-.017-2.896-.368-4.099-1.295-1.038-.802-1.664-1.826-1.537-3.188.094-1.008.625-1.785 1.384-2.419.966-.806 2.105-1.22 3.343-1.36 1.736-.197 3.371.098 4.83 1.102.313.217.598.47.85.755 1.24 1.393 1.207 3.232-.08 4.587-1.049 1.105-2.388 1.601-3.87 1.78-.175.02-.353.028-.53.037-.096.006-.194.002-.291.002Z" fill="currentColor"/></svg><svg viewBox="0 0 40 34" fill="none" id="communication-request" xmlns="http://www.w3.org/2000/svg"><path d="M0 21.19c.091-.705.34-1.359.658-1.988.488-.964 1.154-1.796 1.907-2.612.006.104.012.176.014.247.025 1.402.05 2.804.077 4.206.004.206.026.41.04.614.038.493.352.789.748 1.003.45.241.933.278 1.427.164.293-.068.512-.247.682-.488.392-.558.755-1.14 1.18-1.672.47-.59.987-1.144 1.504-1.695.298-.318.7-.38 1.114-.321.71.099 1.063.875.703 1.575-.127.247-.3.472-.462.7-.336.472-.69.932-1.017 1.41-.66.964-.97 2.042-1.072 3.205a45.982 45.982 0 0 1-.407 3.233c-.126.786-.212.854-.995.9-1.786.1-3.573.15-5.346-.184-.203-.038-.327-.132-.35-.336-.055-.461-.123-.922-.153-1.385-.082-1.18-.149-2.361-.223-3.542-.004-.067-.02-.134-.029-.2V21.19Z" fill="currentColor"/><path d="m34.742 27.245-.496-2.044c.303 0 .572-.023.837.005.427.045.543-.002.588-.429.065-.604.12-1.213.12-1.82.009-6.324.009-12.648 0-18.972 0-.5-.02-1-.044-1.498-.016-.349-.053-.388-.402-.394-1.516-.027-3.033-.062-4.55-.064-7.659-.009-15.319-.012-22.98-.01-.299 0-.415.095-.426.404-.03.823-.063 1.642-.065 2.463-.01 4.455-.013 8.91-.01 13.366a.593.593 0 0 1-.149.425c-.817.93-1.54 1.93-2.214 2.969-.207.32-.703.415-1.018.197-.24-.164-.39-.359-.388-.7.029-5.764.05-11.526.06-17.29.003-.608.042-1.216.056-1.825.008-.299.117-.56.275-.804.254-.391.6-.713 1.007-.94.306-.173.633-.234.98-.237C7.767.033 9.61.007 11.453.004 19.047 0 26.639 0 34.23.004c1.123 0 2.247.024 3.367-.005.471-.013.86.142 1.243.37.58.347.9.897 1.144 1.502a.439.439 0 0 1 .017.16c-.007 7.187-.015 14.374-.025 21.56 0 .56-.031 1.121-.057 1.682a.843.843 0 0 1-.073.337c-.43.837-1.022 1.492-2.02 1.551-1.017.063-2.038.06-3.083.084Zm3.19-12.899c.395 0 .777-.385.785-.784.008-.322-.34-.781-.807-.752-.408.024-.77.353-.77.744 0 .412.383.794.793.792Z" fill="currentColor"/><path d="M25.285 27.485c-.122-.538-.221-1.083-.371-1.613-.49-1.734-1.001-3.463-1.499-5.195a7.544 7.544 0 0 1-.17-.78.737.737 0 0 1 .163-.596c.353-.455.91-.637 1.416-.462a1.046 1.046 0 0 1 .686.705c.397 1.22.792 2.44 1.185 3.662.077.237.147.477.23.746.084-.06.133-.09.179-.127.478-.385 1.064-.425 1.567-.073.182.127.305.144.494.008.431-.312.962-.294 1.406.01.073.05.145.1.207.09.276-.101.544-.234.829-.297.467-.104.874.06 1.092.486.271.52.5 1.06.681 1.617.47 1.488.66 3.028.742 4.582.03.58.05 1.162.059 1.744a.406.406 0 0 1-.123.273c-.61.554-1.359.845-2.125 1.09-1.316.422-2.662.669-4.049.643a7.393 7.393 0 0 1-.892-.084c-.069-.01-.143-.09-.187-.157-.594-.898-1.158-1.82-1.782-2.697a13.296 13.296 0 0 0-2.776-2.849 5.318 5.318 0 0 1-.52-.459c-.328-.325-.403-.797-.217-1.233a1.11 1.11 0 0 1 1.051-.696c.327 0 .623.086.878.282.54.414 1.071.84 1.606 1.261l.188.148.052-.029ZM8.3 27.218c.042-.522.071-1.032.13-1.54.056-.5.069-.498.578-.498h12.449c-.605.579-1.052 1.19-.987 2.038H8.3ZM21.824 9.728h-5.49c-.272 0-.544-.017-.817-.038-.283-.022-.456-.22-.452-.503.003-.276.163-.472.444-.483a60.24 60.24 0 0 1 2.264-.057c3.415-.007 6.83-.003 10.245-.01.316 0 .429.224.551.437.112.194-.045.329-.151.469-.116.152-.255.205-.453.205-2.048-.008-4.095-.005-6.143-.005l.002-.015ZM21.855 5.978c-2.047-.021-4.093-.043-6.14-.066a2.036 2.036 0 0 1-.304-.03c-.228-.037-.353-.186-.348-.403.004-.217.136-.376.367-.386.713-.03 1.427-.067 2.14-.067 3.278-.002 6.556.003 9.834.014.272 0 .544.017.814.045.217.022.39.216.39.404.001.187-.173.386-.388.408a8.77 8.77 0 0 1-.876.048c-1.829.005-3.658.006-5.488.003v.03ZM21.73 13.345c-1.742 0-3.483 0-5.224-.002-.347 0-.695-.018-1.04-.046-.336-.028-.502-.333-.351-.615.086-.16.237-.194.398-.199.64-.018 1.278-.048 1.917-.048 3.298-.003 6.597-.001 9.895.006.292 0 .585.02.876.041.224.018.408.215.408.411 0 .197-.186.4-.412.407-.835.026-1.671.05-2.507.055-1.32.01-2.64.003-3.959.003l-.002-.013ZM27.041 16.05c.258.014.516.024.773.042a.653.653 0 0 1 .625.588 2.08 2.08 0 0 1-.004.47c-.032.3-.208.489-.5.545a5.226 5.226 0 0 1-1.983-.003c-.35-.068-.622-.42-.618-.747.005-.407.281-.765.672-.843a3.51 3.51 0 0 1 .526-.045c.17-.007.34 0 .51 0v-.006ZM21.71 17.78c-.292-.012-.584-.014-.875-.04-.413-.038-.672-.369-.673-.833 0-.458.245-.785.66-.81a19.904 19.904 0 0 1 1.627-.03c.343.009.604.197.747.52.129.291.091.572-.095.832-.172.24-.428.301-.699.314-.23.01-.461.002-.692.002v.046ZM16.492 16.047l.851.052c.301.018.512.175.572.464.045.218.049.443.01.662-.053.284-.245.48-.55.49-.583.017-1.168.038-1.75.014-.38-.016-.637-.388-.637-.823.001-.434.255-.772.645-.812.304-.03.61-.034.86-.047Z" fill="currentColor"/></svg><svg viewBox="0 -3 48 42" fill="none" id="communication-search" xmlns="http://www.w3.org/2000/svg"><path d="M4 23.265c.039-.12.074-.242.117-.361.22-.61.645-.917 1.264-.917 7.453 0 14.906-.003 22.359-.008.907 0 1.35.703 1.415 1.353.059.578-.082 1.095-.505 1.496a1.01 1.01 0 0 1-.705.291H5.524c-.878 0-1.273-.324-1.492-1.22A.579.579 0 0 0 4 23.82v-.556ZM37.673 32.21c-.066-.65-.508-1.355-1.415-1.353-2.804.006-5.61.009-8.414.009a1.908 1.908 0 0 0-.207-.011h-5.962c-5.424 0-10.849-.002-16.273-.005-.598 0-.999.27-1.245.82-.069.153-.105.322-.157.484v.559c.023.073.05.145.07.219.152.561.5.915 1.033 1.069h31.075c.095 0 .19 0 .286-.002.262 0 .514-.104.706-.292.421-.402.562-.919.503-1.496ZM4 5.571c.038-.12.072-.243.115-.362.219-.61.645-.921 1.261-.921 4.48 0 8.958.01 13.436-.009.898-.004 1.332.717 1.4 1.347.047.424-.02.829-.245 1.191-.245.39-.581.605-1.04.605-4.54-.002-9.08-.003-13.62-.002-.578 0-1.025-.366-1.218-.985-.031-.1-.058-.204-.087-.306L4 5.571ZM4 14.417c.055-.167.095-.344.17-.5.24-.51.613-.791 1.18-.791 4.485.005 8.97.014 13.456-.007.858-.004 1.323.655 1.402 1.318.068.567-.057 1.081-.462 1.492-.101.106-.222.19-.355.247a1.036 1.036 0 0 1-.419.084H5.25c-.552 0-1.004-.417-1.183-1.063-.02-.074-.045-.147-.067-.22v-.56ZM35.38 20.61c-2.903.915-5.676.64-8.283-.99-2.089-1.307-3.552-3.186-4.338-5.606-1.66-5.106.5-10.548 5.11-12.95 4.434-2.309 9.918-.742 12.713 3.614 2.973 4.633 2.012 11.155-2.535 14.521.03.066.058.137.09.205 1.893 4.078 3.76 8.17 5.694 12.226.581 1.22-.41 2.362-1.473 2.302-.534-.03-.92-.283-1.16-.801-1.898-4.1-3.799-8.197-5.704-12.292-.039-.078-.076-.152-.113-.23Zm4.025-10.04c.008-4.127-3.2-7.512-7.134-7.529-3.945-.017-7.18 3.368-7.184 7.52-.005 4.14 3.206 7.519 7.155 7.524 3.94.01 7.155-3.366 7.163-7.515Z" fill="currentColor"/></svg><svg viewBox="0 -4 48 48" fill="none" id="communication-telegram" xmlns="http://www.w3.org/2000/svg"><path d="M24 0C12.954 0 4 8.955 4 20s8.955 20 20 20c11.044 0 20-8.955 20-20C44 8.956 35.047 0 24 0Zm10.088 12.255c-.057.39-.158 1.101-.264 1.811a3135.309 3135.309 0 0 1-1.106 7.365l-.489 3.22c-.192 1.254-.378 2.51-.585 3.761-.075.459-.266.877-.647 1.166-.44.334-.944.302-1.447.187-.606-.14-1.155-.421-1.672-.76-1.166-.765-2.335-1.527-3.477-2.326a71.611 71.611 0 0 1-2.838-2.104c-.596-.464-.627-1.21-.09-1.734.827-.81 1.673-1.597 2.513-2.394.393-.373.79-.744 1.18-1.12.911-.873 1.827-1.74 2.723-2.628.205-.203.355-.47.497-.724.054-.1.074-.303.013-.366-.06-.063-.266-.085-.371-.039-.386.17-.78.338-1.128.571-2.172 1.453-4.334 2.923-6.498 4.388-.753.51-1.49 1.042-2.26 1.525-.527.332-1.138.331-1.743.288-.79-.054-1.52-.359-2.266-.579-.82-.24-1.629-.515-2.45-.745-.486-.137-.864-.832-.284-1.288.267-.2.555-.37.86-.507.817-.38 1.642-.744 2.467-1.105 1.52-.666 3.037-1.342 4.567-1.985 2.287-.961 4.585-1.901 6.88-2.844a918.37 918.37 0 0 1 5.499-2.239c.309-.124.625-.25.95-.313.91-.175 1.533.18 1.465 1.518h.001Z" fill="currentColor"/></svg><svg viewBox="0 -4 48 48" fill="none" id="communication-whatsapp" xmlns="http://www.w3.org/2000/svg"><path d="M43.9 20.022c-.023 9.587-6.803 17.817-16.21 19.613-4.36.832-8.553.241-12.542-1.723a1.05 1.05 0 0 0-.797-.078 815.208 815.208 0 0 1-5.934 1.572c-1.81.471-3.487-.612-3.726-2.426-.048-.36.006-.754.1-1.11a443.98 443.98 0 0 1 1.576-5.824c.077-.274.068-.496-.072-.758-3.833-7.151-2.788-16.25 2.559-22.353C12.148 3.175 16.255.854 21.202.2c6.198-.82 11.666.92 16.301 5.133 3.163 2.874 5.16 6.452 5.988 10.652.26 1.324.344 2.683.508 4.026l-.1.012Zm-1.953-1.016c0-1.47-.443-3.831-1.423-6.076C37.23 5.382 29.838 1.107 21.681 2.093c-4.749.575-8.668 2.78-11.68 6.49-4.71 5.805-5.387 13.631-1.827 20.206.213.392.258.762.14 1.193-.57 2.054-1.121 4.114-1.676 6.173-.275 1.02.31 1.623 1.32 1.36 2.083-.544 4.17-1.079 6.246-1.653.532-.148.968-.084 1.452.162 3.746 1.903 7.694 2.502 11.818 1.676 8.416-1.687 14.459-9.105 14.473-18.694Z" fill="currentColor"/><path d="M10.313 33.894c.294-1.073.559-2.084.85-3.087.348-1.2.206-2.323-.407-3.414-1.343-2.393-1.974-4.972-1.93-7.718.093-5.943 3.823-11.429 9.307-13.681 7.71-3.168 16.367.353 19.699 8.01 3.582 8.233-.993 18.019-9.587 20.51-4.014 1.165-7.865.715-11.564-1.187a3.872 3.872 0 0 0-2.878-.31c-1.034.274-2.07.543-3.106.81-.101.026-.206.036-.384.067Zm7.434-22.684c-.658-.062-1.212.01-1.671.446-1.506 1.427-2.058 3.163-1.662 5.194.294 1.51 1.095 2.778 1.939 4.03 2.649 3.937 6.079 6.784 10.768 7.944 1.753.433 3.392.442 4.943-.667 1.162-.83 1.49-1.981 1.483-3.293 0-.21-.167-.524-.345-.613-1.314-.663-2.649-1.282-3.98-1.911-.402-.19-.704-.063-.97.29-.444.59-.912 1.16-1.387 1.725-.387.457-.553.474-1.123.251-2.774-1.091-4.87-2.97-6.391-5.519-.294-.493-.258-.643.116-1.106.409-.51.813-1.031 1.146-1.59.121-.204.119-.564.03-.798-.422-1.116-.91-2.206-1.342-3.318-.295-.756-.706-1.28-1.554-1.065Z" fill="currentColor"/></svg><svg fill="none" viewBox="0 0 27 24" id="favorite" xmlns="http://www.w3.org/2000/svg"><path d="M13.438 24c-.192 0-.381-.053-.547-.154C12.365 23.532 0 15.925 0 7.67c0-1.517.445-3 1.279-4.262A7.6 7.6 0 0 1 4.683.583 7.5 7.5 0 0 1 9.065.149a7.555 7.555 0 0 1 3.881 2.103l.495.5.494-.5a7.553 7.553 0 0 1 3.88-2.104 7.498 7.498 0 0 1 4.383.434 7.6 7.6 0 0 1 3.404 2.825 7.733 7.733 0 0 1 1.278 4.262c0 5.48-5.313 10.647-9.77 14.018a1.057 1.057 0 0 1-1.466-.238 1.088 1.088 0 0 1 .19-1.49c3.33-2.516 8.912-7.461 8.912-12.29a5.56 5.56 0 0 0-.919-3.064 5.463 5.463 0 0 0-2.448-2.031 5.39 5.39 0 0 0-3.15-.312 5.43 5.43 0 0 0-2.79 1.513L14.188 5.04a1.063 1.063 0 0 1-.753.315 1.053 1.053 0 0 1-.753-.315l-1.244-1.265a5.431 5.431 0 0 0-2.79-1.513 5.391 5.391 0 0 0-3.151.312 5.464 5.464 0 0 0-2.448 2.031 5.56 5.56 0 0 0-.92 3.065c0 7.04 11.74 14.26 11.859 14.33a1.088 1.088 0 0 1 .096 1.782c-.186.142-.412.219-.646.218Z" fill="currentColor"/><path d="M5.163 11.207a1.074 1.074 0 0 1-.959-.607c-.497-1.037-.749-2.022-.749-2.93 0-.548.107-1.091.314-1.598.207-.506.511-.966.894-1.354a4.121 4.121 0 0 1 1.339-.904c.5-.21 1.037-.318 1.579-.317a1.054 1.054 0 0 1 .775.303 1.078 1.078 0 0 1 .323.774 1.089 1.089 0 0 1-.323.774 1.064 1.064 0 0 1-.775.303 1.974 1.974 0 0 0-1.412.59 2.02 2.02 0 0 0-.584 1.429c0 .579.18 1.249.536 1.992a1.089 1.089 0 0 1-.442 1.413 1.055 1.055 0 0 1-.516.136v-.005Z" fill="currentColor"/></svg><svg viewBox="0 0 40 36" id="favorite-stroke" xmlns="http://www.w3.org/2000/svg"><path class="n-favorite" d="M35.224 4.829a9.464 9.464 0 0 0-3.073-2.094 9.318 9.318 0 0 0-7.252 0 9.462 9.462 0 0 0-3.074 2.094L20 6.689l-1.826-1.86a9.385 9.385 0 0 0-6.7-2.828 9.385 9.385 0 0 0-6.699 2.828A9.75 9.75 0 0 0 2 11.657a9.75 9.75 0 0 0 2.775 6.827l1.826 1.86L20 34l13.398-13.655 1.826-1.86a9.669 9.669 0 0 0 2.055-3.133 9.814 9.814 0 0 0 0-7.39 9.668 9.668 0 0 0-2.055-3.133Z" fill="inherit" stroke="inherit" stroke-width="3" stroke-linecap="round" stroke-linejoin="round"/></svg><svg fill="none" viewBox="0 0 22 23" id="instagram" xmlns="http://www.w3.org/2000/svg"><path d="M14.957 11.091a3.961 3.961 0 0 1-.407 2.417 3.99 3.99 0 0 1-1.752 1.721 4.018 4.018 0 0 1-4.626-.74 3.961 3.961 0 0 1-.745-4.603 3.99 3.99 0 0 1 1.73-1.743 4.018 4.018 0 0 1 4.671.718 3.97 3.97 0 0 1 1.129 2.23ZM16.457 6.701h.01" stroke="currentColor" stroke-width="2" stroke-linecap="round" stroke-linejoin="round"/><path d="M16 1.727H6c-2.761 0-5 2.227-5 4.974v9.948c0 2.747 2.239 4.974 5 4.974h10c2.761 0 5-2.227 5-4.974V6.701c0-2.747-2.239-4.974-5-4.974Z" stroke="currentColor" stroke-width="2" stroke-linecap="round" stroke-linejoin="round"/></svg><svg fill="none" viewBox="0 0 24 24" id="mail" xmlns="http://www.w3.org/2000/svg"><path d="M4 4h16c1.1 0 2 .9 2 2v12c0 1.1-.9 2-2 2H4c-1.1 0-2-.9-2-2V6c0-1.1.9-2 2-2Z" stroke="currentColor" stroke-width="2" stroke-linecap="round" stroke-linejoin="round"/><path d="m22 6-10 7L2 6" stroke="currentColor" stroke-width="2" stroke-linecap="round" stroke-linejoin="round"/></svg><svg fill="none" viewBox="0 0 24 24" id="medal" xmlns="http://www.w3.org/2000/svg"><path d="M12 15a7 7 0 1 0 0-14 7 7 0 0 0 0 14Z" stroke="currentColor" stroke-width="2" stroke-linecap="round" stroke-linejoin="round"/><path d="M8.21 13.89 7 23l5-3 5 3-1.21-9.12" stroke="currentColor" stroke-width="2" stroke-linecap="round" stroke-linejoin="round"/></svg><svg fill="none" viewBox="0 0 24 24" id="mens" xmlns="http://www.w3.org/2000/svg"><path d="M17 21v-2a4 4 0 0 0-4-4H5a4 4 0 0 0-4 4v2M9 11a4 4 0 1 0 0-8 4 4 0 0 0 0 8ZM23 21v-2a4 4 0 0 0-3-3.87M16 3.13a4 4 0 0 1 0 7.75" stroke="currentColor" stroke-width="2" stroke-linecap="round" stroke-linejoin="round"/></svg><svg fill="none" viewBox="0 0 24 24" id="menu" xmlns="http://www.w3.org/2000/svg"><path d="M21 10H3M21 6H3M21 14H3M21 18H3" stroke="currentColor" stroke-width="2" stroke-linecap="round" stroke-linejoin="round"/></svg><svg fill="currentColor" viewBox="0 0 27 25" id="ok" xmlns="http://www.w3.org/2000/svg"><path d="m0 13.036 2.834-2.387 6.388 5.259c4.77-5.822 10.206-10.843 16.47-14.926l.171.413c.147.355.289.712.444 1.064.055.123.04.198-.056.291a59.206 59.206 0 0 0-3.75 3.995 77.287 77.287 0 0 0-4.96 6.452 75.485 75.485 0 0 0-3.55 5.634c-1.066 1.88-2.068 3.795-2.855 5.823-.022.056-.05.11-.087.19L0 13.036Z"/></svg><svg fill="none" viewBox="0 0 24 24" id="percent" xmlns="http://www.w3.org/2000/svg"><path d="M19 5 5 19M6.5 9a2.5 2.5 0 1 0 0-5 2.5 2.5 0 0 0 0 5ZM17.5 20a2.5 2.5 0 1 0 0-5 2.5 2.5 0 0 0 0 5Z" stroke="currentColor" stroke-width="2" stroke-linecap="round" stroke-linejoin="round"/></svg><svg fill="none" viewBox="0 0 24 24" id="smail" xmlns="http://www.w3.org/2000/svg"><path d="M12 22c5.523 0 10-4.477 10-10S17.523 2 12 2 2 6.477 2 12s4.477 10 10 10Z" stroke="currentColor" stroke-width="2" stroke-linecap="round" stroke-linejoin="round"/><path d="M8 14s1.5 2 4 2 4-2 4-2M9 9h.01M15 9h.01" stroke="currentColor" stroke-width="2" stroke-linecap="round" stroke-linejoin="round"/></svg><svg fill="none" viewBox="0 0 22 23" id="telegram" xmlns="http://www.w3.org/2000/svg"><path d="M16 1.727H6c-2.761 0-5 2.227-5 4.974v9.948c0 2.747 2.239 4.974 5 4.974h10c2.761 0 5-2.227 5-4.974V6.701c0-2.747-2.239-4.974-5-4.974Z" stroke="currentColor" stroke-width="2" stroke-linecap="round" stroke-linejoin="round"/><g clip-path="url(#xa)"><path d="m16.997 7.832-.149.967a1428.683 1428.683 0 0 1-.625 3.928l-.277 1.717c-.108.669-.215 1.339-.33 2.006-.043.245-.152.468-.368.622-.248.18-.533.161-.817.1a3.01 3.01 0 0 1-.945-.405c-.659-.41-1.32-.815-1.966-1.241a39.478 39.478 0 0 1-1.605-1.123c-.337-.248-.354-.646-.05-.926.467-.43.946-.851 1.42-1.276.223-.2.447-.397.668-.598.515-.465 1.033-.928 1.54-1.402.115-.108.2-.25.28-.386.032-.053.042-.161.008-.195-.039-.038-.15-.045-.21-.02-.217.09-.441.179-.638.304-1.228.775-2.45 1.559-3.674 2.34-.426.272-.843.556-1.278.814-.298.177-.644.176-.986.153-.447-.03-.859-.191-1.282-.308-.463-.128-.922-.275-1.386-.398-.276-.073-.49-.444-.16-.687.15-.107.314-.198.486-.27.461-.203.929-.397 1.395-.59.86-.355 1.717-.716 2.583-1.058 1.293-.513 2.592-1.015 3.89-1.518 1.035-.4 2.072-.799 3.11-1.194.175-.066.354-.133.538-.166.514-.092.867.097.828.81Z" fill="currentColor"/></g><defs><clipPath id="xa"><path fill="currentColor" transform="translate(4 7)" d="M0 0h13v10.214H0z"/></clipPath></defs></svg><svg fill="none" viewBox="0 0 22 23" id="vk" xmlns="http://www.w3.org/2000/svg"><path d="M16 1.727H6c-2.761 0-5 2.227-5 4.974v9.948c0 2.747 2.239 4.974 5 4.974h10c2.761 0 5-2.227 5-4.974V6.701c0-2.747-2.239-4.974-5-4.974Z" stroke="currentColor" stroke-width="2" stroke-linecap="round" stroke-linejoin="round"/><g clip-path="url(#ya)"><path d="M18 16c-.758 0-1.485.002-2.215-.008-.05 0-.125-.087-.147-.15-.29-.796-.747-1.475-1.43-1.994a3.49 3.49 0 0 0-1.796-.707v2.85a7.42 7.42 0 0 1-1.817-.128c-2.747-.541-4.372-2.258-5.16-4.837-.283-.928-.41-1.882-.435-2.85v-.175h2.2c.031.365.05.733.095 1.097.142 1.158.46 2.255 1.192 3.2.412.53.916.95 1.566 1.176.063.022.13.037.22.06V8.002h2.138v3.153c.44-.048.808-.22 1.141-.461.887-.64 1.455-1.5 1.801-2.519.02-.058.038-.117.056-.176h2.102c-.354 1.717-1.31 3.007-2.746 3.984 1.641.892 2.703 2.224 3.234 4.017Z" fill="currentColor"/></g><defs><clipPath id="ya"><path fill="currentColor" transform="translate(5 8)" d="M0 0h13v8H0z"/></clipPath></defs></svg><svg fill="none" viewBox="0 0 22 23" id="youtube" xmlns="http://www.w3.org/2000/svg"><path d="m9 15.654 7.034-3.98L9 7.696v7.96Z" stroke="currentColor" stroke-width="2" stroke-linecap="round" stroke-linejoin="round"/><path d="M16 1.727H6c-2.761 0-5 2.227-5 4.974v9.948c0 2.747 2.239 4.974 5 4.974h10c2.761 0 5-2.227 5-4.974V6.701c0-2.747-2.239-4.974-5-4.974Z" stroke="currentColor" stroke-width="2" stroke-linecap="round" stroke-linejoin="round"/></svg></svg>