<svg width="320" height="192" viewBox="0 0 320 192" fill="none" xmlns="http://www.w3.org/2000/svg">
<g clip-path="url(#clip0_9_6341)" filter="url(#filter0_d_9_6341)">
<path fill-rule="evenodd" clip-rule="evenodd" d="M200.747 49.7881L198.272 42.8152L197.886 42.4883L194.539 49.3363L184.544 43.1897L189.672 52.7425L178.598 55.4472L178.983 55.7682L189.251 58.5978L186.527 63.8586L186.912 64.1796L192.432 63.1037L193.47 75.7L193.856 76.021L199.649 64.251L204.284 65.8619L203.785 61.0528L219.346 58.3422L218.961 58.0152L205.465 52.8673L206.782 48.296L206.396 47.9691L200.747 49.7881Z" fill="#A21C20"/>
<path fill-rule="evenodd" clip-rule="evenodd" d="M192.402 62.7114L186.527 63.8586L189.352 58.4076L178.598 55.4472L189.672 52.7425L184.544 43.1897L194.539 49.3363L197.886 42.4883L200.497 49.8654L206.396 47.9691L205.031 52.7009L218.961 58.0152L203.399 60.7318L203.898 65.5409L199.263 63.924L193.47 75.7L192.402 62.7114Z" fill="#EF4423"/>
<path fill-rule="evenodd" clip-rule="evenodd" d="M207.027 87.6553L208.309 84.3443L203.893 83.4823L203.638 83.2683L207.81 80.944L201.4 74.1554L208.487 76.5511L209.252 69.9824L209.507 70.1964L213.264 75.6237L217.531 71.5161L217.787 71.736L217.377 77.0207L223.543 76.2301L223.799 76.4441L217.502 81.7227L222.594 85.123L222.849 85.337L216.677 84.9744L217.804 89.1831L214.154 86.7518L212.184 92.3871L211.923 92.1731L210.718 86.6983L207.288 87.8753L207.027 87.6553Z" fill="#A21C20"/>
<path fill-rule="evenodd" clip-rule="evenodd" d="M207.027 87.6553L208.368 84.1897L203.638 83.2683L207.81 80.944L201.4 74.1554L208.487 76.5511L209.252 69.9824L213.199 75.6891L217.531 71.5161L217.098 77.0563L223.543 76.2301L217.211 81.5325L222.594 85.123L216.416 84.7604L217.549 88.969L213.899 86.5378L211.923 92.1731L210.653 86.4129L207.027 87.6553Z" fill="#EF4423"/>
<path fill-rule="evenodd" clip-rule="evenodd" d="M177.359 81.6392C177.394 81.5322 177.738 79.0415 177.839 78.2984L174.451 78.2212L174.189 78.0012L177.721 75.8018L174.842 73.6142L174.587 73.3942L177.97 73.4299L177.893 70.0891L180.908 72.2529L183.074 68.3652L183.335 68.5792L184.029 71.9557L187.62 69.8335L187.875 70.0475L186.059 73.745L190.308 77.0858L190.57 77.2998L185.786 78.0666L186.273 81.2409L183.068 79.2377L181.762 83.1551L181.501 82.9351L180.154 80.1174L177.62 81.8532L177.359 81.6392Z" fill="#A21C20"/>
<path fill-rule="evenodd" clip-rule="evenodd" d="M177.359 81.6391C177.4 81.5142 177.869 78.0724 177.869 78.0724L174.189 77.9892L177.75 75.7838L174.605 73.406L177.988 73.4416L177.911 70.1009L180.926 72.2646L183.092 68.377L183.857 72.0804L187.638 69.8452L185.81 73.5546L190.326 77.1213L185.549 77.8881L186.035 81.0625L182.825 79.0592L181.519 82.9706L180.029 79.8557L177.359 81.6391Z" fill="#EF4423"/>
<path fill-rule="evenodd" clip-rule="evenodd" d="M229.763 50.5071L230.024 50.7211L224.374 50.953L225.703 54.5197L222.362 52.0111L221.211 56.1722L220.949 55.9582L220.053 52.7304L217.139 55.0784L216.884 54.8585L217.875 51.4107C216.872 51.4583 213.881 51.595 213.721 51.6663L213.46 51.4523C213.46 51.4523 216.718 49.3599 217.21 49.0448L212.279 46.346L212.023 46.132L218.006 46.6135L217.294 43.4213L217.549 43.6413L220.38 46.2034L222.202 41.002L222.457 41.216L222.997 46.0072L226.997 43.142L227.258 43.3619L224.362 48.1888L229.763 50.5071Z" fill="#A21C20"/>
<path fill-rule="evenodd" clip-rule="evenodd" d="M212.023 46.1512L217.276 49.0224C217.276 49.0224 213.305 51.5488 213.466 51.4656C213.626 51.3823 217.917 51.204 217.917 51.204L216.86 54.8777L219.935 52.4048L220.926 55.9715L222.083 51.8104L225.424 54.3249L224.089 50.7582L229.739 50.5323L224.053 48.101L227.021 43.1849L222.807 46.2047L222.214 41.0449L220.392 46.2582L217.305 43.4643L218.018 46.6565L212.023 46.1512Z" fill="#EF4423"/>
<path fill-rule="evenodd" clip-rule="evenodd" d="M174.367 43.6005L176.634 40.6639L174.753 40.0695L174.498 39.8555L176.872 39.0708L174.895 36.3661C174.895 36.3661 177.78 37.6025 177.756 37.4658C177.732 37.3291 177.489 33.9883 177.489 33.9883L177.744 34.2082L179.436 37.1805L182.545 34.9037L182.801 35.1177L181.216 38.2505L183.448 38.5239L183.703 38.7379L181.329 39.9268L183.186 41.8944L180.812 41.3L181.008 43.6005L180.747 43.3865L179.311 42.043L178.017 44.5813L177.756 44.3673L177.803 42.0609L174.616 43.8026L174.367 43.6005Z" fill="#A21C20"/>
<path fill-rule="evenodd" clip-rule="evenodd" d="M174.367 43.6003L176.741 40.5508L174.516 39.8672L176.889 39.0825L174.913 36.3778C174.913 36.3778 177.798 37.6142 177.774 37.4775C177.75 37.3408 177.507 34 177.507 34L179.358 37.2397L182.563 34.8619L180.884 38.1671L183.465 38.4821L181.091 39.671L182.949 41.6327L180.575 41.0382L180.771 43.3388L179.085 41.7635L177.78 44.3196L177.833 41.6505L174.367 43.6003Z" fill="#EF4423"/>
<path fill-rule="evenodd" clip-rule="evenodd" d="M215.631 77.2274L215.886 77.4474L214.836 79.8073L216.753 79.9916L217.008 80.2116L215.055 81.7512L216.628 83.374L214.848 83.6296L214.99 85.5854L213.423 84.343L212.515 86.5186L212.26 86.2987L211.85 84.2478L210.159 84.9017L209.904 84.6818L210.426 83.2076L208.812 82.6547L208.557 82.4348L210.503 81.341L209.12 79.7419L211.168 79.4863L210.681 76.4844L210.937 76.6984L213.5 78.9751L215.631 77.2274Z" fill="#AA4B24"/>
<path fill-rule="evenodd" clip-rule="evenodd" d="M209.904 84.6818L211.791 83.9566L212.26 86.2987L213.168 84.129L214.735 85.3714L214.592 83.4156L216.367 83.16L214.794 81.5372L216.753 79.9916L214.497 79.7717L215.631 77.2274L213.494 78.981L210.681 76.4844L211.168 79.4863L209.12 79.7419L210.503 81.341L208.557 82.4348L210.468 83.0946L209.904 84.6818Z" fill="#F47521"/>
<path fill-rule="evenodd" clip-rule="evenodd" d="M179.91 76.9721L179.666 78.1967L179.928 78.4107L181.008 77.62L181.435 78.4225L181.69 78.6425L182.343 77.0434L184.064 78.1194L183.542 76.4014L185.429 76.5263L185.174 76.3063L183.661 75.7L184.005 74.095L183.75 73.881L182.729 74.2495L182.586 73.132L182.325 72.918L181.435 74.4338L179.708 73.4054L180.112 74.9331L178.711 74.945L178.966 75.165L179.963 75.9378L179.079 76.6808L179.334 76.8948L179.91 76.9721Z" fill="#AA4B24"/>
<path fill-rule="evenodd" clip-rule="evenodd" d="M179.945 76.7938L179.666 78.1967L180.853 77.3288L181.435 78.4225L182.082 76.8294L183.803 77.8994L183.287 76.1874L185.174 76.3063L183.376 75.587L183.75 73.881L182.515 74.3268L182.325 72.918L181.435 74.4338L179.708 73.4054L180.112 74.9331L178.711 74.945L179.975 75.9259L179.079 76.6808L179.945 76.7938Z" fill="#F47521"/>
<path fill-rule="evenodd" clip-rule="evenodd" d="M199.412 52.3456L197.845 47.9348L197.59 47.7148L195.382 52.2386L189.887 48.8621L192.7 54.0933L186.67 55.5675L186.931 55.7815L192.243 57.2438L190.261 61.0602L190.516 61.2742L194.255 60.5489L194.89 68.2292L195.145 68.4432L198.492 61.6368L201.81 62.79L201.448 59.2709L211.608 57.4994L211.353 57.2854L202.854 54.0457L203.655 51.2875L203.394 51.0675L199.412 52.3456Z" fill="#AA4B24"/>
<path fill-rule="evenodd" clip-rule="evenodd" d="M194.231 60.2814L190.261 61.0602L192.308 57.119L186.67 55.5675L192.7 54.0933L189.887 48.8621L195.382 52.2386L197.59 47.7148L199.252 52.3991L203.394 51.0675L202.569 53.9328L211.353 57.2854L201.192 59.0569L201.555 62.576L198.237 61.4168L194.89 68.2292L194.231 60.2814Z" fill="#F47521"/>
<path fill-rule="evenodd" clip-rule="evenodd" d="M195.513 58.8779L195.863 63.0865L196.118 63.3065L197.786 59.9122L200.201 60.7504L199.928 58.1229L206.373 56.9994L206.118 56.7795L201.162 54.8891L201.59 53.4089L201.329 53.1949L198.551 54.0866L197.643 51.5245L197.382 51.3105L195.958 54.2293L193.56 52.7551L194.777 55.0258L192.225 55.6441L192.48 55.864L194.272 56.3574L192.83 59.1335L193.085 59.3534L195.513 58.8779Z" fill="#BD8C2D"/>
<path fill-rule="evenodd" clip-rule="evenodd" d="M195.495 58.6163L195.863 63.0865L197.53 59.6982L199.946 60.5364L199.673 57.903L206.118 56.7795L200.872 54.7821L201.329 53.1949L198.385 54.1401L197.382 51.3105L195.958 54.2293L193.56 52.7551L194.777 55.0258L192.225 55.6441L194.337 56.2266L192.83 59.1335L195.495 58.6163Z" fill="#FBC311"/>
<path fill-rule="evenodd" clip-rule="evenodd" d="M218.699 48.4395L220.242 48.4633L219.5 46.8405L220.842 47.8986L221.584 46.252L221.839 46.466L222.248 47.75L223.305 47.0247L223.56 47.2447L222.8 48.9864L225.103 49.6641L225.358 49.8781L223.245 50.1218L223.613 51.5604L221.358 50.2585L219.233 51.7922L218.978 51.5782L220.088 49.4085L218.96 48.6535L218.699 48.4395Z" fill="#AA4B24"/>
<path fill-rule="evenodd" clip-rule="evenodd" d="M218.699 48.4395L220.242 48.4633L219.5 46.8405L220.842 47.8986L221.584 46.252L222.094 47.857L223.305 47.0247L222.486 48.8972L225.103 49.6641L222.984 49.9078L223.358 51.3464L221.103 50.0386L218.978 51.5782L220.1 49.3728L218.699 48.4395Z" fill="#F47521"/>
<path fill-rule="evenodd" clip-rule="evenodd" d="M177.334 39.6714L178.313 39.1127L177.536 38.1497L178.379 38.4647L178.723 37.5374L178.984 37.7573L179.316 38.3518L180.379 37.2461L180.64 37.4601L180.278 38.7203L180.972 38.9819L181.227 39.2018C180.859 39.4214 180.478 39.6199 180.088 39.7963C179.998 40.2475 179.939 40.7043 179.91 41.1635L179.655 40.9436L179.114 40.2064L178.153 40.9317L177.898 40.7177L178.123 39.927H177.595L177.334 39.6714Z" fill="#AA4B24"/>
<path fill-rule="evenodd" clip-rule="evenodd" d="M177.334 39.6716L178.313 39.1128L177.536 38.1498L178.379 38.4649L178.723 37.5375L179.233 38.4233L180.379 37.2344L179.993 38.5957L180.972 38.9702C180.602 39.1874 180.222 39.3858 179.833 39.5646C179.743 40.0139 179.683 40.4687 179.655 40.9259L178.919 39.9213L177.898 40.7L178.177 39.7013L177.334 39.6716Z" fill="#F47521"/>
<path fill-rule="evenodd" clip-rule="evenodd" d="M121.362 49.1885L117.065 43.5472L116.549 43.1133L115.463 50.5855L104.186 47.8213L111.902 55.2697L102.275 61.1726L102.792 61.6065L113.237 61.1666L112.293 66.7009L112.81 67.1349L117.73 64.4242L122.418 75.7603L122.935 76.1942L124.84 63.3364L129.7 63.4552L127.777 59.0742L141.629 51.7981L141.113 51.3642L126.875 50.6033L126.745 46.139L126.228 45.7051L121.362 49.1885Z" fill="#A21C20"/>
<path fill-rule="evenodd" clip-rule="evenodd" d="M117.486 63.8416L112.293 66.7009L113.314 60.7089L102.275 61.1726L111.902 55.2697L104.186 47.8213L115.463 50.5855L116.549 43.1133L121.243 49.2717L126.228 45.7051L126.371 50.5736L141.113 51.3642L127.261 58.6402L129.184 63.0213L124.323 62.9084L122.418 75.7603L117.486 63.8416Z" fill="#EF4423"/>
<path fill-rule="evenodd" clip-rule="evenodd" d="M109.024 86.2454C109.024 86.1503 108.697 84.26 108.525 83.2732L105.457 84.1886L104.941 83.7547L107.445 80.7824L104.436 79.7184L103.92 79.2844L107.119 78.2917L106.039 75.1649L109.534 76.2884L110.407 71.9668L110.917 72.4007L112.407 75.046L115.131 71.9727L115.647 72.4067L115.054 76.229L119.837 78.0123L120.354 78.4463L116.074 80.616L117.493 83.4634L113.861 82.5479L113.813 86.6318L113.297 86.2038L111.422 84.2065L109.516 86.6675L109.024 86.2454Z" fill="#A21C20"/>
<path fill-rule="evenodd" clip-rule="evenodd" d="M109.024 86.245C109.024 86.1142 108.43 82.7437 108.43 82.7437L104.941 83.778L107.611 80.6215L103.92 79.3137L107.119 78.321L106.039 75.1942L109.534 76.3177L110.407 71.9961L112.241 75.2596L115.131 72.002L114.537 76.0562L119.879 78.0238L115.6 80.1995L117.018 83.0409L113.386 82.1255L113.339 86.2153L110.994 83.7245L109.024 86.245Z" fill="#EF4423"/>
<path fill-rule="evenodd" clip-rule="evenodd" d="M94.7092 51.292L95.9318 47.9215H93.9674L93.7062 47.7075L95.6647 46.2689L93.2611 44.5213L93 44.3073C94.0069 44.4203 95.0195 44.4759 96.0327 44.4737C95.9734 44.3608 94.727 41.2756 94.727 41.2756L94.9822 41.4955L97.4571 43.7544L99.7598 40.5801L100.021 40.8L99.4809 44.1527L101.706 43.7247L101.962 43.9387L100.181 45.722L102.223 46.8455L102.478 47.0595L100.068 47.2319L100.953 49.3422L98.8874 48.3673L98.4245 51.1731L98.1692 50.9591L97.5223 48.7953L94.9882 51.4644L94.7092 51.292Z" fill="#A21C20"/>
<path fill-rule="evenodd" clip-rule="evenodd" d="M94.7092 51.2918L96.009 47.7251H93.7062L95.6825 46.2746L93 44.3248C94.0069 44.4379 95.0195 44.4935 96.0327 44.4913C95.9734 44.3783 94.727 41.2932 94.727 41.2932L97.4511 43.7839L99.7598 40.5977L99.1663 44.2238L101.695 43.7423L99.8429 45.591L102.217 46.881L99.8073 47.0533L100.686 49.1636L98.6203 48.1828L98.1633 50.9945L97.4037 48.4622L94.7092 51.2918Z" fill="#EF4423"/>
<path fill-rule="evenodd" clip-rule="evenodd" d="M110.044 81.283L110.163 82.2995L110.548 82.6265L111.379 81.4792L111.896 81.9845L112.281 82.3055L112.412 80.6053L114.359 81.0928L113.35 79.6364L115.166 79.1787L114.78 78.8517L113.231 78.7388L113.089 77.318L112.703 76.997L111.842 77.6569L111.462 76.8425L111.077 76.5215L110.691 78.2216L108.75 77.7698L109.593 79.0895L108.275 79.5294L108.661 79.8504L109.67 80.2189L109.148 81.0512L109.534 81.3781L110.044 81.283Z" fill="#AA4B24"/>
<path fill-rule="evenodd" clip-rule="evenodd" d="M110.002 80.8966L110.163 82.2995L111.017 81.1225L111.896 81.9844L112.026 80.2784L113.973 80.7718L112.964 79.3094L114.78 78.8517L112.869 78.715L112.703 76.997L111.676 77.7877L111.077 76.5215L110.691 78.2216L108.75 77.7698L109.593 79.0895L108.275 79.5294L109.765 80.0703L109.148 81.0512L110.002 80.8966Z" fill="#F47521"/>
<path fill-rule="evenodd" clip-rule="evenodd" d="M120.917 51.9769L118.235 48.4578L117.849 48.1309L117.137 53.0648L110.935 51.543L115.166 55.6268L109.926 58.8368L110.312 59.1638L115.647 58.9379L114.97 62.9326L115.356 63.2595L118.662 61.4346L121.499 68.2885L121.884 68.6095L122.988 61.179L126.466 61.2622L125.06 58.0581L134.104 53.3085L133.719 52.9815L124.799 52.506L124.721 49.8548L124.336 49.5338L120.917 51.9769Z" fill="#AA4B24"/>
<path fill-rule="evenodd" clip-rule="evenodd" d="M118.484 60.9947L114.97 62.9326L115.706 58.5931L109.926 58.8368L115.166 55.6268L110.935 51.543L117.137 53.0648L117.849 48.1309L120.828 52.0423L124.336 49.5338L124.425 52.4822L133.719 52.9815L124.674 57.7312L126.074 60.9352L122.597 60.852L121.499 68.2885L118.484 60.9947Z" fill="#F47521"/>
<path fill-rule="evenodd" clip-rule="evenodd" d="M119.285 59.3357L120.863 63.1461L121.124 63.366L121.67 59.6567L124.199 59.722L123.148 57.3205L128.887 54.3066L128.626 54.0926L123.332 53.8073L123.291 52.3806L123.035 52.1607L120.602 53.9024L119 51.7981L118.745 51.5781L118.282 54.7644L115.569 54.1045L117.403 55.87L115.184 57.2313L115.445 57.4513L117.314 57.374L116.81 60.3403L117.065 60.5602L119.285 59.3357Z" fill="#BD8C2D"/>
<path fill-rule="evenodd" clip-rule="evenodd" d="M119.166 59.0444L120.863 63.1461L121.415 59.4427L123.943 59.5021L122.893 57.1065L128.626 54.0926L123.083 53.7954L123.035 52.1607L120.543 53.944L118.745 51.5781L118.282 54.7644L115.569 54.1045L117.403 55.87L115.184 57.2313L117.356 57.1421L116.81 60.3403L119.166 59.0444Z" fill="#FBC311"/>
<path fill-rule="evenodd" clip-rule="evenodd" d="M96.3237 46.6848L97.0478 45.8882L96.3119 45.4067L96.0566 45.1868L96.9469 45.2284L96.9884 44.2535L97.2496 44.4675L97.7421 44.9193L98.4603 43.4629L98.7155 43.6769L98.757 44.8658L99.5404 44.9074L99.8015 45.1273C99.5173 45.4427 99.2161 45.7423 98.8994 46.025C98.9517 46.4756 99.033 46.9223 99.1428 47.3625L98.1457 46.6372L97.4217 47.6775L97.1605 47.4635V46.7264L96.6027 46.8869L96.3237 46.6848Z" fill="#AA4B24"/>
<path fill-rule="evenodd" clip-rule="evenodd" d="M96.3237 46.6848L97.0774 45.8585L96.0566 45.1868L96.9469 45.2284L96.9884 44.2535L97.7362 44.9312L98.4603 43.4629L98.5018 44.8658L99.5404 44.9193C99.2583 45.2366 98.9592 45.5382 98.6442 45.8228C98.6942 46.2738 98.7755 46.7207 98.8876 47.1603L97.8905 46.4351L97.1605 47.4754L97.1249 46.447L96.3237 46.6848Z" fill="#F47521"/>
<path fill-rule="evenodd" clip-rule="evenodd" d="M117.309 122.739L124.787 170.015L123.915 170.152C122.965 170.301 122.633 170.645 122.496 171.638C122.342 172.762 121.784 176.816 121.398 179.431C121.22 180.662 121.072 182.184 121.992 182.713L123.179 183.39C123.59 183.592 124.057 183.644 124.502 183.539L158.622 178.129C160.96 177.755 160.117 175.752 159.381 174.265C158.194 171.888 156.414 168.22 155.933 167.198C155.8 166.845 155.562 166.542 155.251 166.33L154.064 165.658C153.767 165.508 153.428 165.462 153.102 165.527L142.758 100.096L143.506 99.9775C143.583 99.9659 143.658 99.939 143.725 99.8982C143.793 99.8575 143.851 99.8037 143.898 99.7401C143.944 99.6765 143.977 99.6043 143.996 99.5277C144.014 99.4511 144.017 99.3716 144.004 99.2939L143.411 95.6796C143.397 95.5904 143.363 95.5055 143.312 95.4313C143.26 95.3572 143.193 95.2957 143.114 95.2516L141.927 94.5799C141.809 94.5096 141.671 94.4823 141.535 94.5026L112.757 99.068C112.679 99.0795 112.604 99.1067 112.536 99.1478C112.468 99.1889 112.409 99.2432 112.363 99.3075C112.316 99.3717 112.283 99.4447 112.265 99.522C112.247 99.5993 112.245 99.6794 112.259 99.7575L112.852 103.372C112.866 103.459 112.899 103.543 112.95 103.616C113 103.689 113.066 103.75 113.143 103.794L114.33 104.472L114.425 104.513L117.309 122.739Z" fill="#4B0F45"/>
<path d="M141.597 99.4261L114.316 103.754L124.794 170.017L152.075 165.689L141.597 99.4261Z" fill="#E287B8"/>
<path fill-rule="evenodd" clip-rule="evenodd" d="M140.372 180.156L123.31 182.867C120.977 183.236 121.161 181.084 121.399 179.431C121.784 176.816 122.342 172.761 122.497 171.638C122.633 170.645 122.965 170.3 123.915 170.152L126.129 169.801L138.426 167.851L150.729 165.901L152.936 165.551C153.892 165.396 154.307 165.622 154.747 166.52C155.239 167.548 157.025 171.228 158.195 173.594C158.931 175.086 159.773 177.083 157.435 177.452L140.372 180.156Z" fill="url(#paint0_linear_9_6341)"/>
<path d="M141.578 94.5052L112.803 99.0701C112.476 99.122 112.253 99.4296 112.305 99.7571L112.877 103.374C112.928 103.701 113.235 103.925 113.562 103.873L142.338 99.3079C142.665 99.256 142.888 98.9485 142.836 98.621L142.264 95.0042C142.212 94.6767 141.905 94.4533 141.578 94.5052Z" fill="url(#paint1_linear_9_6341)"/>
<path fill-rule="evenodd" clip-rule="evenodd" d="M134.021 139.99C139.558 139.117 145.09 142.154 149.208 147.599L152.069 165.688L124.769 170.016L121.908 151.927C124.163 145.471 128.49 140.87 134.021 139.99Z" fill="#88126E"/>
<path fill-rule="evenodd" clip-rule="evenodd" d="M131.648 124.974C137.179 124.095 142.716 127.138 146.835 132.583L149.209 147.599C145.09 142.154 139.559 139.116 134.022 139.99C128.485 140.864 124.164 145.471 121.927 151.927L119.553 136.911C121.79 130.455 126.117 125.854 131.648 124.974Z" fill="#B23694"/>
<path fill-rule="evenodd" clip-rule="evenodd" d="M129.273 109.959C134.804 109.079 140.341 112.117 144.46 117.562L146.834 132.584C142.715 127.138 137.178 124.095 131.647 124.975C126.116 125.854 121.789 130.456 119.552 136.911L117.178 121.89C119.415 115.44 123.742 110.833 129.273 109.959Z" fill="#C4549F"/>
<path opacity="0.15" fill-rule="evenodd" clip-rule="evenodd" d="M120.075 102.838L131.096 169.012L124.788 170.016L114.307 103.753L120.075 102.838Z" fill="white"/>
<path opacity="0.15" d="M136.912 101.144L133.41 101.711L144.127 168.129L147.629 167.562L136.912 101.144Z" fill="white"/>
<path opacity="0.35" fill-rule="evenodd" clip-rule="evenodd" d="M126.887 143.722C124.625 146.038 122.927 148.845 121.926 151.925L122.015 152.472C123.018 149.391 124.716 146.582 126.976 144.263C128.903 142.306 131.394 141.005 134.098 140.542C135.939 140.255 137.82 140.383 139.606 140.916C140.966 141.333 142.264 141.933 143.463 142.7C145.719 144.15 147.69 146.001 149.28 148.163L149.196 147.616C147.602 145.455 145.629 143.602 143.374 142.147C142.177 141.377 140.879 140.776 139.517 140.363C137.732 139.828 135.85 139.698 134.009 139.983C131.302 140.448 128.809 141.756 126.887 143.722Z" fill="#591048"/>
<path opacity="0.35" fill-rule="evenodd" clip-rule="evenodd" d="M119.683 137.754C120.674 134.721 122.335 131.951 124.544 129.651C126.488 127.634 129.025 126.293 131.784 125.823C133.626 125.536 135.508 125.666 137.292 126.204C138.653 126.619 139.951 127.219 141.15 127.987C143.403 129.44 145.373 131.291 146.966 133.45L146.835 132.606C145.241 130.445 143.268 128.592 141.013 127.137C139.816 126.367 138.518 125.767 137.155 125.354C135.371 124.818 133.489 124.688 131.648 124.973C128.884 125.444 126.345 126.79 124.402 128.813C122.197 131.112 120.54 133.88 119.553 136.91L119.683 137.754Z" fill="#280F20"/>
<path opacity="0.35" fill-rule="evenodd" clip-rule="evenodd" d="M117.308 122.74C118.287 119.76 119.908 117.033 122.056 114.75C124.014 112.671 126.596 111.287 129.41 110.809C131.25 110.523 133.132 110.651 134.917 111.184C136.276 111.604 137.574 112.204 138.775 112.967C141.028 114.422 142.999 116.275 144.591 118.436L144.46 117.586C142.866 115.427 140.893 113.576 138.638 112.123C137.441 111.353 136.143 110.753 134.781 110.34C132.996 109.802 131.114 109.672 129.273 109.959C126.459 110.44 123.878 111.825 121.92 113.906C119.768 116.184 118.146 118.91 117.172 121.89L117.308 122.74Z" fill="#68164E"/>
<path fill-rule="evenodd" clip-rule="evenodd" d="M195.994 172.156L196.872 172.293C197.833 172.441 198.166 172.786 198.308 173.791C198.469 174.926 199.05 179.016 199.448 181.655C199.62 182.844 199.774 184.277 198.997 184.883L197.934 185.709C197.721 185.852 197.481 185.948 197.228 185.991C196.975 186.034 196.717 186.023 196.468 185.959L161.987 180.609C159.613 180.246 160.468 178.231 161.21 176.715C162.397 174.338 164.177 170.599 164.664 169.582C164.789 169.278 164.982 169.005 165.227 168.786L166.29 167.953C166.468 167.836 166.669 167.758 166.88 167.724C167.091 167.69 167.306 167.701 167.512 167.757L177.708 101.774L176.949 101.655C176.87 101.644 176.794 101.617 176.726 101.576C176.657 101.536 176.598 101.481 176.551 101.417C176.503 101.353 176.47 101.28 176.452 101.202C176.433 101.124 176.431 101.044 176.444 100.965L177.038 97.3093C177.061 97.1581 177.142 97.0218 177.263 96.9288L178.326 96.0966C178.39 96.0447 178.464 96.0068 178.544 95.9853C178.624 95.9638 178.707 95.9592 178.789 95.9718L207.869 100.478C207.949 100.488 208.025 100.515 208.094 100.556C208.163 100.598 208.223 100.652 208.27 100.717C208.317 100.782 208.351 100.856 208.369 100.935C208.386 101.013 208.388 101.094 208.374 101.173L207.81 104.823C207.788 104.976 207.707 105.115 207.584 105.209L206.528 106.036C206.44 106.108 206.333 106.154 206.219 106.167L195.994 172.156Z" fill="#142B55"/>
<path d="M178.774 100.92L168.438 167.873L196.004 172.142L206.34 105.189L178.774 100.92Z" fill="#85D3E8"/>
<path fill-rule="evenodd" clip-rule="evenodd" d="M180.29 182.457L163.079 179.788C160.705 179.42 161.559 177.411 162.301 175.889C163.488 173.511 165.269 169.772 165.755 168.755C166.189 167.846 166.61 167.62 167.577 167.769L169.809 168.113L182.237 170.039L194.664 171.965L196.902 172.31C197.863 172.459 198.195 172.804 198.338 173.808C198.498 174.944 199.08 179.033 199.477 181.673C199.726 183.331 199.916 185.513 197.56 185.15L180.29 182.457Z" fill="url(#paint2_linear_9_6341)"/>
<path fill-rule="evenodd" clip-rule="evenodd" d="M178.011 100.81L207.092 105.316C207.17 105.33 207.251 105.327 207.328 105.309C207.406 105.291 207.479 105.257 207.543 105.21C207.607 105.163 207.661 105.103 207.702 105.035C207.743 104.966 207.769 104.89 207.78 104.811L208.344 101.161C208.358 101.082 208.356 101.001 208.339 100.922C208.321 100.844 208.287 100.77 208.24 100.705C208.193 100.64 208.133 100.585 208.064 100.544C207.995 100.503 207.919 100.476 207.839 100.466L178.759 95.9596C178.68 95.9461 178.599 95.9488 178.521 95.9675C178.443 95.9861 178.37 96.0203 178.306 96.0681C178.241 96.1159 178.187 96.1762 178.147 96.2454C178.106 96.3146 178.08 96.3913 178.07 96.4708L177.477 100.121C177.463 100.202 177.467 100.284 177.487 100.364C177.507 100.443 177.543 100.518 177.593 100.582C177.643 100.647 177.706 100.701 177.778 100.74C177.85 100.779 177.929 100.803 178.011 100.81Z" fill="url(#paint3_linear_9_6341)"/>
<path fill-rule="evenodd" clip-rule="evenodd" d="M186.557 141.868C192.147 142.736 196.533 147.366 198.812 153.876L195.993 172.155L168.426 167.887L171.251 149.608C175.387 144.091 180.966 141.006 186.557 141.868Z" fill="#1C4482"/>
<path fill-rule="evenodd" clip-rule="evenodd" d="M188.901 126.698C194.491 127.565 198.877 132.196 201.156 138.705L198.782 153.876C196.503 147.337 192.117 142.736 186.527 141.868C180.936 141 175.357 144.091 171.221 149.596L173.595 134.419C177.731 128.921 183.31 125.83 188.901 126.698Z" fill="#5698D2"/>
<path fill-rule="evenodd" clip-rule="evenodd" d="M191.246 111.522C196.837 112.39 201.222 117.02 203.501 123.53L201.157 138.706C198.878 132.197 194.492 127.566 188.902 126.698C183.311 125.83 177.732 128.915 173.596 134.426L175.934 119.25C180.077 113.745 185.655 110.654 191.246 111.522Z" fill="#52B9D5"/>
<path fill-rule="evenodd" clip-rule="evenodd" d="M191.951 110.636C197.233 111.451 201.447 115.624 203.821 121.562L203.512 123.53C201.233 117.021 196.847 112.39 191.257 111.522C186.04 110.714 180.835 113.347 176.799 118.186C180.924 112.788 186.438 109.78 191.963 110.636H191.951Z" fill="#0790AE"/>
<path fill-rule="evenodd" clip-rule="evenodd" d="M189.607 125.806C194.889 126.627 199.103 130.8 201.477 136.738L201.168 138.706C198.889 132.197 194.504 127.566 188.913 126.698C183.696 125.89 178.491 128.523 174.456 133.356C178.61 127.958 184.094 124.95 189.619 125.806H189.607Z" fill="#005690"/>
<path fill-rule="evenodd" clip-rule="evenodd" d="M199.121 151.908C196.747 145.964 192.545 141.803 187.251 140.982C181.726 140.126 176.213 143.134 172.088 148.526C176.124 143.693 181.323 141.059 186.539 141.868C192.13 142.736 196.516 147.367 198.795 153.876L196.124 171.18L199.121 151.908Z" fill="#05172E"/>
<path opacity="0.2" fill-rule="evenodd" clip-rule="evenodd" d="M178.764 100.93L185.756 102.012L173.874 168.732L168.426 167.882L178.764 100.93Z" fill="white"/>
<path opacity="0.2" fill-rule="evenodd" clip-rule="evenodd" d="M199.572 104.156L202.954 104.679L192.248 171.578L188.871 171.055L199.572 104.156Z" fill="white"/>
</g>
<defs>
<filter id="filter0_d_9_6341" x="89" y="32" width="145" height="160" filterUnits="userSpaceOnUse" color-interpolation-filters="sRGB">
<feFlood flood-opacity="0" result="BackgroundImageFix"/>
<feColorMatrix in="SourceAlpha" type="matrix" values="0 0 0 0 0 0 0 0 0 0 0 0 0 0 0 0 0 0 127 0" result="hardAlpha"/>
<feOffset dy="2"/>
<feGaussianBlur stdDeviation="2"/>
<feComposite in2="hardAlpha" operator="out"/>
<feColorMatrix type="matrix" values="0 0 0 0 0 0 0 0 0 0 0 0 0 0 0 0 0 0 0.25 0"/>
<feBlend mode="normal" in2="BackgroundImageFix" result="effect1_dropShadow_9_6341"/>
<feBlend mode="normal" in="SourceGraphic" in2="effect1_dropShadow_9_6341" result="shape"/>
</filter>
<linearGradient id="paint0_linear_9_6341" x1="120.829" y1="176.952" x2="156.702" y2="171.281" gradientUnits="userSpaceOnUse">
<stop stop-color="#5B1A5F"/>
<stop offset="0.31" stop-color="#B31F88"/>
<stop offset="0.55" stop-color="#D34097"/>
<stop offset="1" stop-color="#691E77"/>
</linearGradient>
<linearGradient id="paint1_linear_9_6341" x1="113.209" y1="101.462" x2="141.942" y2="96.9225" gradientUnits="userSpaceOnUse">
<stop stop-color="#5B1A5F"/>
<stop offset="0.31" stop-color="#B31F88"/>
<stop offset="0.55" stop-color="#D34097"/>
<stop offset="1" stop-color="#691E77"/>
</linearGradient>
<linearGradient id="paint2_linear_9_6341" x1="180.753" y1="179.467" x2="181.801" y2="172.685" gradientUnits="userSpaceOnUse">
<stop stop-color="#194177"/>
<stop offset="1" stop-color="#3C72B8"/>
</linearGradient>
<linearGradient id="paint3_linear_9_6341" x1="192.795" y1="101.494" x2="193.057" y2="99.788" gradientUnits="userSpaceOnUse">
<stop stop-color="#194177"/>
<stop offset="1" stop-color="#3C72B8"/>
</linearGradient>
<clipPath id="clip0_9_6341">
<rect width="137" height="152" fill="white" transform="translate(93 34)"/>
</clipPath>
</defs>
</svg>
