<svg width="320" height="194" viewBox="0 0 320 194" fill="none" xmlns="http://www.w3.org/2000/svg">
<g clip-path="url(#clip0_9_6404)" filter="url(#filter0_d_9_6404)">
<path fill-rule="evenodd" clip-rule="evenodd" d="M174.311 51.1697C179.489 50.0128 192.385 47.7671 192.385 47.7671L192.977 48.2639L175.726 55.9945L187.186 64.8889L187.778 65.3857L174.045 60.1253L188.336 87.2302L187.744 86.7334L171.03 63.6571L174.726 93.8516L174.134 93.3549L166.267 67.1822L164.048 89.8094L163.463 89.3126L161.156 68.4548L144.232 83.7868L143.64 83.29L156.821 60.0776L145.634 64.5282L145.042 64.0314L156.127 54.8377L126.321 42.5339L125.729 42.0372L158.305 48.8423L143.81 27.2836L144.402 27.7804L162.02 44.698L153.174 19.5938L153.766 20.0905L166.206 41.7922L169.908 28.8079L170.5 29.3047L170.302 43.7997L189.738 30.6794L190.33 31.1761L174.664 46.3993L185.423 42.3162L186.015 42.813L174.311 51.1697Z" fill="#C9C03C"/>
<path fill-rule="evenodd" clip-rule="evenodd" d="M172.195 51.7617C172.481 51.2582 192.386 47.7331 192.386 47.7331L175.114 55.525L187.194 64.9025L173.461 59.6421L187.752 86.747L170.351 62.7997L174.094 93.3753L165.771 65.5898L163.478 89.3398L161.069 67.5633L143.654 83.3377L157.36 59.1589L145.042 64.0518L156.332 54.6335L125.709 42.0031L158.285 48.8083L143.811 27.2836L162.062 44.8069L153.154 19.5938L166.084 42.146L169.888 28.8079L169.67 44.208L189.712 30.6794L172.869 47.0798L185.424 42.3162L172.195 51.7617Z" fill="#FBF394"/>
<path fill-rule="evenodd" clip-rule="evenodd" d="M167.2 43.5003C167.288 39.0702 168.561 24.1873 168.561 24.1873L169.146 24.6773L172.12 42.5408L183.832 33.5988L184.417 34.0956L176.373 45.2629L205.091 38.6483L205.683 39.145L178.864 49.4957L207.99 53.5039L208.582 54.0007L180.279 54.9194L201.375 62.7657L201.967 63.2625L180.279 60.0097L191.079 80.8811L190.487 80.3843L171.215 61.5408L172.794 74.6067L172.202 74.1099L166.404 61.5953L146.533 87.6522L145.941 87.1554L160.415 58.2471L136.91 66.4133L136.318 65.9165L156.897 53.3814L131.867 55.423L131.275 54.933L156.216 48.2435L145.049 41.6085L144.457 41.1117L159.299 45.2493L151.344 22.418L151.936 22.9147L162.824 42.1938L161.524 29.5157L162.116 30.0125L167.2 43.5003Z" fill="#B09A32"/>
<path fill-rule="evenodd" clip-rule="evenodd" d="M167.26 44.7321C166.845 44.3306 168.533 24.1874 168.533 24.1874L171.643 42.8811L183.803 33.5989L175.209 45.5283L205.056 38.6483L177.441 49.3052L207.955 53.504L178.972 54.4499L201.334 62.7998L179.646 59.547L190.445 80.4184L170.574 60.9897L172.16 74.144L165.994 60.84L145.953 87.1895L160.822 57.3965L136.324 65.9438L157.93 52.7826L131.281 54.9467L156.392 48.2096L144.49 41.1254L159.332 45.2629L151.377 22.4316L162.946 42.8471L161.585 29.4954L167.26 44.7321Z" fill="#FEDF00"/>
<path fill-rule="evenodd" clip-rule="evenodd" d="M169.533 121.161C169.282 122.154 169.234 122.964 169.064 123.427L168.798 124.148C168.784 124.195 168.766 124.24 168.744 124.284L168.703 124.393C168.577 124.772 168.375 125.123 168.111 125.423C167.847 125.724 167.525 125.968 167.165 126.142V179.426C167.168 179.453 167.168 179.481 167.165 179.508L166.907 180.236C166.799 180.518 166.603 180.758 166.348 180.92C166.093 181.082 165.792 181.157 165.491 181.134C165.353 181.149 165.214 181.134 165.082 181.091C164.95 181.049 164.828 180.979 164.724 180.887C164.621 180.795 164.537 180.682 164.48 180.556C164.422 180.43 164.391 180.293 164.389 180.154V126.326C163.902 126.171 163.466 125.887 163.127 125.505C162.788 125.123 162.559 124.656 162.463 124.155C161.517 122.549 162.15 121.603 162.177 120.596C162.204 119.589 161.687 116.887 161.946 115.798C162.204 113.289 162.261 110.763 162.116 108.244C162.003 106.072 162.033 103.894 162.204 101.725C162.347 100.718 162.381 92.0141 162.204 91.2723C162.027 90.5305 161.905 85.2906 162.259 79.9825C162.347 78.6896 162.293 68.9514 162.116 67.8898C161.964 64.8332 161.987 61.7704 162.184 58.7164C162.219 58.5639 162.265 58.4139 162.32 58.2673L162.354 58.1652V55.5452L162.619 54.8171L165.934 51.5098L169.241 54.8171V55.0144C169.521 55.3587 169.66 55.7966 169.629 56.2393C169.406 58.3071 169.311 60.3866 169.343 62.4661C169.459 63.3031 169.629 69.3665 169.527 72.3676C169.527 72.8712 169.486 73.2931 169.452 73.5857C169.227 75.5932 169.193 86.1956 169.37 87.0803C169.547 87.965 169.513 92.3679 169.452 95.1512C169.391 97.9345 169.486 113.164 169.683 114.886C169.909 116.975 169.858 119.085 169.533 121.161Z" fill="#333D4E"/>
<path fill-rule="evenodd" clip-rule="evenodd" d="M167.165 108.891V179.426C167.078 179.731 166.886 179.996 166.624 180.175C166.362 180.354 166.045 180.436 165.729 180.406C165.591 180.421 165.451 180.407 165.319 180.365C165.186 180.323 165.064 180.253 164.96 180.161C164.856 180.069 164.773 179.956 164.716 179.829C164.658 179.702 164.628 179.565 164.627 179.426V108.891H167.165Z" fill="#697188"/>
<path fill-rule="evenodd" clip-rule="evenodd" d="M167.165 123.426V128.326C166.999 128.146 166.794 128.006 166.567 127.917C166.339 127.827 166.094 127.79 165.85 127.809C165.606 127.827 165.37 127.9 165.158 128.023C164.946 128.145 164.765 128.314 164.627 128.516V123.507L167.165 123.426Z" fill="#505665"/>
<path fill-rule="evenodd" clip-rule="evenodd" d="M169.533 121.16C169.399 121.972 169.222 122.777 169.002 123.57C168.803 124.228 168.389 124.8 167.826 125.196C167.264 125.592 166.586 125.788 165.899 125.754H165.776C165.068 125.816 164.361 125.613 163.793 125.184C163.225 124.756 162.836 124.132 162.7 123.433C161.748 121.821 162.381 120.875 162.415 119.868C162.449 118.86 161.925 116.166 162.183 115.07C162.438 112.56 162.495 110.035 162.353 107.516C162.241 105.343 162.271 103.166 162.442 100.997C162.585 99.9965 162.612 91.2927 162.442 90.5441C162.272 89.7955 162.142 84.5624 162.496 79.2543C162.585 77.9613 162.496 68.23 162.353 67.1684C162.205 64.1047 162.234 61.0349 162.442 57.9746C162.484 57.789 162.541 57.607 162.612 57.4302V54.8034L165.926 51.4961L169.233 54.8034V55.0007C169.513 55.345 169.652 55.7829 169.621 56.2257C169.399 58.2935 169.303 60.3729 169.336 62.4524C169.451 63.2894 169.621 69.3528 169.519 72.3539C169.519 72.8575 169.478 73.2794 169.444 73.572C169.22 75.5795 169.186 86.182 169.363 87.0667C169.54 87.9513 169.506 92.3543 169.444 95.1376C169.383 97.9209 169.478 113.151 169.676 114.873C169.905 116.966 169.857 119.08 169.533 121.16Z" fill="#8791A9"/>
<path fill-rule="evenodd" clip-rule="evenodd" d="M169.534 121.16C169.401 121.972 169.224 122.776 169.004 123.569C168.804 124.227 168.39 124.8 167.828 125.195C167.266 125.591 166.587 125.788 165.9 125.754C167.976 125.298 169.221 118.173 168.534 114.614C167.847 111.054 167.853 100.826 167.956 97.7232C168.058 94.62 168.759 91.7482 167.84 87.9577C166.921 84.1673 167.159 77.75 167.159 73.8302L169.5 72.3535C169.5 72.8571 169.46 73.279 169.425 73.5716C169.201 75.5792 169.167 86.1816 169.344 87.0663C169.521 87.9509 169.487 92.3539 169.425 95.1372C169.364 97.9205 169.46 113.15 169.657 114.872C169.893 116.964 169.851 119.079 169.534 121.16Z" fill="#697188"/>
<path fill-rule="evenodd" clip-rule="evenodd" d="M157.359 25.9707L163.668 44.1473L148.064 37.8049L154.086 46.7196L145.75 47.3933L150.173 51.1906L138.809 59.1731L149.384 56.9614L143.075 66.5158L152.528 61.3167L150.874 73.3686L158.421 67.1759L156.699 77.0842L163.661 69.6666L168.772 78.2343L169.439 70.6125L175.883 82.1269L175.121 68.2239L188.969 69.2991L182.294 64.0183L192.842 61.9496L182.13 56.8525L190.038 50.061L181.783 50.8844L190.154 41.5749L177.265 44.61L177.823 32.6806L166.58 44.4739L157.359 25.9707Z" fill="#FEDF00"/>
<path fill-rule="evenodd" clip-rule="evenodd" d="M154.786 34.5374L155.358 35.0274L164.028 44.7656L166.233 31.584L166.825 32.0808L169.377 41.6964L176.488 33.2172L177.08 33.714L174.467 43.7584L185.695 38.9676L186.287 39.4644L179.224 46.7255L190.711 42.5267L191.303 43.0235L178.502 52.4078L190.411 55.0754L190.997 55.5722L177.366 56.9672L183.021 60.3562L183.613 60.853L177.863 61.3633L189.465 71.6528L176.815 65.9092L180.033 76.6545L179.441 76.1578L169.588 65.7595L171.697 75.8651L171.105 75.3684L164.436 65.0381L161.415 75.0417L160.823 74.5449L159.162 65.0109L152.091 76.6001L151.499 76.1033L155.896 62.2208L148.913 65.1674L148.321 64.6707L150.805 59.0768L142.462 60.4991L141.877 60.0091L152.343 54.0478L143.565 51.6456L142.973 51.1488L152.527 48.8691L150.921 45.589L159.169 49.1345L155.719 44.2824L159.761 45.5754L154.773 34.5306L154.786 34.5374Z" fill="#C9C03C"/>
<path fill-rule="evenodd" clip-rule="evenodd" d="M152.738 53.8232L142.973 51.1488L152.527 48.8691L150.921 45.589L159.169 49.1345L155.719 44.2824L159.761 45.5754L154.773 34.5306L164.001 44.9085L166.233 31.584L169.03 42.1116L176.488 33.2172L173.65 44.1055L185.695 38.9676L177.556 47.3379L190.711 42.5267L177.536 52.19L190.411 55.0754L176.57 56.4909L183.021 60.3562L177.271 60.8734L188.873 71.156L176.223 65.4124L179.441 76.1578L168.961 65.0994L171.105 75.3684L163.932 64.2555L160.823 74.5449L158.965 63.8745L151.499 76.1033L156.168 61.3565L148.321 64.6707L151.091 58.4303L141.877 60.0091L152.738 53.8232Z" fill="#FBF394"/>
<path fill-rule="evenodd" clip-rule="evenodd" d="M160.654 53.4285L153.624 48.1477L164.512 50.0463L163.056 40.7777L169.078 48.8827L173.019 38.4844L171.93 50.2505L180.273 45.9564L175.441 51.0059L180.906 52.258L172.12 53.9185L179.17 56.2594L172.848 57.6681L176.169 65.8887L166.955 60.0567L166.091 67.3382L163.852 60.8121L159.687 66.4127L161.647 59.0155L151.875 61.8669L158.823 56.3819L152.399 53.3468L160.654 53.4285Z" fill="#FDD900"/>
<path fill-rule="evenodd" clip-rule="evenodd" d="M171.31 53.804L176.305 55.7571L176.897 56.2538L170.201 56.4784L173.079 60.5479L168.554 58.656L168.023 64.1342L167.431 63.6374L165.716 59.0303L161.932 63.2972L161.34 62.8004L162.007 58.9419L158.394 61.5142L157.802 61.0174L160.251 56.7914L155.1 56.3695L154.508 55.8727L160.313 53.4705L157.067 49.0336L162.878 51.6808L161.789 44.406L162.381 44.9028L165.008 49.1765L168.846 39.1797L169.438 39.6765L168.336 48.251L171.385 43.9841L171.977 44.4809L171.242 50.6668L176.339 49.3806L176.931 49.8774L171.31 53.804Z" fill="#A7A9AC"/>
<path fill-rule="evenodd" clip-rule="evenodd" d="M154.508 55.8727L160.503 56.3695L157.802 61.0174L162.184 57.9007L161.34 62.8004L165.416 58.2137L167.431 63.6374L167.962 58.1593L172.487 60.0511L169.608 55.9816L176.305 55.7571L170.473 53.4773L176.339 49.3806L170.568 50.8369L171.385 43.9841L167.54 49.3738L168.846 39.1797L164.899 49.4623L161.789 44.406L162.878 51.6808L157.067 49.0336L160.313 53.4705L154.508 55.8727Z" fill="white"/>
<path fill-rule="evenodd" clip-rule="evenodd" d="M78.0039 15.3879C78.0039 15.3062 78.0039 15.2246 78.0039 15.1429C78.0073 15.0953 78.0073 15.0476 78.0039 15C78.0071 15.043 78.0071 15.0863 78.0039 15.1293C78.0175 15.2178 78.0107 15.2994 78.0039 15.3879Z" fill="#F57E20"/>
<path fill-rule="evenodd" clip-rule="evenodd" d="M92.7714 87.1826L92.8462 87.2439L78.2151 80.4387L78.8072 80.9355L88.525 89.02L65.9727 82.4803L66.5647 82.9702L87.4293 93.3481L74.1184 100.657L74.7105 101.154L87.1571 98.1321L74.3974 119.739L74.9895 120.235L91.526 101.228L85.694 124.08L86.2861 124.577L97.535 101.855L107.355 132.525L107.947 133.015L103.864 100.167L117.576 105.366L116.984 104.876L107.273 97.0705H135.038L134.446 96.5737L113.01 89.4896L130.506 76.8592L129.914 76.3624L109.988 85.2568L128.791 65.6375L128.199 65.1407L104.68 82.5347L116.331 57.0222L115.739 56.5254L99.6174 81.65L97.5758 68.2643L96.9838 67.7675L94.8129 82.9022L79.5149 71.7077C79.5149 71.7077 90.7843 85.318 92.7033 87.0942L92.7578 87.1418L92.7714 87.1826Z" fill="#B09A32"/>
<path fill-rule="evenodd" clip-rule="evenodd" d="M92.962 87.2983C92.3836 87.2983 79.5082 71.7144 79.5082 71.7144L94.813 82.9021L97.0179 67.7675L99.2092 82.3033L115.746 56.5117L103.456 83.4397L128.206 65.1066L108.138 86.0461L129.914 76.3624L112.159 89.2037L134.467 96.5737H106.674L117.005 104.876L103.292 99.67L107.375 132.525L97.2289 100.827L85.6601 124.08L91.914 99.5816L74.3976 119.738L87.6472 97.3699L74.1662 100.643L87.6676 93.2324L66 82.4666L88.5591 89.0132L78.2425 80.425L92.962 87.2983Z" fill="#FEDF00"/>
<path fill-rule="evenodd" clip-rule="evenodd" d="M148.015 140.378C148.489 141.033 148.925 141.715 149.322 142.419C149.538 142.831 149.656 143.287 149.667 143.753C149.678 144.218 149.581 144.679 149.383 145.1L187.056 183.645C187.207 183.924 187.255 184.246 187.193 184.557C187.13 184.867 186.962 185.146 186.716 185.346C186.583 185.48 186.423 185.584 186.247 185.652L185.525 185.918C185.352 185.976 185.166 185.985 184.988 185.942C184.81 185.9 184.647 185.809 184.518 185.68L146.906 147.21L146.545 147.339C146.122 147.483 145.671 147.526 145.228 147.465C144.784 147.403 144.362 147.239 143.993 146.985C142.19 146.502 141.952 145.379 141.271 144.644C140.591 143.91 138.332 142.338 137.753 141.371C136.181 139.399 134.456 137.554 132.595 135.852C130.996 134.378 129.496 132.8 128.103 131.129C127.498 130.313 121.434 124.066 120.767 123.644C120.101 123.222 116.378 119.561 112.921 115.532C112.077 114.552 105.231 107.631 104.36 106.992C102.118 104.9 99.9934 102.685 97.9974 100.357C97.9012 100.193 97.8171 100.022 97.7456 99.8461L95.9082 97.9679L95.9627 93.2859L96.6908 93.0273L101.373 93.075L101.502 93.2179C101.943 93.2648 102.349 93.4821 102.632 93.8235C103.926 95.4545 105.315 97.0087 106.79 98.4783C107.47 98.9887 111.812 103.208 113.84 105.426C114.18 105.794 114.459 106.107 114.643 106.345C115.881 107.944 123.272 115.539 124.014 116.056C124.755 116.573 127.811 119.738 129.716 121.772C131.622 123.807 142.326 134.627 143.694 135.737C145.331 137.088 146.784 138.649 148.015 140.378Z" fill="#333D4E"/>
<path fill-rule="evenodd" clip-rule="evenodd" d="M137.747 133.232L187.057 183.672C187.207 183.951 187.255 184.274 187.193 184.584C187.131 184.895 186.962 185.174 186.717 185.374C186.628 185.481 186.517 185.568 186.393 185.63C186.268 185.692 186.132 185.727 185.993 185.734C185.854 185.74 185.715 185.717 185.586 185.667C185.456 185.617 185.338 185.54 185.24 185.442L135.93 135.009L137.747 133.232Z" fill="#697188"/>
<path fill-rule="evenodd" clip-rule="evenodd" d="M147.892 143.625L151.295 147.13C151.05 147.118 150.806 147.161 150.581 147.257C150.355 147.352 150.154 147.497 149.992 147.68C149.83 147.864 149.711 148.082 149.644 148.317C149.578 148.553 149.565 148.801 149.607 149.042L146.109 145.462L147.892 143.625Z" fill="#505665"/>
<path fill-rule="evenodd" clip-rule="evenodd" d="M148.017 140.378C148.49 141.033 148.926 141.715 149.323 142.419C149.641 143.029 149.746 143.727 149.623 144.404C149.5 145.08 149.155 145.697 148.643 146.155L148.547 146.237C148.084 146.777 147.436 147.126 146.729 147.217C146.023 147.307 145.308 147.133 144.723 146.727C142.926 146.237 142.715 145.114 142.001 144.379C141.286 143.644 139.061 142.072 138.483 141.113C136.915 139.137 135.192 137.289 133.331 135.587C131.728 134.114 130.226 132.537 128.833 130.864C128.234 130.048 122.171 123.8 121.504 123.412C120.837 123.025 117.108 119.329 113.651 115.301C112.814 114.314 105.961 107.393 105.097 106.753C102.851 104.665 100.726 102.45 98.7337 100.118C98.6375 99.9536 98.5511 99.7832 98.4751 99.608L96.6445 97.7366L96.699 93.0547L101.381 93.1023L101.51 93.2452C101.951 93.2921 102.357 93.5094 102.64 93.8509C103.934 95.4818 105.323 97.036 106.798 98.5056C107.478 99.016 111.82 103.235 113.848 105.454C114.188 105.821 114.467 106.134 114.651 106.372C115.89 107.972 123.28 115.566 124.022 116.083C124.763 116.601 127.819 119.765 129.724 121.8C131.63 123.834 142.334 134.655 143.702 135.764C145.335 137.108 146.785 138.659 148.017 140.378Z" fill="#8791A9"/>
<path fill-rule="evenodd" clip-rule="evenodd" d="M148.016 140.377C148.49 141.033 148.926 141.715 149.323 142.419C149.641 143.029 149.746 143.727 149.623 144.404C149.5 145.08 149.155 145.696 148.643 146.155C149.799 144.372 145.716 138.411 142.729 136.342C139.741 134.273 132.596 126.992 130.507 124.726C128.418 122.459 126.907 119.887 123.6 117.818C120.292 115.75 115.957 111.013 113.229 108.196L113.868 105.508C114.208 105.875 114.487 106.188 114.671 106.426C115.91 108.026 123.3 115.62 124.042 116.137C124.784 116.655 127.839 119.819 129.745 121.854C131.65 123.889 142.355 134.709 143.722 135.818C145.344 137.146 146.788 138.679 148.016 140.377Z" fill="#697188"/>
<path fill-rule="evenodd" clip-rule="evenodd" d="M102.891 110.326L101.857 119.717L101.265 119.22L94.548 110.156L91.4925 120.268L90.9004 119.771L88.9337 109.605L83.3059 118.002L82.7138 117.505L85.1637 104.392L80.0326 104.718L79.4473 104.228L84.6601 98.2399L74.99 96.2528L74.3979 95.756L89.764 89.4749L73.3567 81.2951L72.7715 80.7983L92.2955 87.5831L92.0981 71.2847L92.6902 71.7815L100.094 80.111L107.124 69.0254L107.716 69.5222L108.199 80.8868L112.976 75.1773L113.568 75.674L112.725 85.3374L123.293 81.717L123.885 82.2138L118.203 90.4616L125.661 89.679L126.253 90.1758L115.603 99.0906L125.859 108.495L113.208 104.766L118.06 110.687L108.41 108.135L108.621 118.302L108.029 117.805L102.891 110.326Z" fill="#B09A32"/>
<path fill-rule="evenodd" clip-rule="evenodd" d="M72.7715 80.7983L89.9885 89.3864L74.3979 95.756L84.9391 97.9201L79.4473 104.228L85.2658 103.854L82.7138 117.505L88.7296 108.536L90.9004 119.771L94.024 109.441L101.265 119.22L102.333 109.516L108.029 117.805L107.818 107.638L117.468 110.19L112.616 104.276L125.266 107.999L115.011 98.5938L125.661 89.679L117.202 90.5705L123.293 81.717L112.071 85.5619L112.976 75.1773L107.655 81.5401L107.124 69.0254L100.033 80.2131L92.0981 71.2847L92.2955 87.5831L72.7715 80.7983Z" fill="#FEDF00"/>
<path fill-rule="evenodd" clip-rule="evenodd" d="M117.339 78.9963L116.747 78.4995L106.28 84.978L108.785 69.8229L108.192 69.3262L102.735 80.7316L102.708 70.7757L102.115 70.2789L97.2293 82.0586L92.1051 73.103L91.513 72.6063L92.3977 84.1818L83.0406 78.6084L90.7644 89.694L76.9023 88.7277L77.4944 89.2245L87.8995 93.2871L84.4016 95.0429L84.9869 95.5396L89.5667 96.3631L81.8769 99.3233L82.469 99.8201L85.1774 100.786L80.0872 108.857L80.6792 109.354L88.6549 104.924L85.4905 115.962L86.0825 116.459L91.3021 109.252L93.364 114.785L93.9561 115.281L97.0932 107.796L103.626 120.739L104.218 121.236L101.006 107.272L109.798 113.607L104.824 104.073L117.72 107.006L117.128 106.51L109.172 101.168L124.239 101.739L123.647 101.249L114.61 96.2406L127.485 91.5722L126.893 91.0755L112.466 91.7832L115.746 87.9383L115.154 87.4415L109.098 88.891L117.339 78.9963Z" fill="#C9C03C"/>
<path fill-rule="evenodd" clip-rule="evenodd" d="M88.9339 103.944L80.0872 108.857L85.3203 100.548L81.8769 99.3233L90.2541 96.0977L84.4016 95.0429L88.1921 93.1374L76.9023 88.7277L90.7644 89.694L83.0406 78.6084L92.3977 84.1818L91.513 72.6063L97.1001 82.3717L102.115 70.2789L102.149 81.9565L108.192 69.3262L105.532 85.4408L116.747 78.4995L107.839 89.1904L115.154 87.4415L111.404 91.8308L126.893 91.0755L113.834 95.8118L123.647 101.249L108.424 100.664L117.128 106.51L104.232 103.577L109.206 113.111L100.414 106.775L103.626 120.739L96.6577 106.931L93.364 114.785L90.9822 108.388L85.4905 115.962L88.9339 103.944Z" fill="#FBF394"/>
<path fill-rule="evenodd" clip-rule="evenodd" d="M94.3229 98.1255L85.6055 99.2687L94.7108 93.0148L87.1911 87.4074L97.1674 88.9861L92.7169 78.7988L100.162 87.9722L103.129 79.071L103.204 86.0599L107.981 83.1337L102.863 90.4629L109.539 87.21L106.007 92.6337L114.126 96.186L103.462 98.4589L107.933 104.271L101.768 101.174L102.707 108.088L98.9368 101.426L93.9418 110.3L95.0782 101.521L88.3548 103.842L94.3229 98.1255Z" fill="#FDD900"/>
<path fill-rule="evenodd" clip-rule="evenodd" d="M90.2323 82.2206L90.2187 82.207L94.5876 92.3195L88.8236 90.8768L89.4157 91.3736L94.642 95.341L88.6875 97.4914L89.2727 97.9882L93.9479 98.7708L91.6341 104.167L92.2262 104.664L96.4658 101.153L97.5818 105.549L98.1739 106.045L99.079 101.03L101.359 104.344L101.951 104.841L101.658 98.7163L106.891 101.18L103.441 96.8926L108.007 95.0824L107.415 94.5856L103.414 93.8575L107.728 89.3456L107.136 88.8489L102.121 90.9857L103.291 84.7658L102.706 84.269L99.6914 89.1891L95.9826 84.3711L95.3906 83.8743L96.3501 90.0534L90.8039 82.7038L90.2323 82.2206Z" fill="#A7A9AC"/>
<path fill-rule="evenodd" clip-rule="evenodd" d="M91.6341 104.167L96.2616 100.336L97.5818 105.549L98.5414 100.254L101.359 104.344L101.066 98.2196L106.299 100.683L102.856 96.3958L107.415 94.5856L102.509 93.6941L107.136 88.8489L101.372 91.2987L102.706 84.269L99.5962 89.3388L95.3906 83.8743L96.4045 90.4141L90.2187 82.207L94.5876 92.3195L88.8236 90.8768L94.6896 95.3206L88.6875 97.4914L94.1044 98.3965L91.6341 104.167Z" fill="white"/>
<path fill-rule="evenodd" clip-rule="evenodd" d="M203.526 100.372L184.791 103.407L184.199 102.917L199.171 95.1247L185.696 88.374L185.104 87.8773L201.784 92.2598L185.621 80.0853L185.036 79.5886L204.941 89.8712L192.978 71.9668L193.57 72.4636L207.861 88.3944L207.745 77.8669L208.337 78.3636L211.42 88.1427L220.77 78.6631L221.362 79.1598C221.362 79.1598 216.939 86.7068 214.727 90.191L222.689 84.7469L223.281 85.2437L218.028 91.2934L231.72 84.7877L232.312 85.2845L218.286 95.3425L227.984 98.7927L228.576 99.2895L218.518 98.5069L230.638 113.022L215.666 100.582L223.009 117.452L222.417 116.962L211.964 102.379L208.419 126.088L207.827 125.591L206.969 102.345L198.293 107.354L197.701 106.857L203.526 100.372Z" fill="#B09A32"/>
<path fill-rule="evenodd" clip-rule="evenodd" d="M212.917 91.4159C213.332 91.3479 220.763 78.6631 220.763 78.6631L211.08 88.4761L207.738 77.8669L207.854 88.5646L192.978 71.9668L204.941 89.8712L185.036 79.5886L201.879 92.287L185.098 87.8773L199.354 95.0227L184.199 102.951L204.152 99.7114L197.701 106.87L206.942 101.542L207.827 125.605L211.427 101.664L222.431 117.017L215.088 100.14L230.059 112.587L217.919 98.0306L227.977 98.8131L217.422 95.0635L231.713 84.8081L216.279 92.1373L222.682 84.7673L212.917 91.4159Z" fill="#FEDF00"/>
<path fill-rule="evenodd" clip-rule="evenodd" d="M179.565 135.92C179.31 136.459 179.083 137.011 178.885 137.574C178.778 137.896 178.747 138.239 178.794 138.575C178.842 138.912 178.966 139.233 179.157 139.513L156.591 171.572C156.525 171.768 156.522 171.979 156.582 172.177C156.641 172.374 156.761 172.548 156.924 172.675L157.516 173.171L157.625 173.253C157.702 173.32 157.791 173.369 157.888 173.399C157.984 173.429 158.086 173.439 158.187 173.428C158.287 173.416 158.384 173.384 158.471 173.333C158.559 173.281 158.634 173.213 158.694 173.131L181.239 141.112C181.591 141.224 181.967 141.238 182.327 141.153C182.686 141.068 183.016 140.887 183.281 140.629C184.512 140.071 184.533 139.268 184.941 138.629C185.35 137.989 186.779 136.635 187.085 135.872C187.981 134.273 189.006 132.748 190.147 131.313C191.122 130.066 192.016 128.756 192.822 127.393C193.162 126.713 196.782 121.548 197.218 121.187C198.956 119.068 200.524 116.816 201.906 114.45C202.396 113.647 206.507 107.876 207.058 107.318C208.426 105.558 209.693 103.722 210.855 101.819C210.906 101.689 210.947 101.555 210.978 101.418L212.08 99.8595L211.495 96.5046L210.903 96.0078L207.548 96.5931L207.466 96.7087C207.157 96.7976 206.892 96.9992 206.725 97.2736C205.988 98.595 205.175 99.8721 204.288 101.098C203.866 101.547 201.226 105.079 200.035 106.91C199.831 107.216 199.668 107.474 199.565 107.665C198.885 108.958 194.441 115.273 193.965 115.729C193.488 116.185 191.665 118.812 190.562 120.493C189.46 122.174 183.009 131.19 182.151 132.15C181.131 133.29 180.262 134.558 179.565 135.92Z" fill="#333D4E"/>
<path fill-rule="evenodd" clip-rule="evenodd" d="M186.111 129.613L156.577 171.574C156.504 171.792 156.509 172.029 156.589 172.244C156.67 172.459 156.821 172.641 157.019 172.758C157.095 172.824 157.185 172.874 157.281 172.904C157.378 172.934 157.48 172.944 157.58 172.932C157.681 172.921 157.778 172.888 157.865 172.837C157.953 172.786 158.028 172.717 158.088 172.635L187.622 130.682L186.111 129.613Z" fill="#697188"/>
<path fill-rule="evenodd" clip-rule="evenodd" d="M180.02 138.262L177.979 141.174C178.153 141.138 178.333 141.141 178.506 141.183C178.679 141.225 178.841 141.306 178.979 141.419C179.116 141.532 179.227 141.674 179.303 141.836C179.378 141.997 179.416 142.173 179.414 142.352L181.504 139.378L180.02 138.262Z" fill="#505665"/>
<path fill-rule="evenodd" clip-rule="evenodd" d="M179.565 135.921C179.31 136.46 179.082 137.012 178.885 137.575C178.728 138.051 178.734 138.566 178.903 139.038C179.072 139.51 179.394 139.913 179.817 140.181L179.892 140.229C180.288 140.562 180.794 140.737 181.312 140.719C181.83 140.702 182.322 140.493 182.695 140.134C183.934 139.576 183.948 138.773 184.356 138.14C184.764 137.507 186.2 136.139 186.5 135.418C187.397 133.816 188.421 132.289 189.562 130.851C190.537 129.604 191.43 128.295 192.236 126.932C192.577 126.251 196.204 121.086 196.632 120.725C198.373 118.607 199.943 116.354 201.328 113.988C201.811 113.185 205.928 107.421 206.473 106.856C207.84 105.096 209.108 103.26 210.27 101.358C210.322 101.228 210.363 101.093 210.392 100.956L211.495 99.3979L210.91 96.043L207.555 96.6282L207.473 96.7439C207.164 96.8328 206.899 97.0343 206.731 97.3087C205.995 98.6302 205.181 99.9072 204.295 101.133C203.873 101.582 201.233 105.114 200.042 106.945C199.838 107.251 199.674 107.51 199.572 107.7C198.892 108.993 194.448 115.308 193.972 115.764C193.495 116.22 191.671 118.847 190.569 120.528C189.467 122.209 183.015 131.226 182.158 132.185C181.137 133.315 180.266 134.57 179.565 135.921Z" fill="#8791A9"/>
<path fill-rule="evenodd" clip-rule="evenodd" d="M179.565 135.921C179.31 136.46 179.082 137.012 178.885 137.574C178.728 138.05 178.734 138.565 178.903 139.037C179.072 139.51 179.394 139.912 179.817 140.181C178.776 139.037 181.015 134.281 182.92 132.45C184.825 130.619 189.099 124.536 190.331 122.644C191.563 120.752 192.372 118.751 194.489 116.887C196.605 115.022 199.178 111.089 200.811 108.768L200.042 106.91C199.838 107.216 199.674 107.475 199.572 107.666C198.892 108.958 194.448 115.274 193.972 115.73C193.495 116.186 191.671 118.812 190.569 120.493C189.467 122.174 183.015 131.191 182.158 132.15C181.135 133.29 180.264 134.558 179.565 135.921Z" fill="#697188"/>
<path fill-rule="evenodd" clip-rule="evenodd" d="M204.722 108.469L205.654 115.077L206.24 115.574L209.084 109.565L210.67 115.308L211.262 115.805L215.148 108.285L218.183 114.498L218.768 114.995L219.02 106.802L223.797 111.912L224.382 112.409L220.966 102.909L225.185 102.494L224.593 101.997L220.51 98.6084L227.819 95.8251L227.234 95.3351L216.264 92.7968L227.254 84.896L226.662 84.3992L213.909 91.2861L212.269 80.3161L211.677 79.8262L207.084 87.0532L201.211 80.4454L200.619 79.9487L201.701 88.9791L197.726 85.5425L197.134 85.0457L198.992 92.3953L190.493 90.9458L195.896 96.5941L189.717 96.9343L190.309 97.4311L198.325 102.195L192.133 110.048L192.725 110.545L200.156 106.979L197.992 110.708L198.577 111.205L204.722 108.469Z" fill="#B09A32"/>
<path fill-rule="evenodd" clip-rule="evenodd" d="M226.662 84.3992L215.297 92.5722L227.234 95.3351L219.918 98.1116L224.593 101.997L220.374 102.412L223.797 111.912L218.428 106.176L218.183 114.498L214.733 107.441L210.67 115.308L208.778 108.462L205.654 115.077L204.62 107.755L197.992 110.708L200.782 105.897L192.133 110.048L198.407 102.099L189.717 96.9343L195.896 96.5941L190.493 90.9458L198.992 92.3953L197.134 85.0457L201.701 88.9927L200.619 79.9487L207.016 87.1553L211.677 79.8262L213.426 91.5447L226.662 84.3992Z" fill="#FEDF00"/>
<path fill-rule="evenodd" clip-rule="evenodd" d="M221.634 111.143L222.212 111.626L218.34 103.398L225.268 105.896L220.538 100.54L222.872 99.2608L222.28 98.764L217.142 97.682L220.558 96.4775L219.966 95.9807L217.952 95.3478L225.206 91.0674L224.614 90.5774L215.713 92.6666L219.619 84.5208L219.027 84.024L213.474 88.6856L212.841 81.1931L212.249 80.7031L209.48 88.0799L204.954 80.7575L204.362 80.2676L205.628 88.1888L200.483 80.7848L199.891 80.288L203.682 91.5505L194.821 87.8757L202.457 94.5108L196.999 94.1093L200.204 96.8177L188.996 98.0835L189.588 98.5734L198.53 100.268L192.514 105.004L193.106 105.501L202.538 103.596L197.802 108.026L198.394 108.523L206.445 105.27L204.26 111.844L204.852 112.333L209.759 107.434L209.153 116.668L209.745 117.165L213.046 106.74L215.836 111.204L216.421 111.701L217.374 106.903L221.62 111.129L221.634 111.143Z" fill="#C9C03C"/>
<path fill-rule="evenodd" clip-rule="evenodd" d="M217.748 102.902L224.676 105.399L219.946 100.043L222.28 98.764L215.89 97.4166L219.966 95.9807L217.02 95.0552L224.614 90.5774L214.781 92.8843L219.027 84.024L212.964 89.1143L212.249 80.7031L209.378 88.3657L204.362 80.2676L205.703 88.6515L199.891 80.288L203.682 91.5505L194.821 87.8757L202.457 94.5108L196.999 94.1093L200.204 96.8177L188.996 98.0835L198.925 99.9617L192.514 105.004L203.375 102.813L197.802 108.026L206.724 104.419L204.26 111.844L209.833 106.27L209.153 116.668L212.549 105.943L215.836 111.204L216.795 106.331L221.62 111.129L217.748 102.902Z" fill="#FBF394"/>
<path fill-rule="evenodd" clip-rule="evenodd" d="M199.354 100.765L198.762 100.268L204.172 96.7703L201.007 93.2861L206.179 94.8445L201.647 90.1761L205.424 91.7209L204.662 86.6987L205.254 87.1886L208.003 92.4422L212.107 85.2832L212.699 85.78L210.882 92.8641L217.074 90.8226L217.666 91.3194L213.066 96.0694L219.592 99.1589L220.184 99.6489L213.917 99.8462L218.15 102.759L218.742 103.256L213.645 102.371L215.482 108.543L214.89 108.046L210.8 102.922L208.935 107.978L208.343 107.482L208.234 103.317L204.737 105.848L204.145 105.352L206.438 101.112L199.354 100.765Z" fill="#B09A32"/>
<path fill-rule="evenodd" clip-rule="evenodd" d="M213.202 99.3495L219.592 99.1589L212.331 95.7223L217.074 90.8226L210.092 93.1227L212.107 85.2832L207.826 92.7417L204.662 86.6987L205.424 91.7209L201.647 90.1761L206.179 94.8445L201.007 93.2861L204.172 96.7703L198.762 100.268L206.683 100.656L204.145 105.352L208.214 102.405L208.343 107.482L210.269 102.262L214.89 108.046L213.053 101.874L218.15 102.759L213.202 99.3495Z" fill="#FDD900"/>
<path fill-rule="evenodd" clip-rule="evenodd" d="M202.934 94.198L202.92 94.1844L207.343 95.2732L205.574 90.3803L206.159 90.8771L208.459 93.5447L210.78 89.2438L211.365 89.7406L211.386 92.9594L214.298 87.4473L214.89 87.944L213.141 94.8649L216.306 93.5107L216.898 94.0074L213.516 97.5529L217.177 98.2402L217.769 98.737L213.985 100.016L216.428 103.875L212.658 101.656L212.318 105.556L211.726 105.059L210.773 102.371L209.466 105.134L208.874 104.637L208.466 101.044L205.492 103.079L204.9 102.582L206.69 99.4311L203.982 98.8323L203.389 98.3355L206.765 97.1378L203.512 94.6811L202.934 94.198Z" fill="#A7A9AC"/>
<path fill-rule="evenodd" clip-rule="evenodd" d="M215.836 103.378L212.066 101.166L211.726 105.059L210.419 101.371L208.874 104.637L208.371 100.207L204.9 102.582L206.874 99.1045L203.389 98.3355L206.812 97.1242L202.92 94.1844L207.343 95.2732L205.574 90.3803L208.391 93.6604L210.78 89.2438L210.807 94.0551L214.298 87.4473L212.338 95.212L216.306 93.5107L212.61 97.3828L217.177 98.2402L213.393 99.5196L215.836 103.378Z" fill="white"/>
</g>
<defs>
<filter id="filter0_d_9_6404" x="62" y="15" width="174.305" height="179" filterUnits="userSpaceOnUse" color-interpolation-filters="sRGB">
<feFlood flood-opacity="0" result="BackgroundImageFix"/>
<feColorMatrix in="SourceAlpha" type="matrix" values="0 0 0 0 0 0 0 0 0 0 0 0 0 0 0 0 0 0 127 0" result="hardAlpha"/>
<feOffset dy="4"/>
<feGaussianBlur stdDeviation="2"/>
<feComposite in2="hardAlpha" operator="out"/>
<feColorMatrix type="matrix" values="0 0 0 0 0 0 0 0 0 0 0 0 0 0 0 0 0 0 0.25 0"/>
<feBlend mode="normal" in2="BackgroundImageFix" result="effect1_dropShadow_9_6404"/>
<feBlend mode="normal" in="SourceGraphic" in2="effect1_dropShadow_9_6404" result="shape"/>
</filter>
<clipPath id="clip0_9_6404">
<rect width="166.304" height="171" fill="white" transform="translate(66 15)"/>
</clipPath>
</defs>
</svg>
