<svg width="320" height="198" viewBox="0 0 320 198" fill="none" xmlns="http://www.w3.org/2000/svg">
<g clip-path="url(#clip0_964_6584)" filter="url(#filter0_d_964_6584)">
<path fill-rule="evenodd" clip-rule="evenodd" d="M156.043 126.043C156.043 126.301 155.871 126.559 155.814 126.788C155.705 126.628 155.618 126.455 155.556 126.272H155.384C155.52 126.485 155.645 126.705 155.756 126.931C155.84 127.185 155.907 127.443 155.957 127.705C155.957 128.021 156.272 128.307 156.387 128.651C156.387 128.881 156.387 129.224 156.387 129.454C156.387 129.74 156.559 129.941 156.616 130.228C156.616 130.572 156.616 130.887 156.616 131.202C156.616 131.374 156.616 131.575 156.616 131.747C156.616 132.005 156.616 132.292 156.616 132.55C156.616 132.808 156.616 133.037 156.616 133.295C156.616 133.496 156.444 133.754 156.416 133.954C156.43 134.155 156.43 134.356 156.416 134.556C156.416 134.785 156.215 134.986 156.158 135.215C156.158 135.473 156.014 135.731 155.9 136.018C155.9 136.19 155.584 136.477 155.47 136.649C155.326 136.907 155.326 137.05 155.183 137.308C155.011 137.537 154.753 137.709 154.552 137.939C154.38 138.11 154.294 138.368 154.094 138.569C153.95 138.712 153.693 138.827 153.521 138.999C153.291 139.2 153.148 139.429 152.919 139.63C152.652 139.818 152.375 139.991 152.087 140.146C151.743 140.404 151.514 140.719 151.17 140.977C150.969 141.12 150.683 141.178 150.482 141.321C150.224 141.464 150.023 141.694 149.765 141.866L149.02 142.353L148.361 142.926C148.093 143.072 147.834 143.234 147.587 143.413L146.67 143.987C146.297 144.273 145.982 144.646 145.609 144.933C145.38 145.133 145.122 145.248 144.892 145.449C144.634 145.678 144.463 145.936 144.233 146.165C143.972 146.35 143.723 146.551 143.488 146.767C143.287 146.968 143.173 147.255 142.972 147.484C142.8 147.713 142.513 147.914 142.341 148.143C142.195 148.41 142.071 148.688 141.969 148.974C141.754 149.239 141.572 149.528 141.424 149.834C141.396 150.159 141.396 150.485 141.424 150.809C141.28 151.132 141.164 151.468 141.08 151.812C140.98 152.381 140.98 152.963 141.08 153.532C141.131 153.971 141.227 154.403 141.367 154.822C141.529 155.19 141.721 155.545 141.94 155.883L143.746 155.109C143.689 154.924 143.602 154.749 143.488 154.593C143.488 154.449 143.345 154.277 143.287 154.105C143.287 153.847 143.287 153.446 143.087 153.131C143.073 152.997 143.073 152.863 143.087 152.729C143.087 152.471 143.087 152.042 143.087 151.698C143.087 151.698 143.087 151.468 143.087 151.354C143.087 151.038 143.373 150.952 143.517 150.293L143.66 150.035C143.909 149.642 144.187 149.269 144.491 148.917C144.84 148.432 145.224 147.972 145.638 147.541C146.03 147.184 146.441 146.849 146.87 146.538C147.214 146.251 147.444 145.965 147.816 145.678L148.676 145.133L149.364 144.56L150.195 144.044L150.826 143.528C151.084 143.356 151.342 143.241 151.571 143.069L152.145 142.611L152.89 142.124C153.151 141.939 153.4 141.738 153.635 141.522L154.352 141.034L154.896 140.49C155.126 140.26 155.441 140.088 155.67 139.83C155.9 139.601 156.043 139.343 156.244 139.114C156.579 138.784 156.877 138.419 157.132 138.025C157.362 137.623 157.448 137.279 157.648 136.878C157.828 136.562 157.99 136.237 158.136 135.903C158.279 135.445 158.307 135.158 158.422 134.699C158.562 134.105 158.658 133.502 158.709 132.894C158.737 132.445 158.737 131.995 158.709 131.546C158.709 131.231 158.709 130.916 158.709 130.6C158.709 130.256 158.537 129.912 158.479 129.568C158.423 128.906 158.258 128.257 157.992 127.648C157.763 127.017 157.534 126.501 157.247 125.727L157.046 125.383L156.043 126.043Z" fill="url(#paint0_linear_964_6584)"/>
<path fill-rule="evenodd" clip-rule="evenodd" d="M155.47 126.301C155.667 126.617 155.831 126.953 155.957 127.304C155.957 127.705 156.531 128.651 156.531 128.881C156.531 129.081 156.531 129.798 156.76 130.084C156.856 130.547 156.913 131.017 156.932 131.489C156.932 131.948 156.932 131.862 156.932 132.12C156.932 132.406 156.932 132.636 156.932 133.209C156.913 133.542 156.846 133.87 156.731 134.183C156.731 134.556 156.559 134.986 156.531 135.101C156.429 135.425 156.305 135.741 156.158 136.047C156.009 136.407 155.826 136.752 155.613 137.079L155.212 137.623C155.059 137.849 154.887 138.06 154.696 138.254L154.008 138.97C153.825 139.124 153.633 139.267 153.435 139.4C153.239 139.644 153.007 139.857 152.747 140.031C152.36 140.275 151.995 140.553 151.658 140.862C151.242 141.161 150.812 141.439 150.368 141.694C150.024 141.952 149.106 142.582 148.82 142.869C148.533 143.127 147.731 143.557 147.186 143.958C146.613 144.331 145.839 145.076 145.294 145.449C144.721 145.821 144.749 146.108 144.319 146.395C143.979 146.612 143.694 146.907 143.488 147.255C143.309 147.544 143.086 147.805 142.829 148.029C142.598 148.237 142.43 148.505 142.342 148.802C142.185 149.137 141.993 149.454 141.768 149.748C141.671 149.966 141.612 150.199 141.596 150.436C141.544 150.8 141.447 151.156 141.31 151.497C141.157 151.992 141.157 152.521 141.31 153.016C141.31 153.532 141.482 153.876 141.539 154.22C141.588 154.597 141.695 154.964 141.854 155.309L142.198 155.94L142.915 155.625C142.729 155.313 142.594 154.975 142.514 154.621C142.42 154.105 142.285 153.597 142.112 153.102C141.958 152.726 141.958 152.303 142.112 151.927C142.292 151.509 142.399 151.063 142.428 150.608C142.447 150.233 142.599 149.878 142.858 149.605C143.133 149.211 143.382 148.799 143.603 148.372C143.95 147.867 144.387 147.43 144.893 147.083C146.154 146.28 145.466 146.051 146.441 145.535C147.387 145.076 146.899 144.961 147.673 144.703C148.447 144.474 148.161 143.671 149.25 143.413C150.368 143.127 150.081 142.554 151.17 141.98C152.26 141.407 152.575 140.776 153.521 140.49C154.495 140.174 153.951 139.515 154.667 139.257C154.936 139.151 155.166 138.965 155.325 138.724C155.484 138.483 155.564 138.199 155.556 137.91C155.556 137.595 156.416 137.136 156.473 136.649C156.507 136.472 156.598 136.311 156.731 136.19C156.943 135.924 157.081 135.608 157.133 135.273C157.305 134.155 157.448 134.241 157.362 133.582C157.344 133.201 157.403 132.821 157.534 132.464C157.649 132.071 157.649 131.653 157.534 131.26C157.408 130.493 157.226 129.736 156.989 128.995C156.559 128.107 156.989 127.734 156.588 127.304C156.421 127.133 156.294 126.928 156.215 126.702L155.929 126.1L155.47 126.301Z" fill="url(#paint1_linear_964_6584)"/>
<path fill-rule="evenodd" clip-rule="evenodd" d="M157.018 125.441C157.134 125.697 157.195 125.976 157.195 126.258C157.195 126.54 157.134 126.818 157.018 127.075C156.821 127.455 156.648 127.847 156.502 128.25C156.168 127.481 156.107 126.621 156.33 125.813H156.129C156.129 126.071 155.957 126.329 155.9 126.559C155.791 126.399 155.705 126.226 155.642 126.043H155.47C155.607 126.255 155.731 126.475 155.843 126.702C155.927 126.955 155.994 127.214 156.043 127.476C156.043 127.791 156.359 128.078 156.473 128.422C156.473 128.651 156.473 128.995 156.473 129.225C156.473 129.511 156.645 129.712 156.703 129.998C156.703 130.342 156.703 130.658 156.703 130.973C156.703 131.145 156.703 131.346 156.703 131.518C156.703 131.776 156.703 132.062 156.703 132.32C156.703 132.578 156.703 132.808 156.703 133.066C156.703 133.266 156.531 133.524 156.502 133.725C156.516 133.925 156.516 134.126 156.502 134.327C156.502 134.556 156.301 134.757 156.244 134.986C156.244 135.244 156.101 135.502 155.986 135.789C155.986 135.961 155.671 136.247 155.556 136.419C155.413 136.677 155.413 136.821 155.27 137.079C155.098 137.308 154.84 137.48 154.639 137.709C154.467 137.881 154.381 138.139 154.18 138.34C154.037 138.483 153.779 138.598 153.607 138.77C153.378 138.97 153.234 139.2 153.005 139.4C152.739 139.589 152.461 139.761 152.174 139.916C151.83 140.174 151.6 140.49 151.256 140.748C151.056 140.891 150.769 140.948 150.568 141.092C150.31 141.235 150.11 141.464 149.852 141.636L149.107 142.124L148.447 142.697C148.179 142.842 147.921 143.005 147.673 143.184L146.756 143.758C146.383 144.044 146.068 144.417 145.696 144.703C145.466 144.904 145.208 145.019 144.979 145.219C144.721 145.449 144.549 145.707 144.32 145.936C144.059 146.121 143.81 146.322 143.574 146.538C143.374 146.739 143.259 147.025 143.058 147.255C142.886 147.484 142.6 147.685 142.428 147.914C142.282 148.181 142.157 148.459 142.055 148.745C141.841 149.01 141.658 149.298 141.51 149.605C141.483 149.929 141.483 150.255 141.51 150.58C141.366 150.903 141.251 151.239 141.166 151.583C141.067 152.152 141.067 152.734 141.166 153.303C141.218 153.741 141.314 154.174 141.453 154.593C141.616 154.961 141.807 155.316 142.026 155.653C141.809 155.332 141.677 154.962 141.642 154.576C141.607 154.19 141.67 153.801 141.826 153.446C142.055 152.991 142.401 152.605 142.829 152.328C142.957 152.948 142.877 153.593 142.6 154.163C142.336 154.625 142.151 155.129 142.055 155.653L142.342 155.51C142.387 154.896 142.628 154.313 143.03 153.847C143.236 154.227 143.353 154.648 143.374 155.08L143.746 154.937C143.689 154.752 143.602 154.577 143.488 154.421C143.488 154.277 143.345 154.105 143.288 153.933C143.288 153.675 143.288 153.274 143.087 152.959C143.074 152.825 143.074 152.691 143.087 152.557C143.087 152.3 143.087 151.87 143.087 151.526C143.087 151.526 143.087 151.296 143.087 151.182C143.087 150.866 143.374 150.78 143.517 150.121L143.66 149.863C143.909 149.47 144.187 149.097 144.492 148.745C144.841 148.26 145.224 147.8 145.638 147.369C146.03 147.012 146.442 146.677 146.871 146.366C147.215 146.079 147.444 145.793 147.817 145.506L148.677 144.961L149.365 144.388L150.196 143.872L150.826 143.356C151.084 143.184 151.342 143.07 151.572 142.898L152.145 142.439L152.89 141.952C153.151 141.767 153.4 141.566 153.636 141.35L154.352 140.862L154.897 140.318C155.126 140.088 155.442 139.916 155.671 139.658C155.9 139.429 156.043 139.171 156.244 138.942C156.579 138.612 156.877 138.247 157.133 137.853C157.362 137.451 157.448 137.107 157.649 136.706C157.828 136.39 157.991 136.065 158.136 135.731C158.279 135.273 158.308 134.986 158.423 134.528C158.562 133.933 158.658 133.33 158.709 132.722C158.738 132.273 158.738 131.823 158.709 131.374C158.709 131.059 158.709 130.744 158.709 130.428C158.709 130.084 158.537 129.741 158.48 129.397C158.423 128.734 158.259 128.085 157.993 127.476C157.763 126.845 157.534 126.329 157.247 125.555L157.047 125.212H156.875L157.018 125.441ZM156.817 127.877C157.032 127.347 157.205 126.801 157.333 126.243C157.582 126.536 157.746 126.891 157.807 127.27C157.868 127.649 157.823 128.038 157.677 128.393C157.419 128.938 157.018 129.368 156.817 129.884C156.599 129.233 156.599 128.528 156.817 127.877ZM157.276 129.511C157.505 128.967 157.821 128.508 158.05 128.021C158.247 128.355 158.35 128.736 158.35 129.124C158.35 129.512 158.247 129.893 158.05 130.228C157.706 130.744 157.247 131.059 157.047 131.432C156.942 130.78 157.032 130.112 157.305 129.511H157.276ZM157.505 131.145C157.876 130.733 158.185 130.27 158.423 129.769C158.588 130.109 158.654 130.488 158.613 130.863C158.573 131.238 158.427 131.594 158.193 131.89C157.821 132.378 157.276 132.664 156.961 133.066C156.932 132.384 157.122 131.71 157.505 131.145ZM157.505 132.836C157.919 132.484 158.285 132.079 158.595 131.632C158.731 131.983 158.755 132.368 158.663 132.733C158.57 133.098 158.366 133.424 158.079 133.668C157.62 134.069 157.047 134.298 156.674 134.642C156.76 133.969 157.051 133.339 157.505 132.836ZM158.652 133.496C158.668 133.89 158.578 134.281 158.392 134.629C158.205 134.977 157.929 135.269 157.591 135.473C157.075 135.76 156.531 135.817 156.129 136.075C156.368 135.435 156.774 134.871 157.305 134.442C157.735 134.098 158.222 133.868 158.652 133.496ZM158.279 135.359C158.224 135.746 158.064 136.111 157.816 136.414C157.569 136.717 157.243 136.947 156.875 137.079C156.301 137.279 155.757 137.279 155.327 137.423C155.701 136.831 156.212 136.34 156.817 135.989C157.333 135.731 157.849 135.559 158.279 135.359ZM157.62 137.021C157.499 137.391 157.281 137.722 156.988 137.979C156.696 138.236 156.34 138.41 155.957 138.483C155.384 138.483 154.868 138.483 154.295 138.627C154.739 138.092 155.325 137.694 155.986 137.48C156.531 137.279 157.075 137.222 157.62 137.021ZM156.645 138.598C156.453 138.948 156.172 139.242 155.829 139.448C155.487 139.655 155.096 139.767 154.696 139.773H153.98C153.686 139.717 153.384 139.717 153.091 139.773C153.6 139.274 154.251 138.943 154.954 138.827C155.527 138.827 156.072 138.827 156.645 138.684V138.598ZM154.524 139.916C154.811 139.916 155.126 139.916 155.441 139.916C155.222 140.218 154.933 140.462 154.598 140.627C154.264 140.792 153.894 140.873 153.521 140.862C152.89 140.862 152.346 140.662 151.744 140.719C152.128 140.374 152.586 140.121 153.083 139.982C153.58 139.843 154.103 139.82 154.61 139.916H154.524ZM154.094 141.092C153.759 141.454 153.328 141.713 152.851 141.84C152.374 141.967 151.871 141.956 151.4 141.808C151.048 141.753 150.691 141.753 150.339 141.808C151.944 140.604 152.919 141.149 154.094 141.206V141.092ZM152.747 142.124C152.394 142.468 151.954 142.708 151.474 142.82C150.993 142.931 150.492 142.908 150.024 142.754C149.671 142.728 149.316 142.728 148.963 142.754C150.597 141.579 151.543 142.21 152.747 142.238V142.124ZM151.314 143.127C150.966 143.461 150.536 143.695 150.067 143.806C149.598 143.917 149.108 143.9 148.648 143.758C148.277 143.701 147.901 143.701 147.53 143.758C149.164 142.496 150.139 143.127 151.314 143.213V143.127ZM149.881 144.13C149.536 144.44 149.121 144.663 148.672 144.778C148.222 144.892 147.752 144.896 147.301 144.789C146.911 144.732 146.515 144.732 146.125 144.789C147.702 143.471 148.734 144.073 149.881 144.187V144.13ZM146.67 144.933C146.994 144.889 147.321 144.889 147.645 144.933C147.921 144.96 148.2 144.96 148.476 144.933C148.271 145.221 147.993 145.449 147.671 145.595C147.348 145.741 146.993 145.799 146.641 145.764C146.037 145.636 145.412 145.636 144.807 145.764C145.013 145.456 145.289 145.201 145.613 145.022C145.937 144.842 146.3 144.743 146.67 144.732V144.933ZM143.574 147.025C144.054 146.442 144.744 146.071 145.495 145.993C146.048 145.95 146.604 145.95 147.157 145.993C146.938 146.288 146.646 146.52 146.309 146.666C145.971 146.812 145.602 146.867 145.237 146.825H144.721C144.377 146.825 144.033 146.997 143.775 146.997C143.743 147.01 143.709 147.017 143.675 147.017C143.64 147.017 143.606 147.01 143.574 146.997V147.025ZM142.428 148.516C142.625 148.178 142.89 147.884 143.206 147.652C143.521 147.421 143.881 147.256 144.262 147.169C144.796 147.11 145.334 147.11 145.867 147.169C145.094 148.2 144.377 148.086 143.488 148.286C143.144 148.286 142.772 148.516 142.542 148.516H142.428ZM144.721 148.258C144.599 148.571 144.401 148.85 144.147 149.07C143.892 149.29 143.587 149.444 143.259 149.519C142.648 149.616 142.085 149.907 141.654 150.35C141.686 149.96 141.831 149.588 142.07 149.278C142.309 148.967 142.632 148.733 143.001 148.602C143.564 148.44 144.139 148.325 144.721 148.258ZM143.804 149.576C143.697 150.034 143.433 150.44 143.058 150.723C142.772 150.924 142.399 151.067 142.084 151.325C141.711 151.583 141.51 152.099 141.224 152.099C141.208 151.701 141.298 151.305 141.485 150.953C141.671 150.601 141.947 150.304 142.284 150.092C142.765 149.852 143.276 149.679 143.804 149.576ZM143.144 150.895C143.15 151.536 142.903 152.155 142.456 152.615C141.989 153.012 141.675 153.559 141.568 154.163C141.382 153.81 141.302 153.412 141.338 153.015C141.373 152.618 141.523 152.24 141.768 151.927C142.163 151.505 142.629 151.156 143.144 150.895Z" fill="url(#paint2_linear_964_6584)"/>
<path fill-rule="evenodd" clip-rule="evenodd" d="M140.966 126.931C140.966 126.931 142.428 132.951 155.011 135.215C167.595 137.451 170.462 132.349 170.462 132.349L174.217 105.978L143.89 100.56L140.966 126.931Z" fill="url(#paint3_linear_964_6584)"/>
<path fill-rule="evenodd" clip-rule="evenodd" d="M140.966 126.931C140.966 126.931 142.485 132.349 155.069 134.613C167.653 136.878 170.519 132.234 170.519 132.234L180.58 68.1116L147.874 62.2354L140.966 126.931Z" fill="url(#paint4_linear_964_6584)"/>
<path fill-rule="evenodd" clip-rule="evenodd" d="M165.675 134.814L164.356 135.043L174.016 66.879L175.248 67.1083L165.675 134.814Z" fill="white"/>
<path fill-rule="evenodd" clip-rule="evenodd" d="M140.966 126.931C140.966 126.931 142.485 132.349 155.069 134.613C156.129 134.814 157.104 134.957 157.935 135.043C143.03 116.182 149.709 72.9845 150.683 62.7226L147.817 62.2067L140.966 126.931Z" fill="url(#paint5_linear_964_6584)"/>
<path fill-rule="evenodd" clip-rule="evenodd" d="M147.788 63.0666C158.738 71.4366 175.994 77.1696 179.004 78.1442L180.494 68.5415H180.15L177.284 67.5956L147.788 62.3214V63.1813V63.0666ZM145.638 83.1318L146.67 73.3858C157.964 81.7559 175.564 87.5461 177.427 88.1481L175.908 97.7221C171.895 96.4035 156.101 90.9572 145.638 83.1318ZM143.488 103.197C152.589 109.204 162.464 113.948 172.841 117.3L174.331 107.697C163.8 104.27 153.774 99.45 144.52 93.3651L143.488 103.14V103.197ZM141.338 123.262L142.37 113.516C151.371 119.347 161.081 124 171.264 127.361L170.519 132.177C169.744 133.045 168.8 133.747 167.746 134.239C166.691 134.732 165.548 135.006 164.385 135.043C156.264 132.066 148.527 128.13 141.338 123.32V123.262Z" fill="url(#paint6_linear_964_6584)"/>
<path fill-rule="evenodd" clip-rule="evenodd" d="M147.817 62.7226C158.795 71.0927 176.08 76.8543 179.061 77.8002L180.552 68.1976H180.208L179.577 67.9969L147.874 62.264V62.78L147.817 62.7226ZM145.667 82.7878L146.727 73.0132C157.993 81.4119 175.679 87.3455 177.485 87.8042L175.965 97.3781C171.981 96.0882 156.129 90.6133 145.667 82.7878ZM143.517 102.853C152.625 108.874 162.509 113.628 172.898 116.985L174.389 107.382C163.854 103.963 153.827 99.1422 144.578 93.0498L143.517 102.824V102.853ZM141.367 122.918L142.428 113.172C151.418 119.02 161.131 123.674 171.322 127.017L170.519 132.177C169.83 132.966 168.992 133.611 168.052 134.073C167.112 134.536 166.09 134.807 165.044 134.871C156.704 131.869 148.754 127.875 141.367 122.976V122.918Z" fill="url(#paint7_linear_964_6584)"/>
<path fill-rule="evenodd" clip-rule="evenodd" d="M147.817 62.7226C148.705 63.3819 149.623 64.0412 150.683 64.6718C150.683 63.9265 150.826 63.2672 150.884 62.7226L148.017 62.2067V62.7226H147.817ZM146.097 78.8321L145.667 82.8165C146.641 83.5618 147.673 84.2497 148.734 84.9377C148.935 81.3833 149.193 78.0009 149.479 74.9625C148.533 74.3605 147.616 73.7012 146.613 73.0419L145.982 78.7748L146.097 78.8321ZM143.517 102.91C145.208 104.143 147.043 105.318 148.935 106.436C148.619 102.882 148.476 99.27 148.447 95.7443C147.11 94.9226 145.82 94.0626 144.578 93.1644L143.517 102.91ZM141.367 122.976C145.755 126.008 150.408 128.636 155.27 130.83C153.189 126.881 151.655 122.666 150.712 118.303C147.843 116.795 145.075 115.1 142.428 113.23L141.367 122.976Z" fill="url(#paint8_linear_964_6584)"/>
<path fill-rule="evenodd" clip-rule="evenodd" d="M167.796 73.6152C170.089 74.5898 172.21 75.3924 174.016 76.0516L175.277 67.1083L168.885 65.9617L167.796 73.6152ZM164.929 93.3078C167.194 94.2537 169.344 95.085 171.121 95.7443L172.497 86.1129C170.748 85.4537 168.627 84.6224 166.305 83.6764L164.929 93.3078ZM162.063 112.972C164.356 113.946 166.477 114.778 168.283 115.437L169.659 105.806C167.882 105.146 165.76 104.315 163.467 103.34L162.063 112.972ZM159.196 132.636C161.26 133.524 163.209 134.269 164.929 134.929H165.474L166.821 125.613C165.015 124.953 162.894 124.122 160.601 123.148L159.196 132.636Z" fill="url(#paint9_linear_964_6584)"/>
<path fill-rule="evenodd" clip-rule="evenodd" d="M172.783 75.593L174.016 76.0517L175.277 67.1083L174.016 66.879L172.783 75.4784V75.593ZM169.917 95.2857L171.092 95.7443L172.468 86.113L171.264 85.6543L169.917 95.2857ZM167.051 115.007L168.197 115.437L169.573 105.806L168.398 105.376L167.051 115.007ZM164.184 134.7L164.815 134.929H165.359L166.707 125.613L165.56 125.183L164.184 134.7Z" fill="url(#paint10_linear_964_6584)"/>
<path fill-rule="evenodd" clip-rule="evenodd" d="M165.474 186.668L180.637 77.3416C180.953 75.0771 180.265 73.0419 179.089 72.8412C177.914 72.6406 176.71 74.2745 176.395 76.5677L161.117 186.668H165.474Z" fill="white"/>
<path fill-rule="evenodd" clip-rule="evenodd" d="M165.216 188.503L180.637 77.3129C180.953 75.0484 180.265 73.0133 179.089 72.8126C177.914 72.612 176.71 74.2458 176.395 76.539L161.117 186.64L165.216 188.503Z" fill="white"/>
<path fill-rule="evenodd" clip-rule="evenodd" d="M179.089 72.8412C179.222 72.8636 179.349 72.9124 179.462 72.9846C178.401 73.1279 177.427 74.6758 177.14 76.711L161.891 186.668H161.117L176.395 76.711C176.71 74.2745 178 72.6119 179.089 72.8412Z" fill="#D0CDCD"/>
<path fill-rule="evenodd" clip-rule="evenodd" d="M165.273 188.073L161.375 184.748V185.665L160.83 189.563C160.75 190.13 160.899 190.705 161.243 191.162C161.587 191.619 162.098 191.92 162.665 192C163.231 192.08 163.806 191.931 164.263 191.587C164.72 191.243 165.021 190.732 165.101 190.165L165.273 188.073Z" fill="url(#paint11_linear_964_6584)"/>
<path fill-rule="evenodd" clip-rule="evenodd" d="M163.983 191.685L164.557 187.471L165.273 188.073L164.958 190.251C164.907 190.546 164.794 190.826 164.626 191.074C164.458 191.321 164.239 191.529 163.983 191.685Z" fill="#D0CDCD"/>
<path fill-rule="evenodd" clip-rule="evenodd" d="M176.395 76.711L175.851 80.638L179.749 83.9631L180.466 78.6315L176.682 75.421C176.553 75.843 176.458 76.2743 176.395 76.711ZM174.331 91.6166L178.23 94.913L178.946 89.61L175.134 86.1416L174.417 91.4732L174.331 91.6166ZM172.812 102.566L176.711 105.892L177.456 100.56L173.529 97.2348L172.812 102.566ZM171.293 113.516L175.134 116.841L175.879 111.51L171.952 108.185L171.236 113.516H171.293ZM169.745 124.495L173.643 127.791L174.389 122.46L170.49 119.163L169.745 124.495ZM168.226 135.445L172.153 138.741L172.87 133.438L168.971 130.113L168.226 135.445ZM166.735 146.395L170.634 149.72L171.35 144.388L167.452 141.063L166.735 146.395ZM165.216 157.345L169.086 160.67L169.831 155.338L165.933 152.013L165.216 157.345ZM163.668 168.323L167.567 171.619L168.312 166.288L164.413 162.991L163.668 168.323ZM162.149 179.273L166.047 182.569L166.793 177.266L162.894 173.941L162.149 179.273Z" fill="url(#paint12_linear_964_6584)"/>
<path fill-rule="evenodd" clip-rule="evenodd" d="M179.089 72.8412C179.222 72.8636 179.349 72.9124 179.462 72.9846C178.401 73.1279 177.427 74.6758 177.14 76.711L161.891 186.668H161.117L176.395 76.711C176.71 74.2745 178 72.6119 179.089 72.8412Z" fill="#D0CDCD"/>
<path fill-rule="evenodd" clip-rule="evenodd" d="M162.063 185.35L161.375 184.748V185.665L160.83 189.563C160.787 189.87 160.811 190.183 160.9 190.48C160.989 190.777 161.142 191.051 161.346 191.283L162.063 185.35Z" fill="#51100D"/>
<path fill-rule="evenodd" clip-rule="evenodd" d="M166.793 177.037L166.105 176.406L165.359 181.738L166.047 182.34L166.793 177.037ZM177.456 100.331L176.739 99.7286L175.994 105.06L176.711 105.662L177.456 100.331ZM175.908 111.28L175.22 110.679L174.475 116.01L175.191 116.612L175.908 111.28ZM179.778 77.8002L179.032 83.1318L179.749 83.7338L180.466 78.4022L179.778 77.8002ZM178.946 89.2661L178.258 88.6641L177.513 93.967L178.23 94.569L178.946 89.2661ZM168.312 165.944L167.624 165.342L166.879 170.674L167.567 171.275L168.312 165.944ZM171.35 144.044L170.662 143.442L169.917 148.774L170.605 149.376L171.35 144.044ZM169.831 154.994L169.143 154.392L168.398 159.724L169.086 160.326L169.831 154.994ZM174.389 122.116L173.701 121.514L172.956 126.845L173.643 127.447L174.389 122.116ZM172.87 133.094L172.182 132.492L171.436 137.795L172.153 138.397L172.87 133.094Z" fill="#C51F25"/>
<path fill-rule="evenodd" clip-rule="evenodd" d="M169.029 26.1179L143.402 67.0223C145.552 68.6848 150.798 71.15 163.726 73.4718C176.051 75.679 181.383 75.249 183.791 74.4464L170.72 26.4046C170.72 26.4046 170.433 25.086 170.118 25.0287C169.802 25.0287 169.143 26.1465 169.143 26.1465L169.029 26.1179Z" fill="url(#paint13_linear_964_6584)"/>
<path fill-rule="evenodd" clip-rule="evenodd" d="M170.032 25.1147C169.888 25.1147 169.802 25.5733 169.802 25.946L165.245 73.8445C169.114 74.5038 172.267 74.9051 174.819 75.077L170.404 25.7166V25.5446L170.032 25.1147Z" fill="url(#paint14_linear_964_6584)"/>
<path fill-rule="evenodd" clip-rule="evenodd" d="M170.032 25.1147L173.07 74.9051H173.758H174.761L170.404 25.6593C170.404 25.3153 170.146 25 170.003 24.9714L170.032 25.1147Z" fill="url(#paint15_linear_964_6584)"/>
<path fill-rule="evenodd" clip-rule="evenodd" d="M169.831 25.1147L144.205 66.019C145.958 67.2613 147.892 68.228 149.938 68.8855L169.888 25.1147H169.831Z" fill="url(#paint16_linear_964_6584)"/>
<path fill-rule="evenodd" clip-rule="evenodd" d="M142.886 66.5924C142.886 66.5924 143.173 66.8503 143.402 66.9936C145.753 68.6562 151.17 71.0353 163.697 73.2712C175.593 75.421 181.039 75.1344 183.561 74.3891C183.905 74.3891 184.221 74.2458 184.249 74.1025C184.249 73.9018 183.533 73.5292 183.332 73.5578C176.821 74.2818 170.234 73.9234 163.84 72.4973C151.887 70.3474 146.326 67.9682 143.775 66.3057H143.316C143.087 66.3057 142.858 66.3057 142.8 66.6497L142.886 66.5924Z" fill="url(#paint17_linear_964_6584)"/>
<path fill-rule="evenodd" clip-rule="evenodd" d="M142.428 70.0034C142.428 70.0034 140.765 73.7872 163.181 77.8002C183.418 81.4406 183.762 78.3449 183.762 78.3449L184.307 74.1312C182.128 75.0198 176.854 75.5357 163.783 73.1852C150.081 70.72 144.893 68.1116 142.915 66.4491L142.428 70.0034Z" fill="url(#paint18_linear_964_6584)"/>
<path fill-rule="evenodd" clip-rule="evenodd" d="M164.729 78.0582C168.713 78.7461 171.895 79.1474 174.389 79.3767L174.99 74.7044C172.411 74.5037 169.258 74.1024 165.302 73.4431L164.729 78.0582Z" fill="url(#paint19_linear_964_6584)"/>
<path fill-rule="evenodd" clip-rule="evenodd" d="M172.554 79.2048L174.389 79.3767L174.991 74.7044L173.185 74.5324L172.554 79.2048Z" fill="url(#paint20_linear_964_6584)"/>
<path fill-rule="evenodd" clip-rule="evenodd" d="M142.428 70.0034C142.428 70.0034 141.654 71.7807 148.447 74.2172L149.078 69.5448C146.86 68.8763 144.775 67.829 142.915 66.4491L142.428 70.0034Z" fill="url(#paint21_linear_964_6584)"/>
<path fill-rule="evenodd" clip-rule="evenodd" d="M126.404 146.108L124.655 146.853C124.06 147.059 123.507 147.37 123.022 147.771L122.162 148.258C121.919 148.443 121.689 148.644 121.474 148.86C121.072 149.204 120.872 149.318 120.499 149.691C120.105 150.114 119.741 150.564 119.41 151.038C119.155 151.341 118.916 151.657 118.693 151.984C118.693 152.242 118.435 152.672 118.321 152.93C118.116 153.272 117.935 153.626 117.776 153.991C117.663 154.405 117.576 154.826 117.518 155.252C117.518 155.539 117.375 155.797 117.346 156.083C117.346 156.399 117.346 156.714 117.346 157.001C117.346 157.259 117.346 157.488 117.346 157.717C117.318 157.974 117.318 158.234 117.346 158.491C117.346 158.778 117.346 159.064 117.346 159.351C117.346 159.609 117.346 159.896 117.346 160.154C117.346 160.383 117.346 160.612 117.346 160.813C117.36 161.071 117.36 161.329 117.346 161.587C117.346 161.845 117.346 162.074 117.346 162.332C117.346 162.619 117.346 162.905 117.346 163.192C117.346 163.45 117.346 163.737 117.346 163.995C117.346 164.31 117.346 164.597 117.346 164.912C117.346 165.342 117.346 165.686 117.346 166.087C117.346 166.546 117.346 167.062 117.346 167.52C117.276 168.073 117.16 168.62 117.002 169.154C116.938 169.584 116.832 170.006 116.687 170.416V170.645C116.343 171.161 116.4 171.39 116.199 171.619L115.97 171.849C115.712 172.049 115.483 172.393 115.311 172.537L114.995 172.766C114.709 172.909 114.422 173.139 114.164 173.253L113.734 173.454L113.218 173.597L113.706 175.26C114.069 175.205 114.425 175.108 114.766 174.973C115.141 174.802 115.497 174.59 115.827 174.343C116.304 174.063 116.739 173.715 117.117 173.311C117.316 173.041 117.489 172.753 117.633 172.451C117.848 172.235 118.049 172.005 118.235 171.763C118.407 171.447 118.407 171.132 118.55 170.846C118.688 170.599 118.803 170.34 118.894 170.072C118.908 169.795 118.908 169.517 118.894 169.24C118.983 168.986 119.06 168.728 119.123 168.466C119.123 168.151 119.123 167.864 119.123 167.578C119.139 167.282 119.139 166.985 119.123 166.689C119.137 166.422 119.137 166.154 119.123 165.886C119.123 165.485 119.123 165.027 119.123 164.597C119.123 164.281 119.123 163.966 119.123 163.651C119.123 163.364 119.123 163.106 119.123 162.819C119.123 162.59 119.123 162.275 119.123 162.045C119.138 161.778 119.138 161.51 119.123 161.243C119.109 160.975 119.109 160.708 119.123 160.44C119.123 160.211 119.123 159.982 118.951 159.781C118.951 159.38 118.951 159.036 118.951 158.634C118.951 158.376 118.951 158.061 118.951 157.774C118.937 157.517 118.937 157.258 118.951 157.001C118.937 156.771 118.937 156.542 118.951 156.313C118.951 156.083 119.095 155.854 119.123 155.625C119.123 155.367 119.123 155.08 119.123 154.822C119.123 154.564 119.324 154.478 119.439 154.191C119.439 154.191 119.438 153.704 119.639 153.532C119.639 153.274 119.926 153.102 120.069 152.844C120.069 152.672 120.241 152.443 120.356 152.271C120.356 152.099 120.642 152.013 120.757 151.841C120.9 151.841 120.986 151.468 121.13 151.296C121.273 151.124 121.474 151.01 121.646 150.838C121.818 150.666 121.99 150.436 122.162 150.293C122.298 150.188 122.442 150.092 122.592 150.006C122.827 149.79 123.076 149.589 123.337 149.404C123.557 149.273 123.787 149.158 124.025 149.06L124.627 148.63C124.926 148.508 125.233 148.403 125.544 148.315C125.773 148.315 125.974 148.029 126.203 147.943L126.863 147.771V147.627H126.375C126.512 147.435 126.637 147.234 126.748 147.025L126.519 145.907L126.404 146.108Z" fill="url(#paint22_linear_964_6584)"/>
<path fill-rule="evenodd" clip-rule="evenodd" d="M126.404 147.341C126.201 147.416 125.989 147.464 125.774 147.484C125.258 147.484 125.2 148 124.34 148.286C123.687 148.608 123.055 148.972 122.448 149.376C122.107 149.555 121.82 149.822 121.617 150.15C121.434 150.47 121.191 150.753 120.901 150.981C120.385 151.354 120.528 151.382 119.869 152.214C119.649 152.455 119.5 152.753 119.439 153.073C119.409 153.24 119.341 153.397 119.238 153.532C118.951 153.847 119.238 154.679 118.865 154.908C118.666 155.082 118.52 155.309 118.444 155.563C118.368 155.816 118.365 156.086 118.435 156.341C118.665 156.972 117.891 157.029 118.206 157.86C118.55 158.663 118.206 159.294 118.493 160.354C118.722 161.415 118.12 161.615 118.493 162.504C118.951 163.393 118.177 163.708 118.493 164.367C118.779 165.027 118.493 164.769 118.493 165.715C118.693 166.66 118.149 166.345 118.292 167.692C118.341 168.245 118.273 168.802 118.091 169.326C117.943 169.797 117.819 170.276 117.719 170.76C117.665 171.105 117.504 171.426 117.26 171.677C116.971 171.99 116.721 172.336 116.515 172.709C116.114 173.311 115.884 173.397 115.684 173.483C115.234 173.685 114.803 173.925 114.394 174.199C114.101 174.374 113.781 174.5 113.448 174.572L113.648 175.231L114.279 175.059C114.62 174.932 114.947 174.769 115.254 174.572L116.2 173.941C116.633 173.713 116.991 173.365 117.232 172.938C117.389 172.622 117.581 172.324 117.805 172.049C117.967 171.901 118.102 171.727 118.206 171.533C118.285 171.197 118.4 170.87 118.55 170.559C118.708 170.31 118.797 170.023 118.808 169.728C118.834 169.414 118.901 169.106 119.009 168.81C119.075 168.45 119.075 168.081 119.009 167.721C119.009 167.262 119.181 167.09 119.009 166.489C119.009 165.887 119.009 164.941 119.009 164.31C118.921 163.731 118.864 163.147 118.837 162.561C118.837 162.189 118.837 161.186 118.837 160.813C118.758 160.358 118.71 159.898 118.693 159.437C118.72 159.017 118.72 158.596 118.693 158.176C118.656 157.9 118.656 157.62 118.693 157.344C118.671 157.125 118.671 156.904 118.693 156.685C118.693 156.513 118.693 156.141 118.693 155.797C118.719 155.544 118.767 155.295 118.837 155.051L119.009 154.449C119.119 154.106 119.253 153.771 119.41 153.446L119.869 152.615L120.413 151.87C120.577 151.601 120.769 151.351 120.987 151.124C121.24 150.901 121.48 150.661 121.703 150.408C121.875 150.207 121.846 150.408 122.19 150.035C122.525 149.743 122.879 149.475 123.251 149.232C123.603 149.062 123.938 148.86 124.254 148.63C124.426 148.63 125.344 148.172 125.688 148C125.997 147.852 126.325 147.746 126.662 147.685V147.111L126.404 147.341Z" fill="url(#paint23_linear_964_6584)"/>
<path fill-rule="evenodd" clip-rule="evenodd" d="M126.404 146.108L124.655 146.853C124.06 147.059 123.507 147.37 123.022 147.771L122.162 148.258C121.919 148.443 121.689 148.644 121.474 148.86C121.072 149.204 120.872 149.318 120.499 149.691C120.105 150.114 119.741 150.564 119.41 151.038C119.155 151.341 118.916 151.657 118.693 151.984C118.693 152.242 118.435 152.672 118.321 152.93C118.116 153.272 117.935 153.626 117.776 153.991C117.663 154.405 117.576 154.826 117.518 155.252C117.518 155.539 117.375 155.797 117.346 156.083C117.346 156.399 117.346 156.714 117.346 157.001C117.346 157.259 117.346 157.488 117.346 157.717C117.318 157.974 117.318 158.234 117.346 158.491C117.346 158.778 117.346 159.064 117.346 159.351C117.346 159.609 117.346 159.896 117.346 160.154C117.346 160.383 117.346 160.612 117.346 160.813C117.36 161.071 117.36 161.329 117.346 161.587C117.346 161.845 117.346 162.074 117.346 162.332C117.346 162.619 117.346 162.905 117.346 163.192C117.346 163.45 117.346 163.737 117.346 163.995C117.346 164.31 117.346 164.597 117.346 164.912C117.346 165.342 117.346 165.686 117.346 166.087C117.346 166.546 117.346 167.062 117.346 167.52C117.276 168.073 117.16 168.62 117.002 169.154C116.938 169.584 116.832 170.006 116.687 170.416V170.645C116.343 171.161 116.4 171.39 116.199 171.619L115.97 171.849C115.712 172.049 115.483 172.393 115.311 172.537L114.995 172.766C114.709 172.909 114.422 173.139 114.164 173.253L113.734 173.454L113.218 173.597V173.941C113.523 173.671 113.886 173.475 114.279 173.368C114.165 173.942 113.886 174.47 113.476 174.887V175.174C113.777 174.771 114.019 174.327 114.193 173.855C114.449 173.309 114.87 172.858 115.397 172.565C115.421 173.029 115.333 173.491 115.139 173.913C114.976 174.238 114.742 174.523 114.454 174.746C114.166 174.97 113.832 175.125 113.476 175.203C113.839 175.147 114.195 175.051 114.537 174.916C114.912 174.744 115.268 174.533 115.597 174.285C116.075 174.005 116.509 173.658 116.887 173.253C117.086 172.984 117.259 172.696 117.403 172.393C117.619 172.178 117.82 171.948 118.005 171.706C118.177 171.39 118.177 171.075 118.321 170.788C118.459 170.541 118.574 170.282 118.665 170.014C118.678 169.737 118.678 169.46 118.665 169.183C118.754 168.929 118.831 168.671 118.894 168.409C118.894 168.094 118.894 167.807 118.894 167.52C118.91 167.224 118.91 166.928 118.894 166.632C118.908 166.364 118.908 166.097 118.894 165.829C118.894 165.428 118.894 164.969 118.894 164.539C118.894 164.224 118.894 163.909 118.894 163.593C118.894 163.307 118.894 163.049 118.894 162.762C118.894 162.533 118.894 162.217 118.894 161.988C118.908 161.721 118.908 161.453 118.894 161.186C118.88 160.918 118.88 160.65 118.894 160.383C118.894 160.154 118.894 159.924 118.722 159.724C118.722 159.322 118.722 158.978 118.722 158.577C118.722 158.319 118.722 158.004 118.722 157.717C118.708 157.459 118.708 157.201 118.722 156.943C118.708 156.714 118.708 156.484 118.722 156.255C118.722 156.026 118.865 155.797 118.894 155.567C118.894 155.309 118.894 155.023 118.894 154.765C118.894 154.507 119.095 154.421 119.209 154.134C119.209 154.134 119.209 153.647 119.41 153.475C119.41 153.217 119.696 153.045 119.84 152.787C119.84 152.615 120.012 152.386 120.126 152.214C120.126 152.042 120.413 151.956 120.528 151.784C120.671 151.784 120.757 151.411 120.9 151.239C121.044 151.067 121.244 150.952 121.416 150.78C121.588 150.608 121.76 150.379 121.932 150.236C122.069 150.13 122.212 150.034 122.362 149.949C122.598 149.733 122.847 149.532 123.108 149.347C123.328 149.215 123.558 149.1 123.796 149.003L124.397 148.573C124.697 148.451 125.003 148.346 125.315 148.258C125.544 148.258 125.745 147.971 125.974 147.885L126.633 147.713V147.57H126.146C126.283 147.377 126.407 147.176 126.519 146.968V146.767C126.082 147.423 125.45 147.924 124.713 148.2C124.907 147.848 125.079 147.485 125.229 147.111C125.463 146.629 125.858 146.243 126.347 146.022V145.85H125.974L126.404 146.108ZM124.369 147.656C124.524 147.338 124.759 147.066 125.05 146.865C125.341 146.665 125.679 146.542 126.031 146.509C125.721 146.947 125.443 147.407 125.2 147.885C124.868 148.436 124.379 148.875 123.796 149.146C124.025 148.716 124.111 148.143 124.369 147.656ZM122.878 148.602C122.991 148.255 123.189 147.942 123.455 147.691C123.72 147.441 124.044 147.261 124.397 147.169C124.168 147.627 124.053 148.114 123.796 148.63C123.531 149.193 123.114 149.669 122.592 150.006C122.66 149.533 122.755 149.064 122.878 148.602ZM121.588 149.519C121.664 149.173 121.831 148.855 122.074 148.597C122.316 148.34 122.624 148.153 122.964 148.057C122.747 148.512 122.593 148.994 122.506 149.49C122.302 150.111 121.936 150.665 121.445 151.096C121.445 150.608 121.445 150.092 121.445 149.519H121.588ZM120.384 150.752C120.409 150.397 120.528 150.056 120.73 149.763C120.931 149.47 121.208 149.238 121.531 149.089C121.415 149.579 121.338 150.077 121.302 150.58C121.203 151.209 120.924 151.796 120.499 152.271C120.499 151.812 120.499 151.296 120.499 150.752H120.384ZM119.41 152.214C119.362 151.85 119.408 151.479 119.543 151.138C119.678 150.797 119.899 150.496 120.184 150.264C120.184 150.78 120.184 151.239 120.184 151.726C120.171 152.359 120.004 152.979 119.696 153.532C119.696 153.131 119.381 152.729 119.295 152.214H119.41ZM118.665 153.704C118.553 153.355 118.537 152.982 118.618 152.624C118.698 152.267 118.873 151.937 119.123 151.669C119.123 152.07 119.381 152.529 119.467 153.045C119.586 153.67 119.527 154.315 119.295 154.908C119.295 154.535 118.865 154.191 118.665 153.704ZM118.177 155.166C118.016 154.85 117.945 154.496 117.97 154.143C117.995 153.789 118.116 153.449 118.321 153.16C118.321 153.647 118.722 154.048 118.894 154.507C119.114 155.102 119.173 155.745 119.066 156.37C118.795 155.95 118.499 155.548 118.177 155.166ZM118.005 156.8C117.788 156.518 117.65 156.184 117.605 155.832C117.56 155.479 117.609 155.121 117.747 154.793C118.005 155.252 118.321 155.567 118.579 155.997C118.895 156.544 119.035 157.174 118.98 157.803C118.779 157.431 118.349 157.201 118.005 156.8ZM118.005 158.29C117.784 158.034 117.629 157.728 117.554 157.398C117.479 157.068 117.486 156.725 117.575 156.399C118.177 157.258 119.095 157.545 119.123 159.265C118.772 158.89 118.399 158.535 118.005 158.204V158.29ZM117.518 158.061C118.206 158.778 119.152 159.064 119.209 160.928C118.607 160.096 117.346 159.924 117.518 158.061ZM117.518 159.58C118.235 160.326 119.209 160.555 119.295 162.447C118.665 161.616 117.403 161.472 117.518 159.58ZM117.518 161.157C118.235 161.845 119.209 162.103 119.295 164.023C118.665 163.135 117.432 163.049 117.518 161.157ZM117.518 162.733C118.235 163.393 119.238 163.679 119.209 165.6C118.665 164.711 117.403 164.568 117.518 162.733ZM118.091 165.915C117.873 165.693 117.718 165.416 117.642 165.114C117.567 164.811 117.573 164.494 117.661 164.195C117.948 164.568 118.407 164.883 118.751 165.313C118.962 165.569 119.102 165.876 119.157 166.203C119.213 166.53 119.181 166.865 119.066 167.176C118.923 166.632 118.464 166.317 118.091 165.915ZM118.435 167.864C118.005 167.262 117.403 167.004 117.661 165.743C118.017 166.066 118.352 166.411 118.665 166.775C118.854 167.053 118.985 167.367 119.05 167.697C119.114 168.027 119.109 168.367 119.037 168.696C118.779 168.696 118.693 168.208 118.435 167.864ZM118.177 169.527C117.805 168.839 117.317 168.438 117.604 167.262C117.944 167.584 118.252 167.94 118.521 168.323C118.674 168.641 118.753 168.988 118.753 169.341C118.753 169.693 118.674 170.041 118.521 170.358C118.349 170.358 118.235 169.871 118.063 169.527H118.177ZM117.461 170.444C117.324 170.173 117.254 169.873 117.254 169.57C117.254 169.266 117.324 168.967 117.461 168.696C117.755 169.118 118.004 169.569 118.206 170.043C118.322 170.383 118.34 170.748 118.259 171.097C118.178 171.447 118.001 171.767 117.747 172.021C117.807 171.475 117.697 170.925 117.432 170.444H117.461ZM116.859 172.365C116.859 171.992 116.859 171.677 116.859 171.333C116.848 170.91 116.979 170.497 117.231 170.158C117.484 170.561 117.658 171.008 117.747 171.476C117.772 171.841 117.713 172.206 117.574 172.545C117.434 172.883 117.219 173.184 116.945 173.425C116.744 173.253 116.945 172.795 116.945 172.365H116.859ZM115.741 172.938C115.807 172.349 116.094 171.806 116.543 171.419C116.647 171.93 116.647 172.456 116.543 172.967C116.463 173.333 116.285 173.671 116.027 173.944C115.77 174.216 115.443 174.414 115.081 174.515C115.449 174.069 115.661 173.515 115.683 172.938H115.741Z" fill="url(#paint24_linear_964_6584)"/>
<path fill-rule="evenodd" clip-rule="evenodd" d="M105.622 151.956C105.622 151.956 108.489 156.399 119.955 153.647C131.42 150.895 132.452 145.707 132.452 145.707L128.124 122.374L100.606 129.024L105.622 151.956Z" fill="#142916"/>
<path fill-rule="evenodd" clip-rule="evenodd" d="M93.0386 95.5149L105.622 151.956C105.622 151.956 108.489 155.883 119.955 153.131C131.42 150.264 132.51 145.477 132.51 145.477L122.821 88.3488L93.0386 95.5149Z" fill="url(#paint25_linear_964_6584)"/>
<path fill-rule="evenodd" clip-rule="evenodd" d="M129.07 149.404C128.729 149.643 128.375 149.863 128.009 150.064L116.83 89.868L117.948 89.61L129.07 149.404Z" fill="white"/>
<path fill-rule="evenodd" clip-rule="evenodd" d="M93.0386 95.5149L105.622 151.956C105.622 151.956 108.489 155.883 119.955 153.131C120.901 152.901 121.789 152.672 122.62 152.414C104.447 142.181 97.8256 103.684 95.7331 94.8843L93.0386 95.5149Z" fill="url(#paint26_linear_964_6584)"/>
<path fill-rule="evenodd" clip-rule="evenodd" d="M122.534 88.8074L119.869 89.0654L93.0386 95.5149L93.2106 96.2888C105.02 99.1553 121.445 97.6361 124.312 97.3208L122.85 88.7214L122.534 88.8074ZM97.1089 113.803C107.062 115.574 117.218 115.902 127.264 114.778L125.831 106.178C124.054 106.379 107.285 108.041 95.2171 105.232L97.1089 113.832V113.803ZM101.007 131.317C110.664 132.967 120.502 133.286 130.245 132.263L128.783 123.664C118.898 124.694 108.918 124.386 99.1155 122.746L101.007 131.346V131.317ZM104.906 148.802C112.537 150.159 120.305 150.583 128.038 150.064C131.965 147.742 132.481 145.477 132.481 145.477L131.764 141.178C122.213 142.141 112.576 141.852 103.1 140.318L104.906 148.802Z" fill="url(#paint27_linear_964_6584)"/>
<path fill-rule="evenodd" clip-rule="evenodd" d="M122.477 88.5208H121.875L93.0386 95.4576V95.9163C104.848 98.7827 121.302 97.2635 124.14 96.9482L122.678 88.3488H122.362L122.477 88.5208ZM97.0516 113.488C107.015 115.25 117.177 115.588 127.235 114.491L125.774 105.892C124.054 106.063 107.228 107.726 95.1597 104.917L97.0516 113.516V113.488ZM100.95 131.002C110.605 132.666 120.445 132.984 130.188 131.948L128.755 123.348C118.86 124.394 108.869 124.085 99.0581 122.431L100.95 131.03V131.002ZM104.848 148.516C112.682 149.88 120.652 150.284 128.583 149.72C132.022 147.541 132.481 145.477 132.481 145.477L131.707 140.862C122.156 141.84 112.518 141.551 103.043 140.002L104.848 148.516Z" fill="url(#paint28_linear_964_6584)"/>
<path fill-rule="evenodd" clip-rule="evenodd" d="M93.0387 95.5149V95.9736C93.9942 96.2029 94.9497 96.4035 95.9051 96.5755C95.9051 95.9449 95.6185 95.3716 95.5325 94.8843L92.8667 95.5149H93.0387ZM96.2778 110.019L97.0517 113.488C98.1123 113.746 99.1729 113.946 100.291 114.147C99.4309 111.08 98.6856 108.185 98.0837 105.548C97.0804 105.376 96.1058 105.204 95.2172 104.974L96.3351 110.019H96.2778ZM100.95 131.002C102.844 131.415 104.757 131.731 106.683 131.948C105.393 129.081 104.247 126.215 103.215 123.348C101.839 123.148 100.348 122.89 99.1442 122.603L101.036 131.202L100.95 131.002ZM104.849 148.516C109.515 149.418 114.256 149.888 119.009 149.92C116.071 147.406 113.547 144.446 111.527 141.149C108.638 140.965 105.765 140.582 102.928 140.002L104.849 148.516Z" fill="url(#paint29_linear_964_6584)"/>
<path fill-rule="evenodd" clip-rule="evenodd" d="M112.072 91.0433L117.805 89.6387L119.267 97.5215C117.547 97.5215 115.483 97.7508 113.218 97.7795L112.072 91.0433ZM118.149 124.122C120.413 124.122 122.477 123.979 124.197 123.864L125.773 132.464C124.025 132.464 121.961 132.664 119.725 132.693L118.149 124.094V124.122ZM114.938 106.58C117.231 106.58 119.267 106.436 120.986 106.321L122.563 114.921C120.814 114.921 118.751 115.122 116.515 115.15L114.938 106.551V106.58ZM121.359 141.407C123.624 141.407 125.687 141.407 127.407 141.206L128.927 149.433L128.497 149.72C126.834 149.72 124.971 149.892 122.936 149.92L121.359 141.407Z" fill="#88C540"/>
<path fill-rule="evenodd" clip-rule="evenodd" d="M116.83 89.782L117.977 89.524L119.439 97.4068H118.235L116.83 89.696V89.782ZM123.136 123.836H124.283L125.859 132.435H124.741L123.136 123.836ZM126.375 141.264H127.493L129.013 149.519L128.583 149.806H127.952L126.375 141.206V141.264ZM119.897 106.379H121.072L122.649 114.978H121.474L119.897 106.379Z" fill="#C7E096"/>
<path fill-rule="evenodd" clip-rule="evenodd" d="M142.599 186.668L125.401 96.0596C125.028 94.0531 123.853 92.6199 122.792 92.8779C121.732 93.1359 121.158 94.9704 121.531 96.9769L138.472 186.668H142.599Z" fill="white"/>
<path fill-rule="evenodd" clip-rule="evenodd" d="M142.599 186.668L125.401 96.0596C125.028 94.0531 123.853 92.6199 122.792 92.8779C121.732 93.1359 121.158 94.9704 121.531 96.9769L138.472 186.668H142.599Z" fill="white"/>
<path fill-rule="evenodd" clip-rule="evenodd" d="M122.878 92.8778H123.222C122.726 93.3927 122.379 94.0324 122.217 94.7289C122.056 95.4255 122.086 96.1528 122.305 96.8335L139.274 186.697H138.558L121.617 97.0055C121.244 94.9703 121.789 93.1072 122.878 92.8778Z" fill="#D0CDCD"/>
<path fill-rule="evenodd" clip-rule="evenodd" d="M141.854 186.668L124.799 96.2316C124.455 94.4257 123.48 93.1072 122.534 93.0212L122.878 92.8779C123.939 92.6199 125.114 94.0531 125.487 96.0596L142.685 186.668H141.854Z" fill="#D0CDCD"/>
<path fill-rule="evenodd" clip-rule="evenodd" d="M121.617 96.9768L122.276 100.445L126.576 101.764L125.687 97.0628L121.502 95.7729C121.461 96.1731 121.461 96.5766 121.502 96.9768H121.617ZM142.6 186.668L142.772 187.614C142.819 187.87 142.815 188.133 142.76 188.388C142.706 188.642 142.602 188.883 142.454 189.098C142.306 189.312 142.118 189.495 141.899 189.636C141.681 189.778 141.437 189.875 141.181 189.922C140.925 189.969 140.662 189.965 140.407 189.911C140.153 189.856 139.912 189.752 139.697 189.604C139.483 189.457 139.3 189.268 139.159 189.05C139.017 188.831 138.92 188.587 138.873 188.331L138.558 186.668L137.87 182.77L142.17 184.117L142.628 186.582L142.6 186.668ZM124.111 110.134L128.411 111.452L127.522 106.751L123.222 105.433L124.111 110.134ZM125.945 119.823L130.217 121.141L129.328 116.44L125.057 115.121L125.945 119.823ZM127.751 129.482L132.051 130.83L131.162 126.1L126.863 124.781L127.751 129.482ZM129.586 139.171L133.886 140.49L132.997 135.789L128.697 134.47L129.586 139.171ZM131.42 148.86L135.72 150.178L134.832 145.477L130.532 144.159L131.42 148.86ZM133.255 158.548L137.526 159.867L136.637 155.137L132.366 153.819L133.255 158.548ZM135.061 168.208L139.361 169.527L138.472 164.826L134.172 163.507L135.061 168.208ZM136.895 177.897L141.195 179.216L140.306 174.515L136.007 173.196L136.895 177.897Z" fill="url(#paint30_linear_964_6584)"/>
<path fill-rule="evenodd" clip-rule="evenodd" d="M122.878 92.8778H123.222C122.726 93.3927 122.379 94.0324 122.217 94.7289C122.056 95.4255 122.086 96.1528 122.305 96.8335L139.246 186.697H138.558L121.617 97.0055C121.244 94.9703 121.789 93.1072 122.878 92.8778Z" fill="#D0CDCD"/>
<path fill-rule="evenodd" clip-rule="evenodd" d="M137.87 182.77L138.644 183.085L139.877 189.678C139.63 189.536 139.418 189.342 139.254 189.109C139.091 188.877 138.981 188.611 138.931 188.331L137.87 182.77Z" fill="#51100D"/>
<path fill-rule="evenodd" clip-rule="evenodd" d="M142.313 189.277L141.338 183.945L142.141 184.203V184.49L142.772 187.901C142.791 188.149 142.76 188.399 142.682 188.635C142.603 188.872 142.478 189.09 142.313 189.277Z" fill="#C51F25"/>
<path fill-rule="evenodd" clip-rule="evenodd" d="M101.437 56.4164C101.15 56.4164 100.892 57.6776 100.892 57.6776L90.5732 101.191C92.8951 101.764 98.112 101.878 109.893 99.0693C121.072 96.3462 125.544 94.0531 127.293 92.5052L102.354 57.3336C102.354 57.3336 101.752 56.4164 101.466 56.4164H101.437Z" fill="url(#paint31_linear_964_6584)"/>
<path fill-rule="evenodd" clip-rule="evenodd" d="M101.437 56.4164C101.294 56.4164 101.437 56.8464 101.437 57.1904L111.241 98.7253C114.766 97.8367 117.575 97.0055 119.84 96.2315L101.925 56.6457V56.5024L101.437 56.4164Z" fill="url(#paint32_linear_964_6584)"/>
<path fill-rule="evenodd" clip-rule="evenodd" d="M101.437 56.445L118.235 96.7762L118.865 96.5755L119.754 96.2602L101.925 56.8464C101.753 56.6457 101.552 56.4164 101.409 56.4164L101.437 56.445Z" fill="url(#paint33_linear_964_6584)"/>
<path fill-rule="evenodd" clip-rule="evenodd" d="M101.265 56.6457L90.9458 100.159C92.8331 100.534 94.7675 100.611 96.6787 100.388L101.609 55.4418L101.265 56.6457Z" fill="url(#paint34_linear_964_6584)"/>
<path fill-rule="evenodd" clip-rule="evenodd" d="M126.777 91.8745C121.455 94.8527 115.7 96.9804 109.721 98.1807C98.8574 100.818 93.4111 100.875 90.774 100.417C90.774 100.417 89.9427 100.417 90.0287 101.019C90.0287 101.019 90.344 101.019 90.5733 101.019C93.0672 101.535 98.3988 101.506 109.779 98.7827C120.614 96.1742 125.2 93.9097 127.149 92.3618C127.436 92.2185 127.665 92.0179 127.637 91.8745C127.637 91.8745 127.293 91.7312 127.035 91.7312H126.719L126.777 91.8745Z" fill="url(#paint35_linear_964_6584)"/>
<path fill-rule="evenodd" clip-rule="evenodd" d="M109.836 98.8113C97.3668 101.678 92.1498 101.678 90 100.875L90.602 104.028C90.602 104.028 90.258 107.783 110.667 102.882C129.07 98.4387 128.497 95.7443 128.497 95.7443L127.751 91.9605C126.146 93.4798 121.76 95.9449 109.865 98.8113H109.836Z" fill="url(#paint36_linear_964_6584)"/>
<path fill-rule="evenodd" clip-rule="evenodd" d="M111.241 98.4674L112.072 102.509C115.712 101.592 118.522 100.761 120.671 100.015L119.869 95.8876C117.604 96.6902 114.766 97.5501 111.269 98.4387L111.241 98.4674Z" fill="url(#paint37_linear_964_6584)"/>
<path fill-rule="evenodd" clip-rule="evenodd" d="M118.292 96.4609L119.095 100.56L120.7 100.044L119.897 95.9163L118.292 96.4609Z" fill="url(#paint38_linear_964_6584)"/>
<path fill-rule="evenodd" clip-rule="evenodd" d="M90.602 104.028C90.602 104.028 90.43 105.806 96.9655 105.318L96.1629 101.191C94.1066 101.464 92.0177 101.357 90 100.875L90.602 104.028Z" fill="url(#paint39_linear_964_6584)"/>
<path fill-rule="evenodd" clip-rule="evenodd" d="M181.412 157.402C181.412 157.574 181.268 157.774 181.24 157.946C181.253 158.185 181.253 158.424 181.24 158.663C181.175 158.84 181.099 159.013 181.01 159.179C181.027 159.36 181.027 159.542 181.01 159.724C181.01 159.953 180.781 160.125 180.695 160.326C180.695 160.326 180.695 160.584 180.695 160.698C180.565 160.839 180.45 160.993 180.351 161.157C180.351 161.3 180.179 161.444 180.064 161.587C180.064 161.587 179.806 161.788 179.72 161.902C179.72 161.902 179.577 162.16 179.462 162.246C179.336 162.351 179.202 162.447 179.061 162.533C178.889 162.533 178.775 162.819 178.603 162.934L178.144 163.135C177.943 163.135 177.886 163.335 177.714 163.421C177.507 163.483 177.296 163.531 177.083 163.565C176.928 163.649 176.765 163.716 176.596 163.765C176.424 163.779 176.252 163.779 176.08 163.765L175.507 163.909H174.819L173.959 164.052H172.153H171.58H171.264C171.15 164.038 171.035 164.038 170.92 164.052H170.175L169.172 164.195H168.57C168.346 164.236 168.126 164.293 167.911 164.367H167.223C167.022 164.429 166.829 164.516 166.649 164.625C166.446 164.66 166.245 164.707 166.047 164.769C165.86 164.873 165.678 164.988 165.503 165.113C165.302 165.113 165.073 165.285 164.844 165.428C164.672 165.571 164.586 165.801 164.414 165.944C164.27 166.116 163.984 166.231 163.84 166.431C163.605 166.759 163.412 167.115 163.267 167.492C163.132 167.777 163.027 168.074 162.952 168.38C162.937 168.657 162.937 168.935 162.952 169.212L164.328 169.412C164.342 169.279 164.342 169.144 164.328 169.011V168.667C164.328 168.466 164.5 168.208 164.557 168.008L164.7 167.75C164.7 167.578 164.987 167.377 165.13 167.148V166.976C165.13 166.804 165.474 166.833 165.789 166.489H165.961C166.254 166.335 166.562 166.21 166.879 166.116C167.27 165.953 167.672 165.818 168.083 165.715C168.398 165.715 168.828 165.715 169.172 165.715L170.06 165.571H170.777H171.408H172.067H172.669H173.271H173.787H174.389H175.077H175.679H176.195C176.433 165.585 176.673 165.585 176.911 165.571L177.513 165.342C177.829 165.267 178.136 165.161 178.431 165.027C178.701 164.888 178.951 164.715 179.176 164.511C179.407 164.408 179.628 164.284 179.835 164.138C180.093 163.909 180.208 163.737 180.437 163.507C180.746 163.213 181.034 162.897 181.297 162.562C181.498 162.218 181.584 162.074 181.756 161.73C181.756 161.53 182.014 161.386 182.128 161.157C182.128 160.956 182.128 160.698 182.358 160.469C182.569 160.044 182.714 159.59 182.788 159.122C182.788 158.692 182.788 158.29 183.046 157.717V156.972H182.128L181.727 157.345C181.712 157.211 181.712 157.077 181.727 156.943H181.584C181.598 157.115 181.598 157.288 181.584 157.459L181.412 157.402Z" fill="url(#paint40_linear_964_6584)"/>
<path fill-rule="evenodd" clip-rule="evenodd" d="M181.412 157.631C181.412 157.946 181.24 158.663 181.182 158.806C181.055 159.065 180.95 159.333 180.867 159.609C180.754 159.919 180.61 160.217 180.437 160.498C180.437 160.784 180.437 160.756 180.236 160.899C180.082 161.101 179.939 161.312 179.806 161.529C179.659 161.706 179.496 161.87 179.319 162.017L178.86 162.504L178.287 162.934L177.571 163.335L177.141 163.536L176.596 163.708C176.367 163.724 176.137 163.724 175.908 163.708C175.747 163.742 175.581 163.742 175.421 163.708C175.212 163.738 174.999 163.738 174.79 163.708C174.466 163.671 174.139 163.671 173.815 163.708H172.726H171.379C171.121 163.708 170.462 163.708 170.003 163.708C169.516 163.708 168.799 163.88 168.312 163.909C167.853 163.909 167.767 164.081 167.395 164.109C167.114 164.104 166.837 164.173 166.592 164.31C166.372 164.412 166.141 164.489 165.904 164.539C165.69 164.56 165.488 164.65 165.331 164.797C165.112 164.939 164.882 165.064 164.643 165.17C164.499 165.17 164.413 165.371 164.299 165.514C164.115 165.705 163.914 165.878 163.697 166.03C163.429 166.274 163.222 166.579 163.095 166.918C163.003 167.182 162.898 167.44 162.78 167.692C162.677 167.94 162.609 168.2 162.579 168.466C162.566 168.638 162.566 168.811 162.579 168.982H163.124C163.092 168.725 163.092 168.465 163.124 168.208C163.258 167.871 163.373 167.527 163.468 167.176C163.468 167.004 163.468 166.832 163.926 166.489C164.169 166.293 164.39 166.072 164.586 165.829C164.73 165.602 164.955 165.438 165.216 165.371C165.569 165.25 165.914 165.106 166.248 164.941C166.636 164.765 167.055 164.668 167.481 164.654C168.541 164.654 168.197 164.253 168.971 164.31C169.16 164.348 169.355 164.348 169.544 164.31C169.544 164.31 169.716 164.31 170.003 164.31C170.108 164.333 170.216 164.331 170.32 164.307C170.425 164.282 170.522 164.234 170.605 164.167C170.736 164.107 170.877 164.076 171.021 164.076C171.164 164.076 171.306 164.107 171.436 164.167C171.73 164.288 172.06 164.288 172.354 164.167C172.606 164.094 172.875 164.094 173.128 164.167C173.422 164.213 173.722 164.213 174.016 164.167C174.367 164.11 174.725 164.11 175.077 164.167C175.185 164.205 175.301 164.212 175.413 164.187C175.525 164.161 175.627 164.105 175.707 164.023C175.851 164.023 175.965 163.794 176.195 163.851C176.393 163.901 176.603 163.883 176.79 163.8C176.977 163.717 177.13 163.573 177.227 163.393C177.37 163.192 178.029 163.249 178.23 162.991C178.313 162.896 178.423 162.826 178.545 162.791C178.785 162.727 178.996 162.586 179.147 162.389C179.663 161.816 179.72 161.902 179.921 161.472C180.049 161.238 180.225 161.033 180.437 160.87C180.649 160.687 180.808 160.449 180.896 160.182C181.093 159.675 181.266 159.159 181.412 158.634C181.412 157.918 181.842 157.832 181.784 157.459C181.77 157.297 181.77 157.134 181.784 156.972V156.484H181.354C181.387 156.732 181.387 156.982 181.354 157.23L181.412 157.631Z" fill="url(#paint41_linear_964_6584)"/>
<path fill-rule="evenodd" clip-rule="evenodd" d="M181.412 157.402C181.412 157.574 181.268 157.774 181.24 157.946C181.253 158.185 181.253 158.424 181.24 158.663C181.175 158.84 181.099 159.013 181.01 159.179C181.027 159.36 181.027 159.542 181.01 159.724C181.01 159.953 180.781 160.125 180.695 160.326C180.695 160.326 180.695 160.584 180.695 160.698C180.565 160.839 180.45 160.993 180.351 161.157C180.351 161.3 180.179 161.443 180.064 161.587C180.064 161.587 179.806 161.788 179.72 161.902C179.72 161.902 179.577 162.16 179.462 162.246C179.336 162.351 179.202 162.447 179.061 162.533C178.889 162.533 178.775 162.819 178.603 162.934L178.144 163.135C177.943 163.135 177.886 163.335 177.714 163.421C177.507 163.483 177.296 163.531 177.083 163.565C176.928 163.649 176.765 163.716 176.596 163.765C176.424 163.779 176.252 163.779 176.08 163.765L175.507 163.909H174.819L173.959 164.052H172.153H171.58H171.264C171.15 164.038 171.035 164.038 170.92 164.052H170.175L169.172 164.195H168.57C168.346 164.236 168.126 164.293 167.911 164.367H167.223C167.022 164.429 166.829 164.516 166.649 164.625C166.446 164.66 166.245 164.707 166.047 164.769C165.86 164.873 165.678 164.988 165.503 165.113C165.302 165.113 165.073 165.285 164.844 165.428C164.672 165.571 164.586 165.801 164.414 165.944C164.27 166.116 163.984 166.23 163.84 166.431C163.605 166.759 163.412 167.115 163.267 167.492C163.132 167.777 163.027 168.074 162.952 168.38C162.937 168.657 162.937 168.935 162.952 169.212C162.949 168.944 163.011 168.68 163.13 168.441C163.25 168.202 163.424 167.994 163.64 167.836C163.95 167.642 164.306 167.533 164.672 167.52C164.525 167.943 164.243 168.306 163.869 168.552C163.542 168.727 163.242 168.949 162.98 169.212H163.21C163.452 168.846 163.819 168.581 164.242 168.466C164.201 168.765 164.114 169.055 163.984 169.326H164.27C164.285 169.193 164.285 169.058 164.27 168.925V168.581C164.27 168.38 164.442 168.122 164.5 167.922L164.643 167.664C164.643 167.492 164.93 167.291 165.073 167.062V166.89C165.073 166.718 165.417 166.747 165.732 166.403H165.904C166.197 166.249 166.504 166.124 166.821 166.03C167.212 165.867 167.615 165.732 168.025 165.629C168.341 165.629 168.771 165.629 169.115 165.629L170.003 165.485H170.72H171.35H172.01H172.612H173.214H173.73H174.332H175.019H175.621H176.137C176.376 165.499 176.615 165.499 176.854 165.485L177.456 165.256C177.771 165.181 178.079 165.075 178.373 164.941C178.643 164.802 178.894 164.629 179.118 164.425C179.35 164.322 179.571 164.198 179.778 164.052C180.036 163.823 180.15 163.651 180.38 163.421C180.689 163.127 180.976 162.811 181.24 162.475C181.44 162.132 181.526 161.988 181.698 161.644C181.698 161.444 181.956 161.3 182.071 161.071C182.071 160.87 182.071 160.612 182.3 160.383C182.512 159.958 182.657 159.504 182.73 159.036C182.73 158.606 182.73 158.204 182.988 157.631V156.972H182.845C182.806 157.167 182.728 157.351 182.615 157.514C182.501 157.677 182.355 157.814 182.186 157.918C181.927 158.064 181.678 158.226 181.44 158.405C181.521 157.828 181.806 157.3 182.243 156.915H182.071L181.67 157.287C181.654 157.154 181.654 157.019 181.67 156.886H181.526C181.541 157.058 181.541 157.23 181.526 157.402H181.412ZM181.67 158.376C182.001 158.15 182.308 157.891 182.587 157.602C182.62 157.869 182.581 158.139 182.475 158.386C182.37 158.633 182.2 158.847 181.985 159.007C181.641 159.236 181.24 159.351 180.924 159.58C181.036 159.109 181.297 158.686 181.67 158.376ZM182.358 158.921C182.349 159.191 182.267 159.454 182.121 159.681C181.974 159.908 181.769 160.092 181.526 160.211C181.125 160.412 180.724 160.44 180.466 160.584C180.643 160.154 180.942 159.785 181.326 159.523L182.358 158.921ZM181.928 160.096C181.906 160.364 181.808 160.619 181.645 160.832C181.482 161.046 181.262 161.208 181.01 161.3C180.609 161.444 180.179 161.3 179.835 161.53C180.066 161.109 180.428 160.777 180.867 160.584C181.243 160.475 181.6 160.311 181.928 160.096ZM181.354 161.272C181.299 161.534 181.165 161.773 180.971 161.958C180.776 162.142 180.53 162.263 180.265 162.303H179.061C179.37 161.938 179.778 161.669 180.236 161.53C180.622 161.478 180.999 161.372 181.354 161.214V161.272ZM180.666 162.418C180.535 162.659 180.339 162.858 180.102 162.995C179.864 163.131 179.593 163.199 179.319 163.192C178.889 163.192 178.545 163.02 178.23 163.02C178.599 162.719 179.047 162.53 179.52 162.475C179.921 162.475 180.294 162.475 180.666 162.475V162.418ZM178.287 163.88C177.886 163.88 177.571 163.593 177.255 163.536C177.689 163.313 178.172 163.205 178.66 163.221L179.778 163.364C179.63 163.532 179.45 163.666 179.248 163.76C179.045 163.854 178.826 163.905 178.603 163.909H178.287V163.88ZM177.227 164.396C176.888 164.186 176.534 164.004 176.166 163.851C176.645 163.725 177.149 163.725 177.628 163.851C178.001 163.851 178.373 164.109 178.775 164.167C178.479 164.398 178.118 164.529 177.743 164.539C177.572 164.572 177.397 164.572 177.227 164.539V164.396ZM176.023 164.683C175.65 164.453 175.392 164.167 175.077 164.023C175.568 163.943 176.072 163.993 176.539 164.167C176.911 164.31 177.227 164.568 177.599 164.711C177.349 164.836 177.076 164.904 176.797 164.912C176.523 164.905 176.256 164.826 176.023 164.683ZM174.905 164.883C174.532 164.654 174.274 164.339 173.902 164.138C175.277 163.995 175.65 164.654 176.395 165.055C176.186 165.078 175.974 165.078 175.765 165.055C175.454 165.062 175.15 164.961 174.905 164.769V164.883ZM172.698 164.224C174.102 164.224 174.475 164.797 175.163 165.256H174.647C173.672 165.256 173.328 164.482 172.698 164.167V164.224ZM171.522 164.224C172.927 164.224 173.271 164.826 173.959 165.313H173.5C172.497 165.313 172.182 164.539 171.522 164.195V164.224ZM170.29 164.224C171.723 164.224 172.096 164.826 172.726 165.313H172.268C171.236 165.313 170.92 164.539 170.232 164.195L170.29 164.224ZM169.057 164.224C170.49 164.023 170.892 164.769 171.522 165.256H171.092C170.089 165.256 169.774 164.482 169.057 164.167V164.224ZM169.057 165.113C168.729 164.817 168.336 164.601 167.911 164.482C168.14 164.359 168.396 164.295 168.656 164.295C168.916 164.295 169.172 164.359 169.401 164.482C169.802 164.683 170.118 165.027 170.433 165.199C170.253 165.233 170.068 165.233 169.888 165.199C169.589 165.187 169.3 165.087 169.057 164.912V165.113ZM167.481 165.113C167.194 164.969 166.821 164.941 166.764 164.74C167.251 164.541 167.796 164.541 168.283 164.74C168.624 164.946 168.95 165.176 169.258 165.428C169.068 165.464 168.874 165.464 168.685 165.428C168.242 165.377 167.823 165.197 167.481 164.912V165.113ZM166.248 165.485C165.961 165.485 165.617 165.485 165.56 165.199C165.808 165.089 166.077 165.032 166.348 165.032C166.62 165.032 166.888 165.089 167.137 165.199C167.472 165.366 167.789 165.568 168.083 165.801C167.876 165.897 167.651 165.946 167.423 165.944C167.015 165.896 166.618 165.78 166.248 165.6V165.485ZM165.847 165.485C166.239 165.61 166.623 165.764 166.993 165.944C166.806 166.082 166.589 166.172 166.359 166.207C166.129 166.242 165.894 166.221 165.675 166.145C165.27 165.985 164.819 165.985 164.414 166.145C164.575 165.925 164.795 165.755 165.048 165.653C165.302 165.552 165.578 165.524 165.847 165.571V165.485ZM163.496 166.918C163.642 166.682 163.844 166.485 164.084 166.345C164.324 166.205 164.595 166.126 164.872 166.116C165.249 166.15 165.617 166.247 165.961 166.403C165.735 166.635 165.426 166.769 165.101 166.775C164.987 166.79 164.872 166.79 164.758 166.775H164.299C164.041 166.775 163.783 166.947 163.611 166.947L163.496 166.918ZM165.073 166.918C164.842 167.301 164.472 167.578 164.041 167.692C163.618 167.758 163.232 167.971 162.952 168.294C162.965 168.014 163.058 167.743 163.221 167.515C163.383 167.286 163.608 167.109 163.869 167.004C164.173 166.963 164.482 166.963 164.786 167.004H165.073V166.918Z" fill="url(#paint42_linear_964_6584)"/>
<path fill-rule="evenodd" clip-rule="evenodd" d="M172.612 151.87C172.612 151.87 171.264 155.997 177.914 162.017C184.565 168.036 188.148 166.116 188.148 166.116L200.13 151.784L184.077 137.308L172.612 151.87Z" fill="#172164"/>
<path fill-rule="evenodd" clip-rule="evenodd" d="M172.611 151.87C172.611 151.87 171.522 155.682 178.172 161.673C184.822 167.692 188.262 165.973 188.262 165.973L218.016 131.575L200.817 115.982L172.611 151.87Z" fill="url(#paint43_linear_964_6584)"/>
<path fill-rule="evenodd" clip-rule="evenodd" d="M184.421 165.715L183.562 165.371L214.548 128.307L215.207 128.909L184.421 165.715Z" fill="white"/>
<path fill-rule="evenodd" clip-rule="evenodd" d="M172.611 151.87C172.611 151.87 171.522 155.682 178.172 161.673C178.745 162.189 179.261 162.619 179.777 163.02C177.886 146.28 197.865 122.89 202.222 117.157L200.703 115.781L172.611 151.87Z" fill="url(#paint44_linear_964_6584)"/>
<path fill-rule="evenodd" clip-rule="evenodd" d="M200.33 116.354C203.651 123.789 208.035 130.703 213.344 136.878L217.787 131.718L217.615 131.518L216.296 129.912L200.703 115.867L200.33 116.354ZM191.731 127.533L195.973 122.087C199.311 129.34 203.642 136.094 208.843 142.152L204.372 147.312C199.251 141.303 194.996 134.607 191.731 127.419V127.533ZM183.131 138.713C186.327 145.661 190.454 152.141 195.4 157.975L199.843 152.815C194.833 146.884 190.64 140.309 187.374 133.266L183.131 138.713ZM174.532 149.863L178.774 144.445C181.97 151.258 186.036 157.627 190.871 163.393L188.635 165.973C187.854 166.213 187.03 166.284 186.219 166.18C185.408 166.076 184.629 165.8 183.934 165.371C180.063 160.614 176.781 155.407 174.159 149.863H174.532Z" fill="url(#paint45_linear_964_6584)"/>
<path fill-rule="evenodd" clip-rule="evenodd" d="M200.473 116.153C203.8 123.595 208.183 130.517 213.487 136.706L217.959 131.518L217.787 131.346L217.471 130.973L200.702 115.867L200.473 116.153ZM191.874 127.333L196.087 121.886C199.432 129.18 203.763 135.98 208.958 142.095L204.515 147.255C199.379 141.246 195.122 134.539 191.874 127.333ZM183.131 138.512C186.332 145.473 190.469 151.963 195.428 157.803L199.871 152.643C194.841 146.722 190.637 140.145 187.373 133.094L183.131 138.512ZM174.532 149.691L178.745 144.245C181.952 151.057 186.028 157.426 190.871 163.192L188.463 166.059C187.764 166.275 187.03 166.352 186.301 166.283C185.573 166.214 184.866 166.001 184.22 165.657C180.286 160.757 176.965 155.396 174.331 149.691H174.532Z" fill="url(#paint46_linear_964_6584)"/>
<path fill-rule="evenodd" clip-rule="evenodd" d="M188.635 136.075C188.119 135.072 187.66 134.069 187.259 133.209L183.016 138.627C183.59 140.002 184.249 141.493 184.937 142.726C186.084 140.49 187.316 138.283 188.635 136.19V136.075ZM196.919 124.065C196.575 123.348 196.259 122.632 195.973 121.886L193.479 125.126L191.759 127.333C192.065 128.135 192.409 128.938 192.791 129.74C194.224 127.677 195.658 125.756 196.919 124.008V124.065ZM181.612 150.35C180.47 148.377 179.446 146.339 178.545 144.245L174.331 149.691C175.816 153.115 177.61 156.396 179.691 159.494C179.917 156.374 180.563 153.298 181.612 150.35ZM200.702 115.953L200.473 116.239C200.76 116.956 201.046 117.701 201.39 118.418L202.222 117.329L200.702 115.953Z" fill="#212D74"/>
<path fill-rule="evenodd" clip-rule="evenodd" d="M208.327 130.027C209.359 131.46 210.305 132.722 211.194 133.782L215.264 128.938L211.882 125.871L208.385 130.027H208.327ZM190.412 151.411C191.415 152.844 192.361 154.105 193.279 155.166L197.664 149.949C196.862 148.888 195.916 147.599 194.798 146.165L190.412 151.411ZM199.384 140.719C200.387 142.152 201.333 143.414 202.251 144.474L206.636 139.257C205.834 138.197 204.859 136.935 203.77 135.502L199.384 140.719ZM181.469 162.074C182.357 163.364 183.217 164.539 184.02 165.571L184.364 165.715L188.606 160.641C187.804 159.58 186.858 158.29 185.74 156.857L181.469 162.074Z" fill="#59C9E6"/>
<path fill-rule="evenodd" clip-rule="evenodd" d="M210.563 133.066L211.137 133.782L215.207 128.938L214.548 128.336L210.563 133.066ZM192.677 154.478L193.193 155.166L197.578 149.949L197.062 149.232L192.677 154.478ZM183.733 165.17L184.049 165.571L184.393 165.715L188.635 160.641L188.119 159.953L183.733 165.17ZM201.649 143.786L202.193 144.474L206.579 139.257C206.407 139.028 206.235 138.77 206.034 138.541L201.649 143.786Z" fill="#6BCBDC"/>
<path fill-rule="evenodd" clip-rule="evenodd" d="M173.328 186.668L214.605 136.907C215.637 135.674 215.981 134.212 215.35 133.639C214.72 133.066 213.401 133.639 212.484 134.872L169.487 186.468L173.328 186.668Z" fill="white"/>
<path fill-rule="evenodd" clip-rule="evenodd" d="M173.328 186.668L214.605 136.907C215.637 135.674 215.981 134.212 215.35 133.639C214.72 133.066 213.401 133.639 212.484 134.872L169.487 186.468L173.328 186.668Z" fill="white"/>
<path fill-rule="evenodd" clip-rule="evenodd" d="M215.264 133.754C215.337 133.817 215.396 133.895 215.436 133.983C214.748 133.668 213.602 134.241 212.57 135.33L169.888 186.668H169.401L212.398 135.072C213.401 133.725 214.748 133.18 215.264 133.754Z" fill="#D0CDCD"/>
<path fill-rule="evenodd" clip-rule="evenodd" d="M172.611 186.668L214.204 136.649C214.612 136.269 214.911 135.787 215.072 135.253C215.234 134.719 215.25 134.153 215.121 133.61H215.35C215.981 134.184 215.637 135.645 214.605 136.878L173.328 186.525L172.611 186.668Z" fill="#D0CDCD"/>
<path fill-rule="evenodd" clip-rule="evenodd" d="M212.398 134.986L210.621 137.107L211.71 140.547L214.118 137.681L213.057 134.355C212.81 134.546 212.588 134.767 212.398 135.015V134.986ZM173.529 186.582L174.417 185.493L173.328 182.082L170.92 184.949L169.43 186.754C169.272 186.902 169.147 187.081 169.064 187.28C168.981 187.48 168.941 187.695 168.947 187.911C168.954 188.126 169.006 188.339 169.101 188.533C169.196 188.727 169.331 188.898 169.498 189.036C169.664 189.174 169.858 189.274 170.066 189.331C170.275 189.388 170.493 189.4 170.706 189.365C170.92 189.331 171.123 189.252 171.303 189.133C171.484 189.014 171.636 188.858 171.752 188.675L173.357 186.754L173.529 186.554V186.582ZM205.662 143.213L206.751 146.624L209.159 143.758L208.07 140.318L205.662 143.184V143.213ZM200.674 149.175L201.792 152.586L204.2 149.72L203.111 146.309L200.674 149.175ZM195.715 155.137L196.833 158.548L199.241 155.682L198.152 152.271L195.715 155.137ZM190.756 161.1L191.874 164.511L194.282 161.644L193.164 158.233L190.756 161.1ZM185.797 167.062L186.915 170.502L189.323 167.635L188.205 164.224L185.797 167.09V167.062ZM180.867 172.938L181.956 176.349L184.393 173.483L183.275 170.043L180.867 172.909V172.938ZM175.908 178.9L176.997 182.311L179.405 179.445L178.316 176.005L175.908 178.9Z" fill="url(#paint47_linear_964_6584)"/>
<path fill-rule="evenodd" clip-rule="evenodd" d="M215.264 133.754C215.337 133.817 215.396 133.895 215.436 133.983C214.748 133.668 213.602 134.241 212.57 135.33L169.86 186.668H169.401L212.398 135.072C213.401 133.725 214.748 133.18 215.264 133.754Z" fill="#D0CDCD"/>
<path fill-rule="evenodd" clip-rule="evenodd" d="M193.164 158.09L190.756 160.956L190.928 161.472L193.336 158.606L193.164 158.004V158.09ZM212.369 134.986L211.108 136.505L210.592 137.107L210.793 137.738L212.771 135.33L213.201 134.871L213.029 134.327L212.857 134.528L212.369 134.986ZM173.3 181.967L170.892 184.834L169.401 186.64C169.263 186.805 169.161 186.998 169.102 187.205C169.043 187.413 169.028 187.63 169.057 187.844L173.5 182.541L173.3 181.939V181.967ZM205.777 143.557V143.7L208.213 140.834L208.041 140.346V140.203L207.124 141.321L205.633 143.127L205.777 143.585V143.557ZM200.646 149.06L200.789 149.576L203.197 146.71V146.452V146.108L202.251 147.226L200.76 149.003L200.646 149.06ZM198.123 152.128L196.403 154.163L195.687 155.023L195.887 155.625L198.295 152.758L198.123 152.156V152.128ZM185.769 166.947L185.941 167.52L188.348 164.654L188.148 164.052L185.74 166.918L185.769 166.947ZM183.275 170.186V170.014L180.867 172.881L181.068 173.483L183.476 170.616V170.158L183.275 170.186ZM175.879 178.986L176.051 179.502L178.459 176.636V176.206V176.005L176.051 178.872L175.879 178.986Z" fill="#51100D"/>
<path fill-rule="evenodd" clip-rule="evenodd" d="M204.171 149.576L203.971 148.946L201.563 151.812L201.763 152.414L204.171 149.548V149.576ZM211.624 140.404L213.688 137.91L214.032 137.509L213.831 136.878L211.424 139.744V140.232L211.624 140.404ZM174.274 185.636L174.074 185.006L170.433 189.392C170.829 189.392 171.21 189.238 171.494 188.962L174.16 185.78L174.274 185.636ZM206.665 146.509L208.93 143.643L209.073 143.499V143.327L208.93 142.869L206.522 145.735L206.723 146.366L206.665 146.509ZM196.747 158.434L199.155 155.567L198.954 154.965L196.547 157.832L196.747 158.434ZM191.989 164.167L194.196 161.501L193.995 160.899L191.588 163.765L191.788 164.367L191.989 164.138V164.167ZM186.6 169.756L186.772 170.301L188.549 168.151L189.18 167.377L188.979 166.775L186.571 169.642L186.6 169.756ZM181.612 175.719L181.784 176.234L183.934 173.655L184.221 173.339L184.02 172.709L181.584 175.575L181.612 175.719ZM176.653 181.681L176.854 182.311L179.262 179.445V179.273L179.118 178.814L176.653 181.681Z" fill="#C51F25"/>
<path fill-rule="evenodd" clip-rule="evenodd" d="M204.171 149.576L203.971 148.946L201.563 151.812L201.763 152.414L204.171 149.548V149.576ZM211.624 140.404L213.688 137.91L214.032 137.509L213.831 136.878L211.424 139.744V140.232L211.624 140.404ZM174.274 185.636L174.074 185.006L170.433 189.392C170.829 189.392 171.21 189.238 171.494 188.962L174.16 185.78L174.274 185.636ZM206.665 146.509L208.93 143.643L209.073 143.499V143.327L208.93 142.869L206.522 145.735L206.723 146.366L206.665 146.509ZM196.747 158.434L199.155 155.567L198.954 154.965L196.547 157.832L196.747 158.434ZM191.989 164.167L194.196 161.501L193.995 160.899L191.588 163.765L191.788 164.367L191.989 164.138V164.167ZM186.6 169.756L186.772 170.301L188.549 168.151L189.18 167.377L188.979 166.775L186.571 169.642L186.6 169.756ZM181.612 175.719L181.784 176.234L183.934 173.655L184.221 173.339L184.02 172.709L181.584 175.575L181.612 175.719ZM176.653 181.681L176.854 182.311L179.262 179.445V179.273L179.118 178.814L176.653 181.681Z" fill="#C51F25"/>
<path fill-rule="evenodd" clip-rule="evenodd" d="M227.562 101.878C227.261 101.94 226.971 102.046 226.702 102.194L196.26 117.071C196.919 118.848 199.126 122.259 206.006 128.537C212.513 134.413 215.866 136.133 217.472 136.505L227.476 103.054C227.476 103.054 227.791 102.136 227.476 101.993C227.476 101.993 227.59 101.878 227.562 101.878Z" fill="url(#paint48_linear_964_6584)"/>
<path fill-rule="evenodd" clip-rule="evenodd" d="M227.218 102.308L206.665 129.167C208.729 131.002 210.477 132.378 211.911 133.438L227.676 102.509C227.676 102.509 227.39 102.738 227.246 102.939L227.218 102.308Z" fill="url(#paint49_linear_964_6584)"/>
<path fill-rule="evenodd" clip-rule="evenodd" d="M210.993 132.693L211.394 133.008L211.968 133.438L227.619 102.48C227.619 102.251 227.619 101.993 227.619 101.936L210.993 132.693Z" fill="url(#paint50_linear_964_6584)"/>
<path fill-rule="evenodd" clip-rule="evenodd" d="M227.562 101.878H227.304H226.73L196.289 116.755C196.883 118.164 197.696 119.47 198.696 120.625L227.619 101.563L227.562 101.878Z" fill="url(#paint51_linear_964_6584)"/>
<path fill-rule="evenodd" clip-rule="evenodd" d="M196.289 116.526C196.257 116.513 196.223 116.506 196.188 116.506C196.154 116.506 196.12 116.513 196.088 116.526C196.088 116.526 196.088 116.784 196.26 116.956C197.034 118.819 199.384 122.23 206.006 128.193C212.312 133.925 215.666 135.731 217.472 136.219C217.672 136.219 217.902 136.362 217.959 136.219C217.959 136.219 217.758 135.588 217.644 135.531C213.49 133.563 209.693 130.919 206.407 127.705C202.537 124.629 199.263 120.869 196.747 116.612C196.747 116.612 196.518 116.526 196.289 116.526Z" fill="url(#paint52_linear_964_6584)"/>
<path fill-rule="evenodd" clip-rule="evenodd" d="M194.568 118.504C194.568 118.504 192.16 120.138 204.028 130.83C214.748 140.461 216.095 138.77 216.095 138.77L217.987 136.448C216.353 136.19 213.028 134.527 206.12 128.307C198.839 121.743 196.718 118.275 196.174 116.555L194.568 118.504Z" fill="url(#paint53_linear_964_6584)"/>
<path fill-rule="evenodd" clip-rule="evenodd" d="M204.859 131.546C206.98 133.438 208.729 134.843 210.133 135.903L212.226 133.352C210.764 132.292 209.015 130.858 206.923 129.024L204.859 131.546Z" fill="url(#paint54_linear_964_6584)"/>
<path fill-rule="evenodd" clip-rule="evenodd" d="M209.102 135.129L210.133 135.903L212.226 133.352L211.194 132.578L209.102 135.129Z" fill="url(#paint55_linear_964_6584)"/>
<path fill-rule="evenodd" clip-rule="evenodd" d="M194.569 118.504C194.569 118.504 193.422 119.278 196.575 123.234L198.696 120.682C197.631 119.457 196.778 118.062 196.174 116.555L194.569 118.504Z" fill="url(#paint56_linear_964_6584)"/>
</g>
<defs>
<filter id="filter0_d_964_6584" x="86" y="23" width="145.705" height="175" filterUnits="userSpaceOnUse" color-interpolation-filters="sRGB">
<feFlood flood-opacity="0" result="BackgroundImageFix"/>
<feColorMatrix in="SourceAlpha" type="matrix" values="0 0 0 0 0 0 0 0 0 0 0 0 0 0 0 0 0 0 127 0" result="hardAlpha"/>
<feOffset dy="2"/>
<feGaussianBlur stdDeviation="2"/>
<feComposite in2="hardAlpha" operator="out"/>
<feColorMatrix type="matrix" values="0 0 0 0 0 0 0 0 0 0 0 0 0 0 0 0 0 0 0.25 0"/>
<feBlend mode="normal" in2="BackgroundImageFix" result="effect1_dropShadow_964_6584"/>
<feBlend mode="normal" in="SourceGraphic" in2="effect1_dropShadow_964_6584" result="shape"/>
</filter>
<linearGradient id="paint0_linear_964_6584" x1="144.033" y1="153.245" x2="156.874" y2="131.202" gradientUnits="userSpaceOnUse">
<stop stop-color="#EE3526"/>
<stop offset="0.64" stop-color="#FDFAD9"/>
<stop offset="1" stop-color="#FDFAD9"/>
</linearGradient>
<linearGradient id="paint1_linear_964_6584" x1="144.835" y1="155.453" x2="149.164" y2="143.328" gradientUnits="userSpaceOnUse">
<stop stop-color="#EE3627"/>
<stop offset="0.11" stop-color="#E0594F"/>
<stop offset="0.22" stop-color="#D47771"/>
<stop offset="0.33" stop-color="#CA908C"/>
<stop offset="0.46" stop-color="#C2A3A2"/>
<stop offset="0.6" stop-color="#BDB1B1"/>
<stop offset="0.76" stop-color="#BAB9BA"/>
<stop offset="1" stop-color="#B9BBBD"/>
</linearGradient>
<linearGradient id="paint2_linear_964_6584" x1="155.986" y1="135.846" x2="145.753" y2="143.758" gradientUnits="userSpaceOnUse">
<stop stop-color="#EE3526"/>
<stop offset="0.12" stop-color="#D15047"/>
<stop offset="0.25" stop-color="#B96862"/>
<stop offset="0.39" stop-color="#A67978"/>
<stop offset="0.55" stop-color="#988687"/>
<stop offset="0.73" stop-color="#908E90"/>
<stop offset="1" stop-color="#8E9093"/>
</linearGradient>
<linearGradient id="paint3_linear_964_6584" x1="140.966" y1="118.246" x2="174.217" y2="118.246" gradientUnits="userSpaceOnUse">
<stop stop-color="#1E090B"/>
<stop offset="0.16" stop-color="#350C0F"/>
<stop offset="0.51" stop-color="#711318"/>
<stop offset="1" stop-color="#D11F26"/>
</linearGradient>
<linearGradient id="paint4_linear_964_6584" x1="168.598" y1="101.019" x2="146.899" y2="97.7221" gradientUnits="userSpaceOnUse">
<stop stop-color="#A55925"/>
<stop offset="0.01" stop-color="#A55925"/>
<stop offset="0.18" stop-color="#F9F188"/>
<stop offset="0.34" stop-color="white"/>
<stop offset="0.51" stop-color="#FDE900"/>
<stop offset="0.96" stop-color="#A56326"/>
<stop offset="1" stop-color="#A56326"/>
</linearGradient>
<linearGradient id="paint5_linear_964_6584" x1="150.425" y1="98.2381" x2="166.219" y2="100.703" gradientUnits="userSpaceOnUse">
<stop stop-color="#B87E2B"/>
<stop offset="0.96" stop-color="#FDF49B"/>
<stop offset="1" stop-color="#FDF49B"/>
</linearGradient>
<linearGradient id="paint6_linear_964_6584" x1="167.566" y1="131.632" x2="154.61" y2="62.092" gradientUnits="userSpaceOnUse">
<stop stop-color="#1E090B"/>
<stop offset="0.16" stop-color="#350C0F"/>
<stop offset="0.51" stop-color="#711318"/>
<stop offset="1" stop-color="#D11F26"/>
</linearGradient>
<linearGradient id="paint7_linear_964_6584" x1="152.89" y1="111.567" x2="169.315" y2="74.1885" gradientUnits="userSpaceOnUse">
<stop stop-color="#1E090B"/>
<stop offset="0.16" stop-color="#350C0F"/>
<stop offset="0.51" stop-color="#711318"/>
<stop offset="1" stop-color="#D11F26"/>
</linearGradient>
<linearGradient id="paint8_linear_964_6584" x1="140.679" y1="117.042" x2="164.356" y2="72.4399" gradientUnits="userSpaceOnUse">
<stop stop-color="#1E090B"/>
<stop offset="0.16" stop-color="#350C0F"/>
<stop offset="0.51" stop-color="#711318"/>
<stop offset="1" stop-color="#D11F26"/>
</linearGradient>
<linearGradient id="paint9_linear_964_6584" x1="153.062" y1="127.103" x2="182.329" y2="71.9526" gradientUnits="userSpaceOnUse">
<stop stop-color="#FEEAE5"/>
<stop offset="0.01" stop-color="#FEEAE5"/>
<stop offset="1" stop-color="#EE2A24"/>
</linearGradient>
<linearGradient id="paint10_linear_964_6584" x1="154.725" y1="129.311" x2="184.88" y2="72.4399" gradientUnits="userSpaceOnUse">
<stop stop-color="#1E090B"/>
<stop offset="0.02" stop-color="#450F10"/>
<stop offset="0.03" stop-color="#681514"/>
<stop offset="0.05" stop-color="#891A18"/>
<stop offset="0.07" stop-color="#A51E1B"/>
<stop offset="0.1" stop-color="#BC221E"/>
<stop offset="0.13" stop-color="#CF2520"/>
<stop offset="0.17" stop-color="#DD2722"/>
<stop offset="0.22" stop-color="#E72923"/>
<stop offset="0.31" stop-color="#ED2A24"/>
<stop offset="1" stop-color="#EE2A24"/>
</linearGradient>
<linearGradient id="paint11_linear_964_6584" x1="168.082" y1="199.252" x2="160.286" y2="183.917" gradientUnits="userSpaceOnUse">
<stop stop-color="#811517"/>
<stop offset="0.24" stop-color="#ED1C24"/>
<stop offset="0.36" stop-color="#ED1C24"/>
<stop offset="0.54" stop-color="#DF1E26"/>
<stop offset="0.96" stop-color="#4F110D"/>
<stop offset="1" stop-color="#4F110D"/>
</linearGradient>
<linearGradient id="paint12_linear_964_6584" x1="195.113" y1="258.731" x2="162.493" y2="80.6093" gradientUnits="userSpaceOnUse">
<stop stop-color="#811517"/>
<stop offset="0.24" stop-color="#ED1C24"/>
<stop offset="0.36" stop-color="#ED1C24"/>
<stop offset="0.54" stop-color="#DF1E26"/>
<stop offset="0.96" stop-color="#4F110D"/>
<stop offset="1" stop-color="#4F110D"/>
</linearGradient>
<linearGradient id="paint13_linear_964_6584" x1="187.03" y1="52.3747" x2="152.088" y2="46.9857" gradientUnits="userSpaceOnUse">
<stop stop-color="#EF3E23"/>
<stop offset="0.39" stop-color="#FCB316"/>
<stop offset="0.83" stop-color="#EF3E23"/>
<stop offset="1" stop-color="#EF3E23"/>
</linearGradient>
<linearGradient id="paint14_linear_964_6584" x1="175.564" y1="50.1388" x2="166.42" y2="49.6802" gradientUnits="userSpaceOnUse">
<stop stop-color="#FDCE07"/>
<stop offset="0.28" stop-color="#FDC909"/>
<stop offset="0.6" stop-color="#FBBC0F"/>
<stop offset="0.94" stop-color="#F9A519"/>
<stop offset="1" stop-color="#F9A01B"/>
</linearGradient>
<linearGradient id="paint15_linear_964_6584" x1="172.181" y1="50.0529" x2="171.981" y2="50.0529" gradientUnits="userSpaceOnUse">
<stop stop-color="white"/>
<stop offset="0.29" stop-color="white"/>
<stop offset="1" stop-color="#F7EC00"/>
</linearGradient>
<linearGradient id="paint16_linear_964_6584" x1="150.597" y1="46.0685" x2="161.346" y2="47.7597" gradientUnits="userSpaceOnUse">
<stop stop-color="#C51F25"/>
<stop offset="0.56" stop-color="#EC5E24"/>
<stop offset="1" stop-color="#F47B20"/>
</linearGradient>
<linearGradient id="paint17_linear_964_6584" x1="184.049" y1="74.3031" x2="142.714" y2="68.1976" gradientUnits="userSpaceOnUse">
<stop stop-color="#EF3E23"/>
<stop offset="0.24" stop-color="#F7EC00"/>
<stop offset="0.53" stop-color="#FAA61A"/>
<stop offset="0.83" stop-color="#C82026"/>
<stop offset="1" stop-color="#C82026"/>
</linearGradient>
<linearGradient id="paint18_linear_964_6584" x1="183.189" y1="76.453" x2="144.205" y2="70.9207" gradientUnits="userSpaceOnUse">
<stop stop-color="#EF3824"/>
<stop offset="0.39" stop-color="#FEBC11"/>
<stop offset="1" stop-color="#EF3E23"/>
</linearGradient>
<linearGradient id="paint19_linear_964_6584" x1="165.76" y1="75.765" x2="173.901" y2="77.0262" gradientUnits="userSpaceOnUse">
<stop stop-color="#FBAD18"/>
<stop offset="0.17" stop-color="#FABE12"/>
<stop offset="0.49" stop-color="#FAD708"/>
<stop offset="0.77" stop-color="#F9E702"/>
<stop offset="1" stop-color="#F9EC00"/>
</linearGradient>
<linearGradient id="paint20_linear_964_6584" x1="174.36" y1="77.0262" x2="173.185" y2="76.8543" gradientUnits="userSpaceOnUse">
<stop stop-color="white"/>
<stop offset="0.08" stop-color="white"/>
<stop offset="0.93" stop-color="#F9EC00"/>
<stop offset="1" stop-color="#F9EC00"/>
</linearGradient>
<linearGradient id="paint21_linear_964_6584" x1="143.402" y1="69.9175" x2="148.074" y2="70.7488" gradientUnits="userSpaceOnUse">
<stop stop-color="#A51C20"/>
<stop offset="1" stop-color="#EA4924"/>
</linearGradient>
<linearGradient id="paint22_linear_964_6584" x1="115.282" y1="172.709" x2="122.907" y2="149.261" gradientUnits="userSpaceOnUse">
<stop stop-color="#EE3526"/>
<stop offset="0.64" stop-color="#FDFAD9"/>
<stop offset="1" stop-color="#FDFAD9"/>
</linearGradient>
<linearGradient id="paint23_linear_964_6584" x1="112.76" y1="173.425" x2="118.693" y2="162.533" gradientUnits="userSpaceOnUse">
<stop stop-color="#EE3627"/>
<stop offset="0.11" stop-color="#E0594F"/>
<stop offset="0.22" stop-color="#D47771"/>
<stop offset="0.33" stop-color="#CA908C"/>
<stop offset="0.46" stop-color="#C2A3A2"/>
<stop offset="0.6" stop-color="#BDB1B1"/>
<stop offset="0.76" stop-color="#BAB9BA"/>
<stop offset="1" stop-color="#B9BBBD"/>
</linearGradient>
<linearGradient id="paint24_linear_964_6584" x1="124.77" y1="160.182" x2="117.575" y2="160.928" gradientUnits="userSpaceOnUse">
<stop stop-color="#EE3526"/>
<stop offset="0.12" stop-color="#D15047"/>
<stop offset="0.25" stop-color="#B96862"/>
<stop offset="0.39" stop-color="#A67978"/>
<stop offset="0.55" stop-color="#988687"/>
<stop offset="0.73" stop-color="#908E90"/>
<stop offset="1" stop-color="#8E9093"/>
</linearGradient>
<linearGradient id="paint25_linear_964_6584" x1="124.111" y1="120.167" x2="106.626" y2="123.893" gradientUnits="userSpaceOnUse">
<stop stop-color="#A55925"/>
<stop offset="0.01" stop-color="#A55925"/>
<stop offset="0.18" stop-color="#F9F188"/>
<stop offset="0.34" stop-color="white"/>
<stop offset="0.51" stop-color="#FDE900"/>
<stop offset="0.96" stop-color="#A56326"/>
<stop offset="1" stop-color="#A56326"/>
</linearGradient>
<linearGradient id="paint26_linear_964_6584" x1="105.794" y1="124.438" x2="112.502" y2="123.033" gradientUnits="userSpaceOnUse">
<stop stop-color="#B87E2B"/>
<stop offset="0.96" stop-color="#FDF49B"/>
<stop offset="1" stop-color="#FDF49B"/>
</linearGradient>
<linearGradient id="paint27_linear_964_6584" x1="103.988" y1="142.984" x2="123.767" y2="92.4192" gradientUnits="userSpaceOnUse">
<stop stop-color="#1F562B"/>
<stop offset="0.42" stop-color="#1B4423"/>
<stop offset="1" stop-color="#132414"/>
</linearGradient>
<linearGradient id="paint28_linear_964_6584" x1="104.734" y1="141.092" x2="121.531" y2="98.1521" gradientUnits="userSpaceOnUse">
<stop stop-color="#22562B"/>
<stop offset="0.31" stop-color="#5BBA47"/>
<stop offset="0.55" stop-color="#009E4A"/>
<stop offset="1" stop-color="#1A371A"/>
</linearGradient>
<linearGradient id="paint29_linear_964_6584" x1="89.7423" y1="164.568" x2="111.011" y2="109.962" gradientUnits="userSpaceOnUse">
<stop stop-color="#009E4A"/>
<stop offset="0.11" stop-color="#009E4A"/>
<stop offset="0.97" stop-color="#132414"/>
<stop offset="1" stop-color="#1A371A"/>
</linearGradient>
<linearGradient id="paint30_linear_964_6584" x1="96.4495" y1="233.707" x2="144.233" y2="111.08" gradientUnits="userSpaceOnUse">
<stop stop-color="#811517"/>
<stop offset="0.24" stop-color="#ED1C24"/>
<stop offset="0.36" stop-color="#ED1C24"/>
<stop offset="0.54" stop-color="#DF1E26"/>
<stop offset="0.96" stop-color="#4F110D"/>
<stop offset="1" stop-color="#4F110D"/>
</linearGradient>
<linearGradient id="paint31_linear_964_6584" x1="117.031" y1="75.2777" x2="86.4742" y2="81.9279" gradientUnits="userSpaceOnUse">
<stop stop-color="#2C0E27"/>
<stop offset="0.01" stop-color="#2C0E27"/>
<stop offset="0.39" stop-color="#EA2891"/>
<stop offset="1" stop-color="#3B084D"/>
</linearGradient>
<linearGradient id="paint32_linear_964_6584" x1="109.349" y1="76.7396" x2="106.425" y2="77.7142" gradientUnits="userSpaceOnUse">
<stop stop-color="#D34097"/>
<stop offset="0.68" stop-color="#D34097"/>
<stop offset="1" stop-color="#DB1A8E"/>
</linearGradient>
<linearGradient id="paint33_linear_964_6584" x1="110.123" y1="76.5963" x2="110.008" y2="76.625" gradientUnits="userSpaceOnUse">
<stop stop-color="white"/>
<stop offset="0.29" stop-color="white"/>
<stop offset="1" stop-color="#E9ADCF"/>
</linearGradient>
<linearGradient id="paint34_linear_964_6584" x1="86.4455" y1="81.6699" x2="104.533" y2="77.7142" gradientUnits="userSpaceOnUse">
<stop stop-color="#3B084D"/>
<stop offset="0.52" stop-color="#71226B"/>
<stop offset="1" stop-color="#B61D8A"/>
</linearGradient>
<linearGradient id="paint35_linear_964_6584" x1="127.952" y1="93.3364" x2="90.344" y2="101.391" gradientUnits="userSpaceOnUse">
<stop stop-color="#2C0E27"/>
<stop offset="0.01" stop-color="#2C0E27"/>
<stop offset="0.1" stop-color="#AE1F7C"/>
<stop offset="0.24" stop-color="#DB7EB3"/>
<stop offset="0.45" stop-color="#EA2891"/>
<stop offset="0.77" stop-color="#95257C"/>
<stop offset="1" stop-color="#3B084D"/>
</linearGradient>
<linearGradient id="paint36_linear_964_6584" x1="127.436" y1="95.9449" x2="91.4619" y2="102.738" gradientUnits="userSpaceOnUse">
<stop stop-color="#681652"/>
<stop offset="0.48" stop-color="#EA2891"/>
<stop offset="1" stop-color="#3B084D"/>
</linearGradient>
<linearGradient id="paint37_linear_964_6584" x1="112.416" y1="100.015" x2="119.467" y2="98.4674" gradientUnits="userSpaceOnUse">
<stop stop-color="#EA2891"/>
<stop offset="0.24" stop-color="#EF57A9"/>
<stop offset="0.78" stop-color="#FACDE5"/>
<stop offset="1" stop-color="white"/>
</linearGradient>
<linearGradient id="paint38_linear_964_6584" x1="119.926" y1="98.1521" x2="119.037" y2="98.3527" gradientUnits="userSpaceOnUse">
<stop stop-color="white"/>
<stop offset="0.08" stop-color="white"/>
<stop offset="0.93" stop-color="#FAD1E3"/>
<stop offset="1" stop-color="#FAD1E3"/>
</linearGradient>
<linearGradient id="paint39_linear_964_6584" x1="91.2039" y1="103.541" x2="95.5036" y2="102.681" gradientUnits="userSpaceOnUse">
<stop stop-color="#3B084D"/>
<stop offset="0.59" stop-color="#641A63"/>
<stop offset="1" stop-color="#7B2470"/>
</linearGradient>
<linearGradient id="paint40_linear_964_6584" x1="164.528" y1="168.753" x2="180.896" y2="160.125" gradientUnits="userSpaceOnUse">
<stop stop-color="#EE3526"/>
<stop offset="0.64" stop-color="#FDFAD9"/>
<stop offset="1" stop-color="#FDFAD9"/>
</linearGradient>
<linearGradient id="paint41_linear_964_6584" x1="164.213" y1="170.387" x2="171.465" y2="164.654" gradientUnits="userSpaceOnUse">
<stop stop-color="#EE3627"/>
<stop offset="0.11" stop-color="#E0594F"/>
<stop offset="0.22" stop-color="#D47771"/>
<stop offset="0.33" stop-color="#CA908C"/>
<stop offset="0.46" stop-color="#C2A3A2"/>
<stop offset="0.6" stop-color="#BDB1B1"/>
<stop offset="0.76" stop-color="#BAB9BA"/>
<stop offset="1" stop-color="#B9BBBD"/>
</linearGradient>
<linearGradient id="paint42_linear_964_6584" x1="178.861" y1="162.705" x2="169.201" y2="163.679" gradientUnits="userSpaceOnUse">
<stop stop-color="#EE3526"/>
<stop offset="0.12" stop-color="#D15047"/>
<stop offset="0.25" stop-color="#B96862"/>
<stop offset="0.39" stop-color="#A67978"/>
<stop offset="0.55" stop-color="#988687"/>
<stop offset="0.73" stop-color="#908E90"/>
<stop offset="1" stop-color="#8E9093"/>
</linearGradient>
<linearGradient id="paint43_linear_964_6584" x1="196.288" y1="144.617" x2="190.297" y2="139.515" gradientUnits="userSpaceOnUse">
<stop stop-color="#A55925"/>
<stop offset="0.01" stop-color="#A55925"/>
<stop offset="0.18" stop-color="#F9F188"/>
<stop offset="0.34" stop-color="white"/>
<stop offset="0.51" stop-color="#FDE900"/>
<stop offset="0.96" stop-color="#A56326"/>
<stop offset="1" stop-color="#A56326"/>
</linearGradient>
<linearGradient id="paint44_linear_964_6584" x1="189.724" y1="139.028" x2="192.906" y2="141.866" gradientUnits="userSpaceOnUse">
<stop stop-color="#B87E2B"/>
<stop offset="0.96" stop-color="#FDF49B"/>
<stop offset="1" stop-color="#FDF49B"/>
</linearGradient>
<linearGradient id="paint45_linear_964_6584" x1="187.374" y1="162.647" x2="203.225" y2="122.431" gradientUnits="userSpaceOnUse">
<stop stop-color="#0052A4"/>
<stop offset="0.15" stop-color="#004992"/>
<stop offset="0.46" stop-color="#003062"/>
<stop offset="0.9" stop-color="#000A15"/>
<stop offset="1" stop-color="#000002"/>
</linearGradient>
<linearGradient id="paint46_linear_964_6584" x1="185.539" y1="146.997" x2="206.693" y2="132.607" gradientUnits="userSpaceOnUse">
<stop stop-color="#212D74"/>
<stop offset="0.24" stop-color="#45C6EB"/>
<stop offset="1" stop-color="#212D74"/>
</linearGradient>
<linearGradient id="paint47_linear_964_6584" x1="182.787" y1="200.313" x2="186.112" y2="186.009" gradientUnits="userSpaceOnUse">
<stop stop-color="#811517"/>
<stop offset="0.24" stop-color="#ED1C24"/>
<stop offset="0.36" stop-color="#ED1C24"/>
<stop offset="0.54" stop-color="#DF1E26"/>
<stop offset="0.96" stop-color="#4F110D"/>
<stop offset="1" stop-color="#4F110D"/>
</linearGradient>
<linearGradient id="paint48_linear_964_6584" x1="224.036" y1="121.428" x2="210.592" y2="109.819" gradientUnits="userSpaceOnUse">
<stop stop-color="#EF3E23"/>
<stop offset="0.39" stop-color="#FCB316"/>
<stop offset="0.83" stop-color="#EF3E23"/>
<stop offset="1" stop-color="#EF3E23"/>
</linearGradient>
<linearGradient id="paint49_linear_964_6584" x1="219.822" y1="117.673" x2="218.561" y2="116.784" gradientUnits="userSpaceOnUse">
<stop stop-color="#FDCE07"/>
<stop offset="0.28" stop-color="#FDC909"/>
<stop offset="0.6" stop-color="#FBBC0F"/>
<stop offset="0.94" stop-color="#F9A519"/>
<stop offset="1" stop-color="#F9A01B"/>
</linearGradient>
<linearGradient id="paint50_linear_964_6584" x1="219.621" y1="117.587" x2="219.593" y2="117.558" gradientUnits="userSpaceOnUse">
<stop stop-color="white"/>
<stop offset="0.29" stop-color="white"/>
<stop offset="1" stop-color="#F7EC00"/>
</linearGradient>
<linearGradient id="paint51_linear_964_6584" x1="209.102" y1="107.955" x2="212.828" y2="111.166" gradientUnits="userSpaceOnUse">
<stop stop-color="#C51F25"/>
<stop offset="0.56" stop-color="#EC5E24"/>
<stop offset="1" stop-color="#F47B20"/>
</linearGradient>
<linearGradient id="paint52_linear_964_6584" x1="217.672" y1="136.649" x2="195.515" y2="117.501" gradientUnits="userSpaceOnUse">
<stop stop-color="#EF3E23"/>
<stop offset="0.24" stop-color="#F7EC00"/>
<stop offset="0.53" stop-color="#FAA61A"/>
<stop offset="0.83" stop-color="#C82026"/>
<stop offset="1" stop-color="#C82026"/>
</linearGradient>
<linearGradient id="paint53_linear_964_6584" x1="215.006" y1="136.763" x2="196.26" y2="120.31" gradientUnits="userSpaceOnUse">
<stop stop-color="#EF3824"/>
<stop offset="0.39" stop-color="#FEBC11"/>
<stop offset="1" stop-color="#EF3E23"/>
</linearGradient>
<linearGradient id="paint54_linear_964_6584" x1="206.837" y1="131.002" x2="210.219" y2="133.897" gradientUnits="userSpaceOnUse">
<stop stop-color="#FBAD18"/>
<stop offset="0.17" stop-color="#FABE12"/>
<stop offset="0.49" stop-color="#FAD708"/>
<stop offset="0.77" stop-color="#F9E702"/>
<stop offset="1" stop-color="#F9EC00"/>
</linearGradient>
<linearGradient id="paint55_linear_964_6584" x1="210.821" y1="134.355" x2="210.506" y2="134.097" gradientUnits="userSpaceOnUse">
<stop stop-color="white"/>
<stop offset="0.08" stop-color="white"/>
<stop offset="0.93" stop-color="#F9EC00"/>
<stop offset="1" stop-color="#F9EC00"/>
</linearGradient>
<linearGradient id="paint56_linear_964_6584" x1="195.514" y1="118.991" x2="197.263" y2="120.826" gradientUnits="userSpaceOnUse">
<stop stop-color="#A51C20"/>
<stop offset="1" stop-color="#EA4924"/>
</linearGradient>
<clipPath id="clip0_964_6584">
<rect width="137.705" height="167" fill="white" transform="translate(90 25)"/>
</clipPath>
</defs>
</svg>
