<svg width="320" height="192" viewBox="0 0 320 192" fill="none" xmlns="http://www.w3.org/2000/svg">
<g clip-path="url(#clip0_9_6452)" filter="url(#filter0_d_9_6452)">
<path fill-rule="evenodd" clip-rule="evenodd" d="M164.668 164.056L183.571 77.3541C183.897 75.8428 185.668 75.0776 187.338 74.7172C189.209 74.3251 191.142 74.3341 193.01 74.7438C194.878 75.1534 196.639 75.9545 198.18 77.0948C198.979 77.6339 199.591 78.4118 199.929 79.3193C200.266 80.2267 200.313 81.2179 200.063 82.1536L181.675 167.483L173.884 169.747L164.668 164.056Z" fill="url(#paint0_linear_9_6452)"/>
<path fill-rule="evenodd" clip-rule="evenodd" d="M182.998 79.9728L183.921 80.8897L188.015 77.4434L191.417 81.7497L196.458 79.0748L199.214 86.0876L197.896 92.2277L194.657 84.0008L190.494 86.2077L187.512 82.4326L183.727 85.6197L182.113 84.0198L182.998 79.9728Z" fill="url(#paint1_linear_9_6452)"/>
<path fill-rule="evenodd" clip-rule="evenodd" d="M166.727 154.609L167.612 150.562L169.922 152.851L174.009 149.398L177.418 153.711L182.446 151.043L184.255 155.532L182.942 161.615L180.664 155.956L176.489 158.169L173.507 154.394L169.727 157.581L166.727 154.609Z" fill="url(#paint2_linear_9_6452)"/>
<path fill-rule="evenodd" clip-rule="evenodd" d="M170.236 138.501L171.122 134.448L171.712 135.03L175.799 131.59L179.207 135.896L184.23 133.228L187.388 140.993L186.082 147.051L182.459 138.135L178.285 140.354L175.296 136.579L171.517 139.76L170.236 138.501Z" fill="url(#paint3_linear_9_6452)"/>
<path fill-rule="evenodd" clip-rule="evenodd" d="M174.447 119.197L175.326 115.15L177.881 117.679L181.974 114.227L185.377 118.539L190.406 115.871L191.963 119.741L190.651 125.824L188.629 120.784L184.454 122.997L181.472 119.222L177.687 122.409L174.447 119.197Z" fill="url(#paint4_linear_9_6452)"/>
<path fill-rule="evenodd" clip-rule="evenodd" d="M178.898 98.7774L179.815 94.5723L184.542 99.8208L188.56 96.4377L191.969 100.744L196.583 98.2905L195.447 103.564L195.215 102.989L191.046 105.202L188.058 101.427L184.21 104.671L178.898 98.7774Z" fill="url(#paint5_linear_9_6452)"/>
<g style="mix-blend-mode:multiply">
<path fill-rule="evenodd" clip-rule="evenodd" d="M179.351 99.277L184.21 104.671L188.065 101.421L191.047 105.215L195.215 103.008L195.448 103.583L191.436 106.005L188.454 102.211L184.599 105.442L179.351 99.2644V99.277ZM174.906 119.651L177.687 122.402L181.454 119.24L184.436 123.034L188.611 120.827L188.937 121.643L184.825 123.825L181.843 120.031L178.077 123.193L174.906 119.658V119.651ZM170.7 138.957L171.516 139.76L175.283 136.598L178.271 140.392L182.446 138.179L182.779 138.995L178.66 141.183L175.678 137.389L171.912 140.551L170.706 138.963L170.7 138.957ZM167.191 155.063L169.702 157.592L173.469 154.431L176.457 158.225L180.625 156.018L180.958 156.834L176.846 159.015L173.864 155.221L170.097 158.383L167.172 155.088L167.191 155.063ZM194.983 84.8151L190.884 86.9904L187.902 83.1963L184.135 86.3581L182.59 84.461L183.739 85.5993L187.506 82.4375L190.488 86.2316L194.65 84.031L194.983 84.8151Z" fill="#230D26"/>
</g>
<path fill-rule="evenodd" clip-rule="evenodd" d="M158.729 175.571L160.662 166.086C160.662 166.086 162.225 163.31 169.627 163.917C173.642 164.211 177.557 165.314 181.141 167.161C183.777 168.628 185.121 170.557 184.28 174.464C183.583 177.658 182.61 181.686 182.61 181.686L179 180.232L165.258 177.645L158.729 175.571Z" fill="url(#paint6_linear_9_6452)"/>
<path fill-rule="evenodd" clip-rule="evenodd" d="M158.86 177.941C158.68 177.644 158.562 177.312 158.515 176.966C158.468 176.621 158.493 176.269 158.587 175.934C158.682 175.598 158.844 175.286 159.064 175.017C159.283 174.747 159.556 174.527 159.865 174.369C161.359 173.477 164.002 173.192 167.304 173.673C171.159 174.236 178.717 176.613 181.392 179.105C182.245 179.902 182.917 181.002 182.515 181.919C180.758 186.035 169.602 183.076 164.033 181.223C162.106 180.578 159.89 179.895 158.86 177.941Z" fill="url(#paint7_linear_9_6452)"/>
<path fill-rule="evenodd" clip-rule="evenodd" d="M187.061 49.8911L187.469 50.2326L193.847 50.9029L191.807 61.0837L192.215 61.4252L198.612 54.1721L204.042 62.3358L204.45 62.6835L203.622 52.5533L209.121 53.2678L206.315 48.6011L217 43.6182L216.592 43.2767L205.21 42.0499L205.141 37.8764L204.733 37.535L200.972 39.3814L194.073 27.3478L193.665 27L193.495 40.5829L189.057 40.8927L192.497 45.3445L187.061 49.8911Z" fill="#A21C20"/>
<path fill-rule="evenodd" clip-rule="evenodd" d="M205.907 48.2533L208.707 52.9201L203.207 52.2118L204.042 62.3358L198.304 53.7105L191.807 61.0837L193.903 50.6056L187.061 49.8911L192.497 45.3445L189.057 40.8927L193.495 40.5829L193.665 27L200.809 39.4636L204.733 37.535L204.802 42.0057L216.592 43.2767L205.907 48.2533Z" fill="#EF4423"/>
<path fill-rule="evenodd" clip-rule="evenodd" d="M201.644 55.4046L201.631 55.3919L198.819 51.1552L195.353 55.0821L194.945 54.7406L196.044 49.2771L191.988 48.8534L191.58 48.5056L195.033 45.6221L192.616 42.492L195.303 42.3023L195.41 33.7402L195.818 34.088L200.237 41.7964L202.943 40.4684L203.351 40.8099L203.401 43.7124L209.811 44.4017L210.219 44.7495L203.69 47.7911L205.586 50.9465L201.606 50.428L202.039 55.7397L201.644 55.4046Z" fill="#AA4B24"/>
<path fill-rule="evenodd" clip-rule="evenodd" d="M203.282 47.4433L205.172 50.605L201.192 50.0865L201.631 55.3919L198.511 50.6999L194.945 54.7406L196.1 48.9799L191.58 48.5056L195.033 45.6221L192.616 42.492L195.303 42.3023L195.41 33.7402L200.074 41.8786L202.943 40.4684L203 43.6681L209.811 44.4017L203.282 47.4433Z" fill="#F47521"/>
<path fill-rule="evenodd" clip-rule="evenodd" d="M196.616 38.377L197.024 38.7247L199.736 43.4611L201.72 42.4809L202.128 42.8287L202.16 44.8522L205.154 45.1747L205.562 45.5225L201.884 47.2362L203.158 49.3546L200.22 48.9751L200.383 50.9671L199.975 50.6193L198.958 49.089L197.514 50.7268L197.106 50.379L197.552 48.1594L195.103 47.9065L194.695 47.5587L196.78 45.8134L195.066 43.5938L196.547 43.4863L196.616 38.377Z" fill="#BD8C2D"/>
<path fill-rule="evenodd" clip-rule="evenodd" d="M201.475 46.8884L205.154 45.1747L201.758 44.808L201.72 42.4809L199.573 43.5369L196.616 38.377L196.547 43.4863L195.066 43.5938L196.78 45.8134L194.695 47.5587L197.615 47.8622L197.106 50.379L198.65 48.6274L199.975 50.6193L199.812 48.6274L202.744 49.0068L201.475 46.8884Z" fill="#FBC311"/>
<path fill-rule="evenodd" clip-rule="evenodd" d="M142.462 154.134L131.4 79.0231C131.205 77.7141 129.736 76.9553 128.317 76.5443C126.739 76.0959 125.084 75.9881 123.462 76.2278C121.839 76.4675 120.285 77.0494 118.9 77.9354C118.195 78.3494 117.635 78.974 117.297 79.7229C116.96 80.4718 116.862 81.3079 117.017 82.1153L127.74 156.031L134.263 158.421L142.462 154.134Z" fill="url(#paint8_linear_9_6452)"/>
<path fill-rule="evenodd" clip-rule="evenodd" d="M131.728 81.3134L130.886 82.0342L127.597 78.8535L124.445 82.3251L120.295 79.7451L117.533 85.5691L118.305 90.8871L121.545 84.0578L124.966 86.1888L127.735 83.1409L130.78 86.0876L132.249 84.8229L131.728 81.3134Z" fill="url(#paint9_linear_9_6452)"/>
<path fill-rule="evenodd" clip-rule="evenodd" d="M134.131 97.6013L133.592 93.959L129.247 98.1578L126.02 95.034L122.863 98.5056L119.064 96.1406L119.724 100.706L119.956 100.232L123.39 102.363L126.152 99.3213L129.254 102.319L134.131 97.6013Z" fill="url(#paint10_linear_9_6452)"/>
<path fill-rule="evenodd" clip-rule="evenodd" d="M136.737 115.295L136.216 111.786L133.893 113.79L130.604 110.609L127.446 114.081L123.309 111.507L121.752 114.72L122.518 119.987L124.539 115.807L127.973 117.938L130.742 114.897L133.78 117.837L136.737 115.295Z" fill="url(#paint11_linear_9_6452)"/>
<path fill-rule="evenodd" clip-rule="evenodd" d="M139.198 132.014L138.683 128.511L138.143 128.972L134.854 125.785L131.702 129.263L127.565 126.689L124.42 133.127L125.18 138.375L128.789 130.983L132.223 133.12L134.992 130.072L138.037 133.019L139.198 132.014Z" fill="url(#paint12_linear_9_6452)"/>
<path fill-rule="evenodd" clip-rule="evenodd" d="M141.257 145.977L140.736 142.468L138.632 144.283L135.343 141.096L132.185 144.574L128.048 141.994L126.246 145.725L127.006 150.992L129.278 146.294L132.712 148.431L135.481 145.389L138.519 148.33L141.257 145.977Z" fill="url(#paint13_linear_9_6452)"/>
<path fill-rule="evenodd" clip-rule="evenodd" d="M146.858 164.335L145.759 156.114C145.759 156.114 144.591 153.654 138.226 153.73C134.772 153.737 131.355 154.447 128.181 155.817C125.845 156.911 124.59 158.479 125.086 161.862C125.494 164.626 126.09 168.129 126.09 168.129L129.229 167.098L141.107 165.707L146.858 164.335Z" fill="url(#paint14_linear_9_6452)"/>
<path fill-rule="evenodd" clip-rule="evenodd" d="M144.02 168.279C145.049 167.903 145.948 167.233 146.606 166.351C146.778 166.108 146.899 165.833 146.96 165.542C147.022 165.25 147.023 164.949 146.964 164.658C146.905 164.366 146.788 164.089 146.618 163.845C146.448 163.601 146.231 163.395 145.978 163.24C144.76 162.392 142.519 161.975 139.7 162.209C136.386 162.462 129.794 164.043 127.364 166.003C126.366 166.812 125.594 168.039 126.736 169.045C130.265 171.928 139.631 169.639 144.02 168.279Z" fill="url(#paint15_linear_9_6452)"/>
<path fill-rule="evenodd" clip-rule="evenodd" d="M113.653 59.0408L112.837 66.8314L113.245 67.1792L117.815 60.6217L120.439 63.4736L120.854 63.8214L121.494 59.534L130.534 61.9623L123.98 55.1519L126.19 52.3885L125.782 52.0407L122.863 51.3198L124.752 40.2853L124.344 39.9375L117.382 48.1454L114.513 46.065L114.368 50.542L108.75 50.5294L112.573 54.4752L106 59.7933L106.408 60.1411L113.653 59.0408Z" fill="#A21C20"/>
<path fill-rule="evenodd" clip-rule="evenodd" d="M121.086 59.1863L120.439 63.4736L117.445 60.217L112.837 66.8314L113.69 58.6235L106 59.7933L112.573 54.4752L108.75 50.5294L114.368 50.542L114.513 46.065L117.382 48.1454L124.344 39.9375L122.41 51.206L125.782 52.0407L123.566 54.8041L130.126 61.6208L121.086 59.1863Z" fill="#EF4423"/>
<path fill-rule="evenodd" clip-rule="evenodd" d="M115.292 57.3029L114.871 61.3563L115.285 61.7041L117.658 58.2957L119.454 60.2497L119.862 60.5912L120.301 57.695L125.826 59.181L122.034 55.2415L123.622 53.2622L123.208 52.9144L121.193 52.4212L122.417 45.2946L122.009 44.9531L117.614 50.1194L115.882 48.8611L115.775 52.0102L112.209 52.0038L114.733 54.6091L111.123 57.5306L111.531 57.8784L115.292 57.3029Z" fill="#AA4B24"/>
<path fill-rule="evenodd" clip-rule="evenodd" d="M119.893 57.3472L119.454 60.2497L117.288 57.891L114.871 61.3563L115.336 56.8919L111.123 57.5306L114.733 54.6091L112.209 52.0038L115.775 52.0102L115.882 48.8611L117.614 50.1194L122.009 44.9531L120.747 52.3074L123.208 52.9144L121.626 54.9L125.418 58.8332L119.893 57.3472Z" fill="#F47521"/>
<path fill-rule="evenodd" clip-rule="evenodd" d="M115.052 56.3218L114.644 55.9803L116.22 54.6966L114.588 53.0209H116.747L116.817 50.7887L117.777 51.4843L120.401 48.3984L120.809 48.7399L120.05 53.1727L121.443 53.5205L121.851 53.8619L120.703 55.3037L122.592 57.264L119.478 56.4293L119.183 58.3769L118.775 58.0291L117.545 56.6949L116.678 57.9343L116.27 57.5928L116.427 56.1131L115.052 56.3218Z" fill="#BD8C2D"/>
<path fill-rule="evenodd" clip-rule="evenodd" d="M119.07 56.0815L122.178 56.9225L120.295 54.9559L121.443 53.5205L119.598 53.0652L120.401 48.3984L117.777 51.4843L116.817 50.7887L116.747 53.0209H114.588L116.22 54.6966L114.644 55.9803L116.471 55.6958L116.27 57.5928L117.174 56.2902L118.775 58.0291L119.07 56.0815Z" fill="#FBC311"/>
<g style="mix-blend-mode:multiply">
<path fill-rule="evenodd" clip-rule="evenodd" d="M138.751 132.401L138.036 133.033L134.991 130.086L132.229 133.134L128.788 130.997L128.405 131.787L131.833 133.918L134.602 130.877L137.646 133.817L138.751 132.413V132.401ZM119.748 100.707L123.025 103.148L125.787 100.107L128.889 103.104L133.71 98.0451L129.278 102.332L126.183 99.3288L123.414 102.377L119.98 100.239L119.748 100.72V100.707ZM140.829 146.357L138.544 148.33L135.506 145.383L132.737 148.431L129.303 146.293L128.92 147.084L132.348 149.215L135.116 146.173L138.155 149.114L140.829 146.357ZM136.309 115.681L133.798 117.838L130.76 114.897L127.991 117.939L124.557 115.808L124.174 116.598L127.602 118.729L130.37 115.681L133.409 118.622L136.303 115.681H136.309ZM121.192 84.848L124.601 86.9727L127.369 83.9247L130.414 86.8715L131.82 85.2021L130.803 86.0811L127.759 83.1406L124.996 86.1822L121.569 84.0575L121.192 84.848Z" fill="#A71C20"/>
</g>
</g>
<defs>
<filter id="filter0_d_9_6452" x="102" y="25" width="119" height="165" filterUnits="userSpaceOnUse" color-interpolation-filters="sRGB">
<feFlood flood-opacity="0" result="BackgroundImageFix"/>
<feColorMatrix in="SourceAlpha" type="matrix" values="0 0 0 0 0 0 0 0 0 0 0 0 0 0 0 0 0 0 127 0" result="hardAlpha"/>
<feOffset dy="2"/>
<feGaussianBlur stdDeviation="2"/>
<feComposite in2="hardAlpha" operator="out"/>
<feColorMatrix type="matrix" values="0 0 0 0 0 0 0 0 0 0 0 0 0 0 0 0 0 0 0.25 0"/>
<feBlend mode="normal" in2="BackgroundImageFix" result="effect1_dropShadow_9_6452"/>
<feBlend mode="normal" in="SourceGraphic" in2="effect1_dropShadow_9_6452" result="shape"/>
</filter>
<linearGradient id="paint0_linear_9_6452" x1="175.598" y1="120.196" x2="191.69" y2="124.294" gradientUnits="userSpaceOnUse">
<stop stop-color="#EF3E23"/>
<stop offset="0.39" stop-color="#FCB316"/>
<stop offset="0.83" stop-color="#EF3E23"/>
<stop offset="1" stop-color="#EF3E23"/>
</linearGradient>
<linearGradient id="paint1_linear_9_6452" x1="187.707" y1="83.9755" x2="193.755" y2="84.9544" gradientUnits="userSpaceOnUse">
<stop stop-color="#2C0E27"/>
<stop offset="0.01" stop-color="#2C0E27"/>
<stop offset="0.26" stop-color="#E33293"/>
<stop offset="0.52" stop-color="#EA2891"/>
<stop offset="1" stop-color="#3B084D"/>
</linearGradient>
<linearGradient id="paint2_linear_9_6452" x1="172.226" y1="154.685" x2="178.625" y2="155.514" gradientUnits="userSpaceOnUse">
<stop stop-color="#2C0E27"/>
<stop offset="0.01" stop-color="#2C0E27"/>
<stop offset="0.26" stop-color="#E33293"/>
<stop offset="0.52" stop-color="#EA2891"/>
<stop offset="1" stop-color="#3B084D"/>
</linearGradient>
<linearGradient id="paint3_linear_9_6452" x1="175.905" y1="138.457" x2="181.935" y2="139.474" gradientUnits="userSpaceOnUse">
<stop stop-color="#2C0E27"/>
<stop offset="0.01" stop-color="#2C0E27"/>
<stop offset="0.26" stop-color="#E33293"/>
<stop offset="0.52" stop-color="#EA2891"/>
<stop offset="1" stop-color="#3B084D"/>
</linearGradient>
<linearGradient id="paint4_linear_9_6452" x1="179.903" y1="119.222" x2="186.333" y2="120.02" gradientUnits="userSpaceOnUse">
<stop stop-color="#2C0E27"/>
<stop offset="0.01" stop-color="#2C0E27"/>
<stop offset="0.26" stop-color="#E33293"/>
<stop offset="0.52" stop-color="#EA2891"/>
<stop offset="1" stop-color="#3B084D"/>
</linearGradient>
<linearGradient id="paint5_linear_9_6452" x1="184.21" y1="99.8714" x2="190.74" y2="100.601" gradientUnits="userSpaceOnUse">
<stop stop-color="#2C0E27"/>
<stop offset="0.01" stop-color="#2C0E27"/>
<stop offset="0.26" stop-color="#E33293"/>
<stop offset="0.52" stop-color="#EA2891"/>
<stop offset="1" stop-color="#3B084D"/>
</linearGradient>
<linearGradient id="paint6_linear_9_6452" x1="172.578" y1="182.571" x2="170.565" y2="164.192" gradientUnits="userSpaceOnUse">
<stop stop-color="#0089CB"/>
<stop offset="1" stop-color="#0065B1"/>
</linearGradient>
<linearGradient id="paint7_linear_9_6452" x1="171.121" y1="183.968" x2="169.917" y2="173.264" gradientUnits="userSpaceOnUse">
<stop stop-color="#0089CB"/>
<stop offset="1" stop-color="#0065B1"/>
</linearGradient>
<linearGradient id="paint8_linear_9_6452" x1="132.762" y1="116.547" x2="125.582" y2="117.981" gradientUnits="userSpaceOnUse">
<stop stop-color="#2C0E27"/>
<stop offset="0.01" stop-color="#2C0E27"/>
<stop offset="0.26" stop-color="#E33293"/>
<stop offset="0.52" stop-color="#EA2891"/>
<stop offset="1" stop-color="#3B084D"/>
</linearGradient>
<linearGradient id="paint9_linear_9_6452" x1="123.924" y1="84.8988" x2="132.946" y2="85.1855" gradientUnits="userSpaceOnUse">
<stop stop-color="#EF3E23"/>
<stop offset="0.39" stop-color="#FCB316"/>
<stop offset="0.83" stop-color="#EF3E23"/>
<stop offset="1" stop-color="#EF3E23"/>
</linearGradient>
<linearGradient id="paint10_linear_9_6452" x1="125.468" y1="98.0946" x2="134.866" y2="98.3002" gradientUnits="userSpaceOnUse">
<stop stop-color="#EF3E23"/>
<stop offset="0.39" stop-color="#FCB316"/>
<stop offset="0.83" stop-color="#EF3E23"/>
<stop offset="1" stop-color="#EF3E23"/>
</linearGradient>
<linearGradient id="paint11_linear_9_6452" x1="128.162" y1="115.339" x2="137.472" y2="115.564" gradientUnits="userSpaceOnUse">
<stop stop-color="#EF3E23"/>
<stop offset="0.39" stop-color="#FCB316"/>
<stop offset="0.83" stop-color="#EF3E23"/>
<stop offset="1" stop-color="#EF3E23"/>
</linearGradient>
<linearGradient id="paint12_linear_9_6452" x1="130.861" y1="132.109" x2="139.895" y2="132.408" gradientUnits="userSpaceOnUse">
<stop stop-color="#EF3E23"/>
<stop offset="0.39" stop-color="#FCB316"/>
<stop offset="0.83" stop-color="#EF3E23"/>
<stop offset="1" stop-color="#EF3E23"/>
</linearGradient>
<linearGradient id="paint13_linear_9_6452" x1="132.681" y1="146.085" x2="141.985" y2="146.322" gradientUnits="userSpaceOnUse">
<stop stop-color="#EF3E23"/>
<stop offset="0.39" stop-color="#FCB316"/>
<stop offset="0.83" stop-color="#EF3E23"/>
<stop offset="1" stop-color="#EF3E23"/>
</linearGradient>
<linearGradient id="paint14_linear_9_6452" x1="134.628" y1="169.476" x2="137.366" y2="154.313" gradientUnits="userSpaceOnUse">
<stop stop-color="#0089CB"/>
<stop offset="1" stop-color="#0065B1"/>
</linearGradient>
<linearGradient id="paint15_linear_9_6452" x1="135.871" y1="170.151" x2="137.431" y2="162.023" gradientUnits="userSpaceOnUse">
<stop stop-color="#0089CB"/>
<stop offset="1" stop-color="#0065B1"/>
</linearGradient>
<clipPath id="clip0_9_6452">
<rect width="111" height="157" fill="white" transform="translate(106 27)"/>
</clipPath>
</defs>
</svg>
