<svg width="320" height="192" viewBox="0 0 320 192" fill="none" xmlns="http://www.w3.org/2000/svg">
<g clip-path="url(#clip0_9_244)" filter="url(#filter0_d_9_244)">
<path fill-rule="evenodd" clip-rule="evenodd" d="M124.585 69.5226C124.334 69.5438 124.083 69.5155 123.843 69.4393C123.604 69.3631 123.382 69.2406 123.19 69.0787C122.999 68.9168 122.84 68.7187 122.725 68.4957C122.61 68.2727 122.54 68.0291 122.519 67.7789C122.497 67.5288 122.526 67.2769 122.602 67.0377C122.678 66.7985 122.801 66.5766 122.962 66.3847C123.124 66.1929 123.322 66.0349 123.546 65.9196C123.769 65.8043 124.012 65.7341 124.262 65.7129H124.936C125.483 66.3772 126.011 67.0511 126.519 67.7349C126.48 68.1643 126.302 68.5692 126.011 68.8869C125.719 69.2047 125.331 69.4178 124.907 69.4933L124.585 69.5226Z" fill="#CCD6DA"/>
<path fill-rule="evenodd" clip-rule="evenodd" d="M137.011 93.0852C136.552 93.0777 136.11 92.9094 135.762 92.6096C135.414 92.3097 135.182 91.8972 135.107 91.4441C135.065 91.1892 135.076 90.9285 135.139 90.678C135.201 90.4274 135.314 90.1924 135.47 89.9868C135.627 89.7812 135.823 89.6095 136.048 89.4822C136.272 89.3549 136.52 89.2745 136.777 89.2461H137.305C137.685 90.389 138.037 91.5026 138.359 92.5284C138.057 92.8227 137.665 93.0083 137.246 93.0559L137.011 93.0852Z" fill="#CCD6DA"/>
<path fill-rule="evenodd" clip-rule="evenodd" d="M132.351 81.2453C131.89 81.2437 131.445 81.0774 131.096 80.7765C130.746 80.4756 130.516 80.0599 130.446 79.6042C130.379 79.0917 130.517 78.5735 130.83 78.1621C131.143 77.7506 131.605 77.479 132.117 77.4062H132.41C132.937 78.432 133.406 79.487 133.875 80.5127C133.721 80.7132 133.527 80.8794 133.304 81.0005C133.082 81.1216 132.838 81.195 132.585 81.216L132.351 81.2453Z" fill="#CCD6DA"/>
<path fill-rule="evenodd" clip-rule="evenodd" d="M128.512 76.0285C128.042 76.0375 127.586 75.8666 127.238 75.5507C126.889 75.2348 126.674 74.7977 126.637 74.3287C126.577 73.8331 126.712 73.3337 127.012 72.935C127.313 72.5363 127.756 72.2691 128.249 72.1895H128.512C129 72.2052 129.467 72.3919 129.831 72.7169L130.417 73.7133C130.417 73.7133 130.417 73.7133 130.417 73.8892C130.45 74.1448 130.429 74.4045 130.357 74.6519C130.285 74.8993 130.163 75.1291 129.998 75.3271C129.833 75.5251 129.629 75.687 129.398 75.8026C129.168 75.9183 128.916 75.9852 128.659 75.9992L128.512 76.0285Z" fill="#CCD6DA"/>
<path fill-rule="evenodd" clip-rule="evenodd" d="M135.164 87.1652C134.719 87.1673 134.289 87.0034 133.959 86.7053C133.628 86.4072 133.421 85.9964 133.377 85.5534C133.326 85.2991 133.33 85.0368 133.39 84.7843C133.449 84.5318 133.561 84.2949 133.719 84.0895C133.878 83.8841 134.078 83.7149 134.307 83.5933C134.536 83.4718 134.788 83.4007 135.047 83.3848C135.516 84.5277 135.956 85.6412 136.337 86.7549C136.063 86.9628 135.74 87.0944 135.399 87.1359L135.164 87.1652Z" fill="#CCD6DA"/>
<path fill-rule="evenodd" clip-rule="evenodd" d="M138.77 98.8288C138.496 98.7875 138.235 98.6808 138.011 98.5176C137.786 98.3544 137.604 98.1395 137.48 97.8912C137.48 97.4516 137.832 96.8654 138.067 96.3379H138.653C139.034 96.7189 139.561 97.0413 139.766 97.4809V97.8619C139.759 98.121 139.65 98.3669 139.464 98.5475C139.278 98.728 139.029 98.829 138.77 98.8288Z" fill="#CCD6DA"/>
<path fill-rule="evenodd" clip-rule="evenodd" d="M139.501 104.192C138.974 103.489 138.446 103.108 138.417 102.697C138.388 102.287 139.003 101.701 139.267 101.701C139.514 101.757 139.744 101.871 139.938 102.034C140.132 102.198 140.283 102.405 140.38 102.639C140.498 102.961 139.97 103.459 139.501 104.192Z" fill="#CCD6DA"/>
<path fill-rule="evenodd" clip-rule="evenodd" d="M98.1226 122.596C97.9515 122.586 97.7844 122.54 97.6316 122.463C97.4787 122.385 97.3432 122.277 97.2335 122.146C97.1238 122.014 97.0421 121.861 96.9934 121.697C96.9447 121.532 96.93 121.36 96.9502 121.19C96.998 120.879 97.1531 120.594 97.3886 120.385C97.6241 120.177 97.9252 120.057 98.2397 120.047H98.4449C98.7718 120.104 99.0638 120.286 99.2604 120.553C99.4569 120.821 99.5427 121.154 99.5 121.483C99.463 121.812 99.2977 122.114 99.0399 122.322C98.7821 122.531 98.4525 122.629 98.1226 122.596Z" fill="#CCD6DA"/>
<path fill-rule="evenodd" clip-rule="evenodd" d="M115.501 119.167H115.325C115.156 119.146 114.993 119.091 114.846 119.005C114.699 118.919 114.571 118.804 114.47 118.667C114.368 118.53 114.296 118.374 114.257 118.208C114.217 118.042 114.212 117.87 114.241 117.702C114.278 117.404 114.424 117.131 114.652 116.936C114.88 116.741 115.172 116.638 115.472 116.647H115.677C115.848 116.664 116.013 116.717 116.162 116.802C116.312 116.887 116.442 117.002 116.544 117.14C116.646 117.278 116.718 117.435 116.755 117.603C116.793 117.771 116.795 117.944 116.761 118.112C116.697 118.403 116.539 118.663 116.311 118.854C116.083 119.045 115.798 119.155 115.501 119.167Z" fill="#CCD6DA"/>
<path fill-rule="evenodd" clip-rule="evenodd" d="M107.06 119.872H106.884C106.543 119.814 106.239 119.625 106.036 119.346C105.834 119.066 105.749 118.719 105.8 118.377C105.783 118.26 105.783 118.142 105.8 118.025L108.232 118.406C108.245 118.543 108.245 118.68 108.232 118.817C108.186 119.1 108.044 119.358 107.831 119.55C107.618 119.742 107.346 119.855 107.06 119.872Z" fill="#CCD6DA"/>
<path fill-rule="evenodd" clip-rule="evenodd" d="M103.046 121.307H102.812C102.481 121.257 102.185 121.077 101.987 120.808C101.789 120.539 101.706 120.202 101.757 119.872C101.806 119.566 101.963 119.289 102.2 119.09C102.437 118.89 102.737 118.783 103.046 118.787H103.398C103.732 118.814 104.042 118.973 104.259 119.229C104.476 119.484 104.583 119.816 104.555 120.15C104.528 120.484 104.369 120.794 104.114 121.011C103.858 121.228 103.527 121.335 103.193 121.307H103.046Z" fill="#CCD6DA"/>
<path fill-rule="evenodd" clip-rule="evenodd" d="M111.455 119.138H111.221C110.987 119.089 110.767 118.989 110.576 118.845L111.749 119.109L111.455 119.138ZM112.628 118.2L110.254 117.35C110.343 117.129 110.497 116.941 110.696 116.81C110.895 116.679 111.129 116.612 111.368 116.617H111.631C111.796 116.638 111.954 116.693 112.096 116.778C112.239 116.863 112.362 116.976 112.458 117.111C112.555 117.246 112.622 117.399 112.656 117.562C112.69 117.724 112.691 117.891 112.657 118.054C112.657 118.054 112.628 118.171 112.628 118.2Z" fill="#CCD6DA"/>
<path fill-rule="evenodd" clip-rule="evenodd" d="M119.897 118.903C119.604 118.903 119.311 118.493 119.018 118.258V117.848C119.369 117.672 119.692 117.35 120.043 117.35C120.153 117.348 120.262 117.373 120.36 117.422C120.458 117.471 120.542 117.544 120.606 117.634C120.669 117.723 120.71 117.827 120.724 117.936C120.739 118.045 120.726 118.155 120.688 118.258C120.615 118.42 120.506 118.562 120.368 118.674C120.231 118.786 120.07 118.864 119.897 118.903Z" fill="#CCD6DA"/>
<path fill-rule="evenodd" clip-rule="evenodd" d="M123.208 119.198C123.003 119.198 122.681 118.612 122.739 118.465C122.827 118.321 122.947 118.198 123.089 118.107C123.231 118.015 123.392 117.957 123.56 117.938C123.794 117.938 124 118.377 124.381 118.817C124.006 118.989 123.612 119.116 123.208 119.198Z" fill="#CCD6DA"/>
<path fill-rule="evenodd" clip-rule="evenodd" d="M138.565 116.647C135.324 113.921 131.819 111.525 128.103 109.496L128.571 109.291L127.692 107.122C128.894 107.855 130.037 108.617 131.062 109.379L131.209 110.756H132.674C134.821 112.507 136.785 114.471 138.536 116.617L138.565 116.647ZM106.328 105.247C108.391 104.323 110.587 103.73 112.834 103.488L113.391 104.807C112.6 104.768 111.808 104.768 111.017 104.807C109.441 104.725 107.862 104.873 106.328 105.247Z" fill="#8DA3AF"/>
<path d="M206.632 101L202.939 102.049L208.354 121.106L212.046 120.056L206.632 101Z" fill="#F04E43"/>
<path fill-rule="evenodd" clip-rule="evenodd" d="M203.008 101.906L203.77 104.573L206.671 106.918L208.928 108.764L207.931 105.218L205.645 103.372L203.623 101.73L203.008 101.906Z" fill="#F6EC3E"/>
<path fill-rule="evenodd" clip-rule="evenodd" d="M204.768 108.061L205.764 111.636L208.665 113.98L210.951 115.827L209.925 112.281L207.64 110.434L204.768 108.061Z" fill="#F6EC3E"/>
<path fill-rule="evenodd" clip-rule="evenodd" d="M206.76 115.123L207.756 118.669L210.042 120.515L212.093 119.929L211.947 119.314L209.661 117.468L206.76 115.123Z" fill="#F6EC3E"/>
<path fill-rule="evenodd" clip-rule="evenodd" d="M208.43 120.985L207.551 117.908L208.43 120.985L210.042 120.516L208.43 120.985Z" fill="#2B5166"/>
<path fill-rule="evenodd" clip-rule="evenodd" d="M208.43 120.985L207.551 117.908L207.756 118.67L210.042 120.516L208.43 120.985Z" fill="#DC453C"/>
<path fill-rule="evenodd" clip-rule="evenodd" d="M210.336 120.428L210.482 120.398L210.336 120.428Z" fill="#2B5166"/>
<path fill-rule="evenodd" clip-rule="evenodd" d="M209.661 117.469L206.76 115.124L205.764 111.637L208.665 113.981L209.661 117.469Z" fill="#DC453C"/>
<path fill-rule="evenodd" clip-rule="evenodd" d="M203.623 101.731L205.059 101.32L203.623 101.731Z" fill="#2B5166"/>
<path fill-rule="evenodd" clip-rule="evenodd" d="M207.638 110.434L204.707 108.061L203.74 104.632L206.671 106.947L207.667 110.464L207.638 110.434ZM205.645 103.372L205.147 102.991L205.44 102.668L205.645 103.372ZM204.356 102.317L203.623 101.731L205.059 101.32V101.643L204.356 102.317Z" fill="#DC453C"/>
<path fill-rule="evenodd" clip-rule="evenodd" d="M206.642 106.918L203.711 104.602C204.151 104.046 204.62 103.518 205.089 102.991L205.587 103.372L206.583 106.918H206.642ZM203.359 103.225L204.356 102.316L203.623 101.73L202.979 101.906L203.359 103.225Z" fill="#E1DB2D"/>
<path fill-rule="evenodd" clip-rule="evenodd" d="M208.665 113.98L205.764 111.636L204.768 108.061L207.64 110.434L208.665 113.98Z" fill="#E1DB2D"/>
<path fill-rule="evenodd" clip-rule="evenodd" d="M210.042 120.515L207.756 118.669L207.551 117.907L206.76 115.123L209.661 117.468L210.482 120.398L210.335 120.427L210.042 120.515Z" fill="#E1DB2D"/>
<path d="M142.038 42.4996L128.705 57.1523L131.545 59.7361L144.878 45.0834L142.038 42.4996Z" fill="#F04E43"/>
<path fill-rule="evenodd" clip-rule="evenodd" d="M142.022 42.4434L140.176 44.4948L139.707 48.1874L139.326 51.118L141.817 48.3925L142.198 45.4619L142.521 42.883L142.022 42.4434Z" fill="#F6EC3E"/>
<path fill-rule="evenodd" clip-rule="evenodd" d="M137.714 47.1914L135.223 49.9169L134.754 53.6388L134.402 56.5401L136.893 53.8146L137.245 50.884L137.714 47.1914Z" fill="#F6EC3E"/>
<path fill-rule="evenodd" clip-rule="evenodd" d="M132.792 52.6133L130.301 55.3388L129.949 58.2401L131.532 59.6761L131.942 59.2365L132.323 56.3059L132.792 52.6133Z" fill="#F6EC3E"/>
<path fill-rule="evenodd" clip-rule="evenodd" d="M129.948 58.2395L128.688 57.0966L136.805 48.1875L135.223 49.9166L134.754 53.6384L132.321 56.3053L132.79 52.6127L130.299 55.3382L129.948 58.2395Z" fill="#DC453C"/>
<path fill-rule="evenodd" clip-rule="evenodd" d="M143.606 43.9105L142.521 42.8848L143.606 43.9105Z" fill="#2B5166"/>
<path fill-rule="evenodd" clip-rule="evenodd" d="M137.246 50.8854L137.715 47.1929L142.023 42.4453L140.147 44.4967L139.679 48.2186L137.246 50.8854ZM142.17 45.4638L142.492 42.8849L143.606 43.9106L142.17 45.4638Z" fill="#DC453C"/>
<path fill-rule="evenodd" clip-rule="evenodd" d="M139.707 48.1874L140.176 44.4948L142.022 42.4434L142.52 42.883L142.198 45.4619L139.707 48.1874Z" fill="#E1DB2D"/>
<path fill-rule="evenodd" clip-rule="evenodd" d="M134.754 53.6388L135.223 49.9169L136.805 48.1878L137.714 47.1914L137.245 50.884L134.754 53.6388Z" fill="#E1DB2D"/>
<path fill-rule="evenodd" clip-rule="evenodd" d="M130.272 58.5624L129.949 58.2401L130.301 55.3388L132.792 52.6133L132.323 56.3059L130.272 58.5624Z" fill="#E1DB2D"/>
<path fill-rule="evenodd" clip-rule="evenodd" d="M117.875 168.755L155.621 154.043V116.941L117.875 126.085V168.755Z" fill="#6C482B"/>
<path fill-rule="evenodd" clip-rule="evenodd" d="M155.621 116.941L210.746 130.188V172.857L155.621 154.043V116.941Z" fill="#835B3E"/>
<path fill-rule="evenodd" clip-rule="evenodd" d="M201.867 95.9269H201.544C201.084 95.809 200.683 95.5259 200.418 95.1313C200.153 94.7367 200.043 94.2584 200.108 93.7877C200.184 93.3267 200.419 92.9069 200.772 92.6016C201.126 92.2962 201.575 92.1248 202.042 92.1172H202.335C202.811 92.2008 203.238 92.4594 203.532 92.8418C203.827 93.2242 203.968 93.703 203.928 94.184C203.887 94.6651 203.668 95.1136 203.314 95.4415C202.96 95.7694 202.496 95.9531 202.013 95.9563L201.867 95.9269Z" fill="#CCD6DA"/>
<path fill-rule="evenodd" clip-rule="evenodd" d="M190.905 118.786L189.381 118.083C189.452 117.97 189.531 117.862 189.616 117.76C190.013 117.244 190.444 116.755 190.905 116.295C191.086 116.507 191.219 116.756 191.295 117.024C191.371 117.292 191.388 117.573 191.345 117.848C191.291 118.197 191.138 118.522 190.905 118.786ZM187.564 117.204C187.621 116.892 187.751 116.599 187.945 116.349C188.139 116.099 188.391 115.899 188.678 115.768C188.279 116.234 187.907 116.723 187.564 117.233V117.204Z" fill="#CCD6DA"/>
<path fill-rule="evenodd" clip-rule="evenodd" d="M194.246 107.62H194.012C193.519 107.569 193.066 107.324 192.753 106.939C192.44 106.555 192.292 106.062 192.341 105.569C192.384 105.089 192.602 104.642 192.953 104.312C193.305 103.983 193.765 103.794 194.246 103.781C194.758 103.854 195.22 104.126 195.533 104.537C195.846 104.949 195.984 105.467 195.917 105.979C195.856 106.398 195.66 106.785 195.358 107.081C195.056 107.378 194.666 107.567 194.246 107.62Z" fill="#CCD6DA"/>
<path fill-rule="evenodd" clip-rule="evenodd" d="M197.938 102.405H197.762C197.504 102.391 197.253 102.325 197.022 102.209C196.792 102.093 196.588 101.931 196.423 101.733C196.258 101.535 196.136 101.305 196.063 101.058C195.991 100.811 195.971 100.551 196.003 100.295C196.073 99.8212 196.308 99.3873 196.668 99.0706C197.027 98.754 197.488 98.5752 197.967 98.5664H198.201C198.697 98.6391 199.145 98.9045 199.447 99.305C199.748 99.7055 199.88 100.209 199.813 100.706C199.783 101.177 199.57 101.619 199.22 101.936C198.87 102.253 198.41 102.422 197.938 102.405Z" fill="#CCD6DA"/>
<path fill-rule="evenodd" clip-rule="evenodd" d="M191.081 113.54C190.833 113.516 190.593 113.441 190.375 113.319C190.158 113.198 189.968 113.033 189.816 112.835C189.665 112.638 189.556 112.411 189.497 112.169C189.437 111.927 189.427 111.676 189.469 111.431C189.499 110.972 189.704 110.542 190.043 110.231C190.381 109.92 190.826 109.752 191.286 109.76H191.315C191.572 109.772 191.824 109.839 192.053 109.958C192.283 110.076 192.483 110.242 192.642 110.446C192.801 110.649 192.914 110.884 192.973 111.135C193.032 111.386 193.036 111.647 192.985 111.899C193.002 112.065 193.002 112.232 192.985 112.398C192.673 112.546 192.37 112.712 192.077 112.896C191.733 113.092 191.401 113.308 191.081 113.54Z" fill="#CCD6DA"/>
<path d="M163.194 105.672L149.301 115.465L167.756 141.646L181.649 131.853L163.194 105.672Z" fill="#73CABF"/>
<path d="M180.451 132.757L168.953 140.861L171.064 143.855L182.561 135.751L180.451 132.757Z" fill="#00BAB0"/>
<path fill-rule="evenodd" clip-rule="evenodd" d="M149.32 115.447L151.899 119.08L161.394 117.791L170.86 116.531L167.431 111.637L157.936 112.926L154.625 113.366L151.694 113.776L149.32 115.447Z" fill="white"/>
<path fill-rule="evenodd" clip-rule="evenodd" d="M155.27 123.886L158.728 128.78L168.194 127.49L177.689 126.201L174.26 121.336L164.765 122.596L155.27 123.886Z" fill="white"/>
<path fill-rule="evenodd" clip-rule="evenodd" d="M162.098 133.587L165.556 138.452L173.849 137.338L181.645 131.828L181.088 131.008L171.593 132.297L162.098 133.587Z" fill="white"/>
<path fill-rule="evenodd" clip-rule="evenodd" d="M148.734 117.527L165.351 105.805C165.351 105.805 150.698 95.2838 147.181 97.6869C143.665 100.09 148.734 117.527 148.734 117.527Z" fill="#00BAB0"/>
<path fill-rule="evenodd" clip-rule="evenodd" d="M169.893 129.894L168.193 127.491L170.889 127.139C170.88 127.207 170.88 127.276 170.889 127.344L170.713 127.755C170.413 128.444 170.178 129.161 170.01 129.894H169.893ZM164.764 122.626L161.365 117.79L170.86 116.53L174.992 122.392L174.23 121.337L164.764 122.626ZM168.896 113.834L167.402 111.724L157.936 113.014L157.027 111.753L163.973 106.859L168.896 113.834Z" fill="#6CB7AE"/>
<path fill-rule="evenodd" clip-rule="evenodd" d="M161.394 117.791L157.936 112.926L167.431 111.637L168.896 113.747L170.86 116.531L161.394 117.791Z" fill="#DDDFE1"/>
<path fill-rule="evenodd" clip-rule="evenodd" d="M168.192 127.49L167.694 126.787L168.134 125.878L166.61 125.175L164.852 122.684L174.317 121.395L175.079 122.45C174.383 122.932 173.735 123.482 173.145 124.091C172.266 125.008 171.535 126.056 170.977 127.197L168.192 127.49Z" fill="#DDDFE1"/>
<path fill-rule="evenodd" clip-rule="evenodd" d="M157.026 111.665L147.18 97.686C147.594 97.4358 148.073 97.3135 148.557 97.3343C153.481 97.3343 165.35 105.804 165.35 105.804L163.972 106.771L157.026 111.665Z" fill="#0EA49F"/>
<path fill-rule="evenodd" clip-rule="evenodd" d="M187.094 122.509H186.684H187.065H186.655H187.036C187.637 120.805 188.497 119.203 189.585 117.761C190.535 116.503 191.707 115.431 193.044 114.596C194.631 113.658 196.445 113.171 198.289 113.19C198.957 113.192 199.624 113.251 200.282 113.365L200.605 111.402C199.838 111.287 199.064 111.229 198.289 111.226C196.08 111.19 193.906 111.78 192.018 112.926C190.802 113.641 189.713 114.552 188.794 115.622C187.625 116.885 186.639 118.306 185.864 119.842C185.54 120.515 185.266 121.21 185.043 121.923L186.948 122.509H187.094Z" fill="#908C8F"/>
<path d="M183.956 115.624L181.406 121.031L191.4 125.742L193.949 120.335L183.956 115.624Z" fill="#EF464A"/>
<path fill-rule="evenodd" clip-rule="evenodd" d="M193.103 137.747C192.624 138.81 191.992 139.797 191.227 140.678C189.856 142.229 188.115 143.41 186.166 144.11C184.217 144.81 182.123 145.007 180.077 144.683C178.032 144.358 176.101 143.523 174.465 142.255C172.828 140.986 171.537 139.325 170.713 137.425C170.134 136.067 169.797 134.619 169.717 133.146C169.629 131.286 169.969 129.431 170.713 127.724L170.889 127.314C171.468 126.095 172.24 124.976 173.175 124.002C175.391 121.67 178.429 120.293 181.644 120.163C183.558 120.107 185.457 120.509 187.183 121.336C188.928 122.149 190.454 123.364 191.638 124.882C192.109 125.475 192.521 126.113 192.869 126.787C193.643 128.274 194.106 129.904 194.232 131.576C194.358 133.249 194.144 134.929 193.601 136.516C193.455 137.044 193.279 137.454 193.103 137.747Z" fill="#CA2D43"/>
<path fill-rule="evenodd" clip-rule="evenodd" d="M194.246 131.506L170.625 127.755L170.801 127.345C171.38 126.125 172.152 125.007 173.087 124.033L192.898 126.964C193.633 128.378 194.09 129.92 194.246 131.506Z" fill="#F9BEC9"/>
<path fill-rule="evenodd" clip-rule="evenodd" d="M193.103 137.748C192.624 138.811 191.992 139.798 191.227 140.678L170.713 137.425C170.134 136.068 169.797 134.62 169.717 133.146L193.719 136.605C193.455 137.044 193.279 137.455 193.103 137.748Z" fill="#F9BEC9"/>
<path fill-rule="evenodd" clip-rule="evenodd" d="M191.638 125C190.455 123.482 188.928 122.267 187.184 121.454L188.883 117.85L193.895 120.194L191.638 125Z" fill="#E43B42"/>
<path fill-rule="evenodd" clip-rule="evenodd" d="M181.937 144.957C180.114 144.957 178.314 144.556 176.662 143.784L179.036 138.773L191.315 140.678C190.162 142.012 188.736 143.081 187.133 143.815C185.53 144.548 183.788 144.927 182.025 144.927L181.937 144.957ZM193.66 136.634L180.97 134.817L183.344 129.776L194.275 131.505C194.275 131.857 194.275 132.238 194.275 132.619C194.268 133.985 194.04 135.34 193.601 136.634H193.66ZM192.927 126.904L185.22 125.79L187.242 121.453C188.986 122.266 190.513 123.481 191.696 124.999C192.147 125.595 192.539 126.233 192.868 126.904H192.927Z" fill="#B4273C"/>
<path fill-rule="evenodd" clip-rule="evenodd" d="M194.246 131.506L183.314 129.777L185.19 125.791L192.898 126.905C193.64 128.337 194.098 129.899 194.246 131.506Z" fill="#E2ABB7"/>
<path fill-rule="evenodd" clip-rule="evenodd" d="M191.316 140.678L179.125 138.744L181.001 134.787L193.69 136.604C193.69 137.014 193.368 137.425 193.192 137.835C192.706 138.867 192.074 139.824 191.316 140.678Z" fill="#E2ABB7"/>
<path fill-rule="evenodd" clip-rule="evenodd" d="M145.862 119.959C145.283 117.956 144.372 116.064 143.166 114.362C142.085 112.801 140.699 111.475 139.092 110.464C137.134 109.27 134.88 108.65 132.586 108.677H130.887L131.092 110.669H132.586C134.509 110.636 136.401 111.155 138.037 112.164C139.093 112.816 140.034 113.638 140.821 114.596C141.819 115.802 142.638 117.144 143.254 118.582C143.488 119.139 143.664 119.608 143.781 119.959C143.899 120.311 143.781 120.252 143.781 120.34L145.862 119.959Z" fill="#908C8F"/>
<path d="M147.439 113.525L137.252 117.801L139.566 123.313L149.753 119.037L147.439 113.525Z" fill="#44B75B"/>
<path fill-rule="evenodd" clip-rule="evenodd" d="M137.274 135.551C137.705 136.607 138.287 137.594 139.003 138.481C140.681 140.578 142.996 142.07 145.598 142.731C148.201 143.392 150.947 143.186 153.422 142.145C156.216 140.988 158.481 138.837 159.781 136.108C160.414 134.771 160.801 133.332 160.924 131.858C161.098 130.009 160.848 128.145 160.192 126.407L160.016 125.997C159.195 124.062 157.895 122.368 156.238 121.074C154.581 119.781 152.622 118.932 150.545 118.606C148.469 118.281 146.343 118.49 144.37 119.214C142.397 119.938 140.64 121.153 139.267 122.744C138.776 123.321 138.334 123.938 137.948 124.59C137.123 126.05 136.597 127.66 136.401 129.326C136.205 130.991 136.342 132.679 136.805 134.291C136.952 134.818 137.098 135.141 137.274 135.551Z" fill="#86C555"/>
<path fill-rule="evenodd" clip-rule="evenodd" d="M136.426 129.131L160.193 126.405L160.017 125.995C159.494 124.753 158.771 123.605 157.878 122.596L137.95 124.588C137.152 125.989 136.634 127.532 136.426 129.131Z" fill="#44B75B"/>
<path fill-rule="evenodd" clip-rule="evenodd" d="M137.276 135.55C137.706 136.606 138.289 137.593 139.005 138.481L159.783 136.107C160.415 134.77 160.802 133.331 160.926 131.857L136.807 134.29C136.953 134.817 137.1 135.14 137.276 135.55Z" fill="#44B75B"/>
<path fill-rule="evenodd" clip-rule="evenodd" d="M138.594 121.073L137.246 117.85L138.594 121.073Z" fill="#2B5166"/>
<path fill-rule="evenodd" clip-rule="evenodd" d="M139.297 122.743L138.594 121.072L139.297 122.743Z" fill="#614025"/>
<path fill-rule="evenodd" clip-rule="evenodd" d="M139.268 122.743L138.565 121.072L137.217 117.848L142.316 115.709L143.869 119.402C142.097 120.143 140.522 121.287 139.268 122.743Z" fill="#33AD51"/>
<path fill-rule="evenodd" clip-rule="evenodd" d="M148.646 143.111C146.795 143.108 144.968 142.69 143.3 141.889C141.632 141.088 140.164 139.923 139.004 138.481L151.284 137.074L153.423 142.144C151.913 142.789 150.288 143.118 148.646 143.111ZM138.301 134.143L137.773 130.392L137.598 128.985L147.415 127.872L149.584 133L138.301 134.143ZM137.949 124.59C138.335 123.938 138.777 123.32 139.268 122.743C140.521 121.287 142.097 120.144 143.869 119.402L145.715 123.828L137.949 124.59Z" fill="#79B74B"/>
<path fill-rule="evenodd" clip-rule="evenodd" d="M137.598 128.957L137.275 126.7V126.114C137.51 125.587 137.774 125.059 138.037 124.561L145.803 123.799L147.503 127.843L137.598 128.957Z" fill="#33AD51"/>
<path fill-rule="evenodd" clip-rule="evenodd" d="M139.005 138.48C138.289 137.593 137.706 136.605 137.276 135.55C137.165 135.301 137.067 135.046 136.982 134.788L138.36 134.612V134.143L149.643 133L151.342 137.074L139.005 138.48Z" fill="#33AD51"/>
<path d="M126.789 109.361L125.596 109.85L132.329 126.283L133.522 125.794L126.789 109.361Z" fill="#835B3E"/>
<path fill-rule="evenodd" clip-rule="evenodd" d="M128.453 106.185L122.856 108.5L116.086 111.255L114.972 108.5L113.741 105.54L112.54 102.58L111.338 99.6204L110.107 96.6605L108.906 93.7006L107.675 90.7114L106.473 87.7514L105.272 84.7915L104.129 82.0368L104.598 81.8316L111.836 78.8717L116.496 76.9668L117.258 78.8717L118.489 81.8316L119.69 84.7915L120.921 87.7514L122.123 90.7114L123.324 93.7006L124.555 96.6605L125.757 99.6204L126.958 102.58L128.189 105.54L128.453 106.185Z" fill="url(#paint0_linear_9_244)"/>
<path fill-rule="evenodd" clip-rule="evenodd" d="M118.489 81.831H104.598L111.836 78.8711H117.258L118.489 81.831Z" fill="#F9BEC9"/>
<path fill-rule="evenodd" clip-rule="evenodd" d="M120.923 87.7509H106.475L105.273 84.791H119.692L120.923 87.7509Z" fill="#F9BEC9"/>
<path fill-rule="evenodd" clip-rule="evenodd" d="M123.325 93.7002H108.907L107.676 90.7109H122.124L123.325 93.7002Z" fill="#F9BEC9"/>
<path fill-rule="evenodd" clip-rule="evenodd" d="M125.757 99.6201H111.338L110.107 96.6602H124.555L125.757 99.6201Z" fill="#F9BEC9"/>
<path fill-rule="evenodd" clip-rule="evenodd" d="M128.19 105.54H113.743L112.541 102.58H126.96L128.19 105.54Z" fill="#F9BEC9"/>
<path fill-rule="evenodd" clip-rule="evenodd" d="M122.856 108.5L116.086 111.255L114.973 108.5H122.856Z" fill="#F9BEC9"/>
<path fill-rule="evenodd" clip-rule="evenodd" d="M100.115 83.6774L120.483 75.3251L104.863 66.2109L100.115 83.6774Z" fill="url(#paint1_linear_9_244)"/>
<path d="M127.345 106.692L117.121 110.879L118.209 113.537L128.434 109.35L127.345 106.692Z" fill="#EF464A"/>
<path fill-rule="evenodd" clip-rule="evenodd" d="M116.087 111.372L113.449 104.925L113.743 105.657L114.944 108.588L116.087 111.343V111.372Z" fill="#2B5166"/>
<path fill-rule="evenodd" clip-rule="evenodd" d="M113.449 104.807L112.922 103.488L113.449 104.807Z" fill="#8195A1"/>
<path fill-rule="evenodd" clip-rule="evenodd" d="M122.182 108.501H114.973L113.742 105.541H120.981L122.182 108.501Z" fill="#B4273C"/>
<path fill-rule="evenodd" clip-rule="evenodd" d="M112.189 101.672L107.735 90.8582L108.878 93.7888L110.109 96.7195L111.31 99.6501L112.16 101.702L112.189 101.672ZM107.412 89.9498L104.101 82.0664L100.115 83.7075L104.13 82.0664L105.244 84.8212L106.475 87.7518L107.412 89.9498Z" fill="#2B5166"/>
<path fill-rule="evenodd" clip-rule="evenodd" d="M119.749 102.581H112.51L112.159 101.672L111.309 99.6207H118.518L119.749 102.551V102.581ZM117.317 96.7195H110.107L108.876 93.7888H116.115L117.317 96.7195ZM114.884 90.8582H107.675L107.382 90.1843L106.473 87.9276H113.683L114.884 90.8582ZM112.452 84.997H105.243L104.129 82.2422L104.568 82.0664H111.25L112.452 84.997Z" fill="#B4273C"/>
<path fill-rule="evenodd" clip-rule="evenodd" d="M111.25 81.8308H104.598L110.312 79.4863L111.25 81.8308Z" fill="#E2ABB7"/>
<path fill-rule="evenodd" clip-rule="evenodd" d="M113.684 87.7509H106.475L105.273 84.791H112.483L113.684 87.7509Z" fill="#E2ABB7"/>
<path fill-rule="evenodd" clip-rule="evenodd" d="M116.116 93.7002H108.907L107.734 90.8575L107.676 90.7109H114.914L116.116 93.7002Z" fill="#E2ABB7"/>
<path fill-rule="evenodd" clip-rule="evenodd" d="M118.548 99.6201H111.338L110.107 96.6602H117.317L118.548 99.6201Z" fill="#E2ABB7"/>
<path fill-rule="evenodd" clip-rule="evenodd" d="M120.981 105.54H113.743L113.45 104.807L112.922 103.489L112.629 102.756L112.541 102.58H119.75L120.981 105.54Z" fill="#E2ABB7"/>
<path fill-rule="evenodd" clip-rule="evenodd" d="M116.086 111.255L114.973 108.5H122.182L122.27 108.734L117.171 110.815L116.086 111.255Z" fill="#E2ABB7"/>
<path fill-rule="evenodd" clip-rule="evenodd" d="M118.256 113.482L117.172 110.815L122.271 108.734L123.355 111.401L118.256 113.482Z" fill="#E43B42"/>
<path d="M185.34 88.6805L178.609 105.115L179.803 105.604L186.533 89.1691L185.34 88.6805Z" fill="#835B3E"/>
<path d="M195.608 56.1237L183.646 85.332L196.013 90.3964L207.975 61.1881L195.608 56.1237Z" fill="url(#paint2_linear_9_244)"/>
<path d="M196.531 60.8481C196.936 60.8481 197.264 60.5201 197.264 60.1155C197.264 59.7108 196.936 59.3828 196.531 59.3828C196.127 59.3828 195.799 59.7108 195.799 60.1155C195.799 60.5201 196.127 60.8481 196.531 60.8481Z" fill="#E52E92"/>
<path fill-rule="evenodd" clip-rule="evenodd" d="M202.628 65.6256C202.632 65.8537 202.59 66.0803 202.504 66.2919C202.419 66.5034 202.292 66.6956 202.13 66.857C201.969 67.0184 201.777 67.1455 201.565 67.231C201.354 67.3165 201.127 67.3586 200.899 67.3546C200.669 67.3585 200.441 67.3166 200.228 67.2315C200.015 67.1463 199.821 67.0196 199.657 66.8586C199.494 66.6977 199.364 66.5057 199.275 66.294C199.186 66.0823 199.141 65.8551 199.141 65.6256C199.141 65.3947 199.186 65.166 199.274 64.9527C199.363 64.7393 199.492 64.5454 199.656 64.3822C199.819 64.2189 200.013 64.0893 200.226 64.001C200.439 63.9126 200.668 63.8672 200.899 63.8672C201.128 63.8672 201.356 63.9128 201.567 64.0015C201.779 64.0902 201.971 64.2203 202.132 64.3839C202.293 64.5476 202.42 64.7416 202.505 64.9548C202.59 65.168 202.632 65.3961 202.628 65.6256Z" fill="#E52E92"/>
<path d="M204.797 63.2232C205.25 63.2232 205.618 62.8558 205.618 62.4026C205.618 61.9494 205.25 61.582 204.797 61.582C204.344 61.582 203.977 61.9494 203.977 62.4026C203.977 62.8558 204.344 63.2232 204.797 63.2232Z" fill="#E52E92"/>
<path fill-rule="evenodd" clip-rule="evenodd" d="M195.859 66.4459C195.859 66.8169 195.749 67.1795 195.543 67.488C195.336 67.7964 195.043 68.0368 194.701 68.1788C194.358 68.3207 193.981 68.3578 193.617 68.2854C193.253 68.2131 192.919 68.0345 192.657 67.7722C192.394 67.5099 192.216 67.1757 192.143 66.8118C192.071 66.448 192.108 66.0709 192.25 65.7281C192.392 65.3854 192.633 65.0925 192.941 64.8864C193.249 64.6803 193.612 64.5703 193.983 64.5703C194.48 64.5703 194.958 64.7679 195.309 65.1196C195.661 65.4714 195.859 65.9485 195.859 66.4459Z" fill="#E52E92"/>
<path fill-rule="evenodd" clip-rule="evenodd" d="M201.719 70.725C201.719 70.9452 201.654 71.1606 201.532 71.3437C201.409 71.5268 201.235 71.6695 201.032 71.7538C200.829 71.8381 200.605 71.8601 200.389 71.8172C200.172 71.7742 199.974 71.6682 199.818 71.5125C199.663 71.3567 199.557 71.1582 199.514 70.9422C199.471 70.7262 199.493 70.5023 199.577 70.2988C199.661 70.0953 199.804 69.9214 199.987 69.7991C200.17 69.6767 200.386 69.6113 200.606 69.6113C200.901 69.6113 201.184 69.7287 201.393 69.9375C201.602 70.1463 201.719 70.4296 201.719 70.725Z" fill="#E52E92"/>
<path fill-rule="evenodd" clip-rule="evenodd" d="M192.253 72.805C192.253 73.0614 192.151 73.3074 191.969 73.4888C191.788 73.6701 191.542 73.7721 191.285 73.7721C191.029 73.7721 190.783 73.6701 190.602 73.4888C190.42 73.3074 190.318 73.0614 190.318 72.805C190.318 72.5485 190.42 72.3025 190.602 72.1211C190.783 71.9398 191.029 71.8379 191.285 71.8379C191.542 71.8379 191.788 71.9398 191.969 72.1211C192.151 72.3025 192.253 72.5485 192.253 72.805Z" fill="#E52E92"/>
<path fill-rule="evenodd" clip-rule="evenodd" d="M199.14 79.9265C199.14 80.5639 198.887 81.1751 198.436 81.6258C197.986 82.0765 197.374 82.3296 196.737 82.3296C196.105 82.3219 195.501 82.0653 195.057 81.6155C194.612 81.1657 194.363 80.5588 194.363 79.9265C194.363 79.297 194.613 78.6932 195.059 78.248C195.504 77.8028 196.107 77.5527 196.737 77.5527C197.369 77.5527 197.976 77.8019 198.426 78.2462C198.876 78.6906 199.132 79.2943 199.14 79.9265Z" fill="#E52E92"/>
<path fill-rule="evenodd" clip-rule="evenodd" d="M192.489 78.4623C192.489 78.6187 192.457 78.7736 192.397 78.9178C192.336 79.062 192.247 79.1925 192.135 79.3017C192.023 79.411 191.89 79.4967 191.745 79.5539C191.599 79.611 191.443 79.6385 191.287 79.6346C191.116 79.6616 190.94 79.6512 190.773 79.6039C190.606 79.5567 190.451 79.4738 190.319 79.361C190.187 79.2482 190.081 79.1082 190.009 78.9505C189.936 78.7928 189.898 78.6213 189.898 78.4477C189.898 78.2741 189.936 78.1025 190.009 77.9448C190.081 77.7871 190.187 77.6471 190.319 77.5343C190.451 77.4215 190.606 77.3386 190.773 77.2914C190.94 77.2442 191.116 77.2337 191.287 77.2607C191.606 77.2607 191.911 77.3873 192.137 77.6127C192.362 77.838 192.489 78.1436 192.489 78.4623Z" fill="#E52E92"/>
<path fill-rule="evenodd" clip-rule="evenodd" d="M199.14 75.6771C199.14 75.7643 199.123 75.8506 199.088 75.9308C199.054 76.011 199.004 76.0835 198.941 76.1437C198.878 76.204 198.803 76.2508 198.722 76.2815C198.64 76.3121 198.553 76.3258 198.466 76.3219C198.295 76.3219 198.131 76.2539 198.01 76.133C197.889 76.0121 197.821 75.8481 197.821 75.6771C197.8 75.5789 197.802 75.4773 197.825 75.3797C197.849 75.2821 197.894 75.191 197.957 75.113C198.02 75.035 198.1 74.9721 198.191 74.9289C198.281 74.8857 198.38 74.8633 198.481 74.8633C198.581 74.8633 198.68 74.8857 198.771 74.9289C198.861 74.9721 198.941 75.035 199.004 75.113C199.068 75.191 199.113 75.2821 199.136 75.3797C199.159 75.4773 199.161 75.5789 199.14 75.6771Z" fill="#E52E92"/>
<path fill-rule="evenodd" clip-rule="evenodd" d="M193.28 82.6238C193.286 82.8568 193.222 83.0863 193.097 83.2829C192.971 83.4795 192.79 83.6342 192.577 83.7275C192.363 83.8207 192.127 83.8482 191.897 83.8063C191.668 83.7645 191.456 83.6551 191.289 83.4924C191.123 83.3297 191.008 83.121 190.96 82.8928C190.913 82.6647 190.934 82.4274 191.022 82.2115C191.11 81.9956 191.26 81.8108 191.453 81.6806C191.647 81.5505 191.874 81.4809 192.107 81.4808C192.26 81.4769 192.412 81.5036 192.554 81.5593C192.696 81.615 192.825 81.6986 192.935 81.8051C193.044 81.9117 193.131 82.039 193.19 82.1796C193.249 82.3202 193.28 82.4712 193.28 82.6238Z" fill="#E52E92"/>
<path fill-rule="evenodd" clip-rule="evenodd" d="M195.126 87.7524C195.126 88.0555 195.005 88.3461 194.791 88.5605C194.577 88.7748 194.286 88.8953 193.983 88.8953C193.68 88.8953 193.389 88.7748 193.175 88.5605C192.96 88.3461 192.84 88.0555 192.84 87.7524C192.84 87.4492 192.96 87.1586 193.175 86.9442C193.389 86.7299 193.68 86.6094 193.983 86.6094C194.286 86.6094 194.577 86.7299 194.791 86.9442C195.005 87.1586 195.126 87.4492 195.126 87.7524Z" fill="#E52E92"/>
<path fill-rule="evenodd" clip-rule="evenodd" d="M187.419 83.4729C187.419 83.641 187.369 83.8053 187.275 83.9451C187.182 84.0848 187.049 84.1938 186.894 84.2581C186.739 84.3224 186.568 84.3393 186.403 84.3065C186.238 84.2737 186.086 84.1927 185.968 84.0739C185.849 83.955 185.768 83.8036 185.735 83.6388C185.702 83.4739 185.719 83.303 185.783 83.1477C185.848 82.9924 185.957 82.8596 186.096 82.7662C186.236 82.6728 186.401 82.623 186.569 82.623C186.794 82.623 187.01 82.7126 187.17 82.8719C187.329 83.0313 187.419 83.2475 187.419 83.4729Z" fill="#E52E92"/>
<path fill-rule="evenodd" clip-rule="evenodd" d="M196.415 71.4867C196.415 71.6664 196.361 71.842 196.262 71.9914C196.162 72.1408 196.02 72.2572 195.854 72.326C195.688 72.3947 195.505 72.4127 195.329 72.3776C195.153 72.3426 194.991 72.2561 194.864 72.129C194.737 72.002 194.65 71.8401 194.615 71.6639C194.58 71.4876 194.598 71.305 194.667 71.139C194.736 70.973 194.852 70.8311 195.001 70.7312C195.151 70.6314 195.326 70.5781 195.506 70.5781C195.747 70.5781 195.978 70.6739 196.149 70.8443C196.319 71.0147 196.415 71.2458 196.415 71.4867Z" fill="#E52E92"/>
<path fill-rule="evenodd" clip-rule="evenodd" d="M200.987 61.758C200.987 61.8823 200.937 62.0016 200.849 62.0895C200.761 62.1774 200.642 62.2269 200.518 62.2269C200.393 62.2269 200.274 62.1774 200.186 62.0895C200.098 62.0016 200.049 61.8823 200.049 61.758C200.049 61.6336 200.098 61.5143 200.186 61.4263C200.274 61.3384 200.393 61.2891 200.518 61.2891C200.642 61.2891 200.761 61.3384 200.849 61.4263C200.937 61.5143 200.987 61.6336 200.987 61.758Z" fill="#E52E92"/>
<path fill-rule="evenodd" clip-rule="evenodd" d="M211.948 62.8121L191.58 54.4892L207.23 45.3457L211.948 62.8121Z" fill="url(#paint3_linear_9_244)"/>
<path d="M184.72 85.8736L183.631 88.5312L193.854 92.7201L194.943 90.0625L184.72 85.8736Z" fill="#E52E92"/>
<path fill-rule="evenodd" clip-rule="evenodd" d="M193.836 92.6162L188.707 90.5354L193.836 92.6162L194.92 89.9493L189.821 87.8686L195.975 90.3889L207.961 61.1707L201.778 58.6504L211.947 62.8119L207.961 61.1707L195.975 90.3889L194.92 89.9493L193.836 92.6162Z" fill="#2B5166"/>
<path fill-rule="evenodd" clip-rule="evenodd" d="M200.899 67.4132C200.669 67.4171 200.441 67.3752 200.228 67.2901C200.015 67.2049 199.821 67.0782 199.657 66.9173C199.494 66.7564 199.364 66.5644 199.275 66.3527C199.186 66.141 199.141 65.9137 199.141 65.6842C199.141 65.2178 199.326 64.7706 199.656 64.4408C199.985 64.1111 200.433 63.9258 200.899 63.9258C201.128 63.9257 201.356 63.9714 201.567 64.0601C201.779 64.1488 201.971 64.2789 202.132 64.4425C202.293 64.6062 202.42 64.8003 202.505 65.0135C202.59 65.2267 202.632 65.4546 202.628 65.6842C202.632 65.9123 202.59 66.139 202.504 66.3505C202.419 66.5621 202.292 66.7542 202.13 66.9156C201.969 67.077 201.777 67.2042 201.565 67.2897C201.354 67.3752 201.127 67.4172 200.899 67.4132Z" fill="#D4168B"/>
<path d="M204.797 63.2232C205.25 63.2232 205.618 62.8558 205.618 62.4026C205.618 61.9494 205.25 61.582 204.797 61.582C204.344 61.582 203.977 61.9494 203.977 62.4026C203.977 62.8558 204.344 63.2232 204.797 63.2232Z" fill="#D4168B"/>
<path fill-rule="evenodd" clip-rule="evenodd" d="M200.606 71.8386C200.386 71.8386 200.17 71.7733 199.987 71.6509C199.804 71.5285 199.661 71.3546 199.577 71.1511C199.493 70.9477 199.471 70.7238 199.514 70.5078C199.557 70.2917 199.663 70.0933 199.818 69.9375C199.974 69.7818 200.172 69.6757 200.389 69.6327C200.605 69.5897 200.829 69.6118 201.032 69.6961C201.235 69.7804 201.409 69.9231 201.532 70.1063C201.654 70.2894 201.719 70.5047 201.719 70.725C201.719 71.0203 201.602 71.3036 201.393 71.5125C201.184 71.7213 200.901 71.8386 200.606 71.8386Z" fill="#D4168B"/>
<path fill-rule="evenodd" clip-rule="evenodd" d="M196.737 82.3296C196.105 82.3219 195.501 82.0653 195.057 81.6155C194.612 81.1657 194.363 80.5588 194.363 79.9265C194.363 79.297 194.613 78.6932 195.059 78.248C195.504 77.8028 196.107 77.5527 196.737 77.5527C197.369 77.5527 197.976 77.8019 198.426 78.2462C198.876 78.6906 199.132 79.2943 199.14 79.9265C199.14 80.5639 198.887 81.1751 198.436 81.6258C197.986 82.0765 197.374 82.3296 196.737 82.3296Z" fill="#D4168B"/>
<path fill-rule="evenodd" clip-rule="evenodd" d="M198.466 76.2049C198.381 76.2049 198.297 76.1882 198.219 76.1558C198.141 76.1234 198.07 76.076 198.01 76.0161C197.95 75.9562 197.902 75.8851 197.87 75.8069C197.838 75.7287 197.821 75.6448 197.821 75.5602C197.815 75.4245 197.85 75.2903 197.922 75.1751C197.994 75.0598 198.099 74.969 198.223 74.9144C198.347 74.8597 198.485 74.8439 198.619 74.869C198.752 74.8941 198.875 74.9589 198.971 75.0549C199.067 75.1509 199.132 75.2736 199.157 75.4071C199.182 75.5405 199.166 75.6783 199.111 75.8026C199.057 75.9269 198.966 76.0318 198.851 76.1036C198.736 76.1754 198.601 76.2107 198.466 76.2049Z" fill="#D4168B"/>
<path fill-rule="evenodd" clip-rule="evenodd" d="M192.106 83.7663C191.91 83.7671 191.718 83.7166 191.549 83.6198L192.399 81.5098C192.676 81.573 192.92 81.7374 193.082 81.9706C193.245 82.2039 193.314 82.4893 193.278 82.7712C193.241 83.0532 193.101 83.3114 192.884 83.4954C192.667 83.6794 192.39 83.7759 192.106 83.7663Z" fill="#D4168B"/>
<path fill-rule="evenodd" clip-rule="evenodd" d="M193.983 88.8953C193.68 88.8953 193.389 88.7748 193.175 88.5605C192.96 88.3461 192.84 88.0555 192.84 87.7524C192.84 87.4492 192.96 87.1586 193.175 86.9442C193.389 86.7299 193.68 86.6094 193.983 86.6094C194.286 86.6094 194.577 86.7299 194.791 86.9442C195.005 87.1586 195.126 87.4492 195.126 87.7524C195.126 88.0555 195.005 88.3461 194.791 88.5605C194.577 88.7748 194.286 88.8953 193.983 88.8953Z" fill="#D4168B"/>
<path fill-rule="evenodd" clip-rule="evenodd" d="M200.518 62.2269H200.312L200.664 61.377C200.76 61.4033 200.843 61.4609 200.902 61.5407C200.96 61.6205 200.99 61.7177 200.986 61.8165C200.972 61.9305 200.916 62.0352 200.83 62.1109C200.744 62.1865 200.633 62.2278 200.518 62.2269Z" fill="#D4168B"/>
<path d="M189.805 87.85L188.717 90.5078L193.815 92.5958L194.904 89.938L189.805 87.85Z" fill="#D4168B"/>
<path d="M156.052 77.5018L154.115 91.3164L155.102 91.4547L157.039 77.6402L156.052 77.5018Z" fill="#835B3E"/>
<path fill-rule="evenodd" clip-rule="evenodd" d="M168.016 52.3208L167.459 56.3064L166.609 62.2262L165.584 69.67L164.558 76.8793L154.184 75.414L154.74 71.487L155.737 64.3363L156.645 57.8303L157.495 51.7053L157.612 50.8555L160.66 51.2951L168.016 52.3208Z" fill="url(#paint4_linear_9_244)"/>
<path fill-rule="evenodd" clip-rule="evenodd" d="M171.357 52.7891L154.271 50.386L164.382 40.4219L171.357 52.7891Z" fill="url(#paint5_linear_9_244)"/>
<path d="M156.031 77.5156L155.715 79.75L164.304 80.9646L164.62 78.7302L156.031 77.5156Z" fill="url(#paint6_linear_9_244)"/>
<path fill-rule="evenodd" clip-rule="evenodd" d="M163.328 79.1354L163.65 76.9081L159.342 76.2927L164.558 77.0253H163.65L163.328 79.2526V79.1354Z" fill="#2B5166"/>
<path d="M164.67 124.196L156.213 142.111L159.685 143.75L168.142 125.835L164.67 124.196Z" fill="#F04E43"/>
<path fill-rule="evenodd" clip-rule="evenodd" d="M164.676 124.238L163.504 126.729L164.149 130.422L164.647 133.323L166.2 129.982L165.731 127.081L165.262 124.531L164.676 124.238Z" fill="#F6EC3E"/>
<path fill-rule="evenodd" clip-rule="evenodd" d="M161.95 130.041L160.367 133.382L161.012 137.045L161.51 139.946L163.093 136.606L162.594 133.704L161.95 130.041Z" fill="#F6EC3E"/>
<path fill-rule="evenodd" clip-rule="evenodd" d="M158.815 136.664L157.232 140.005L157.731 142.877L159.694 143.785L159.958 143.229L159.46 140.357L158.815 136.664Z" fill="#F6EC3E"/>
<path fill-rule="evenodd" clip-rule="evenodd" d="M158.141 143.081L156.207 142.173L157.233 140.004L157.731 142.935L158.141 143.14V143.081ZM159.431 140.356L158.815 136.663L160.369 133.381L160.984 137.044L159.431 140.356Z" fill="#DC453C"/>
<path fill-rule="evenodd" clip-rule="evenodd" d="M166.639 125.146L166.521 125.117L166.639 125.146Z" fill="#C6CACB"/>
<path fill-rule="evenodd" clip-rule="evenodd" d="M162.567 133.704L161.951 130.041L160.955 132.122L163.505 126.759L164.12 130.422L162.567 133.704ZM165.703 127.081L165.263 124.531L166.523 125.117L165.703 127.081Z" fill="#DC453C"/>
<path fill-rule="evenodd" clip-rule="evenodd" d="M164.149 130.422L163.504 126.729L164.676 124.238L165.262 124.531L165.731 127.081L164.149 130.422Z" fill="#E1DB2D"/>
<path fill-rule="evenodd" clip-rule="evenodd" d="M161.012 137.045L160.367 133.382L160.983 132.122L161.95 130.041L162.594 133.704L161.012 137.045Z" fill="#E1DB2D"/>
<path fill-rule="evenodd" clip-rule="evenodd" d="M158.17 143.082L157.731 142.877L157.232 140.005L158.815 136.664L159.46 140.357L158.17 143.082Z" fill="#E1DB2D"/>
<path d="M135.706 114.966L131.902 115.486L134.588 135.114L138.391 134.594L135.706 114.966Z" fill="#E52E92"/>
<path fill-rule="evenodd" clip-rule="evenodd" d="M131.883 115.504L132.264 118.229L134.813 120.955L136.806 123.124L136.308 119.46L134.286 117.321L132.528 115.387L131.883 115.504Z" fill="#E298B3"/>
<path fill-rule="evenodd" clip-rule="evenodd" d="M132.762 121.834L133.26 125.497L135.81 128.223L137.802 130.391L137.304 126.728L135.282 124.559L132.762 121.834Z" fill="#E298B3"/>
<path fill-rule="evenodd" clip-rule="evenodd" d="M133.758 129.102L134.256 132.765L136.22 134.904L138.359 134.611L138.271 133.996L136.278 131.827L133.758 129.102Z" fill="#E298B3"/>
<path fill-rule="evenodd" clip-rule="evenodd" d="M134.578 135.11L134.256 132.766L134.578 135.11L136.219 134.905L134.578 135.11Z" fill="#614025"/>
<path fill-rule="evenodd" clip-rule="evenodd" d="M134.578 135.11L134.256 132.766L136.219 134.905L134.578 135.11Z" fill="#D4168B"/>
<path fill-rule="evenodd" clip-rule="evenodd" d="M133.318 125.996L133.26 125.498L133.318 125.996Z" fill="#734F37"/>
<path fill-rule="evenodd" clip-rule="evenodd" d="M134.139 131.945L133.318 125.996L133.26 125.498L135.809 128.224L136.278 131.828L133.758 129.103L134.139 131.945Z" fill="#D4168B"/>
<path fill-rule="evenodd" clip-rule="evenodd" d="M135.282 124.56L132.733 121.834L132.234 118.23L134.784 120.955L135.282 124.56ZM134.286 117.321L132.527 115.416L133.993 115.211L134.286 117.321Z" fill="#D4168B"/>
<path fill-rule="evenodd" clip-rule="evenodd" d="M134.813 120.955L132.264 118.229L131.883 115.504L132.528 115.387L134.286 117.321L134.813 120.955Z" fill="#C98BA2"/>
<path fill-rule="evenodd" clip-rule="evenodd" d="M135.81 128.223L133.26 125.497L132.762 121.834L135.282 124.559L135.81 128.223Z" fill="#C98BA2"/>
<path fill-rule="evenodd" clip-rule="evenodd" d="M136.22 134.904L134.256 132.765L134.139 131.944L133.758 129.102L136.278 131.827L136.688 134.846L136.22 134.904Z" fill="#C98BA2"/>
<path fill-rule="evenodd" clip-rule="evenodd" d="M173 182L117.875 169.135V126.465L173 139.36V182Z" fill="#9F7651"/>
<path fill-rule="evenodd" clip-rule="evenodd" d="M121.332 167.142L167.899 177.897L169.189 143.492L121.332 132.561V167.142Z" fill="#EF464A"/>
<path fill-rule="evenodd" clip-rule="evenodd" d="M173 182.001L210.746 172.857V130.188L173 139.36V182.001Z" fill="#835B3E"/>
<path fill-rule="evenodd" clip-rule="evenodd" d="M176.516 144.957L175.812 177.897L208.665 170.454L206.76 138.217L176.516 144.957Z" fill="#CA2D43"/>
<path fill-rule="evenodd" clip-rule="evenodd" d="M172.999 139.36L159.664 163.097L102.576 149.118L117.874 126.465L172.999 139.36Z" fill="#BB936C"/>
<path fill-rule="evenodd" clip-rule="evenodd" d="M173 139.36L186.657 163.098L221.121 152.548L210.746 130.188L173 139.36Z" fill="#BB936C"/>
<path fill-rule="evenodd" clip-rule="evenodd" d="M216.43 104.251H216.196C217.016 100.911 217.807 97.5697 218.599 94.2288H218.364L216.342 96.6611L216.108 96.4853L218.482 92.91L210.071 96.1923V95.8406L216.958 92.4997H214.027V92.2358L218.745 91.7964L208.898 86.0523L209.045 85.7593L217.163 89.7156L215.229 87.1366L215.463 86.9314L219.009 90.7999C218.511 87.3124 218.042 84.1768 217.602 81.0703H217.954C218.54 83.5906 219.097 86.1109 219.771 88.9829C220.152 87.2245 220.445 85.9058 220.767 84.6163H221.06C220.767 86.3747 220.504 88.1038 220.123 90.4775L227.654 82.3305L227.918 82.5063L221.705 90.2724L222.057 90.7999L225.808 88.2796L226.072 88.7486L221.647 91.2982L232.167 92.0893V92.3825H221.735V92.6755L225.779 94.5511V94.8441L221.676 93.3203C223.376 95.8114 224.9 98.0971 226.424 100.383L226.13 100.588L220.269 93.3495C220.709 95.2837 221.061 96.7197 221.383 98.1264H221.06C220.679 96.8662 220.269 95.5768 219.859 94.2873H219.478C218.423 97.5403 217.427 100.911 216.43 104.251Z" fill="#8DA3AF"/>
<path fill-rule="evenodd" clip-rule="evenodd" d="M117.229 65.9765C116.555 62.6063 115.852 59.2361 115.178 55.8659H114.914L114.123 58.943H113.8C114.005 57.6242 114.21 56.3055 114.445 54.723L108.232 61.2289L107.939 60.9944C109.492 59.1188 111.016 57.2139 112.775 55.1332L110.049 56.3348V56.071C111.309 55.3091 112.599 54.5764 114.152 53.6972L103.074 52.7594V52.4078L112.1 52.5836L109.17 51.0597L109.316 50.7959L114.181 52.7888C112.247 49.8581 110.518 47.1913 108.76 44.5537L109.082 44.3486L114.064 50.7666L113.097 46.3707H113.419C113.888 48.0705 114.386 49.7702 115.002 51.9682C116.233 48.0998 117.317 44.7589 118.372 41.418H118.694L116.321 51.0889L116.877 51.4114C117.669 50.1219 118.46 48.8324 119.222 47.5429L119.632 47.8653L116.702 52.0561L126.548 48.3049V48.5979L117.2 52.7594V53.0232H121.684V53.3456L117.317 53.6972L124.585 58.0932L124.409 58.3862L116.145 54.2833L119.075 58.1517L118.812 58.3276L116.086 55.397L115.734 55.5728C116.233 59.0309 116.731 62.4891 117.258 65.9765H117.229Z" fill="#8DA3AF"/>
<path fill-rule="evenodd" clip-rule="evenodd" d="M141.025 77.1125H140.762C141.084 75.3835 141.406 73.6544 141.758 71.6616L140.439 73.3613H140.263L142.051 70.4307L134.725 73.6838V73.4786L140.586 70.548H138.241V70.3428L142.022 69.9032L135.633 66.3279V66.0934L140.996 68.4086L138.886 65.9762L139.033 65.8297L141.963 68.7603C141.406 65.8297 140.938 63.3973 140.439 60.9062H140.644C141.289 63.2214 141.905 65.5366 142.52 67.8518H142.989C142.989 66.7675 142.989 65.6832 142.989 64.5988H143.37C143.37 65.7418 143.135 66.8847 142.96 68.2621L147.912 62.4009L148.088 62.5474L143.604 68.6138H143.78L146.711 67.0606V67.2657L144.103 68.9948L150.198 69.2292V69.4929L143.546 69.7567L146.799 71.1634V71.3686L144.044 70.4307L143.897 70.6651C145.392 72.6873 146.828 74.6802 148.44 76.7023L143.634 71.0461C143.81 71.7788 143.985 72.5114 144.191 73.2441H143.956C143.634 72.3356 143.311 71.4271 142.901 70.3135C142.11 73.039 141.494 75.0904 141.025 77.1125Z" fill="#CCD6DA"/>
<path fill-rule="evenodd" clip-rule="evenodd" d="M183.345 43.1182C184.429 40.891 185.513 38.6637 186.627 36.4364H186.451L184.664 37.8138L184.517 37.6673L186.744 35.528L180.326 36.4951V36.2313L185.689 34.9711L183.608 34.4437V34.2385L187.008 34.6781L181.147 29.2857V29.0807L186.217 33.1835L185.279 31.0441H185.455L187.36 34.3264C187.535 31.7768 187.711 29.5203 187.916 27.2344H188.151C188.151 29.0807 188.151 30.9563 188.151 33.0956L189.528 30.165H189.733L188.18 34.0627L194.774 29.5495H194.921L189.323 34.0333L189.47 34.473L192.4 33.2714V33.6524L188.884 34.7367L196.151 36.9639V37.1691L188.796 35.4986V35.6745L191.345 37.6673L191.199 37.8432L188.561 36.1434L190.788 41.8288H190.525C189.616 39.9239 188.708 38.019 187.594 35.821C187.594 37.257 187.594 38.312 187.594 39.3671H187.36C187.36 38.4 187.213 37.4329 187.125 36.4364H186.861C185.806 38.7223 184.576 41.0375 183.345 43.1182Z" fill="#8DA3AF"/>
<path fill-rule="evenodd" clip-rule="evenodd" d="M172.501 96.3086C171.827 95.107 171.299 94.0521 170.654 93.0556C170.332 92.5281 170.098 92.2937 169.834 92.2937C169.57 92.2937 169.277 92.5281 168.896 92.997V91.7662L165.086 93.9935C165.702 93.4073 166.317 92.8798 166.932 92.2643C168.075 91.1214 167.987 90.6525 166.493 90.0664L167.636 89.832L167.782 89.5389L164.471 86.8428C165.145 87.1944 165.819 87.6047 166.522 87.9564C166.87 88.1425 167.233 88.2992 167.606 88.4252H168.046C168.486 88.4252 168.661 88.1028 168.515 87.4874C168.368 86.872 168.515 87.1065 168.515 86.9893L169.629 87.8391C169.965 87.4364 170.251 86.9936 170.479 86.5204C170.801 85.6413 170.977 84.6741 171.328 83.7363C171.328 85.2016 171.065 86.667 170.918 88.1616H171.387L172.266 87.3996C171.533 88.8356 171.739 89.2459 173.263 89.2459C174.405 89.2459 175.519 89.0701 176.662 89.0701C175.314 89.3924 173.937 89.7147 172.618 90.0957C172.208 90.0957 171.504 90.4474 172.266 91.0335C171.944 91.2094 171.475 91.2973 171.328 91.561C171.196 91.9306 171.196 92.3344 171.328 92.704C171.739 93.9642 172.09 95.0484 172.501 96.3086Z" fill="#CCD6DA"/>
<path fill-rule="evenodd" clip-rule="evenodd" d="M97.5367 111.607C97.5367 110.787 97.8004 109.966 97.859 109.145C97.9177 108.325 97.8591 107.475 97.1851 107.475C96.8237 107.501 96.4681 107.58 96.13 107.709L96.8627 106.801V106.479H92.584L94.8699 106.039C95.2726 105.966 95.6659 105.848 96.0421 105.687C96.7747 105.365 96.804 104.955 96.0421 104.457L95.6611 104.105H97.0385C97.0652 103.583 97.0159 103.059 96.892 102.552C96.5696 101.643 96.1007 100.793 95.7783 99.8555L98.2694 103.519L98.709 103.343L98.8848 102.171H99.0314C99.2365 103.138 99.4709 103.577 99.8812 103.577C100.341 103.482 100.761 103.246 101.083 102.903C101.933 102.171 102.695 101.35 103.574 100.617C102.753 101.731 101.874 102.815 101.112 103.958C100.848 104.31 100.467 104.925 101.376 104.925C101.229 105.248 100.907 105.629 100.966 105.922C101.024 106.215 101.405 106.567 101.698 106.801C102.636 107.446 103.574 108.032 104.629 108.764C103.31 108.266 102.226 107.797 101.112 107.416C100.859 107.385 100.603 107.385 100.35 107.416C99.8519 107.416 99.7347 107.768 99.7347 108.647L98.9434 107.709C98.4746 108.97 98.0056 110.288 97.5367 111.607Z" fill="#CCD6DA"/>
<path fill-rule="evenodd" clip-rule="evenodd" d="M196.884 126.874H196.533C195.473 122.412 195.624 117.748 196.972 113.364C197.421 113.334 197.872 113.334 198.32 113.364H198.965C197.381 117.736 196.674 122.376 196.884 127.021V126.874ZM199.815 111.284C199.337 111.255 198.857 111.255 198.379 111.284H197.822C199.162 108.285 201.061 105.569 203.42 103.283L203.801 104.631C202.176 106.662 200.826 108.899 199.786 111.284H199.815ZM206.848 101.32V100.88L205.94 101.114C207.833 99.5979 209.911 98.3277 212.124 97.334C210.217 98.4811 208.43 99.8163 206.79 101.32H206.848Z" fill="#CCD6DA"/>
<path fill-rule="evenodd" clip-rule="evenodd" d="M205.442 102.581L205.148 101.555L205.764 101.027L206.672 100.793V101.232L205.442 102.581Z" fill="#FBD1CD"/>
<path fill-rule="evenodd" clip-rule="evenodd" d="M205.149 102.991L204.357 102.317L205.149 101.643L205.442 102.668L205.149 102.991Z" fill="#F5D1CC"/>
<path fill-rule="evenodd" clip-rule="evenodd" d="M203.77 104.602L203.389 103.254L204.385 102.346L205.176 103.02C204.678 103.518 204.209 104.046 203.77 104.602Z" fill="#F5F5C8"/>
<path fill-rule="evenodd" clip-rule="evenodd" d="M197.176 128.956C196.971 128.252 196.795 127.549 196.648 126.875H197C197.022 127.571 197.081 128.266 197.176 128.956Z" fill="#E0D6CF"/>
<path fill-rule="evenodd" clip-rule="evenodd" d="M196.971 113.278C197.199 112.581 197.463 111.896 197.762 111.227H198.319C198.797 111.198 199.277 111.198 199.755 111.227C199.462 111.871 199.198 112.516 198.963 113.161H198.319C197.867 113.17 197.417 113.209 196.971 113.278Z" fill="#E5E4E2"/>
<path fill-rule="evenodd" clip-rule="evenodd" d="M175.754 113.102C175.754 113.102 189.264 69.846 186.128 44.0273C186.128 44.0273 190.143 56.6876 185.396 80.9824L183.608 85.349L184.399 85.6713C184.399 86.2574 184.135 86.8728 183.989 87.4883L183.608 88.4554C182.524 92.8806 181.146 97.599 179.447 102.669L178.479 105.013C177.835 107.71 176.838 110.376 175.754 113.102Z" fill="#CCD6DA"/>
<path fill-rule="evenodd" clip-rule="evenodd" d="M178.742 105.13L179.709 102.785C179.299 103.518 179.035 104.338 178.742 105.13Z" fill="#E0D6CF"/>
<path fill-rule="evenodd" clip-rule="evenodd" d="M184.399 85.6713L183.607 85.349L185.395 80.9824C185.102 82.5063 184.78 84.0595 184.399 85.6713Z" fill="#FAD5E5"/>
<path fill-rule="evenodd" clip-rule="evenodd" d="M140.616 101.731C140.616 101.731 140.352 100.236 139.766 97.7747C139.779 97.6873 139.779 97.5984 139.766 97.511C139.443 96.1336 139.004 94.5803 138.447 92.6461C138.664 92.4316 138.826 92.1673 138.918 91.8762C139.01 91.5851 139.029 91.276 138.974 90.9756C138.922 90.5715 138.739 90.1957 138.453 89.9049C138.167 89.6141 137.795 89.4241 137.392 89.3638C137.128 88.5433 136.835 87.7228 136.513 86.8729C136.775 86.6821 136.98 86.4224 137.104 86.1223C137.229 85.8223 137.267 85.4937 137.216 85.1731C137.179 84.7119 136.967 84.2824 136.624 83.972C136.281 83.6616 135.832 83.4936 135.37 83.5026H135.223C134.813 82.5648 134.403 81.5977 133.963 80.572C134.257 80.1873 134.393 79.7054 134.344 79.2239C134.302 78.7568 134.091 78.321 133.752 77.9975C133.412 77.6741 132.966 77.485 132.498 77.4656C131.853 76.2347 131.208 75.0039 130.505 73.7731C130.411 73.391 130.207 73.0446 129.919 72.7766C128.893 71.0768 127.78 69.4064 126.607 67.7946C126.622 67.668 126.622 67.5402 126.607 67.4136C126.549 67.0134 126.368 66.6409 126.09 66.3472C125.812 66.0534 125.45 65.8527 125.054 65.7725C124.263 64.776 123.413 63.8089 122.534 62.8418C122.416 62.8125 142.755 77.7001 140.616 101.731Z" fill="#8DA3AF"/>
<path fill-rule="evenodd" clip-rule="evenodd" d="M126.52 67.7349C126.032 67.0511 125.504 66.3772 124.938 65.7129C125.334 65.7932 125.696 65.9939 125.974 66.2876C126.252 66.5813 126.432 66.9538 126.491 67.354C126.515 67.4795 126.525 67.6072 126.52 67.7349Z" fill="#E5E8EA"/>
<path fill-rule="evenodd" clip-rule="evenodd" d="M138.36 92.5284C138.037 91.5026 137.686 90.389 137.305 89.2461C137.708 89.3063 138.08 89.4962 138.366 89.787C138.651 90.0778 138.834 90.4538 138.887 90.8579C138.942 91.1582 138.922 91.4674 138.83 91.7585C138.739 92.0496 138.577 92.3139 138.36 92.5284Z" fill="#E5E8EA"/>
<path fill-rule="evenodd" clip-rule="evenodd" d="M133.875 80.5127C133.407 79.487 132.938 78.432 132.41 77.4062C132.879 77.4257 133.324 77.6147 133.664 77.9381C134.004 78.2616 134.214 78.6975 134.256 79.1646C134.305 79.6461 134.169 80.128 133.875 80.5127Z" fill="#E5E8EA"/>
<path fill-rule="evenodd" clip-rule="evenodd" d="M130.418 73.7132L129.832 72.7168C130.12 72.9848 130.324 73.3311 130.418 73.7132Z" fill="#E5E8EA"/>
<path fill-rule="evenodd" clip-rule="evenodd" d="M136.424 86.7552C136.043 85.6416 135.604 84.528 135.135 83.3851H135.281C135.744 83.3761 136.193 83.544 136.536 83.8544C136.879 84.1648 137.09 84.5944 137.128 85.0556C137.179 85.3762 137.14 85.7046 137.016 86.0047C136.892 86.3047 136.687 86.5644 136.424 86.7552Z" fill="#E5E8EA"/>
<path fill-rule="evenodd" clip-rule="evenodd" d="M139.766 97.7736V97.3926C139.794 97.5179 139.794 97.6482 139.766 97.7736Z" fill="#E5E8EA"/>
<path fill-rule="evenodd" clip-rule="evenodd" d="M172.354 78.461L173.467 49.4187L179.182 40.9492L172.354 78.461Z" fill="#6A8695"/>
<path fill-rule="evenodd" clip-rule="evenodd" d="M102.987 93.7001L90.7953 88.6301L89.4473 84.7324L102.987 93.7001Z" fill="#6A8695"/>
<path fill-rule="evenodd" clip-rule="evenodd" d="M192.928 98.4489L208.05 68.3223L206.584 77.3192L192.928 98.4489Z" fill="#6A8695"/>
<path fill-rule="evenodd" clip-rule="evenodd" d="M169.512 111.109L162.039 95.166L165.79 97.1002L169.512 111.109Z" fill="#8DA3AF"/>
<path fill-rule="evenodd" clip-rule="evenodd" d="M137.245 109.291L128.688 85.7873V78.9883L137.245 109.291Z" fill="#6A8695"/>
<path fill-rule="evenodd" clip-rule="evenodd" d="M204.768 127.462L218.424 123.623L227.773 126.026L204.768 127.462Z" fill="#8DA3AF"/>
<path fill-rule="evenodd" clip-rule="evenodd" d="M236.916 143.755L218.189 134.025L229.795 136.897L236.916 143.755Z" fill="#CCD6DA"/>
<path fill-rule="evenodd" clip-rule="evenodd" d="M94.5762 141.616V137.132L110.226 126.025L94.5762 141.616Z" fill="#6A8695"/>
<path fill-rule="evenodd" clip-rule="evenodd" d="M82.8828 122.655C84.7581 120.215 87.2023 118.272 90.0018 116.995C92.8013 115.718 95.871 115.145 98.9426 115.328C102.76 115.378 106.543 116.061 110.137 117.35V117.644C110.09 117.862 110.103 118.09 110.176 118.301C110.248 118.513 110.377 118.701 110.548 118.845L108.32 118.405C108.286 118.143 108.168 117.898 107.983 117.708C107.798 117.518 107.557 117.392 107.295 117.35H107.031C106.793 117.344 106.558 117.408 106.355 117.533C106.152 117.657 105.99 117.839 105.888 118.054C103.626 117.736 101.344 117.569 99.0598 117.556C93.2459 117.207 87.5105 119.035 82.9707 122.684L82.8828 122.655ZM119.164 121.336C116.701 120.44 114.186 119.696 111.632 119.109C111.85 119.057 112.049 118.944 112.205 118.783C112.36 118.622 112.467 118.42 112.511 118.2C114.828 119.111 117.088 120.158 119.281 121.336H119.164Z" fill="#8DA3AF"/>
<path fill-rule="evenodd" clip-rule="evenodd" d="M108.35 118.405L105.918 118.024C106.02 117.809 106.182 117.628 106.385 117.503C106.588 117.378 106.823 117.315 107.061 117.321H107.325C107.591 117.364 107.835 117.494 108.021 117.69C108.206 117.885 108.322 118.137 108.35 118.405Z" fill="#E5E8EA"/>
<path fill-rule="evenodd" clip-rule="evenodd" d="M111.749 119.11L110.577 118.846C110.406 118.702 110.277 118.514 110.205 118.302C110.132 118.091 110.119 117.863 110.166 117.645V117.352L112.54 118.202C112.503 118.41 112.41 118.605 112.27 118.765C112.131 118.925 111.951 119.044 111.749 119.11Z" fill="#E5E8EA"/>
</g>
<defs>
<filter id="filter0_d_9_244" x="79" y="25" width="161.916" height="163" filterUnits="userSpaceOnUse" color-interpolation-filters="sRGB">
<feFlood flood-opacity="0" result="BackgroundImageFix"/>
<feColorMatrix in="SourceAlpha" type="matrix" values="0 0 0 0 0 0 0 0 0 0 0 0 0 0 0 0 0 0 127 0" result="hardAlpha"/>
<feOffset dy="2"/>
<feGaussianBlur stdDeviation="2"/>
<feComposite in2="hardAlpha" operator="out"/>
<feColorMatrix type="matrix" values="0 0 0 0 0 0 0 0 0 0 0 0 0 0 0 0 0 0 0.25 0"/>
<feBlend mode="normal" in2="BackgroundImageFix" result="effect1_dropShadow_9_244"/>
<feBlend mode="normal" in="SourceGraphic" in2="effect1_dropShadow_9_244" result="shape"/>
</filter>
<linearGradient id="paint0_linear_9_244" x1="112.481" y1="100.675" x2="121.361" y2="85.3483" gradientUnits="userSpaceOnUse">
<stop stop-color="#1E090B"/>
<stop offset="0.16" stop-color="#350C0F"/>
<stop offset="0.51" stop-color="#711318"/>
<stop offset="1" stop-color="#D11F26"/>
</linearGradient>
<linearGradient id="paint1_linear_9_244" x1="103.632" y1="80.2779" x2="111.457" y2="72.0429" gradientUnits="userSpaceOnUse">
<stop stop-color="#1E090B"/>
<stop offset="0.16" stop-color="#350C0F"/>
<stop offset="0.51" stop-color="#711318"/>
<stop offset="1" stop-color="#D11F26"/>
</linearGradient>
<linearGradient id="paint2_linear_9_244" x1="198.251" y1="72.7773" x2="185.855" y2="75.2977" gradientUnits="userSpaceOnUse">
<stop stop-color="#D34097"/>
<stop offset="0.68" stop-color="#D34097"/>
<stop offset="1" stop-color="#DB1A8E"/>
</linearGradient>
<linearGradient id="paint3_linear_9_244" x1="207.962" y1="54.3427" x2="190.994" y2="56.9216" gradientUnits="userSpaceOnUse">
<stop stop-color="#2C0E27"/>
<stop offset="0.01" stop-color="#2C0E27"/>
<stop offset="0.39" stop-color="#EA2891"/>
<stop offset="1" stop-color="#3B084D"/>
</linearGradient>
<linearGradient id="paint4_linear_9_244" x1="157.847" y1="63.3692" x2="164.324" y2="64.3656" gradientUnits="userSpaceOnUse">
<stop stop-color="#212D74"/>
<stop offset="0.24" stop-color="#45C6EB"/>
<stop offset="1" stop-color="#212D74"/>
</linearGradient>
<linearGradient id="paint5_linear_9_244" x1="156.938" y1="45.9607" x2="169.569" y2="46.7227" gradientUnits="userSpaceOnUse">
<stop stop-color="#212D74"/>
<stop offset="0.24" stop-color="#45C6EB"/>
<stop offset="1" stop-color="#212D74"/>
</linearGradient>
<linearGradient id="paint6_linear_9_244" x1="157.056" y1="78.9594" x2="163.59" y2="79.3764" gradientUnits="userSpaceOnUse">
<stop stop-color="#212D74"/>
<stop offset="0.24" stop-color="#45C6EB"/>
<stop offset="1" stop-color="#212D74"/>
</linearGradient>
<clipPath id="clip0_9_244">
<rect width="153.916" height="155" fill="white" transform="translate(83 27)"/>
</clipPath>
</defs>
</svg>
