<svg xmlns="http://www.w3.org/2000/svg" width="200" height="200" viewBox="-6 -15 150 200" fill="none">
    <g clip-path="url(#clip0_608_10792)" filter="url(#filter0_d_608_10792)">
        <path fill-rule="evenodd" clip-rule="evenodd" d="M70.043 101.819C70.043 102.074 69.871 102.329 69.8137 102.556C69.7049 102.398 69.6181 102.226 69.5557 102.046H69.3837C69.5201 102.256 69.6446 102.473 69.7564 102.697C69.8401 102.947 69.9071 103.203 69.957 103.462C69.957 103.773 70.2723 104.056 70.387 104.396C70.387 104.623 70.387 104.962 70.387 105.189C70.387 105.472 70.5589 105.67 70.6163 105.954C70.6163 106.293 70.6163 106.605 70.6163 106.916C70.6163 107.086 70.6163 107.285 70.6163 107.454C70.6163 107.709 70.6163 107.993 70.6163 108.247C70.6163 108.502 70.6163 108.729 70.6163 108.984C70.6163 109.182 70.4443 109.437 70.4156 109.635C70.4298 109.833 70.4298 110.032 70.4156 110.23C70.4156 110.456 70.215 110.654 70.1577 110.881C70.1577 111.136 70.0143 111.391 69.8997 111.674C69.8997 111.844 69.5844 112.127 69.4697 112.297C69.3264 112.552 69.3264 112.693 69.183 112.948C69.0111 113.175 68.7531 113.344 68.5525 113.571C68.3805 113.741 68.2945 113.996 68.0938 114.194C67.9505 114.336 67.6925 114.449 67.5205 114.619C67.2912 114.817 67.1479 115.044 66.9186 115.242C66.6521 115.428 66.3746 115.598 66.0873 115.752C65.7433 116.006 65.514 116.318 65.17 116.573C64.9694 116.714 64.6827 116.771 64.482 116.913C64.2241 117.054 64.0234 117.281 63.7654 117.451L63.0202 117.932L62.3609 118.498C62.0926 118.642 61.8341 118.803 61.5869 118.98L60.6697 119.546C60.2971 119.829 59.9817 120.197 59.6091 120.481C59.3798 120.679 59.1218 120.792 58.8925 120.99C58.6345 121.217 58.4625 121.472 58.2332 121.698C57.9723 121.881 57.7234 122.079 57.4879 122.293C57.2873 122.491 57.1726 122.774 56.9719 123.001C56.7999 123.227 56.5133 123.426 56.3413 123.652C56.1952 123.916 56.0706 124.19 55.9687 124.473C55.7544 124.735 55.5716 125.02 55.4241 125.323C55.3964 125.643 55.3964 125.965 55.4241 126.286C55.2795 126.605 55.1644 126.937 55.0801 127.277C54.9805 127.839 54.9805 128.414 55.0801 128.976C55.1314 129.409 55.2275 129.836 55.3667 130.25C55.5293 130.614 55.721 130.964 55.94 131.298L57.7459 130.533C57.6891 130.351 57.6019 130.178 57.4879 130.024C57.4879 129.882 57.3446 129.712 57.2872 129.542C57.2872 129.287 57.2873 128.891 57.0866 128.579C57.0734 128.448 57.0734 128.315 57.0866 128.183C57.0866 127.928 57.0866 127.503 57.0866 127.164C57.0866 127.164 57.0866 126.937 57.0866 126.824C57.0866 126.512 57.3732 126.427 57.5166 125.776L57.6599 125.521C57.9089 125.133 58.1867 124.764 58.4912 124.417C58.8404 123.938 59.2236 123.483 59.6378 123.057C60.0298 122.705 60.4412 122.374 60.8703 122.066C61.2143 121.783 61.4436 121.5 61.8163 121.217L62.6762 120.679L63.3641 120.112L64.1954 119.603L64.8261 119.093C65.084 118.923 65.342 118.81 65.5713 118.64L66.1446 118.187L66.8899 117.705C67.1508 117.523 67.3997 117.324 67.6352 117.111L68.3518 116.629L68.8964 116.091C69.1257 115.865 69.4411 115.695 69.6704 115.44C69.8997 115.213 70.043 114.959 70.2437 114.732C70.5788 114.407 70.8768 114.046 71.1323 113.656C71.3616 113.26 71.4475 112.92 71.6482 112.523C71.8277 112.211 71.9904 111.89 72.1355 111.561C72.2789 111.107 72.3075 110.824 72.4222 110.371C72.5618 109.784 72.6576 109.188 72.7088 108.587C72.7375 108.144 72.7375 107.699 72.7088 107.256C72.7088 106.945 72.7088 106.633 72.7088 106.322C72.7088 105.982 72.5368 105.642 72.4795 105.302C72.4227 104.648 72.2581 104.007 71.9922 103.405C71.7629 102.782 71.5335 102.272 71.2469 101.508L71.0463 101.168L70.043 101.819Z" fill="url(#paint0_linear_608_10792)"/>
        <path fill-rule="evenodd" clip-rule="evenodd" d="M69.47 102.073C69.6672 102.386 69.8306 102.718 69.9573 103.064C69.9573 103.461 70.5306 104.395 70.5306 104.622C70.5306 104.82 70.5306 105.528 70.7599 105.811C70.8557 106.268 70.9132 106.732 70.9319 107.199C70.9319 107.652 70.9319 107.567 70.9319 107.822C70.9319 108.105 70.9319 108.331 70.9319 108.898C70.9134 109.227 70.8458 109.551 70.7313 109.861C70.7313 110.229 70.5592 110.653 70.5306 110.767C70.4292 111.087 70.3047 111.399 70.158 111.701C70.0086 112.057 69.8262 112.398 69.6133 112.721L69.212 113.259C69.0595 113.481 68.8867 113.69 68.696 113.882L68.0081 114.59C67.8248 114.741 67.6334 114.883 67.4348 115.014C67.2387 115.255 67.0067 115.465 66.7469 115.637C66.3596 115.878 65.995 116.153 65.6576 116.459C65.2422 116.754 64.8117 117.028 64.3677 117.28C64.0237 117.535 63.1065 118.158 62.8198 118.441C62.5332 118.696 61.7306 119.12 61.1859 119.517C60.6126 119.885 59.8387 120.621 59.2941 120.989C58.7208 121.358 58.7494 121.641 58.3195 121.924C57.9788 122.139 57.6941 122.43 57.4882 122.773C57.3087 123.06 57.0864 123.317 56.8289 123.538C56.5985 123.744 56.4299 124.008 56.3416 124.303C56.1848 124.633 55.9926 124.947 55.7683 125.237C55.6706 125.452 55.6124 125.682 55.5963 125.917C55.5436 126.276 55.4474 126.628 55.3097 126.964C55.1572 127.453 55.1572 127.976 55.3097 128.465C55.3097 128.975 55.4817 129.315 55.539 129.655C55.5884 130.027 55.6947 130.39 55.8543 130.731L56.1983 131.354L56.9149 131.042C56.7291 130.735 56.5937 130.4 56.5136 130.051C56.4196 129.541 56.2855 129.039 56.1123 128.55C55.9578 128.178 55.9578 127.761 56.1123 127.389C56.2925 126.976 56.3992 126.535 56.4276 126.087C56.4469 125.716 56.5994 125.365 56.8576 125.095C57.133 124.706 57.382 124.3 57.6029 123.878C57.9499 123.378 58.3871 122.946 58.8928 122.603C60.154 121.811 59.4661 121.584 60.4407 121.074C61.3866 120.621 60.8993 120.508 61.6732 120.253C62.4472 120.027 62.1605 119.234 63.2498 118.979C64.3677 118.696 64.0811 118.129 65.1703 117.563C66.2596 116.997 66.5749 116.374 67.5208 116.09C68.4954 115.779 67.9508 115.128 68.6674 114.873C68.936 114.768 69.1655 114.584 69.3245 114.346C69.4835 114.108 69.5643 113.827 69.556 113.542C69.556 113.23 70.416 112.777 70.4733 112.296C70.5073 112.121 70.5979 111.962 70.7313 111.843C70.9426 111.58 71.0809 111.268 71.1326 110.937C71.3045 109.832 71.4479 109.917 71.3619 109.266C71.3444 108.89 71.4028 108.515 71.5339 108.162C71.6485 107.773 71.6485 107.361 71.5339 106.972C71.4082 106.214 71.2261 105.466 70.9892 104.735C70.5593 103.857 70.9892 103.489 70.5879 103.064C70.4212 102.895 70.294 102.692 70.2153 102.47L69.9286 101.875L69.47 102.073Z" fill="url(#paint1_linear_608_10792)"/>
        <path fill-rule="evenodd" clip-rule="evenodd" d="M71.018 101.227C71.1344 101.48 71.1946 101.755 71.1946 102.034C71.1946 102.312 71.1344 102.587 71.018 102.841C70.8206 103.216 70.6483 103.604 70.5021 104.002C70.1682 103.242 70.1075 102.393 70.3301 101.595H70.1294C70.1294 101.85 69.9574 102.104 69.9001 102.331C69.7913 102.173 69.7045 102.002 69.6421 101.821H69.4701C69.6066 102.031 69.731 102.249 69.8428 102.472C69.9265 102.723 69.9935 102.978 70.0434 103.237C70.0434 103.549 70.3588 103.832 70.4734 104.172C70.4734 104.398 70.4734 104.738 70.4734 104.964C70.4734 105.248 70.6454 105.446 70.7027 105.729C70.7027 106.069 70.7027 106.38 70.7027 106.692C70.7027 106.862 70.7027 107.06 70.7027 107.23C70.7027 107.485 70.7027 107.768 70.7027 108.023C70.7027 108.278 70.7027 108.504 70.7027 108.759C70.7027 108.957 70.5307 109.212 70.5021 109.41C70.5162 109.608 70.5162 109.807 70.5021 110.005C70.5021 110.232 70.3014 110.43 70.2441 110.656C70.2441 110.911 70.1008 111.166 69.9861 111.449C69.9861 111.619 69.6708 111.902 69.5561 112.072C69.4128 112.327 69.4128 112.469 69.2695 112.723C69.0975 112.95 68.8395 113.12 68.6389 113.346C68.4669 113.516 68.3809 113.771 68.1802 113.969C68.0369 114.111 67.7789 114.224 67.607 114.394C67.3776 114.592 67.2343 114.819 67.005 115.017C66.7386 115.204 66.461 115.374 66.1737 115.527C65.8298 115.782 65.6004 116.093 65.2564 116.348C65.0558 116.49 64.7691 116.546 64.5685 116.688C64.3105 116.83 64.1098 117.056 63.8519 117.226L63.1066 117.707L62.4473 118.274C62.1791 118.417 61.9205 118.578 61.6734 118.755L60.7561 119.322C60.3835 119.605 60.0681 119.973 59.6955 120.256C59.4662 120.454 59.2082 120.567 58.9789 120.766C58.7209 120.992 58.5489 121.247 58.3196 121.474C58.0588 121.656 57.8099 121.855 57.5743 122.068C57.3737 122.266 57.259 122.55 57.0584 122.776C56.8864 123.003 56.5997 123.201 56.4277 123.428C56.2817 123.691 56.1571 123.966 56.0551 124.249C55.8408 124.51 55.658 124.795 55.5105 125.098C55.4828 125.419 55.4828 125.741 55.5105 126.061C55.366 126.381 55.2508 126.712 55.1665 127.052C55.0669 127.614 55.0669 128.189 55.1665 128.751C55.2178 129.185 55.3139 129.612 55.4532 130.026C55.6157 130.389 55.8074 130.74 56.0264 131.073C55.8092 130.756 55.6768 130.39 55.6418 130.009C55.6067 129.627 55.67 129.243 55.8258 128.893C56.0549 128.443 56.4012 128.062 56.829 127.788C56.9573 128.401 56.8767 129.038 56.5997 129.601C56.3355 130.058 56.1514 130.556 56.0551 131.073L56.3417 130.932C56.3867 130.325 56.6279 129.75 57.0297 129.289C57.2358 129.664 57.3534 130.081 57.3737 130.507L57.7463 130.365C57.6895 130.183 57.6023 130.01 57.4884 129.856C57.4884 129.714 57.345 129.544 57.2877 129.374C57.2877 129.119 57.2877 128.723 57.0871 128.411C57.0738 128.28 57.0738 128.147 57.0871 128.015C57.0871 127.76 57.0871 127.335 57.0871 126.996C57.0871 126.996 57.0871 126.769 57.0871 126.656C57.0871 126.344 57.3737 126.259 57.517 125.608L57.6603 125.353C57.9093 124.965 58.1872 124.596 58.4916 124.249C58.8409 123.77 59.224 123.315 59.6382 122.889C60.0302 122.537 60.4417 122.206 60.8708 121.898C61.2147 121.615 61.4441 121.332 61.8167 121.049L62.6766 120.511L63.3646 119.944L64.1959 119.435L64.8265 118.925C65.0845 118.755 65.3424 118.642 65.5718 118.472L66.145 118.019L66.8903 117.538C67.1512 117.355 67.4001 117.156 67.6356 116.943L68.3522 116.461L68.8969 115.923C69.1262 115.697 69.4415 115.527 69.6708 115.272C69.9001 115.045 70.0434 114.791 70.2441 114.564C70.5793 114.239 70.8773 113.878 71.1327 113.488C71.362 113.092 71.448 112.752 71.6486 112.355C71.8282 112.043 71.9909 111.722 72.136 111.393C72.2793 110.939 72.3079 110.656 72.4226 110.203C72.5622 109.616 72.658 109.02 72.7093 108.419C72.7379 107.976 72.7379 107.531 72.7093 107.088C72.7093 106.777 72.7093 106.465 72.7093 106.154C72.7093 105.814 72.5373 105.474 72.4799 105.134C72.4232 104.48 72.2586 103.839 71.9926 103.237C71.7633 102.614 71.534 102.104 71.2473 101.34L71.0467 101H70.8747L71.018 101.227ZM70.8174 103.634C71.0323 103.11 71.2049 102.57 71.3333 102.019C71.5824 102.308 71.7463 102.659 71.807 103.034C71.8676 103.408 71.8228 103.792 71.6773 104.143C71.4193 104.681 71.018 105.106 70.8174 105.616C70.5989 104.973 70.5989 104.277 70.8174 103.634ZM71.276 105.248C71.5053 104.71 71.8206 104.256 72.0499 103.775C72.2465 104.106 72.3502 104.482 72.3502 104.865C72.3502 105.249 72.2465 105.625 72.0499 105.956C71.706 106.465 71.2474 106.777 71.0467 107.145C70.9419 106.501 71.0316 105.841 71.3047 105.248H71.276ZM71.5054 106.862C71.876 106.455 72.1849 105.997 72.4226 105.502C72.5877 105.838 72.6538 106.212 72.6133 106.583C72.5727 106.953 72.4271 107.305 72.1933 107.598C71.8206 108.079 71.276 108.363 70.9607 108.759C70.9315 108.085 71.1225 107.42 71.5054 106.862ZM71.5054 108.532C71.919 108.184 72.2851 107.784 72.5946 107.343C72.7314 107.69 72.7553 108.07 72.6628 108.43C72.5703 108.791 72.366 109.113 72.0786 109.354C71.62 109.75 71.0467 109.977 70.6741 110.316C70.7605 109.652 71.0506 109.029 71.5054 108.532ZM72.6519 109.184C72.6681 109.573 72.5783 109.96 72.3918 110.304C72.2052 110.647 71.9288 110.935 71.5913 111.138C71.0754 111.421 70.5307 111.477 70.1294 111.732C70.3677 111.1 70.7736 110.543 71.3047 110.118C71.7346 109.778 72.2219 109.552 72.6519 109.184ZM72.2793 111.024C72.2238 111.407 72.0638 111.768 71.8162 112.067C71.5687 112.366 71.2432 112.593 70.8747 112.723C70.3014 112.922 69.7568 112.922 69.3268 113.063C69.7006 112.479 70.212 111.993 70.8174 111.647C71.3333 111.393 71.8493 111.223 72.2793 111.024ZM71.62 112.667C71.4988 113.032 71.2807 113.359 70.9883 113.613C70.6959 113.867 70.3399 114.039 69.9574 114.111C69.3841 114.111 68.8682 114.111 68.2949 114.253C68.7387 113.724 69.3252 113.332 69.9861 113.12C70.5308 112.922 71.0754 112.865 71.62 112.667ZM70.6454 114.224C70.4532 114.571 70.1716 114.86 69.8292 115.064C69.4868 115.268 69.0959 115.379 68.6962 115.385H67.9796C67.6861 115.33 67.3845 115.33 67.091 115.385C67.6 114.892 68.2507 114.566 68.9542 114.451C69.5275 114.451 70.0721 114.451 70.6454 114.309V114.224ZM68.5242 115.527C68.8109 115.527 69.1262 115.527 69.4415 115.527C69.2225 115.825 68.9331 116.066 68.5984 116.229C68.2637 116.392 67.8939 116.472 67.521 116.461C66.8904 116.461 66.3457 116.263 65.7437 116.32C66.1275 115.979 66.5859 115.729 67.0831 115.592C67.5803 115.454 68.1029 115.432 68.6102 115.527H68.5242ZM68.0943 116.688C67.7589 117.046 67.3278 117.302 66.8508 117.427C66.3739 117.553 65.8707 117.542 65.3998 117.396C65.0484 117.342 64.6906 117.342 64.3392 117.396C65.9444 116.207 66.919 116.745 68.0943 116.801V116.688ZM66.747 117.707C66.3942 118.047 65.9537 118.285 65.4736 118.395C64.9935 118.505 64.4921 118.483 64.0239 118.33C63.6709 118.304 63.3163 118.304 62.9633 118.33C64.5971 117.169 65.5431 117.792 66.747 117.821V117.707ZM65.3138 118.699C64.9664 119.028 64.5359 119.26 64.067 119.37C63.5982 119.479 63.1081 119.463 62.648 119.322C62.2775 119.266 61.9005 119.266 61.53 119.322C63.1639 118.076 64.1385 118.699 65.3138 118.783V118.699ZM63.8806 119.69C63.536 119.996 63.1212 120.216 62.6718 120.329C62.2225 120.443 61.752 120.447 61.3007 120.341C60.9111 120.284 60.5152 120.284 60.1255 120.341C61.7021 119.038 62.734 119.633 63.8806 119.746V119.69ZM60.6701 120.482C60.9935 120.439 61.3213 120.439 61.6447 120.482C61.9211 120.51 62.1996 120.51 62.476 120.482C62.2706 120.767 61.9927 120.993 61.6706 121.137C61.3484 121.281 60.9934 121.339 60.6414 121.304C60.0367 121.177 59.4117 121.177 58.8069 121.304C59.0126 120.999 59.289 120.748 59.6132 120.571C59.9373 120.393 60.2998 120.295 60.6701 120.284V120.482ZM57.5743 122.55C58.0536 121.973 58.7438 121.607 59.4949 121.53C60.0482 121.487 60.6041 121.487 61.1574 121.53C60.9384 121.822 60.6457 122.051 60.3085 122.195C59.9714 122.339 59.6018 122.393 59.2369 122.351H58.7209C58.3769 122.351 58.033 122.521 57.775 122.521C57.7432 122.535 57.7091 122.541 57.6746 122.541C57.6402 122.541 57.6061 122.535 57.5743 122.521V122.55ZM56.4277 124.022C56.6253 123.688 56.89 123.398 57.2055 123.169C57.5211 122.94 57.8807 122.778 58.2623 122.691C58.7957 122.633 59.334 122.633 59.8675 122.691C59.0935 123.711 58.377 123.597 57.4884 123.796C57.1444 123.796 56.7717 124.022 56.5424 124.022H56.4277ZM58.7209 123.767C58.5985 124.077 58.4013 124.352 58.1465 124.57C57.8917 124.787 57.5871 124.939 57.259 125.013C56.6483 125.109 56.0852 125.397 55.6538 125.835C55.6864 125.449 55.8308 125.081 56.0698 124.775C56.3087 124.468 56.6321 124.237 57.001 124.107C57.564 123.948 58.1392 123.834 58.7209 123.767ZM57.8037 125.07C57.6972 125.522 57.4334 125.923 57.0584 126.203C56.7717 126.401 56.3991 126.542 56.0838 126.797C55.7111 127.052 55.5105 127.562 55.2238 127.562C55.2084 127.169 55.2984 126.778 55.4846 126.43C55.6708 126.082 55.9467 125.789 56.2844 125.58C56.7651 125.343 57.2762 125.171 57.8037 125.07ZM57.1444 126.373C57.1504 127.006 56.9032 127.617 56.4564 128.072C55.9893 128.464 55.6751 129.005 55.5678 129.601C55.3819 129.253 55.3019 128.859 55.3376 128.467C55.3732 128.075 55.5228 127.702 55.7685 127.392C56.1631 126.975 56.6288 126.63 57.1444 126.373Z" fill="url(#paint2_linear_608_10792)"/>
        <path fill-rule="evenodd" clip-rule="evenodd" d="M54.9658 102.697C54.9658 102.697 56.4277 108.643 69.0115 110.881C81.5952 113.089 84.4617 108.049 84.4617 108.049L88.2167 81.9965L57.8896 76.6445L54.9658 102.697Z" fill="url(#paint3_linear_608_10792)"/>
        <path fill-rule="evenodd" clip-rule="evenodd" d="M54.9658 102.698C54.9658 102.698 56.485 108.05 69.0688 110.287C81.6526 112.524 84.519 107.937 84.519 107.937L94.5803 44.5902L61.874 38.7852L54.9658 102.698Z" fill="url(#paint4_linear_608_10792)"/>
        <path fill-rule="evenodd" clip-rule="evenodd" d="M79.6745 110.484L78.356 110.71L88.0159 43.3711L89.2485 43.5976L79.6745 110.484Z" fill="white"/>
        <path fill-rule="evenodd" clip-rule="evenodd" d="M54.9658 102.699C54.9658 102.699 56.485 108.051 69.0688 110.288C70.1294 110.486 71.104 110.628 71.9353 110.713C57.0297 92.0799 63.7085 49.4052 64.6831 39.2675L61.8167 38.7578L54.9658 102.699Z" fill="url(#paint5_linear_608_10792)"/>
        <path fill-rule="evenodd" clip-rule="evenodd" d="M61.7879 39.6073C72.7378 47.876 89.9939 53.5396 93.0037 54.5024L94.4942 45.016H94.1502L91.2838 44.0815L61.7879 38.8711V39.7206V39.6073ZM59.6381 59.4296L60.67 49.8017C71.9639 58.0704 89.5639 63.7906 91.4271 64.3852L89.9079 73.8433C85.8948 72.5407 70.1007 67.1604 59.6381 59.4296ZM57.4882 79.252C66.5894 85.1864 76.4637 89.8733 86.8408 93.1843L88.3313 83.6979C77.7998 80.3121 67.7739 75.5503 58.5202 69.5391L57.4882 79.1954V79.252ZM55.3384 99.0744L56.3703 89.4464C65.3705 95.2064 75.0809 99.803 85.2642 103.124L84.5189 107.881C83.7436 108.739 82.8002 109.432 81.7458 109.919C80.6914 110.405 79.5479 110.676 78.3847 110.713C70.2636 107.772 62.5268 103.884 55.3384 99.131V99.0744Z" fill="url(#paint6_linear_608_10792)"/>
        <path fill-rule="evenodd" clip-rule="evenodd" d="M61.8167 39.2656C72.7953 47.5343 90.08 53.2262 93.0611 54.1607L94.5517 44.6743H94.2077L93.5771 44.476L61.8741 38.8125V39.3223L61.8167 39.2656ZM59.6669 59.0879L60.7275 49.4316C71.9926 57.7287 89.6787 63.5905 91.4846 64.0435L89.9653 73.5016C85.981 72.2273 70.1295 66.8187 59.6669 59.0879ZM57.517 78.9103C66.6247 84.8584 76.509 89.555 86.8983 92.8709L88.3888 83.3845C77.8541 80.0067 67.8271 75.2444 58.5776 69.2257L57.517 78.882V78.9103ZM55.3672 98.7327L56.4278 89.1047C65.4182 94.8818 75.131 99.4794 85.3217 102.782L84.5191 107.879C83.8303 108.659 82.9917 109.296 82.0518 109.753C81.112 110.21 80.0897 110.478 79.0441 110.541C70.7037 107.575 62.7544 103.63 55.3672 98.7893V98.7327Z" fill="url(#paint7_linear_608_10792)"/>
        <path fill-rule="evenodd" clip-rule="evenodd" d="M61.8167 39.2675C62.7053 39.9188 63.6226 40.5701 64.6832 41.1931C64.6832 40.4568 64.8265 39.8055 64.8838 39.2675L62.0174 38.7578V39.2675H61.8167ZM60.0968 55.182L59.6669 59.1182C60.6415 59.8545 61.6734 60.5341 62.734 61.2137C62.9346 57.7023 63.1926 54.3609 63.4793 51.3592C62.5333 50.7645 61.6161 50.1132 60.6128 49.4619L59.9822 55.1254L60.0968 55.182ZM57.517 78.9689C59.2082 80.1866 61.0428 81.3476 62.9346 82.452C62.6193 78.9406 62.476 75.3726 62.4473 71.8895C61.1097 71.0778 59.8197 70.2282 58.5776 69.3409L57.517 78.9689ZM55.3672 98.7913C59.7549 101.787 64.408 104.384 69.2695 106.55C67.1886 102.649 65.6553 98.4858 64.7118 94.1755C61.8427 92.6852 59.0754 91.0109 56.4278 89.1632L55.3672 98.7913Z" fill="url(#paint8_linear_608_10792)"/>
        <path fill-rule="evenodd" clip-rule="evenodd" d="M81.7957 50.0257C84.0888 50.9885 86.21 51.7813 88.0159 52.4326L89.2771 43.5975L82.8849 42.4648L81.7957 50.0257ZM78.9292 69.4799C81.1937 70.4144 83.3436 71.2356 85.1208 71.887L86.4967 62.3722C84.7481 61.7209 82.6269 60.8996 80.3051 59.9651L78.9292 69.4799ZM76.0627 88.9058C78.3559 89.8686 80.4771 90.6899 82.283 91.3412L83.6589 81.8264C81.8816 81.1751 79.7605 80.3539 77.4673 79.3911L76.0627 88.9058ZM73.1963 108.332C75.2601 109.21 77.2093 109.946 78.9292 110.597H79.4738L80.8211 101.394C79.0152 100.743 76.894 99.9214 74.6008 98.9586L73.1963 108.332Z" fill="url(#paint9_linear_608_10792)"/>
        <path fill-rule="evenodd" clip-rule="evenodd" d="M86.7835 51.9796L88.0161 52.4327L89.2773 43.5976L88.0161 43.3711L86.7835 51.8664V51.9796ZM83.917 71.4339L85.0923 71.887L86.4682 62.3722L85.2642 61.9191L83.917 71.4339ZM81.0505 90.9163L82.1972 91.3412L83.573 81.8264L82.3978 81.4017L81.0505 90.9163ZM78.1841 110.371L78.8147 110.597H79.3593L80.7066 101.394L79.56 100.969L78.1841 110.371Z" fill="url(#paint10_linear_608_10792)"/>
        <path fill-rule="evenodd" clip-rule="evenodd" d="M79.4737 161.712L94.6373 53.7084C94.9526 51.4713 94.2647 49.4608 93.0894 49.2625C91.9142 49.0643 90.7103 50.6785 90.3949 52.9439L75.1167 161.712H79.4737Z" fill="white"/>
        <path fill-rule="evenodd" clip-rule="evenodd" d="M79.2157 163.525L94.6373 53.681C94.9526 51.4439 94.2647 49.4334 93.0894 49.2352C91.9142 49.037 90.7103 50.6511 90.3949 52.9165L75.1167 161.685L79.2157 163.525Z" fill="white"/>
        <path fill-rule="evenodd" clip-rule="evenodd" d="M93.0894 49.263C93.222 49.2851 93.3487 49.3333 93.462 49.4047C92.4014 49.5463 91.4269 51.0754 91.1402 53.0859L75.8907 161.712H75.1167L90.3949 53.0859C90.7103 50.6789 92.0002 49.0365 93.0894 49.263Z" fill="#D0CDCD"/>
        <path fill-rule="evenodd" clip-rule="evenodd" d="M79.2732 163.097L75.3748 159.812V160.719L74.8302 164.57C74.7504 165.129 74.8988 165.697 75.2429 166.149C75.5869 166.6 76.0984 166.898 76.6647 166.977C77.2311 167.056 77.806 166.909 78.2629 166.569C78.7199 166.229 79.0214 165.724 79.1012 165.164L79.2732 163.097Z" fill="url(#paint11_linear_608_10792)"/>
        <path fill-rule="evenodd" clip-rule="evenodd" d="M77.9834 166.667L78.5567 162.504L79.2733 163.099L78.958 165.251C78.9074 165.542 78.7942 165.819 78.6261 166.063C78.4579 166.307 78.2388 166.513 77.9834 166.667Z" fill="#D0CDCD"/>
        <path fill-rule="evenodd" clip-rule="evenodd" d="M90.3952 53.0868L89.8506 56.9663L93.749 60.2512L94.4656 54.9842L90.6819 51.8125C90.5534 52.2294 90.4576 52.6554 90.3952 53.0868ZM88.3314 67.812L92.2298 71.0686L92.9464 65.8298L89.134 62.4034L88.4174 67.6704L88.3314 67.812ZM86.8122 78.6293L90.7106 81.9142L91.4558 76.6471L87.5288 73.3623L86.8122 78.6293ZM85.2929 89.4467L89.134 92.7315L89.8793 87.4645L85.9522 84.1796L85.2356 89.4467H85.2929ZM83.745 100.292L87.6434 103.549L88.3887 98.2818L84.4903 95.0253L83.745 100.292ZM82.2258 111.11L86.1529 114.366L86.8695 109.127L82.9711 105.843L82.2258 111.11ZM80.7353 121.927L84.6336 125.212L85.3502 119.945L81.4519 116.66L80.7353 121.927ZM79.216 132.744L83.0858 136.029L83.831 130.762L79.9326 127.477L79.216 132.744ZM77.6681 143.59L81.5665 146.847L82.3118 141.58L78.4134 138.323L77.6681 143.59ZM76.1489 154.407L80.0473 157.664L80.7926 152.425L76.8942 149.14L76.1489 154.407Z" fill="url(#paint12_linear_608_10792)"/>
        <path fill-rule="evenodd" clip-rule="evenodd" d="M93.0894 49.263C93.222 49.2851 93.3487 49.3333 93.462 49.4047C92.4014 49.5463 91.4269 51.0754 91.1402 53.0859L75.8907 161.712H75.1167L90.3949 53.0859C90.7103 50.6789 92.0002 49.0365 93.0894 49.263Z" fill="#D0CDCD"/>
        <path fill-rule="evenodd" clip-rule="evenodd" d="M76.063 160.407L75.375 159.812V160.719L74.8304 164.57C74.7874 164.873 74.8112 165.182 74.9003 165.475C74.9893 165.768 75.1415 166.039 75.3464 166.269L76.063 160.407Z" fill="#51100D"/>
        <path fill-rule="evenodd" clip-rule="evenodd" d="M80.7926 152.196L80.1047 151.573L79.3594 156.84L80.0473 157.435L80.7926 152.196ZM91.4558 76.4178L90.7392 75.8231L89.994 81.0903L90.7106 81.6849L91.4558 76.4178ZM89.908 87.2351L89.22 86.6405L88.4747 91.9075L89.1914 92.5023L89.908 87.2351ZM93.7777 54.1602L93.0324 59.4272L93.749 60.0219L94.4656 54.7548L93.7777 54.1602ZM92.9464 65.4872L92.2584 64.8926L91.5132 70.1313L92.2298 70.726L92.9464 65.4872ZM82.3118 141.237L81.6239 140.642L80.8786 145.909L81.5666 146.504L82.3118 141.237ZM85.3503 119.602L84.6623 119.008L83.917 124.275L84.605 124.869L85.3503 119.602ZM83.831 130.42L83.1431 129.825L82.3978 135.092L83.0858 135.687L83.831 130.42ZM88.3888 97.9392L87.7008 97.3446L86.9555 102.612L87.6434 103.206L88.3888 97.9392ZM86.8695 108.785L86.1816 108.19L85.4363 113.429L86.1529 114.024L86.8695 108.785Z" fill="#C51F25"/>
        <path fill-rule="evenodd" clip-rule="evenodd" d="M83.0285 3.10343L57.4023 43.5127C59.5522 45.1551 64.7978 47.5905 77.7256 49.8842C90.0514 52.0646 95.383 51.6399 97.7908 50.847L84.7198 3.38662C84.7198 3.38662 84.4331 2.08398 84.1178 2.02734C83.8025 2.02734 83.1432 3.13169 83.1432 3.13169L83.0285 3.10343Z" fill="url(#paint13_linear_608_10792)"/>
        <path fill-rule="evenodd" clip-rule="evenodd" d="M84.0316 2.11328C83.8883 2.11328 83.8023 2.56639 83.8023 2.93452L79.2446 50.2533C83.1144 50.9046 86.2674 51.3011 88.8186 51.471L84.4043 2.70793V2.53803L84.0316 2.11328Z" fill="url(#paint14_linear_608_10792)"/>
        <path fill-rule="evenodd" clip-rule="evenodd" d="M84.0316 2.11421L87.07 51.302H87.758H88.7612L84.4042 2.65225C84.4042 2.31244 84.1463 2.00097 84.0029 1.97266L84.0316 2.11421Z" fill="url(#paint15_linear_608_10792)"/>
        <path fill-rule="evenodd" clip-rule="evenodd" d="M83.8307 2.11328L58.2046 42.5226C59.9582 43.7498 61.8915 44.7048 63.9375 45.3543L83.8881 2.11328H83.8307Z" fill="url(#paint16_linear_608_10792)"/>
        <path fill-rule="evenodd" clip-rule="evenodd" d="M56.8863 43.0879C56.8863 43.0879 57.1729 43.3427 57.4022 43.4843C59.7527 45.1267 65.1703 47.4771 77.6968 49.6859C89.5926 51.8097 95.0389 51.5265 97.5614 50.7903C97.9053 50.7903 98.2206 50.6487 98.2493 50.5071C98.2493 50.3089 97.5327 49.9407 97.332 49.969C90.8207 50.6842 84.2345 50.3302 77.8401 48.9213C65.887 46.7975 60.326 44.4471 57.7749 42.8047H57.3162C57.0869 42.8047 56.8576 42.8047 56.8003 43.1445L56.8863 43.0879Z" fill="url(#paint17_linear_608_10792)"/>
        <path fill-rule="evenodd" clip-rule="evenodd" d="M56.4276 46.4606C56.4276 46.4606 54.7651 50.1985 77.1808 54.163C97.418 57.7593 97.762 54.701 97.762 54.701L98.3066 50.5383C96.1281 51.4162 90.8538 51.9258 77.7828 49.6038C64.0811 47.1685 58.8928 44.5916 56.9149 42.9492L56.4276 46.4606Z" fill="url(#paint18_linear_608_10792)"/>
        <path fill-rule="evenodd" clip-rule="evenodd" d="M78.7285 54.4147C82.7129 55.0943 85.8947 55.4907 88.3885 55.7172L88.9904 51.1015C86.4106 50.9032 83.2576 50.5068 79.3018 49.8555L78.7285 54.4147Z" fill="url(#paint19_linear_608_10792)"/>
        <path fill-rule="evenodd" clip-rule="evenodd" d="M86.5542 55.5494L88.3887 55.7193L88.9907 51.1035L87.1848 50.9336L86.5542 55.5494Z" fill="url(#paint20_linear_608_10792)"/>
        <path fill-rule="evenodd" clip-rule="evenodd" d="M56.4275 46.4606C56.4275 46.4606 55.6536 48.2163 62.4471 50.6233L63.0777 46.0075C60.8602 45.3471 58.775 44.3124 56.9148 42.9492L56.4275 46.4606Z" fill="url(#paint21_linear_608_10792)"/>
        <path fill-rule="evenodd" clip-rule="evenodd" d="M40.404 121.643L38.6555 122.38C38.0604 122.583 37.5071 122.89 37.0216 123.286L36.1616 123.767C35.9193 123.95 35.6895 124.149 35.4737 124.362C35.0724 124.702 34.8717 124.815 34.4991 125.183C34.1051 125.601 33.7411 126.046 33.4098 126.514C33.1551 126.813 32.9159 127.125 32.6932 127.449C32.6932 127.704 32.4352 128.128 32.3206 128.383C32.1165 128.72 31.9346 129.07 31.776 129.431C31.6625 129.84 31.5763 130.256 31.518 130.677C31.518 130.96 31.3746 131.215 31.346 131.498C31.346 131.81 31.346 132.121 31.346 132.404C31.346 132.659 31.346 132.886 31.346 133.112C31.3176 133.366 31.3176 133.623 31.346 133.877C31.346 134.16 31.346 134.443 31.346 134.726C31.346 134.981 31.346 135.264 31.346 135.519C31.346 135.746 31.346 135.972 31.346 136.17C31.36 136.425 31.36 136.68 31.346 136.935C31.346 137.19 31.346 137.416 31.346 137.671C31.346 137.954 31.346 138.238 31.346 138.521C31.346 138.776 31.346 139.059 31.346 139.314C31.346 139.625 31.346 139.908 31.346 140.22C31.346 140.645 31.346 140.984 31.346 141.381C31.346 141.834 31.346 142.344 31.346 142.797C31.2755 143.343 31.1605 143.883 31.002 144.411C30.9376 144.835 30.832 145.253 30.6867 145.657V145.883C30.3427 146.393 30.4001 146.62 30.1994 146.846L29.9701 147.073C29.7121 147.271 29.4828 147.611 29.3108 147.752L28.9955 147.979C28.7089 148.121 28.4222 148.347 28.1642 148.46L27.7342 148.659L27.2183 148.8L27.7056 150.443C28.0688 150.388 28.4246 150.293 28.7662 150.159C29.1414 149.99 29.4969 149.781 29.8268 149.536C30.3043 149.26 30.7388 148.917 31.1166 148.517C31.3157 148.251 31.4885 147.966 31.6326 147.667C31.8483 147.454 32.0493 147.227 32.2346 146.988C32.4066 146.676 32.4066 146.365 32.5499 146.082C32.6883 145.838 32.8035 145.582 32.8939 145.317C32.9078 145.044 32.9078 144.769 32.8939 144.496C32.9834 144.245 33.06 143.99 33.1232 143.731C33.1232 143.42 33.1232 143.137 33.1232 142.853C33.139 142.561 33.139 142.268 33.1232 141.976C33.137 141.711 33.137 141.447 33.1232 141.183C33.1232 140.786 33.1232 140.333 33.1232 139.908C33.1232 139.597 33.1232 139.285 33.1232 138.974C33.1232 138.691 33.1232 138.436 33.1232 138.153C33.1232 137.926 33.1232 137.615 33.1232 137.388C33.1375 137.124 33.1375 136.859 33.1232 136.595C33.1089 136.331 33.1089 136.066 33.1232 135.802C33.1232 135.576 33.1232 135.349 32.9512 135.151C32.9512 134.755 32.9512 134.415 32.9512 134.018C32.9512 133.763 32.9512 133.452 32.9512 133.169C32.9373 132.914 32.9373 132.659 32.9512 132.404C32.9369 132.178 32.9369 131.951 32.9512 131.725C32.9512 131.498 33.0945 131.271 33.1232 131.045C33.1232 130.79 33.1232 130.507 33.1232 130.252C33.1232 129.997 33.3239 129.912 33.4385 129.629C33.4385 129.629 33.4385 129.148 33.6391 128.978C33.6391 128.723 33.9258 128.553 34.0691 128.298C34.0691 128.128 34.2411 127.902 34.3558 127.732C34.3558 127.562 34.6424 127.477 34.7571 127.307C34.9004 127.307 34.9864 126.939 35.1297 126.769C35.273 126.599 35.4737 126.486 35.6457 126.316C35.8177 126.146 35.9897 125.919 36.1616 125.778C36.2982 125.674 36.4418 125.579 36.5916 125.495C36.8271 125.281 37.076 125.083 37.3369 124.9C37.5573 124.77 37.7872 124.656 38.0248 124.56L38.6268 124.135C38.9264 124.015 39.2326 123.911 39.5441 123.824C39.7734 123.824 39.974 123.541 40.2033 123.456L40.8626 123.286V123.144H40.3753C40.5123 122.954 40.6367 122.756 40.748 122.55L40.5186 121.445L40.404 121.643Z" fill="url(#paint22_linear_608_10792)"/>
        <path fill-rule="evenodd" clip-rule="evenodd" d="M40.4042 122.859C40.2011 122.933 39.9891 122.981 39.7735 123.001C39.2576 123.001 39.2003 123.511 38.3403 123.794C37.6869 124.112 37.0549 124.471 36.4484 124.87C36.107 125.047 35.8199 125.311 35.6172 125.634C35.4341 125.951 35.1908 126.23 34.9006 126.456C34.3846 126.824 34.5279 126.852 33.8686 127.673C33.649 127.912 33.5003 128.206 33.4387 128.523C33.4094 128.688 33.3405 128.843 33.238 128.976C32.9514 129.287 33.238 130.109 32.8654 130.335C32.6659 130.507 32.5197 130.731 32.4436 130.982C32.3676 131.232 32.3647 131.499 32.4354 131.751C32.6647 132.374 31.8908 132.431 32.2061 133.252C32.5501 134.045 32.2061 134.668 32.4928 135.716C32.7221 136.763 32.1201 136.962 32.4928 137.839C32.9514 138.717 32.1774 139.029 32.4928 139.68C32.7794 140.331 32.4928 140.076 32.4928 141.011C32.6934 141.945 32.1488 141.634 32.2921 142.965C32.3414 143.511 32.273 144.061 32.0914 144.579C31.9434 145.045 31.819 145.517 31.7188 145.995C31.6645 146.337 31.5043 146.653 31.2602 146.901C30.9714 147.21 30.7212 147.552 30.5149 147.92C30.1136 148.515 29.8842 148.6 29.6836 148.685C29.2343 148.885 28.8028 149.122 28.3937 149.393C28.1006 149.565 27.7811 149.69 27.4478 149.761L27.6484 150.412L28.2791 150.243C28.6203 150.117 28.947 149.955 29.2536 149.761L30.1996 149.138C30.6327 148.912 30.9909 148.568 31.2315 148.147C31.3892 147.834 31.5815 147.54 31.8048 147.269C31.9666 147.123 32.1023 146.95 32.2061 146.759C32.2848 146.427 32.4001 146.104 32.5501 145.797C32.7083 145.55 32.7974 145.267 32.8081 144.975C32.8338 144.666 32.9012 144.361 33.0087 144.069C33.0749 143.714 33.0749 143.349 33.0087 142.993C33.0087 142.54 33.1807 142.37 33.0087 141.776C33.0087 141.181 33.0087 140.246 33.0087 139.623C32.921 139.051 32.8636 138.474 32.8367 137.896C32.8367 137.528 32.8367 136.537 32.8367 136.169C32.7578 135.719 32.7099 135.265 32.6934 134.809C32.7204 134.394 32.7204 133.978 32.6934 133.563C32.6557 133.291 32.6557 133.015 32.6934 132.742C32.6706 132.526 32.6706 132.307 32.6934 132.091C32.6934 131.921 32.6934 131.553 32.6934 131.213C32.7186 130.964 32.7666 130.717 32.8367 130.477L33.0087 129.882C33.1193 129.543 33.2534 129.212 33.41 128.891L33.8686 128.07L34.4133 127.334C34.5767 127.068 34.769 126.821 34.9866 126.597C35.2402 126.376 35.4795 126.14 35.7032 125.889C35.8752 125.691 35.8465 125.889 36.1905 125.521C36.5246 125.232 36.879 124.968 37.251 124.728C37.6026 124.56 37.9383 124.361 38.2543 124.134C38.4263 124.134 39.3436 123.681 39.6876 123.511C39.9971 123.365 40.3248 123.26 40.6621 123.199V122.633L40.4042 122.859Z" fill="url(#paint23_linear_608_10792)"/>
        <path fill-rule="evenodd" clip-rule="evenodd" d="M40.404 121.642L38.6555 122.378C38.0604 122.581 37.5071 122.888 37.0216 123.284L36.1616 123.765C35.9193 123.948 35.6895 124.147 35.4737 124.36C35.0724 124.7 34.8717 124.813 34.4991 125.181C34.1051 125.599 33.7411 126.044 33.4098 126.512C33.1551 126.812 32.9159 127.123 32.6932 127.447C32.6932 127.702 32.4352 128.126 32.3206 128.381C32.1165 128.719 31.9346 129.069 31.776 129.429C31.6625 129.838 31.5763 130.254 31.518 130.675C31.518 130.958 31.3746 131.213 31.346 131.496C31.346 131.808 31.346 132.119 31.346 132.402C31.346 132.657 31.346 132.884 31.346 133.11C31.3176 133.364 31.3176 133.621 31.346 133.875C31.346 134.158 31.346 134.441 31.346 134.724C31.346 134.979 31.346 135.262 31.346 135.517C31.346 135.744 31.346 135.97 31.346 136.169C31.36 136.423 31.36 136.678 31.346 136.933C31.346 137.188 31.346 137.415 31.346 137.669C31.346 137.953 31.346 138.236 31.346 138.519C31.346 138.774 31.346 139.057 31.346 139.312C31.346 139.623 31.346 139.906 31.346 140.218C31.346 140.643 31.346 140.983 31.346 141.379C31.346 141.832 31.346 142.342 31.346 142.795C31.2755 143.341 31.1605 143.881 31.002 144.409C30.9376 144.833 30.832 145.251 30.6867 145.655V145.881C30.3427 146.391 30.4001 146.618 30.1994 146.844L29.9701 147.071C29.7121 147.269 29.4828 147.609 29.3108 147.75L28.9955 147.977C28.7089 148.119 28.4222 148.345 28.1642 148.458L27.7342 148.657L27.2183 148.798V149.138C27.5228 148.871 27.8858 148.677 28.2789 148.572C28.1646 149.138 27.8857 149.66 27.4763 150.073V150.356C27.7774 149.958 28.0188 149.519 28.1929 149.053C28.4486 148.514 28.8699 148.068 29.3968 147.779C29.4211 148.237 29.3326 148.693 29.1388 149.11C28.9757 149.431 28.7417 149.713 28.454 149.933C28.1663 150.154 27.8322 150.308 27.4763 150.384C27.8395 150.329 28.1953 150.234 28.5369 150.101C28.912 149.932 29.2676 149.723 29.5974 149.478C30.075 149.201 30.5094 148.858 30.8873 148.458C31.0864 148.192 31.2592 147.908 31.4033 147.609C31.6189 147.396 31.82 147.169 32.0053 146.929C32.1773 146.618 32.1772 146.306 32.3206 146.023C32.459 145.779 32.5742 145.523 32.6646 145.258C32.6785 144.985 32.6785 144.711 32.6646 144.437C32.7541 144.187 32.8307 143.931 32.8939 143.673C32.8939 143.361 32.8939 143.078 32.8939 142.795C32.9097 142.502 32.9097 142.209 32.8939 141.917C32.9077 141.653 32.9077 141.388 32.8939 141.124C32.8939 140.728 32.8939 140.275 32.8939 139.85C32.8939 139.538 32.8939 139.227 32.8939 138.915C32.8939 138.632 32.8939 138.377 32.8939 138.094C32.8939 137.868 32.8939 137.556 32.8939 137.33C32.9082 137.065 32.9082 136.801 32.8939 136.537C32.8796 136.273 32.8796 136.008 32.8939 135.744C32.8939 135.517 32.8939 135.291 32.7219 135.092C32.7219 134.696 32.7219 134.356 32.7219 133.96C32.7219 133.705 32.7219 133.393 32.7219 133.11C32.708 132.856 32.708 132.6 32.7219 132.346C32.7076 132.119 32.7076 131.892 32.7219 131.666C32.7219 131.44 32.8652 131.213 32.8939 130.986C32.8939 130.732 32.8939 130.448 32.8939 130.194C32.8939 129.939 33.0945 129.854 33.2092 129.571C33.2092 129.571 33.2092 129.089 33.4098 128.919C33.4098 128.664 33.6965 128.494 33.8398 128.24C33.8398 128.07 34.0118 127.843 34.1264 127.673C34.1264 127.503 34.4131 127.418 34.5277 127.248C34.6711 127.248 34.7571 126.88 34.9004 126.71C35.0437 126.541 35.2444 126.427 35.4163 126.257C35.5883 126.087 35.7603 125.861 35.9323 125.719C36.0688 125.615 36.2125 125.521 36.3623 125.436C36.5978 125.223 36.8467 125.024 37.1076 124.841C37.328 124.711 37.5579 124.598 37.7955 124.502L38.3975 124.077C38.6971 123.956 39.0033 123.852 39.3147 123.765C39.544 123.765 39.7447 123.482 39.974 123.397L40.6333 123.227V123.086H40.146C40.283 122.896 40.4074 122.697 40.5186 122.491V122.293C40.0819 122.94 39.4502 123.436 38.7128 123.709C38.9069 123.361 39.0792 123.001 39.2287 122.633C39.4625 122.156 39.8581 121.775 40.3467 121.557V121.387H39.974L40.404 121.642ZM38.3688 123.171C38.5245 122.857 38.7591 122.588 39.0502 122.39C39.3414 122.191 39.6792 122.07 40.0313 122.038C39.7209 122.47 39.4431 122.925 39.2001 123.397C38.8675 123.941 38.3785 124.375 37.7955 124.643C38.0248 124.218 38.1108 123.652 38.3688 123.171ZM36.8783 124.105C36.9912 123.762 37.1895 123.453 37.4549 123.206C37.7204 122.958 38.0445 122.781 38.3975 122.689C38.1682 123.142 38.0535 123.624 37.7955 124.134C37.5307 124.689 37.1136 125.16 36.5916 125.493C36.6596 125.025 36.7554 124.562 36.8783 124.105ZM35.5884 125.011C35.6635 124.67 35.8312 124.355 36.0736 124.101C36.316 123.846 36.6239 123.662 36.9643 123.567C36.7471 124.016 36.5928 124.493 36.5056 124.983C36.3024 125.596 35.9361 126.144 35.445 126.569C35.445 126.087 35.445 125.578 35.445 125.011H35.5884ZM34.3844 126.229C34.4085 125.879 34.5277 125.541 34.7295 125.252C34.9313 124.963 35.2082 124.733 35.531 124.587C35.4148 125.071 35.3381 125.563 35.3017 126.059C35.2032 126.681 34.9244 127.261 34.4991 127.73C34.4991 127.277 34.4991 126.767 34.4991 126.229H34.3844ZM33.4098 127.673C33.3617 127.314 33.4075 126.948 33.543 126.611C33.6785 126.274 33.8991 125.977 34.1838 125.748C34.1838 126.257 34.1838 126.71 34.1838 127.192C34.1715 127.817 34.0041 128.429 33.6965 128.976C33.6965 128.579 33.3812 128.183 33.2952 127.673H33.4098ZM32.6646 129.146C32.5533 128.801 32.5372 128.432 32.6178 128.079C32.6984 127.726 32.8729 127.4 33.1232 127.135C33.1232 127.532 33.3812 127.985 33.4672 128.494C33.5862 129.112 33.5266 129.75 33.2952 130.335C33.2952 129.967 32.8652 129.627 32.6646 129.146ZM32.1773 130.59C32.0165 130.278 31.9448 129.928 31.9701 129.579C31.9953 129.23 32.1165 128.894 32.3206 128.608C32.3206 129.089 32.7219 129.486 32.8939 129.939C33.1139 130.527 33.1732 131.162 33.0659 131.779C32.7953 131.365 32.4986 130.967 32.1773 130.59ZM32.0053 132.204C31.7884 131.926 31.6502 131.596 31.6049 131.247C31.5596 130.899 31.6087 130.545 31.7473 130.222C32.0053 130.675 32.3206 130.986 32.5786 131.411C32.895 131.951 33.0352 132.574 32.9799 133.195C32.7792 132.827 32.3493 132.601 32.0053 132.204ZM32.0053 133.677C31.784 133.424 31.6291 133.121 31.5541 132.795C31.4791 132.469 31.4864 132.13 31.5753 131.808C32.1773 132.657 33.0945 132.94 33.1232 134.639C32.772 134.268 32.3987 133.919 32.0053 133.592V133.677ZM31.518 133.45C32.2059 134.158 33.1519 134.441 33.2092 136.282C32.6072 135.461 31.346 135.291 31.518 133.45ZM31.518 134.951C32.2346 135.687 33.2092 135.914 33.2952 137.783C32.6646 136.961 31.4033 136.82 31.518 134.951ZM31.518 136.508C32.2346 137.188 33.2092 137.443 33.2952 139.34C32.6646 138.462 31.432 138.377 31.518 136.508ZM31.518 138.066C32.2346 138.717 33.2379 139 33.2092 140.898C32.6646 140.02 31.4033 139.878 31.518 138.066ZM32.0913 141.209C31.8728 140.989 31.7178 140.716 31.6422 140.417C31.5666 140.119 31.5732 139.805 31.6613 139.51C31.9479 139.878 32.4066 140.19 32.7506 140.614C32.9618 140.867 33.1022 141.17 33.1575 141.493C33.2128 141.816 33.1812 142.148 33.0659 142.455C32.9225 141.917 32.4639 141.606 32.0913 141.209ZM32.4352 143.135C32.0053 142.54 31.4033 142.285 31.6613 141.039C32.017 141.358 32.3521 141.698 32.6646 142.059C32.8544 142.333 32.9855 142.643 33.0496 142.969C33.1136 143.295 33.1094 143.631 33.0372 143.956C32.7792 143.956 32.6932 143.474 32.4352 143.135ZM32.1773 144.777C31.8046 144.098 31.3173 143.701 31.6039 142.54C31.9445 142.858 32.2518 143.209 32.5212 143.588C32.6737 143.901 32.7529 144.245 32.7529 144.593C32.7529 144.941 32.6737 145.285 32.5212 145.598C32.3492 145.598 32.2346 145.117 32.0626 144.777H32.1773ZM31.4607 145.683C31.3245 145.415 31.2536 145.119 31.2536 144.82C31.2536 144.52 31.3245 144.224 31.4607 143.956C31.7548 144.373 32.0045 144.819 32.2059 145.287C32.3219 145.622 32.3404 145.983 32.2593 146.329C32.1783 146.674 32.0009 146.99 31.7473 147.241C31.8069 146.702 31.6968 146.158 31.432 145.683H31.4607ZM30.8587 147.581C30.8587 147.212 30.8587 146.901 30.8587 146.561C30.8482 146.144 30.9794 145.735 31.2313 145.4C31.4835 145.799 31.6585 146.241 31.7473 146.703C31.7722 147.063 31.7128 147.424 31.5736 147.758C31.4344 148.092 31.2192 148.39 30.9447 148.628C30.744 148.458 30.9447 148.005 30.9447 147.581H30.8587ZM29.7408 148.147C29.807 147.565 30.0937 147.028 30.5434 146.646C30.6468 147.151 30.6468 147.671 30.5434 148.175C30.4634 148.537 30.285 148.871 30.0274 149.14C29.7698 149.41 29.4428 149.605 29.0815 149.704C29.4494 149.264 29.6609 148.717 29.6834 148.147H29.7408Z" fill="url(#paint24_linear_608_10792)"/>
        <path fill-rule="evenodd" clip-rule="evenodd" d="M19.6223 127.419C19.6223 127.419 22.4887 131.808 33.9546 129.09C45.4204 126.371 46.4523 121.246 46.4523 121.246L42.124 98.1953L14.606 104.765L19.6223 127.419Z" fill="#142916"/>
        <path fill-rule="evenodd" clip-rule="evenodd" d="M7.03857 71.6614L19.6223 127.419C19.6223 127.419 22.4888 131.298 33.9546 128.58C45.4205 125.748 46.5098 121.019 46.5098 121.019L36.8211 64.582L7.03857 71.6614Z" fill="url(#paint25_linear_608_10792)"/>
        <path fill-rule="evenodd" clip-rule="evenodd" d="M43.0698 124.899C42.7285 125.135 42.3745 125.352 42.0093 125.55L30.8301 66.083L31.948 65.8281L43.0698 124.899Z" fill="white"/>
        <path fill-rule="evenodd" clip-rule="evenodd" d="M7.03857 71.6621L19.6223 127.42C19.6223 127.42 22.4888 131.299 33.9546 128.581C34.9006 128.354 35.7892 128.127 36.6204 127.873C18.4471 117.763 11.8256 79.7326 9.73305 71.0391L7.03857 71.6621Z" fill="url(#paint26_linear_608_10792)"/>
        <path fill-rule="evenodd" clip-rule="evenodd" d="M36.5344 65.0342L33.8686 65.289L7.03857 71.6605L7.21055 72.425C19.0204 75.2568 35.4452 73.756 38.3117 73.4445L36.8497 64.9492L36.5344 65.0342ZM11.1089 89.7272C21.0617 91.477 31.2178 91.8013 41.2641 90.69L39.8309 82.1947C38.0537 82.3929 21.2849 84.0354 9.21709 81.2602L11.1089 89.7555V89.7272ZM15.0073 107.029C24.6642 108.66 34.5018 108.974 44.2452 107.964L42.7833 99.4685C32.8978 100.487 22.9184 100.182 13.1155 98.5623L15.0073 107.058V107.029ZM18.9057 124.303C26.5369 125.643 34.3047 126.062 42.0381 125.549C45.9651 123.255 46.4811 121.018 46.4811 121.018L45.7644 116.771C36.2129 117.722 26.5765 117.437 17.0999 115.921L18.9057 124.303Z" fill="url(#paint27_linear_608_10792)"/>
        <path fill-rule="evenodd" clip-rule="evenodd" d="M36.4771 64.7519H35.8752L7.03857 71.6048V72.0579C18.8484 74.8897 35.3019 73.3888 38.1397 73.0773L36.6778 64.582H36.3625L36.4771 64.7519ZM11.0516 89.4166C21.0146 91.1577 31.1774 91.4914 41.2354 90.4077L39.7735 81.9124C38.0537 82.0823 21.2275 83.7248 9.15975 80.9496L11.0516 89.4449V89.4166ZM14.95 106.719C24.6055 108.363 34.445 108.677 44.1879 107.653L42.7547 99.1579C32.8602 100.191 22.8693 99.886 13.0581 98.2518L14.95 106.747V106.719ZM18.8484 124.021C26.6815 125.368 34.6517 125.768 42.5827 125.21C46.0224 123.058 46.4811 121.019 46.4811 121.019L45.7071 116.46C36.1561 117.426 26.5177 117.14 17.0425 115.61L18.8484 124.021Z" fill="url(#paint28_linear_608_10792)"/>
        <path fill-rule="evenodd" clip-rule="evenodd" d="M7.03868 71.6621V72.1151C7.99417 72.3417 8.94965 72.5399 9.90514 72.7098C9.90514 72.0868 9.6185 71.5205 9.53251 71.0391L6.8667 71.6621H7.03868ZM10.2778 85.9908L11.0517 89.4172C12.1123 89.6721 13.1729 89.8703 14.2908 90.0685C13.4309 87.0385 12.6856 84.1785 12.0837 81.5732C11.0804 81.4033 10.1058 81.2334 9.2172 81.0068L10.3351 85.9908H10.2778ZM14.9501 106.719C16.8436 107.128 18.7571 107.44 20.683 107.654C19.3931 104.822 18.2465 101.99 17.2146 99.1585C15.8387 98.9602 14.3481 98.7054 13.1442 98.4223L15.0361 106.918L14.9501 106.719ZM18.8485 124.021C23.5155 124.912 28.2556 125.377 33.0088 125.409C30.0714 122.925 27.5469 120.001 25.5273 116.744C22.638 116.562 19.7647 116.183 16.928 115.611L18.8485 124.021Z" fill="url(#paint29_linear_608_10792)"/>
        <path fill-rule="evenodd" clip-rule="evenodd" d="M26.0718 67.243L31.8047 65.8555L33.2666 73.6428C31.5467 73.6428 29.4828 73.8694 27.2183 73.8977L26.0718 67.243ZM32.1487 99.9216C34.4132 99.9216 36.477 99.78 38.1969 99.6668L39.7735 108.162C38.0249 108.162 35.9611 108.36 33.7252 108.389L32.1487 99.8933V99.9216ZM28.9382 82.5912C31.2314 82.5912 33.2666 82.4496 34.9865 82.3363L36.563 90.8316C34.8145 90.8316 32.7506 91.0299 30.5148 91.0582L28.9382 82.5629V82.5912ZM35.3591 116.997C37.6236 116.997 39.6875 116.997 41.4074 116.799L42.9266 124.926L42.4966 125.209C40.834 125.209 38.9708 125.379 36.9356 125.408L35.3591 116.997Z" fill="#88C540"/>
        <path fill-rule="evenodd" clip-rule="evenodd" d="M30.8301 65.997L31.9766 65.7422L33.4386 73.5295H32.2346L30.8301 65.9121V65.997ZM37.1363 99.6384H38.2828L39.8594 108.134H38.7415L37.1363 99.6384ZM40.3754 116.856H41.4933L43.0125 125.011L42.5825 125.294H41.9519L40.3754 116.799V116.856ZM33.8972 82.393H35.0724L36.649 90.8883H35.4737L33.8972 82.393Z" fill="#C7E096"/>
        <path fill-rule="evenodd" clip-rule="evenodd" d="M56.5993 161.712L39.4006 72.2002C39.0279 70.218 37.8527 68.8022 36.7921 69.057C35.7315 69.3119 35.1582 71.1242 35.5309 73.1064L52.4717 161.712H56.5993Z" fill="white"/>
        <path fill-rule="evenodd" clip-rule="evenodd" d="M56.5993 161.712L39.4006 72.2002C39.0279 70.218 37.8527 68.8022 36.7921 69.057C35.7315 69.3119 35.1582 71.1242 35.5309 73.1064L52.4717 161.712H56.5993Z" fill="white"/>
        <path fill-rule="evenodd" clip-rule="evenodd" d="M36.8781 69.0547H37.2221C36.726 69.5633 36.3787 70.1953 36.2171 70.8834C36.0556 71.5715 36.0859 72.29 36.3048 72.9625L53.2743 161.738H52.5577L35.6169 73.1324C35.2442 71.1218 35.7889 69.2812 36.8781 69.0547Z" fill="#D0CDCD"/>
        <path fill-rule="evenodd" clip-rule="evenodd" d="M55.8541 161.712L38.7987 72.3701C38.4547 70.5861 37.4801 69.2835 36.5342 69.1986L36.8782 69.057C37.9388 68.8022 39.114 70.218 39.4866 72.2002L56.6854 161.712H55.8541Z" fill="#D0CDCD"/>
        <path fill-rule="evenodd" clip-rule="evenodd" d="M35.6171 73.1073L36.2764 76.5338L40.5761 77.8363L39.6875 73.1923L35.5024 71.918C35.4614 72.3134 35.4614 72.7119 35.5024 73.1073H35.6171ZM56.5996 161.713L56.7716 162.648C56.8187 162.901 56.8148 163.16 56.7603 163.412C56.7059 163.663 56.6018 163.901 56.4541 164.113C56.3063 164.325 56.1179 164.506 55.8994 164.645C55.6809 164.785 55.4367 164.881 55.1807 164.927C54.9247 164.974 54.662 164.97 54.4075 164.916C54.153 164.862 53.9118 164.76 53.6975 164.614C53.4832 164.468 53.3001 164.281 53.1587 164.066C53.0173 163.85 52.9203 163.609 52.8732 163.356L52.5579 161.713L51.87 157.862L56.1696 159.193L56.6283 161.628L56.5996 161.713ZM38.1109 86.1051L42.4106 87.4077L41.522 82.7637L37.2223 81.461L38.1109 86.1051ZM39.9455 95.6765L44.2165 96.9791L43.3279 92.335L39.0569 91.0324L39.9455 95.6765ZM41.7513 105.22L46.051 106.55L45.1624 101.878L40.8628 100.575L41.7513 105.22ZM43.5859 114.791L47.8856 116.094L46.997 111.449L42.6973 110.147L43.5859 114.791ZM45.4204 124.362L49.7201 125.665L48.8315 121.021L44.5318 119.718L45.4204 124.362ZM47.2549 133.934L51.526 135.236L50.6374 130.564L46.3664 129.261L47.2549 133.934ZM49.0608 143.477L53.3605 144.779L52.4719 140.135L48.1722 138.833L49.0608 143.477ZM50.8954 153.048L55.1951 154.351L54.3065 149.707L50.0068 148.404L50.8954 153.048Z" fill="url(#paint30_linear_608_10792)"/>
        <path fill-rule="evenodd" clip-rule="evenodd" d="M36.8781 69.0547H37.2221C36.726 69.5633 36.3787 70.1953 36.2171 70.8834C36.0556 71.5715 36.0859 72.29 36.3048 72.9625L53.2456 161.738H52.5577L35.6169 73.1324C35.2442 71.1218 35.7889 69.2812 36.8781 69.0547Z" fill="#D0CDCD"/>
        <path fill-rule="evenodd" clip-rule="evenodd" d="M51.8701 157.859L52.6441 158.171L53.8766 164.684C53.6302 164.544 53.4179 164.352 53.2545 164.122C53.0911 163.892 52.9805 163.63 52.9307 163.353L51.8701 157.859Z" fill="#51100D"/>
        <path fill-rule="evenodd" clip-rule="evenodd" d="M56.313 164.287L55.3384 159.02L56.141 159.274V159.558L56.7716 162.927C56.791 163.173 56.7604 163.419 56.6816 163.653C56.6029 163.886 56.4775 164.102 56.313 164.287Z" fill="#C51F25"/>
        <path fill-rule="evenodd" clip-rule="evenodd" d="M15.4371 33.0352C15.1505 33.0352 14.8925 34.2811 14.8925 34.2811L4.57324 77.2673C6.89508 77.8337 12.112 77.9469 23.8932 75.1718C35.0724 72.4816 39.5441 70.2162 41.2926 68.6871L16.3544 33.9413C16.3544 33.9413 15.7524 33.0352 15.4658 33.0352H15.4371Z" fill="url(#paint31_linear_608_10792)"/>
        <path fill-rule="evenodd" clip-rule="evenodd" d="M15.4372 33.0352C15.2939 33.0352 15.4372 33.4599 15.4372 33.7997L25.2405 74.832C28.7663 73.9541 31.5754 73.1329 33.8399 72.3684L15.9245 33.2617V33.1201L15.4372 33.0352Z" fill="url(#paint32_linear_608_10792)"/>
        <path fill-rule="evenodd" clip-rule="evenodd" d="M15.4374 33.0634L32.2348 72.9064L32.8654 72.7081L33.754 72.3967L15.9247 33.4599C15.7527 33.2617 15.552 33.0352 15.4087 33.0352L15.4374 33.0634Z" fill="url(#paint33_linear_608_10792)"/>
        <path fill-rule="evenodd" clip-rule="evenodd" d="M15.2651 33.2636L4.9458 76.2498C6.83309 76.6205 8.76749 76.697 10.6787 76.4764L15.609 32.0742L15.2651 33.2636Z" fill="url(#paint34_linear_608_10792)"/>
        <path fill-rule="evenodd" clip-rule="evenodd" d="M40.7767 68.0635C35.455 71.0056 29.7003 73.1076 23.7213 74.2934C12.8574 76.8986 7.41113 76.9552 4.77399 76.5021C4.77399 76.5021 3.94271 76.5022 4.0287 77.0969C4.0287 77.0969 4.34402 77.0969 4.57334 77.0969C7.06716 77.6066 12.3988 77.5783 23.7786 74.8881C34.6138 72.3112 39.2002 70.074 41.1494 68.5449C41.436 68.4033 41.6653 68.2051 41.6367 68.0635C41.6367 68.0635 41.2927 67.9219 41.0347 67.9219H40.7194L40.7767 68.0635Z" fill="url(#paint35_linear_608_10792)"/>
        <path fill-rule="evenodd" clip-rule="evenodd" d="M23.8359 74.9163C11.3668 77.7481 6.14985 77.7481 4 76.9552L4.60195 80.0701C4.60195 80.0701 4.25796 83.7798 24.6672 78.9375C43.0698 74.5482 42.4965 71.8864 42.4965 71.8864L41.7513 68.1484C40.1461 69.6493 35.7604 72.0845 23.8646 74.9163H23.8359Z" fill="url(#paint36_linear_608_10792)"/>
        <path fill-rule="evenodd" clip-rule="evenodd" d="M25.2407 74.5798L26.072 78.5726C29.7124 77.6665 32.5215 76.8453 34.6714 76.109L33.8688 72.0312C31.6042 72.8241 28.7665 73.6736 25.2694 74.5515L25.2407 74.5798Z" fill="url(#paint37_linear_608_10792)"/>
        <path fill-rule="evenodd" clip-rule="evenodd" d="M32.292 72.5966L33.0946 76.646L34.6998 76.1363L33.8972 72.0586L32.292 72.5966Z" fill="url(#paint38_linear_608_10792)"/>
        <path fill-rule="evenodd" clip-rule="evenodd" d="M4.60195 80.072C4.60195 80.072 4.42997 81.8277 10.9655 81.3463L10.1629 77.2686C8.1066 77.5384 6.01767 77.4327 4 76.957L4.60195 80.072Z" fill="url(#paint39_linear_608_10792)"/>
        <path fill-rule="evenodd" clip-rule="evenodd" d="M95.4117 132.801C95.4117 132.971 95.2683 133.169 95.2397 133.339C95.2535 133.575 95.2535 133.811 95.2397 134.047C95.1753 134.222 95.0986 134.392 95.0104 134.556C95.0268 134.735 95.0268 134.915 95.0104 135.094C95.0104 135.321 94.781 135.491 94.695 135.689C94.695 135.689 94.695 135.944 94.695 136.057C94.5654 136.197 94.4501 136.348 94.3511 136.51C94.3511 136.652 94.1791 136.794 94.0644 136.935C94.0644 136.935 93.8065 137.133 93.7205 137.247C93.7205 137.247 93.5771 137.501 93.4624 137.586C93.3356 137.69 93.2015 137.785 93.0611 137.87C92.8892 137.87 92.7745 138.153 92.6025 138.266L92.1439 138.464C91.9432 138.464 91.8859 138.663 91.7139 138.747C91.507 138.808 91.2964 138.855 91.0833 138.889C90.9284 138.972 90.765 139.038 90.596 139.087C90.4243 139.101 90.2517 139.101 90.08 139.087L89.5068 139.229H88.8188L87.9588 139.37H86.153H85.5797H85.2644C85.1502 139.356 85.0346 139.356 84.9204 139.37H84.1751L83.1719 139.512H82.5699C82.3461 139.552 82.1256 139.609 81.9106 139.682H81.2227C81.0216 139.743 80.829 139.829 80.6494 139.937C80.4457 139.971 80.2446 140.018 80.0474 140.078C79.8596 140.182 79.6777 140.295 79.5028 140.418C79.3021 140.418 79.0728 140.588 78.8435 140.73C78.6715 140.871 78.5855 141.098 78.4135 141.239C78.2702 141.409 77.9836 141.523 77.8402 141.721C77.6047 142.044 77.412 142.397 77.267 142.769C77.1322 143.05 77.0265 143.344 76.9516 143.646C76.9373 143.92 76.9373 144.194 76.9516 144.468L78.3275 144.666C78.342 144.534 78.342 144.401 78.3275 144.269V143.93C78.3275 143.731 78.4995 143.477 78.5569 143.278L78.7002 143.023C78.7002 142.854 78.9868 142.655 79.1301 142.429V142.259C79.1301 142.089 79.4742 142.117 79.7895 141.777H79.9614C80.2545 141.626 80.5616 141.503 80.8787 141.409C81.2696 141.248 81.672 141.116 82.0826 141.013C82.3979 141.013 82.8279 141.013 83.1719 141.013L84.0605 140.871H84.7771H85.4077H86.067H86.6689H87.2709H87.7869H88.3888H89.0768H89.6787H90.1947C90.4333 140.885 90.6726 140.885 90.9113 140.871L91.5133 140.645C91.8286 140.571 92.1358 140.466 92.4305 140.333C92.7006 140.197 92.9513 140.025 93.1758 139.824C93.4073 139.723 93.6282 139.599 93.8351 139.455C94.0931 139.229 94.2078 139.059 94.4371 138.832C94.7462 138.542 95.0336 138.23 95.297 137.898C95.4976 137.558 95.5836 137.417 95.7556 137.077C95.7556 136.879 96.0136 136.737 96.1283 136.51C96.1283 136.312 96.1283 136.057 96.3576 135.831C96.5689 135.411 96.7139 134.963 96.7876 134.5C96.7876 134.075 96.7875 133.679 97.0455 133.112V132.376H96.1283L95.727 132.744C95.7116 132.612 95.7116 132.479 95.727 132.348H95.5836C95.598 132.517 95.598 132.688 95.5836 132.857L95.4117 132.801Z" fill="url(#paint40_linear_608_10792)"/>
        <path fill-rule="evenodd" clip-rule="evenodd" d="M95.4116 133.027C95.4116 133.339 95.2396 134.047 95.1823 134.188C95.0552 134.444 94.9498 134.709 94.867 134.981C94.7539 135.287 94.6099 135.581 94.437 135.859C94.437 136.142 94.437 136.114 94.2364 136.255C94.0821 136.456 93.9386 136.663 93.8064 136.878C93.6591 137.053 93.496 137.214 93.3191 137.36L92.8605 137.841L92.2872 138.266L91.5706 138.662L91.1406 138.861L90.5959 139.031C90.3669 139.046 90.1371 139.046 89.908 139.031C89.7474 139.064 89.5814 139.064 89.4207 139.031C89.2116 139.06 88.9992 139.06 88.7901 139.031C88.4663 138.994 88.1393 138.994 87.8155 139.031H86.7262H85.379C85.121 139.031 84.4617 139.031 84.0031 139.031C83.5158 139.031 82.7992 139.201 82.3119 139.229C81.8532 139.229 81.7673 139.399 81.3946 139.427C81.114 139.421 80.8369 139.49 80.592 139.625C80.372 139.726 80.1412 139.802 79.904 139.852C79.6897 139.872 79.4881 139.962 79.3308 140.107C79.1116 140.247 78.8816 140.37 78.6428 140.475C78.4995 140.475 78.4135 140.673 78.2988 140.815C78.1152 141.003 77.9136 141.174 77.6969 141.324C77.4287 141.566 77.2225 141.867 77.0949 142.202C77.0029 142.462 76.8976 142.717 76.7796 142.967C76.6769 143.211 76.6093 143.469 76.5789 143.731C76.5661 143.901 76.5661 144.071 76.5789 144.241H77.1236C77.0915 143.987 77.0915 143.73 77.1236 143.477C77.2579 143.144 77.3728 142.803 77.4675 142.457C77.4675 142.287 77.4675 142.117 77.9262 141.777C78.1686 141.584 78.3896 141.366 78.5855 141.126C78.7298 140.901 78.9553 140.739 79.2161 140.673C79.569 140.554 79.9137 140.412 80.248 140.248C80.636 140.075 81.0549 139.979 81.4806 139.965C82.5412 139.965 82.1972 139.569 82.9712 139.625C83.1604 139.663 83.3552 139.663 83.5445 139.625C83.5445 139.625 83.7165 139.625 84.0031 139.625C84.1078 139.648 84.2162 139.647 84.3203 139.622C84.4245 139.598 84.5218 139.55 84.605 139.484C84.7356 139.425 84.8773 139.395 85.0207 139.395C85.1641 139.395 85.3058 139.425 85.4363 139.484C85.7301 139.603 86.0598 139.603 86.3536 139.484C86.6065 139.412 86.8747 139.412 87.1275 139.484C87.4219 139.529 87.7217 139.529 88.0161 139.484C88.3674 139.428 88.7255 139.428 89.0767 139.484C89.1846 139.522 89.3012 139.529 89.4129 139.504C89.5246 139.479 89.6268 139.423 89.7073 139.342C89.8507 139.342 89.9653 139.116 90.1946 139.172C90.3931 139.221 90.6026 139.203 90.7896 139.121C90.9766 139.039 91.1304 138.898 91.2266 138.719C91.3699 138.521 92.0292 138.578 92.2298 138.323C92.3134 138.228 92.4229 138.159 92.5452 138.124C92.7847 138.062 92.9965 137.922 93.1471 137.728C93.663 137.162 93.7204 137.247 93.921 136.822C94.0493 136.59 94.225 136.388 94.437 136.227C94.6495 136.046 94.808 135.811 94.8956 135.548C95.0935 135.047 95.2657 134.536 95.4116 134.018C95.4116 133.31 95.8416 133.226 95.7843 132.857C95.7704 132.697 95.7704 132.536 95.7843 132.376V131.895H95.3543C95.3867 132.139 95.3867 132.386 95.3543 132.631L95.4116 133.027Z" fill="url(#paint41_linear_608_10792)"/>
        <path fill-rule="evenodd" clip-rule="evenodd" d="M95.4117 132.799C95.4117 132.969 95.2683 133.167 95.2397 133.337C95.2535 133.573 95.2535 133.809 95.2397 134.045C95.1753 134.22 95.0986 134.39 95.0104 134.554C95.0268 134.733 95.0268 134.914 95.0104 135.092C95.0104 135.319 94.781 135.489 94.695 135.687C94.695 135.687 94.695 135.942 94.695 136.055C94.5653 136.195 94.4501 136.346 94.3511 136.508C94.3511 136.65 94.1791 136.792 94.0644 136.933C94.0644 136.933 93.8065 137.131 93.7205 137.245C93.7205 137.245 93.5771 137.5 93.4624 137.584C93.3356 137.688 93.2015 137.783 93.0611 137.868C92.8892 137.868 92.7745 138.151 92.6025 138.264L92.1439 138.462C91.9432 138.462 91.8859 138.661 91.7139 138.745C91.507 138.806 91.2964 138.853 91.0833 138.887C90.9284 138.97 90.765 139.036 90.596 139.085C90.4243 139.099 90.2517 139.099 90.08 139.085L89.5068 139.227H88.8188L87.9588 139.368H86.153H85.5797H85.2644C85.1502 139.354 85.0346 139.354 84.9204 139.368H84.1751L83.1719 139.51H82.5699C82.3461 139.55 82.1256 139.607 81.9106 139.68H81.2227C81.0216 139.741 80.829 139.827 80.6494 139.935C80.4457 139.969 80.2446 140.016 80.0474 140.076C79.8596 140.18 79.6777 140.293 79.5028 140.416C79.3021 140.416 79.0728 140.586 78.8435 140.728C78.6715 140.869 78.5855 141.096 78.4135 141.237C78.2702 141.407 77.9836 141.521 77.8402 141.719C77.6047 142.042 77.412 142.395 77.267 142.767C77.1322 143.048 77.0265 143.342 76.9516 143.644C76.9373 143.918 76.9373 144.192 76.9516 144.466C76.9494 144.201 77.0106 143.941 77.1301 143.704C77.2497 143.468 77.4243 143.263 77.6396 143.106C77.9501 142.915 78.3059 142.808 78.6715 142.795C78.5248 143.213 78.2427 143.571 77.8689 143.814C77.5418 143.987 77.2423 144.206 76.9803 144.466H77.2096C77.4517 144.105 77.8185 143.843 78.2415 143.729C78.2013 144.024 78.1142 144.311 77.9836 144.579H78.2702C78.2847 144.447 78.2847 144.314 78.2702 144.183V143.843C78.2702 143.644 78.4422 143.39 78.4995 143.191L78.6429 142.937C78.6429 142.767 78.9295 142.568 79.0728 142.342V142.172C79.0728 142.002 79.4168 142.03 79.7321 141.691H79.9041C80.1971 141.539 80.5043 141.416 80.8214 141.322C81.2123 141.161 81.6147 141.029 82.0253 140.926C82.3406 140.926 82.7705 140.926 83.1145 140.926L84.0032 140.784H84.7198H85.3504H86.0097H86.6116H87.2136H87.7295H88.3315H89.0195H89.6214H90.1374C90.3761 140.798 90.6153 140.798 90.854 140.784L91.4559 140.558C91.7713 140.484 92.0785 140.38 92.3732 140.246C92.6433 140.11 92.8939 139.938 93.1185 139.737C93.35 139.636 93.5708 139.512 93.7778 139.368C94.0357 139.142 94.1504 138.972 94.3797 138.745C94.6889 138.455 94.9763 138.143 95.2397 137.811C95.4403 137.471 95.5263 137.33 95.6983 136.99C95.6983 136.792 95.9563 136.65 96.0709 136.423C96.0709 136.225 96.0709 135.97 96.3003 135.744C96.5115 135.324 96.6565 134.876 96.7302 134.413C96.7302 133.988 96.7302 133.592 96.9882 133.025V132.374H96.8449C96.8065 132.566 96.7281 132.749 96.6146 132.91C96.5011 133.07 96.355 133.206 96.1856 133.308C95.9268 133.453 95.6778 133.613 95.4403 133.79C95.5211 133.22 95.8058 132.698 96.2429 132.317H96.0709L95.6696 132.685C95.6542 132.554 95.6542 132.421 95.6696 132.289H95.5263C95.5407 132.459 95.5407 132.629 95.5263 132.799H95.4117ZM95.6696 133.762C96.0006 133.538 96.308 133.282 96.5869 132.997C96.6196 133.26 96.5811 133.527 96.4754 133.771C96.3696 134.015 96.2004 134.226 95.9849 134.385C95.641 134.611 95.2397 134.724 94.9244 134.951C95.0358 134.485 95.2973 134.068 95.6696 133.762ZM96.3576 134.3C96.349 134.566 96.2671 134.826 96.1207 135.051C95.9743 135.275 95.7688 135.456 95.5263 135.574C95.125 135.772 94.7237 135.8 94.4657 135.942C94.6426 135.517 94.9416 135.153 95.3257 134.894L96.3576 134.3ZM95.9276 135.461C95.9056 135.725 95.8076 135.977 95.645 136.188C95.4825 136.399 95.2622 136.559 95.0104 136.65C94.6091 136.792 94.1791 136.65 93.8351 136.877C94.0656 136.461 94.4284 136.133 94.867 135.942C95.2429 135.835 95.6003 135.672 95.9276 135.461ZM95.3543 136.622C95.2992 136.881 95.1654 137.117 94.9708 137.299C94.7762 137.481 94.53 137.601 94.2651 137.641H93.0611C93.3705 137.28 93.7785 137.015 94.2364 136.877C94.6221 136.826 94.9985 136.721 95.3543 136.565V136.622ZM94.6664 137.754C94.5347 137.992 94.3392 138.189 94.1016 138.324C93.8639 138.459 93.5932 138.526 93.3192 138.519C92.8892 138.519 92.5452 138.349 92.2299 138.349C92.599 138.052 93.0466 137.865 93.5198 137.811C93.9211 137.811 94.2937 137.811 94.6664 137.811V137.754ZM92.2872 139.199C91.8859 139.199 91.5706 138.915 91.2553 138.859C91.689 138.639 92.1725 138.531 92.6598 138.547L93.7778 138.689C93.6304 138.854 93.4499 138.988 93.2475 139.08C93.0452 139.173 92.8255 139.223 92.6025 139.227H92.2872V139.199ZM91.2266 139.708C90.8883 139.501 90.5336 139.321 90.166 139.17C90.6451 139.045 91.1488 139.045 91.6279 139.17C92.0006 139.17 92.3732 139.425 92.7745 139.482C92.4794 139.711 92.1176 139.84 91.7426 139.85C91.5721 139.882 91.3971 139.882 91.2266 139.85V139.708ZM90.0227 139.991C89.6501 139.765 89.3921 139.482 89.0768 139.34C89.5682 139.261 90.0721 139.31 90.5387 139.482C90.9113 139.623 91.2266 139.878 91.5993 140.02C91.3495 140.143 91.0756 140.21 90.7967 140.218C90.5229 140.211 90.2559 140.133 90.0227 139.991ZM88.9048 140.19C88.5321 139.963 88.2742 139.652 87.9015 139.453C89.2775 139.312 89.6501 139.963 90.3954 140.36C90.1858 140.383 89.9743 140.383 89.7647 140.36C89.4536 140.366 89.1497 140.266 88.9048 140.076V140.19ZM86.6976 139.538C88.1022 139.538 88.4748 140.105 89.1628 140.558H88.6468C87.6722 140.558 87.3282 139.793 86.6976 139.482V139.538ZM85.5224 139.538C86.9269 139.538 87.2709 140.133 87.9588 140.614H87.5002C86.4969 140.614 86.1817 139.85 85.5224 139.51V139.538ZM84.2898 139.538C85.723 139.538 86.0957 140.133 86.7263 140.614H86.2676C85.2357 140.614 84.9204 139.85 84.2324 139.51L84.2898 139.538ZM83.0572 139.538C84.4905 139.34 84.8918 140.076 85.5224 140.558H85.0924C84.0891 140.558 83.7738 139.793 83.0572 139.482V139.538ZM83.0572 140.416C82.7288 140.124 82.3363 139.911 81.9106 139.793C82.1398 139.672 82.3959 139.608 82.6559 139.608C82.916 139.608 83.172 139.672 83.4012 139.793C83.8025 139.991 84.1178 140.331 84.4331 140.501C84.2532 140.536 84.0684 140.536 83.8885 140.501C83.5892 140.49 83.3 140.391 83.0572 140.218V140.416ZM81.4807 140.416C81.194 140.275 80.8214 140.246 80.764 140.048C81.2509 139.851 81.7964 139.851 82.2833 140.048C82.624 140.252 82.9497 140.479 83.2579 140.728C83.0684 140.763 82.874 140.763 82.6846 140.728C82.2416 140.677 81.8233 140.5 81.4807 140.218V140.416ZM80.2481 140.784C79.9614 140.784 79.6175 140.784 79.5601 140.501C79.8084 140.393 80.0769 140.337 80.3484 140.337C80.6199 140.337 80.8884 140.393 81.1367 140.501C81.472 140.667 81.789 140.866 82.0826 141.096C81.8764 141.191 81.651 141.24 81.4233 141.237C81.0151 141.19 80.6178 141.075 80.2481 140.898V140.784ZM79.8468 140.784C80.2395 140.908 80.6227 141.059 80.9934 141.237C80.8063 141.374 80.5886 141.463 80.3589 141.497C80.1291 141.532 79.8944 141.511 79.6748 141.436C79.2695 141.278 78.8188 141.278 78.4135 141.436C78.5751 141.219 78.795 141.05 79.0483 140.95C79.3016 140.85 79.5782 140.822 79.8468 140.869V140.784ZM77.4963 142.2C77.6421 141.967 77.8439 141.772 78.0838 141.634C78.3238 141.495 78.5946 141.418 78.8722 141.407C79.2487 141.441 79.6169 141.537 79.9614 141.691C79.735 141.92 79.426 142.053 79.1015 142.059C78.9873 142.073 78.8717 142.073 78.7575 142.059H78.2989C78.0409 142.059 77.7829 142.229 77.6109 142.229L77.4963 142.2ZM79.0728 142.2C78.8423 142.578 78.4723 142.852 78.0409 142.965C77.618 143.029 77.2319 143.24 76.9516 143.56C76.9646 143.283 77.0579 143.015 77.2206 142.789C77.3833 142.563 77.6084 142.388 77.8689 142.285C78.1733 142.244 78.4818 142.244 78.7862 142.285H79.0728V142.2Z" fill="url(#paint42_linear_608_10792)"/>
        <path fill-rule="evenodd" clip-rule="evenodd" d="M86.6115 127.335C86.6115 127.335 85.2643 131.412 91.9145 137.359C98.5647 143.306 102.148 141.408 102.148 141.408L114.13 127.25L98.0774 112.949L86.6115 127.335Z" fill="#172164"/>
        <path fill-rule="evenodd" clip-rule="evenodd" d="M86.6112 127.333C86.6112 127.333 85.522 131.099 92.1722 137.017C98.8224 142.964 102.262 141.265 102.262 141.265L132.016 107.284L114.817 91.8789L86.6112 127.333Z" fill="url(#paint43_linear_608_10792)"/>
        <path fill-rule="evenodd" clip-rule="evenodd" d="M98.4215 141.013L97.5615 140.673L128.548 104.059L129.207 104.653L98.4215 141.013Z" fill="white"/>
        <path fill-rule="evenodd" clip-rule="evenodd" d="M86.6112 127.336C86.6112 127.336 85.522 131.102 92.1722 137.02C92.7455 137.53 93.2614 137.955 93.7774 138.351C91.8855 121.814 111.865 98.7063 116.222 93.0428L114.703 91.6836L86.6112 127.336Z" fill="url(#paint44_linear_608_10792)"/>
        <path fill-rule="evenodd" clip-rule="evenodd" d="M114.33 92.247C117.651 99.5922 122.035 106.422 127.344 112.522L131.787 107.425L131.615 107.227L130.296 105.641L114.703 91.7656L114.33 92.247ZM105.731 103.291L109.973 97.9105C113.311 105.076 117.642 111.748 122.843 117.733L118.372 122.83C113.251 116.894 108.996 110.279 105.731 103.178V103.291ZM97.1312 114.335C100.327 121.199 104.454 127.601 109.4 133.364L113.843 128.267C108.833 122.407 104.64 115.912 101.374 108.954L97.1312 114.335ZM88.5318 125.35L92.7742 119.998C95.97 126.728 100.036 133.02 104.871 138.716L102.635 141.265C101.854 141.503 101.03 141.572 100.219 141.47C99.4084 141.367 98.6292 141.095 97.9338 140.67C94.0629 135.971 90.7809 130.827 88.1592 125.35H88.5318Z" fill="url(#paint45_linear_608_10792)"/>
        <path fill-rule="evenodd" clip-rule="evenodd" d="M114.473 92.0488C117.8 99.3999 122.183 106.238 127.487 112.353L131.959 107.227L131.787 107.057L131.471 106.689L114.702 91.7656L114.473 92.0488ZM105.874 103.093L110.087 97.7124C113.432 104.918 117.763 111.635 122.958 117.676L118.515 122.773C113.379 116.838 109.122 110.212 105.874 103.093ZM97.1311 114.137C100.332 121.013 104.469 127.425 109.428 133.194L113.871 128.097C108.841 122.247 104.637 115.75 101.373 108.785L97.1311 114.137ZM88.5317 125.18L92.7454 119.8C95.9524 126.53 100.028 132.822 104.871 138.518L102.463 141.35C101.764 141.564 101.03 141.639 100.301 141.571C99.5731 141.503 98.8658 141.293 98.2203 140.953C94.2864 136.113 90.9654 130.816 88.3311 125.18H88.5317Z" fill="url(#paint46_linear_608_10792)"/>
        <path fill-rule="evenodd" clip-rule="evenodd" d="M102.635 111.731C102.119 110.739 101.66 109.748 101.259 108.899L97.0164 114.251C97.5897 115.61 98.249 117.083 98.9369 118.3C100.084 116.091 101.316 113.911 102.635 111.844V111.731ZM110.919 99.8654C110.575 99.1575 110.259 98.4496 109.973 97.7133L107.479 100.913L105.759 103.094C106.065 103.887 106.409 104.679 106.791 105.472C108.224 103.433 109.658 101.536 110.919 99.8088V99.8654ZM95.6118 125.833C94.4702 123.884 93.4461 121.87 92.5448 119.801L88.3311 125.181C89.816 128.564 91.6102 131.806 93.6913 134.866C93.9172 131.783 94.5632 128.745 95.6118 125.833ZM114.702 91.8516L114.473 92.1348C114.76 92.8427 115.046 93.5789 115.39 94.2868L116.222 93.2108L114.702 91.8516Z" fill="#212D74"/>
        <path fill-rule="evenodd" clip-rule="evenodd" d="M122.327 105.755C123.359 107.17 124.305 108.416 125.194 109.464L129.264 104.678L125.882 101.648L122.385 105.755H122.327ZM104.412 126.879C105.415 128.295 106.361 129.541 107.279 130.589L111.664 125.435C110.862 124.387 109.916 123.113 108.798 121.697L104.412 126.879ZM113.384 116.317C114.387 117.733 115.333 118.979 116.251 120.027L120.636 114.873C119.834 113.825 118.859 112.579 117.77 111.163L113.384 116.317ZM95.4688 137.414C96.3574 138.688 97.2173 139.849 98.0199 140.868L98.3639 141.01L102.606 135.998C101.804 134.95 100.858 133.676 99.7397 132.26L95.4688 137.414Z" fill="#59C9E6"/>
        <path fill-rule="evenodd" clip-rule="evenodd" d="M124.563 108.758L125.137 109.466L129.207 104.681L128.548 104.086L124.563 108.758ZM106.677 129.912L107.193 130.591L111.578 125.437L111.062 124.729L106.677 129.912ZM97.7334 140.474L98.0487 140.871L98.3927 141.012L102.635 136L102.119 135.32L97.7334 140.474ZM115.649 119.349L116.193 120.029L120.579 114.875C120.407 114.648 120.235 114.394 120.034 114.167L115.649 119.349Z" fill="#6BCBDC"/>
        <path fill-rule="evenodd" clip-rule="evenodd" d="M87.3279 161.71L128.605 112.55C129.637 111.333 129.981 109.888 129.35 109.322C128.72 108.756 127.401 109.322 126.484 110.54L83.4868 161.512L87.3279 161.71Z" fill="white"/>
        <path fill-rule="evenodd" clip-rule="evenodd" d="M87.3279 161.71L128.605 112.55C129.637 111.333 129.981 109.888 129.35 109.322C128.72 108.756 127.401 109.322 126.484 110.54L83.4868 161.512L87.3279 161.71Z" fill="white"/>
        <path fill-rule="evenodd" clip-rule="evenodd" d="M129.264 109.438C129.337 109.501 129.396 109.578 129.436 109.665C128.748 109.353 127.602 109.92 126.57 110.996L83.8882 161.713H83.4009L126.398 110.741C127.401 109.41 128.748 108.872 129.264 109.438Z" fill="#D0CDCD"/>
        <path fill-rule="evenodd" clip-rule="evenodd" d="M86.6113 161.713L128.204 112.299C128.612 111.923 128.911 111.447 129.072 110.92C129.234 110.393 129.25 109.833 129.121 109.297H129.35C129.981 109.863 129.637 111.307 128.605 112.525L87.3279 161.571L86.6113 161.713Z" fill="#D0CDCD"/>
        <path fill-rule="evenodd" clip-rule="evenodd" d="M126.398 110.654L124.621 112.75L125.71 116.148L128.118 113.316L127.057 110.031C126.81 110.219 126.588 110.438 126.398 110.683V110.654ZM87.5287 161.626L88.4173 160.55L87.3281 157.18L84.9202 160.012L83.4297 161.796C83.2717 161.942 83.147 162.119 83.0639 162.316C82.9807 162.513 82.941 162.725 82.9475 162.938C82.9539 163.151 83.0063 163.361 83.1012 163.553C83.1961 163.744 83.3312 163.914 83.4977 164.05C83.6641 164.186 83.8581 164.285 84.0665 164.341C84.2749 164.398 84.493 164.409 84.7063 164.375C84.9196 164.342 85.1232 164.263 85.3034 164.146C85.4836 164.028 85.6364 163.874 85.7515 163.693L87.3568 161.796L87.5287 161.598V161.626ZM119.662 118.781L120.751 122.151L123.159 119.32L122.07 115.921L119.662 118.753V118.781ZM114.674 124.672L115.792 128.041L118.2 125.21L117.111 121.84L114.674 124.672ZM109.715 130.562L110.833 133.931L113.241 131.1L112.152 127.73L109.715 130.562ZM104.756 136.452L105.874 139.821L108.282 136.99L107.164 133.62L104.756 136.452ZM99.7972 142.342L100.915 145.74L103.323 142.908L102.205 139.538L99.7972 142.37V142.342ZM94.8669 148.147L95.9561 151.517L98.3926 148.685L97.2747 145.287L94.8669 148.119V148.147ZM89.9079 154.037L90.9971 157.407L93.405 154.575L92.3157 151.177L89.9079 154.037Z" fill="url(#paint47_linear_608_10792)"/>
        <path fill-rule="evenodd" clip-rule="evenodd" d="M129.264 109.438C129.337 109.501 129.396 109.578 129.436 109.665C128.748 109.353 127.602 109.92 126.57 110.996L83.8595 161.713H83.4009L126.398 110.741C127.401 109.41 128.748 108.872 129.264 109.438Z" fill="#D0CDCD"/>
        <path fill-rule="evenodd" clip-rule="evenodd" d="M107.164 133.479L104.756 136.311L104.928 136.821L107.336 133.989L107.164 133.394V133.479ZM126.369 110.655L125.108 112.156L124.592 112.751L124.793 113.374L126.771 110.995L127.201 110.542L127.029 110.004L126.857 110.202L126.369 110.655ZM87.2996 157.068L84.8917 159.9L83.4012 161.684C83.2631 161.847 83.1613 162.038 83.102 162.242C83.0428 162.447 83.0275 162.662 83.0572 162.873L87.5002 157.634L87.2996 157.039V157.068ZM119.777 119.122V119.264L122.213 116.432L122.041 115.951V115.809L121.124 116.913L119.633 118.697L119.777 119.15V119.122ZM114.646 124.559L114.789 125.069L117.197 122.237V121.982V121.642L116.251 122.747L114.76 124.503L114.646 124.559ZM112.123 127.589L110.403 129.6L109.687 130.449L109.887 131.044L112.295 128.212L112.123 127.617V127.589ZM99.7687 142.229L99.9407 142.796L102.348 139.964L102.148 139.369L99.74 142.201L99.7687 142.229ZM97.2748 145.429V145.259L94.867 148.091L95.0677 148.686L97.4755 145.854V145.401L97.2748 145.429ZM89.8794 154.123L90.0514 154.632L92.4592 151.801V151.376V151.178L90.0514 154.01L89.8794 154.123Z" fill="#51100D"/>
        <path fill-rule="evenodd" clip-rule="evenodd" d="M118.171 125.068L117.971 124.445L115.563 127.277L115.763 127.872L118.171 125.04V125.068ZM125.624 116.007L127.688 113.543L128.032 113.146L127.831 112.523L125.424 115.355V115.837L125.624 116.007ZM88.2742 160.692L88.0735 160.069L84.4331 164.401C84.8292 164.402 85.2097 164.249 85.4937 163.977L88.1595 160.833L88.2742 160.692ZM120.665 122.038L122.93 119.206L123.073 119.065V118.895L122.93 118.442L120.522 121.274L120.723 121.897L120.665 122.038ZM110.747 133.818L113.155 130.987L112.954 130.392L110.547 133.224L110.747 133.818ZM105.989 139.482L108.196 136.848L107.995 136.254L105.588 139.085L105.788 139.68L105.989 139.454V139.482ZM100.6 145.004L100.772 145.542L102.549 143.418L103.18 142.653L102.979 142.059L100.571 144.891L100.6 145.004ZM95.6123 150.894L95.7843 151.404L97.9342 148.855L98.2208 148.544L98.0201 147.921L95.5836 150.752L95.6123 150.894ZM90.6533 156.784L90.854 157.407L93.2618 154.575V154.405L93.1185 153.952L90.6533 156.784Z" fill="#C51F25"/>
        <path fill-rule="evenodd" clip-rule="evenodd" d="M118.171 125.068L117.971 124.445L115.563 127.277L115.763 127.872L118.171 125.04V125.068ZM125.624 116.007L127.688 113.543L128.032 113.146L127.831 112.523L125.424 115.355V115.837L125.624 116.007ZM88.2742 160.692L88.0735 160.069L84.4331 164.401C84.8292 164.402 85.2097 164.249 85.4937 163.977L88.1595 160.833L88.2742 160.692ZM120.665 122.038L122.93 119.206L123.073 119.065V118.895L122.93 118.442L120.522 121.274L120.723 121.897L120.665 122.038ZM110.747 133.818L113.155 130.987L112.954 130.392L110.547 133.224L110.747 133.818ZM105.989 139.482L108.196 136.848L107.995 136.254L105.588 139.085L105.788 139.68L105.989 139.454V139.482ZM100.6 145.004L100.772 145.542L102.549 143.418L103.18 142.653L102.979 142.059L100.571 144.891L100.6 145.004ZM95.6123 150.894L95.7843 151.404L97.9342 148.855L98.2208 148.544L98.0201 147.921L95.5836 150.752L95.6123 150.894ZM90.6533 156.784L90.854 157.407L93.2618 154.575V154.405L93.1185 153.952L90.6533 156.784Z" fill="#C51F25"/>
        <path fill-rule="evenodd" clip-rule="evenodd" d="M141.562 77.9492C141.261 78.0095 140.971 78.1146 140.702 78.2608L110.26 92.9576C110.919 94.7132 113.126 98.0831 120.006 104.285C126.513 110.09 129.866 111.789 131.472 112.157L141.476 79.1103C141.476 79.1103 141.791 78.2041 141.476 78.0625C141.476 78.0625 141.59 77.9492 141.562 77.9492Z" fill="url(#paint48_linear_608_10792)"/>
        <path fill-rule="evenodd" clip-rule="evenodd" d="M141.218 78.3711L120.665 104.905C122.729 106.717 124.477 108.076 125.911 109.124L141.676 78.5693C141.676 78.5693 141.39 78.7959 141.246 78.9941L141.218 78.3711Z" fill="url(#paint49_linear_608_10792)"/>
        <path fill-rule="evenodd" clip-rule="evenodd" d="M124.993 108.389L125.394 108.7L125.968 109.125L141.619 78.5419C141.619 78.3154 141.619 78.0605 141.619 78.0039L124.993 108.389Z" fill="url(#paint50_linear_608_10792)"/>
        <path fill-rule="evenodd" clip-rule="evenodd" d="M141.562 77.9482H141.304H140.73L110.289 92.645C110.883 94.0363 111.696 95.3264 112.696 96.4679L141.619 77.6367L141.562 77.9482Z" fill="url(#paint51_linear_608_10792)"/>
        <path fill-rule="evenodd" clip-rule="evenodd" d="M110.289 92.4186C110.257 92.4053 110.223 92.3984 110.188 92.3984C110.154 92.3984 110.12 92.4053 110.088 92.4186C110.088 92.4186 110.088 92.6734 110.26 92.8433C111.034 94.684 113.384 98.0537 120.006 103.944C126.312 109.607 129.666 111.391 131.472 111.873C131.672 111.873 131.902 112.014 131.959 111.873C131.959 111.873 131.758 111.25 131.644 111.193C127.49 109.249 123.693 106.637 120.407 103.462C116.537 100.423 113.263 96.7087 110.747 92.5035C110.747 92.5035 110.518 92.4186 110.289 92.4186Z" fill="url(#paint52_linear_608_10792)"/>
        <path fill-rule="evenodd" clip-rule="evenodd" d="M108.568 94.3709C108.568 94.3709 106.16 95.9851 118.028 106.548C128.748 116.062 130.095 114.391 130.095 114.391L131.987 112.098C130.353 111.843 127.028 110.2 120.12 104.056C112.839 97.5708 110.718 94.1444 110.174 92.4453L108.568 94.3709Z" fill="url(#paint53_linear_608_10792)"/>
        <path fill-rule="evenodd" clip-rule="evenodd" d="M118.859 107.258C120.98 109.127 122.729 110.514 124.133 111.562L126.226 109.042C124.764 107.994 123.015 106.578 120.923 104.766L118.859 107.258Z" fill="url(#paint54_linear_608_10792)"/>
        <path fill-rule="evenodd" clip-rule="evenodd" d="M123.102 110.798L124.133 111.562L126.226 109.042L125.194 108.277L123.102 110.798Z" fill="url(#paint55_linear_608_10792)"/>
        <path fill-rule="evenodd" clip-rule="evenodd" d="M108.569 94.3709C108.569 94.3709 107.422 95.1355 110.575 99.0434L112.696 96.5231C111.631 95.3126 110.778 93.9342 110.174 92.4453L108.569 94.3709Z" fill="url(#paint56_linear_608_10792)"/>
    </g>
    <defs>
        <filter id="filter0_d_608_10792" x="0" y="0" width="145.705" height="172.98" filterUnits="userSpaceOnUse" color-interpolation-filters="sRGB">
            <feFlood flood-opacity="0" result="BackgroundImageFix"/>
            <feColorMatrix in="SourceAlpha" type="matrix" values="0 0 0 0 0 0 0 0 0 0 0 0 0 0 0 0 0 0 127 0" result="hardAlpha"/>
            <feOffset dy="2"/>
            <feGaussianBlur stdDeviation="2"/>
            <feComposite in2="hardAlpha" operator="out"/>
            <feColorMatrix type="matrix" values="0 0 0 0 0 0 0 0 0 0 0 0 0 0 0 0 0 0 0.25 0"/>
            <feBlend mode="normal" in2="BackgroundImageFix" result="effect1_dropShadow_608_10792"/>
            <feBlend mode="normal" in="SourceGraphic" in2="effect1_dropShadow_608_10792" result="shape"/>
        </filter>
        <linearGradient id="paint0_linear_608_10792" x1="58.0325" y1="128.693" x2="70.6421" y2="106.783" gradientUnits="userSpaceOnUse">
            <stop stop-color="#EE3526"/>
            <stop offset="0.64" stop-color="#FDFAD9"/>
            <stop offset="1" stop-color="#FDFAD9"/>
        </linearGradient>
        <linearGradient id="paint1_linear_608_10792" x1="58.8354" y1="130.872" x2="63.0712" y2="118.861" gradientUnits="userSpaceOnUse">
            <stop stop-color="#EE3627"/>
            <stop offset="0.11" stop-color="#E0594F"/>
            <stop offset="0.22" stop-color="#D47771"/>
            <stop offset="0.33" stop-color="#CA908C"/>
            <stop offset="0.46" stop-color="#C2A3A2"/>
            <stop offset="0.6" stop-color="#BDB1B1"/>
            <stop offset="0.76" stop-color="#BAB9BA"/>
            <stop offset="1" stop-color="#B9BBBD"/>
        </linearGradient>
        <linearGradient id="paint2_linear_608_10792" x1="69.9861" y1="111.506" x2="59.8464" y2="119.441" gradientUnits="userSpaceOnUse">
            <stop stop-color="#EE3526"/>
            <stop offset="0.12" stop-color="#D15047"/>
            <stop offset="0.25" stop-color="#B96862"/>
            <stop offset="0.39" stop-color="#A67978"/>
            <stop offset="0.55" stop-color="#988687"/>
            <stop offset="0.73" stop-color="#908E90"/>
            <stop offset="1" stop-color="#8E9093"/>
        </linearGradient>
        <linearGradient id="paint3_linear_608_10792" x1="54.9658" y1="94.1165" x2="88.2167" y2="94.1165" gradientUnits="userSpaceOnUse">
            <stop stop-color="#1E090B"/>
            <stop offset="0.16" stop-color="#350C0F"/>
            <stop offset="0.51" stop-color="#711318"/>
            <stop offset="1" stop-color="#D11F26"/>
        </linearGradient>
        <linearGradient id="paint4_linear_608_10792" x1="82.5985" y1="77.0989" x2="60.9115" y2="73.764" gradientUnits="userSpaceOnUse">
            <stop stop-color="#A55925"/>
            <stop offset="0.01" stop-color="#A55925"/>
            <stop offset="0.18" stop-color="#F9F188"/>
            <stop offset="0.34" stop-color="white"/>
            <stop offset="0.51" stop-color="#FDE900"/>
            <stop offset="0.96" stop-color="#A56326"/>
            <stop offset="1" stop-color="#A56326"/>
        </linearGradient>
        <linearGradient id="paint5_linear_608_10792" x1="64.4251" y1="74.3531" x2="80.2101" y2="76.847" gradientUnits="userSpaceOnUse">
            <stop stop-color="#B87E2B"/>
            <stop offset="0.96" stop-color="#FDF49B"/>
            <stop offset="1" stop-color="#FDF49B"/>
        </linearGradient>
        <linearGradient id="paint6_linear_608_10792" x1="81.5665" y1="107.343" x2="68.9116" y2="38.5891" gradientUnits="userSpaceOnUse">
            <stop stop-color="#1E090B"/>
            <stop offset="0.16" stop-color="#350C0F"/>
            <stop offset="0.51" stop-color="#711318"/>
            <stop offset="1" stop-color="#D11F26"/>
        </linearGradient>
        <linearGradient id="paint7_linear_608_10792" x1="66.8904" y1="87.5189" x2="82.9827" y2="50.4483" gradientUnits="userSpaceOnUse">
            <stop stop-color="#1E090B"/>
            <stop offset="0.16" stop-color="#350C0F"/>
            <stop offset="0.51" stop-color="#711318"/>
            <stop offset="1" stop-color="#D11F26"/>
        </linearGradient>
        <linearGradient id="paint8_linear_608_10792" x1="54.6792" y1="92.9295" x2="77.9094" y2="48.6329" gradientUnits="userSpaceOnUse">
            <stop stop-color="#1E090B"/>
            <stop offset="0.16" stop-color="#350C0F"/>
            <stop offset="0.51" stop-color="#711318"/>
            <stop offset="1" stop-color="#D11F26"/>
        </linearGradient>
        <linearGradient id="paint9_linear_608_10792" x1="67.0621" y1="102.866" x2="95.7763" y2="48.0937" gradientUnits="userSpaceOnUse">
            <stop stop-color="#FEEAE5"/>
            <stop offset="0.01" stop-color="#FEEAE5"/>
            <stop offset="1" stop-color="#EE2A24"/>
        </linearGradient>
        <linearGradient id="paint10_linear_608_10792" x1="68.7247" y1="105.047" x2="98.3105" y2="48.5664" gradientUnits="userSpaceOnUse">
            <stop stop-color="#1E090B"/>
            <stop offset="0.02" stop-color="#450F10"/>
            <stop offset="0.03" stop-color="#681514"/>
            <stop offset="0.05" stop-color="#891A18"/>
            <stop offset="0.07" stop-color="#A51E1B"/>
            <stop offset="0.1" stop-color="#BC221E"/>
            <stop offset="0.13" stop-color="#CF2520"/>
            <stop offset="0.17" stop-color="#DD2722"/>
            <stop offset="0.22" stop-color="#E72923"/>
            <stop offset="0.31" stop-color="#ED2A24"/>
            <stop offset="1" stop-color="#EE2A24"/>
        </linearGradient>
        <linearGradient id="paint11_linear_608_10792" x1="82.0824" y1="174.141" x2="74.4354" y2="158.916" gradientUnits="userSpaceOnUse">
            <stop stop-color="#811517"/>
            <stop offset="0.24" stop-color="#ED1C24"/>
            <stop offset="0.36" stop-color="#ED1C24"/>
            <stop offset="0.54" stop-color="#DF1E26"/>
            <stop offset="0.96" stop-color="#4F110D"/>
            <stop offset="1" stop-color="#4F110D"/>
        </linearGradient>
        <linearGradient id="paint12_linear_608_10792" x1="109.113" y1="232.904" x2="77.2529" y2="56.8005" gradientUnits="userSpaceOnUse">
            <stop stop-color="#811517"/>
            <stop offset="0.24" stop-color="#ED1C24"/>
            <stop offset="0.36" stop-color="#ED1C24"/>
            <stop offset="0.54" stop-color="#DF1E26"/>
            <stop offset="0.96" stop-color="#4F110D"/>
            <stop offset="1" stop-color="#4F110D"/>
        </linearGradient>
        <linearGradient id="paint13_linear_608_10792" x1="101.03" y1="29.0424" x2="66.1077" y2="23.5905" gradientUnits="userSpaceOnUse">
            <stop stop-color="#EF3E23"/>
            <stop offset="0.39" stop-color="#FCB316"/>
            <stop offset="0.83" stop-color="#EF3E23"/>
            <stop offset="1" stop-color="#EF3E23"/>
        </linearGradient>
        <linearGradient id="paint14_linear_608_10792" x1="89.5639" y1="26.8346" x2="80.4204" y2="26.3704" gradientUnits="userSpaceOnUse">
            <stop stop-color="#FDCE07"/>
            <stop offset="0.28" stop-color="#FDC909"/>
            <stop offset="0.6" stop-color="#FBBC0F"/>
            <stop offset="0.94" stop-color="#F9A519"/>
            <stop offset="1" stop-color="#F9A01B"/>
        </linearGradient>
        <linearGradient id="paint15_linear_608_10792" x1="86.1814" y1="26.7506" x2="85.9808" y2="26.7506" gradientUnits="userSpaceOnUse">
            <stop stop-color="white"/>
            <stop offset="0.29" stop-color="white"/>
            <stop offset="1" stop-color="#F7EC00"/>
        </linearGradient>
        <linearGradient id="paint16_linear_608_10792" x1="64.5968" y1="22.8135" x2="75.3396" y2="24.5244" gradientUnits="userSpaceOnUse">
            <stop stop-color="#C51F25"/>
            <stop offset="0.56" stop-color="#EC5E24"/>
            <stop offset="1" stop-color="#F47B20"/>
        </linearGradient>
        <linearGradient id="paint17_linear_608_10792" x1="98.0486" y1="50.7053" x2="56.736" y2="44.5282" gradientUnits="userSpaceOnUse">
            <stop stop-color="#EF3E23"/>
            <stop offset="0.24" stop-color="#F7EC00"/>
            <stop offset="0.53" stop-color="#FAA61A"/>
            <stop offset="0.83" stop-color="#C82026"/>
            <stop offset="1" stop-color="#C82026"/>
        </linearGradient>
        <linearGradient id="paint18_linear_608_10792" x1="97.1887" y1="52.8321" x2="58.2238" y2="47.2347" gradientUnits="userSpaceOnUse">
            <stop stop-color="#EF3824"/>
            <stop offset="0.39" stop-color="#FEBC11"/>
            <stop offset="1" stop-color="#EF3E23"/>
        </linearGradient>
        <linearGradient id="paint19_linear_608_10792" x1="79.7604" y1="52.1492" x2="87.8965" y2="53.4252" gradientUnits="userSpaceOnUse">
            <stop stop-color="#FBAD18"/>
            <stop offset="0.17" stop-color="#FABE12"/>
            <stop offset="0.49" stop-color="#FAD708"/>
            <stop offset="0.77" stop-color="#F9E702"/>
            <stop offset="1" stop-color="#F9EC00"/>
        </linearGradient>
        <linearGradient id="paint20_linear_608_10792" x1="88.36" y1="53.3972" x2="87.1854" y2="53.2232" gradientUnits="userSpaceOnUse">
            <stop stop-color="white"/>
            <stop offset="0.08" stop-color="white"/>
            <stop offset="0.93" stop-color="#F9EC00"/>
            <stop offset="1" stop-color="#F9EC00"/>
        </linearGradient>
        <linearGradient id="paint21_linear_608_10792" x1="57.4021" y1="46.3756" x2="62.0709" y2="47.2165" gradientUnits="userSpaceOnUse">
            <stop stop-color="#A51C20"/>
            <stop offset="1" stop-color="#EA4924"/>
        </linearGradient>
        <linearGradient id="paint22_linear_608_10792" x1="29.2821" y1="147.922" x2="36.7406" y2="124.705" gradientUnits="userSpaceOnUse">
            <stop stop-color="#EE3526"/>
            <stop offset="0.64" stop-color="#FDFAD9"/>
            <stop offset="1" stop-color="#FDFAD9"/>
        </linearGradient>
        <linearGradient id="paint23_linear_608_10792" x1="26.7598" y1="148.628" x2="32.5827" y2="137.808" gradientUnits="userSpaceOnUse">
            <stop stop-color="#EE3627"/>
            <stop offset="0.11" stop-color="#E0594F"/>
            <stop offset="0.22" stop-color="#D47771"/>
            <stop offset="0.33" stop-color="#CA908C"/>
            <stop offset="0.46" stop-color="#C2A3A2"/>
            <stop offset="0.6" stop-color="#BDB1B1"/>
            <stop offset="0.76" stop-color="#BAB9BA"/>
            <stop offset="1" stop-color="#B9BBBD"/>
        </linearGradient>
        <linearGradient id="paint24_linear_608_10792" x1="38.7701" y1="135.546" x2="31.5772" y2="136.3" gradientUnits="userSpaceOnUse">
            <stop stop-color="#EE3526"/>
            <stop offset="0.12" stop-color="#D15047"/>
            <stop offset="0.25" stop-color="#B96862"/>
            <stop offset="0.39" stop-color="#A67978"/>
            <stop offset="0.55" stop-color="#988687"/>
            <stop offset="0.73" stop-color="#908E90"/>
            <stop offset="1" stop-color="#8E9093"/>
        </linearGradient>
        <linearGradient id="paint25_linear_608_10792" x1="38.111" y1="96.0146" x2="20.6443" y2="99.7827" gradientUnits="userSpaceOnUse">
            <stop stop-color="#A55925"/>
            <stop offset="0.01" stop-color="#A55925"/>
            <stop offset="0.18" stop-color="#F9F188"/>
            <stop offset="0.34" stop-color="white"/>
            <stop offset="0.51" stop-color="#FDE900"/>
            <stop offset="0.96" stop-color="#A56326"/>
            <stop offset="1" stop-color="#A56326"/>
        </linearGradient>
        <linearGradient id="paint26_linear_608_10792" x1="19.7943" y1="100.235" x2="26.4949" y2="98.8143" gradientUnits="userSpaceOnUse">
            <stop stop-color="#B87E2B"/>
            <stop offset="0.96" stop-color="#FDF49B"/>
            <stop offset="1" stop-color="#FDF49B"/>
        </linearGradient>
        <linearGradient id="paint27_linear_608_10792" x1="17.9884" y1="118.555" x2="37.353" y2="68.4422" gradientUnits="userSpaceOnUse">
            <stop stop-color="#1F562B"/>
            <stop offset="0.42" stop-color="#1B4423"/>
            <stop offset="1" stop-color="#132414"/>
        </linearGradient>
        <linearGradient id="paint28_linear_608_10792" x1="18.7337" y1="116.687" x2="35.1796" y2="74.1308" gradientUnits="userSpaceOnUse">
            <stop stop-color="#22562B"/>
            <stop offset="0.31" stop-color="#5BBA47"/>
            <stop offset="0.55" stop-color="#009E4A"/>
            <stop offset="1" stop-color="#1A371A"/>
        </linearGradient>
        <linearGradient id="paint29_linear_608_10792" x1="3.74226" y1="139.879" x2="24.5657" y2="85.7626" gradientUnits="userSpaceOnUse">
            <stop stop-color="#009E4A"/>
            <stop offset="0.11" stop-color="#009E4A"/>
            <stop offset="0.97" stop-color="#132414"/>
            <stop offset="1" stop-color="#1A371A"/>
        </linearGradient>
        <linearGradient id="paint30_linear_608_10792" x1="10.4495" y1="208.182" x2="57.232" y2="86.6541" gradientUnits="userSpaceOnUse">
            <stop stop-color="#811517"/>
            <stop offset="0.24" stop-color="#ED1C24"/>
            <stop offset="0.36" stop-color="#ED1C24"/>
            <stop offset="0.54" stop-color="#DF1E26"/>
            <stop offset="0.96" stop-color="#4F110D"/>
            <stop offset="1" stop-color="#4F110D"/>
        </linearGradient>
        <linearGradient id="paint31_linear_608_10792" x1="31.0307" y1="51.6682" x2="0.508236" y2="58.3923" gradientUnits="userSpaceOnUse">
            <stop stop-color="#2C0E27"/>
            <stop offset="0.01" stop-color="#2C0E27"/>
            <stop offset="0.39" stop-color="#EA2891"/>
            <stop offset="1" stop-color="#3B084D"/>
        </linearGradient>
        <linearGradient id="paint32_linear_608_10792" x1="23.3487" y1="53.1124" x2="20.4321" y2="54.0965" gradientUnits="userSpaceOnUse">
            <stop stop-color="#D34097"/>
            <stop offset="0.68" stop-color="#D34097"/>
            <stop offset="1" stop-color="#DB1A8E"/>
        </linearGradient>
        <linearGradient id="paint33_linear_608_10792" x1="24.1227" y1="52.9708" x2="24.0082" y2="52.9997" gradientUnits="userSpaceOnUse">
            <stop stop-color="white"/>
            <stop offset="0.29" stop-color="white"/>
            <stop offset="1" stop-color="#E9ADCF"/>
        </linearGradient>
        <linearGradient id="paint34_linear_608_10792" x1="0.445455" y1="57.9849" x2="18.5125" y2="53.9852" gradientUnits="userSpaceOnUse">
            <stop stop-color="#3B084D"/>
            <stop offset="0.52" stop-color="#71226B"/>
            <stop offset="1" stop-color="#B61D8A"/>
        </linearGradient>
        <linearGradient id="paint35_linear_608_10792" x1="41.952" y1="69.5077" x2="4.38461" y2="77.6523" gradientUnits="userSpaceOnUse">
            <stop stop-color="#2C0E27"/>
            <stop offset="0.01" stop-color="#2C0E27"/>
            <stop offset="0.1" stop-color="#AE1F7C"/>
            <stop offset="0.24" stop-color="#DB7EB3"/>
            <stop offset="0.45" stop-color="#EA2891"/>
            <stop offset="0.77" stop-color="#95257C"/>
            <stop offset="1" stop-color="#3B084D"/>
        </linearGradient>
        <linearGradient id="paint36_linear_608_10792" x1="41.436" y1="72.0846" x2="5.49241" y2="78.9555" gradientUnits="userSpaceOnUse">
            <stop stop-color="#681652"/>
            <stop offset="0.48" stop-color="#EA2891"/>
            <stop offset="1" stop-color="#3B084D"/>
        </linearGradient>
        <linearGradient id="paint37_linear_608_10792" x1="26.416" y1="76.109" x2="33.4595" y2="74.5439" gradientUnits="userSpaceOnUse">
            <stop stop-color="#EA2891"/>
            <stop offset="0.24" stop-color="#EF57A9"/>
            <stop offset="0.78" stop-color="#FACDE5"/>
            <stop offset="1" stop-color="white"/>
        </linearGradient>
        <linearGradient id="paint38_linear_608_10792" x1="33.9259" y1="74.2674" x2="33.0383" y2="74.4702" gradientUnits="userSpaceOnUse">
            <stop stop-color="white"/>
            <stop offset="0.08" stop-color="white"/>
            <stop offset="0.93" stop-color="#FAD1E3"/>
            <stop offset="1" stop-color="#FAD1E3"/>
        </linearGradient>
        <linearGradient id="paint39_linear_608_10792" x1="5.20391" y1="79.5906" x2="9.49954" y2="78.721" gradientUnits="userSpaceOnUse">
            <stop stop-color="#3B084D"/>
            <stop offset="0.59" stop-color="#641A63"/>
            <stop offset="1" stop-color="#7B2470"/>
        </linearGradient>
        <linearGradient id="paint40_linear_608_10792" x1="78.5282" y1="144.015" x2="94.8084" y2="135.327" gradientUnits="userSpaceOnUse">
            <stop stop-color="#EE3526"/>
            <stop offset="0.64" stop-color="#FDFAD9"/>
            <stop offset="1" stop-color="#FDFAD9"/>
        </linearGradient>
        <linearGradient id="paint41_linear_608_10792" x1="78.2128" y1="145.629" x2="85.3969" y2="139.88" gradientUnits="userSpaceOnUse">
            <stop stop-color="#EE3627"/>
            <stop offset="0.11" stop-color="#E0594F"/>
            <stop offset="0.22" stop-color="#D47771"/>
            <stop offset="0.33" stop-color="#CA908C"/>
            <stop offset="0.46" stop-color="#C2A3A2"/>
            <stop offset="0.6" stop-color="#BDB1B1"/>
            <stop offset="0.76" stop-color="#BAB9BA"/>
            <stop offset="1" stop-color="#B9BBBD"/>
        </linearGradient>
        <linearGradient id="paint42_linear_608_10792" x1="92.8605" y1="138.038" x2="83.2029" y2="139.024" gradientUnits="userSpaceOnUse">
            <stop stop-color="#EE3526"/>
            <stop offset="0.12" stop-color="#D15047"/>
            <stop offset="0.25" stop-color="#B96862"/>
            <stop offset="0.39" stop-color="#A67978"/>
            <stop offset="0.55" stop-color="#988687"/>
            <stop offset="0.73" stop-color="#908E90"/>
            <stop offset="1" stop-color="#8E9093"/>
        </linearGradient>
        <linearGradient id="paint43_linear_608_10792" x1="110.288" y1="120.168" x2="104.359" y2="115.056" gradientUnits="userSpaceOnUse">
            <stop stop-color="#A55925"/>
            <stop offset="0.01" stop-color="#A55925"/>
            <stop offset="0.18" stop-color="#F9F188"/>
            <stop offset="0.34" stop-color="white"/>
            <stop offset="0.51" stop-color="#FDE900"/>
            <stop offset="0.96" stop-color="#A56326"/>
            <stop offset="1" stop-color="#A56326"/>
        </linearGradient>
        <linearGradient id="paint44_linear_608_10792" x1="103.724" y1="114.649" x2="106.871" y2="117.491" gradientUnits="userSpaceOnUse">
            <stop stop-color="#B87E2B"/>
            <stop offset="0.96" stop-color="#FDF49B"/>
            <stop offset="1" stop-color="#FDF49B"/>
        </linearGradient>
        <linearGradient id="paint45_linear_608_10792" x1="101.374" y1="137.98" x2="116.894" y2="98.1214" gradientUnits="userSpaceOnUse">
            <stop stop-color="#0052A4"/>
            <stop offset="0.15" stop-color="#004992"/>
            <stop offset="0.46" stop-color="#003062"/>
            <stop offset="0.9" stop-color="#000A15"/>
            <stop offset="1" stop-color="#000002"/>
        </linearGradient>
        <linearGradient id="paint46_linear_608_10792" x1="99.5389" y1="122.519" x2="120.53" y2="108.065" gradientUnits="userSpaceOnUse">
            <stop stop-color="#212D74"/>
            <stop offset="0.24" stop-color="#45C6EB"/>
            <stop offset="1" stop-color="#212D74"/>
        </linearGradient>
        <linearGradient id="paint47_linear_608_10792" x1="96.7874" y1="175.19" x2="100.036" y2="161.042" gradientUnits="userSpaceOnUse">
            <stop stop-color="#811517"/>
            <stop offset="0.24" stop-color="#ED1C24"/>
            <stop offset="0.36" stop-color="#ED1C24"/>
            <stop offset="0.54" stop-color="#DF1E26"/>
            <stop offset="0.96" stop-color="#4F110D"/>
            <stop offset="1" stop-color="#4F110D"/>
        </linearGradient>
        <linearGradient id="paint48_linear_608_10792" x1="138.036" y1="97.2619" x2="124.732" y2="85.6329" gradientUnits="userSpaceOnUse">
            <stop stop-color="#EF3E23"/>
            <stop offset="0.39" stop-color="#FCB316"/>
            <stop offset="0.83" stop-color="#EF3E23"/>
            <stop offset="1" stop-color="#EF3E23"/>
        </linearGradient>
        <linearGradient id="paint49_linear_608_10792" x1="133.822" y1="93.5494" x2="132.571" y2="92.6572" gradientUnits="userSpaceOnUse">
            <stop stop-color="#FDCE07"/>
            <stop offset="0.28" stop-color="#FDC909"/>
            <stop offset="0.6" stop-color="#FBBC0F"/>
            <stop offset="0.94" stop-color="#F9A519"/>
            <stop offset="1" stop-color="#F9A01B"/>
        </linearGradient>
        <linearGradient id="paint50_linear_608_10792" x1="133.621" y1="93.4654" x2="133.593" y2="93.4367" gradientUnits="userSpaceOnUse">
            <stop stop-color="white"/>
            <stop offset="0.29" stop-color="white"/>
            <stop offset="1" stop-color="#F7EC00"/>
        </linearGradient>
        <linearGradient id="paint51_linear_608_10792" x1="123.102" y1="83.9516" x2="126.789" y2="87.1675" gradientUnits="userSpaceOnUse">
            <stop stop-color="#C51F25"/>
            <stop offset="0.56" stop-color="#EC5E24"/>
            <stop offset="1" stop-color="#F47B20"/>
        </linearGradient>
        <linearGradient id="paint52_linear_608_10792" x1="131.672" y1="112.298" x2="109.746" y2="93.1171" gradientUnits="userSpaceOnUse">
            <stop stop-color="#EF3E23"/>
            <stop offset="0.24" stop-color="#F7EC00"/>
            <stop offset="0.53" stop-color="#FAA61A"/>
            <stop offset="0.83" stop-color="#C82026"/>
            <stop offset="1" stop-color="#C82026"/>
        </linearGradient>
        <linearGradient id="paint53_linear_608_10792" x1="129.006" y1="112.409" x2="110.458" y2="95.931" gradientUnits="userSpaceOnUse">
            <stop stop-color="#EF3824"/>
            <stop offset="0.39" stop-color="#FEBC11"/>
            <stop offset="1" stop-color="#EF3E23"/>
        </linearGradient>
        <linearGradient id="paint54_linear_608_10792" x1="120.837" y1="106.72" x2="124.184" y2="109.62" gradientUnits="userSpaceOnUse">
            <stop stop-color="#FBAD18"/>
            <stop offset="0.17" stop-color="#FABE12"/>
            <stop offset="0.49" stop-color="#FAD708"/>
            <stop offset="0.77" stop-color="#F9E702"/>
            <stop offset="1" stop-color="#F9EC00"/>
        </linearGradient>
        <linearGradient id="paint55_linear_608_10792" x1="124.821" y1="110.033" x2="124.509" y2="109.774" gradientUnits="userSpaceOnUse">
            <stop stop-color="white"/>
            <stop offset="0.08" stop-color="white"/>
            <stop offset="0.93" stop-color="#F9EC00"/>
            <stop offset="1" stop-color="#F9EC00"/>
        </linearGradient>
        <linearGradient id="paint56_linear_608_10792" x1="109.514" y1="94.8523" x2="111.241" y2="96.6857" gradientUnits="userSpaceOnUse">
            <stop stop-color="#A51C20"/>
            <stop offset="1" stop-color="#EA4924"/>
        </linearGradient>
        <clipPath id="clip0_608_10792">
            <rect width="137.705" height="164.979" fill="white" transform="translate(4 2)"/>
        </clipPath>
    </defs>
</svg>