<svg width="200" height="200" viewBox="-10 -10 130 180" fill="none" xmlns="http://www.w3.org/2000/svg">
        <g clip-path="url(#clip0_607_10464)" filter="url(#filter0_d_607_10464)">
            <path fill-rule="evenodd" clip-rule="evenodd" d="M18.6701 94.1471L38.6501 87.8893C39.7481 87.5445 40.9397 87.6444 41.9633 88.1671C42.9869 88.6897 43.7589 89.5924 44.1101 90.6771L59.7701 139.523L31.5101 148.42L15.8501 99.5448C15.6733 99.0074 15.6061 98.4407 15.6524 97.8775C15.6987 97.3143 15.8576 96.7658 16.1199 96.2637C16.3821 95.7616 16.7426 95.316 17.1804 94.9527C17.6182 94.5894 18.1246 94.3156 18.6701 94.1471Z" fill="url(#paint0_linear_607_10464)"/>
            <path fill-rule="evenodd" clip-rule="evenodd" d="M17.8901 94.5904C12.1653 85.635 7.68513 75.959 4.5701 65.8226C7.7805 66.4936 10.6973 68.1429 12.9101 70.5382C8.73478 63.5426 5.74526 55.9187 4.06006 47.9688C6.99591 49.3483 9.65806 51.2367 11.9201 53.5445C7.94478 42.3456 5.79784 30.5926 5.56006 18.7266C12.2551 28.5661 17.3187 39.3987 20.5601 50.8159C21.0646 47.6328 22.1524 44.5675 23.7701 41.7704C27.0525 49.2241 29.0793 57.1584 29.7701 65.2591C30.2022 62.0454 31.627 59.0418 33.8501 56.6585C37.1694 66.7057 39.097 77.1511 39.5801 87.7099L38.7401 87.8878L18.7601 94.1456C18.4541 94.261 18.1622 94.4102 17.8901 94.5904Z" fill="url(#paint1_linear_607_10464)"/>
            <path fill-rule="evenodd" clip-rule="evenodd" d="M20.38 93.611C19.78 92.5434 14.1401 82.4005 13.3301 75.5199C15.1264 75.452 16.9084 75.8617 18.4901 76.7062C16.4931 71.8258 16.1354 66.4402 17.47 61.3437C18.1618 61.8743 18.7084 62.5675 19.06 63.3603C19.0802 62.5141 19.2834 61.6818 19.656 60.9196C20.0286 60.1574 20.5618 59.4829 21.22 58.9414C21.2122 59.8257 21.3864 60.7023 21.732 61.5181C22.0775 62.3338 22.5872 63.0715 23.23 63.6865C25.8599 65.9817 27.7832 68.9623 28.7801 72.2873C30.1453 71.4219 31.3189 70.2919 32.23 68.9656C34.4515 75.271 36.0882 81.7631 37.1201 88.3616L20.38 93.611Z" fill="url(#paint2_linear_607_10464)"/>
            <path fill-rule="evenodd" clip-rule="evenodd" d="M24.16 92.4252C21.2293 85.1499 20.4086 77.211 21.79 69.5C21.79 69.5 28.1501 74.6604 33.4901 89.4891L24.16 92.4252Z" fill="#ED6F20"/>
            <path d="M58.2562 134.681L30.0005 143.531L31.5409 148.338L59.7966 139.487L58.2562 134.681Z" fill="url(#paint3_linear_607_10464)"/>
            <path fill-rule="evenodd" clip-rule="evenodd" d="M45.0702 122.468C44.5848 122.611 44.1331 122.848 43.7415 123.165C43.3498 123.483 43.0261 123.874 42.7893 124.317C42.5524 124.759 42.4071 125.244 42.3619 125.742C42.3167 126.241 42.3725 126.744 42.526 127.221C42.6796 127.698 42.9277 128.14 43.2561 128.521C43.5844 128.902 43.9863 129.214 44.4383 129.44C44.8903 129.666 45.3832 129.8 45.8883 129.836C46.3934 129.871 46.9006 129.806 47.3802 129.646C47.8583 129.501 48.3024 129.263 48.6862 128.946C49.07 128.629 49.3858 128.239 49.6151 127.8C49.8443 127.361 49.9822 126.88 50.0209 126.388C50.0596 125.895 49.9981 125.399 49.8402 124.93C49.5367 123.979 48.864 123.186 47.9699 122.724C47.0757 122.263 46.0329 122.171 45.0702 122.468Z" fill="url(#paint4_linear_607_10464)"/>
            <path fill-rule="evenodd" clip-rule="evenodd" d="M27.2502 130.327C26.7811 130.468 26.3361 130.678 25.9302 130.95L29.1702 141.034C29.6596 141.027 30.1451 140.947 30.6102 140.797C32.0145 140.356 33.1844 139.382 33.8623 138.089C34.5402 136.796 34.6708 135.29 34.2252 133.901C33.7797 132.513 32.7945 131.357 31.4864 130.686C30.1784 130.016 28.6545 129.887 27.2502 130.327Z" fill="url(#paint5_linear_607_10464)"/>
            <path fill-rule="evenodd" clip-rule="evenodd" d="M32.8902 116.061C32.2354 116.268 31.6572 116.661 31.2283 117.192C30.7995 117.723 30.5393 118.368 30.4805 119.045C30.4218 119.722 30.5671 120.401 30.8982 120.996C31.2293 121.591 31.7313 122.077 32.341 122.39C32.9506 122.704 33.6405 122.832 34.3238 122.759C35.0071 122.685 35.653 122.414 36.1802 121.978C36.7074 121.542 37.0923 120.961 37.2863 120.31C37.4802 119.658 37.4746 118.964 37.2702 118.315C37.1371 117.88 36.9173 117.475 36.6237 117.125C36.3301 116.775 35.9686 116.486 35.5605 116.276C35.1524 116.066 34.7059 115.939 34.2473 115.902C33.7887 115.865 33.3273 115.919 32.8902 116.061Z" fill="url(#paint6_linear_607_10464)"/>
            <path fill-rule="evenodd" clip-rule="evenodd" d="M39.85 100.936C39.0213 101.191 38.2871 101.681 37.7393 102.347C37.1914 103.012 36.8543 103.822 36.7703 104.676C36.6862 105.53 36.8588 106.39 37.2666 107.147C37.6743 107.904 38.299 108.526 39.0625 108.934C39.8259 109.342 40.6942 109.518 41.5585 109.44C42.4227 109.363 43.2447 109.035 43.9213 108.498C44.5979 107.96 45.0991 107.238 45.3621 106.42C45.6252 105.603 45.6383 104.726 45.3999 103.901C45.0597 102.782 44.2847 101.841 43.2445 101.285C42.2043 100.73 40.9838 100.604 39.85 100.936Z" fill="url(#paint7_linear_607_10464)"/>
            <path fill-rule="evenodd" clip-rule="evenodd" d="M19.36 101.559C18.4308 101.839 17.6129 102.399 17.02 103.16L19.39 110.604C20.3187 110.886 21.3114 110.886 22.2401 110.604C23.3121 110.121 24.1655 109.264 24.636 108.196C25.1065 107.128 25.1607 105.926 24.7882 104.821C24.4157 103.717 23.6427 102.787 22.6184 102.212C21.594 101.637 20.3907 101.457 19.2401 101.707L19.36 101.559Z" fill="url(#paint8_linear_607_10464)"/>
            <path fill-rule="evenodd" clip-rule="evenodd" d="M26.1402 91.801C26.1015 92.4332 26.1829 93.0669 26.3802 93.6694C26.7979 94.9751 27.7233 96.0633 28.9526 96.6946C30.1819 97.3258 31.6144 97.4485 32.9352 97.0356C34.256 96.6227 35.3568 95.7079 35.9953 94.4926C36.6339 93.2773 36.7579 91.8611 36.3402 90.5554C36.144 89.9527 35.8391 89.3899 35.4403 88.8945L26.1402 91.801Z" fill="url(#paint9_linear_607_10464)"/>
            <path fill-rule="evenodd" clip-rule="evenodd" d="M42.7299 124.547C42.4751 124.994 42.3145 125.487 42.2578 125.996C42.201 126.506 42.2494 127.022 42.3998 127.513C42.6359 128.21 43.0715 128.824 43.6538 129.281C44.2361 129.738 44.94 130.018 45.6802 130.087C46.4203 130.156 47.1648 130.011 47.8233 129.67C48.4818 129.329 49.0261 128.806 49.3899 128.165L48.9999 128.58C48.5599 129.053 48.0008 129.401 47.3799 129.589C46.6813 129.81 45.9332 129.827 45.2252 129.638C44.5171 129.449 43.8793 129.061 43.3883 128.523C42.8974 127.984 42.574 127.317 42.4572 126.601C42.3405 125.885 42.4351 125.151 42.7299 124.488V124.547ZM29.2599 141.392V141.036C29.7493 141.03 30.2348 140.95 30.6999 140.799C31.5876 140.51 32.3907 140.011 33.0399 139.346C33.2553 139.143 33.4558 138.925 33.6399 138.694C32.9597 139.834 31.8989 140.704 30.6399 141.155C30.2563 141.263 29.8652 141.342 29.4698 141.392H29.2599ZM19.5699 111.023L19.4199 110.608C20.3486 110.889 21.3412 110.889 22.2699 110.608C23.0489 110.377 23.7526 109.948 24.3098 109.362C24.4857 109.188 24.6463 109 24.7899 108.799C24.2021 109.834 23.2362 110.609 22.0899 110.964C21.2668 111.199 20.393 111.199 19.5699 110.964V111.023ZM30.7599 117.993C30.5172 118.406 30.3651 118.865 30.3134 119.34C30.2617 119.815 30.3117 120.296 30.4599 120.751C30.6649 121.398 31.0585 121.97 31.5914 122.396C32.1243 122.823 32.7728 123.084 33.4554 123.147C34.138 123.211 34.8243 123.073 35.4282 122.753C36.0321 122.432 36.5267 121.942 36.8499 121.344L36.5199 121.7C36.1117 122.133 35.5938 122.45 35.0199 122.619C34.5845 122.758 34.1259 122.81 33.6701 122.773C33.2143 122.736 32.7703 122.611 32.3636 122.404C31.9568 122.198 31.5952 121.914 31.2994 121.569C31.0037 121.224 30.7795 120.825 30.6399 120.395C30.3396 119.622 30.3396 118.766 30.6399 117.993H30.7599ZM37.1799 103.342C36.7459 104.105 36.5547 104.98 36.631 105.853C36.7073 106.725 37.0477 107.555 37.6078 108.234C38.1679 108.912 38.9219 109.408 39.7713 109.657C40.6207 109.906 41.5262 109.896 42.3699 109.629C43.4348 109.305 44.3286 108.581 44.8599 107.612C44.7348 107.801 44.5833 107.971 44.4099 108.117C43.902 108.655 43.261 109.054 42.5499 109.273C41.9887 109.45 41.3972 109.513 40.8109 109.459C40.2245 109.404 39.6552 109.234 39.1371 108.957C38.619 108.68 38.1627 108.303 37.7955 107.847C37.4283 107.392 37.1576 106.869 36.9999 106.308C36.7118 105.328 36.7754 104.28 37.1799 103.342ZM25.9899 92.1608C25.9512 92.793 26.0326 93.4268 26.2299 94.0293C26.4346 94.6753 26.7665 95.2748 27.2066 95.7934C27.6467 96.3119 28.1863 96.7394 28.7942 97.0509C29.4021 97.3624 30.0663 97.5519 30.7487 97.6085C31.431 97.6651 32.1179 97.5876 32.7699 97.3806C34.0328 97.0182 35.1068 96.1901 35.7699 95.0673C35.6075 95.2892 35.4269 95.4975 35.2299 95.6901C34.6108 96.307 33.8488 96.7651 33.0099 97.0247C32.358 97.2317 31.671 97.3092 30.9887 97.2526C30.3064 97.196 29.6421 97.0064 29.0341 96.6949C28.4262 96.3834 27.8867 95.9561 27.4466 95.4375C27.0065 94.9189 26.6745 94.3194 26.4698 93.6734C26.3027 93.1661 26.2216 92.635 26.2299 92.1016L25.9899 92.1608Z" fill="#230D26"/>
            <path fill-rule="evenodd" clip-rule="evenodd" d="M66.6699 85.0428L90.6699 92.8428C91.3224 93.0542 91.9263 93.3909 92.4471 93.8335C92.9678 94.276 93.3951 94.8158 93.7045 95.422C94.0138 96.0281 94.1991 96.6886 94.2498 97.3656C94.3004 98.0426 94.2155 98.7228 93.9998 99.3674L74.4998 158.119L40.5698 147.086L60.0698 88.3348C60.5152 87.0413 61.4558 85.9719 62.6898 85.3564C63.9238 84.7409 65.3528 84.6283 66.6699 85.0428Z" fill="url(#paint10_linear_607_10464)"/>
            <path fill-rule="evenodd" clip-rule="evenodd" d="M65.6802 84.8038C66.3803 72.0779 68.8329 59.5059 72.9702 47.4353C75.6335 50.3226 77.3125 53.9638 77.7702 57.8451C78.6825 48.1001 81.1849 38.5654 85.1802 29.6111C87.104 32.9984 88.3755 36.709 88.9302 40.5548C88.9302 40.5548 95.3502 17.9261 107.53 2C107.8 21.9595 99.4302 43.9358 99.4302 43.9358C102.189 41.1765 105.431 38.9355 109 37.3221C106.85 46.8816 103.152 56.035 98.0502 64.429C100.747 61.5708 104.283 59.6208 108.16 58.8535C104.213 70.994 98.6326 82.5552 91.5702 93.2265C91.2739 93.0678 90.9624 92.9386 90.6402 92.841L66.6402 85.041C66.3274 84.936 66.0062 84.8566 65.6802 84.8038Z" fill="url(#paint11_linear_607_10464)"/>
            <path fill-rule="evenodd" clip-rule="evenodd" d="M68.71 85.6918C68.89 84.2386 70.57 70.3885 74.71 63.0631C76.5246 64.2542 77.9849 65.9026 78.94 67.838C80.4568 61.6648 83.9502 56.1412 88.8999 52.0898C89.1539 53.0625 89.1539 54.083 88.8999 55.0556C89.5115 54.2332 90.2992 53.5542 91.2067 53.0672C92.1141 52.5802 93.1191 52.2971 94.1499 52.2381C93.5076 53.1027 93.0512 54.0882 92.8087 55.1338C92.5663 56.1794 92.5429 57.263 92.74 58.3179C93.49 61.6098 93.7 63.5673 92.05 70.5961C94.0091 70.6987 95.9688 70.406 97.8099 69.736C95.4965 77.452 92.4843 84.9462 88.8099 92.1275L68.71 85.6918Z" fill="url(#paint12_linear_607_10464)"/>
            <path fill-rule="evenodd" clip-rule="evenodd" d="M73.27 87.178C73.63 85.7248 77.2901 71.5485 87.2801 63.0664C87.2801 63.0664 89.8001 72.5865 84.4601 90.7962L73.27 87.178Z" fill="#ED6F20"/>
            <path d="M42.4886 141.286L40.5708 147.062L74.5476 158.086L76.4654 152.31L42.4886 141.286Z" fill="url(#paint13_linear_607_10464)"/>
            <path fill-rule="evenodd" clip-rule="evenodd" d="M72.31 131.159C71.4452 130.892 70.5198 130.884 69.6504 131.136C68.781 131.388 68.0064 131.889 67.4243 132.575C66.8422 133.262 66.4785 134.103 66.3792 134.993C66.2799 135.884 66.4494 136.783 66.8662 137.578C67.283 138.374 67.9285 139.029 68.7215 139.462C69.5145 139.895 70.4194 140.087 71.3223 140.013C72.2252 139.938 73.0856 139.602 73.7953 139.045C74.5049 138.488 75.0319 137.736 75.31 136.883C75.4961 136.313 75.566 135.712 75.5157 135.114C75.4654 134.517 75.296 133.935 75.017 133.403C74.7381 132.871 74.3552 132.399 73.8906 132.014C73.426 131.628 72.8888 131.338 72.31 131.159Z" fill="url(#paint14_linear_607_10464)"/>
            <path fill-rule="evenodd" clip-rule="evenodd" d="M49.2399 126.443C48.6765 126.261 48.0916 126.151 47.4998 126.117L43.5698 138.247C44.0583 138.58 44.5942 138.84 45.1598 139.018C45.995 139.289 46.876 139.394 47.7524 139.328C48.6288 139.263 49.4835 139.027 50.2677 138.634C51.0519 138.242 51.7502 137.7 52.3228 137.041C52.8954 136.382 53.331 135.618 53.6048 134.792C53.8786 133.966 53.9852 133.095 53.9186 132.229C53.8519 131.363 53.6133 130.518 53.2164 129.742C52.8194 128.967 52.2718 128.277 51.6049 127.711C50.9381 127.145 50.1651 126.714 49.3299 126.443H49.2399Z" fill="url(#paint15_linear_607_10464)"/>
            <path fill-rule="evenodd" clip-rule="evenodd" d="M64.9298 116.388C64.4008 116.199 63.8388 116.117 63.2771 116.147C62.7154 116.176 62.1655 116.317 61.6599 116.561C61.1544 116.805 60.7036 117.146 60.3342 117.566C59.9647 117.985 59.6842 118.473 59.5094 119.002C59.3345 119.53 59.2688 120.088 59.3162 120.642C59.3636 121.197 59.5231 121.736 59.7852 122.228C60.0473 122.72 60.4067 123.154 60.8421 123.507C61.2775 123.859 61.78 124.121 62.3198 124.277C62.8487 124.466 63.4107 124.548 63.9724 124.519C64.5341 124.489 65.084 124.348 65.5896 124.104C66.0951 123.861 66.546 123.519 66.9154 123.1C67.2849 122.68 67.5653 122.192 67.7401 121.663C67.915 121.135 67.9807 120.577 67.9333 120.023C67.8859 119.469 67.7264 118.93 67.4643 118.438C67.2022 117.946 66.8428 117.511 66.4074 117.159C65.972 116.807 65.4695 116.545 64.9298 116.388Z" fill="url(#paint16_linear_607_10464)"/>
            <path fill-rule="evenodd" clip-rule="evenodd" d="M82.57 106.455C81.5727 106.133 80.5013 106.11 79.4908 106.389C78.4804 106.668 77.5762 107.237 76.8925 108.024C76.2089 108.811 75.7763 109.78 75.6493 110.81C75.5224 111.839 75.7069 112.883 76.1794 113.809C76.652 114.735 77.3914 115.502 78.3045 116.013C79.2175 116.524 80.2632 116.756 81.3096 116.68C82.356 116.604 83.3561 116.223 84.1837 115.586C85.0114 114.948 85.6295 114.083 85.96 113.098C86.3967 111.773 86.2853 110.331 85.6502 109.086C85.0151 107.841 83.9078 106.896 82.57 106.455Z" fill="url(#paint17_linear_607_10464)"/>
            <path fill-rule="evenodd" clip-rule="evenodd" d="M62.02 92.7514C60.9061 92.411 59.7141 92.411 58.6001 92.7514L55.6001 101.649C56.3182 102.555 57.2876 103.235 58.3901 103.606C59.1252 103.898 59.9131 104.038 60.7052 104.017C61.4972 103.997 62.2765 103.815 62.9947 103.485C63.713 103.154 64.3549 102.681 64.8809 102.095C65.4068 101.509 65.8056 100.823 66.0525 100.079C66.2993 99.3346 66.389 98.5481 66.316 97.7682C66.243 96.9882 66.0089 96.2314 65.6281 95.5446C65.2472 94.8577 64.7279 94.2554 64.1021 93.775C63.4764 93.2945 62.7576 92.9461 61.9901 92.7514H62.02Z" fill="url(#paint18_linear_607_10464)"/>
            <path fill-rule="evenodd" clip-rule="evenodd" d="M75.6399 87.9492C75.1439 88.5348 74.767 89.2094 74.5299 89.9362C74.2718 90.7152 74.1715 91.5368 74.2346 92.354C74.2978 93.1713 74.5231 93.9683 74.8977 94.6995C75.2724 95.4306 75.7891 96.0816 76.4183 96.6154C77.0476 97.1492 77.777 97.5552 78.5649 97.8103C79.3528 98.0654 80.1838 98.1646 81.0105 98.1022C81.8372 98.0398 82.6434 97.817 83.383 97.4466C84.1227 97.0762 84.7813 96.5654 85.3212 95.9434C85.8611 95.3214 86.2718 94.6003 86.5299 93.8213C86.776 93.0962 86.8779 92.3309 86.8299 91.5674L75.6399 87.9492Z" fill="url(#paint19_linear_607_10464)"/>
            <path fill-rule="evenodd" clip-rule="evenodd" d="M67.0298 138.069C67.5992 139.054 68.5188 139.794 69.6097 140.145C70.4871 140.42 71.4274 140.429 72.3102 140.172C73.193 139.915 73.9781 139.403 74.5647 138.702C75.1513 138.001 75.5127 137.143 75.6027 136.238C75.6927 135.332 75.5071 134.421 75.0698 133.62C75.5393 134.649 75.5929 135.816 75.2197 136.883C74.9679 137.628 74.5259 138.296 73.9365 138.823C73.3471 139.35 72.6301 139.717 71.855 139.89C71.0798 140.063 70.2727 140.036 69.5115 139.81C68.7503 139.585 68.0609 139.169 67.5098 138.603C67.3351 138.438 67.1745 138.26 67.0298 138.069ZM43.7197 138.425V138.603C44.2082 138.936 44.7441 139.196 45.3097 139.374C46.5825 139.79 47.9522 139.818 49.2413 139.454C50.5304 139.091 51.6794 138.354 52.5394 137.337C53.3994 136.321 53.9308 135.073 54.0645 133.754C54.1983 132.436 53.9284 131.108 53.2897 129.943C53.8684 131.121 54.0804 132.442 53.8989 133.738C53.7175 135.035 53.1507 136.25 52.2704 137.228C51.3901 138.206 50.2359 138.904 48.9541 139.233C47.6722 139.563 46.3204 139.508 45.0698 139.077C44.5994 138.928 44.1467 138.729 43.7197 138.484V138.425ZM60.1297 122.736C60.6535 123.638 61.4985 124.315 62.4998 124.634C63.0235 124.81 63.5774 124.881 64.1292 124.843C64.681 124.805 65.2197 124.659 65.7139 124.414C66.2081 124.168 66.6479 123.828 67.0077 123.412C67.3675 122.997 67.6401 122.515 67.8097 121.995C67.9831 121.447 68.0433 120.871 67.9866 120.301C67.9299 119.73 67.7575 119.176 67.4798 118.673C67.8408 119.629 67.8408 120.682 67.4798 121.639C67.3102 122.159 67.0375 122.641 66.6777 123.056C66.3179 123.472 65.8781 123.812 65.3839 124.058C64.8898 124.303 64.3511 124.449 63.7993 124.487C63.2474 124.525 62.6936 124.454 62.1698 124.278C61.4929 124.072 60.8825 123.693 60.3997 123.181C60.2447 123.047 60.104 122.898 59.9798 122.736H60.1297ZM76.5698 114.462C77.3168 115.575 78.4628 116.366 79.7769 116.677C81.0909 116.988 82.4752 116.794 83.6508 116.136C84.8265 115.478 85.7059 114.404 86.1121 113.13C86.5183 111.856 86.421 110.477 85.8397 109.272C86.2744 110.202 86.424 111.239 86.2698 112.252C86.1156 113.266 85.6644 114.213 84.9721 114.976C84.2798 115.74 83.3765 116.286 82.3738 116.547C81.3711 116.809 80.313 116.775 79.3298 116.449C78.4891 116.197 77.7326 115.725 77.1398 115.084C76.9208 114.905 76.7289 114.695 76.5698 114.462ZM55.9598 101.916C56.6779 102.823 57.6473 103.503 58.7498 103.874C60.2059 104.342 61.7904 104.222 63.1566 103.538C64.5229 102.854 65.5595 101.663 66.0397 100.226C66.2915 99.4884 66.3869 98.7075 66.3198 97.9319C66.2527 97.1562 66.0246 96.4026 65.6497 95.718C66.2078 96.9474 66.3093 98.3319 65.9363 99.628C65.5633 100.924 64.7397 102.048 63.6106 102.803C62.4814 103.558 61.1192 103.895 59.7636 103.754C58.408 103.614 57.146 103.005 56.1997 102.035L55.9898 101.827L55.9598 101.916ZM75.3997 95.4214C76.1746 96.7164 77.4017 97.6869 78.8498 98.15C80.4371 98.665 82.1664 98.5356 83.6572 97.7903C85.1481 97.045 86.2785 95.7449 86.7998 94.1758C87.0458 93.4506 87.1477 92.6853 87.0998 91.9219H86.9497C86.9428 92.5873 86.8315 93.2476 86.6198 93.8793C86.0985 95.4484 84.9681 96.7485 83.4772 97.4938C81.9864 98.2391 80.2571 98.3684 78.6698 97.8534C77.6886 97.5396 76.8019 96.9892 76.0897 96.2518C75.8009 95.9936 75.5303 95.7162 75.2798 95.4214H75.3997Z" fill="#230D26"/>
        </g>
        <defs>
            <filter id="filter0_d_607_10464" x="0" y="0" width="113" height="164.086" filterUnits="userSpaceOnUse" color-interpolation-filters="sRGB">
                <feFlood flood-opacity="0" result="BackgroundImageFix"/>
                <feColorMatrix in="SourceAlpha" type="matrix" values="0 0 0 0 0 0 0 0 0 0 0 0 0 0 0 0 0 0 127 0" result="hardAlpha"/>
                <feOffset dy="2"/>
                <feGaussianBlur stdDeviation="2"/>
                <feComposite in2="hardAlpha" operator="out"/>
                <feColorMatrix type="matrix" values="0 0 0 0 0 0 0 0 0 0 0 0 0 0 0 0 0 0 0.25 0"/>
                <feBlend mode="normal" in2="BackgroundImageFix" result="effect1_dropShadow_607_10464"/>
                <feBlend mode="normal" in="SourceGraphic" in2="effect1_dropShadow_607_10464" result="shape"/>
            </filter>
            <linearGradient id="paint0_linear_607_10464" x1="33.9701" y1="118.437" x2="39.9296" y2="116.71" gradientUnits="userSpaceOnUse">
                <stop stop-color="#2C0E27"/>
                <stop offset="0.01" stop-color="#2C0E27"/>
                <stop offset="0.26" stop-color="#E33293"/>
                <stop offset="0.52" stop-color="#EA2891"/>
                <stop offset="1" stop-color="#3B084D"/>
            </linearGradient>
            <linearGradient id="paint1_linear_607_10464" x1="26.8901" y1="85.4559" x2="6.08936" y2="18.9747" gradientUnits="userSpaceOnUse">
                <stop stop-color="#A71C20"/>
                <stop offset="1" stop-color="#F47D20"/>
            </linearGradient>
            <linearGradient id="paint2_linear_607_10464" x1="27.3401" y1="87.1457" x2="19.3488" y2="61.5579" gradientUnits="userSpaceOnUse">
                <stop stop-color="#A71C20"/>
                <stop offset="1" stop-color="#F47D20"/>
            </linearGradient>
            <linearGradient id="paint3_linear_607_10464" x1="45.0446" y1="142.085" x2="44.7215" y2="140.986" gradientUnits="userSpaceOnUse">
                <stop stop-color="#0089CB"/>
                <stop offset="1" stop-color="#0065B1"/>
            </linearGradient>
            <linearGradient id="paint4_linear_607_10464" x1="43.3302" y1="126.976" x2="49.108" y2="125.129" gradientUnits="userSpaceOnUse">
                <stop stop-color="#E86E25"/>
                <stop offset="0.31" stop-color="#F6891F"/>
                <stop offset="0.55" stop-color="#FAA541"/>
                <stop offset="1" stop-color="#EE791F"/>
            </linearGradient>
            <linearGradient id="paint5_linear_607_10464" x1="29.3202" y1="135.429" x2="33.3916" y2="134.126" gradientUnits="userSpaceOnUse">
                <stop stop-color="#E86E25"/>
                <stop offset="0.31" stop-color="#F6891F"/>
                <stop offset="0.55" stop-color="#FAA541"/>
                <stop offset="1" stop-color="#EE791F"/>
            </linearGradient>
            <linearGradient id="paint6_linear_607_10464" x1="31.2702" y1="120.184" x2="36.569" y2="118.488" gradientUnits="userSpaceOnUse">
                <stop stop-color="#E86E25"/>
                <stop offset="0.31" stop-color="#F6891F"/>
                <stop offset="0.55" stop-color="#FAA541"/>
                <stop offset="1" stop-color="#EE791F"/>
            </linearGradient>
            <linearGradient id="paint7_linear_607_10464" x1="37.81" y1="106.155" x2="44.5157" y2="104.005" gradientUnits="userSpaceOnUse">
                <stop stop-color="#E86E25"/>
                <stop offset="0.31" stop-color="#F6891F"/>
                <stop offset="0.55" stop-color="#FAA541"/>
                <stop offset="1" stop-color="#EE791F"/>
            </linearGradient>
            <linearGradient id="paint8_linear_607_10464" x1="19.72" y1="106.393" x2="24.5699" y2="104.848" gradientUnits="userSpaceOnUse">
                <stop stop-color="#E86E25"/>
                <stop offset="0.31" stop-color="#F6891F"/>
                <stop offset="0.55" stop-color="#FAA541"/>
                <stop offset="1" stop-color="#EE791F"/>
            </linearGradient>
            <linearGradient id="paint9_linear_607_10464" x1="27.9402" y1="94.9151" x2="36.2326" y2="92.2503" gradientUnits="userSpaceOnUse">
                <stop stop-color="#E86E25"/>
                <stop offset="0.31" stop-color="#F6891F"/>
                <stop offset="0.55" stop-color="#FAA541"/>
                <stop offset="1" stop-color="#EE791F"/>
            </linearGradient>
            <linearGradient id="paint10_linear_607_10464" x1="60.9698" y1="117.874" x2="78.4816" y2="125.824" gradientUnits="userSpaceOnUse">
                <stop stop-color="#EF3E23"/>
                <stop offset="0.39" stop-color="#FCB316"/>
                <stop offset="0.83" stop-color="#EF3E23"/>
                <stop offset="1" stop-color="#EF3E23"/>
            </linearGradient>
            <linearGradient id="paint11_linear_607_10464" x1="80.9502" y1="82.0753" x2="106.867" y2="2.2388" gradientUnits="userSpaceOnUse">
                <stop stop-color="#C01F25"/>
                <stop offset="1" stop-color="#F78F3F"/>
            </linearGradient>
            <linearGradient id="paint12_linear_607_10464" x1="80.2299" y1="83.942" x2="90.4849" y2="52.3167" gradientUnits="userSpaceOnUse">
                <stop stop-color="#C01F25"/>
                <stop offset="1" stop-color="#F78F3F"/>
            </linearGradient>
            <linearGradient id="paint13_linear_607_10464" x1="58.2554" y1="150.368" x2="58.6962" y2="149.06" gradientUnits="userSpaceOnUse">
                <stop stop-color="#0089CB"/>
                <stop offset="1" stop-color="#0065B1"/>
            </linearGradient>
            <linearGradient id="paint14_linear_607_10464" x1="67.39" y1="134.363" x2="74.3047" y2="136.633" gradientUnits="userSpaceOnUse">
                <stop stop-color="#56185D"/>
                <stop offset="0.3" stop-color="#98247D"/>
                <stop offset="0.53" stop-color="#DB1A8E"/>
                <stop offset="1" stop-color="#E72991"/>
            </linearGradient>
            <linearGradient id="paint15_linear_607_10464" x1="47.6798" y1="132.909" x2="52.4989" y2="134.513" gradientUnits="userSpaceOnUse">
                <stop stop-color="#56185D"/>
                <stop offset="0.3" stop-color="#98247D"/>
                <stop offset="0.53" stop-color="#DB1A8E"/>
                <stop offset="1" stop-color="#E72991"/>
            </linearGradient>
            <linearGradient id="paint16_linear_607_10464" x1="60.4597" y1="119.324" x2="66.7756" y2="121.413" gradientUnits="userSpaceOnUse">
                <stop stop-color="#56185D"/>
                <stop offset="0.3" stop-color="#98247D"/>
                <stop offset="0.53" stop-color="#DB1A8E"/>
                <stop offset="1" stop-color="#E72991"/>
            </linearGradient>
            <linearGradient id="paint17_linear_607_10464" x1="76.84" y1="110.162" x2="84.8619" y2="112.827" gradientUnits="userSpaceOnUse">
                <stop stop-color="#56185D"/>
                <stop offset="0.3" stop-color="#98247D"/>
                <stop offset="0.53" stop-color="#DB1A8E"/>
                <stop offset="1" stop-color="#E72991"/>
            </linearGradient>
            <linearGradient id="paint18_linear_607_10464" x1="58.9601" y1="97.7635" x2="64.7367" y2="99.7012" gradientUnits="userSpaceOnUse">
                <stop stop-color="#56185D"/>
                <stop offset="0.3" stop-color="#98247D"/>
                <stop offset="0.53" stop-color="#DB1A8E"/>
                <stop offset="1" stop-color="#E72991"/>
            </linearGradient>
            <linearGradient id="paint19_linear_607_10464" x1="74.6199" y1="92.0716" x2="84.5574" y2="95.3719" gradientUnits="userSpaceOnUse">
                <stop stop-color="#56185D"/>
                <stop offset="0.3" stop-color="#98247D"/>
                <stop offset="0.53" stop-color="#DB1A8E"/>
                <stop offset="1" stop-color="#E72991"/>
            </linearGradient>
            <clipPath id="clip0_607_10464">
                <rect width="105" height="156.088" fill="white" transform="translate(4 2)"/>
            </clipPath>
        </defs>
    </svg>