<svg width="320" height="192" viewBox="0 0 320 192" fill="none" xmlns="http://www.w3.org/2000/svg">
<g clip-path="url(#clip0_9_492)" filter="url(#filter0_d_9_492)">
<path fill-rule="evenodd" clip-rule="evenodd" d="M157.523 39.9297C157.523 39.9297 157.523 54.6097 154.866 61.6841C153.471 65.4703 151.545 66.6992 148.223 63.8429C142.677 59.0602 135.569 45.0445 134.639 44.2806C134.639 44.2806 141.282 58.7281 141.747 66.5996C142.046 70.8176 140.717 72.5114 136.399 71.0169C129.524 68.6255 118.332 59.0935 118.332 59.0935C118.332 59.0935 134.706 75.5006 132.215 80.084C129.724 84.6674 106.01 77.3273 106.01 77.3273C106.01 77.3273 129.059 87.6233 127.997 91.7085C126.934 95.7937 115.21 98.351 115.21 98.351L145.932 126.715L178.48 130.036C178.48 130.036 178.148 124.888 179.742 123.393C181.336 121.899 190.37 124.656 202.194 135.217C202.194 135.217 186.219 118.843 188.212 114.393C190.204 109.942 213.486 116.817 213.486 116.817C213.486 116.817 192.662 107.75 192.662 102.503C192.662 97.255 217.14 94.432 217.14 94.432C217.14 94.432 193.027 93.7344 191.865 89.3835C190.703 85.0327 212.191 71.9136 212.191 71.9136C212.191 71.9136 191.134 81.0471 186.983 77.7591C182.831 74.471 198.607 55.1411 198.607 55.1411C193.6 59.9436 188.139 64.2482 182.3 67.9945C178.082 70.3194 175.989 70.1865 175.923 64.9057C176.496 57.4684 177.888 50.1171 180.074 42.9852C180.074 42.9852 174.295 56.7022 169.181 62.2487C164.066 67.7953 162.538 62.9794 160.844 58.0971C159.215 52.1484 158.104 46.0699 157.523 39.9297Z" fill="url(#paint0_linear_9_492)"/>
<path d="M163.58 127.05C180.119 125.242 192.06 110.369 190.251 93.8306C188.443 77.2921 173.57 65.351 157.032 67.1593C140.493 68.9676 128.552 83.8407 130.36 100.379C132.169 116.918 147.042 128.859 163.58 127.05Z" fill="url(#paint1_radial_9_492)"/>
<path fill-rule="evenodd" clip-rule="evenodd" d="M160.281 69.6564C165.294 69.6414 170.201 71.0964 174.396 73.8412C168.44 73.1024 162.395 73.5768 156.627 75.2361C148.297 77.4402 140.843 82.1468 135.271 88.7206C136.772 83.2399 140.033 78.4046 144.553 74.9597C149.072 71.5148 154.598 69.6513 160.281 69.6564Z" fill="white"/>
<path fill-rule="evenodd" clip-rule="evenodd" d="M69.7758 113.398C74.2592 109.785 79.9932 108.101 85.7179 108.715C85.7109 105.43 86.5394 102.198 88.1256 99.322C89.7117 96.446 92.0034 94.0206 94.7851 92.2742C98.4069 90.2462 102.404 88.9766 106.532 88.5426C110.66 88.1087 114.834 88.5195 118.798 89.7501C122.171 90.8573 125.226 92.7648 127.702 95.3097C130.177 97.8546 132 100.961 133.013 104.364C153.472 102.869 158.52 118.014 158.52 118.014C165.256 117.893 171.777 120.38 176.721 124.956C186.054 134.023 182.367 149.201 170.079 154.847C166.115 156.753 161.762 157.712 157.365 157.648C152.967 157.585 148.644 156.501 144.737 154.482C124.577 170.557 108.402 154.748 108.402 154.748C84.3562 163.25 75.6213 146.544 75.6213 146.544C73.2137 145.717 71.0124 144.381 69.167 142.627C67.3217 140.874 65.8755 138.743 64.9267 136.381C63.1964 132.53 62.7335 128.229 63.605 124.099C64.4765 119.968 66.6373 116.221 69.7758 113.398Z" fill="url(#paint2_linear_9_492)"/>
<path fill-rule="evenodd" clip-rule="evenodd" d="M71.7682 113.996C76.0776 110.561 81.5664 108.962 87.0461 109.545C87.045 106.412 87.8436 103.331 89.3664 100.594C90.8892 97.8563 93.0857 95.5529 95.7479 93.9018C99.2328 91.9935 103.063 90.7992 107.015 90.3886C110.967 89.978 114.961 90.3594 118.764 91.5105C121.99 92.5525 124.917 94.3591 127.293 96.7765C129.67 99.1939 131.427 102.15 132.415 105.393C152.077 103.998 156.893 118.346 156.893 118.346C163.352 118.24 169.606 120.618 174.363 124.989C183.297 133.591 179.776 148.005 167.953 153.353C164.144 155.162 159.97 156.07 155.754 156.007C151.538 155.943 147.393 154.91 143.641 152.987C124.311 168.232 108.767 153.253 108.767 153.253C85.7175 161.324 77.3147 145.448 77.3147 145.448C75.0177 144.664 72.9142 143.4 71.1445 141.739C69.3748 140.078 67.9796 138.059 67.0519 135.816C65.3977 132.154 64.9632 128.057 65.8122 124.128C66.6612 120.2 68.749 116.648 71.7682 113.996Z" fill="url(#paint3_radial_9_492)"/>
<path fill-rule="evenodd" clip-rule="evenodd" d="M109.63 93.1708C112.936 93.0758 116.218 93.7634 119.207 95.1774C122.197 96.5915 124.81 98.6921 126.834 101.308C121.442 98.8339 115.579 97.5533 109.647 97.5533C103.714 97.5533 97.8512 98.8339 92.459 101.308C94.4759 98.6927 97.0832 96.592 100.068 95.1778C103.052 93.7635 106.329 93.0758 109.63 93.1708Z" fill="white"/>
<path fill-rule="evenodd" clip-rule="evenodd" d="M182.698 165.939C180.778 168.267 179.045 170.743 177.517 173.346C176.759 174.654 176.277 176.105 176.1 177.607C175.923 179.109 176.055 180.631 176.488 182.081C176.749 182.756 177.119 183.384 177.584 183.941C178.468 184.9 179.629 185.561 180.905 185.834C182.003 186.142 183.173 186.072 184.226 185.634C185.261 185.092 186.081 184.214 186.551 183.143C188.444 179.291 187.747 174.741 187.979 170.423C188.178 166.869 189.075 163.349 189.507 159.795C189.625 159.16 189.567 158.506 189.341 157.902C189.341 157.636 188.909 157.37 188.644 157.47C188.567 157.455 188.488 157.455 188.411 157.47C187.925 158.17 187.68 159.009 187.714 159.861C187.249 166.271 186.551 172.715 185.621 179.091C185.54 180.082 185.281 181.049 184.857 181.948C184.552 182.508 184.12 182.99 183.595 183.353C183.07 183.717 182.467 183.952 181.835 184.04C181.204 184.121 180.563 184.031 179.979 183.78C179.395 183.529 178.889 183.125 178.514 182.612C177.974 181.744 177.687 180.744 177.683 179.723C177.539 178.62 177.539 177.504 177.683 176.401C178.256 173.829 179.467 171.442 181.204 169.46C182.953 167.491 184.594 165.429 186.119 163.282C186.963 162.074 187.551 160.707 187.846 159.263C188.046 158.101 187.846 155.942 186.983 158.101C185.984 160.927 184.538 163.573 182.698 165.939Z" fill="#F04E23"/>
<path fill-rule="evenodd" clip-rule="evenodd" d="M197.678 160.991C197.678 160.991 196.681 164.611 186.552 161.822C176.422 159.032 177.451 155.412 177.451 155.412L189.74 110.84L209.967 116.42L197.678 160.991Z" fill="url(#paint4_linear_9_492)"/>
<path fill-rule="evenodd" clip-rule="evenodd" d="M209.933 116.519C209.568 117.781 204.785 117.549 199.205 115.988C193.626 114.427 189.242 112.201 189.74 110.939C190.238 109.677 194.888 109.91 200.468 111.471C206.047 113.032 210.265 115.257 209.933 116.519Z" fill="url(#paint5_linear_9_492)"/>
<path fill-rule="evenodd" clip-rule="evenodd" d="M184.195 150.229L186.619 149.698L185.556 151.956L186.818 154.115L184.327 153.816L182.667 155.676L182.202 153.218L179.91 152.222L182.102 151.026L182.368 148.535L184.195 150.229Z" fill="#FEDF00"/>
<path fill-rule="evenodd" clip-rule="evenodd" d="M198.044 141.627L200.469 141.096L199.406 143.355L200.668 145.513L198.177 145.214L196.516 147.074L196.051 144.617L193.76 143.62L195.952 142.391L196.218 139.9L198.044 141.627Z" fill="#FEDF00"/>
<path fill-rule="evenodd" clip-rule="evenodd" d="M184.492 97.7195L187.946 96.9556L186.452 100.144L188.212 103.166L184.724 102.735L182.4 105.358L181.735 101.904L178.514 100.509L181.602 98.7823L181.935 95.2949L184.492 97.7195Z" fill="#F04E23"/>
<path fill-rule="evenodd" clip-rule="evenodd" d="M235.209 84.7663L238.63 84.0024L237.168 87.1909L238.929 90.2464L235.441 89.7815L233.116 92.4053L232.452 88.9511L229.23 87.5562L232.286 85.8623L232.651 82.375L235.209 84.7663Z" fill="#F04E23"/>
<path fill-rule="evenodd" clip-rule="evenodd" d="M216.31 49.528L219.731 48.7974L218.237 51.9526L219.997 55.0082L216.51 54.5764L214.185 57.2002L213.52 53.7461L210.299 52.3179L213.388 50.6241L213.72 47.1367L216.31 49.528Z" fill="#F04E23"/>
<path fill-rule="evenodd" clip-rule="evenodd" d="M222.554 118.247L226.009 117.516L224.514 120.705L226.274 123.727L222.787 123.295L220.462 125.919L219.798 122.465L216.576 121.037L219.632 119.343L219.997 115.855L222.554 118.247Z" fill="#F04E23"/>
<path fill-rule="evenodd" clip-rule="evenodd" d="M211.461 93.5691L214.882 92.8052L213.387 95.9936L215.147 99.0492L211.66 98.6174L209.335 101.208L208.671 97.7871L205.449 96.3589L208.538 94.6651L208.87 91.1777L211.461 93.5691Z" fill="#F04E23"/>
<path fill-rule="evenodd" clip-rule="evenodd" d="M220.164 65.1726L223.585 64.4419L222.09 67.5971L223.884 70.6527L220.396 70.2209L218.038 72.8447L217.374 69.3906L214.152 67.9625L217.241 66.2686L217.606 62.7812L220.164 65.1726Z" fill="#F04E23"/>
<path fill-rule="evenodd" clip-rule="evenodd" d="M184.857 75.3679L188.311 74.604L186.784 77.7924L188.577 80.8148L185.09 80.383L182.732 83.0068L182.101 79.5527L178.879 78.1578L181.934 76.4639L182.3 72.9434L184.857 75.3679Z" fill="#F04E23"/>
<path fill-rule="evenodd" clip-rule="evenodd" d="M192.132 128.11L194.59 127.578L193.527 129.837L194.789 131.996L192.298 131.697L190.638 133.557L190.139 131.099L187.848 130.103L190.04 128.874L190.305 126.383L192.132 128.11Z" fill="#FEDF00"/>
<path fill-rule="evenodd" clip-rule="evenodd" d="M207.21 126.383L208.505 121.633L207.974 121.733L206.147 120.039L205.881 122.53L203.723 123.726L206.014 124.722L206.479 127.18L207.21 126.383Z" fill="#FEDF00"/>
<path fill-rule="evenodd" clip-rule="evenodd" d="M188.645 114.791L187.582 118.644L190.073 118.943L188.811 116.784L189.874 114.525L188.645 114.791Z" fill="#FEDF00"/>
<path fill-rule="evenodd" clip-rule="evenodd" d="M197.677 160.991L198.142 159.231L196.814 159.53L194.987 157.803L194.755 160.294L192.562 161.489L194.854 162.519V162.718C197.312 162.287 197.677 160.991 197.677 160.991Z" fill="#FEDF00"/>
<path fill-rule="evenodd" clip-rule="evenodd" d="M191.9 116.42C191.506 116.447 191.124 116.57 190.788 116.779C190.453 116.987 190.173 117.274 189.973 117.616L189.641 118.18L190.073 118.944H189.309C188.479 122.319 187.99 125.768 187.848 129.24C187.051 133.292 184.527 136.879 183.962 140.964C183.876 141.291 183.87 141.634 183.945 141.964C184.02 142.294 184.174 142.6 184.394 142.857C184.505 142.96 184.636 143.04 184.779 143.091C184.921 143.143 185.073 143.165 185.224 143.156C185.651 143.158 186.064 143.005 186.386 142.724C186.902 142.212 187.27 141.569 187.449 140.865C188.579 137.743 189.276 134.554 190.206 131.399V131.2L187.914 130.203L190.106 128.974L190.339 126.483L191.468 127.546L191.667 127.081C192.394 125.455 193.005 123.779 193.494 122.066C194.01 120.47 193.904 118.738 193.195 117.217C193.073 116.978 192.888 116.777 192.659 116.637C192.431 116.496 192.168 116.421 191.9 116.42Z" fill="#A2D49E"/>
<path fill-rule="evenodd" clip-rule="evenodd" d="M190.206 131.332V131.132L187.914 130.136L190.106 128.907L190.339 126.416L191.468 127.479C190.97 128.708 190.571 130.003 190.206 131.332Z" fill="#FDED84"/>
<path fill-rule="evenodd" clip-rule="evenodd" d="M190.073 118.943H189.309C189.399 118.713 189.51 118.49 189.641 118.279L190.073 118.943Z" fill="#FDED84"/>
<path fill-rule="evenodd" clip-rule="evenodd" d="M183.663 149.333H183.165L182.367 148.569V148.802C182.131 148.549 181.94 148.257 181.803 147.938C181.663 147.624 181.584 147.286 181.57 146.942C181.594 146.654 181.688 146.375 181.844 146.132C182 145.889 182.214 145.688 182.467 145.547C182.698 145.445 182.946 145.389 183.198 145.381C183.526 145.383 183.848 145.474 184.128 145.647C184.566 145.765 184.947 146.036 185.201 146.412C185.456 146.787 185.567 147.242 185.515 147.693C185.463 148.143 185.25 148.56 184.916 148.867C184.582 149.174 184.149 149.352 183.696 149.366L183.663 149.333Z" fill="#A2D49E"/>
<path fill-rule="evenodd" clip-rule="evenodd" d="M183.164 149.266H182.932C182.707 149.161 182.504 149.014 182.334 148.834V148.602L183.164 149.266Z" fill="#FDED84"/>
<path fill-rule="evenodd" clip-rule="evenodd" d="M210.333 107.552C211.339 106.015 212.82 104.849 214.551 104.23C215.429 103.927 216.371 103.856 217.285 104.025C218.199 104.194 219.053 104.596 219.765 105.194C220.507 105.902 221.046 106.797 221.326 107.784C221.645 108.587 221.703 109.47 221.492 110.308C221.392 110.73 221.173 111.113 220.861 111.414C220.549 111.714 220.157 111.918 219.732 112.002C219.265 112.012 218.806 111.885 218.411 111.638C218.015 111.39 217.701 111.031 217.507 110.607C217.141 109.749 217.004 108.811 217.108 107.884C217.074 105.423 217.99 103.044 219.665 101.241C221.097 99.9905 222.887 99.2234 224.78 99.0491C227.29 98.6018 229.876 99.086 232.054 100.411C232.987 101.082 233.766 101.945 234.339 102.941C234.912 103.938 235.265 105.046 235.375 106.19C235.471 107.348 235.312 108.512 234.911 109.602C234.509 110.692 233.874 111.681 233.05 112.5C232.692 112.952 232.204 113.284 231.652 113.45C231.099 113.616 230.51 113.609 229.961 113.43C229.66 113.261 229.4 113.027 229.199 112.746C228.998 112.465 228.862 112.143 228.799 111.803C228.43 110.032 228.651 108.188 229.43 106.555C230.015 104.845 230.929 103.265 232.12 101.905C233.324 100.529 235.014 99.6717 236.836 99.5141C237.899 99.5046 238.948 99.75 239.895 100.23C240.843 100.709 241.662 101.409 242.283 102.271C243.525 104.02 244.208 106.104 244.243 108.249C244.321 110.665 243.796 113.062 242.715 115.224C242.715 115.224 242.715 115.456 242.516 115.49C242.356 115.554 242.177 115.554 242.018 115.49L239.494 114.991C240.463 113.979 241.168 112.743 241.545 111.393C241.921 110.043 241.958 108.621 241.652 107.253C241.388 105.862 240.757 104.566 239.826 103.5C239.347 102.974 238.762 102.557 238.109 102.276C237.456 101.995 236.75 101.858 236.039 101.872C235.335 101.935 234.652 102.144 234.034 102.488C233.416 102.831 232.877 103.3 232.452 103.865C231.64 105.03 231.168 106.399 231.091 107.817C231.047 107.998 231.048 108.186 231.095 108.365C231.141 108.545 231.231 108.71 231.356 108.847C231.688 109.146 232.253 108.847 232.618 108.847C233.111 108.429 233.47 107.876 233.653 107.257C233.836 106.637 233.834 105.978 233.648 105.36C233.463 104.747 233.155 104.178 232.744 103.687C232.333 103.196 231.827 102.794 231.257 102.503C230.103 101.907 228.834 101.567 227.537 101.507C225.33 101.24 223.097 101.72 221.193 102.869C220.265 103.469 219.54 104.335 219.113 105.355C218.687 106.374 218.578 107.499 218.802 108.581C218.857 108.763 218.948 108.932 219.068 109.079C219.157 109.135 219.257 109.17 219.362 109.181C219.466 109.193 219.572 109.18 219.671 109.145C219.77 109.11 219.859 109.053 219.933 108.978C220.007 108.904 220.063 108.813 220.097 108.714C220.157 108.505 220.167 108.285 220.126 108.072C220.086 107.859 219.996 107.658 219.865 107.485C219.562 107.071 219.168 106.733 218.713 106.496C218.257 106.26 217.754 106.132 217.241 106.123C216.208 106.146 215.204 106.469 214.351 107.053C213.325 107.71 212.535 108.675 212.093 109.81C211.872 110.374 211.78 110.98 211.826 111.584C211.872 112.188 212.054 112.774 212.359 113.297C211.495 113.098 208.074 112.102 208.074 112.102C208.71 110.53 209.465 109.008 210.333 107.552Z" fill="#FEDF00"/>
<path fill-rule="evenodd" clip-rule="evenodd" d="M203.556 95.5274C204.763 94.1201 205.485 92.3616 205.615 90.5122C205.656 89.5867 205.458 88.6664 205.039 87.8401C204.62 87.0139 203.994 86.3098 203.224 85.7961C202.335 85.2824 201.328 85.0077 200.301 84.9989C199.433 84.9316 198.564 85.1284 197.81 85.5635C197.435 85.776 197.132 86.094 196.937 86.4779C196.742 86.8618 196.664 87.2946 196.714 87.7224C196.818 88.1769 197.058 88.589 197.402 88.9035C197.746 89.218 198.178 89.42 198.64 89.4826C199.578 89.5989 200.53 89.4613 201.397 89.0841C203.704 88.3929 205.671 86.8649 206.91 84.7996C207.712 83.0791 207.944 81.1479 207.574 79.2863C207.32 76.7395 206.138 74.3753 204.253 72.6437C203.359 71.8998 202.311 71.3642 201.184 71.0757C200.058 70.7872 198.881 70.753 197.74 70.9756C196.598 71.1981 195.52 71.6719 194.585 72.3625C193.649 73.0532 192.879 73.9434 192.33 74.9686C191.984 75.4532 191.797 76.0338 191.797 76.6293C191.797 77.2248 191.984 77.8054 192.33 78.2899C192.585 78.5199 192.885 78.6947 193.21 78.8033C193.536 78.9119 193.881 78.952 194.223 78.921C196.017 78.7675 197.716 78.0462 199.072 76.8618C200.564 75.8198 201.829 74.4867 202.792 72.9427C203.778 71.4081 204.124 69.548 203.755 67.7614C203.452 66.7411 202.917 65.8052 202.19 65.0271C201.464 64.249 200.567 63.6502 199.57 63.2778C197.542 62.5914 195.354 62.5335 193.293 63.1116C190.961 63.6896 188.806 64.8299 187.016 66.4329C186.923 66.5124 186.854 66.6158 186.816 66.7318C186.772 66.8837 186.772 67.045 186.816 67.1969C187.248 67.9607 187.647 68.7246 188.045 69.4885C188.718 68.2886 189.676 67.2729 190.835 66.5314C191.993 65.7899 193.317 65.3455 194.688 65.2373C196.099 65.0641 197.531 65.3065 198.806 65.9347C199.453 66.2256 200.024 66.6604 200.477 67.2059C200.93 67.7514 201.252 68.3932 201.418 69.0822C201.585 69.7712 201.592 70.4893 201.439 71.1814C201.285 71.8735 200.975 72.5214 200.533 73.0755C199.682 74.1932 198.53 75.0457 197.212 75.5333C197.047 75.6152 196.865 75.6579 196.681 75.6579C196.496 75.6579 196.314 75.6152 196.149 75.5333C195.978 75.377 195.863 75.1691 195.821 74.9413C195.779 74.7134 195.813 74.4782 195.917 74.2712C196.176 73.6771 196.604 73.1718 197.146 72.8177C197.689 72.4636 198.324 72.2762 198.972 72.2784C199.6 72.2973 200.218 72.4424 200.788 72.7048C201.359 72.9673 201.871 73.3418 202.294 73.8062C203.194 74.7536 203.874 75.8875 204.286 77.1275C205.171 79.17 205.347 81.4501 204.785 83.604C204.475 84.6662 203.848 85.6081 202.987 86.3028C202.126 86.9976 201.072 87.4118 199.969 87.4898C199.797 87.5534 199.609 87.5534 199.437 87.4898C199.354 87.4246 199.287 87.3414 199.241 87.2465C199.195 87.1516 199.171 87.0474 199.171 86.9419C199.171 86.8364 199.195 86.7323 199.241 86.6373C199.287 86.5424 199.354 86.4591 199.437 86.3939C199.63 86.3046 199.84 86.2585 200.052 86.2585C200.264 86.2585 200.474 86.3046 200.666 86.3939C201.154 86.5682 201.594 86.8542 201.952 87.2291C202.309 87.6039 202.574 88.0572 202.725 88.5527C203.024 89.538 203.024 90.5897 202.725 91.5751C202.391 92.7467 201.693 93.7819 200.733 94.5311C200.262 94.8805 199.722 95.1238 199.148 95.2442C198.575 95.3646 197.982 95.3593 197.411 95.2285C197.876 96.0256 199.77 99.0479 199.77 99.0479C201.114 97.9669 202.38 96.7903 203.556 95.5274Z" fill="#FEDF00"/>
<path fill-rule="evenodd" clip-rule="evenodd" d="M226.906 78.192C228.518 79.1027 230.383 79.464 232.22 79.2216C233.147 79.0836 234.022 78.704 234.756 78.1211C235.491 77.5381 236.059 76.7723 236.404 75.9003C236.737 74.9167 236.805 73.8633 236.604 72.8448C236.511 71.9878 236.164 71.178 235.607 70.5199C235.317 70.1974 234.942 69.9637 234.524 69.8462C234.107 69.7286 233.665 69.7318 233.249 69.8556C232.826 70.0549 232.473 70.377 232.236 70.7799C231.999 71.1828 231.889 71.6478 231.921 72.1141C231.986 73.0416 232.296 73.9352 232.817 74.7047C233.919 76.8525 235.794 78.5023 238.065 79.3213C239.921 79.7708 241.871 79.6315 243.645 78.9227C246.077 78.157 248.145 76.5264 249.457 74.3393C250.017 73.3204 250.342 72.1898 250.411 71.0294C250.479 69.869 250.289 68.7079 249.853 67.6302C249.418 66.5524 248.748 65.585 247.893 64.7981C247.037 64.0111 246.017 63.4244 244.907 63.0802C244.361 62.8193 243.746 62.7366 243.15 62.8439C242.554 62.9511 242.007 63.243 241.586 63.6781C241.403 63.9727 241.286 64.3026 241.24 64.646C241.194 64.9894 241.221 65.3387 241.32 65.6708C241.821 67.3971 242.855 68.9203 244.276 70.0217C245.577 71.2805 247.111 72.2733 248.793 72.9445C250.499 73.6247 252.401 73.6247 254.107 72.9445C255.055 72.4598 255.873 71.7541 256.492 70.8871C257.11 70.0201 257.511 69.017 257.661 67.9625C257.964 65.8499 257.617 63.6949 256.664 61.7849C255.623 59.601 254.046 57.7158 252.081 56.3048C252.006 56.2135 251.899 56.1541 251.782 56.1387C251.618 56.1495 251.465 56.2206 251.35 56.338L249.324 57.9654C250.649 58.4058 251.842 59.1717 252.794 60.1931C253.745 61.2144 254.425 62.4584 254.771 63.8109C255.152 65.1799 255.152 66.6267 254.771 67.9957C254.613 68.684 254.299 69.3269 253.854 69.8748C253.408 70.4228 252.843 70.8613 252.201 71.1564C251.559 71.4516 250.859 71.5956 250.152 71.5773C249.446 71.5591 248.754 71.3792 248.129 71.0513C246.864 70.402 245.806 69.4128 245.073 68.1949C244.957 68.0463 244.877 67.8738 244.836 67.6899C244.796 67.506 244.797 67.3155 244.84 67.1322C245.007 66.7337 245.604 66.634 246.036 66.7004C246.668 66.8364 247.247 67.154 247.701 67.6142C248.156 68.0744 248.466 68.6571 248.594 69.291C248.804 70.5811 248.507 71.9026 247.763 72.9776C246.993 74.0135 246.021 74.8833 244.907 75.5351C243.076 76.7902 240.879 77.398 238.663 77.2621C237.563 77.1664 236.518 76.7365 235.669 76.0301C234.82 75.3236 234.207 74.3744 233.913 73.3098C233.864 73.1248 233.864 72.9301 233.913 72.7451C233.965 72.6511 234.038 72.5703 234.126 72.5089C234.213 72.4475 234.314 72.4072 234.42 72.3911C234.526 72.3751 234.635 72.3837 234.737 72.4163C234.839 72.4489 234.932 72.5046 235.009 72.5791C235.155 72.7312 235.262 72.9166 235.32 73.1192C235.377 73.3218 235.385 73.5354 235.342 73.7415C235.266 74.2491 235.073 74.7321 234.779 75.1527C234.486 75.5734 234.098 75.9203 233.648 76.1661C232.727 76.6397 231.686 76.8248 230.659 76.6974C229.434 76.585 228.275 76.0979 227.337 75.3025C226.87 74.8907 226.505 74.3769 226.269 73.8009C226.032 73.2249 225.932 72.6023 225.976 71.9813L222.654 75.0368C223.998 76.1841 225.418 77.2383 226.906 78.192Z" fill="#FEDF00"/>
<path fill-rule="evenodd" clip-rule="evenodd" d="M219.034 87.291H218.801C218.659 87.2572 218.511 87.2572 218.369 87.291C218.232 87.3408 218.107 87.4201 218.004 87.5234C217.901 87.6268 217.821 87.7516 217.771 87.8889C217.738 88.0309 217.738 88.1787 217.771 88.3206V88.6196C217.831 88.8067 217.933 88.9772 218.07 89.1178C218.133 89.1911 218.213 89.2481 218.303 89.2838C218.466 89.4036 218.666 89.4624 218.868 89.4499H219.1C219.242 89.4838 219.39 89.4838 219.532 89.4499C219.669 89.4002 219.794 89.3208 219.897 89.2175C220.001 89.1142 220.08 88.9894 220.13 88.852C220.163 88.7101 220.163 88.5622 220.13 88.4203V88.1546C220.07 87.9675 219.968 87.797 219.831 87.6564C219.754 87.6412 219.675 87.6412 219.598 87.6564C219.451 87.4801 219.255 87.3526 219.034 87.291Z" fill="#5ABA4E"/>
<path fill-rule="evenodd" clip-rule="evenodd" d="M204.221 106.256V105.791C204.255 105.649 204.255 105.501 204.221 105.36C204.189 105.214 204.107 105.085 203.989 104.994C203.889 104.887 203.763 104.807 203.623 104.762C203.482 104.728 203.334 104.728 203.192 104.762H202.893C202.706 104.821 202.535 104.924 202.395 105.061V105.293C202.29 105.463 202.233 105.658 202.229 105.858V106.323C202.197 106.476 202.197 106.634 202.229 106.788C202.275 106.917 202.355 107.032 202.461 107.12C202.559 107.237 202.685 107.328 202.826 107.386C202.966 107.436 203.119 107.436 203.258 107.386H203.557C203.755 107.352 203.933 107.245 204.055 107.087L204.254 106.887C204.299 106.678 204.287 106.46 204.221 106.256Z" fill="#5ABA4E"/>
<path fill-rule="evenodd" clip-rule="evenodd" d="M191.866 92.472V92.2396C191.9 92.0976 191.9 91.9497 191.866 91.8078C191.816 91.6704 191.737 91.5457 191.633 91.4424C191.543 91.3242 191.413 91.242 191.268 91.21C191.2 91.1798 191.127 91.1641 191.052 91.1641C190.978 91.1641 190.904 91.1798 190.836 91.21H190.537C190.332 91.2494 190.146 91.3543 190.006 91.5089L189.84 91.7413C189.75 91.9176 189.694 92.1091 189.674 92.306V92.5385C189.64 92.6804 189.64 92.8283 189.674 92.9703C189.731 93.1037 189.81 93.2269 189.906 93.3355C190.012 93.4359 190.136 93.5149 190.272 93.5681C190.425 93.5994 190.583 93.5994 190.737 93.5681H191.036L191.534 93.2692V93.0366C191.698 92.8854 191.813 92.6889 191.866 92.472Z" fill="#5ABA4E"/>
<path fill-rule="evenodd" clip-rule="evenodd" d="M179.013 92.0077V91.7419C179.044 91.5996 179.044 91.4526 179.013 91.3102C178.964 91.1729 178.884 91.0481 178.781 90.9448C178.678 90.8414 178.553 90.7621 178.415 90.7123C178.273 90.6818 178.126 90.6818 177.984 90.7123H177.685C177.495 90.7471 177.321 90.84 177.186 90.9781L176.987 91.2106C176.938 91.3956 176.938 91.5902 176.987 91.7752V92.0409C176.957 92.1089 176.941 92.1823 176.941 92.2567C176.941 92.3311 176.957 92.4047 176.987 92.4726C177.019 92.618 177.102 92.7475 177.22 92.838C177.323 92.9414 177.448 93.0207 177.585 93.0705C177.727 93.1044 177.875 93.1044 178.017 93.0705H178.316C178.505 93.0357 178.679 92.9428 178.814 92.8048V92.5723C178.926 92.4034 178.994 92.2094 179.013 92.0077Z" fill="#5ABA4E"/>
<path fill-rule="evenodd" clip-rule="evenodd" d="M183.198 69.4896L183.431 69.2239C183.545 69.1298 183.626 69.0019 183.663 68.8586C183.697 68.7166 183.697 68.5687 183.663 68.4268C183.694 68.2845 183.694 68.1373 183.663 67.995C183.618 67.8555 183.538 67.7298 183.431 67.6297L183.198 67.4636C183.013 67.4158 182.819 67.4158 182.634 67.4636H182.335C182.148 67.5231 181.977 67.6255 181.836 67.7625L181.604 67.995C181.486 68.0856 181.403 68.215 181.371 68.3604C181.341 68.5027 181.341 68.6499 181.371 68.7922C181.337 68.9453 181.337 69.104 181.371 69.2571C181.412 69.3988 181.493 69.5257 181.604 69.6225L181.836 69.7885C182.007 69.8928 182.201 69.9501 182.401 69.9546H182.7C182.919 69.8682 183.097 69.7021 183.198 69.4896Z" fill="#5ABA4E"/>
<path fill-rule="evenodd" clip-rule="evenodd" d="M192.862 61.5854C193.161 61.5811 193.446 61.4622 193.659 61.2532C193.766 61.1498 193.85 61.0258 193.907 60.8887C193.964 60.7517 193.993 60.6046 193.992 60.4561C193.997 60.3071 193.971 60.1587 193.913 60.0211C193.856 59.8835 193.769 59.76 193.659 59.6591C193.443 59.4556 193.16 59.3375 192.862 59.3269C192.713 59.3213 192.565 59.348 192.427 59.4054C192.29 59.4627 192.166 59.5493 192.065 59.6591C191.856 59.8723 191.737 60.1576 191.733 60.4561C191.728 60.6051 191.754 60.7535 191.812 60.8912C191.869 61.0288 191.956 61.1523 192.065 61.2532C192.282 61.4567 192.565 61.5747 192.862 61.5854Z" fill="#5ABA4E"/>
<path fill-rule="evenodd" clip-rule="evenodd" d="M215.415 78.6567V78.1917C215.448 78.0498 215.448 77.9019 215.415 77.7599C215.365 77.6225 215.285 77.4977 215.182 77.3944C215.079 77.2911 214.954 77.2118 214.817 77.1621C214.675 77.1283 214.527 77.1283 214.385 77.1621H214.086C213.899 77.2217 213.728 77.324 213.588 77.461L213.389 77.6935C213.339 77.8785 213.339 78.0731 213.389 78.2581V78.7231C213.355 78.8651 213.355 79.013 213.389 79.1549C213.399 79.2287 213.426 79.2993 213.466 79.3623C213.506 79.4252 213.559 79.479 213.621 79.5202C213.713 79.6436 213.841 79.7363 213.986 79.786C214.126 79.8367 214.279 79.8367 214.418 79.786H214.717C214.915 79.7526 215.093 79.6458 215.215 79.4871L215.381 79.2877C215.447 79.0838 215.459 78.8664 215.415 78.6567Z" fill="#5ABA4E"/>
<path fill-rule="evenodd" clip-rule="evenodd" d="M241.717 60.4892L241.485 60.2567C241.385 60.1494 241.259 60.0694 241.12 60.0242C240.985 59.9594 240.837 59.9258 240.688 59.9258C240.538 59.9258 240.391 59.9594 240.256 60.0242C240.116 60.0694 239.991 60.1494 239.891 60.2567L239.725 60.4892C239.62 60.6594 239.563 60.8542 239.559 61.0538V61.3527C239.618 61.5397 239.72 61.7103 239.857 61.8509L240.09 62.1166C240.199 62.2131 240.322 62.2916 240.455 62.3491C240.736 62.4382 241.038 62.4382 241.319 62.3491C241.456 62.2994 241.581 62.22 241.684 62.1166L241.884 61.8841C241.933 61.6879 241.933 61.4825 241.884 61.2863V60.9874C241.862 60.8119 241.805 60.6426 241.717 60.4892Z" fill="#5ABA4E"/>
<path fill-rule="evenodd" clip-rule="evenodd" d="M204.12 47.104L204.386 46.8714C204.483 46.7628 204.561 46.6395 204.619 46.5061C204.683 46.3713 204.717 46.2238 204.717 46.0743C204.717 45.9248 204.683 45.7773 204.619 45.6426C204.561 45.5092 204.483 45.3858 204.386 45.2772L204.154 45.0779C203.957 45.0287 203.752 45.0287 203.556 45.0779H203.257C203.077 45.1527 202.909 45.2534 202.759 45.3768L202.526 45.6093C202.419 45.7094 202.339 45.8351 202.294 45.9746C202.229 46.1094 202.195 46.2569 202.195 46.4064C202.195 46.5559 202.229 46.7035 202.294 46.8382C202.339 46.9778 202.419 47.1035 202.526 47.2036L202.759 47.3696C202.922 47.4894 203.121 47.5481 203.323 47.5356H203.622C203.824 47.4384 203.996 47.2895 204.12 47.104Z" fill="#5ABA4E"/>
<path fill-rule="evenodd" clip-rule="evenodd" d="M230.46 41.2592C230.759 41.2549 231.044 41.136 231.257 40.927C231.461 40.7103 231.579 40.4271 231.589 40.13C231.595 39.981 231.568 39.8325 231.511 39.6948C231.453 39.5572 231.367 39.4337 231.257 39.3328C231.04 39.1293 230.757 39.0114 230.46 39.0007C230.311 38.9951 230.163 39.0218 230.025 39.0792C229.887 39.1365 229.764 39.223 229.663 39.3328C229.454 39.546 229.335 39.8315 229.331 40.13C229.325 40.279 229.352 40.4274 229.409 40.565C229.467 40.7026 229.553 40.8261 229.663 40.927C229.88 41.1305 230.163 41.2486 230.46 41.2592Z" fill="#5ABA4E"/>
<path fill-rule="evenodd" clip-rule="evenodd" d="M252.811 87.159C253.105 87.1672 253.392 87.0598 253.608 86.86C253.719 86.7527 253.805 86.6234 253.863 86.4803C253.92 86.3372 253.946 86.1836 253.94 86.0297C253.939 85.7305 253.82 85.4438 253.608 85.2326C253.505 85.1261 253.381 85.0419 253.244 84.9848C253.107 84.9277 252.959 84.8989 252.811 84.9004C252.511 84.9004 252.224 85.0195 252.012 85.2313C251.801 85.4431 251.682 85.7302 251.682 86.0297C251.707 86.3334 251.823 86.6225 252.014 86.86C252.234 87.054 252.517 87.1605 252.811 87.159Z" fill="#5ABA4E"/>
<path fill-rule="evenodd" clip-rule="evenodd" d="M236.57 117.682V117.217C236.62 117.078 236.62 116.925 236.57 116.785C236.512 116.652 236.434 116.529 236.337 116.42C236.232 116.32 236.108 116.241 235.972 116.188C235.818 116.156 235.66 116.156 235.507 116.188H235.208L234.71 116.486L234.544 116.719C234.496 116.904 234.496 117.098 234.544 117.284V117.749C234.51 117.89 234.51 118.038 234.544 118.18C234.593 118.318 234.673 118.442 234.776 118.546C234.867 118.664 234.996 118.746 235.142 118.778C235.21 118.808 235.283 118.824 235.357 118.824C235.432 118.824 235.505 118.808 235.573 118.778H235.839C236.044 118.739 236.23 118.634 236.37 118.479L236.536 118.247C236.597 118.065 236.608 117.87 236.57 117.682Z" fill="#5ABA4E"/>
<path fill-rule="evenodd" clip-rule="evenodd" d="M247.597 97.8854C247.896 97.8811 248.181 97.7622 248.394 97.5533C248.598 97.3365 248.716 97.0533 248.726 96.7562C248.722 96.4577 248.603 96.1723 248.394 95.9591C248.177 95.7556 247.894 95.6376 247.597 95.627C247.299 95.6312 247.013 95.7501 246.8 95.9591C246.589 96.1708 246.471 96.4574 246.471 96.7562C246.471 97.055 246.589 97.3416 246.8 97.5533C247.013 97.7622 247.299 97.8811 247.597 97.8854Z" fill="#5ABA4E"/>
<path fill-rule="evenodd" clip-rule="evenodd" d="M193.094 105.492C193.393 105.488 193.678 105.369 193.891 105.16C194.102 104.948 194.221 104.662 194.221 104.363C194.221 104.064 194.102 103.777 193.891 103.566C193.679 103.355 193.393 103.236 193.094 103.236C192.795 103.236 192.509 103.355 192.297 103.566C192.093 103.783 191.975 104.066 191.965 104.363C191.969 104.661 192.088 104.947 192.297 105.16C192.514 105.363 192.797 105.481 193.094 105.492Z" fill="#5ABA4E"/>
<path fill-rule="evenodd" clip-rule="evenodd" d="M167.255 83.0395L167.487 82.8071C167.594 82.707 167.674 82.5812 167.719 82.4417C167.75 82.2994 167.75 82.1522 167.719 82.0099C167.753 81.868 167.753 81.72 167.719 81.5781C167.683 81.4347 167.601 81.3068 167.487 81.2128L167.255 81.0135C167.07 80.9642 166.875 80.9642 166.69 81.0135H166.391C166.193 81.047 166.015 81.1537 165.893 81.3124L165.66 81.545C165.598 81.5861 165.545 81.6399 165.505 81.7029C165.465 81.7658 165.439 81.8364 165.428 81.9103C165.394 82.0522 165.394 82.2001 165.428 82.342C165.397 82.4843 165.397 82.6315 165.428 82.7738C165.46 82.9192 165.542 83.0486 165.66 83.1391L165.893 83.3052C166.063 83.4095 166.258 83.4668 166.457 83.4713H166.756C166.958 83.374 167.13 83.225 167.255 83.0395Z" fill="#5ABA4E"/>
</g>
<defs>
<filter id="filter0_d_9_492" x="59" y="37" width="202.926" height="155" filterUnits="userSpaceOnUse" color-interpolation-filters="sRGB">
<feFlood flood-opacity="0" result="BackgroundImageFix"/>
<feColorMatrix in="SourceAlpha" type="matrix" values="0 0 0 0 0 0 0 0 0 0 0 0 0 0 0 0 0 0 127 0" result="hardAlpha"/>
<feOffset dy="2"/>
<feGaussianBlur stdDeviation="2"/>
<feComposite in2="hardAlpha" operator="out"/>
<feColorMatrix type="matrix" values="0 0 0 0 0 0 0 0 0 0 0 0 0 0 0 0 0 0 0.25 0"/>
<feBlend mode="normal" in2="BackgroundImageFix" result="effect1_dropShadow_9_492"/>
<feBlend mode="normal" in="SourceGraphic" in2="effect1_dropShadow_9_492" result="shape"/>
</filter>
<linearGradient id="paint0_linear_9_492" x1="221.989" y1="92.0406" x2="117.966" y2="80.9808" gradientUnits="userSpaceOnUse">
<stop stop-color="#EF3E23"/>
<stop offset="0.39" stop-color="#FCB316"/>
<stop offset="0.83" stop-color="#EF3E23"/>
<stop offset="1" stop-color="#EF3E23"/>
</linearGradient>
<radialGradient id="paint1_radial_9_492" cx="0" cy="0" r="1" gradientUnits="userSpaceOnUse" gradientTransform="translate(160.189 97.1788) scale(30.124 30.1241)">
<stop stop-color="#F37321"/>
<stop offset="1" stop-color="#FFCB05"/>
</radialGradient>
<linearGradient id="paint2_linear_9_492" x1="63.0004" y1="125.022" x2="181.803" y2="125.022" gradientUnits="userSpaceOnUse">
<stop stop-color="#72C6EF"/>
<stop offset="1" stop-color="#72C6EF"/>
</linearGradient>
<radialGradient id="paint3_radial_9_492" cx="0" cy="0" r="1" gradientUnits="userSpaceOnUse" gradientTransform="translate(122.418 148.119) scale(56.9932 34.7658)">
<stop stop-color="white"/>
<stop offset="0.16" stop-color="#F8FDFF"/>
<stop offset="0.4" stop-color="#E5F6FD"/>
<stop offset="0.68" stop-color="#C6EBFC"/>
<stop offset="0.99" stop-color="#9CDCF9"/>
<stop offset="1" stop-color="#9ADBF9"/>
</radialGradient>
<linearGradient id="paint4_linear_9_492" x1="185.555" y1="135.749" x2="201.265" y2="139.436" gradientUnits="userSpaceOnUse">
<stop stop-color="#22562B"/>
<stop offset="0.31" stop-color="#5BBA47"/>
<stop offset="0.55" stop-color="#009E4A"/>
<stop offset="1" stop-color="#1A371A"/>
</linearGradient>
<linearGradient id="paint5_linear_9_492" x1="190.404" y1="113.231" x2="209.103" y2="114.227" gradientUnits="userSpaceOnUse">
<stop stop-color="#22562B"/>
<stop offset="0.31" stop-color="#5BBA47"/>
<stop offset="0.55" stop-color="#009E4A"/>
<stop offset="1" stop-color="#1A371A"/>
</linearGradient>
<clipPath id="clip0_9_492">
<rect width="194.926" height="147" fill="white" transform="translate(63 39)"/>
</clipPath>
</defs>
</svg>
