<svg width="320" height="192" viewBox="0 0 320 192" fill="none" xmlns="http://www.w3.org/2000/svg">
<g clip-path="url(#clip0_9_443)" filter="url(#filter0_d_9_443)">
<path fill-rule="evenodd" clip-rule="evenodd" d="M205.018 126.803C206.162 126.577 207.242 126.102 208.183 125.414C209.124 124.725 209.903 123.838 210.464 122.816C211.026 121.794 211.357 120.662 211.434 119.498C211.51 118.334 211.331 117.168 210.909 116.081C212.709 116.001 214.456 115.451 215.978 114.488C217.5 113.524 218.743 112.179 219.586 110.587C220.428 108.995 220.84 107.21 220.78 105.409C220.72 103.609 220.191 101.856 219.245 100.323C221.01 99.8543 222.529 98.7261 223.486 97.1709C232.058 103.975 241.749 93.4595 237.419 86.3018C238.518 86.5457 239.663 86.4697 240.72 86.0828C241.777 85.696 242.701 85.0145 243.383 84.119C244.064 83.2235 244.475 82.1514 244.567 81.0296C244.658 79.9079 244.427 78.7834 243.899 77.7892C245.394 76.8421 246.61 75.5134 247.421 73.9401C248.232 72.3668 248.609 70.6058 248.513 68.8383C248.417 67.0709 247.852 65.361 246.875 63.8848C245.898 62.4086 244.546 61.2195 242.956 60.44C240.536 59.2942 237.781 59.0742 235.21 59.8214C235.131 58.6577 234.806 57.5239 234.255 56.4957C233.704 55.4674 232.941 54.5681 232.016 53.8576C231.091 53.1471 230.025 52.6416 228.89 52.3748C227.754 52.1081 226.575 52.0861 225.43 52.3103C225.524 51.1842 225.371 50.0511 224.983 48.99C224.594 47.9289 223.979 46.9653 223.18 46.1663C222.381 45.3672 221.417 44.7519 220.356 44.3632C219.295 43.9745 218.162 43.8217 217.036 43.9155C216.012 44.0166 215.019 44.3237 214.117 44.8185C213.215 45.3132 212.422 45.9852 211.787 46.7942C211.151 47.6032 210.685 48.5324 210.418 49.5259C210.151 50.5194 210.087 51.5567 210.232 52.5754C209.334 52.0877 208.322 51.852 207.301 51.8934C206.281 51.9348 205.291 52.2517 204.436 52.8105C203.581 53.3693 202.894 54.149 202.447 55.0671C201.999 55.9851 201.809 57.0071 201.896 58.0247C199.032 57.6586 196.138 58.419 193.825 60.1455C191.937 61.8227 190.688 64.1021 190.29 66.5961C189.988 68.3973 190.207 70.2474 190.922 71.928C191.637 73.6085 192.818 75.0495 194.326 76.0808C194.326 76.0808 193.354 79.6744 195.18 81.3533C194.308 81.7924 193.533 82.4009 192.899 83.1435C192.266 83.886 191.787 84.7475 191.491 85.6774C191.194 86.6074 191.087 87.5872 191.174 88.5593C191.261 89.5314 191.542 90.4763 191.999 91.3387C190.343 91.6485 188.81 92.4252 187.58 93.5773C186.763 94.392 186.146 95.3855 185.778 96.4793C185.41 97.5732 185.301 98.7376 185.46 99.8808C185.664 101.092 186.175 102.231 186.943 103.19C187.711 104.148 188.711 104.895 189.848 105.359C186.903 108.099 188.11 111.103 191.999 111.987C192.146 111.987 190.379 114.756 192.529 116.788C191.096 117.813 190.099 119.337 189.73 121.059C189.23 124.005 204.046 130.367 204.046 130.367L205.018 126.803Z" fill="#ED2290"/>
<path fill-rule="evenodd" clip-rule="evenodd" d="M226.551 53.989C227.442 54.0698 228.295 54.3848 229.025 54.9022C229.754 55.4195 230.334 56.1207 230.705 56.9346C231.47 58.967 231.235 59.8801 231.618 60.6754C231.75 60.9829 231.944 61.2596 232.188 61.488C232.433 61.7165 232.722 61.8916 233.038 62.0024C233.353 62.1132 233.689 62.1571 234.022 62.1315C234.356 62.1059 234.68 62.0113 234.976 61.8537C236.504 61.3226 238.161 61.2872 239.71 61.7526C241.26 62.218 242.623 63.1605 243.606 64.4457C244.485 65.7447 244.969 67.27 245 68.8379C245.031 70.4058 244.609 71.9493 243.783 73.2823C242.604 74.8729 240.837 75.4031 240.513 76.4635C240.189 77.5239 241.986 79.4091 240.837 81.6182C240.492 82.3568 239.9 82.9521 239.164 83.3015C238.427 83.651 237.592 83.7327 236.802 83.5328C235.476 83.5328 234.711 83.5328 234.092 84.4754C233.473 85.418 234.563 87.7155 234.828 89.4534C234.813 90.739 234.448 91.9962 233.774 93.0908C233.099 94.1855 232.14 95.0764 230.999 95.6685C230.003 96.0734 228.93 96.2543 227.856 96.1984C226.781 96.1424 225.733 95.8508 224.784 95.3444C223.193 94.4902 222.192 93.9895 221.426 94.4313C220.66 94.8732 220.13 95.963 218.922 96.9056C217.715 97.8481 216.154 97.8187 215.594 99.1736C215.034 100.529 217.214 102.119 217.155 104.593C217.227 106.215 216.828 107.823 216.008 109.223C215.187 110.623 213.98 111.757 212.531 112.487C208.79 114.314 208.76 112.281 207.405 114.432C206.05 116.582 209.497 117.053 207.405 121.03C207.047 121.677 206.563 122.246 205.982 122.704C205.401 123.162 204.734 123.5 204.021 123.697C203.308 123.895 202.563 123.948 201.829 123.854C201.095 123.76 200.387 123.521 199.747 123.15C198.775 122.384 198.009 121.442 197.096 121.236C196.183 121.03 195.711 120.647 194.15 122.561C192.589 124.476 191.941 121.736 191.941 121.736L191.175 120.087C191.338 119.658 191.586 119.267 191.905 118.938C192.224 118.608 192.607 118.348 193.031 118.172C194.592 117.407 193.797 115.404 193.414 114.814C193.14 114.431 192.963 113.987 192.896 113.521C192.83 113.054 192.876 112.579 193.031 112.134C193.164 111.877 193.237 111.594 193.243 111.304C193.249 111.015 193.188 110.729 193.066 110.467C192.944 110.205 192.763 109.974 192.537 109.794C192.311 109.613 192.047 109.486 191.764 109.424C190.351 108.953 189.496 108.629 189.379 108.069C189.261 107.509 190.527 106.655 190.851 105.742C191.081 105.265 191.123 104.719 190.97 104.213C190.818 103.706 190.481 103.274 190.027 103.003C187.788 101.353 185.019 98.8202 187.228 95.6685C188.37 94.3829 189.92 93.5299 191.617 93.2531C193.738 92.7229 193.178 90.6316 192.884 89.5123C192.737 88.8643 192.471 88.1868 192.383 87.5093C192.335 86.7125 192.514 85.9184 192.9 85.2196C193.286 84.5207 193.863 83.946 194.563 83.5623C195.564 82.8259 196.742 82.0895 196.271 80.6167C195.8 79.144 194.533 78.6727 195.152 76.9348C195.392 76.4452 195.462 75.8893 195.35 75.3556C195.238 74.8218 194.95 74.3409 194.533 73.9893C193.56 73.0819 192.793 71.9757 192.285 70.7457C191.777 69.5158 191.539 68.191 191.588 66.8611C191.669 65.4487 192.165 64.0915 193.013 62.9597C193.862 61.8279 195.026 60.9718 196.36 60.4987C197.859 60.1091 199.42 60.019 200.955 60.2336C201.244 60.2619 201.536 60.2311 201.814 60.1431C202.091 60.0551 202.348 59.9118 202.568 59.7218C202.788 59.5318 202.968 59.299 203.095 59.0377C203.223 58.7763 203.296 58.4917 203.311 58.2012C203.576 56.7579 203.311 53.8712 206.257 54.0185C207.096 54.144 207.917 54.3715 208.701 54.696C209.146 54.8982 209.65 54.9256 210.114 54.7728C210.578 54.6199 210.968 54.2981 211.205 53.8712C211.51 52.8398 211.59 51.7551 211.441 50.69C211.469 49.8283 211.711 48.9872 212.146 48.2427C212.581 47.4983 213.195 46.8741 213.932 46.4266C214.669 45.9792 215.506 45.7226 216.367 45.6801C217.228 45.6376 218.086 45.8106 218.863 46.1834C221.809 47.5678 221.426 49.4824 221.809 52.0745C222.192 54.6665 225.079 53.8712 226.551 53.989Z" fill="#F170AB"/>
<path fill-rule="evenodd" clip-rule="evenodd" d="M228.847 77.169C229.437 82.8539 224.576 81.9407 223.487 80.9687C223.102 81.8759 222.486 82.6663 221.701 83.2608C220.915 83.8552 219.987 84.233 219.009 84.3561C220.129 88.3326 215.386 91.7494 212.765 89.5108C212.765 89.5108 211.704 94.1647 208.111 94.7833C208.592 95.2842 208.956 95.8865 209.174 96.5461C209.392 97.2057 209.46 97.9059 209.373 98.5952C209.285 99.2844 209.044 99.9453 208.668 100.529C208.292 101.113 207.789 101.606 207.198 101.97C207.59 102.426 207.846 102.982 207.938 103.575C208.03 104.169 207.953 104.776 207.717 105.329C207.481 105.881 207.094 106.356 206.602 106.7C206.109 107.043 205.53 107.242 204.93 107.272C204.878 108.096 204.508 108.867 203.899 109.423C203.617 109.578 203.306 109.674 202.985 109.705C202.664 109.735 202.341 109.7 202.034 109.6C201.728 109.501 201.445 109.34 201.203 109.127C200.962 108.914 200.766 108.654 200.629 108.362C200.553 107.839 200.646 107.305 200.895 106.838C201.144 106.372 201.536 105.998 202.014 105.77C202.014 105.77 202.22 104.68 201.69 104.445C201.159 104.209 199.687 103.532 199.598 102.059C196.918 101.293 196.476 99.1133 198.155 96.963C197.533 96.4596 197.079 95.7791 196.853 95.0117C196.626 94.2443 196.639 93.4263 196.888 92.666C197.137 91.9057 197.611 91.2391 198.248 90.7546C198.884 90.27 199.653 89.9903 200.452 89.9526C200.1 88.8273 200.128 87.6172 200.533 86.5096C200.937 85.402 201.696 84.4587 202.691 83.8259C202.691 83.8259 199.186 83.06 198.567 80.1734C198.349 79.3952 198.323 78.5755 198.493 77.7852C198.662 76.9948 199.021 76.2577 199.539 75.6373C198.607 74.1239 198.262 72.3218 198.567 70.571C198.728 69.4695 199.143 68.4204 199.779 67.5066C200.415 66.5927 201.254 65.8391 202.231 65.305C203.207 64.771 204.295 64.4711 205.407 64.429C206.52 64.387 207.627 64.604 208.641 65.0628C208.641 65.0628 209.643 61.3514 212.706 61.0863C212.713 60.028 213.108 59.0092 213.816 58.2222C214.523 57.4352 215.495 56.9345 216.546 56.8149C217.598 56.6952 218.657 56.9648 219.523 57.5727C220.389 58.1806 221.003 59.0847 221.248 60.1143C224.665 57.6695 231.822 60.4972 230.085 64.1202C231.435 64.685 232.57 65.667 233.323 66.9228C234.076 68.1786 234.408 69.6423 234.27 71.1001C234.132 72.5578 233.531 73.933 232.555 75.025C231.58 76.1169 230.28 76.8681 228.847 77.169Z" fill="#F4BAD5"/>
<path d="M184.693 121.234L163.87 166.903C162.986 168.842 163.841 171.131 165.78 172.015L184.782 180.679C186.722 181.563 189.01 180.707 189.894 178.768L210.716 133.099C211.601 131.16 210.745 128.872 208.806 127.988L189.804 119.324C187.865 118.44 185.577 119.295 184.693 121.234Z" fill="url(#paint0_linear_9_443)"/>
<path fill-rule="evenodd" clip-rule="evenodd" d="M182.192 126.596L184.46 125.242L187.199 132.311C187.298 132.564 187.491 132.77 187.738 132.885C187.985 133 188.266 133.016 188.525 132.929L195.859 130.308L198.804 137.436C198.914 137.681 199.109 137.878 199.352 137.992C199.595 138.105 199.872 138.128 200.13 138.055L207.582 135.669L208.584 137.878L209.762 135.315L209.173 134.019C209.079 133.76 208.889 133.548 208.641 133.427C208.394 133.306 208.109 133.286 207.847 133.371L200.424 135.728L197.479 128.57C197.368 128.319 197.169 128.117 196.919 128.003C196.669 127.889 196.386 127.87 196.124 127.951L188.819 130.573L185.873 123.297V123.15C185.804 123.03 185.711 122.925 185.6 122.842C185.489 122.759 185.362 122.699 185.227 122.666C185.092 122.633 184.952 122.628 184.815 122.65C184.678 122.673 184.547 122.722 184.43 122.797L183.694 123.209L182.162 126.596H182.192ZM180.159 131.074L180.866 130.632C180.987 130.558 181.122 130.51 181.263 130.489C181.403 130.468 181.546 130.476 181.684 130.512C181.821 130.548 181.95 130.611 182.062 130.697C182.175 130.783 182.269 130.891 182.339 131.015L185.284 138.261L192.589 135.669C192.843 135.573 193.125 135.58 193.373 135.691C193.621 135.801 193.816 136.005 193.915 136.258L196.86 143.415L204.313 141.059C204.571 140.983 204.848 141.007 205.089 141.127C205.329 141.248 205.515 141.455 205.609 141.707L206.227 143.033L205.049 145.595L204.048 143.386L196.566 145.742C196.312 145.828 196.034 145.811 195.792 145.696C195.55 145.58 195.363 145.375 195.27 145.124L192.324 137.996L185.019 140.617C184.89 140.669 184.752 140.694 184.613 140.69C184.473 140.687 184.336 140.655 184.21 140.597C184.083 140.539 183.97 140.457 183.876 140.354C183.782 140.251 183.71 140.13 183.664 139.999L180.954 132.959L178.686 134.314L180.218 130.926L180.159 131.074ZM176.595 138.909L177.302 138.496C177.419 138.422 177.55 138.372 177.687 138.35C177.824 138.328 177.964 138.333 178.099 138.366C178.234 138.399 178.36 138.459 178.471 138.542C178.583 138.625 178.676 138.73 178.745 138.85L181.544 146.125L188.849 143.504C189.111 143.423 189.394 143.441 189.644 143.555C189.894 143.669 190.093 143.871 190.203 144.122L193.149 151.28L200.572 148.924C200.834 148.838 201.118 148.858 201.366 148.979C201.613 149.1 201.804 149.313 201.897 149.572L202.486 150.868L201.308 153.43L200.307 151.251L192.854 153.607C192.596 153.68 192.32 153.658 192.077 153.544C191.833 153.431 191.639 153.233 191.529 152.988L188.583 145.86L181.249 148.482C180.991 148.569 180.709 148.553 180.463 148.438C180.216 148.323 180.023 148.117 179.924 147.863L177.184 140.794L174.916 142.149L176.477 138.762L176.595 138.909ZM173.002 146.773L171.47 150.161L173.738 148.806L176.448 155.846C176.494 155.977 176.566 156.098 176.659 156.201C176.753 156.304 176.867 156.387 176.993 156.444C177.12 156.502 177.257 156.534 177.396 156.537C177.535 156.541 177.673 156.516 177.803 156.464L185.108 153.843L188.053 160.971C188.146 161.222 188.334 161.428 188.576 161.543C188.818 161.658 189.095 161.675 189.349 161.589L196.831 159.233L197.832 161.442L199.011 158.88L198.392 157.554C198.299 157.302 198.113 157.095 197.872 156.974C197.631 156.854 197.354 156.83 197.096 156.906L189.644 159.263L186.698 152.105C186.599 151.852 186.405 151.648 186.157 151.538C185.908 151.427 185.627 151.42 185.373 151.516L178.068 154.108L175.122 146.862C175.138 146.814 175.138 146.762 175.122 146.715C175.052 146.591 174.958 146.483 174.846 146.397C174.733 146.31 174.604 146.247 174.467 146.212C174.33 146.176 174.186 146.168 174.046 146.189C173.906 146.209 173.771 146.258 173.65 146.332L172.943 146.773H173.002ZM169.437 154.609L167.876 157.996L170.144 156.641L172.884 163.71C172.983 163.964 173.176 164.17 173.423 164.285C173.669 164.4 173.951 164.416 174.209 164.329L181.544 161.707L184.489 168.836C184.599 169.08 184.794 169.278 185.037 169.391C185.28 169.505 185.556 169.527 185.815 169.454L193.267 167.098L194.268 169.307L195.446 166.715L194.857 165.419C194.764 165.16 194.573 164.947 194.326 164.826C194.078 164.705 193.794 164.685 193.532 164.771L186.109 167.127L183.164 159.969C183.053 159.718 182.854 159.516 182.604 159.402C182.354 159.288 182.071 159.27 181.809 159.351L174.504 161.972L171.705 154.697V154.55C171.636 154.43 171.543 154.325 171.432 154.242C171.321 154.159 171.194 154.099 171.059 154.066C170.924 154.033 170.784 154.027 170.647 154.05C170.51 154.072 170.379 154.122 170.262 154.196L169.555 154.609H169.437ZM165.844 162.473L166.551 162.031C166.672 161.958 166.807 161.909 166.947 161.888C167.088 161.868 167.231 161.876 167.368 161.911C167.505 161.947 167.634 162.01 167.747 162.096C167.859 162.183 167.953 162.291 168.024 162.414L170.969 169.66L178.274 167.068C178.528 166.972 178.81 166.98 179.058 167.09C179.306 167.201 179.501 167.404 179.6 167.657L182.545 174.815L189.997 172.459C190.255 172.382 190.533 172.406 190.773 172.527C191.014 172.647 191.2 172.854 191.293 173.107L191.912 174.432L190.734 176.995L189.732 174.786L182.251 177.142C181.996 177.228 181.719 177.211 181.477 177.095C181.235 176.98 181.048 176.775 180.954 176.523L178.009 169.395L170.704 172.017C170.575 172.068 170.436 172.093 170.297 172.09C170.158 172.086 170.021 172.055 169.894 171.997C169.768 171.939 169.654 171.856 169.56 171.753C169.467 171.65 169.395 171.53 169.349 171.398L166.639 164.358L164.371 165.713L165.844 162.473Z" fill="url(#paint1_linear_9_443)"/>
<g style="mix-blend-mode:multiply">
<path fill-rule="evenodd" clip-rule="evenodd" d="M181.956 127.125L184.459 125.653L187.199 132.692C187.298 132.946 187.491 133.152 187.738 133.267C187.984 133.382 188.266 133.398 188.524 133.311L195.859 130.69L198.804 137.818C198.914 138.063 199.108 138.26 199.352 138.373C199.595 138.487 199.871 138.509 200.13 138.436L207.582 136.08L208.495 138.083V137.877L207.493 135.667L200.041 138.053C199.783 138.126 199.507 138.104 199.263 137.991C199.02 137.877 198.826 137.68 198.716 137.435L195.77 130.307L188.436 132.928C188.178 133.015 187.896 132.999 187.649 132.884C187.403 132.769 187.21 132.563 187.11 132.31L184.371 125.24L182.103 126.595L181.867 127.125H181.956ZM190.498 177.347L190.704 176.846V177.141L189.702 174.932L182.221 177.288C181.967 177.374 181.689 177.357 181.447 177.241C181.205 177.126 181.018 176.921 180.925 176.669L177.979 169.541L170.674 172.163C170.545 172.214 170.407 172.239 170.267 172.236C170.128 172.232 169.991 172.201 169.865 172.143C169.738 172.085 169.624 172.002 169.531 171.899C169.437 171.796 169.365 171.676 169.319 171.544L166.609 164.504L164.341 165.859L164.076 166.389L166.609 164.887L169.319 171.956C169.424 172.212 169.624 172.416 169.877 172.526C170.13 172.636 170.416 172.643 170.674 172.546L177.979 169.954L180.925 177.052C181.018 177.304 181.205 177.509 181.447 177.624C181.689 177.74 181.967 177.757 182.221 177.671L189.702 175.314L190.616 177.347H190.498ZM194.062 169.482L193.149 167.479L185.696 169.836C185.438 169.915 185.159 169.896 184.915 169.782C184.67 169.668 184.476 169.466 184.371 169.217L181.425 162.089L174.091 164.71C173.833 164.797 173.551 164.781 173.305 164.666C173.058 164.551 172.865 164.345 172.766 164.092L170.026 157.052L167.522 158.525L167.758 157.995L170.026 156.64L172.766 163.709C172.865 163.963 173.058 164.168 173.305 164.283C173.551 164.399 173.833 164.414 174.091 164.328L181.425 161.706L184.371 168.834C184.481 169.079 184.675 169.276 184.919 169.39C185.162 169.504 185.438 169.526 185.696 169.453L193.149 167.096L194.15 169.306V169.482H194.062ZM197.655 161.647V161.441L196.654 159.232L189.172 161.588C188.918 161.674 188.641 161.657 188.399 161.542C188.157 161.426 187.969 161.221 187.876 160.97L184.931 153.841L177.626 156.463C177.496 156.514 177.358 156.539 177.219 156.536C177.08 156.532 176.943 156.501 176.816 156.443C176.69 156.385 176.576 156.302 176.482 156.2C176.388 156.097 176.317 155.976 176.271 155.844L173.561 148.805L171.293 150.16L171.028 150.69L173.561 149.187L176.271 156.227C176.317 156.359 176.388 156.48 176.482 156.582C176.576 156.685 176.69 156.768 176.816 156.826C176.943 156.884 177.08 156.915 177.219 156.919C177.358 156.922 177.496 156.897 177.626 156.846L184.931 154.254L187.876 161.353C187.969 161.604 188.157 161.809 188.399 161.925C188.641 162.04 188.918 162.057 189.172 161.971L196.654 159.615L197.567 161.647H197.655ZM201.219 153.783L200.306 151.78L192.854 154.136C192.596 154.209 192.32 154.187 192.076 154.073C191.833 153.96 191.639 153.762 191.529 153.517L188.583 146.389L181.249 149.011C180.991 149.098 180.709 149.082 180.462 148.967C180.215 148.851 180.022 148.646 179.923 148.392L177.184 141.352L174.68 142.825L174.916 142.295L177.184 140.94L179.923 148.009C180.022 148.263 180.215 148.469 180.462 148.584C180.709 148.699 180.991 148.715 181.249 148.628L188.583 146.006L191.529 153.134C191.639 153.379 191.833 153.577 192.076 153.69C192.32 153.804 192.596 153.826 192.854 153.753L200.306 151.397L201.308 153.576V153.783H201.219ZM204.813 145.947L203.9 143.915L196.418 146.271C196.164 146.357 195.887 146.34 195.645 146.225C195.403 146.109 195.215 145.904 195.122 145.653L192.177 138.554L184.872 141.146C184.737 141.196 184.593 141.217 184.449 141.208C184.305 141.199 184.165 141.16 184.037 141.093C183.91 141.027 183.798 140.934 183.708 140.821C183.618 140.709 183.553 140.579 183.517 140.439L180.807 133.399L178.274 134.902L178.539 134.371L180.807 133.016L183.517 140.056C183.563 140.188 183.634 140.309 183.728 140.411C183.822 140.514 183.936 140.597 184.062 140.655C184.189 140.713 184.326 140.744 184.465 140.748C184.604 140.751 184.742 140.726 184.872 140.675L192.177 138.053L195.122 145.182C195.215 145.433 195.403 145.638 195.645 145.754C195.887 145.869 196.164 145.886 196.418 145.8L203.9 143.444L204.901 145.653V145.859L204.813 145.947Z" fill="#007B3F"/>
</g>
<path fill-rule="evenodd" clip-rule="evenodd" d="M112.617 125.712C111.484 125.418 110.43 124.877 109.531 124.128C108.631 123.379 107.908 122.44 107.413 121.38C106.917 120.319 106.662 119.162 106.666 117.991C106.67 116.821 106.932 115.665 107.433 114.608C105.639 114.413 103.927 113.752 102.468 112.688C101.01 111.625 99.8565 110.197 99.1229 108.548C98.3893 106.899 98.1015 105.087 98.2883 103.291C98.475 101.496 99.1297 99.7816 100.187 98.3189C98.4646 97.7329 97.0315 96.5105 96.1811 94.902C87.1383 101.088 78.1839 89.9535 83.0146 83.1199C81.9156 83.2749 80.7951 83.1164 79.7823 82.6625C78.7695 82.2086 77.9054 81.4779 77.2898 80.5544C76.6741 79.6309 76.3319 78.5523 76.3025 77.4428C76.2731 76.3333 76.5577 75.2381 77.1235 74.2832C75.6995 73.2359 74.58 71.8282 73.88 70.205C73.1801 68.5817 72.925 66.8014 73.141 65.0469C73.3569 63.2924 74.0361 61.6271 75.1088 60.222C76.1814 58.8168 77.6088 57.7227 79.2443 57.0519C81.7471 56.0901 84.5176 56.0901 87.0205 57.0519C87.1785 55.897 87.5795 54.7887 88.1971 53.8002C88.8147 52.8116 89.6347 51.9652 90.6033 51.3167C91.5719 50.6682 92.6669 50.2323 93.8162 50.0379C94.9655 49.8435 96.143 49.8949 97.271 50.1888C97.2605 49.0719 97.4908 47.9658 97.9461 46.9459C98.4015 45.926 99.0711 45.0162 99.9096 44.2783C100.748 43.5405 101.736 42.9919 102.805 42.6699C103.875 42.348 105.001 42.2602 106.108 42.4125C107.12 42.5843 108.087 42.9595 108.951 43.5154C109.814 44.0714 110.556 44.7967 111.131 45.6473C111.707 46.498 112.104 47.4565 112.298 48.4648C112.493 49.4732 112.481 50.5105 112.264 51.5142C113.183 51.095 114.198 50.9296 115.202 51.0353C116.207 51.141 117.165 51.514 117.977 52.1153C118.789 52.7166 119.425 53.5244 119.819 54.4547C120.212 55.3851 120.35 56.4039 120.217 57.4053C123.096 57.2428 125.926 58.2037 128.111 60.0858C129.893 61.8717 130.988 64.2289 131.204 66.7427C131.388 68.5592 131.048 70.3906 130.223 72.0196C129.398 73.6485 128.123 75.0066 126.55 75.9328C126.55 75.9328 127.257 79.5852 125.312 81.1169C126.155 81.613 126.89 82.2733 127.473 83.0587C128.056 83.8441 128.475 84.7386 128.706 85.6891C128.937 86.6396 128.974 87.6268 128.816 88.5921C128.659 89.5574 128.308 90.4811 127.787 91.3085C129.427 91.7355 130.909 92.625 132.058 93.8711C132.819 94.7365 133.367 95.7679 133.658 96.8828C133.95 97.9977 133.977 99.1652 133.737 100.292C133.446 101.482 132.859 102.579 132.03 103.481C131.2 104.382 130.156 105.059 128.994 105.447C131.675 108.393 130.32 111.338 126.373 111.927C126.226 111.927 127.816 114.873 125.519 116.67C126.88 117.8 127.772 119.395 128.022 121.147C128.346 124.092 113.088 129.424 113.088 129.424L112.617 125.712Z" fill="#00A9CC"/>
<path fill-rule="evenodd" clip-rule="evenodd" d="M96.1517 51.5134C95.2703 51.5146 94.405 51.7497 93.6443 52.1947C92.8835 52.6398 92.2546 53.2789 91.8217 54.0466C90.9086 56.0201 91.0559 56.9922 90.6141 57.6991C90.4707 58.0036 90.2639 58.274 90.0073 58.4918C89.7507 58.7097 89.4505 58.8701 89.1267 58.9622C88.803 59.0543 88.4633 59.076 88.1305 59.0258C87.7976 58.9755 87.4794 58.8546 87.1972 58.6711C85.7036 58.0168 84.0397 57.8582 82.4494 58.2187C80.8591 58.5791 79.4261 59.4397 78.3606 60.6741C77.3805 61.9096 76.7853 63.4061 76.6492 64.9772C76.513 66.5484 76.8419 68.125 77.5948 69.5107C78.6258 71.1897 80.3342 71.8377 80.5404 72.8981C80.7466 73.9585 78.8613 75.8436 79.8334 78.0528C80.1427 78.8063 80.6988 79.4324 81.4106 79.8284C82.1224 80.2244 82.9476 80.3669 83.751 80.2325C85.0765 80.2325 85.8128 80.2325 86.3725 81.3518C86.9321 82.4711 85.695 84.533 85.3121 86.2708C85.2317 87.5499 85.5019 88.8266 86.0936 89.9634C86.6854 91.1001 87.5761 92.0538 88.67 92.7216C89.6473 93.1791 90.7132 93.4162 91.7923 93.4162C92.8713 93.4162 93.9373 93.1791 94.9146 92.7216C96.5641 91.9852 97.595 91.5433 98.3314 92.0146C99.0677 92.4859 99.5096 93.6641 100.658 94.6656C101.807 95.6671 103.339 95.7849 103.81 97.1693C104.281 98.5537 102.013 99.9676 101.896 102.471C101.706 104.083 101.989 105.716 102.71 107.17C103.432 108.624 104.561 109.837 105.96 110.66C109.583 112.722 109.76 110.66 110.938 112.957C112.116 115.255 108.7 115.432 110.438 119.526C110.747 120.198 111.188 120.802 111.734 121.3C112.28 121.799 112.921 122.184 113.619 122.431C114.316 122.678 115.056 122.783 115.795 122.739C116.533 122.696 117.256 122.504 117.919 122.177C118.95 121.47 119.775 120.586 120.688 120.439C121.601 120.292 122.131 119.938 123.486 121.971C124.841 124.003 125.754 121.293 125.754 121.293L126.638 119.703C126.497 119.266 126.271 118.861 125.972 118.513C125.674 118.164 125.31 117.878 124.9 117.67C123.398 116.787 124.341 114.725 124.9 114.283C125.194 113.915 125.395 113.483 125.487 113.022C125.58 112.561 125.56 112.084 125.43 111.632C125.32 111.366 125.271 111.079 125.288 110.792C125.306 110.504 125.389 110.225 125.531 109.975C125.673 109.724 125.871 109.51 126.109 109.348C126.347 109.186 126.618 109.081 126.903 109.04C128.317 108.657 129.23 108.392 129.348 107.832C129.466 107.272 128.317 106.33 128.052 105.417C127.863 104.929 127.86 104.389 128.045 103.9C128.23 103.41 128.589 103.006 129.053 102.766C131.41 101.234 134.355 98.9072 132.382 95.6082C131.334 94.2442 129.845 93.2863 128.17 92.8983C126.078 92.2503 126.756 90.1884 127.139 89.0986C127.389 88.4554 127.596 87.796 127.757 87.125C127.871 86.3335 127.753 85.5262 127.418 84.7999C127.084 84.0736 126.547 83.4593 125.872 83.0307C124.93 82.2354 123.781 81.4107 124.399 79.8495C125.018 78.2884 126.255 78.0233 125.754 76.256C125.542 75.7436 125.507 75.1747 125.657 74.6405C125.807 74.1063 126.131 73.6379 126.579 73.3105C127.637 72.4858 128.505 71.4437 129.125 70.2545C129.745 69.0654 130.102 67.757 130.173 66.4179C130.181 64.9989 129.772 63.609 128.997 62.4203C128.222 61.2317 127.115 60.2968 125.813 59.7315C124.359 59.2202 122.812 59.0293 121.277 59.1719C120.983 59.1798 120.691 59.1284 120.418 59.0205C120.145 58.9127 119.896 58.7508 119.687 58.5444C119.478 58.3381 119.313 58.0916 119.201 57.8198C119.09 57.548 119.034 57.2565 119.038 56.9627C118.891 55.4899 119.304 52.6328 116.446 52.5738C115.596 52.6625 114.756 52.8402 113.943 53.1041C113.484 53.2758 112.977 53.2681 112.524 53.0824C112.071 52.8967 111.704 52.5468 111.498 52.1025C111.275 51.0439 111.275 49.9506 111.498 48.8919C111.478 48.0557 111.254 47.237 110.845 46.5074C110.436 45.7778 109.854 45.1594 109.151 44.7062C108.448 44.2529 107.645 43.9787 106.811 43.9073C105.978 43.836 105.14 43.9697 104.37 44.2969C101.247 45.4456 101.571 47.3897 100.953 50.188C100.334 52.9862 97.595 51.5134 96.1517 51.5134Z" fill="#51C6DB"/>
<path fill-rule="evenodd" clip-rule="evenodd" d="M92.2046 74.4898C91.2031 80.1158 96.1221 79.5561 97.2709 78.643C97.5907 79.5761 98.1514 80.408 98.8963 81.0546C99.6412 81.7012 100.544 82.1394 101.512 82.3249C100.128 86.2425 104.635 89.9539 107.404 87.892C107.404 87.892 108.14 92.6048 111.675 93.4885C111.162 93.9548 110.761 94.5295 110.499 95.1708C110.237 95.812 110.122 96.5036 110.162 97.195C110.201 97.8865 110.395 98.5604 110.728 99.1677C111.061 99.7749 111.525 100.3 112.087 100.705C111.666 101.135 111.373 101.673 111.241 102.259C111.109 102.846 111.142 103.458 111.338 104.026C111.534 104.595 111.884 105.098 112.349 105.479C112.814 105.86 113.376 106.104 113.972 106.184C113.977 106.997 114.294 107.776 114.856 108.363C115.128 108.538 115.433 108.655 115.752 108.708C116.071 108.761 116.398 108.749 116.712 108.671C117.026 108.594 117.321 108.454 117.579 108.259C117.837 108.065 118.053 107.819 118.214 107.539C118.325 107.022 118.268 106.482 118.051 106C117.834 105.517 117.468 105.117 117.006 104.858C117.006 104.858 116.859 103.768 117.418 103.562C117.978 103.356 119.48 102.796 119.657 101.324C122.367 100.764 122.985 98.5254 121.454 96.3457C122.11 95.8877 122.612 95.2409 122.893 94.491C123.174 93.7411 123.219 92.9236 123.024 92.1471C122.829 91.3705 122.403 90.6716 121.802 90.1431C121.2 89.6146 120.452 89.2815 119.657 89.188C120.082 88.0866 120.133 86.8762 119.803 85.7428C119.473 84.6093 118.78 83.6156 117.831 82.914C118.79 82.782 119.699 82.4031 120.469 81.8145C121.238 81.2259 121.841 80.4478 122.22 79.5561C122.481 78.7917 122.556 77.9757 122.438 77.1764C122.321 76.3771 122.013 75.6175 121.542 74.9611C122.449 73.7003 122.931 72.1832 122.917 70.6301C122.903 69.077 122.395 67.5686 121.466 66.3241C120.536 65.0796 119.235 64.1637 117.749 63.7093C116.264 63.255 114.673 63.2858 113.206 63.7975C113.206 63.7975 112.44 60.0272 109.407 59.5264C109.405 58.5174 109.05 57.5406 108.405 56.765C107.759 55.9895 106.863 55.4637 105.871 55.2786C104.879 55.0934 103.854 55.2606 102.972 55.7512C102.09 56.2417 101.407 57.0249 101.041 57.9653C97.8011 55.3143 90.4667 57.6413 91.8511 61.3822C90.4631 61.8531 89.2623 62.7561 88.4247 63.9589C87.587 65.1617 87.1563 66.601 87.1959 68.0662C87.2354 69.5315 87.743 70.9456 88.6443 72.1014C89.5456 73.2573 90.7932 74.0943 92.2046 74.4898Z" fill="#7BD0E0"/>
<path d="M128.345 119.109L108.792 126.447C106.797 127.196 105.787 129.42 106.535 131.415L124.17 178.407C124.919 180.402 127.144 181.413 129.139 180.664L148.691 173.327C150.687 172.578 151.697 170.353 150.948 168.358L133.313 121.366C132.564 119.371 130.34 118.361 128.345 119.109Z" fill="url(#paint2_linear_9_443)"/>
<path fill-rule="evenodd" clip-rule="evenodd" d="M135.416 127.008L133.236 125.506L130.025 132.34C129.91 132.592 129.7 132.788 129.441 132.887C129.182 132.986 128.895 132.98 128.641 132.87L121.66 129.748L118.331 136.67C118.222 136.912 118.022 137.103 117.775 137.201C117.528 137.3 117.253 137.3 117.006 137.2L109.701 134.254L108.552 136.405L107.551 133.754L108.258 132.487C108.368 132.237 108.571 132.04 108.823 131.935C109.075 131.831 109.358 131.828 109.613 131.927L116.859 134.873L120.217 127.951C120.332 127.706 120.537 127.515 120.789 127.417C121.041 127.318 121.321 127.32 121.572 127.421L128.7 130.543L131.999 123.503C131.979 123.446 131.979 123.384 131.999 123.326C132.159 123.097 132.404 122.94 132.68 122.89C132.956 122.84 133.241 122.902 133.472 123.061L134.149 123.533L135.475 127.038L135.416 127.008ZM137.124 131.603L136.447 131.132C136.334 131.049 136.205 130.99 136.069 130.958C135.932 130.927 135.791 130.923 135.653 130.948C135.515 130.973 135.384 131.026 135.267 131.103C135.15 131.18 135.051 131.28 134.974 131.397L131.675 138.437L124.605 135.492C124.354 135.387 124.072 135.38 123.816 135.473C123.56 135.566 123.347 135.751 123.221 135.992L119.893 142.944L112.617 139.998C112.366 139.897 112.086 139.896 111.834 139.994C111.582 140.093 111.378 140.284 111.262 140.528L110.585 141.795L111.586 144.446L112.735 142.325L120.04 145.271C120.287 145.37 120.562 145.371 120.809 145.272C121.056 145.173 121.256 144.983 121.365 144.741L124.694 137.848L131.822 140.793C132.073 140.906 132.357 140.916 132.615 140.823C132.873 140.729 133.085 140.539 133.206 140.293L136.417 133.43L138.567 134.932L137.271 131.456L137.124 131.603ZM140.07 139.674L141.366 143.15L139.215 141.648L136.005 148.511C135.884 148.757 135.672 148.947 135.414 149.041C135.155 149.134 134.871 149.124 134.62 149.012L127.492 146.066L124.164 152.959C124.048 153.203 123.843 153.394 123.591 153.493C123.34 153.591 123.06 153.59 122.809 153.489L115.533 150.543L114.384 152.664L113.383 150.042L114.06 148.746C114.176 148.502 114.381 148.311 114.633 148.212C114.885 148.114 115.165 148.115 115.415 148.216L122.691 151.162L126.019 144.21C126.14 143.964 126.352 143.774 126.61 143.681C126.869 143.587 127.153 143.598 127.404 143.71L134.502 146.802L137.802 139.763V139.615C137.881 139.497 137.984 139.396 138.103 139.319C138.222 139.241 138.356 139.189 138.496 139.164C138.637 139.139 138.78 139.143 138.919 139.175C139.058 139.207 139.189 139.267 139.304 139.35L139.981 139.821L140.07 139.674ZM143.015 147.745L142.338 147.274C142.1 147.12 141.813 147.062 141.534 147.111C141.256 147.16 141.006 147.313 140.835 147.539V147.686L137.536 154.726L130.438 151.78C130.187 151.668 129.903 151.658 129.644 151.751C129.386 151.845 129.174 152.035 129.053 152.281L125.725 159.233L118.449 156.287C118.195 156.188 117.912 156.191 117.66 156.295C117.407 156.399 117.205 156.597 117.094 156.847L116.417 158.113L117.418 160.764L118.567 158.614L125.843 161.56C126.09 161.663 126.367 161.669 126.618 161.576C126.87 161.483 127.077 161.298 127.198 161.059L130.497 153.99L137.625 157.112C137.88 157.214 138.164 157.217 138.421 157.118C138.678 157.02 138.888 156.828 139.009 156.582L142.22 149.748L144.37 151.25L143.074 147.745H143.015ZM145.961 155.816L147.257 159.321L145.077 157.819L142.279 164.652C142.157 164.906 141.942 165.103 141.679 165.202C141.415 165.301 141.123 165.294 140.865 165.183L133.766 162.06L130.438 168.982C130.322 169.227 130.117 169.418 129.865 169.516C129.614 169.615 129.334 169.614 129.083 169.513L121.807 166.567L120.658 168.717L119.657 166.066L120.334 164.8C120.45 164.555 120.653 164.361 120.904 164.258C121.154 164.155 121.434 164.148 121.689 164.24L128.935 167.186L132.293 160.264C132.415 160.017 132.625 159.825 132.882 159.727C133.138 159.628 133.423 159.631 133.678 159.733L140.776 162.856L144.075 155.786C144.241 155.562 144.485 155.41 144.759 155.361C145.033 155.312 145.315 155.369 145.548 155.521L146.255 155.992L145.961 155.816ZM148.906 163.887L148.199 163.415C147.969 163.256 147.684 163.194 147.408 163.244C147.132 163.293 146.887 163.45 146.727 163.68V163.857L143.428 170.897L136.329 167.804C136.078 167.692 135.794 167.682 135.535 167.775C135.277 167.868 135.065 168.058 134.944 168.305L131.586 175.227L124.34 172.281C124.09 172.18 123.809 172.179 123.558 172.277C123.306 172.376 123.101 172.567 122.985 172.812L122.308 174.078L123.309 176.729L124.429 174.608L131.734 177.554C131.985 177.655 132.265 177.656 132.516 177.558C132.768 177.459 132.973 177.268 133.089 177.024L136.417 170.131L143.516 173.077C143.632 173.199 143.775 173.292 143.934 173.348C144.093 173.404 144.264 173.421 144.431 173.398C144.598 173.375 144.757 173.312 144.895 173.215C145.033 173.119 145.146 172.99 145.224 172.841L148.435 166.007L150.615 167.51L148.906 163.887Z" fill="url(#paint3_linear_9_443)"/>
<g style="mix-blend-mode:multiply">
<path fill-rule="evenodd" clip-rule="evenodd" d="M135.416 127.391L133.236 125.889L130.025 132.752C129.904 132.999 129.692 133.188 129.434 133.282C129.176 133.375 128.892 133.365 128.641 133.253L121.66 130.16L118.331 137.053C118.222 137.295 118.022 137.485 117.775 137.584C117.528 137.683 117.253 137.682 117.006 137.583L109.701 134.637L108.641 136.611V136.375L109.789 134.225L117.094 137.17C117.341 137.27 117.617 137.271 117.864 137.172C118.111 137.073 118.31 136.883 118.42 136.64L121.748 129.718L128.877 132.84C129.131 132.95 129.418 132.957 129.677 132.857C129.935 132.758 130.145 132.562 130.261 132.31L133.472 125.477L135.445 126.832L135.651 127.362L135.416 127.391ZM123.633 177.082V176.847L124.753 174.726L132.058 177.672C132.309 177.773 132.589 177.774 132.84 177.675C133.092 177.577 133.297 177.386 133.413 177.141L136.741 170.249L143.84 173.194C144.073 173.319 144.344 173.351 144.601 173.286C144.857 173.22 145.079 173.062 145.224 172.841L148.435 166.007L150.408 167.362L150.615 167.892L148.435 166.39L145.224 173.135C145.103 173.382 144.891 173.572 144.633 173.665C144.375 173.759 144.091 173.748 143.84 173.636L136.741 170.543L133.442 177.436C133.326 177.68 133.122 177.871 132.87 177.97C132.618 178.069 132.338 178.067 132.087 177.966L124.782 175.021L123.722 176.994L123.633 177.082ZM120.688 169.012L121.66 166.95L128.935 169.895C129.186 169.996 129.466 169.998 129.718 169.899C129.97 169.801 130.175 169.61 130.29 169.365L133.619 162.473L140.718 165.565C140.976 165.677 141.268 165.684 141.531 165.585C141.795 165.486 142.01 165.289 142.131 165.035L145.224 158.113L147.404 159.615L147.198 159.085L145.224 157.73L142.279 164.652C142.157 164.906 141.942 165.103 141.679 165.202C141.415 165.301 141.123 165.294 140.865 165.182L133.766 162.06L130.438 168.982C130.322 169.227 130.117 169.418 129.865 169.516C129.614 169.615 129.334 169.613 129.083 169.512L121.807 166.567L120.658 168.717V168.953L120.688 169.012ZM117.742 160.911L117.536 160.352V160.705L118.685 158.555L125.96 161.5C126.208 161.604 126.485 161.609 126.736 161.517C126.988 161.424 127.195 161.239 127.315 161L130.497 153.989L137.625 157.112C137.88 157.214 138.164 157.217 138.421 157.118C138.678 157.02 138.888 156.828 139.009 156.581L142.22 149.718L144.193 151.103L144.37 151.633L142.22 150.131L139.009 156.964C138.893 157.216 138.684 157.413 138.425 157.512C138.166 157.611 137.879 157.605 137.625 157.495L130.497 154.372L127.168 161.294C127.052 161.539 126.848 161.73 126.596 161.828C126.344 161.927 126.064 161.926 125.813 161.825L118.538 158.879L117.477 160.852L117.742 160.911ZM114.797 152.841L115.857 150.867L123.133 153.813C123.38 153.916 123.657 153.922 123.909 153.829C124.16 153.736 124.367 153.551 124.488 153.312L127.551 146.331L134.679 149.453C134.934 149.556 135.219 149.558 135.475 149.46C135.732 149.361 135.942 149.17 136.064 148.923L139.274 142.089L141.424 143.592L141.248 143.061L139.274 141.677L136.064 148.54C135.943 148.787 135.731 148.977 135.472 149.07C135.214 149.163 134.93 149.153 134.679 149.041L127.551 146.095L124.223 152.988C124.107 153.232 123.902 153.424 123.65 153.522C123.399 153.621 123.118 153.619 122.868 153.518L115.592 150.573L114.443 152.693V152.369L114.65 152.929L114.797 152.841ZM111.851 144.77L112.912 142.796L120.217 145.742C120.463 145.842 120.739 145.842 120.986 145.743C121.233 145.645 121.432 145.454 121.542 145.212L124.871 138.319L131.999 141.412C132.122 141.471 132.257 141.506 132.393 141.512C132.53 141.519 132.667 141.499 132.796 141.452C132.925 141.406 133.043 141.334 133.144 141.241C133.245 141.148 133.326 141.036 133.383 140.911L136.388 133.96L138.538 135.462L138.361 134.932L136.388 133.577L133.059 140.44C132.938 140.686 132.726 140.876 132.468 140.97C132.21 141.063 131.925 141.053 131.675 140.941L124.547 137.995L121.218 144.888C121.108 145.13 120.909 145.32 120.662 145.419C120.415 145.518 120.139 145.518 119.893 145.418L112.588 142.472L111.439 144.593L111.851 144.77Z" fill="#97191D"/>
</g>
</g>
<defs>
<filter id="filter0_d_9_443" x="69" y="40" width="183.613" height="147" filterUnits="userSpaceOnUse" color-interpolation-filters="sRGB">
<feFlood flood-opacity="0" result="BackgroundImageFix"/>
<feColorMatrix in="SourceAlpha" type="matrix" values="0 0 0 0 0 0 0 0 0 0 0 0 0 0 0 0 0 0 127 0" result="hardAlpha"/>
<feOffset dy="2"/>
<feGaussianBlur stdDeviation="2"/>
<feComposite in2="hardAlpha" operator="out"/>
<feColorMatrix type="matrix" values="0 0 0 0 0 0 0 0 0 0 0 0 0 0 0 0 0 0 0.25 0"/>
<feBlend mode="normal" in2="BackgroundImageFix" result="effect1_dropShadow_9_443"/>
<feBlend mode="normal" in="SourceGraphic" in2="effect1_dropShadow_9_443" result="shape"/>
</filter>
<linearGradient id="paint0_linear_9_443" x1="163.549" y1="149.951" x2="211.09" y2="149.951" gradientUnits="userSpaceOnUse">
<stop stop-color="#008141"/>
<stop offset="0.25" stop-color="#85C441"/>
<stop offset="0.51" stop-color="#007B3F"/>
<stop offset="1" stop-color="#85C441"/>
</linearGradient>
<linearGradient id="paint1_linear_9_443" x1="190.262" y1="153.342" x2="183.871" y2="150.072" gradientUnits="userSpaceOnUse">
<stop stop-color="#999736"/>
<stop offset="0.23" stop-color="#E4EEBF"/>
<stop offset="0.51" stop-color="#E6EDAC"/>
<stop offset="0.89" stop-color="#9B832F"/>
<stop offset="1" stop-color="#9B832F"/>
</linearGradient>
<linearGradient id="paint2_linear_9_443" x1="137.11" y1="148.218" x2="122.471" y2="151.223" gradientUnits="userSpaceOnUse">
<stop stop-color="#94191C"/>
<stop offset="0.47" stop-color="#610D0A"/>
<stop offset="1" stop-color="#D11F26"/>
</linearGradient>
<linearGradient id="paint3_linear_9_443" x1="132.882" y1="150.19" x2="124.016" y2="152.075" gradientUnits="userSpaceOnUse">
<stop stop-color="#A55925"/>
<stop offset="0.01" stop-color="#A55925"/>
<stop offset="0.21" stop-color="#F9F188"/>
<stop offset="0.32" stop-color="white"/>
<stop offset="0.62" stop-color="#FDE900"/>
<stop offset="0.96" stop-color="#A56326"/>
<stop offset="1" stop-color="#A56326"/>
</linearGradient>
<clipPath id="clip0_9_443">
<rect width="175.613" height="139" fill="white" transform="translate(73 42)"/>
</clipPath>
</defs>
</svg>
