<svg width="24" height="24" viewBox="0 0 24 24" fill="none" xmlns="http://www.w3.org/2000/svg">
<path d="M20.6677 21.509C20.5339 20.15 20.1342 18.9341 19.4451 17.8159C18.199 15.791 16.3536 14.5091 14.1346 13.7074C13.5949 13.5125 13.2621 13.1728 13.2156 12.6076C13.1691 12.0521 13.4406 11.6715 13.9326 11.4026C15.7129 10.4293 16.7043 8.4135 16.3635 6.49366C16.0041 4.46873 14.4364 2.88251 12.4596 2.54401C10.1458 2.14745 7.8425 3.43793 7.06296 5.56735C6.24191 7.80798 7.13051 10.2111 9.23179 11.3947C9.72753 11.6745 10.007 12.0601 9.9568 12.6277C9.91033 13.1526 9.60359 13.4942 9.11715 13.6995C7.53142 14.3712 6.1094 15.3691 4.94618 16.6263C3.35488 18.3249 2.53692 20.3321 2.51028 22.6461C2.5047 23.1013 2.37023 23.4887 1.98294 23.7563C1.57892 24.0355 1.13896 24.082 0.697755 23.8583C0.238583 23.6255 -0.0018483 23.2412 1.06989e-05 22.7249C0.00868602 20.0604 0.85412 17.6846 2.53631 15.5973C3.56681 14.3172 4.82535 13.2962 6.21526 12.42L6.34415 12.3381C3.23962 9.18828 3.78431 4.39785 6.66452 1.85783C8.01998 0.659272 9.77718 -0.00247485 11.5978 6.95552e-06C13.4184 0.00248876 15.1738 0.669022 16.5259 1.87127C19.3522 4.38563 19.9285 9.02024 16.9485 12.219C17.3947 12.5067 17.8513 12.7787 18.2833 13.0836C20.9615 14.9722 22.5813 17.519 23.1036 20.7262C23.2046 21.3452 23.2307 21.9795 23.248 22.6076C23.2722 23.4795 22.7399 23.9928 21.8575 23.9928H8.90647C8.71066 23.9928 8.51484 23.9971 8.31902 23.9928C7.59711 23.9745 7.05491 23.4465 7.05119 22.7616C7.04747 22.0766 7.58348 21.5395 8.3023 21.5108C8.50803 21.5029 8.71437 21.5108 8.92196 21.5108H20.6677V21.509Z" fill="currentColor"/>
</svg>
