<svg xmlns="http://www.w3.org/2000/svg" width="26" height="24" viewBox="0 0 26 24" fill="none">
    <path d="M23.1135 21.509C22.9638 20.15 22.5168 18.9341 21.7462 17.8159C20.3526 15.791 18.2888 14.5091 15.8072 13.7074C15.2036 13.5125 14.8315 13.1728 14.7795 12.6076C14.7275 12.0521 15.0311 11.6715 15.5813 11.4026C17.5723 10.4293 18.6811 8.4135 18.2999 6.49366C17.898 4.46872 16.1447 2.88251 13.9341 2.54401C11.3464 2.14745 8.77056 3.43793 7.89877 5.56735C6.98056 7.80798 7.97431 10.2111 10.3243 11.3947C10.8787 11.6745 11.1912 12.0601 11.1351 12.6277C11.0831 13.1526 10.7401 13.4942 10.1961 13.6995C8.42266 14.3712 6.83237 15.3691 5.5315 16.6263C3.75189 18.3249 2.83714 20.3321 2.80734 22.6461C2.8011 23.1013 2.65072 23.4887 2.2176 23.7563C1.76576 24.0355 1.27374 24.082 0.780325 23.8583C0.266816 23.6255 -0.00206702 23.2412 1.19649e-05 22.7249C0.0097139 20.0604 0.955194 17.6846 2.83645 15.5973C3.9889 14.3172 5.39637 13.2962 6.95076 12.42L7.0949 12.3381C3.62299 9.18828 4.23214 4.39785 7.45318 1.85783C8.96904 0.659272 10.9342 -0.00247484 12.9703 6.95552e-06C15.0063 0.00248876 16.9694 0.669022 18.4815 1.87127C21.6423 4.38563 22.2867 9.02024 18.9541 12.2189C19.4531 12.5067 19.9638 12.7787 20.4468 13.0836C23.442 14.9722 25.2535 17.519 25.8377 20.7262C25.9506 21.3452 25.9797 21.9794 25.9991 22.6076C26.0261 23.4795 25.4309 23.9928 24.444 23.9928H9.96044C9.74145 23.9928 9.52246 23.9971 9.30347 23.9928C8.49613 23.9745 7.88977 23.4465 7.88561 22.7616C7.88145 22.0766 8.48089 21.5395 9.28476 21.5108C9.51484 21.5029 9.74561 21.5108 9.97776 21.5108H23.1135V21.509Z" fill="currentColor"/>
</svg>
