<svg width="36" height="36" viewBox="0 -2 30 38" fill="none" xmlns="http://www.w3.org/2000/svg">
<path fill-rule="evenodd" clip-rule="evenodd" d="M15 4.25C10.7198 4.25 7.25 7.71979 7.25 12C7.25 16.2802 10.7198 19.75 15 19.75C19.2802 19.75 22.75 16.2802 22.75 12C22.75 7.71979 19.2802 4.25 15 4.25ZM5.25 12C5.25 6.61522 9.61522 2.25 15 2.25C20.3848 2.25 24.75 6.61522 24.75 12C24.75 17.3848 20.3848 21.75 15 21.75C9.61522 21.75 5.25 17.3848 5.25 12Z" fill="currentColor"/>
<path fill-rule="evenodd" clip-rule="evenodd" d="M19.606 18.3584C20.1535 18.2858 20.6562 18.6707 20.7288 19.2182L22.2413 30.6182C22.2918 30.9988 22.1199 31.3748 21.799 31.5856C21.4781 31.7964 21.0648 31.8048 20.7355 31.6072L15 28.1659L9.26452 31.6072C8.93525 31.8048 8.52193 31.7963 8.20099 31.5855C7.88004 31.3747 7.70817 30.9987 7.75873 30.6181L9.27123 19.2306C9.34395 18.6831 9.84671 18.2982 10.3942 18.3709C10.9417 18.4436 11.3265 18.9464 11.2538 19.4939L10.0145 28.8249L14.4855 26.1422C14.8022 25.9522 15.1978 25.9522 15.5145 26.1422L19.9859 28.8251L18.7462 19.4812C18.6736 18.9338 19.0585 18.431 19.606 18.3584Z" fill="currentColor"/>
</svg>
