<svg xmlns="http://www.w3.org/2000/svg" width="40" height="40" viewBox="0 0 40 40" fill="none">
        <path d="M34.7347 40H5.268C5.20928 39.9848 5.14983 39.9725 5.08987 39.9632C4.42804 39.8922 3.79031 39.7239 3.20243 39.413C1.11888 38.3101 0.0158267 36.574 0.00888153 34.2142C-0.00827709 26.1213 -0.0104561 18.0286 0.00234476 9.93597C0.00234476 8.49402 -0.000923403 7.05248 0.00520467 5.61053C0.00944153 4.94948 0.135612 4.29489 0.377383 3.67962C1.25206 1.42561 3.34501 0.00326388 5.79624 0.00326388C13.4335 0.00326388 21.0707 0.00326388 28.7079 0.00326388C30.6056 0.00326388 32.5032 -0.00899084 34.4005 0.00816549C36.866 0.0302236 39.0815 1.72666 39.7576 4.09709C39.8663 4.47943 39.921 4.8773 39.9987 5.26822V34.7342C39.9864 34.7926 39.9705 34.8506 39.9619 34.9099C39.6159 37.3048 38.3024 38.9155 36.0224 39.7186C35.6118 39.8644 35.1653 39.9089 34.7347 40ZM19.9909 25.4318H30.4997C30.9218 25.4318 31.3434 25.4396 31.7662 25.4285C32.027 25.4212 32.2827 25.3542 32.5136 25.2327C32.7445 25.1113 32.9445 24.9385 33.0983 24.7278C33.2522 24.5171 33.3557 24.2739 33.4009 24.017C33.4462 23.7601 33.432 23.4962 33.3595 23.2456C33.1364 22.4748 32.4799 22.0038 31.6236 22.0038H8.38024C8.31896 22.0038 8.25768 22.0038 8.19681 22.0067C7.17873 22.0537 6.41885 23.0091 6.60351 24.0111C6.76121 24.8689 7.45245 25.4314 8.36022 25.4314C12.2367 25.4317 16.1136 25.4318 19.9909 25.4318ZM20.022 29.4313H11.6351C10.5124 29.4313 9.38811 29.4227 8.2679 29.4341C7.99987 29.4365 7.73615 29.5018 7.49804 29.6249C7.25994 29.748 7.05414 29.9254 6.89725 30.1427C6.74037 30.36 6.63681 30.6111 6.59493 30.8758C6.55306 31.1406 6.57405 31.4114 6.65621 31.6665C6.89112 32.4059 7.54846 32.8593 8.39005 32.8593H31.6122C31.68 32.8593 31.7482 32.8593 31.8165 32.856C32.2416 32.8294 32.6418 32.646 32.9394 32.3412C33.237 32.0365 33.4109 31.6322 33.4273 31.2066C33.4555 30.205 32.6871 29.4325 31.6539 29.4321C27.7749 29.4294 23.8976 29.4286 20.022 29.4297V29.4313ZM14.0222 7.14643H12.227C10.9148 7.14643 9.60259 7.14112 8.29036 7.14643C8.0601 7.14529 7.83197 7.1907 7.6197 7.27994C7.40743 7.36918 7.21539 7.5004 7.05512 7.66572C6.89485 7.83105 6.76966 8.02706 6.68707 8.24198C6.60447 8.4569 6.56619 8.6863 6.5745 8.91639C6.5982 9.85304 7.36176 10.5716 8.34429 10.572C12.1301 10.5742 15.9174 10.5742 19.7062 10.572C19.754 10.572 19.8013 10.572 19.8491 10.5691C20.2812 10.5454 20.6883 10.3594 20.989 10.0483C21.2897 9.7372 21.4617 9.324 21.4706 8.89147C21.4825 7.91111 20.7283 7.14765 19.7331 7.1452C17.8301 7.14316 15.9259 7.14643 14.0222 7.14643ZM14.0017 18.0023C15.8994 18.0023 17.7975 18.006 19.6951 18.0023C20.6871 17.9999 21.4465 17.2237 21.4286 16.2487C21.411 15.3002 20.647 14.5768 19.6543 14.5763C16.015 14.5747 12.3759 14.5747 8.7369 14.5763C8.56 14.5763 8.3831 14.5723 8.2058 14.5792C7.3254 14.6135 6.5982 15.3504 6.5745 16.2287C6.54795 17.2143 7.30987 17.9999 8.30793 18.0027C10.2064 18.006 12.1041 18.0023 14.0017 18.0023ZM28.2904 14.1789C28.2328 14.1103 28.1886 14.049 28.1359 13.9963C27.3733 13.2311 26.6084 12.4668 25.8412 11.7035C25.4408 11.3044 24.9677 11.1598 24.4235 11.3358C23.4557 11.6524 23.1885 12.8472 23.9223 13.5825C25.0251 14.6917 26.1318 15.7969 27.2425 16.8982C27.937 17.5926 28.6891 17.5926 29.3812 16.8982C31.1755 15.1049 32.9691 13.3113 34.762 11.5172C34.826 11.4562 34.8866 11.3917 34.9434 11.324C35.2388 10.9527 35.3328 10.5364 35.1971 10.0793C35.1326 9.85618 35.0109 9.6537 34.8441 9.49194C34.6773 9.33018 34.4712 9.21472 34.2462 9.15697C34.0211 9.09921 33.7849 9.10117 33.5608 9.16264C33.3368 9.22411 33.1326 9.34297 32.9685 9.50747C32.1703 10.286 31.3904 11.0838 30.6015 11.8718C29.8416 12.634 29.0805 13.3917 28.2904 14.1789Z" fill="currentColor"/>
</svg>