<svg width="57" height="35" viewBox="0 0 57 35" fill="none" xmlns="http://www.w3.org/2000/svg">

<path d="M53.5761 34.9989H3.40184C3.30251 34.9551 3.20148 34.9147 3.103 34.8667C2.62248 34.6377 2.08424 34.4786 1.67164 34.1629C0.543351 33.3034 -0.00253805 32.1493 8.87041e-06 30.7114C0.0135924 21.8722 8.04203e-06 13.0388 0.0203834 4.20214C0.0305684 3.67561 0.128976 3.15442 0.31158 2.6599C0.890579 1.02675 2.40175 -0.000287133 4.14129 -0.000287133C20.3516 -0.000287133 36.5619 -0.000287133 52.7721 -0.000287133C53.0959 -0.0061581 53.4193 0.0254842 53.7357 0.0939976C55.1144 0.418945 56.1052 1.21364 56.6766 2.51595C56.9924 3.23403 56.9881 3.98831 56.9881 4.74512C56.9881 9.42907 56.9881 14.1133 56.9881 18.7978C56.9881 22.7805 56.9745 26.7632 57 30.7468C57.0127 32.816 55.6501 34.4997 53.7739 34.8718C53.7012 34.9027 53.6343 34.9457 53.5761 34.9989ZM28.5756 15.6839H4.63455C4.33486 15.6839 4.053 15.6275 4.0547 16.1048C4.06998 20.5659 4.07366 25.0277 4.06573 29.4899C4.06573 30.0523 4.30345 30.5001 4.77972 30.7384C5.09978 30.9008 5.50474 30.9598 5.87235 30.9606C13.5974 30.9718 21.3231 30.9738 29.0493 30.9665C36.4636 30.9665 43.8766 30.9665 51.2881 30.9665C52.3824 30.9665 52.9334 30.4387 52.9343 29.3519C52.9343 27.2473 52.9343 25.1427 52.9343 23.0381C52.9394 20.7528 52.9504 18.4675 52.9674 16.1822C52.9674 15.8169 52.8825 15.6771 52.4716 15.6771C44.5043 15.6884 36.5389 15.6906 28.5756 15.6839ZM52.9326 8.42982C52.947 8.21768 52.9665 8.05268 52.9665 7.88768C52.9665 7.18643 52.9589 6.48519 52.9665 5.7831C52.9818 4.56834 52.424 4.00178 51.1964 4.00178H20.5952C15.6152 4.00178 10.6351 4.01862 5.65331 3.98579C4.79245 3.97989 3.97405 4.75606 4.04706 5.55833C4.11667 6.32355 4.06149 7.09972 4.06319 7.87168C4.06319 8.4214 4.06319 8.42224 4.60908 8.42224L52.3986 8.42729L52.9326 8.42982Z" fill="currentColor"/>
<path d="M10.0725 24.0545C10.8493 24.0545 11.6261 24.0637 12.4029 24.0545C12.7476 24.0486 12.8962 24.1984 12.8962 24.5259C12.8962 25.604 12.8962 26.6827 12.8962 27.7619C12.8962 28.1138 12.7332 28.2544 12.3732 28.2519C10.8451 28.2417 9.31944 28.2417 7.79639 28.2519C7.40162 28.2519 7.22164 28.0751 7.22079 27.7005C7.22079 26.6633 7.22079 25.627 7.21484 24.5907C7.21484 24.1959 7.38973 24.0427 7.78366 24.0511C8.54688 24.0654 9.31011 24.0545 10.0725 24.0545Z" fill="currentColor"/>
<path d="M17.6216 28.2413C16.8575 28.2413 16.0934 28.2304 15.3294 28.2464C14.977 28.254 14.8429 28.1016 14.8438 27.7733C14.8438 26.6795 14.8438 25.5851 14.8438 24.4901C14.8438 24.1686 14.9949 24.0423 15.3132 24.044C16.8821 24.0501 18.451 24.0501 20.0199 24.044C20.3672 24.044 20.5089 24.2123 20.5098 24.5272C20.5132 25.5935 20.5132 26.6598 20.5098 27.7261C20.5098 28.0974 20.3137 28.2506 19.9495 28.2472C19.1718 28.2397 18.395 28.2472 17.6173 28.2472L17.6216 28.2413Z" fill="currentColor"/>

</svg>
