<svg xmlns="http://www.w3.org/2000/svg" width="27" height="25" viewBox="0 0 27 25" fill="none">
    <path d="M26 4.8995C25.9235 5.27353 25.8574 5.65004 25.7698 6.02161C25.1709 8.54443 24.5689 11.0665 23.964 13.5879C23.7417 14.5073 23.4836 15.4177 23.2547 16.3356C23.0909 16.9937 22.7767 17.2772 22.0414 17.3011C21.3703 17.3228 20.6977 17.2984 20.0258 17.2956C18.3194 17.2885 16.6128 17.2815 14.9062 17.2748C12.9037 17.2649 10.9011 17.2539 8.89826 17.2419C8.4423 17.2397 7.98713 17.2583 7.54551 17.3913C7.00617 17.5539 6.62112 17.8849 6.49684 18.472C6.41186 18.8735 6.54995 19.2179 6.80382 19.5179C6.99714 19.7458 7.24092 19.8985 7.51205 20.0096C7.58163 20.037 7.62837 20.0299 7.66608 19.9613C7.72238 19.8582 7.7808 19.7562 7.83949 19.6544C8.38095 18.7144 9.18612 18.2384 10.2404 18.2559C11.0758 18.2691 11.7835 18.6102 12.3383 19.2656C12.5339 19.4963 12.6819 19.7659 12.773 20.0578C12.7942 20.1256 12.8176 20.1609 12.8988 20.1607C14.2029 20.1568 15.5071 20.1561 16.8115 20.1585C16.8787 20.1585 16.9109 20.1398 16.9345 20.0699C17.3881 18.7364 18.6396 18.1805 19.7648 18.2875C20.579 18.3642 21.2654 18.6988 21.7469 19.3997C21.9033 19.6268 22.0071 19.8933 22.1431 20.156C22.3704 20.156 22.6272 20.1423 22.8821 20.1601C23.114 20.1766 23.3508 20.2012 23.5726 20.2698C23.9736 20.3916 24.152 20.6863 24.1472 21.144C24.1427 21.5781 23.956 21.8844 23.5606 21.9807C23.251 22.0566 22.9233 22.0591 22.6046 22.0862C22.4765 22.0938 22.3481 22.0932 22.2201 22.0843C22.1487 22.081 22.1078 22.1021 22.0823 22.1759C21.3831 24.1991 18.8969 24.4591 17.6002 23.2349C17.2989 22.9566 17.0743 22.6007 16.9494 22.2036C16.9202 22.1106 16.8819 22.0769 16.7839 22.0775C15.5018 22.0829 14.2197 22.0846 12.9376 22.0824C12.8274 22.0824 12.7985 22.1356 12.7653 22.2225C12.1155 23.9153 10.0075 24.5485 8.60561 23.473C8.1871 23.1521 7.89419 22.7263 7.67617 22.2453C7.60075 22.0788 7.49878 21.99 7.3267 21.9362C6.99396 21.832 6.6575 21.7234 6.34414 21.5674C5.31458 21.0516 4.75081 20.1823 4.67353 19.0114C4.59094 17.7689 5.05859 16.7708 6.04725 16.046C6.34892 15.825 6.68724 15.6802 7.04521 15.5845C7.07469 15.5768 7.10336 15.5669 7.14373 15.5546C7.13151 15.5036 7.12275 15.4559 7.10868 15.4101C5.757 10.9677 4.40585 6.52471 3.05524 2.08107C3.02523 1.98262 2.9838 1.94094 2.88157 1.94396C2.3956 1.95602 1.90883 1.97823 1.4234 1.9637C1.15012 1.95682 0.878925 1.91256 0.616908 1.83207C0.18485 1.69496 -0.040871 1.31106 0.00772559 0.877241C0.05765 0.432731 0.361446 0.109426 0.79855 0.0512909C0.98719 0.0272561 1.17703 0.0147119 1.3671 0.0137229C2.05648 0.00622757 2.74595 0.00284524 3.43551 0.0035765C3.57251 0.0042082 3.70934 0.0133655 3.84527 0.0309985C4.15119 0.0699377 4.38036 0.237212 4.49296 0.529805C4.66212 0.968556 4.81693 1.41581 4.95874 1.8658C5.16481 2.51982 5.35362 3.17959 5.5565 3.85993H5.70097C8.02635 3.85847 10.3519 3.85701 12.6776 3.85554C16.1086 3.85554 19.5395 3.85609 22.9703 3.85719C23.3686 3.85719 23.7654 3.82593 24.1632 3.82483C24.4589 3.81945 24.7547 3.83291 25.0488 3.86514C25.5061 3.92218 25.88 4.11413 26.0014 4.62912L26 4.8995ZM6.14524 5.77508C6.15878 5.82581 6.16702 5.86091 6.17737 5.89519C6.34573 6.44665 6.51728 6.99728 6.68034 7.55066C6.71114 7.65513 6.75177 7.69161 6.86118 7.69133C8.23543 7.68722 9.60968 7.68941 10.9837 7.69133H11.1223V5.77508H6.14524ZM13.0186 15.3574H17.6488V13.4546H13.0186V15.3574ZM13.012 5.78139V7.68667H17.6438V5.78002L13.012 5.78139ZM13.012 9.61334V11.5137H17.639V9.61334H13.012ZM19.5091 5.77673V7.68831H23.3925C23.5556 7.05021 23.717 6.4184 23.8809 5.77673H19.5091ZM7.29563 9.61389C7.302 9.64899 7.3036 9.66681 7.30864 9.68354C7.48869 10.2646 7.67139 10.8446 7.84719 11.427C7.87374 11.5123 7.91464 11.526 7.98979 11.526C8.99677 11.5244 10.0038 11.5244 11.011 11.526C11.0455 11.526 11.0801 11.5222 11.126 11.5194V9.61389H7.29563ZM19.5136 11.5137C19.528 11.5185 19.5429 11.522 19.5579 11.5244C20.5123 11.5189 21.4665 11.5137 22.4206 11.5087C22.4952 11.5087 22.5151 11.4739 22.5308 11.4067C22.6668 10.8309 22.8067 10.2575 22.9445 9.68299C22.9469 9.66103 22.9469 9.63886 22.9445 9.6169H19.5136V11.5137ZM8.45584 13.4497C8.50444 13.6474 8.54188 13.8391 8.59897 14.0242C8.71927 14.4141 8.84753 14.8016 8.97739 15.1882C9.02014 15.3149 9.10114 15.3706 9.24799 15.3676C9.83221 15.3547 10.4146 15.3607 10.9977 15.3591C11.04 15.3591 11.0822 15.3541 11.1334 15.3508V13.4497H8.45584ZM19.508 15.3692C19.5515 15.3717 19.5863 15.3755 19.6208 15.375C20.2083 15.3695 20.7954 15.3591 21.3828 15.3604C21.5052 15.3604 21.5764 15.322 21.6061 15.2039C21.7517 14.6239 21.8961 14.0436 22.044 13.4505H19.508V15.3692ZM18.4829 21.1136C18.4909 21.747 18.9118 22.1795 19.5096 22.1679C20.1145 22.1567 20.5402 21.721 20.533 21.1204C20.5259 20.4897 20.1058 20.0652 19.5 20.0743C18.907 20.0817 18.4752 20.5229 18.4829 21.1125V21.1136ZM10.2189 20.074C9.628 20.074 9.1731 20.5248 9.17284 21.1103C9.17284 21.7177 9.61021 22.1721 10.192 22.1682C10.7959 22.1641 11.2216 21.7396 11.2216 21.1415C11.2216 20.5111 10.81 20.074 10.2189 20.074Z" fill="currentColor"/>
</svg>
