<svg width="27" height="25" viewBox="0 0 27 25" fill="none" xmlns="http://www.w3.org/2000/svg">
<path d="M26.77 4.89993C26.6912 5.27396 26.6231 5.65047 26.5329 6.02203C25.9163 8.54486 25.2965 11.0669 24.6737 13.5883C24.4449 14.5078 24.1791 15.4182 23.9434 16.336C23.7747 16.9941 23.4513 17.2777 22.6942 17.3015C22.0033 17.3232 21.3107 17.2988 20.619 17.296C18.8621 17.2889 17.105 17.282 15.3479 17.2752C13.2862 17.2653 11.2243 17.2544 9.16221 17.2423C8.69277 17.2401 8.22414 17.2587 7.76945 17.3917C7.21415 17.5543 6.8177 17.8853 6.68975 18.4724C6.60226 18.8739 6.74443 19.2183 7.00581 19.5183C7.20486 19.7462 7.45585 19.8989 7.735 20.01C7.80664 20.0374 7.85476 20.0303 7.89358 19.9617C7.95155 19.8586 8.0117 19.7566 8.07212 19.6549C8.62961 18.7148 9.45859 18.2388 10.544 18.2564C11.4042 18.2695 12.1328 18.6106 12.704 19.266C12.9054 19.4968 13.0578 19.7664 13.1516 20.0583C13.1734 20.126 13.1975 20.1614 13.2812 20.1611C14.6238 20.1572 15.9666 20.1565 17.3096 20.1589C17.3788 20.1589 17.4119 20.1402 17.4362 20.0703C17.9032 18.7368 19.1918 18.1809 20.3502 18.2879C21.1885 18.3647 21.8953 18.6992 22.391 19.4001C22.552 19.6272 22.6589 19.8937 22.7989 20.1564C23.033 20.1564 23.2973 20.1427 23.5598 20.1605C23.7985 20.177 24.0424 20.2017 24.2707 20.2702C24.6835 20.392 24.8673 20.6868 24.8624 21.1444C24.8577 21.5785 24.6655 21.8848 24.2584 21.9811C23.9396 22.057 23.6022 22.0595 23.2741 22.0867C23.1422 22.0942 23.01 22.0936 22.8782 22.0847C22.8047 22.0814 22.7626 22.1026 22.7363 22.1763C22.0164 24.1995 19.4567 24.4595 18.1217 23.2354C17.8114 22.957 17.5801 22.6011 17.4515 22.204C17.4214 22.1111 17.3821 22.0773 17.2812 22.0779C15.9612 22.0834 14.6411 22.085 13.3211 22.0828C13.2076 22.0828 13.1778 22.136 13.1436 22.2229C12.4746 23.9157 10.3043 24.5489 8.86091 23.4734C8.43002 23.1525 8.12844 22.7267 7.90397 22.2457C7.82632 22.0793 7.72133 21.9904 7.54416 21.9367C7.20158 21.8325 6.85516 21.7239 6.53254 21.5678C5.47252 21.052 4.89206 20.1827 4.8125 19.0118C4.72747 17.7693 5.20895 16.7712 6.22686 16.0464C6.53746 15.8254 6.88579 15.6806 7.25434 15.5849C7.28469 15.5772 7.31422 15.5674 7.35578 15.555C7.3432 15.504 7.33418 15.4563 7.31969 15.4105C5.92802 10.9681 4.5369 6.52514 3.14633 2.08149C3.11543 1.98305 3.07278 1.94137 2.96752 1.94438C2.46717 1.95645 1.96601 1.97866 1.46621 1.96413C1.18484 1.95725 0.905625 1.91298 0.635856 1.8325C0.191015 1.69539 -0.0413839 1.31148 0.00865047 0.877668C0.0600519 0.433158 0.372836 0.109853 0.822872 0.0517182C1.01709 0.0276834 1.21255 0.0151391 1.40825 0.0141502C2.11802 0.00665482 2.82789 0.00327249 3.53785 0.00400374C3.6789 0.00463544 3.81978 0.0137927 3.95973 0.0314257C4.2747 0.070365 4.51065 0.237639 4.62658 0.530232C4.80074 0.968984 4.96014 1.41624 5.10614 1.86623C5.31831 2.52025 5.51271 3.18002 5.72159 3.86036H5.87033C8.26451 3.8589 10.6589 3.85743 13.0534 3.85597C16.5859 3.85597 20.1183 3.85652 23.6506 3.85762C24.0607 3.85762 24.4692 3.82635 24.8788 3.82526C25.1832 3.81987 25.4878 3.83334 25.7906 3.86557C26.2614 3.92261 26.6464 4.11456 26.7713 4.62955L26.77 4.89993ZM6.32775 5.77551C6.34169 5.82624 6.35017 5.86134 6.36083 5.89562C6.53417 6.44707 6.7108 6.99771 6.87868 7.55108C6.91039 7.65556 6.95222 7.69203 7.06487 7.69176C8.47978 7.68765 9.89468 7.68984 11.3093 7.69176H11.452V5.77551H6.32775ZM13.4045 15.3579H18.1717V13.455H13.4045V15.3579ZM13.3976 5.78182V7.6871H18.1665V5.78045L13.3976 5.78182ZM13.3976 9.61377V11.5141H18.1616V9.61377H13.3976ZM20.0869 5.77715V7.68874H24.0853C24.2532 7.05063 24.4194 6.41883 24.5881 5.77715H20.0869ZM7.51217 9.61431C7.51873 9.64941 7.52038 9.66724 7.52557 9.68397C7.71094 10.265 7.89905 10.845 8.08005 11.4275C8.10739 11.5127 8.14949 11.5264 8.22687 11.5264C9.26365 11.5248 10.3005 11.5248 11.3375 11.5264C11.373 11.5264 11.4086 11.5226 11.4559 11.5199V9.61431H7.51217ZM20.0916 11.5141C20.1065 11.5189 20.1218 11.5225 20.1372 11.5248C21.1199 11.5193 22.1024 11.5141 23.0846 11.5092C23.1615 11.5092 23.182 11.4743 23.1981 11.4072C23.3381 10.8313 23.4822 10.2579 23.6241 9.68342C23.6265 9.66146 23.6265 9.63929 23.6241 9.61733H20.0916V11.5141ZM8.70671 13.4501C8.75674 13.6478 8.79529 13.8395 8.85408 14.0246C8.97793 14.4145 9.10999 14.802 9.24369 15.1887C9.28771 15.3153 9.3711 15.371 9.5223 15.368C10.1238 15.3551 10.7234 15.3611 11.3238 15.3595C11.3673 15.3595 11.4108 15.3546 11.4635 15.3513V13.4501H8.70671ZM20.0858 15.3696C20.1307 15.3721 20.1665 15.3759 20.202 15.3754C20.8068 15.3699 21.4113 15.3595 22.0161 15.3609C22.1422 15.3609 22.2155 15.3225 22.2461 15.2043C22.3959 14.6243 22.5446 14.0441 22.6969 13.4509H20.0858V15.3696ZM19.0305 21.114C19.0387 21.7474 19.472 22.1799 20.0875 22.1684C20.7103 22.1571 21.1486 21.7214 21.1412 21.1209C21.1338 20.4901 20.7013 20.0657 20.0776 20.0747C19.4671 20.0821 19.0225 20.5233 19.0305 21.1129V21.114ZM10.5219 20.0744C9.91355 20.0744 9.4452 20.5252 9.44492 21.1107C9.44492 21.7181 9.89523 22.1725 10.4943 22.1686C11.116 22.1645 11.5543 21.74 11.5543 21.142C11.5543 20.5115 11.1305 20.0744 10.5219 20.0744Z" fill="currentColor"/>
</svg>
