<svg width="50" height="47" viewBox="0 0 48 47" fill="none" xmlns="http://www.w3.org/2000/svg">
<path d="M0 8.4339C2.73073 8.45048 5.48247 8.47121 8.22581 8.4795C8.31101 8.46928 8.39712 8.48932 8.46871 8.53604C8.5403 8.58277 8.5927 8.65313 8.61652 8.73451C12.0376 16.4635 15.4609 24.1925 18.8862 31.9214C18.9097 32.0033 18.9624 32.074 19.0346 32.1205C19.1068 32.167 19.1936 32.1861 19.279 32.1744C26.778 32.1855 34.277 32.1993 41.776 32.2159H42.0386V35.1453H41.7508C33.6146 35.1453 25.4791 35.1453 17.3444 35.1453C17.2469 35.1557 17.1489 35.1322 17.0672 35.0788C16.9855 35.0255 16.9253 34.9456 16.8969 34.853C13.487 27.1447 10.075 19.4379 6.6609 11.7324C6.63342 11.6394 6.57385 11.5589 6.49251 11.5047C6.41117 11.4506 6.3132 11.4262 6.21558 11.4359C4.21584 11.4359 2.2245 11.4152 0.216364 11.4048C0.146009 11.4079 0.0758808 11.4148 0.00630785 11.4255L0 8.4339Z" fill="currentColor"/>
<path d="M22.1333 47C21.5552 46.9067 20.9932 46.7344 20.4634 46.4879C19.6776 46.0855 19.029 45.4639 18.5984 44.7005C18.1677 43.937 17.9741 43.0655 18.0414 42.1943C18.1905 39.9718 20.2155 38.4168 21.7636 38.1784C24.2591 37.7928 26.7671 39.4825 26.9835 42.1569C27.0876 43.3005 26.7391 44.4394 26.0111 45.3349C25.2832 46.2305 24.2322 46.8131 23.0786 46.9606C23.0397 46.9706 23.0018 46.9838 22.9651 47H22.1333Z" fill="currentColor"/>
<path d="M37.3123 47C36.9431 46.9458 36.5771 46.8724 36.2158 46.7803C34.153 46.1583 32.9305 44.309 33.0796 42.1818C33.1744 41.0598 33.6978 40.0152 34.5438 39.2599C35.3898 38.5046 36.4951 38.095 37.6358 38.1142C38.7425 38.1544 39.7965 38.5909 40.6009 39.3421C41.4054 40.0933 41.9052 41.1079 42.007 42.1964C42.0908 43.2913 41.7616 44.3781 41.0827 45.248C40.4037 46.1179 39.423 46.7094 38.3289 46.9088C38.1378 46.942 37.9445 46.971 37.7534 47H37.3123Z" fill="currentColor"/>
<path d="M27.0697 10.3288C27.0172 4.53624 32.0544 0.0456211 37.3058 1.01599e-05C43.3974 -0.0518205 48.0733 4.85551 47.9998 10.476C47.9523 13.2029 46.8179 15.8015 44.8425 17.7085C42.867 19.6155 40.2098 20.6773 37.4465 20.6638C31.7372 20.6514 27.0571 15.9908 27.0697 10.3288ZM33.0858 16.9507C33.2433 16.8657 33.3609 16.8097 33.4723 16.7434C34.7515 16.0032 36.035 15.2672 37.31 14.523C37.3736 14.4767 37.4505 14.4517 37.5295 14.4517C37.6085 14.4517 37.6854 14.4767 37.749 14.523C39.0535 15.2838 40.3642 16.0343 41.675 16.789C41.7548 16.8346 41.8388 16.8719 41.9543 16.93C41.9417 16.8491 41.9375 16.8201 41.9312 16.789C41.5972 15.3377 41.2717 13.872 40.923 12.4166C40.8891 12.3162 40.8893 12.2078 40.9234 12.1075C40.9575 12.0073 41.0237 11.9207 41.112 11.8609C42.1875 10.9487 43.2546 10.0241 44.3238 9.10147C44.4372 9.0061 44.5338 8.89414 44.6809 8.78219C44.612 8.7616 44.5419 8.74567 44.4708 8.73451C42.9437 8.60182 41.4166 8.46498 39.8895 8.34266C39.795 8.34984 39.7008 8.32528 39.6223 8.27297C39.5437 8.22065 39.4854 8.14365 39.4568 8.05448C38.8875 6.7214 38.2973 5.39662 37.7133 4.06975C37.6755 3.9806 37.6272 3.89354 37.5642 3.76707C37.4927 3.89975 37.4423 3.97438 37.4024 4.06768C36.8017 5.40491 36.1967 6.74006 35.6043 8.08144C35.5787 8.15949 35.5278 8.22712 35.4595 8.27393C35.3913 8.32073 35.3093 8.34414 35.2262 8.34059C33.8378 8.4484 32.4472 8.56865 31.0587 8.68683C30.8487 8.70549 30.6386 8.73451 30.3613 8.76561L31.0671 9.38758C32.039 10.2335 33.0123 11.0793 33.9869 11.9252C34.0621 11.978 34.1183 12.0531 34.1474 12.1396C34.1765 12.2261 34.1769 12.3194 34.1486 12.4062C33.9386 13.2355 33.7601 14.0648 33.5689 14.894C33.4093 15.5637 33.2517 16.2375 33.0858 16.9507Z" fill="currentColor"/>
<path d="M15.0381 14.3965H16.477C19.2077 14.3965 21.9258 14.4172 24.6503 14.4193C24.8288 14.4193 24.8708 14.5147 24.9191 14.6266C25.4763 16.0218 26.2525 17.3217 27.2193 18.4787C29.255 20.8996 32.093 22.5314 35.2308 23.0853C36.4134 23.3072 37.6213 23.2595 38.8207 23.189C40.9213 23.0625 42.8118 22.312 44.5951 21.2568C44.8514 21.1054 45.1056 20.9499 45.4164 20.7613C45.3576 20.9334 45.3261 21.0453 45.282 21.1552C44.2261 23.7813 43.171 26.4032 42.1165 29.021C42.1001 29.0814 42.0616 29.1338 42.0085 29.1678C41.9553 29.2019 41.8913 29.2153 41.8287 29.2055C34.9991 29.2055 28.1701 29.2055 21.3419 29.2055C21.115 29.2055 20.9722 29.1765 20.8714 28.9215C18.9752 24.1904 17.0707 19.462 15.1578 14.7365C15.1242 14.6494 15.0948 14.5603 15.0381 14.3965Z" fill="currentColor"/>
</svg>
