<svg width="36" height="36" viewBox="0 -2 36 36" fill="none" xmlns="http://www.w3.org/2000/svg">
<path fill-rule="evenodd" clip-rule="evenodd" d="M18 4.5C11.6487 4.5 6.5 9.64873 6.5 16C6.5 22.3513 11.6487 27.5 18 27.5C24.3513 27.5 29.5 22.3513 29.5 16C29.5 9.64873 24.3513 4.5 18 4.5ZM4.5 16C4.5 8.54416 10.5442 2.5 18 2.5C25.4558 2.5 31.5 8.54416 31.5 16C31.5 23.4558 25.4558 29.5 18 29.5C10.5442 29.5 4.5 23.4558 4.5 16Z" fill="currentColor"/>
<path fill-rule="evenodd" clip-rule="evenodd" d="M18 7.5C18.5523 7.5 19 7.94772 19 8.5V15.382L23.4472 17.6056C23.9412 17.8526 24.1414 18.4532 23.8944 18.9472C23.6474 19.4412 23.0468 19.6414 22.5528 19.3944L17.5528 16.8944C17.214 16.725 17 16.3788 17 16V8.5C17 7.94772 17.4477 7.5 18 7.5Z" fill="currentColor"/>
</svg>
