<svg width="40" height="40" viewBox="0 0 40 34" fill="none" xmlns="http://www.w3.org/2000/svg">

<path d="M0.000817975 21.1906C0.091116 20.4847 0.339541 19.8313 0.65824 19.2019C1.1461 18.2381 1.8125 17.406 2.56471 16.5898C2.57084 16.6943 2.57697 16.7658 2.57861 16.8365C2.60394 18.2386 2.62968 19.6407 2.65583 21.043C2.65991 21.2486 2.68198 21.4521 2.69668 21.6568C2.73427 22.1502 3.04766 22.4458 3.44399 22.6596C3.89344 22.901 4.3768 22.938 4.87119 22.8241C5.16415 22.7563 5.38315 22.5774 5.55312 22.3361C5.94537 21.7777 6.30779 21.1955 6.73231 20.6639C7.20342 20.0739 7.72028 19.5197 8.23715 18.9687C8.5346 18.6513 8.93624 18.5897 9.35137 18.6476C10.0611 18.7467 10.4137 19.5226 10.0537 20.2232C9.92748 20.4698 9.75424 20.6947 9.59243 20.9221C9.25617 21.3945 8.90274 21.855 8.57505 22.3332C7.91518 23.2969 7.60506 24.3754 7.50251 25.5381C7.4069 26.6194 7.26838 27.6991 7.09636 28.771C6.97011 29.5571 6.88431 29.6253 6.10146 29.6701C4.31511 29.7717 2.52794 29.8206 0.754662 29.4868C0.55241 29.4489 0.427789 29.3548 0.404908 29.1505C0.349748 28.6896 0.282331 28.2287 0.251687 27.7657C0.169969 26.5857 0.103372 25.4045 0.0294172 24.2237C0.0253313 24.1566 0.00980612 24.09 0 24.0234L0.000817975 21.1906Z" fill="currentColor"/>
<path d="M34.7419 27.2448L34.2459 25.2005C34.5486 25.2005 34.8179 25.1779 35.0827 25.2059C35.5101 25.2511 35.6257 25.2038 35.6714 24.7771C35.7364 24.1727 35.7908 23.5638 35.7916 22.9565C35.7995 16.6327 35.7995 10.3089 35.7916 3.98483C35.7916 3.48528 35.7707 2.98574 35.7474 2.4866C35.7311 2.13836 35.6935 2.0993 35.3454 2.09313C33.8287 2.0664 32.312 2.03064 30.7958 2.02859C23.1361 2.02036 15.4761 2.01735 7.81592 2.01954C7.51602 2.01954 7.39957 2.1141 7.38854 2.42328C7.3583 3.24558 7.32561 4.0646 7.32398 4.88566C7.31472 9.34115 7.31117 13.7966 7.31335 18.2521C7.31335 18.4166 7.2774 18.549 7.16504 18.6768C6.34786 19.6065 5.62466 20.6068 4.9513 21.6458C4.74415 21.9656 4.24771 22.0606 3.9331 21.8431C3.69285 21.6787 3.5429 21.4842 3.54494 21.1421C3.57382 15.3794 3.59411 9.61662 3.60582 3.85367C3.60827 3.24517 3.64669 2.63668 3.66139 2.02776C3.66916 1.72927 3.77784 1.46819 3.93596 1.22396C4.19039 0.832976 4.53602 0.510574 4.94272 0.284895C5.24876 0.11139 5.57563 0.0497266 5.92333 0.0472598C7.76689 0.0332807 9.61003 0.0061424 11.4536 0.00367551C19.0457 -0.000435985 26.6376 -0.000435985 34.2291 0.00367551C35.3515 0.00367551 36.4764 0.0279285 37.5963 -0.0012631C38.0674 -0.0135976 38.4564 0.140583 38.8392 0.368771C39.4198 0.715781 39.7381 1.2659 39.9833 1.8707C39.9988 1.9229 40.0045 1.97756 40 2.03187C39.9929 9.21821 39.9848 16.4046 39.9755 23.5909C39.9755 24.1517 39.9436 24.7125 39.9183 25.2729C39.9174 25.3894 39.8923 25.5043 39.8448 25.6105C39.4153 26.4468 38.8233 27.1025 37.8251 27.1613C36.8081 27.2242 35.7871 27.2201 34.7419 27.2448ZM37.9326 14.3462C38.3273 14.3462 38.7089 13.961 38.7167 13.5617C38.7248 13.2402 38.3779 12.7806 37.9101 12.8097C37.5015 12.834 37.1407 13.1629 37.1403 13.5539C37.1399 13.9655 37.5228 14.3483 37.9326 14.3462Z" fill="currentColor"/>
<path d="M25.2855 27.4853C25.1629 26.9471 25.0637 26.4023 24.9137 25.8715C24.4234 24.1377 23.9127 22.4092 23.4154 20.6774C23.3447 20.4203 23.2877 20.1595 23.2446 19.8963C23.2066 19.6779 23.2704 19.4781 23.408 19.3013C23.7607 18.8458 24.3172 18.664 24.8238 18.8392C24.9866 18.8915 25.1343 18.9831 25.2538 19.106C25.3734 19.2289 25.4613 19.3794 25.5098 19.5443C25.907 20.7643 26.302 21.9849 26.6947 23.206C26.7716 23.4432 26.8418 23.6825 26.9244 23.9522C27.0089 23.8926 27.0584 23.8614 27.1037 23.8248C27.5822 23.4396 28.1681 23.4001 28.6711 23.7516C28.8533 23.8786 28.9759 23.8959 29.1647 23.7598C29.5965 23.4478 30.1273 23.4663 30.5714 23.7701C30.6437 23.8199 30.7161 23.87 30.7778 23.8606C31.0536 23.759 31.3224 23.6258 31.6068 23.5629C32.0738 23.4593 32.4808 23.6233 32.6985 24.0493C32.97 24.5681 33.1981 25.1087 33.3805 25.6655C33.8503 27.1535 34.0399 28.6936 34.1217 30.2482C34.1524 30.8287 34.172 31.4099 34.1805 31.9919C34.1759 32.0953 34.132 32.193 34.0579 32.2649C33.4483 32.8195 32.6994 33.1098 31.9333 33.3552C30.6172 33.7771 29.2709 34.0238 27.8845 33.9979C27.5857 33.9879 27.2877 33.9597 26.9922 33.9136C26.9231 33.9037 26.8488 33.824 26.8051 33.7573C26.2106 32.8586 25.6467 31.9376 25.0228 31.0598C24.2465 29.9686 23.3104 29.0254 22.2473 28.2113C22.0639 28.0698 21.8898 27.9164 21.7263 27.7521C21.3994 27.4265 21.3238 26.9549 21.5097 26.5186C21.5937 26.3086 21.7394 26.1294 21.9273 26.0051C22.1153 25.8808 22.3366 25.8172 22.5615 25.823C22.8883 25.823 23.1837 25.9089 23.4391 26.105C23.9793 26.5191 24.5104 26.9454 25.0453 27.3664L25.2328 27.514L25.2855 27.4853Z" fill="currentColor"/>
<path d="M8.30078 27.2182C8.34164 26.696 8.37147 26.1858 8.42908 25.6784C8.48588 25.1781 8.49895 25.1797 9.00846 25.1797H21.4569C20.8522 25.7586 20.4048 26.3696 20.4702 27.2182H8.30078Z" fill="currentColor"/>
<path d="M21.8238 9.72832C19.9941 9.72832 18.1643 9.72832 16.3344 9.72832C16.0623 9.72832 15.7902 9.71065 15.5172 9.68968C15.2337 9.6683 15.0608 9.4697 15.0645 9.18724C15.0678 8.91136 15.228 8.71524 15.5095 8.70414C16.2637 8.67454 17.0184 8.64823 17.7726 8.647C21.1876 8.6396 24.6026 8.64371 28.0176 8.63672C28.3338 8.63672 28.447 8.86079 28.5692 9.07377C28.6807 9.26783 28.5238 9.40269 28.4176 9.54289C28.3024 9.69543 28.1626 9.74847 27.9649 9.74847C25.9174 9.73983 23.87 9.74312 21.8222 9.74312L21.8238 9.72832Z" fill="currentColor"/>
<path d="M21.8554 5.97804C19.8084 5.95666 17.7615 5.93473 15.7147 5.91225C15.6129 5.90999 15.5115 5.9001 15.4111 5.88265C15.1832 5.84482 15.0581 5.6964 15.0626 5.47931C15.0671 5.26222 15.1987 5.10311 15.4303 5.09324C16.1433 5.06241 16.8571 5.02622 17.5705 5.02581C20.8482 5.02389 24.1262 5.02855 27.4044 5.03979C27.6757 5.03979 27.9483 5.05747 28.2179 5.08501C28.4349 5.10722 28.6081 5.30128 28.6086 5.48876C28.609 5.67625 28.4349 5.87524 28.22 5.89703C27.9295 5.92664 27.6365 5.94473 27.3444 5.94514C25.5153 5.9498 23.6857 5.95063 21.8558 5.94761L21.8554 5.97804Z" fill="currentColor"/>
<path d="M21.7292 13.3448C19.9883 13.3448 18.2472 13.3441 16.5058 13.3428C16.1593 13.3428 15.8112 13.3251 15.4667 13.2967C15.13 13.2692 14.9637 12.9641 15.1145 12.6824C15.2011 12.5213 15.3523 12.4884 15.5133 12.4835C16.1523 12.465 16.791 12.4353 17.43 12.4349C20.7284 12.4319 24.0268 12.434 27.3252 12.4411C27.6173 12.4411 27.9099 12.4608 28.2008 12.4822C28.4251 12.4999 28.6094 12.6968 28.6094 12.8934C28.6094 13.0899 28.4231 13.2926 28.1975 13.3C27.3615 13.3259 26.5256 13.3497 25.6896 13.3551C24.3699 13.3641 23.0505 13.3576 21.7312 13.3576L21.7292 13.3448Z" fill="currentColor"/>
<path d="M27.0415 16.0508C27.2993 16.0643 27.5571 16.0738 27.8142 16.0919C28.148 16.1153 28.3964 16.3431 28.4385 16.6799C28.455 16.8361 28.4538 16.9938 28.4348 17.1498C28.4025 17.4495 28.2272 17.6386 27.9355 17.6946C27.2802 17.8202 26.6071 17.8193 25.9522 17.6917C25.6016 17.6238 25.3303 17.2715 25.334 16.9455C25.3385 16.5376 25.6151 16.1799 26.0061 16.1022C26.1801 16.0739 26.3558 16.0588 26.532 16.0569C26.7016 16.05 26.8715 16.0569 27.0411 16.0569L27.0415 16.0508Z" fill="currentColor"/>
<path d="M21.7094 17.7805C21.4177 17.7677 21.1256 17.7657 20.8351 17.7393C20.422 17.7019 20.1625 17.3714 20.1621 16.9068C20.1621 16.4492 20.4073 16.1223 20.8212 16.0968C21.3625 16.0643 21.9068 16.0557 22.449 16.0676C22.7922 16.0758 23.0533 16.2637 23.1959 16.5861C23.325 16.8784 23.287 17.1592 23.1015 17.4186C22.9291 17.6592 22.6729 17.72 22.4024 17.7332C22.172 17.7439 21.9407 17.7352 21.7103 17.7352C21.7098 17.7504 21.7094 17.7657 21.7094 17.7805Z" fill="currentColor"/>
<path d="M16.4923 16.0469L17.3434 16.0987C17.6441 16.1168 17.8553 16.2742 17.9154 16.5633C17.9604 16.7812 17.9636 17.0057 17.9248 17.2248C17.8725 17.5093 17.6797 17.7055 17.3753 17.7145C16.7922 17.7318 16.2075 17.7531 15.6253 17.7285C15.2441 17.7128 14.9875 17.3408 14.9883 16.9062C14.9891 16.4716 15.2432 16.1336 15.6334 16.0942C15.937 16.0633 16.2435 16.0604 16.4923 16.0469Z" fill="currentColor"/>

</svg>
