<svg width="48" height="48" viewBox="0 -4 48 48" fill="none" xmlns="http://www.w3.org/2000/svg">
<path d="M23.9551 39.9991C20.8529 39.9551 17.8041 39.5905 14.8449 38.6357C12.0114 37.7215 9.4414 36.3471 7.29387 34.2552C6.97182 33.9399 6.66618 33.6084 6.37816 33.262C5.93259 32.7288 5.70402 32.112 5.72165 31.4082C5.87393 25.3277 8.14542 20.2322 12.8407 16.2824C14.5149 14.8741 16.4148 13.8412 18.5028 13.1675C18.7435 13.0897 18.8149 12.9797 18.805 12.7378C18.7857 12.2711 18.7938 11.8029 18.8022 11.3355C18.805 11.1769 18.7585 11.0819 18.6135 10.9986C17.5443 10.387 17.0713 9.43395 17.0626 8.23235C17.058 7.57008 17.5458 7.06099 18.2118 7.00311C18.8403 6.94869 19.4694 7.38867 19.5144 8.02935C19.5656 8.75324 19.9808 9.13276 20.7965 9.13765C22.9299 9.15003 25.0636 9.14888 27.1961 9.10655C27.9762 9.091 28.2167 8.67694 28.2487 8.12754C28.2877 7.45518 28.9044 6.95416 29.5551 7.00109C30.2367 7.05004 30.7398 7.5839 30.7216 8.26806C30.6927 9.45612 30.2102 10.3928 29.1613 11.0136C29.0746 11.0643 28.9925 11.1967 28.9893 11.2938C28.9726 11.8138 28.9879 12.3347 28.9775 12.855C28.9743 13.0203 29.0419 13.0837 29.189 13.1312C35.8185 15.2703 40.7022 21.2697 41.7875 28.3367C41.9461 29.371 41.9843 30.4246 42.0525 31.471C42.0984 32.1736 41.8366 32.7843 41.3812 33.3139C39.8258 35.1259 37.9322 36.4939 35.7899 37.5334C33.1139 38.8321 30.2708 39.5203 27.3203 39.7944C26.202 39.9015 25.0771 39.934 23.9551 39.9991ZM23.9999 31.9726C26.608 31.9225 29.0006 31.1885 31.0086 29.4312C32.4678 28.1542 33.4011 26.5716 33.5413 24.6104C33.7103 22.2421 32.7507 20.32 30.9984 18.7922C28.7917 16.8673 26.1601 16.1342 23.2714 16.2871C20.867 16.4135 18.6923 17.1944 16.8751 18.8054C15.2127 20.2791 14.2525 22.1041 14.3389 24.37C14.4181 26.44 15.3667 28.1058 16.9028 29.4459C18.9209 31.2058 21.3256 31.9317 23.9999 31.9726Z" fill="currentColor"/>
<path d="M32.7602 7.20707C32.4921 7.0081 32.2401 6.80394 31.9693 6.62398C30.409 5.59313 28.6686 5.05208 26.8337 4.80502C24.1386 4.44221 21.4634 4.51881 18.8371 5.29655C17.5946 5.66454 16.4472 6.22085 15.4378 7.04495C15.2645 7.1872 15.2327 7.29057 15.3558 7.49674C16.0261 8.61973 16.3434 9.84062 16.1937 11.1459C16.0889 12.0863 15.6433 12.9562 14.9405 13.5924C14.2377 14.2286 13.326 14.5873 12.3766 14.6012C10.7392 14.6283 9.10178 14.6283 7.46436 14.6012C5.53904 14.5701 4.06825 13.0339 4.00468 11.1142C3.91048 8.26354 5.24719 6.10049 7.24677 4.24439C7.43113 4.07335 7.66085 3.93687 7.89115 3.83033C12.3142 1.78361 16.9338 0.454161 21.8102 0.0809831C25.5695 -0.206963 29.2482 0.294349 32.8772 1.24515C35.1756 1.84724 37.4078 2.63679 39.5891 3.57953C40.4551 3.94845 41.2143 4.52814 41.797 5.26545C42.6639 6.35071 43.4239 7.51143 43.7619 8.86477C44.07 10.1009 44.1405 11.378 43.6024 12.5775C43.0294 13.8549 41.9843 14.5684 40.5817 14.613C38.8748 14.6677 37.1639 14.6649 35.4568 14.6151C33.3714 14.5543 31.737 12.818 31.7182 10.7168C31.701 9.59834 31.9949 8.49693 32.5675 7.53475C32.6267 7.43742 32.6831 7.33808 32.7602 7.20707Z" fill="currentColor"/>
<path d="M23.9939 28.3007C22.4963 28.2826 21.0977 27.9321 19.8954 27.005C18.8566 26.2033 18.231 25.1791 18.3581 23.8171C18.452 22.8093 18.9834 22.0318 19.7416 21.3984C20.7085 20.5921 21.8473 20.1781 23.0849 20.0378C24.8206 19.8412 26.4561 20.1363 27.9159 21.1404C28.2278 21.3572 28.5127 21.6104 28.7643 21.8945C30.0048 23.2884 29.9719 25.127 28.6851 26.4823C27.6362 27.5872 26.2966 28.083 24.8151 28.2616C24.6397 28.2829 24.4623 28.2903 24.2858 28.2993C24.189 28.305 24.091 28.3007 23.9939 28.3007Z" fill="currentColor"/>
</svg>
