<svg width="48" height="48" viewBox="0 -4 48 48" fill="none" xmlns="http://www.w3.org/2000/svg">
<path d="M43.8992 20.0217C43.8771 29.6089 37.0966 37.8392 27.6897 39.6349C23.3302 40.4669 19.1369 39.8761 15.1476 37.9118C14.9027 37.7817 14.6165 37.7538 14.3512 37.8341C12.3754 38.3655 10.3975 38.8895 8.4174 39.4061C6.60726 39.8772 4.92993 38.7943 4.69064 36.98C4.64302 36.6195 4.69722 36.2257 4.79015 35.8699C5.29931 33.9242 5.83093 31.9856 6.36681 30.0458C6.44425 29.772 6.43534 29.5502 6.29518 29.2884C2.46194 22.1367 3.50737 13.0379 8.85377 6.93532C12.1484 3.17459 16.2554 0.853753 21.2022 0.199257C27.4004 -0.620708 32.868 1.11983 37.5031 5.33191C40.6661 8.20625 42.6637 11.7836 43.4911 15.9837C43.7517 17.3078 43.8346 18.6669 43.9987 20.0101L43.8992 20.0217ZM41.9474 19.006C41.9474 17.5358 41.504 15.1746 40.5244 12.9303C37.229 5.382 29.8378 1.10739 21.6812 2.09321C16.9322 2.66769 13.013 4.87278 10.0014 8.58379C5.29041 14.3884 4.61436 22.2144 8.17424 28.7885C8.38681 29.1808 8.4325 29.551 8.31324 29.9817C7.74445 32.0365 7.1927 34.0963 6.63785 36.1554C6.36294 37.175 6.94761 37.7778 7.9578 37.5148C10.0413 36.9711 12.1283 36.4362 14.2036 35.8617C14.7357 35.7145 15.1716 35.7778 15.6556 36.0241C19.4021 37.9274 23.3496 38.5263 27.4736 37.7001C35.8901 36.0132 41.9327 28.5955 41.9474 19.006Z" fill="currentColor"/>
<path d="M10.3129 33.8941C10.6072 32.8205 10.8716 31.8099 11.1624 30.8065C11.5109 29.6063 11.3688 28.4841 10.7562 27.3931C9.41305 25.0004 8.78154 22.4212 8.82645 19.6754C8.91861 13.7325 12.6488 8.24644 18.1327 5.99357C25.8429 2.82597 34.4998 6.34665 37.8317 14.0048C41.4136 22.2371 36.8389 32.0227 28.2451 34.5137C24.2306 35.6789 20.3796 35.2288 16.6815 33.327C15.7522 32.8493 14.804 32.7487 13.8031 33.0163C12.7689 33.2909 11.7327 33.5601 10.697 33.8277C10.5956 33.8533 10.4906 33.8634 10.3129 33.8941ZM17.7471 11.2101C17.0888 11.1476 16.5351 11.2202 16.0759 11.6556C14.5705 13.0827 14.018 14.819 14.4137 16.8504C14.708 18.3602 15.5094 19.6277 16.3528 20.8807C19.0016 24.817 22.4317 27.6638 27.1207 28.824C28.8735 29.2575 30.5125 29.266 32.064 28.1567C33.2256 27.3274 33.5543 26.1757 33.547 24.8636C33.547 24.6531 33.3797 24.3404 33.2016 24.2507C31.8882 23.5884 30.5532 22.9689 29.2224 22.34C28.8201 22.1501 28.5177 22.2767 28.2513 22.6306C27.8076 23.2194 27.3398 23.7908 26.8647 24.3548C26.4775 24.8124 26.3118 24.8295 25.7419 24.6061C22.968 23.515 20.8721 21.6362 19.3508 19.087C19.0565 18.5937 19.0933 18.4438 19.467 17.9807C19.8759 17.4715 20.2801 16.9499 20.6131 16.3905C20.7343 16.187 20.7316 15.8273 20.6429 15.5931C20.2208 14.4775 19.7338 13.3868 19.3009 12.2752C19.0058 11.5189 18.595 10.9941 17.7471 11.2101Z" fill="currentColor"/>
</svg>
