<svg width="48" height="48" viewBox="0 -3 48 42" fill="none" xmlns="http://www.w3.org/2000/svg">
<path d="M4.00041 23.2646C4.03884 23.1442 4.07401 23.0225 4.11694 22.9038C4.33774 22.2941 4.76175 21.9871 5.3812 21.9871C12.8343 21.9871 20.2872 21.9842 27.74 21.9785C28.6465 21.9785 29.0893 22.6824 29.1548 23.3321C29.2136 23.91 29.073 24.4268 28.6502 24.828C28.4584 25.0154 28.2063 25.1195 27.9445 25.1195C27.8492 25.1195 27.7539 25.1195 27.6583 25.1195H5.5239C4.64644 25.1195 4.25065 24.7953 4.03189 23.8988C4.02315 23.8719 4.01249 23.8458 4 23.8206L4.00041 23.2646Z" fill="currentColor"/>
<path d="M37.673 32.2105C37.6067 31.5608 37.1647 30.8552 36.2582 30.8569C33.4536 30.8626 30.6488 30.8655 27.8439 30.8655C27.7751 30.8582 27.7061 30.8546 27.637 30.8548H21.6751C16.2506 30.8548 10.8261 30.853 5.40164 30.8496C4.80386 30.8496 4.40316 31.1192 4.15701 31.6691C4.08832 31.8226 4.05152 31.9916 4 32.1537V32.7127C4.02331 32.7858 4.04948 32.8576 4.06951 32.9316C4.22243 33.4931 4.56917 33.8466 5.10276 34.0009H36.1777C36.273 34.0009 36.3682 34.0009 36.4639 33.9987C36.7257 33.9987 36.9778 33.8946 37.1696 33.7072C37.5912 33.3052 37.7319 32.7884 37.673 32.2105Z" fill="currentColor"/>
<path d="M4 5.57096C4.03803 5.45014 4.07237 5.32802 4.1149 5.20935C4.33365 4.59921 4.76011 4.28792 5.37629 4.28792C9.85518 4.28792 14.3341 4.29823 18.8125 4.27931C19.7096 4.27544 20.1438 4.99565 20.2125 5.62599C20.2587 6.05038 20.1925 6.455 19.9672 6.81704C19.7219 7.20617 19.3858 7.42244 18.9278 7.42201C14.3876 7.42 9.84754 7.41929 5.3076 7.41987C4.72944 7.41987 4.28213 7.05396 4.08914 6.43522C4.05765 6.33418 4.03108 6.23141 4.00205 6.12907L4 5.57096Z" fill="currentColor"/>
<path d="M4 14.4173C4.0552 14.25 4.09486 14.0733 4.16928 13.9168C4.40929 13.4068 4.7826 13.1256 5.34931 13.126C9.83473 13.1312 14.3202 13.1398 18.8056 13.1192C19.6642 13.1153 20.1291 13.774 20.2084 14.4366C20.2763 15.0038 20.1512 15.5184 19.7464 15.9286C19.6447 16.0351 19.5238 16.1191 19.3908 16.176C19.2579 16.2328 19.1155 16.2613 18.972 16.2597C14.3983 16.2597 9.82424 16.2597 5.24995 16.2597C4.69755 16.2597 4.24574 15.8431 4.06706 15.1972C4.0462 15.1229 4.02249 15.0498 4 14.9762V14.4173Z" fill="currentColor"/>
<path d="M35.3806 20.6095C32.4775 21.5249 29.7041 21.2502 27.0971 19.6206C25.0081 18.3134 23.5451 16.4336 22.7588 14.0141C21.0992 8.90769 23.2597 3.46634 27.8698 1.06448C32.3029 -1.24492 37.7872 0.322357 40.5824 4.67845C43.5549 9.3106 42.5936 15.8329 38.0473 19.1992C38.0763 19.2654 38.1049 19.3359 38.1368 19.4043C40.0296 23.4822 41.8961 27.5739 43.8305 31.6298C44.4123 32.8497 43.4216 33.9917 42.3585 33.9315C41.8237 33.9014 41.4386 33.649 41.1985 33.1309C39.3005 29.0318 37.3991 24.9345 35.4942 20.8391C35.4554 20.7609 35.4178 20.6865 35.3806 20.6095ZM39.4048 10.5704C39.413 6.44264 36.2053 3.05787 32.271 3.0411C28.3257 3.02433 25.0919 6.4091 25.087 10.5605C25.0817 14.7016 28.293 18.08 32.2424 18.0851C36.1812 18.095 39.3966 14.7193 39.4048 10.5704Z" fill="currentColor"/>
</svg>
