<svg width="48" height="48" viewBox="0 -4 48 48" fill="none" xmlns="http://www.w3.org/2000/svg">
<path d="M23.9997 0C12.9543 0 4 8.95542 4 20.0003C4 31.0451 12.9554 40 23.9997 40C35.044 40 43.9995 31.0446 43.9995 20.0003C43.9995 8.95596 35.0483 0 23.9997 0ZM34.0881 12.2549C34.0314 12.6455 33.93 13.3565 33.8243 14.0665C33.5966 15.5983 33.3679 17.1297 33.138 18.6607C32.9992 19.5843 32.8593 20.5077 32.7183 21.431C32.5554 22.5038 32.3923 23.577 32.229 24.6506C32.037 25.9049 31.8514 27.1603 31.6442 28.4124C31.5692 28.871 31.3777 29.2886 30.9968 29.5783C30.5561 29.9122 30.0533 29.8804 29.5505 29.7649C28.9436 29.6252 28.3954 29.3436 27.8781 29.0053C26.7122 28.2398 25.5432 27.4775 24.4006 26.6791C23.4354 26.0047 22.493 25.2958 21.5629 24.5751C20.9668 24.1111 20.936 23.3656 21.4733 22.8407C22.3004 22.0314 23.1457 21.2438 23.9862 20.447C24.3795 20.0736 24.7755 19.703 25.1666 19.3275C26.0773 18.4541 26.9933 17.5861 27.8889 16.6986C28.0939 16.4958 28.2438 16.2298 28.3857 15.9746C28.4397 15.8743 28.4596 15.672 28.3992 15.6089C28.3388 15.5458 28.1327 15.5242 28.028 15.57C27.6423 15.7394 27.248 15.9083 26.9 16.1413C24.7275 17.5942 22.5663 19.0637 20.4019 20.529C19.6493 21.0382 18.9113 21.5707 18.1426 22.0541C17.6149 22.3859 17.0037 22.3853 16.3989 22.3422C15.6081 22.2882 14.8798 21.9834 14.1331 21.7633C13.3136 21.5227 12.5044 21.2476 11.6822 21.0177C11.1967 20.8807 10.8191 20.1864 11.399 19.7305C11.6657 19.5298 11.9542 19.3596 12.259 19.2234C13.0757 18.8425 13.9006 18.4789 14.726 18.1175C16.2463 17.4518 17.7628 16.7763 19.2927 16.1333C21.5801 15.1719 23.8783 14.2316 26.1728 13.2886C28.0034 12.5365 29.8364 11.7904 31.6717 11.0502C31.9808 10.9256 32.2975 10.7994 32.6228 10.7373C33.5313 10.5615 34.155 10.9175 34.087 12.2549H34.0881Z" fill="currentColor"/>
</svg>
