<svg width="114" height="80" viewBox="0 0 114 80" fill="none" xmlns="http://www.w3.org/2000/svg">
<path d="M96.0222 71.0972C96.1169 70.4164 96.2746 69.8168 96.2746 69.2152C96.2917 60.7058 96.2963 52.1965 96.2884 43.6871V42.5294L103.096 41.4905V42.6046C103.096 51.4089 103.108 60.217 103.096 69.0213C103.084 73.4739 101.28 76.8994 97.2268 78.9594C95.6733 79.751 93.9798 79.9845 92.2706 79.9865C65.0972 79.9997 37.9246 79.9997 10.7525 79.9865C6.42716 79.9865 3.11707 78.1283 1.09238 74.1962C0.276195 72.613 0.0297573 70.8894 0.0277859 69.1301C0.0277859 57.4888 0.0277859 45.8474 0.0277859 34.2061C0.0277859 30.6777 0.00216553 27.1492 0.0120228 23.6208C0.0120228 21.0799 0.420116 18.6398 1.98349 16.5303C4.24475 13.4828 7.33404 12.2558 11.0522 12.2578C29.3842 12.2736 47.7188 12.2736 66.056 12.2578H73.2519C72.8812 14.5672 72.5362 16.7302 72.1675 19.0376H13.1183C13.5126 19.4829 13.7098 19.7164 13.9266 19.9321C25.9131 31.9653 37.9016 43.9965 49.892 56.0257C51.2405 57.3813 51.8063 57.3872 53.1627 56.0257C60.5793 48.5929 67.9907 41.1547 75.3968 33.7113C75.5821 33.5253 75.73 33.3037 75.6551 33.5016L80.6606 38.0828L71.8797 46.8712C79.9272 54.9511 87.89 62.94 96.0222 71.0972ZM87.7066 73.1275C80.7776 66.1485 73.8118 59.1366 66.8091 52.0916C66.6534 52.24 66.4148 52.4577 66.1822 52.6853C63.3709 55.5033 60.5609 58.3239 57.7522 61.1471C54.172 64.7587 49.0955 64.822 45.4818 61.2599C43.5597 59.3661 41.6651 57.4446 39.7646 55.5211C38.5817 54.3119 37.4146 53.0731 36.4328 52.048L15.4072 73.1236L87.7066 73.1275ZM7.11717 71.0912L30.9719 47.1462L6.86088 22.9025V63.6149C6.86088 65.6235 6.84906 67.6341 6.87468 69.6446C6.8806 70.1057 7.0186 70.5648 7.11717 71.0912Z" fill="currentColor"/>
<path d="M103.261 29.8124C103.772 31.4648 104.235 32.9609 104.712 34.4965C102.525 35.6509 100.132 36.3598 97.6703 36.5823C94.6914 36.8317 91.7243 36.8277 88.8223 35.8343C82.6457 33.7168 78.5175 28.2986 78.0542 21.7404C77.6855 16.5121 78.8566 11.7389 82.0267 7.54753C85.0292 3.58968 89.0175 1.21499 93.9225 0.340305C97.6683 -0.324614 101.316 -0.0554768 104.797 1.50589C110.92 4.2566 114.051 10.2527 113.472 16.8188C113.225 19.6625 112.437 22.2846 110.711 24.6019C108.45 27.6495 103.841 29.1336 100.726 27.691C99.8231 27.2735 99.1173 26.4285 98.4234 25.8645C97.1774 26.5195 95.892 27.4991 94.4469 27.8968C89.7548 29.1871 86.2752 26.5848 85.8868 21.9937C85.4985 17.4026 87.0993 13.4368 90.8707 10.5891C93.3252 8.73489 96.1542 8.07195 99.208 8.26192C101.112 8.34683 102.983 8.78497 104.728 9.55416C105.229 9.78372 105.383 10.043 105.286 10.6109C104.71 13.9751 104.176 17.3531 103.642 20.7272C103.594 21.121 103.577 21.518 103.593 21.9145C103.593 23.1454 104.117 23.4304 105.199 22.7813C106.282 22.1322 106.946 21.0913 107.328 19.9138C108.478 16.3636 108.326 12.8708 106.445 9.62342C104.868 6.90834 102.272 5.5508 99.2829 5.0719C94.9911 4.39906 91.1408 5.5053 87.9253 8.50139C85.7902 10.4803 84.5009 12.9817 83.9686 15.8432C83.3772 19.0649 83.3653 22.2648 84.6921 25.342C86.4881 29.4978 89.8495 31.3975 94.1946 31.726C97.3371 31.9576 100.348 31.445 103.261 29.8124ZM98.1356 13.8445C97.1143 14.1453 96.2567 14.2403 95.5529 14.6361C93.1063 15.9738 92.371 19.053 92.7692 21.2813C92.9348 22.2094 93.8535 22.6784 94.7407 22.2707C95.2473 22.044 95.6968 21.7059 96.0556 21.2813C97.7412 19.2054 97.7491 16.6506 98.1356 13.8445Z" fill="currentColor"/>
</svg>
