<svg width="158" height="158" viewBox="0 0 158 158" fill="none" xmlns="http://www.w3.org/2000/svg">
<circle cx="79" cy="79" r="79" fill="white"/>
<g clip-path="url(#clip0_595_1510)">
<path d="M82.876 46.1519C83.0849 45.8786 83.246 45.6868 83.3856 45.4818C85.3097 42.6763 87.7964 40.495 91.0779 39.5741C99.2309 37.2846 106.411 42.0879 107.647 49.6284C108.211 53.0682 107.556 56.3673 106.333 59.5634C104.601 64.0924 101.815 67.9585 98.4972 71.4401C94.0381 76.1171 89.099 80.3109 83.7616 83.9521C82.713 84.666 82.9871 84.6456 82.0098 83.9685C75.9419 79.7617 70.2898 75.0635 65.4765 69.4433C62.4884 65.9525 60.0252 62.1007 58.7625 57.6135C57.8953 54.5327 57.5396 51.4263 58.3916 48.2618C59.7001 43.4269 63.9876 39.6414 68.8508 39.1152C73.9614 38.5624 78.1466 40.2812 81.4065 44.2713C81.8875 44.8557 82.3451 45.4655 82.876 46.1519Z" fill="#413339"/>
<path d="M119.574 80.9119C118.546 82.2376 117.548 83.6348 116.439 84.9361C110.039 92.4368 103.113 99.4041 95.4354 105.606C93.0007 107.572 90.3041 108.971 87.1458 109.175C84.8933 109.324 82.6345 109.354 80.3788 109.266C77.1044 109.136 73.8391 108.81 70.5657 108.654C69.1633 108.586 67.7447 108.67 66.3434 108.79C63.3676 109.046 60.8534 110.268 58.7601 112.435C56.9064 114.352 54.9812 116.201 53.0398 118.031C51.6466 119.342 51.828 119.293 50.546 118.031C46.5531 114.096 42.5951 110.126 38.6722 106.12C37.7662 105.202 37.7804 105.416 38.6885 104.504C43.3846 99.7824 48.1025 95.0822 52.8421 90.4033C54.4727 88.796 56.5211 88.1964 58.7632 88.0393C62.4198 87.7844 65.9694 88.4004 69.5129 89.1846C71.6001 89.6466 73.6995 90.0667 75.8091 90.4084C76.7722 90.5644 77.7739 90.5103 78.7574 90.5103C81.7129 90.5103 84.6683 90.4797 87.6238 90.4971C89.1525 90.5063 90.6812 90.6603 92.1079 91.3048C93.178 91.7882 94.0687 92.4602 94.5263 93.5881C95.1256 95.0658 94.7576 96.3416 93.4532 97.2472C92.2496 98.0835 90.8789 98.5342 89.4837 98.9238C85.984 99.8997 82.4038 99.9701 78.8145 99.7937C76.8995 99.6988 74.9948 99.4276 73.0809 99.3052C70.3343 99.1298 67.6153 99.3398 64.9493 100.068C64.6882 100.136 64.4376 100.239 64.2043 100.374C63.8863 100.565 63.7324 100.855 63.8537 101.242C63.975 101.628 64.2614 101.778 64.6344 101.759C64.9228 101.747 65.2093 101.706 65.4894 101.635C68.7099 100.781 71.9751 100.785 75.2557 101.133C78.3854 101.465 81.5162 101.693 84.6622 101.395C87.7053 101.106 90.6883 100.579 93.4338 99.1359C93.853 98.9111 94.2556 98.6565 94.6384 98.3741C96.3974 97.1034 96.8805 95.5482 96.1477 93.1884C95.842 92.2042 95.8145 92.2461 96.6298 91.6403C101.1 88.3147 105.555 84.9687 110.025 81.6462C111.101 80.8466 112.172 80.0257 113.32 79.3414C116.138 77.6607 118.454 79.1476 119.574 80.9119Z" fill="#413339"/>
</g>
<defs>
<clipPath id="clip0_595_1510">
<rect width="81.5748" height="80" fill="white" transform="translate(38 39)"/>
</clipPath>
</defs>
</svg>
