<svg width="158" height="158" viewBox="0 0 158 158" fill="none" xmlns="http://www.w3.org/2000/svg">
<circle cx="79" cy="79" r="79" fill="white"/>
<g clip-path="url(#clip0_595_1511)">
<path d="M78.6128 113.977C69.2479 113.977 59.8854 113.929 50.5206 114C46.169 114.032 42.2312 113.027 38.7276 110.362C32.8004 105.842 30.4268 97.4028 33.0801 90.4434C35.0467 85.2824 36.861 80.0645 38.7208 74.8649C39.0277 74.01 39.4029 73.5667 40.4601 73.5007C42.9997 73.3211 44.8185 71.9774 45.8234 69.5652C48.1311 64.02 52.3713 61.3258 58.328 61.3167C72.1649 61.2894 86.0019 61.3167 99.8388 61.3008C105.195 61.3008 109.904 64.5747 111.855 69.6379C112.812 72.1207 114.733 73.3643 117.334 73.5371C118.068 73.5871 118.482 73.7531 118.75 74.5056C120.467 79.3529 122.188 84.2001 124.011 89.0065C125.1 91.8757 125.83 94.77 125.635 97.8734C125.205 104.974 119.692 111.706 112.789 113.386C111.321 113.747 109.817 113.936 108.306 113.95C98.411 114 88.5255 113.975 78.6219 113.975L78.6128 113.977ZM99.9161 92.9466C99.8866 85.7052 93.0113 81.556 86.6976 85.0505C83.5714 86.7829 82.2778 89.6863 82.1618 93.183C81.9959 98.1371 85.4471 102.175 90.1739 102.527C95.6532 102.946 99.9389 98.7214 99.9161 92.942V92.9466ZM75.4139 81.606C75.5389 74.4306 68.7046 70.8793 62.8092 73.594C58.3462 75.6629 56.8547 80.7966 58.1552 85.2119C59.0646 88.313 61.145 90.3979 64.328 91.1095C70.5007 92.4873 75.5594 88.097 75.4139 81.606ZM71.0782 102.566C71.3808 102.54 71.685 102.54 71.9876 102.566C73.686 102.871 74.5999 102.039 75.348 100.588C76.994 97.405 78.7788 94.2766 80.5112 91.1322C83.5214 85.6757 86.5324 80.2146 89.5441 74.7489C90.2125 73.5326 89.8215 72.8641 88.4301 72.8209C87.3319 72.7868 86.227 72.8846 85.1357 72.805C83.8193 72.7073 83.1053 73.2597 82.4801 74.4193C78.7947 81.1899 75.0251 87.9152 71.2987 94.654C70.1483 96.7343 68.9978 98.8192 67.9247 100.943C67.4564 101.87 67.8816 102.475 68.9206 102.534C69.6254 102.598 70.3461 102.566 71.0782 102.566Z" fill="#413339"/>
<path d="M121.096 67.3616C121.112 69.3624 119.96 70.8811 118.368 71.2494C116.361 71.7041 114.621 70.8947 113.821 68.9759C112.65 66.1498 110.974 63.7353 108.437 61.9664C105.893 60.1477 102.841 59.1779 99.7134 59.195C85.6916 59.2132 71.6713 59.2207 57.6524 59.2177C54.7186 59.2277 51.8545 60.1139 49.4277 61.7626C47.0008 63.4113 45.1218 65.7473 44.0315 68.4711C43.3767 70.1081 42.4105 71.279 40.5029 71.3517C37.2586 71.4722 35.6057 68.4688 37.0812 65.2472C39.8095 59.3086 44.1429 55.0684 50.3225 52.9427C52.5711 52.1482 54.9317 51.7161 57.316 51.6626C71.6394 51.5444 85.9629 51.4785 100.286 51.6354C109.465 51.7377 117.37 57.3034 120.794 65.9793C120.939 66.4292 121.041 66.8921 121.096 67.3616Z" fill="#413339"/>
<path d="M95.039 39.9836C95.0618 43.1325 92.4335 45.879 89.3688 45.9108C85.8538 45.9472 83.1551 43.4281 83.1301 40.0905C83.1028 36.6369 85.6492 34.036 89.0914 34.0042C92.4199 33.9746 95.014 36.5824 95.039 39.9836Z" fill="#413339"/>
<path d="M67.8273 45.9034C64.417 45.8625 61.916 43.2433 61.9797 39.7648C62.0365 36.4203 64.6352 33.9785 68.1183 34.0081C71.2286 34.0354 73.8796 36.7932 73.8659 39.9853C73.8582 40.7704 73.6959 41.5464 73.3882 42.2687C73.0805 42.9911 72.6335 43.6458 72.0727 44.1954C71.5119 44.745 70.8484 45.1787 70.1199 45.4718C69.3915 45.7648 68.6125 45.9115 67.8273 45.9034Z" fill="#413339"/>
<path d="M81.8863 44.1445L84.5532 46.891C83.2459 49.3169 80.1788 50.3718 76.7344 49.185L81.8863 44.1445Z" fill="#413339"/>
<path d="M74.1363 48.9891L72.4766 46.8929L74.8957 44.4102C74.9434 44.4215 75.0344 44.4102 75.0844 44.4625C77.2625 46.4496 77.2465 46.561 74.1363 48.9891Z" fill="#413339"/>
<path d="M92.3724 93.3724C92.2678 94.0794 92.236 94.8479 92.0087 95.5527C91.9286 95.7511 91.8055 95.9293 91.6482 96.0744C91.4909 96.2194 91.3034 96.3278 91.0992 96.3917C90.8446 96.4462 90.3194 96.0506 90.1898 95.7414C89.8455 94.9272 89.6713 94.0512 89.6779 93.1672C89.6846 92.2831 89.8719 91.4098 90.2284 90.6009C90.3444 90.3258 90.8605 89.9734 91.0719 90.0393C91.4425 90.1553 91.9018 90.5168 92.0018 90.8669C92.2224 91.6535 92.2587 92.497 92.3724 93.3724Z" fill="#413339"/>
<path d="M68.0584 82.1272C67.9091 82.9475 67.7148 83.7588 67.4763 84.5577C67.3786 84.8396 66.9262 85.192 66.6624 85.1716C66.4692 85.1405 66.2853 85.0669 66.1241 84.956C65.9628 84.8451 65.8283 84.6997 65.7302 84.5304C64.9936 82.9048 65.0482 81.2269 65.7075 79.5922C65.8348 79.2785 66.2987 78.9102 66.6056 78.9102C66.9125 78.9102 67.3763 79.2876 67.4832 79.5922C67.7583 80.4107 67.8742 81.2701 68.0584 82.1272Z" fill="#413339"/>
</g>
<defs>
<clipPath id="clip0_595_1511">
<rect width="93.655" height="80" fill="white" transform="translate(32 34)"/>
</clipPath>
</defs>
</svg>
