<svg width="158" height="158" viewBox="0 0 158 158" fill="none" xmlns="http://www.w3.org/2000/svg">
<circle cx="79" cy="79" r="79" fill="white"/>
<g clip-path="url(#clip0_595_1509)">
<path d="M40 70.4942V59.4117C40.0706 59.4057 40.1413 59.3955 40.2111 59.3955H59.1456C59.2452 59.3955 59.3439 59.3835 59.486 59.375C58.7404 58.9573 58.0323 58.5992 57.3659 58.1764C56.6783 57.7512 56.0195 57.281 55.3938 56.7689C52.4846 54.3324 51.1287 51.3274 52.0803 47.4945C52.545 45.6266 53.2106 43.8398 54.5358 42.4195C56.5002 40.3147 59.0196 39.2797 61.8488 39.0444C63.9767 38.8671 66.0603 39.2269 68.0554 40.0069C70.9918 41.1553 73.4507 42.9907 75.5233 45.3453C76.1847 46.1009 76.7788 46.913 77.2988 47.7724C77.7141 48.4544 77.9711 49.237 78.2946 49.9761C78.5635 50.5908 78.8266 51.208 79.1219 51.8934C79.2283 51.7229 79.2845 51.6257 79.3423 51.5337C80.4871 49.7076 81.5868 47.8525 82.7886 46.0657C83.8534 44.4834 85.1173 43.0461 86.68 41.9319C89.8744 39.654 93.427 38.6446 97.3457 39.128C99.3131 39.359 101.18 40.1256 102.743 41.3445C104.117 42.411 104.857 43.9123 105.427 45.5039C106.501 48.5004 106.27 51.3316 104.303 53.9249C102.977 55.6717 101.291 56.994 99.4055 58.0792C98.6565 58.5055 97.8845 58.8976 97.1227 59.306C97.1227 59.329 97.1295 59.3528 97.1338 59.3767H118.251C118.251 59.7177 118.251 60.0161 118.251 60.3145C118.268 61.6046 118.286 62.8944 118.304 64.184V75.4371C118.007 75.4294 117.708 75.4158 117.412 75.4158H82.5248H81.4234V59.3886H76.9208V75.4098H40.046C40.046 74.3015 40.0502 73.2248 40.046 72.1473C40.04 71.5957 40.0153 71.0433 40 70.4942ZM75.8144 58.0477C75.8057 57.9771 75.7932 57.9071 75.7769 57.8379C75.6654 57.4867 75.5709 57.1295 75.4365 56.7885C74.1078 53.4441 72.2532 50.4049 70.047 47.5763C68.7703 45.9387 67.1114 44.8534 65.1189 44.2729C63.4949 43.7989 61.9041 43.7239 60.3236 44.4758C59.3437 44.9361 58.5295 45.6882 57.9924 46.6293C57.4552 47.5704 57.2213 48.6547 57.3224 49.734C57.4603 51.3367 58.2408 52.4936 59.4886 53.4126C61.6965 55.0392 64.2226 55.9471 66.8476 56.5669C68.8954 57.0494 70.9782 57.3904 73.0524 57.7501C73.9529 57.9078 74.8747 57.9513 75.8144 58.0477ZM82.3358 58.4611C84.3837 57.9888 86.3311 57.5805 88.2555 57.0869C91.1 56.3571 93.8628 55.3938 96.4197 53.9147C98.1475 52.9147 99.5135 51.5806 100.223 49.6641C101.078 47.3513 100.099 45.2047 97.8019 44.3215C96.7445 43.9017 95.5917 43.7837 94.4714 43.9805C92.6321 44.307 90.8362 44.8483 89.5918 46.3155C87.5031 48.7809 85.5829 51.3845 84.0117 54.2216C83.279 55.56 82.716 56.9847 82.3358 58.4628V58.4611Z" fill="#413339"/>
<path d="M45.3623 119V78.6445H64.1896L54.5487 93.9436C55.5462 93.785 56.474 93.6393 57.4017 93.4909C58.7584 93.2744 60.1152 93.0647 61.4702 92.8353C61.7672 92.7859 61.9528 92.8353 62.1349 93.1116C63.1469 94.6188 64.1828 96.1098 65.2109 97.606C65.2501 97.6622 65.2961 97.7142 65.3812 97.8182C69.3977 91.4475 73.393 85.1082 77.4291 78.7059C77.4489 78.8236 77.4628 78.9423 77.4708 79.0614C77.4708 92.2468 77.4708 105.432 77.4708 118.618C77.4708 118.746 77.4597 118.873 77.4538 119H77.3687C77.1984 118.985 77.0325 118.957 76.8648 118.957C66.562 118.957 56.2586 118.957 45.9547 118.957C45.7845 118.957 45.6142 118.985 45.4508 119L45.3623 119Z" fill="#413339"/>
<path d="M45.4473 119.001C45.6175 118.985 45.7835 118.957 45.9511 118.957C56.2539 118.957 66.5573 118.957 76.8612 118.957C77.0315 118.957 77.1974 118.985 77.3651 119.001H45.4473Z" fill="#413339"/>
<path d="M103.769 93.8408L94.1609 78.6406H112.983C112.991 78.7856 113.005 78.9347 113.005 79.0848C113.005 92.2134 113.009 105.342 113.016 118.471C113.016 118.875 112.893 118.962 112.513 118.962C102.186 118.952 91.8589 118.949 81.5317 118.954H81.0508V79.0728L81.1265 79.0319L92.9932 97.8979C93.949 96.4827 94.8784 95.1102 95.8019 93.7359C96.4582 92.7632 96.4531 92.7803 97.62 92.9636C99.564 93.2696 101.511 93.5501 103.457 93.8391C103.561 93.846 103.665 93.8466 103.769 93.8408Z" fill="#413339"/>
</g>
<defs>
<clipPath id="clip0_595_1509">
<rect width="78.3051" height="80" fill="white" transform="translate(40 39)"/>
</clipPath>
</defs>
</svg>
