<svg xmlns="http://www.w3.org/2000/svg" width="45" height="40" viewBox="0 0 45 40" fill="none">
    <path d="M41.5301 3.53629C40.4305 2.41518 39.125 1.52584 37.6881 0.919073C36.2512 0.312305 34.7111 0 33.1557 0C31.6004 0 30.0602 0.312305 28.6233 0.919073C27.1864 1.52584 25.8809 2.41518 24.7814 3.53629L22.4994 5.86189L20.2175 3.53629C17.9965 1.27279 14.9841 0.00117325 11.8431 0.00117327C8.70213 0.0011733 5.68979 1.27279 3.46877 3.53629C1.24775 5.79979 2.34022e-08 8.86975 0 12.0708C-2.34022e-08 15.2719 1.24775 18.3418 3.46877 20.6053L5.75072 22.9309L22.4994 40L39.2481 22.9309L41.5301 20.6053C42.6301 19.4848 43.5028 18.1543 44.0982 16.6899C44.6936 15.2255 45 13.6559 45 12.0708C45 10.4857 44.6936 8.91612 44.0982 7.45174C43.5028 5.98736 42.6301 4.65687 41.5301 3.53629Z" fill="currentColor"/>
</svg>