<svg xmlns="http://www.w3.org/2000/svg" width="26" height="24" viewBox="0 0 26 24" fill="none">
    <path d="M12.9985 23.9987C12.8121 23.9987 12.6291 23.9458 12.4692 23.8456C11.96 23.5311 0 15.9239 0 7.66875C0.000192019 6.15128 0.430705 4.66796 1.23708 3.40649C2.04345 2.14502 3.18942 1.16209 4.53002 0.582082C5.87061 0.00207281 7.34559 -0.148956 8.76827 0.148113C10.1909 0.445182 11.4974 1.17699 12.5223 2.25095L13.0005 2.75216L13.4787 2.25095C14.5035 1.17684 15.8099 0.444894 17.2325 0.147742C18.6552 -0.14941 20.1302 0.00159472 21.4708 0.581647C22.8114 1.1617 23.9573 2.14472 24.7635 3.40629C25.5698 4.66786 26.0001 6.15127 26 7.66875C26 13.1484 20.8605 18.3156 16.5491 21.6867C16.3295 21.8474 16.0587 21.9123 15.7941 21.8679C15.5295 21.8234 15.2918 21.6729 15.1314 21.4483C14.971 21.2237 14.9005 20.9426 14.9348 20.6646C14.9691 20.3865 15.1055 20.1333 15.3151 19.9587C18.5369 17.4422 23.936 12.4973 23.936 7.66875C23.9362 6.57761 23.6269 5.51094 23.0472 4.6038C22.4674 3.69666 21.6434 2.98985 20.6795 2.57287C19.7155 2.15589 18.6549 2.04749 17.632 2.26139C16.6091 2.4753 15.6698 3.00188 14.9332 3.77448L13.7232 5.03797C13.6276 5.13806 13.5141 5.21746 13.3891 5.27163C13.2642 5.3258 13.1302 5.35369 12.995 5.35369C12.8597 5.35369 12.7258 5.3258 12.6008 5.27163C12.4758 5.21746 12.3623 5.13806 12.2667 5.03797L11.0638 3.77343C10.327 3.00092 9.38762 2.47445 8.3646 2.26067C7.34158 2.04688 6.28092 2.15538 5.31689 2.57245C4.35285 2.98952 3.5288 3.6964 2.94904 4.6036C2.36928 5.5108 2.05984 6.57753 2.05997 7.66875C2.05997 14.7076 13.4155 21.9289 13.5298 21.9981C13.7232 22.1193 13.8732 22.3034 13.9568 22.5224C14.0404 22.7413 14.053 22.9829 13.9926 23.2101C13.9323 23.4372 13.8024 23.6374 13.6228 23.7799C13.4432 23.9223 13.2239 23.9992 12.9985 23.9987Z" fill="currentColor"/>
    <path d="M4.99307 11.2057C4.79961 11.2058 4.61007 11.1489 4.44609 11.0415C4.28211 10.9341 4.15031 10.7807 4.06582 10.5986C3.58465 9.56268 3.34106 8.57705 3.34106 7.66901C3.34093 7.12086 3.44407 6.57805 3.64458 6.0716C3.8451 5.56516 4.13906 5.10501 4.50967 4.71745C4.88028 4.32989 5.32028 4.02252 5.8045 3.81291C6.28873 3.6033 6.80769 3.49555 7.33174 3.49582C7.46971 3.49132 7.60712 3.51586 7.73584 3.56798C7.86457 3.62009 7.98195 3.69874 8.08107 3.79922C8.18018 3.89971 8.25901 4.02 8.31283 4.15295C8.36664 4.28591 8.39437 4.42882 8.39437 4.5732C8.39437 4.71758 8.36664 4.86049 8.31283 4.99345C8.25901 5.1264 8.18018 5.2467 8.08107 5.34719C7.98195 5.44768 7.86457 5.52631 7.73584 5.57843C7.60712 5.63054 7.46971 5.65508 7.33174 5.65058C7.07821 5.6503 6.82709 5.70231 6.59279 5.80363C6.3585 5.90496 6.14559 6.05361 5.96627 6.24108C5.78695 6.42855 5.64477 6.65117 5.54778 6.89619C5.45079 7.14121 5.4009 7.40382 5.40104 7.66901C5.40104 8.24781 5.57545 8.91782 5.91928 9.66124C5.99553 9.8255 6.03068 10.0073 6.02134 10.1897C6.012 10.372 5.95852 10.5489 5.86593 10.7037C5.77335 10.8585 5.64466 10.9862 5.49198 11.0747C5.3393 11.1633 5.16764 11.2098 4.99307 11.2099V11.2057Z" fill="currentColor"/>
</svg>
