<svg xmlns="http://www.w3.org/2000/svg" width="40" height="40" viewBox="0 0 40 36">
    <path class="-favorite" d="M35.2241 4.82903C34.3444 3.93215 33.3 3.22067 32.1505 2.73526C31.001 2.24984 29.7689 2 28.5246 2C27.2803 2 26.0482 2.24984 24.8987 2.73526C23.7492 3.22067 22.7047 3.93215 21.8251 4.82903L19.9995 6.68952L18.174 4.82903C16.3972 3.01823 13.9873 2.00094 11.4745 2.00094C8.9617 2.00094 6.55183 3.01823 4.77502 4.82903C2.9982 6.63983 2 9.0958 2 11.6567C2 14.2175 2.9982 16.6735 4.77502 18.4843L6.60058 20.3448L19.9995 34L33.3985 20.3448L35.2241 18.4843C36.1041 17.5878 36.8022 16.5234 37.2785 15.3519C37.7548 14.1804 38 12.9247 38 11.6567C38 10.3886 37.7548 9.1329 37.2785 7.96139C36.8022 6.78989 36.1041 5.7255 35.2241 4.82903Z" fill="inherit" stroke="inherit" stroke-width="3" stroke-linecap="round" stroke-linejoin="round"/>
</svg>