<svg width="27" height="24" viewBox="0 0 27 24" fill="none" xmlns="http://www.w3.org/2000/svg">
<path d="M13.4384 23.9994C13.2457 23.9995 13.0566 23.9466 12.8913 23.8463C12.3648 23.5318 0 15.9246 0 7.66949C0.000198518 6.15201 0.445282 4.66869 1.27895 3.40723C2.11262 2.14576 3.29737 1.16282 4.68334 0.582814C6.06931 0.0028052 7.59421 -0.148223 9.06504 0.148846C10.5359 0.445915 11.8865 1.17773 12.9462 2.25168L13.4405 2.75289L13.9349 2.25168C14.9943 1.17757 16.345 0.445626 17.8158 0.148474C19.2866 -0.148677 20.8115 0.00232712 22.1975 0.582379C23.5834 1.16243 24.7681 2.14545 25.6017 3.40702C26.4352 4.66859 26.8801 6.152 26.88 7.66949C26.88 13.1491 21.5666 18.3164 17.1092 21.6874C16.8822 21.8481 16.6022 21.9131 16.3286 21.8686C16.0551 21.8241 15.8094 21.6736 15.6435 21.449C15.4777 21.2244 15.4048 20.9433 15.4403 20.6653C15.4757 20.3872 15.6167 20.1341 15.8334 19.9594C19.1643 17.4429 24.7461 12.498 24.7461 7.66949C24.7463 6.57834 24.4265 5.51167 23.8272 4.60453C23.2279 3.69739 22.376 2.99059 21.3794 2.5736C20.3828 2.15662 19.2863 2.04822 18.2288 2.26213C17.1712 2.47603 16.2002 3.00261 15.4386 3.77521L14.1877 5.03871C14.0889 5.1388 13.9715 5.21819 13.8423 5.27236C13.7131 5.32654 13.5746 5.35442 13.4348 5.35442C13.2949 5.35442 13.1565 5.32654 13.0273 5.27236C12.8981 5.21819 12.7808 5.1388 12.6819 5.03871L11.4383 3.77416C10.6765 3.00165 9.70536 2.47519 8.64771 2.2614C7.59007 2.04761 6.4935 2.15611 5.49684 2.57318C4.50018 2.99025 3.64824 3.69713 3.04885 4.60433C2.44947 5.51153 2.12956 6.57826 2.12969 7.66949C2.12969 14.7083 13.8696 21.9296 13.9877 21.9988C14.1876 22.12 14.3427 22.3042 14.4291 22.5231C14.5156 22.742 14.5286 22.9836 14.4662 23.2108C14.4039 23.438 14.2696 23.6381 14.0839 23.7806C13.8982 23.9231 13.6715 23.9999 13.4384 23.9994Z" fill="currentColor"/>
<path d="M5.16299 11.2065C4.96299 11.2066 4.76703 11.1497 4.5975 11.0423C4.42797 10.9349 4.29172 10.7815 4.20436 10.5994C3.70691 9.56347 3.45508 8.57784 3.45508 7.66981C3.45494 7.12165 3.56157 6.57884 3.76887 6.0724C3.97617 5.56595 4.28008 5.1058 4.66323 4.71824C5.04639 4.33069 5.50128 4.02331 6.0019 3.8137C6.50251 3.60409 7.03903 3.49634 7.58082 3.49662C7.72346 3.49212 7.86552 3.51665 7.9986 3.56877C8.13169 3.62089 8.25304 3.69953 8.35551 3.80002C8.45798 3.90051 8.53948 4.02079 8.59512 4.15375C8.65075 4.2867 8.67942 4.42961 8.67942 4.57399C8.67942 4.71838 8.65075 4.86129 8.59512 4.99424C8.53948 5.1272 8.45798 5.24749 8.35551 5.34798C8.25304 5.44847 8.13169 5.5271 7.9986 5.57922C7.86552 5.63134 7.72346 5.65587 7.58082 5.65137C7.31871 5.65109 7.05909 5.7031 6.81686 5.80443C6.57464 5.90575 6.35453 6.05441 6.16914 6.24188C5.98375 6.42935 5.83676 6.65196 5.73648 6.89698C5.63621 7.142 5.58464 7.40462 5.58477 7.66981C5.58477 8.2486 5.76509 8.91862 6.12056 9.66203C6.19939 9.8263 6.23572 10.0081 6.22607 10.1905C6.21642 10.3728 6.16112 10.5497 6.0654 10.7045C5.96968 10.8593 5.83664 10.987 5.67879 11.0755C5.52095 11.1641 5.34348 11.2106 5.16299 11.2107V11.2065Z" fill="currentColor"/>
</svg>
