<svg width="36" height="36" viewBox="0 -2 36 36" fill="none" xmlns="http://www.w3.org/2000/svg">
<path fill-rule="evenodd" clip-rule="evenodd" d="M8 15C8.55228 15 9 15.4477 9 16V27.5H27V16C27 15.4477 27.4477 15 28 15C28.5523 15 29 15.4477 29 16V28.5C29 29.0523 28.5523 29.5 28 29.5H8C7.44772 29.5 7 29.0523 7 28.5V16C7 15.4477 7.44772 15 8 15Z" fill="currentColor"/>
<path fill-rule="evenodd" clip-rule="evenodd" d="M4.5 9.75C4.5 9.19772 4.94772 8.75 5.5 8.75H30.5C31.0523 8.75 31.5 9.19772 31.5 9.75V16C31.5 16.5523 31.0523 17 30.5 17H5.5C4.94772 17 4.5 16.5523 4.5 16V9.75ZM6.5 10.75V15H29.5V10.75H6.5Z" fill="currentColor"/>
<path fill-rule="evenodd" clip-rule="evenodd" d="M18 8.75C18.5523 8.75 19 9.19772 19 9.75V28.5C19 29.0523 18.5523 29.5 18 29.5C17.4477 29.5 17 29.0523 17 28.5V9.75C17 9.19772 17.4477 8.75 18 8.75Z" fill="currentColor"/>
<path fill-rule="evenodd" clip-rule="evenodd" d="M12.375 4.5C11.8114 4.5 11.2709 4.72388 10.8724 5.1224C10.4739 5.52091 10.25 6.06141 10.25 6.625C10.25 7.18859 10.4739 7.72909 10.8724 8.1276C11.2709 8.52612 11.8114 8.75 12.375 8.75H16.6749C16.5045 8.26046 16.2675 7.68063 15.9519 7.10692C15.1511 5.65084 14.0064 4.5 12.375 4.5ZM18 9.75C18.9806 9.55388 18.9805 9.55354 18.9804 9.55317L18.9798 9.55015L18.9786 9.54412L18.9747 9.52534C18.9714 9.50988 18.9668 9.48859 18.9609 9.46185C18.9489 9.40838 18.9314 9.33303 18.9079 9.23891C18.8609 9.05088 18.7895 8.78671 18.6897 8.47155C18.4912 7.84482 18.1749 6.99859 17.7043 6.14308C16.7864 4.47416 15.1186 2.5 12.375 2.5C11.281 2.5 10.2318 2.9346 9.45818 3.70818C8.6846 4.48177 8.25 5.53098 8.25 6.625C8.25 7.71902 8.6846 8.76823 9.45818 9.54182C10.2318 10.3154 11.281 10.75 12.375 10.75H18C18.2996 10.75 18.5834 10.6157 18.7733 10.384C18.9633 10.1523 19.0392 9.84694 18.9804 9.55317L18 9.75Z" fill="currentColor"/>
<path fill-rule="evenodd" clip-rule="evenodd" d="M18.2957 6.14308C19.2136 4.47416 20.8814 2.5 23.625 2.5C24.719 2.5 25.7682 2.9346 26.5418 3.70818C27.3154 4.48177 27.75 5.53098 27.75 6.625C27.75 7.71902 27.3154 8.76823 26.5418 9.54182C25.7682 10.3154 24.719 10.75 23.625 10.75H18C17.7004 10.75 17.4166 10.6157 17.2267 10.384C17.0367 10.1523 16.9607 9.84766 17.0194 9.55388L18 9.75C17.0194 9.55388 17.0195 9.55354 17.0196 9.55317L17.0197 9.5523L17.0202 9.55015L17.0214 9.54412L17.0253 9.52534C17.0286 9.50988 17.0332 9.48859 17.0392 9.46185C17.0511 9.40838 17.0686 9.33303 17.0921 9.23891C17.1391 9.05088 17.2105 8.78671 17.3103 8.47155C17.5088 7.84482 17.8251 6.99859 18.2957 6.14308ZM19.3251 8.75H23.625C24.1886 8.75 24.7291 8.52612 25.1276 8.1276C25.5261 7.72909 25.75 7.18859 25.75 6.625C25.75 6.06141 25.5261 5.52091 25.1276 5.1224C24.7291 4.72388 24.1886 4.5 23.625 4.5C21.9936 4.5 20.8489 5.65084 20.0481 7.10692C19.7326 7.68063 19.4955 8.26046 19.3251 8.75Z" fill="currentColor"/>
</svg>
