<svg width="22" height="23" viewBox="0 0 22 23" fill="none" xmlns="http://www.w3.org/2000/svg">
<path fill-rule="evenodd" clip-rule="evenodd" d="M11.4408 8.76576C10.8155 8.67307 10.177 8.77991 9.61642 9.07064C9.05592 9.36133 8.60236 9.82076 8.31936 10.3827C8.03641 10.9446 7.93809 11.581 8.03798 12.2014C8.13787 12.8219 8.43108 13.3959 8.87686 13.8415C9.3227 14.2871 9.89848 14.5816 10.5226 14.6819C11.1467 14.7823 11.7865 14.6834 12.3506 14.3996C12.9147 14.1158 13.3739 13.6619 13.6639 13.1035C13.9537 12.5451 14.0599 11.91 13.9677 11.2883C13.8736 10.6542 13.5779 10.0663 13.1232 9.61185C12.6684 9.15729 12.0787 8.8603 11.4408 8.76576ZM8.69903 7.28508C9.63206 6.80117 10.6935 6.62383 11.7327 6.77785C12.7927 6.93496 13.7748 7.42876 14.5337 8.18731C15.2927 8.94593 15.7881 9.92917 15.9458 10.9921C16.1004 12.0342 15.9223 13.0982 15.4371 14.0327C14.9521 14.9671 14.1851 15.7239 13.2461 16.1963C12.3072 16.6687 11.2436 16.8329 10.2065 16.6661C9.16925 16.4993 8.2103 16.0097 7.4663 15.266C6.72223 14.5223 6.23107 13.5623 6.06364 12.5223C5.8962 11.4822 6.0612 10.416 6.53477 9.47559C7.0083 8.53523 7.76593 7.76902 8.69903 7.28508Z" fill="currentColor"/>
<path fill-rule="evenodd" clip-rule="evenodd" d="M15.4568 6.72908C15.4568 6.17419 15.9045 5.72437 16.4568 5.72437H16.4668C17.0191 5.72437 17.4668 6.17419 17.4668 6.72908C17.4668 7.28396 17.0191 7.73379 16.4668 7.73379H16.4568C15.9045 7.73379 15.4568 7.28396 15.4568 6.72908Z" fill="currentColor"/>
<path fill-rule="evenodd" clip-rule="evenodd" d="M6 2.73611C3.78598 2.73611 2 4.52869 2 6.72904V16.7243C2 18.9247 3.78598 20.7173 6 20.7173H16C18.214 20.7173 20 18.9247 20 16.7243V6.72904C20 4.52869 18.214 2.73611 16 2.73611H6ZM0 6.72904C0 3.40914 2.69117 0.726685 6 0.726685H16C19.3088 0.726685 22 3.40914 22 6.72904V16.7243C22 20.0442 19.3088 22.7267 16 22.7267H6C2.69117 22.7267 0 20.0442 0 16.7243V6.72904Z" fill="currentColor"/>
</svg>
