<svg width="22" height="23" viewBox="0 0 22 23" fill="none" xmlns="http://www.w3.org/2000/svg">
    <path d="M14.9567 11.091C15.0802 11.9189 14.938 12.7645 14.5505 13.5075C14.163 14.2504 13.5499 14.8529 12.7984 15.2292C12.0468 15.6055 11.1952 15.7365 10.3645 15.6035C9.53386 15.4705 8.7665 15.0804 8.17158 14.4885C7.57666 13.8967 7.18447 13.1333 7.05081 12.3069C6.91714 11.4805 7.0488 10.6332 7.42706 9.8856C7.80533 9.13796 8.41092 8.52801 9.15772 8.14251C9.90452 7.75701 10.7545 7.61558 11.5867 7.73836C12.4357 7.86359 13.2216 8.25713 13.8284 8.86085C14.4353 9.46456 14.8309 10.2464 14.9567 11.091Z"
          stroke="currentColor" stroke-width="2" stroke-linecap="round" stroke-linejoin="round"/>
    <path d="M16.457 6.70117H16.467" stroke="currentColor" stroke-width="2" stroke-linecap="round"
          stroke-linejoin="round"/>
    <path d="M16 1.72656H6C3.23858 1.72656 1 3.95359 1 6.70078V16.6492C1 19.3964 3.23858 21.6234 6 21.6234H16C18.7614 21.6234 21 19.3964 21 16.6492V6.70078C21 3.95359 18.7614 1.72656 16 1.72656Z"
          stroke="currentColor" stroke-width="2" stroke-linecap="round" stroke-linejoin="round"/>
</svg>
