<svg width="50" height="47" viewBox="-7 0 35 47" fill="none" xmlns="http://www.w3.org/2000/svg">

<path d="M30.288 27.1068C30.0801 27.1068 29.8722 27.1068 29.6633 27.1068C29.0267 27.1087 28.4164 27.3594 27.9638 27.8049C27.5112 28.2504 27.2525 28.855 27.2436 29.4884C27.2304 29.9343 27.2257 30.3792 27.2124 30.8251C27.1671 32.3442 25.6586 33.2077 24.3098 32.4834C23.9062 32.267 23.5139 32.0319 23.1085 31.825C22.5538 31.535 21.9089 31.4668 21.3054 31.6343C20.702 31.8018 20.1856 32.1923 19.8618 32.7261C19.6226 33.1136 19.3892 33.5077 19.1491 33.8934C18.3731 35.1265 16.6604 35.1416 15.8703 33.9207C15.617 33.5284 15.3845 33.1239 15.1387 32.7279C14.8114 32.183 14.2833 31.7868 13.6667 31.6238C13.0502 31.4607 12.3941 31.5437 11.8381 31.855C11.4601 32.0573 11.0952 32.2727 10.72 32.474C9.34192 33.2114 7.83058 32.3526 7.77293 30.7978C7.75686 30.3632 7.76347 29.9277 7.76064 29.4922C7.7479 28.8754 7.50021 28.2864 7.06767 27.8444C6.63513 27.4024 6.05004 27.1405 5.43077 27.1115C4.95818 27.0964 4.4941 27.0861 4.02623 27.0776C2.51395 27.0485 1.61981 25.5247 2.34571 24.1937C2.55459 23.8118 2.77387 23.4412 2.98559 23.0565C3.29201 22.5074 3.37548 21.8624 3.21885 21.2539C3.06222 20.6455 2.6774 20.1198 2.14344 19.785C1.74741 19.5376 1.34193 19.3034 0.944951 19.057C-0.311193 18.2772 -0.315921 16.5671 0.936442 15.7808C1.34098 15.5268 1.75686 15.2898 2.16518 15.0358C2.68249 14.7057 3.05678 14.1948 3.21425 13.6037C3.37171 13.0125 3.30092 12.3842 3.01584 11.8424C2.80601 11.4502 2.57916 11.0664 2.36555 10.676C1.61603 9.30649 2.47425 7.80244 4.04325 7.74036C4.47992 7.72342 4.91754 7.73095 5.35516 7.72436C5.99129 7.71559 6.59883 7.45994 7.04833 7.01191C7.49783 6.56387 7.75376 5.95886 7.76159 5.32578C7.7682 4.81879 7.75402 4.30803 7.81073 3.8048C7.96952 2.39951 9.43172 1.65736 10.6822 2.33273C11.0659 2.5406 11.4383 2.76353 11.823 2.97423C12.3795 3.27987 13.0325 3.36177 13.6478 3.2031C14.263 3.04442 14.7939 2.65722 15.1312 2.12109C15.3674 1.74484 15.5886 1.35636 15.8192 0.974471C16.6037 -0.317942 18.3826 -0.319823 19.169 0.974471C19.4175 1.38176 19.6557 1.79563 19.9138 2.19728C20.5754 3.22632 22.0357 3.59222 23.117 3.00527C23.5092 2.79269 23.8967 2.56976 24.289 2.3553C25.6444 1.61691 27.1623 2.48229 27.2087 4.02208C27.2228 4.46699 27.2257 4.91285 27.2398 5.35776C27.2546 5.9911 27.5173 6.59366 27.9719 7.03711C28.4265 7.48056 29.0371 7.72985 29.6737 7.73189C30.2039 7.73941 30.7398 7.71778 31.2635 7.78739C31.5659 7.82738 31.8543 7.93922 32.1042 8.11345C32.3541 8.28768 32.5582 8.51919 32.6992 8.78844C32.8403 9.05769 32.9142 9.35676 32.9147 9.66041C32.9152 9.96406 32.8422 10.2634 32.702 10.5331C32.4856 10.9582 32.238 11.3664 32.0102 11.785C31.7047 12.3342 31.6231 12.9793 31.7824 13.5867C31.9416 14.1941 32.3294 14.7173 32.8656 15.048C33.2436 15.286 33.6321 15.5071 34.0149 15.7375C35.3202 16.522 35.3306 18.2772 34.0347 19.0711C33.6567 19.3043 33.2654 19.5263 32.8863 19.7624C32.3411 20.0908 31.9454 20.617 31.7826 21.2302C31.6198 21.8434 31.7028 22.4955 32.0139 23.049C32.2181 23.4252 32.4317 23.7883 32.6359 24.1617C33.392 25.5435 32.4969 27.0541 30.9128 27.0729C30.7049 27.0729 30.4969 27.0729 30.288 27.0729V27.1068ZM16.5272 19.4078C16.4327 19.3194 16.3561 19.2517 16.2843 19.1792C15.3643 18.2631 14.4459 17.3457 13.5291 16.427C13.0697 15.967 12.5234 15.7629 11.8826 15.8955C11.5718 15.9489 11.2828 16.0892 11.0493 16.3001C10.8158 16.511 10.6474 16.7837 10.564 17.0864C10.358 17.7448 10.5139 18.3402 11.0026 18.8293C12.4034 20.2334 13.8085 21.6333 15.2181 23.0292C16.0206 23.8259 17.031 23.8174 17.84 23.0142C19.0266 21.8365 20.2115 20.6579 21.3949 19.4784C22.8303 18.0499 24.2647 16.6208 25.6983 15.191C26.3759 14.5119 26.4279 13.5271 25.8457 12.8244C25.6925 12.637 25.5013 12.4837 25.2847 12.3746C25.0681 12.2654 24.8309 12.2027 24.5884 12.1907C24.3459 12.1786 24.1036 12.2174 23.8771 12.3045C23.6507 12.3917 23.4451 12.5252 23.2739 12.6965C21.7824 14.1573 20.3088 15.6359 18.8315 17.108C18.064 17.8699 17.3022 18.6337 16.5272 19.4078Z" fill="currentColor"/>
<path d="M12.6704 35.4322C14.1345 37.2871 14.1345 37.2871 15.9861 38.1064C14.7479 41.0553 13.5097 44.0051 12.2527 47.0009L10.5409 44.9993C9.66475 43.9731 8.78573 42.9506 7.91711 41.9188C7.8661 41.849 7.7968 41.7946 7.71678 41.7614C7.63676 41.7282 7.54911 41.7176 7.46343 41.7306C5.74446 41.8905 4.02487 42.0454 2.30464 42.1953C1.87175 42.2339 1.43885 42.2659 0.950195 42.3054L4.7829 33.1813C6.76116 36.2336 9.37364 36.9871 12.6704 35.4322Z" fill="currentColor"/>
<path d="M34.0522 42.3091C33.3462 42.2489 32.7148 42.1972 32.0843 42.1417C30.5721 42.0091 29.0598 41.8774 27.5475 41.7363C27.4566 41.7239 27.3641 41.7366 27.2799 41.7729C27.1958 41.8092 27.1232 41.8678 27.0702 41.9423C25.6927 43.5639 24.3112 45.1815 22.9256 46.7949C22.8792 46.8485 22.831 46.8975 22.7441 46.9831L19.0068 38.0829C19.715 37.8744 20.3743 37.5279 20.9467 37.0635C21.519 36.599 21.9928 36.026 22.3405 35.3777C23.728 36.2017 25.194 36.4632 26.7479 36.0201C28.3017 35.5771 29.418 34.5894 30.1921 33.1164L34.0522 42.3091Z" fill="currentColor"/>

</svg>
