<svg width="24" height="24" viewBox="0 0 24 24" fill="none" xmlns="http://www.w3.org/2000/svg">
<path fill-rule="evenodd" clip-rule="evenodd" d="M9 13C9 11.3431 10.3431 10 12 10C13.6569 10 15 11.3431 15 13C15 14.6569 13.6569 16 12 16C10.3431 16 9 14.6569 9 13Z" fill="currentColor"/>
<path fill-rule="evenodd" clip-rule="evenodd" d="M18 13C18 11.3431 19.3431 10 21 10C22.6569 10 24 11.3431 24 13C24 14.6569 22.6569 16 21 16C19.3431 16 18 14.6569 18 13Z" fill="currentColor"/>
<path fill-rule="evenodd" clip-rule="evenodd" d="M0 13C0 11.3431 1.34315 10 3 10C4.65685 10 6 11.3431 6 13C6 14.6569 4.65685 16 3 16C1.34315 16 0 14.6569 0 13Z" fill="currentColor"/>
</svg>
