<svg xmlns="http://www.w3.org/2000/svg" width="27" height="25" viewBox="0 0 27 25" fill="currentColor">
    <path d="M-3.40496e-09 13.036L2.83441 10.6489L9.22232 15.9077C13.9923 10.0859 19.4277 5.06541 25.6921 0.982422C25.7546 1.13449 25.809 1.26412 25.863 1.3949C26.0101 1.74997 26.152 2.10733 26.3071 2.45936C26.3615 2.58216 26.3476 2.65667 26.2505 2.7502C24.9377 4.01805 23.6947 5.35661 22.5007 6.74498C20.7379 8.80348 19.0821 10.9574 17.5403 13.1975C16.2797 15.0223 15.0893 16.8966 13.9912 18.8309C12.9251 20.7108 11.9229 22.626 11.1358 24.6535C11.1138 24.7101 11.0855 24.7641 11.0494 24.8436L-3.40496e-09 13.036Z"/>
</svg>