<svg width="24" height="24" viewBox="-1 -1 24 24" fill="none" xmlns="http://www.w3.org/2000/svg">
<path d="M16.9061 21.9998C7.57419 21.9889 0.0108683 14.4105 0 5.06001C0 3.71805 0.532029 2.43105 1.47905 1.48214C2.42607 0.533234 3.7105 0.000142816 5.04979 0.000142816C5.33343 -0.00216878 5.61661 0.0235861 5.89521 0.0770324C6.1645 0.117018 6.42924 0.183334 6.68563 0.275031C6.86592 0.338417 7.02657 0.447873 7.15169 0.592569C7.2768 0.737265 7.36205 0.912187 7.39898 1.10003L8.90308 7.69999C8.94364 7.87916 8.93875 8.06566 8.88887 8.24246C8.83899 8.41925 8.74571 8.58071 8.61754 8.71209C8.47494 8.86587 8.46407 8.87709 7.11377 9.58098C8.19507 11.9579 10.0923 13.8667 12.46 14.9599C13.1736 13.5961 13.1845 13.5848 13.3383 13.442C13.4694 13.3136 13.6305 13.2202 13.8069 13.1702C13.9833 13.1202 14.1693 13.1153 14.3481 13.1559L20.9349 14.663C21.1164 14.7051 21.2842 14.7928 21.4225 14.918C21.5608 15.0431 21.665 15.2014 21.7253 15.3781C21.8182 15.6391 21.888 15.9077 21.9341 16.1809C21.9783 16.4574 22.0003 16.7369 22 17.0168C21.9798 18.3531 21.4328 19.6271 20.4784 20.5607C19.524 21.4943 18.2398 22.0116 16.9061 21.9998ZM5.04979 2.19991C4.29364 2.20278 3.56927 2.50503 3.03459 3.04078C2.4999 3.57653 2.19825 4.30234 2.19539 5.06001C2.20165 13.1981 8.78419 19.7938 16.9061 19.8C17.6622 19.7972 18.3866 19.4949 18.9213 18.9592C19.456 18.4234 19.7576 17.6976 19.7605 16.9399V16.5769L14.6666 15.3998L14.3481 16.0051C13.8541 16.962 13.4918 17.655 12.5696 17.2808C10.7505 16.6284 9.09921 15.5781 7.7358 14.2062C6.37239 12.8344 5.33107 11.1755 4.68751 9.34998C4.2923 8.49199 5.03892 8.09599 5.98281 7.60099L6.58682 7.30399L5.41206 2.19991H5.04979Z" fill="currentColor"/>
</svg>
