<svg width="36" height="36" viewBox="0 -2 36 34" fill="none" xmlns="http://www.w3.org/2000/svg">

<path fill-rule="evenodd" clip-rule="evenodd" d="M8 4.75C7.60217 4.75 7.22064 4.90804 6.93934 5.18934C6.65804 5.47064 6.5 5.85217 6.5 6.25V13.75C6.5 16.8 7.7116 19.7251 9.86827 21.8817C10.9361 22.9496 12.2039 23.7967 13.5991 24.3746C14.9944 24.9525 16.4898 25.25 18 25.25C21.05 25.25 23.9751 24.0384 26.1317 21.8817C28.2884 19.7251 29.5 16.8 29.5 13.75V6.25C29.5 5.85218 29.342 5.47064 29.0607 5.18934C28.7794 4.90803 28.3978 4.75 28 4.75H8ZM5.52513 3.77513C6.1815 3.11875 7.07174 2.75 8 2.75H28C28.9283 2.75 29.8185 3.11875 30.4749 3.77513C31.1313 4.4315 31.5 5.32174 31.5 6.25V13.75C31.5 17.3304 30.0777 20.7642 27.5459 23.2959C25.0142 25.8277 21.5804 27.25 18 27.25C16.2272 27.25 14.4717 26.9008 12.8338 26.2224C11.1959 25.5439 9.70765 24.5495 8.45406 23.2959C5.92232 20.7642 4.5 17.3304 4.5 13.75V6.25C4.5 5.32174 4.86875 4.4315 5.52513 3.77513Z" fill="currentColor"/>
<path fill-rule="evenodd" clip-rule="evenodd" d="M12.2929 11.7929C12.6834 11.4024 13.3166 11.4024 13.7071 11.7929L18 16.0858L22.2929 11.7929C22.6834 11.4024 23.3166 11.4024 23.7071 11.7929C24.0976 12.1834 24.0976 12.8166 23.7071 13.2071L18.7071 18.2071C18.3166 18.5976 17.6834 18.5976 17.2929 18.2071L12.2929 13.2071C11.9024 12.8166 11.9024 12.1834 12.2929 11.7929Z" fill="currentColor"/>

</svg>
