<svg width="50" height="47" viewBox="0 0 50 47" fill="none" xmlns="http://www.w3.org/2000/svg">

<path d="M35.9596 15.9296C36.379 16.3955 36.7931 16.8369 37.1825 17.3011C37.268 17.4232 37.3051 17.5724 37.2865 17.7199C37.2072 18.3044 37.0909 18.8838 37.001 19.4648C36.8645 20.3145 37.0489 21.1842 37.519 21.9077C37.5493 21.9608 37.5763 22.0156 37.6001 22.0718C36.9887 22.6197 36.3667 23.1362 35.794 23.6928C33.2408 26.1549 31.2937 29.0445 29.6955 32.1785C27.4049 36.6542 25.9565 41.4075 24.908 46.2933C24.8957 46.3579 24.8851 46.4224 24.8693 46.487C24.7918 46.7941 24.6385 47.0401 24.2737 46.9895C23.909 46.9389 23.812 46.6807 23.8209 46.3561C23.8631 44.9008 23.8649 43.4438 23.953 41.9938C24.123 39.2712 24.5358 36.5688 25.1864 33.9182C26.027 30.3655 27.3926 26.9551 29.2392 23.7975C30.9887 20.7997 33.2645 18.1353 35.9596 15.9296Z" fill="currentColor"/>
<path d="M12.2729 0.352474C12.1196 1.94735 11.991 3.43579 11.8253 4.92074C11.7974 5.05843 11.8106 5.20118 11.8631 5.33161C11.9157 5.46204 12.0054 5.57452 12.1214 5.65535C13.2297 6.55051 14.3222 7.4666 15.4199 8.37571C15.471 8.41759 15.5415 8.44899 15.5679 8.50134C15.6525 8.66711 15.7988 8.85033 15.7706 9.00389C15.7424 9.15744 15.5221 9.26564 15.3635 9.30229C14.153 9.58671 12.9389 9.85369 11.7214 10.1119C10.5619 10.358 10.5655 10.351 10.125 11.4538C9.67211 12.5863 9.21927 13.7222 8.74175 14.8425C8.66951 15.017 8.47569 15.2281 8.32767 15.2368C8.17966 15.2456 7.96467 15.0519 7.86776 14.8878C7.09128 13.6233 6.32773 12.3501 5.57709 11.0682C5.52638 10.9633 5.44664 10.8748 5.34713 10.813C5.24763 10.7512 5.13245 10.7187 5.01501 10.7192C3.52079 10.6284 2.02773 10.5249 0.535863 10.4086C0.347324 10.3946 0.0794917 10.2951 0.00724758 10.159C-0.0649966 10.0229 0.0636332 9.7612 0.183453 9.6216C1.15023 8.50949 2.13053 7.40436 3.12433 6.30621C3.21786 6.21863 3.28413 6.10637 3.31535 5.9827C3.34658 5.85903 3.34144 5.72911 3.30053 5.60824C2.92111 4.18902 2.55988 2.76632 2.21687 1.34012C2.17458 1.16562 2.1834 0.85328 2.29265 0.774757C2.38748 0.730588 2.49067 0.706803 2.59546 0.704998C2.70024 0.703193 2.80422 0.723401 2.90055 0.764277C4.26907 1.32848 5.62997 1.91012 6.98323 2.50922C7.09751 2.56826 7.22651 2.59355 7.35489 2.58211C7.48327 2.57066 7.60563 2.52296 7.70743 2.44466C8.96906 1.6478 10.2377 0.862577 11.5135 0.0889859C11.6767 -0.00406192 11.8704 -0.0297664 12.0526 0.0174373C12.1848 0.0610608 12.2359 0.282676 12.2729 0.352474Z" fill="currentColor"/>
<path d="M16.4466 12.3769C17.1215 14.7116 17.8316 16.9748 18.4289 19.2641C19.3183 22.7592 19.9659 26.3102 20.3672 29.8926C20.9579 35.0392 21.2286 40.2169 21.1777 45.3964C21.1777 45.6459 21.1566 45.9094 20.8412 45.9199C20.554 45.9199 20.5099 45.6791 20.4694 45.4487C19.8298 41.9414 19.2712 38.4201 18.5311 34.9354C17.5532 30.3585 16.3004 25.8496 14.4273 21.5361C13.72 19.8539 12.8502 18.2434 11.8301 16.727C11.7569 16.6371 11.7113 16.5283 11.6988 16.4136C11.6863 16.2988 11.7074 16.1829 11.7596 16.0796C12.1273 15.2246 12.4767 14.362 12.808 13.4919C12.8441 13.3759 12.9132 13.2726 13.0069 13.1943C13.1006 13.116 13.215 13.0661 13.3366 13.0504C14.3322 12.848 15.3224 12.6229 16.4466 12.3769Z" fill="currentColor"/>
<path d="M40.2414 19.8016C40.4176 18.7913 40.5938 17.7181 40.7894 16.6502C40.8173 16.545 40.8136 16.4341 40.7789 16.3309C40.7441 16.2277 40.6798 16.1367 40.5938 16.0691C39.8379 15.3537 39.0872 14.6331 38.3542 13.895C38.2838 13.8272 38.2285 13.7457 38.1918 13.6555C38.1551 13.5654 38.1378 13.4686 38.141 13.3715C38.1657 13.2493 38.4247 13.1185 38.5956 13.0905C39.6405 12.916 40.6889 12.7695 41.7374 12.6334C41.8413 12.6281 41.9416 12.5936 42.0264 12.534C42.1113 12.4743 42.1773 12.392 42.2166 12.2966C42.666 11.377 43.117 10.4592 43.5945 9.55354C43.6932 9.36858 43.8959 9.14698 44.0738 9.12604C44.2078 9.11033 44.4262 9.3616 44.5214 9.53959C44.983 10.4225 45.4236 11.3177 45.8535 12.2163C45.8988 12.3365 45.9787 12.4409 46.0833 12.5166C46.1879 12.5922 46.3126 12.6359 46.442 12.6421C47.4675 12.7642 48.4878 12.9195 49.5062 13.0888C49.6824 13.1202 49.9503 13.2528 49.9926 13.3924C50.0349 13.532 49.8886 13.7798 49.7565 13.9159C49.0293 14.6418 48.2898 15.3555 47.538 16.0569C47.4464 16.1292 47.3778 16.226 47.3403 16.3359C47.3028 16.4457 47.298 16.5639 47.3266 16.6764C47.5186 17.6797 47.6984 18.6848 47.8552 19.6951C47.872 19.7975 47.8674 19.9023 47.8416 20.0028C47.8158 20.1034 47.7695 20.1976 47.7054 20.2797C47.6103 20.3652 47.3072 20.3076 47.1416 20.2256C46.1953 19.7562 45.2685 19.2519 44.3223 18.7843C44.2386 18.7496 44.1487 18.7318 44.058 18.7318C43.9672 18.7318 43.8774 18.7496 43.7937 18.7843C42.8245 19.2641 41.8713 19.7772 40.9074 20.2692C40.4722 20.4821 40.2114 20.3163 40.2414 19.8016Z" fill="currentColor"/>
<path d="M37.6112 35.9179C37.7204 36.7485 38.1063 37.3958 38.575 38.0118C38.6339 38.1054 38.6696 38.2115 38.6791 38.3213C38.6886 38.4312 38.6717 38.5418 38.6297 38.6439C38.5878 38.7461 38.522 38.8369 38.4377 38.909C38.3535 38.9811 38.2532 39.0325 38.1451 39.0588C35.8051 39.4549 33.7575 40.4704 31.9232 41.9362C30.5676 43.0314 29.37 44.3054 28.3639 45.7227C28.3269 45.7751 28.2864 45.8274 28.2458 45.8798C27.9304 46.2776 27.6115 46.3823 27.2573 46.2078C26.9032 46.0333 26.8133 45.6843 26.9543 45.2237C28.0344 41.657 30.3445 39.1268 33.6501 37.4273C34.9085 36.7772 36.2373 36.2708 37.6112 35.9179Z" fill="currentColor"/>
<path d="M24.0957 8.03896L26.2384 8.73693C26.2775 8.74248 26.3163 8.75005 26.3547 8.75962C26.5696 8.85734 27.0595 10.1556 26.9679 10.3615C25.9171 12.5676 25.1476 14.8946 24.6772 17.2889C24.2578 19.409 23.9724 21.5553 23.6517 23.6911C23.6129 23.9406 23.5865 24.1832 23.2622 24.1744C22.938 24.1657 22.9398 23.9301 22.9098 23.6963C22.5574 20.4699 22.3953 17.24 22.7513 14.0032C22.9392 12.0317 23.3652 10.0897 24.0199 8.21867C24.0569 8.12968 24.0975 8.03023 24.0957 8.03896Z" fill="currentColor"/>
<path d="M2.71358 27.345C3.46774 27.4549 4.18667 27.5753 4.90911 27.6538C5.0931 27.6629 5.27335 27.6002 5.41129 27.4793C5.89233 27.0099 6.32933 26.4987 6.80861 26.0293C6.87396 25.9638 6.95233 25.9124 7.03878 25.8785C7.12523 25.8445 7.21786 25.8287 7.31079 25.8321C7.43237 25.8565 7.561 26.0869 7.59448 26.2439C7.73192 26.8983 7.85173 27.5561 7.94689 28.2174C7.95516 28.3262 7.99593 28.4301 8.06403 28.5159C8.13212 28.6017 8.22443 28.6654 8.32924 28.699C8.92129 28.9573 9.51157 29.2225 10.0913 29.5192C10.1807 29.5621 10.2602 29.6228 10.3248 29.6976C10.3894 29.7723 10.4377 29.8595 10.4666 29.9537C10.4807 30.0793 10.2693 30.2765 10.1142 30.3637C9.55034 30.6813 8.97593 30.9785 8.39093 31.2554C8.28284 31.2991 8.18995 31.373 8.12361 31.4682C8.05727 31.5633 8.02035 31.6755 8.01737 31.7911C7.95394 32.4036 7.88696 33.0125 7.77948 33.6215C7.74247 33.8274 7.6209 34.0996 7.45879 34.1764C7.3425 34.2322 7.06233 34.0508 6.90903 33.9129C6.42976 33.4819 5.98748 33.0108 5.49939 32.5798C5.36533 32.475 5.19526 32.4262 5.02539 32.4437C4.34524 32.5501 3.67391 32.7054 2.99552 32.8119C2.90968 32.8272 2.82148 32.8241 2.73696 32.8027C2.65243 32.7814 2.57356 32.7422 2.50567 32.688C2.46838 32.6103 2.44903 32.5253 2.44903 32.4393C2.44903 32.3533 2.46838 32.2684 2.50567 32.1907C2.78231 31.5817 3.08537 30.9849 3.40078 30.3951C3.46163 30.304 3.49409 30.1972 3.49409 30.088C3.49409 29.9788 3.46163 29.872 3.40078 29.7809C3.04837 29.1946 2.72239 28.5961 2.40522 27.9923C2.19201 27.6277 2.36293 27.3432 2.71358 27.345Z" fill="currentColor"/>
<path d="M33.4067 1.08188C33.2692 1.64899 33.1653 2.26145 32.9644 2.84077C32.7882 3.34681 32.9063 3.69231 33.2816 4.04653C33.676 4.4328 34.0484 4.84059 34.3969 5.26799C34.7124 5.63967 34.5873 5.94676 34.0974 5.99737C33.4384 6.06367 32.7776 6.11429 32.1151 6.14046C31.9914 6.13593 31.8692 6.16804 31.764 6.2327C31.6588 6.29735 31.5756 6.39161 31.5248 6.5034C31.2164 7.06702 30.8905 7.62366 30.5433 8.16459C30.45 8.30942 30.2438 8.48217 30.1028 8.4717C29.9619 8.46123 29.7768 8.26404 29.7046 8.10699C29.4191 7.48754 29.176 6.84716 28.9011 6.22596C28.8268 6.08683 28.7002 5.98217 28.5487 5.93455C27.9461 5.78274 27.3294 5.68503 26.7303 5.52449C26.5012 5.42997 26.2855 5.3062 26.0889 5.15631C26.1933 4.94437 26.3241 4.74622 26.4783 4.56652C26.9329 4.14774 27.4315 3.77256 27.8879 3.35552C28.0053 3.23076 28.0686 3.06534 28.0641 2.89486C28.0201 2.22829 27.9214 1.56697 27.8774 0.9004C27.8668 0.725906 27.9285 0.4659 28.0536 0.389123C28.1787 0.312345 28.4412 0.362964 28.5927 0.448466C29.1795 0.77826 29.7363 1.1569 30.3248 1.48495C30.4902 1.56307 30.6798 1.57434 30.8535 1.51637C31.5054 1.26335 32.138 0.96321 32.7917 0.696234C33.13 0.560129 33.4049 0.725912 33.4067 1.08188Z" fill="currentColor"/>
<path d="M42.5551 35.1012C43.4661 35.4345 44.0723 34.9477 44.5251 34.1154C44.6866 33.8286 44.8831 33.5625 45.1101 33.3231C45.237 33.1853 45.4449 33.0265 45.607 33.037C45.7321 33.037 45.8942 33.2813 45.9594 33.447C46.1691 34.0525 46.3611 34.6685 46.5215 35.2879C46.5444 35.4074 46.6033 35.5172 46.6904 35.6028C46.7776 35.6885 46.8888 35.746 47.0096 35.7678C47.6298 35.9423 48.243 36.1447 48.8545 36.3698C48.9416 36.4014 49.021 36.4508 49.0875 36.5149C49.154 36.5789 49.2061 36.6561 49.2404 36.7415C49.2685 36.8619 49.1135 37.073 48.9831 37.169C48.4545 37.5599 47.9047 37.9281 47.3514 38.2875C47.2482 38.3423 47.1636 38.4259 47.1081 38.528C47.0527 38.6301 47.0288 38.7461 47.0396 38.8616C47.0625 39.5159 47.0607 40.172 47.0396 40.8246C47.0396 40.9852 46.9462 41.2312 46.8316 41.2766C46.7413 41.2979 46.6475 41.2998 46.5563 41.2824C46.4652 41.2649 46.3788 41.2285 46.303 41.1754C45.7638 40.7985 45.2458 40.3954 44.7172 39.9853C44.6371 39.9095 44.5364 39.8585 44.4274 39.8386C44.3185 39.8188 44.206 39.831 44.104 39.8737C43.482 40.0935 42.8547 40.3012 42.2186 40.4809C42.1311 40.508 42.0388 40.5166 41.9477 40.5061C41.8566 40.4955 41.7688 40.4661 41.69 40.4198C41.5895 40.3204 41.5842 40.0551 41.6353 39.8963C41.8327 39.2734 42.0582 38.6574 42.2926 38.0467C42.3406 37.9482 42.3583 37.8379 42.3432 37.7296C42.3282 37.6212 42.2811 37.5197 42.208 37.4377C41.7957 36.9084 41.4004 36.3675 41.0221 35.8149C40.9721 35.7449 40.938 35.6649 40.9222 35.5806C40.9064 35.4962 40.9092 35.4095 40.9305 35.3264C40.9886 35.262 41.0594 35.21 41.1384 35.1737C41.2175 35.1374 41.3033 35.1175 41.3904 35.1152C41.7358 35.0768 42.0952 35.1012 42.5551 35.1012Z" fill="currentColor"/>
<path d="M13.1223 32.1209C14.1096 33.5058 14.9437 34.9917 15.6103 36.553C16.9231 39.5631 17.7248 42.7197 18.301 45.9339C18.3539 46.2253 18.2834 46.4678 17.968 46.5516C17.6526 46.6353 17.4852 46.4381 17.3636 46.1781C16.5513 44.4454 15.7778 42.6883 14.9143 40.9869C13.9016 38.9826 12.6466 37.1076 11.177 35.4031C10.9198 35.1065 10.9162 34.8273 10.9321 34.4539C10.9656 33.7123 11.3233 33.3284 11.9717 33.0283C12.3858 32.8311 12.7135 32.4594 13.1223 32.1209Z" fill="currentColor"/>

</svg>
