<svg width="50" height="47" viewBox="-12 0 24 47" fill="none" xmlns="http://www.w3.org/2000/svg">

<path d="M12.4979 47C12.3167 46.9847 12.1355 46.9521 11.9553 46.9578C11.7447 46.9645 11.6508 46.8916 11.6448 46.6868C11.6274 46.0634 11.5834 45.4433 11.5819 44.8217C11.5703 41.1145 11.5641 37.4072 11.5635 33.7V33.4635H16.5258C16.5303 33.5177 16.5408 33.5858 16.5408 33.6554C16.5408 37.5241 16.5385 41.3915 16.5338 45.2577C16.5338 45.7046 16.5083 46.1516 16.4889 46.6005C16.4744 46.9238 16.4424 46.9463 16.111 46.9592C15.9542 46.9655 15.799 46.988 15.6428 47.0034L12.4979 47Z" fill="currentColor"/>
<path d="M5.90836 0C6.3701 0.143878 6.58524 0.439306 6.57027 0.911224C6.5528 1.44453 6.57426 1.9788 6.55179 2.51162C6.53831 2.84734 6.17093 3.14756 5.81102 3.16099C5.45111 3.17442 5.03978 2.90249 5.02032 2.56869C4.98487 1.95769 4.98088 1.34286 4.99836 0.730898C5.00984 0.335714 5.3333 0.157786 5.65877 0H5.90836Z" fill="currentColor"/>
<path d="M9.32048 10.9098C8.87122 10.7851 8.42794 10.6992 8.01562 10.5438C6.60694 10.0134 5.62805 9.06764 5.18378 7.66627C4.95965 6.95984 4.92571 6.22078 4.99709 5.48557C5.03353 5.10861 5.43238 4.78057 5.78829 4.78872C6.22907 4.79879 6.50261 5.0549 6.55552 5.51147C6.61193 6.00209 6.6274 6.50039 6.72824 6.98238C6.98581 8.21157 7.81246 8.91273 9.06739 9.15589C9.69186 9.27722 10.3283 9.33861 10.9548 9.44988C11.5096 9.54873 12.0333 9.76895 12.4853 10.0935C12.721 10.2577 13.0029 10.3493 13.2939 10.3563C14.3063 10.41 15.3221 10.422 16.3309 10.5098C18.3806 10.6882 20.3388 11.1707 22.086 12.2723C22.9085 12.7815 23.5473 13.5223 23.915 14.3935C23.9505 14.4908 23.9664 14.5936 23.9619 14.6966C23.9725 19.2511 23.9812 23.806 23.9878 28.3611C23.9878 28.8556 23.9913 29.3505 23.9998 29.845C23.9998 29.9759 23.9694 30.0531 23.8346 30.1227C22.368 30.8809 20.7946 31.3087 19.1578 31.5514C17.2379 31.8391 15.3051 31.8871 13.3673 31.8507C12.1957 31.8281 11.0212 31.83 9.8546 31.7351C8.78486 31.6478 7.72111 31.4675 6.66285 31.2862C5.85868 31.149 5.06547 30.9505 4.3212 30.6076C4.15348 30.5303 4.10107 30.444 4.10157 30.2675C4.11355 27.071 4.11454 23.8741 4.12403 20.6757C4.13002 18.6863 4.12403 16.6951 4.17994 14.7081C4.19042 14.3422 4.42952 13.9547 4.64567 13.6266C5.15433 12.855 5.89061 12.3116 6.72724 11.891C7.55242 11.4753 8.42187 11.1463 9.32048 10.9098ZM14.1056 18.3204C14.8104 18.2878 15.5193 18.2912 16.2186 18.2139C17.3705 18.092 18.5018 17.8317 19.5861 17.4389C20.4347 17.1286 21.2638 16.7713 21.8718 16.0932C22.4459 15.4529 22.5028 15.0083 21.9921 14.3412C21.9512 14.2905 21.9069 14.2424 21.8593 14.1974C21.2239 13.5619 20.4242 13.1801 19.5891 12.8607C18.4994 12.444 17.3607 12.2147 16.1981 12.0886C15.671 12.0315 15.1414 11.9927 14.6133 11.9404C14.4111 11.9207 14.3612 12.0176 14.4026 12.1855C14.4199 12.2469 14.442 12.307 14.4685 12.3653C14.7485 13.0401 14.8898 13.7379 14.8414 14.4654C14.8349 14.5652 14.8229 14.6837 14.7645 14.758C14.5968 14.9714 14.3861 15.1743 14.0871 15.145C13.7667 15.1143 13.4697 14.9868 13.3513 14.6578C13.2788 14.4643 13.2276 14.264 13.1986 14.0602C13.1296 13.4656 12.926 12.8926 12.6021 12.3816C12.4483 12.1389 12.2526 12.0133 11.9457 12.0723C11.2243 12.2109 10.4925 12.3058 9.78122 12.4785C8.64509 12.7547 7.54889 13.1399 6.61592 13.853C5.68296 14.5662 5.52322 15.4122 6.43921 16.2577C7.09713 16.8653 7.91428 17.2145 8.76089 17.508C10.488 18.1103 12.2786 18.3204 14.1056 18.3204ZM19.008 20.7414C18.8138 21.138 18.6316 21.4862 18.4734 21.8444C18.3641 22.09 18.1799 22.2147 17.9168 22.255C17.8195 22.2698 17.7226 22.2885 17.6253 22.3029L16.6334 22.4718C16.6669 22.5216 16.7032 22.5696 16.7423 22.6156C17.0448 22.9226 17.3468 23.23 17.6543 23.5331C17.7391 23.6165 17.7835 23.6837 17.7541 23.8184C17.6543 24.2645 17.5829 24.7162 17.498 25.1767C17.5409 25.1799 17.5841 25.1774 17.6263 25.169C17.8759 25.063 18.1469 24.9867 18.3641 24.8381C18.8293 24.5191 19.2536 24.5561 19.7119 24.8477C19.9575 25.0045 20.243 25.1033 20.5555 25.2491C20.5026 24.9345 20.4891 24.6683 20.4097 24.4213C20.2495 23.9235 20.2859 23.5153 20.7671 23.1782C21.0167 23.0017 21.2044 22.7379 21.4625 22.4698C21.1555 22.4219 20.9134 22.3638 20.6708 22.3528C20.0937 22.3274 19.6535 22.1384 19.4388 21.5749C19.3335 21.3011 19.1693 21.0474 19.008 20.739V20.7414ZM7.57385 25.2831C8.04608 25.0433 8.4579 24.8448 8.85724 24.6251C9.01798 24.5369 9.14027 24.5326 9.3015 24.6218C9.62447 24.7997 9.95843 24.9575 10.2929 25.1167C10.3673 25.1512 10.4621 25.145 10.548 25.1575C10.5604 25.0673 10.5954 24.9733 10.5814 24.887C10.528 24.5575 10.4816 24.2242 10.3872 23.9048C10.3273 23.7029 10.4042 23.5945 10.534 23.4693C10.8719 23.1427 11.2024 22.8089 11.5598 22.4545C11.15 22.4013 10.7761 22.3394 10.4002 22.3068C10.0662 22.2775 9.81866 22.1898 9.68088 21.8478C9.52864 21.4699 9.30251 21.1198 9.09485 20.7313C8.89518 21.1212 8.6955 21.4684 8.53726 21.8344C8.41446 22.1183 8.24125 22.2886 7.9088 22.2962C7.75184 22.307 7.59566 22.3265 7.44106 22.3547C7.19447 22.3878 6.94837 22.4219 6.6284 22.466C6.97084 22.8084 7.23741 23.1168 7.54939 23.3743C7.81146 23.5911 7.86786 23.806 7.78051 24.1192C7.68117 24.4712 7.64773 24.8429 7.57385 25.2807V25.2831ZM16.5531 27.5003C16.0973 27.4283 15.677 27.3487 15.2552 27.2993C14.9946 27.2691 14.8319 27.1483 14.7156 26.9344C14.5104 26.5579 14.2968 26.1848 14.0757 25.7896C13.8485 26.2212 13.6289 26.6231 13.4292 27.0322C13.3414 27.2111 13.234 27.2931 13.0159 27.2984C12.6929 27.3128 12.3714 27.3484 12.0535 27.4048C11.744 27.4528 11.7125 27.5487 11.9282 27.7684C12.1858 28.0288 12.4608 28.2739 12.7149 28.5357C12.7772 28.6079 12.8075 28.7008 12.7993 28.7942C12.7319 29.2618 12.6465 29.7275 12.5576 30.2474C13.0418 30.0196 13.4721 29.8229 13.8959 29.6143C13.9511 29.5828 14.0144 29.5667 14.0786 29.5678C14.1428 29.5689 14.2054 29.5872 14.2593 29.6206C14.6722 29.8325 15.0945 30.0277 15.5128 30.2296L15.5752 30.1817C15.5048 29.7596 15.4254 29.3386 15.372 28.9146C15.3602 28.7961 15.3959 28.6777 15.4719 28.5837C15.8148 28.2197 16.1777 27.872 16.5531 27.4979V27.5003Z" fill="currentColor"/>
<path d="M23.9794 31.9336C23.9794 32.1614 23.9794 32.3734 23.9794 32.5854C23.9749 35.9742 23.9759 39.363 23.9589 42.7527C23.9564 43.2227 23.6524 43.6045 23.3674 43.9603C22.6476 44.862 21.6897 45.4701 20.6044 45.8878C19.962 46.1348 19.3006 46.3382 18.6397 46.5367C18.3342 46.6283 18.2344 46.6326 18.2274 46.259C18.2224 46.0039 18.1904 45.7487 18.1904 45.4917C18.1904 42.3903 18.1921 39.289 18.1954 36.1876C18.1954 35.3008 18.2119 34.4131 18.2164 33.5273C18.2164 33.3949 18.2284 33.3067 18.4026 33.2808C20.258 33.0055 22.1125 32.7221 23.8366 31.9504C23.8835 31.94 23.9313 31.9344 23.9794 31.9336Z" fill="currentColor"/>
<path d="M4.11546 32.231C6.02631 32.9259 7.98358 33.1297 9.95035 33.3662C9.95035 33.4808 9.95035 33.5753 9.95035 33.6702C9.94569 37.4002 9.94053 41.1301 9.93487 44.86C9.93487 45.3152 9.9164 45.7713 9.89893 46.2245C9.88445 46.5976 9.85251 46.6211 9.46515 46.5228C8.0979 46.1761 6.79155 45.7013 5.66241 44.8519C4.98552 44.3426 4.52179 43.6841 4.18833 42.9335C4.16683 42.8741 4.1575 42.8112 4.16088 42.7484C4.1449 39.4025 4.12977 36.0562 4.11546 32.7096C4.11496 32.5739 4.11546 32.4391 4.11546 32.231Z" fill="currentColor"/>
<path d="M3.28114 3.9763C3.1259 3.91395 2.9352 3.88757 2.82189 3.78446C2.20657 3.21631 1.60306 2.63648 1.01137 2.04498C0.786736 1.82005 0.802717 1.52223 0.932005 1.26037C1.06728 0.986044 1.31587 0.805238 1.64433 0.825381C1.82304 0.836411 2.03968 0.892044 2.16347 1.00427C2.76249 1.54477 3.33904 2.10733 3.9106 2.67133C4.14721 2.90585 4.17916 3.20464 4.02991 3.49335C3.88565 3.77151 3.65153 3.95232 3.28114 3.9763Z" fill="currentColor"/>
<path d="M10.7615 1.63398C10.6526 1.8215 10.5773 2.03923 10.4285 2.19078C9.92934 2.70235 9.41352 3.19953 8.88107 3.68232C8.46974 4.05688 8.01499 4.03577 7.65408 3.67033C7.44093 3.45403 7.38652 3.20992 7.53079 2.95094C7.63861 2.75526 7.75641 2.55432 7.91465 2.39749C8.40035 1.9179 8.89853 1.44886 9.41219 0.995642C9.68474 0.755846 10.0202 0.760162 10.3412 0.918907C10.6252 1.05943 10.7061 1.31313 10.7036 1.60041L10.7615 1.63398Z" fill="currentColor"/>
<path d="M0.798828 9.52567C0.917133 9.33383 1.00349 9.11418 1.16023 8.95927C1.69336 8.43172 2.24446 7.92383 2.80254 7.42458C3.17393 7.08886 3.50588 7.09701 3.85531 7.40491C4.17029 7.6826 4.2212 8.09217 3.89923 8.42501C3.31769 9.02545 2.70121 9.59617 2.08273 10.1602C1.87257 10.352 1.60351 10.4345 1.306 10.2777C1.00849 10.1208 0.863223 9.90646 0.862225 9.56404L0.798828 9.52567Z" fill="currentColor"/>
<path d="M1.6335 6.34836C1.28408 6.32966 0.934647 6.33925 0.591212 6.28553C0.0780567 6.20544 -0.161049 5.65487 0.117992 5.23283C0.293703 4.96714 0.51734 4.77194 0.884735 4.78633C1.48375 4.80935 2.07976 4.79832 2.67478 4.83908C3.10657 4.86882 3.41906 5.50476 3.2124 5.87309C3.04517 6.17091 2.79759 6.33973 2.43269 6.33157C2.16663 6.32582 1.90056 6.33157 1.634 6.33157L1.6335 6.34836Z" fill="currentColor"/>
<path d="M9.92368 6.35124C9.56827 6.32918 9.21036 6.32487 8.85794 6.28074C8.522 6.23854 8.29686 5.92489 8.30285 5.56519C8.30934 5.16569 8.53447 4.86307 8.90187 4.84581C9.53932 4.81175 10.1788 4.79497 10.8172 4.80696C11.1986 4.81367 11.566 5.21797 11.576 5.57431C11.583 5.88364 11.3014 6.29082 10.8731 6.31575C10.5586 6.33398 10.2422 6.31911 9.92468 6.31911L9.92368 6.35124Z" fill="currentColor"/>

</svg>
