<svg xmlns="http://www.w3.org/2000/svg" width="40" height="40" viewBox="0 0 40 40" fill="none">
    <path d="M19.9973 39.9929C15.8367 39.9929 11.6761 39.9929 7.51553 39.9929C5.70929 40.0012 3.96101 39.3559 2.5933 38.1762C1.2256 36.9965 0.330791 35.3619 0.074003 33.5741C0.0239646 33.2112 0.000322051 32.8451 0.00326904 32.4788C-0.00108968 24.1887 -0.00108968 15.8984 0.00326904 7.60798C0.00326904 4.33918 1.8583 1.63677 4.89911 0.457628C5.69711 0.15298 6.54487 -0.000394719 7.39903 0.00534553C15.7892 0.002572 24.1791 0.002572 32.5689 0.00534553C36.6522 0.0118831 39.9872 3.3526 39.992 7.42909C40.0015 15.7984 39.9825 24.1683 40.0009 32.5376C40.0098 36.5749 36.5654 40.0261 32.5118 39.9982C28.3375 39.9685 24.1674 39.9929 19.9973 39.9929ZM23.3395 9.98291C22.4854 10.0221 21.6752 10.0423 20.8657 10.1018C18.2915 10.2902 15.7713 10.7448 13.4265 11.8729C11.0235 13.0282 9.22019 14.8219 8.08078 17.2367C7.2124 19.0791 6.84686 21.0517 6.72204 23.0742C6.61149 24.8631 6.64477 26.6354 7.17852 28.3714C7.98805 31.0031 9.3777 33.3174 11.0176 35.4998C11.2553 35.8213 11.6244 35.8991 11.9739 35.7535C12.3834 35.583 12.5344 35.344 12.4916 34.8923C12.4238 34.1732 12.3281 33.4559 12.2747 32.7355C12.1237 30.6869 12.0702 28.64 12.4161 26.6021C12.5861 25.6006 12.8518 24.6301 13.3196 23.7238C14.157 22.1042 15.5491 21.1907 17.2424 20.6808C19.1503 20.1067 21.1189 20.0175 23.0934 19.9878C23.2759 19.9878 23.349 20.0472 23.3312 20.2255C23.3273 20.2948 23.3273 20.3643 23.3312 20.4336C23.3312 21.662 23.3341 22.8899 23.3312 24.1184C23.3312 24.6788 23.5017 25.1495 23.9796 25.4764C24.7559 26.0078 25.5589 25.9329 26.262 25.2387C27.5429 23.971 28.813 22.692 30.088 21.4178C31.818 19.6883 33.5474 17.9582 35.2762 16.2275C36.0245 15.4757 36.0245 14.5343 35.2762 13.7824C33.9016 12.3985 32.5229 11.0178 31.14 9.64058C29.4663 7.96616 27.7917 6.29273 26.1164 4.6203C25.7598 4.2637 25.333 4.0854 24.823 4.16861C23.8792 4.3267 23.343 4.95965 23.3407 5.91593C23.3371 7.1444 23.3407 8.37228 23.3407 9.60075L23.3395 9.98291Z" fill="currentColor"/>
</svg>