<svg width="22" height="23" viewBox="0 0 22 23" fill="none" xmlns="http://www.w3.org/2000/svg">
<path fill-rule="evenodd" clip-rule="evenodd" d="M6 2.73611C3.78598 2.73611 2 4.52869 2 6.72904V16.7243C2 18.9247 3.78598 20.7173 6 20.7173H16C18.214 20.7173 20 18.9247 20 16.7243V6.72904C20 4.52869 18.214 2.73611 16 2.73611H6ZM0 6.72904C0 3.40914 2.69117 0.726685 6 0.726685H16C19.3088 0.726685 22 3.40914 22 6.72904V16.7243C22 20.0442 19.3088 22.7267 16 22.7267H6C2.69117 22.7267 0 20.0442 0 16.7243V6.72904Z" fill="currentColor"/>
<path d="M16.9969 7.86564C16.9649 8.07507 16.9077 8.45669 16.848 8.8365C16.7193 9.65729 16.5899 10.4779 16.4597 11.2983C16.3813 11.7933 16.3022 12.2881 16.2224 12.7829C16.1302 13.358 16.0381 13.9331 15.9459 14.5083C15.8374 15.1805 15.7311 15.8533 15.615 16.5242C15.5727 16.7702 15.4643 16.9937 15.2481 17.149C14.9992 17.3288 14.7148 17.3106 14.4306 17.2489C14.0873 17.1741 13.7773 17.023 13.4861 16.8419C12.8269 16.4307 12.1658 16.0234 11.5196 15.5953C10.9737 15.2337 10.4409 14.8539 9.91511 14.4666C9.57778 14.2181 9.56042 13.8185 9.86413 13.5371C10.3319 13.1039 10.8108 12.6814 11.2853 12.2546C11.5077 12.0544 11.7317 11.8557 11.9529 11.6545C12.4681 11.1866 12.9855 10.7214 13.4923 10.2458C13.6081 10.1371 13.693 9.9947 13.7733 9.85773C13.8047 9.80402 13.815 9.69558 13.7806 9.66166C13.7421 9.62388 13.6298 9.61643 13.5707 9.6411C13.3538 9.73181 13.1298 9.82098 12.9329 9.94716C11.7045 10.7255 10.4824 11.5132 9.25861 12.2982C8.83288 12.5714 8.41556 12.8567 7.98088 13.1157C7.68259 13.2935 7.33685 13.293 6.99491 13.2699C6.54776 13.2401 6.13613 13.0774 5.71257 12.9597C5.24942 12.8312 4.7906 12.6835 4.32691 12.5601C4.05113 12.4869 3.83745 12.1145 4.16665 11.8704C4.31738 11.7625 4.48059 11.6713 4.65312 11.5985C5.11411 11.3945 5.58132 11.1997 6.048 11.0059C6.9076 10.649 7.76503 10.2864 8.63032 9.94279C9.92406 9.42755 11.2227 8.92336 12.5207 8.41814C13.5561 8.0152 14.5926 7.61534 15.6305 7.21857C15.8054 7.15175 15.9844 7.08417 16.1682 7.05102C16.6826 6.95851 17.0357 7.14893 16.9969 7.86564Z" fill="currentColor"/>
</svg>
