<svg width="22" height="23" viewBox="0 0 22 23" fill="none" xmlns="http://www.w3.org/2000/svg">
<path d="M16 1.72656H6C3.23858 1.72656 1 3.95359 1 6.70078V16.6492C1 19.3964 3.23858 21.6234 6 21.6234H16C18.7614 21.6234 21 19.3964 21 16.6492V6.70078C21 3.95359 18.7614 1.72656 16 1.72656Z" stroke="currentColor" stroke-width="2" stroke-linecap="round" stroke-linejoin="round"/>
<g clip-path="url(#clip0_12_152)">
<path d="M16.9971 7.83242C16.9651 8.04087 16.9079 8.4207 16.8483 8.79873C16.7196 9.61567 16.5901 10.4324 16.46 11.249C16.3815 11.7417 16.3024 12.2342 16.2227 12.7266C16.1305 13.2991 16.0383 13.8715 15.9461 14.4439C15.8376 15.113 15.7313 15.7826 15.6153 16.4504C15.573 16.6952 15.4645 16.9177 15.2484 17.0722C14.9995 17.2513 14.715 17.2331 14.4308 17.1717C14.0875 17.0973 13.7776 16.9469 13.4863 16.7666C12.8271 16.3573 12.166 15.9519 11.5198 15.5258C10.974 15.1659 10.4411 14.7879 9.91536 14.4025C9.57802 14.1551 9.56067 13.7574 9.86437 13.4773C10.3321 13.0461 10.811 12.6256 11.2856 12.2008C11.5079 12.0015 11.7319 11.8038 11.9532 11.6035C12.4684 11.1378 12.9858 10.6748 13.4926 10.2014C13.6084 10.0932 13.6932 9.9515 13.7735 9.81517C13.805 9.76171 13.8153 9.65378 13.7808 9.62002C13.7423 9.58242 13.6301 9.575 13.5709 9.59956C13.354 9.68984 13.13 9.77859 12.9332 9.90418C11.7048 10.6789 10.4826 11.4629 9.25886 12.2442C8.83312 12.5161 8.4158 12.8 7.98112 13.0579C7.68284 13.2349 7.3371 13.2343 6.99516 13.2113C6.548 13.1817 6.13638 13.0197 5.71282 12.9026C5.24966 12.7747 4.79085 12.6277 4.32715 12.5049C4.05138 12.432 3.8377 12.0614 4.16689 11.8184C4.31763 11.711 4.48084 11.6203 4.65337 11.5478C5.11435 11.3447 5.58157 11.1508 6.04825 10.958C6.90784 10.6027 7.76527 10.2418 8.63057 9.89983C9.9243 9.38701 11.2229 8.88518 12.521 8.38233C13.5563 7.98128 14.5929 7.5833 15.6307 7.18838C15.8056 7.12188 15.9846 7.05461 16.1685 7.02162C16.6829 6.92954 17.0359 7.11907 16.9971 7.83242Z" fill="currentColor"/>
</g>
<defs>
<clipPath id="clip0_12_152">
<rect width="13" height="10.2143" fill="currentColor" transform="translate(4 7)"/>
</clipPath>
</defs>
</svg>
