<svg width="101" height="101" viewBox="0 0 101 101" fill="none" xmlns="http://www.w3.org/2000/svg">
<path d="M27.1172 77.9583V76.9949C27.1172 74.4531 27.1702 71.9097 27.1027 69.3695C27.024 66.4022 28.0839 63.8717 29.8968 61.6173C32.4067 58.4975 35.7484 56.606 39.5429 55.5977C47.5108 53.4782 55.482 53.4605 63.3087 56.2303C67.4998 57.7139 70.8849 60.2927 72.8616 64.4273C73.5643 65.8777 73.9184 67.4722 73.8957 69.0837C73.8636 71.7331 73.8861 74.3824 73.8861 77.0302V77.9615L27.1172 77.9583Z" fill="currentColor"/>
<path d="M36.4826 37.0814C36.4826 29.2233 42.7901 22.9708 50.7164 22.9756C58.3423 22.9756 64.666 29.363 64.6628 37.0589C64.6628 44.8737 58.3857 51.1889 50.6184 51.1889C48.761 51.201 46.9196 50.8446 45.2009 50.1402C43.4821 49.4359 41.9202 48.3976 40.6055 47.0856C39.2908 45.7735 38.2495 44.2137 37.5417 42.4965C36.834 40.7793 36.474 38.9387 36.4826 37.0814Z" fill="currentColor"/>
</svg>
