<svg xmlns="http://www.w3.org/2000/svg" width="57" height="40" viewBox="0 0 57 40" fill="none">
    <path d="M24.207 0H32.2887C32.3736 0.0155715 32.4594 0.0262628 32.5455 0.0320403C34.5796 0.0607744 36.6127 0.0751425 38.6457 0.116033C42.3552 0.191184 46.0593 0.376845 49.7446 0.815592C52.6686 1.16372 54.6556 2.78499 55.7231 5.51914C56.2607 6.89616 56.445 8.37155 56.58 9.82925C56.7577 11.7489 56.8378 13.6774 56.9607 15.6026C56.9673 15.7131 56.987 15.8126 57.0002 15.9175V23.9962C56.9837 24.2173 56.9574 24.4383 56.953 24.6593C56.8894 27.5592 56.6908 30.4459 56.0632 33.2795C55.3994 36.2845 53.6308 38.2969 50.6323 39.044C49.5428 39.3159 48.3896 39.3457 47.2629 39.4507C43.6148 39.7922 39.9546 39.9259 36.2912 39.958C31.9409 39.9956 27.5907 39.9934 23.2404 39.9801C17.94 39.9646 12.6462 39.7944 7.37098 39.2242C4.30659 38.8926 1.80286 36.7685 1.06227 33.7514C0.403972 31.0891 0.160397 28.3693 0.0912755 25.6374C-0.0250242 21.0068 -0.0886596 16.3729 0.249268 11.7467C0.383122 9.89666 0.585003 8.04884 1.08092 6.26291C1.90709 3.27899 3.82384 1.35271 6.8959 0.880806C9.11108 0.540418 11.3647 0.408902 13.6073 0.298387C16.5565 0.152506 19.5122 0.117141 22.4658 0.035359C23.0473 0.0298333 23.6277 0.0154722 24.207 0ZM21.1755 28.9142C27.2187 25.7578 33.2268 22.6214 39.2788 19.464L21.1755 9.95966V28.9142Z" fill="currentColor"/>
</svg>