<svg width="22" height="23" viewBox="0 0 22 23" fill="none" xmlns="http://www.w3.org/2000/svg">
<path d="M16 1.72656H6C3.23858 1.72656 1 3.95359 1 6.70078V16.6492C1 19.3964 3.23858 21.6234 6 21.6234H16C18.7614 21.6234 21 19.3964 21 16.6492V6.70078C21 3.95359 18.7614 1.72656 16 1.72656Z" stroke="currentColor" stroke-width="2" stroke-linecap="round" stroke-linejoin="round"/>
<g clip-path="url(#clip0_12_138)">
<path d="M17.9992 15.9992C17.2423 15.9992 16.5151 16.0022 15.7852 15.9924C15.7342 15.9924 15.6604 15.9048 15.6379 15.8421C15.3476 15.0463 14.8909 14.3667 14.2086 13.8476C13.6897 13.4486 13.0666 13.2036 12.412 13.1413V15.9905C11.8034 16.0228 11.1931 15.98 10.5952 15.8631C7.84842 15.3215 6.22347 13.6051 5.43535 11.0258C5.15222 10.0981 5.0255 9.14413 5 8.17622C5 8.12134 5 8.06608 5 8.00067H7.20035C7.23117 8.36641 7.25058 8.73365 7.2951 9.09788C7.43705 10.256 7.75519 11.3532 8.48661 12.2974C8.89874 12.8286 9.40336 13.2473 10.053 13.4736C10.1165 13.4958 10.1827 13.5112 10.2733 13.5345V8.00142H12.4105V11.154C12.8515 11.1063 13.2191 10.9333 13.5521 10.6928C14.4392 10.0538 15.0066 9.19224 15.3533 8.17434C15.3731 8.11607 15.3913 8.05706 15.4092 7.99805H17.5106C17.1567 9.71547 16.2004 11.0051 14.7649 11.9824C16.4063 12.8741 17.4676 14.2062 17.9992 15.9992Z" fill="currentColor"/>
</g>
<defs>
<clipPath id="clip0_12_138">
<rect width="13" height="8" fill="currentColor" transform="translate(5 8)"/>
</clipPath>
</defs>
</svg>
