<svg width="22" height="23" viewBox="0 0 22 23" fill="none" xmlns="http://www.w3.org/2000/svg">
<path fill-rule="evenodd" clip-rule="evenodd" d="M6 2.73611C3.78598 2.73611 2 4.52869 2 6.72904V16.7243C2 18.9247 3.78598 20.7173 6 20.7173H16C18.214 20.7173 20 18.9247 20 16.7243V6.72904C20 4.52869 18.214 2.73611 16 2.73611H6ZM0 6.72904C0 3.40914 2.69117 0.726685 6 0.726685H16C19.3088 0.726685 22 3.40914 22 6.72904V16.7243C22 20.0442 19.3088 22.7267 16 22.7267H6C2.69117 22.7267 0 20.0442 0 16.7243V6.72904Z" fill="currentColor"/>
<path d="M18 16.0708C17.2431 16.0708 16.5158 16.0738 15.7859 16.064C15.7349 16.064 15.6611 15.976 15.6387 15.913C15.3483 15.1135 14.8916 14.4307 14.2093 13.9091C13.6904 13.5082 13.0673 13.2621 12.4127 13.1995V16.0621C11.8041 16.0945 11.1938 16.0515 10.596 15.9341C7.84916 15.3899 6.2242 13.6655 5.43608 11.074C5.15295 10.142 5.02623 9.18349 5.00073 8.21102C5.00073 8.15588 5.00073 8.10036 5.00073 8.03465H7.20108C7.2319 8.40211 7.25131 8.77108 7.29584 9.13703C7.43778 10.3006 7.75592 11.403 8.48734 12.3517C8.89948 12.8853 9.40409 13.306 10.0537 13.5333C10.1172 13.5556 10.1835 13.5711 10.274 13.5945V8.03541H12.4112V11.2028C12.8523 11.1549 13.2199 10.9811 13.5529 10.7394C14.4399 10.0974 15.0073 9.23183 15.354 8.20913C15.3738 8.1506 15.3921 8.09131 15.4099 8.03201H17.5113C17.1574 9.75753 16.2011 11.0533 14.7657 12.0352C16.407 12.931 17.4683 14.2694 18 16.0708Z" fill="currentColor"/>
</svg>
