<svg width="91" height="88" viewBox="0 0 91 88" fill="none" xmlns="http://www.w3.org/2000/svg">
<path d="M86.2534 13.2816V70.6964C86.1244 71.3932 86.037 72.1019 85.8564 72.7888C84.4251 78.3075 79.5833 81.9959 73.7687 81.9979C54.6781 81.9979 35.5868 81.9979 16.4948 81.9979C15.7538 82.0054 15.0134 81.951 14.2814 81.8351C11.4015 81.3688 8.78309 79.8886 6.89857 77.6616C5.01405 75.4345 3.98753 72.6073 4.0042 69.6899C3.99626 51.2266 3.99957 32.7646 4.01413 14.3039C4.01105 13.3954 4.10825 12.4893 4.30396 11.6021C5.6102 5.867 10.4957 2.00586 16.4134 2.00586C35.561 2.00586 54.7085 2.00586 73.8561 2.00586C74.4427 2.0065 75.0288 2.04296 75.611 2.11504C77.9614 2.41846 80.1724 3.40073 81.9731 4.94156C83.7738 6.4824 85.086 8.51491 85.7492 10.7902C85.9735 11.6021 86.0866 12.4518 86.2534 13.2816ZM45.1169 77.305C54.7118 77.305 64.3068 77.305 73.9017 77.305C78.2056 77.305 81.5545 73.9878 81.5565 69.686C81.5658 51.2226 81.5658 32.7606 81.5565 14.3C81.5565 9.99613 78.2056 6.6829 73.9017 6.6829C54.7118 6.6829 35.5219 6.6829 16.3321 6.6829C15.8849 6.6798 15.4383 6.71767 14.998 6.79605C11.2262 7.49086 8.69514 10.5242 8.69514 14.3595C8.69514 32.7818 8.69514 51.2048 8.69514 69.6284C8.68789 70.1612 8.73512 70.6933 8.83609 71.2165C9.17412 72.9489 10.109 74.508 11.4779 75.6223C12.8468 76.7365 14.5631 77.3355 16.3281 77.3149C25.9257 77.3123 35.5219 77.309 45.1169 77.305Z" fill="currentColor"/>
<path d="M42.7881 48.1334C42.7881 41.896 42.7881 35.6586 42.7881 29.4212C42.8118 29.2873 42.7815 29.1494 42.7037 29.0377C42.626 28.9261 42.5071 28.8499 42.3732 28.8257C40.5512 28.1979 39.0024 26.9593 37.9893 25.32C36.9762 23.6806 36.5613 21.7413 36.8148 19.8309C37.2714 16.0909 40.3881 13.0337 44.1897 12.6168C46.2487 12.3948 48.3172 12.9405 49.9987 14.1495C51.6802 15.3584 52.8563 17.1454 53.3016 19.1679C54.2346 23.2116 51.9119 27.4063 47.9238 28.8098C47.5545 28.9408 47.4533 29.1036 47.4533 29.4848C47.4652 41.9066 47.4652 54.3264 47.4533 66.7442C47.4533 67.9353 46.8756 68.8267 45.881 69.1681C45.5292 69.2897 45.1534 69.3258 44.7849 69.2735C44.4163 69.2212 44.0655 69.0819 43.7614 68.8672C43.4572 68.6525 43.2086 68.3685 43.0359 68.0387C42.8632 67.709 42.7715 67.3428 42.7683 66.9706C42.7465 66.1765 42.7683 65.4043 42.7683 64.6201L42.7881 48.1334ZM45.1088 24.6291C45.8396 24.6338 46.5554 24.4213 47.1653 24.0185C47.7751 23.6157 48.2516 23.0409 48.5342 22.3669C48.8168 21.6929 48.8927 20.9501 48.7525 20.2328C48.6122 19.5156 48.262 18.8561 47.7464 18.3382C47.2307 17.8203 46.5728 17.4673 45.8561 17.3239C45.1395 17.1806 44.3964 17.2533 43.7212 17.533C43.0459 17.8127 42.469 18.2867 42.0636 18.8948C41.6582 19.5029 41.4426 20.2177 41.4442 20.9486C41.4442 21.9219 41.8298 22.8557 42.5166 23.5455C43.2034 24.2352 44.1354 24.6249 45.1088 24.6291Z" fill="currentColor"/>
<path d="M70.473 43.0853C74.3063 44.5444 76.5456 47.2145 76.4721 51.3496C76.4007 55.3199 74.1733 57.8609 70.473 59.2585V59.6674C70.473 62.0992 70.473 64.533 70.473 66.9668C70.4723 67.4494 70.3223 67.9198 70.0435 68.3137C69.7647 68.7075 69.3708 69.0054 68.916 69.1664C68.4611 69.3274 67.9675 69.3436 67.5031 69.2128C67.0386 69.0819 66.626 68.8106 66.322 68.4358C65.9539 67.9712 65.7638 67.3904 65.786 66.7981C65.786 64.406 65.786 62.0139 65.786 59.6237C65.8067 59.4974 65.7766 59.368 65.7022 59.2639C65.6278 59.1597 65.5152 59.0893 65.389 59.0679C63.7478 58.5092 62.3216 57.4527 61.3088 56.0456C60.2961 54.6385 59.7471 52.9507 59.7384 51.217C59.7297 49.4834 60.2616 47.7901 61.2601 46.3729C62.2586 44.9556 63.6741 43.8849 65.3096 43.3097C65.6649 43.1846 65.79 43.0357 65.79 42.6427C65.7741 34.1726 65.7701 25.6967 65.7781 17.2147C65.7781 15.9958 66.3994 15.1005 67.4516 14.7829C67.7907 14.6808 68.1485 14.6571 68.4982 14.7134C68.8478 14.7697 69.1801 14.9046 69.4701 15.1079C69.76 15.3113 70 15.5778 70.172 15.8874C70.344 16.1969 70.4435 16.5415 70.463 16.8951C70.463 17.0639 70.463 17.2306 70.463 17.3993V43.0853H70.473ZM68.1384 54.8554C68.8688 54.853 69.582 54.6338 70.1876 54.2257C70.7933 53.8175 71.2641 53.2388 71.5405 52.5628C71.8169 51.8867 71.8863 51.1439 71.7401 50.4283C71.5938 49.7128 71.2385 49.0568 70.719 48.5434C70.1995 48.0301 69.5393 47.6825 68.822 47.5447C68.1048 47.407 67.3628 47.4853 66.6901 47.7696C66.0174 48.054 65.4443 48.5317 65.0434 49.1422C64.6425 49.7526 64.4318 50.4684 64.4381 51.1987C64.4409 51.6818 64.5389 52.1595 64.7264 52.6047C64.9139 53.0499 65.1873 53.4539 65.5309 53.7934C65.8745 54.133 66.2817 54.4015 66.7291 54.5837C67.1764 54.7659 67.6554 54.8582 68.1384 54.8554Z" fill="currentColor"/>
<path d="M24.4689 25.3154C24.4689 28.0569 24.4689 30.7984 24.4689 33.5399C24.4498 33.666 24.4806 33.7946 24.5547 33.8984C24.6288 34.0021 24.7404 34.073 24.8659 34.0958C26.515 34.6571 27.9468 35.7208 28.9604 37.1376C29.9739 38.5544 30.5183 40.253 30.517 41.995C30.5156 43.737 29.9687 45.4349 28.9531 46.8501C27.9374 48.2653 26.5039 49.3269 24.854 49.8858C24.5423 49.993 24.457 50.1418 24.4689 50.4515C24.4781 55.8948 24.4781 61.3368 24.4689 66.7775C24.4689 67.9249 23.9051 68.7924 22.9423 69.1597C22.5906 69.292 22.2121 69.3374 21.839 69.2921C21.466 69.2469 21.1094 69.1122 20.7995 68.8996C20.4897 68.687 20.2357 68.4027 20.0592 68.0709C19.8828 67.7391 19.789 67.3696 19.7859 66.9939C19.766 65.2171 19.7859 63.4404 19.7859 61.6637C19.7859 57.9276 19.7859 54.1935 19.7859 50.4575C19.7859 50.1438 19.7065 50.0029 19.3889 49.8957C17.7356 49.3368 16.2994 48.2733 15.2826 46.8549C14.2658 45.4366 13.7197 43.7349 13.7212 41.9897C13.7227 40.2446 14.2718 38.5439 15.2911 37.1273C16.3104 35.7108 17.7485 34.6497 19.4028 34.0938C19.522 34.072 19.6279 34.0042 19.6977 33.9051C19.7675 33.806 19.7956 33.6834 19.776 33.5638C19.768 28.0953 19.768 22.6255 19.776 17.1544C19.776 16.0328 20.3715 15.1514 21.3462 14.8159C22.8946 14.2799 24.453 15.4114 24.4609 17.0968C24.4808 19.8324 24.4689 22.5739 24.4689 25.3154ZM18.434 41.9789C18.4324 42.7102 18.6481 43.4254 19.0535 44.034C19.459 44.6426 20.0361 45.1171 20.7116 45.3973C21.387 45.6776 22.1305 45.7509 22.8477 45.608C23.5649 45.4651 24.2236 45.1125 24.7401 44.5949C25.2567 44.0772 25.6079 43.4178 25.7492 42.7003C25.8905 41.9828 25.8156 41.2394 25.5339 40.5646C25.2522 39.8897 24.7765 39.3137 24.167 38.9095C23.5576 38.5053 22.8418 38.2913 22.1105 38.2944C21.135 38.2975 20.2005 38.687 19.5115 39.3775C18.8225 40.068 18.435 41.0034 18.434 41.9789Z" fill="currentColor"/>
</svg>
