<svg width="91" height="80" viewBox="0 0 91 80" fill="none" xmlns="http://www.w3.org/2000/svg">
<path d="M13.7052 80.0019C13.3679 79.8976 13.0377 79.7715 12.7167 79.6246C12.2742 79.4015 11.8943 79.0716 11.6114 78.6648C11.3286 78.2579 11.1516 77.7869 11.0966 77.2944C11.0636 77.0186 11.0488 76.7409 11.0522 76.4632C11.0522 64.0757 11.0522 51.6876 11.0522 39.2988V38.7218C13.344 38.3518 15.4954 37.3768 17.2843 35.8973V56.1812H73.2942V35.75C75.0765 37.2762 77.2369 38.2943 79.5484 38.6976V76.1283C79.5484 78.4262 79.0602 79.1545 76.962 80.0019H13.7052Z" fill="currentColor"/>
<path d="M0 23.5242L8.14667 14.7925C9.49436 13.35 10.8441 11.9075 12.1817 10.4549C12.2728 10.344 12.3883 10.2557 12.5192 10.1969C12.6501 10.1381 12.7928 10.1104 12.9362 10.1159C34.5558 10.124 56.176 10.1301 77.7969 10.1341C78.0623 10.1393 78.3165 10.242 78.5111 10.4226C82.5246 14.697 86.5253 18.9842 90.5132 23.2842C90.655 23.4541 90.7334 23.6681 90.7351 23.8894C90.6928 28.0878 87.2126 31.9715 83.0363 32.5021C77.8614 33.1619 73.4492 29.8229 72.6724 24.6621C72.6442 24.5736 72.6112 24.4868 72.5736 24.4019C72.2306 26.9722 71.1613 29.0199 69.2326 30.5815C68.3166 31.3449 67.255 31.9143 66.1122 32.2548C64.9695 32.5954 63.7694 32.7001 62.5849 32.5627C60.5263 32.3495 58.6019 31.4411 57.1289 29.9872C55.656 28.5334 54.7226 26.6209 54.4826 24.5653C53.2721 29.8612 50.0683 32.948 44.494 32.5082C39.8033 32.139 37.1886 29.1067 36.2707 24.4382C35.8853 27.2627 34.6123 29.4496 32.3567 31.0193C30.7403 32.1591 28.7852 32.7174 26.8106 32.603C24.6449 32.5241 22.5836 31.6525 21.0183 30.1538C19.3922 28.6346 18.4783 26.7462 18.1192 24.5451C18.0344 24.9486 17.9658 25.3682 17.863 25.7738C16.7836 30.0327 12.8737 32.8451 8.39079 32.597C4.22667 32.3649 0.661737 29.0018 0.0847316 24.763C0.063327 24.6583 0.0350236 24.5552 0 24.4543V23.5242Z" fill="currentColor"/>
<path d="M79.4714 6.48082C78.4788 6.4546 77.468 6.40214 76.4451 6.40214C55.2734 6.40214 34.1011 6.40214 12.9281 6.40214C12.3229 6.40214 11.7378 6.49697 11.0902 6.55144C11.1043 6.58372 11.0619 6.53126 11.0619 6.47881C11.0619 5.26831 11.0216 4.06991 11.0881 2.8695C11.1362 2.09813 11.4755 1.37381 12.0373 0.843083C12.5991 0.312351 13.3415 0.0148236 14.1144 0.0106935C14.2677 0.0106935 14.4231 0.0106935 14.5764 0.0106935C35.0554 0.0106935 55.5344 0.0106935 76.0134 0.0106935C76.4589 -0.00534683 76.9044 0.0456602 77.3348 0.162006C78.5009 0.533227 79.318 1.34023 79.433 2.56082C79.5662 3.88228 79.4714 5.22594 79.4714 6.48082Z" fill="currentColor"/>
</svg>
