<svg width="94" height="88" viewBox="0 0 94 88" fill="none" xmlns="http://www.w3.org/2000/svg">
<path d="M4.00397 42.0295C4.00397 34.1143 4.00397 26.2005 4.00397 18.288C3.98907 16.7777 4.32628 15.2846 4.98884 13.9273C5.75424 12.4097 6.78011 11.0383 8.01972 9.87544C9.70954 8.30321 11.6258 6.9935 13.7043 5.99007C15.9488 4.85412 18.3203 3.98887 20.769 3.41253C21.8281 3.16982 22.8972 2.96924 23.9543 2.72051C26.9752 2.01043 30.0441 1.9643 33.1231 2.01444C34.4771 2.03651 35.8311 1.98837 37.183 2.0345C38.3334 2.0637 39.4812 2.15746 40.6211 2.31532C42.1532 2.52524 43.6732 2.8165 45.1744 3.18787C46.8393 3.62315 48.4801 4.17276 50.0988 4.76047C52.7885 5.70754 55.2941 7.113 57.5045 8.91463C59.1433 10.2746 60.5534 11.8292 61.4961 13.7909C62.2297 15.2989 62.6162 16.9521 62.6274 18.629C62.6274 19.983 62.6274 21.337 62.6274 22.6929C62.6274 23.4592 62.6274 23.4431 63.3696 23.4672C64.1118 23.4913 64.9141 23.4672 65.6543 23.6176C67.0785 23.9105 68.4906 24.2756 69.8827 24.6908C70.8767 24.9796 71.8454 25.3492 72.7791 25.796C73.8783 26.3336 74.9013 27.0216 75.9745 27.6013C77.5436 28.4902 78.9748 29.6031 80.2229 30.9049C81.4689 32.1554 82.6417 33.4768 83.7352 34.8625C84.4773 35.8113 85.053 36.9025 85.6187 37.9756C86.2337 39.0984 86.7699 40.2626 87.2234 41.4598C87.7247 42.9013 88.1492 44.3683 88.4951 45.8547C89.1992 48.7431 89.0006 51.6958 88.8963 54.6163C88.7971 56.4308 88.475 58.2261 87.9375 59.9619C87.0459 63.0187 85.6383 65.9006 83.7753 68.4829C80.8551 72.584 76.8851 75.8238 72.2817 77.8623C71.2023 78.3293 70.0884 78.7123 68.9499 79.0076C67.947 79.2905 66.924 79.4389 65.9171 79.6836C64.182 80.1069 62.4168 80.1329 60.6497 80.1008C59.728 80.0951 58.8083 80.0146 57.8996 79.8601C56.4654 79.5974 55.0513 79.2303 53.6311 78.8973C53.4864 78.8459 53.3478 78.7786 53.2179 78.6967C52.3494 78.2675 51.5872 78.448 50.7066 78.8492C49.335 79.4428 47.9167 79.9218 46.4662 80.2814C44.9237 80.6926 43.3511 80.9975 41.7785 81.2743C40.4515 81.52 39.1124 81.6941 37.7667 81.7958C35.7609 81.9262 33.755 82.0104 31.7591 81.9964C30.131 81.9865 28.5049 81.882 26.8889 81.6835C25.2495 81.4884 23.6228 81.1991 22.0167 80.8169C20.095 80.3556 18.1714 79.8642 16.3601 79.0357C15.0643 78.434 13.6863 77.9967 12.4707 77.2726C10.5712 76.1413 8.67965 74.9377 7.25548 73.1926C6.43709 72.1897 5.6187 71.1426 5.037 69.9953C4.5292 69.0096 4.22495 67.9318 4.14237 66.826C3.98993 64.074 4.01199 61.3119 4.00397 58.5518C3.99394 53.0457 4.00397 47.5376 4.00397 42.0295ZM61.3718 29.21C60.3488 29.3524 59.0329 29.4647 57.7472 29.7335C56.3571 30.0244 54.9389 30.3353 53.6351 30.8608C51.3937 31.7759 49.3268 33.0706 47.5253 34.688C45.4437 36.5373 43.7277 38.7609 42.4665 41.2432C42.0005 42.1674 41.5983 43.1224 41.2629 44.1015C40.9588 45.0045 40.7063 45.924 40.5067 46.8556C40.3277 47.6503 40.1898 48.4537 40.0935 49.2626C39.9668 50.1208 39.8998 50.9868 39.8929 51.8542C39.909 52.7488 40.0935 53.6394 40.1657 54.5361C40.3663 56.915 41.0664 59.1496 42.0452 61.3199C42.7908 62.9499 43.7238 64.4874 44.8254 65.9013C45.3008 66.5382 45.8288 67.134 46.404 67.6825C47.2685 68.4849 48.2093 69.1869 49.1059 69.9632C50.3234 71.0323 51.7617 71.7263 53.2039 72.4083C54.8688 73.1966 56.664 73.6119 58.4613 73.9308C59.5885 74.1314 60.756 74.1314 61.9093 74.1775C62.4417 74.1821 62.9734 74.1384 63.498 74.0471C64.6092 73.8847 65.7426 73.7904 66.8177 73.4875C68.1275 73.1164 69.3832 72.5588 70.665 72.0834C72.1533 71.5318 73.4391 70.6211 74.6767 69.6764C76.2561 68.4645 77.6542 67.0332 78.8288 65.4259C79.9773 63.9015 80.9145 62.2288 81.615 60.4534C81.8733 59.7978 82.0943 59.1281 82.2769 58.4475C82.6079 57.1999 83.0572 55.9522 83.1595 54.6805C83.336 52.4981 83.4243 50.3057 83.0371 48.1093C82.7895 46.6069 82.4158 45.128 81.9199 43.6883C80.9482 41.0235 79.477 38.5686 77.5852 36.4552C74.3366 32.7969 69.9311 30.3641 65.1047 29.563C63.9794 29.3564 62.82 29.3364 61.3758 29.21H61.3718ZM56.8144 18.4305C56.8826 17.6562 56.5978 16.8559 56.1585 16.0856C55.1897 14.3947 53.7053 13.2433 52.0946 12.2484C49.7237 10.7801 47.1141 9.85538 44.4402 9.13728C42.9495 8.72974 41.4311 8.43141 39.897 8.24467C37.861 8.00396 35.807 7.86556 33.757 7.80939C32.3223 7.79412 30.8881 7.86714 29.4624 8.02803C27.8577 8.18449 26.253 8.42921 24.6483 8.64985C22.8671 8.89657 21.1622 9.42813 19.4572 9.99378C17.4957 10.6306 15.6284 11.5271 13.9049 12.6596C12.3845 13.6625 10.9964 14.8159 10.2462 16.5289C9.97142 17.1567 9.74075 17.8889 9.7889 18.5528C9.86712 19.6661 10.3786 20.6911 11.0807 21.5616C12.395 23.2133 14.0509 24.5613 15.9349 25.5132C17.6326 26.3387 19.3892 27.0373 21.1902 27.6033C22.5919 28.0434 24.0267 28.37 25.4808 28.5801C27.3384 28.9035 29.214 29.1125 31.0972 29.206C33.2174 29.2742 35.3456 29.1017 37.4719 29.0335C37.4892 29.0346 37.5066 29.0346 37.524 29.0335C38.874 28.8329 40.2299 28.6524 41.5699 28.3956C43.002 28.1188 44.4302 27.8059 45.8383 27.4288C47.7562 26.9158 49.6016 26.1623 51.3304 25.1862C53.1357 24.1692 54.7825 22.9918 55.9439 21.2327C56.5327 20.4187 56.8398 19.4348 56.8184 18.4305H56.8144ZM9.76883 63.8032C9.49403 65.7368 9.94334 67.3616 11.0907 68.7697C12.3664 70.3383 14.0333 71.4215 15.7925 72.3702C17.9468 73.5296 20.2655 74.2598 22.6124 74.8595C24.2512 75.2647 25.9141 75.5656 27.591 75.7602C29.0292 75.9367 30.4914 75.9146 31.9417 75.9968C32.3228 76.0169 32.6999 76.1012 33.081 76.1453C33.2216 76.1623 33.3637 76.1623 33.5043 76.1453C33.8332 76.1052 34.1582 76.0229 34.4891 76.0049C35.9755 75.9246 37.4719 75.9427 38.9462 75.7682C40.4746 75.5897 41.9831 75.2406 43.4955 74.9418C44.0672 74.8294 44.6248 74.6549 45.2887 74.4804C45.0119 74.2277 44.8254 74.0692 44.6489 73.8987C43.3972 72.6771 42.1235 71.4796 40.9139 70.2179C40.7737 70.0617 40.5946 69.9452 40.3949 69.8804C40.1952 69.8156 39.9819 69.8047 39.7766 69.8489C38.7837 69.9772 37.7968 70.1678 36.8019 70.25C35.7769 70.3383 34.7459 70.3543 33.7149 70.3583C32.9005 70.3583 32.0861 70.3082 31.2717 70.2621C30.1464 70.1999 29.0211 70.1217 27.8979 70.0494C27.5772 70.0416 27.2572 70.0175 26.9391 69.9772C25.2983 69.6864 23.6555 69.4016 22.0207 69.0746C21.0855 68.9029 20.1623 68.6718 19.2566 68.3826C17.8801 67.9492 16.5305 67.4348 15.2148 66.8421C13.6602 66.1079 12.1779 65.2213 10.6695 64.3909C10.3866 64.2284 10.1219 64.0318 9.76883 63.8032ZM9.76883 28.8068C9.76883 29.4587 9.67456 30.1467 9.78689 30.7986C10.0617 32.4033 10.9764 33.657 12.1458 34.7221C14.605 36.9647 17.5957 38.2264 20.7249 39.1731C22.1923 39.5921 23.6798 39.9369 25.1819 40.2062C26.2992 40.4248 27.4345 40.5532 28.5658 40.6936C29.1647 40.7695 29.7675 40.8103 30.3711 40.8159C32.2365 40.8159 34.102 40.8159 35.9675 40.7818C36.0765 40.7563 36.1787 40.7071 36.2667 40.6378C36.3548 40.5685 36.4265 40.4807 36.477 40.3807C37.3315 38.6015 38.1599 36.8082 39.4035 35.2477C39.4934 35.0955 39.5667 34.9341 39.6222 34.7662C38.4066 34.9107 37.2793 35.1674 36.156 35.1514C33.9696 35.1213 31.7752 35.3961 29.5928 34.9849C28.7102 34.8204 27.7875 34.8625 26.9009 34.7382C25.2822 34.5115 23.6575 34.3029 22.0648 33.9478C20.5102 33.6008 18.9778 33.1194 17.4633 32.618C16.3588 32.2603 15.2821 31.8218 14.2419 31.3061C12.7415 30.5359 11.2973 29.6613 9.77485 28.8068H9.76883ZM9.7588 52.0849C9.73473 52.2153 9.71266 52.2975 9.70464 52.3778C9.49001 54.6043 10.3064 56.4276 11.9011 57.936C13.8207 59.7413 16.1134 60.9448 18.5445 61.8695C19.2486 62.1403 19.9827 62.3409 20.7088 62.5535C21.7118 62.8484 22.7147 63.1553 23.7357 63.4C24.761 63.6451 25.798 63.8386 26.8428 63.9797C28.132 64.1758 29.4325 64.2883 30.7362 64.3167C32.8223 64.3167 34.9224 64.5273 37.0085 64.1542C36.6856 63.388 36.3426 62.6699 36.0798 61.9257C35.7729 61.0612 35.5462 60.1706 35.2654 59.296C35.135 58.8948 35.0508 58.4616 34.429 58.4936C33.5464 58.5438 32.6598 58.5358 31.7772 58.4936C30.4333 58.4415 29.0853 58.3934 27.7494 58.2509C26.2691 58.0945 24.7948 57.8678 23.3365 57.6071C22.1394 57.4108 20.9552 57.1428 19.7901 56.8047C18.4562 56.4035 17.1665 55.8479 15.8546 55.3725C14.3761 54.8039 12.9571 54.0911 11.6182 53.2443C10.9964 52.8913 10.4007 52.4961 9.7588 52.0849ZM34.5012 46.8696C25.7917 46.9198 17.349 45.5277 9.84505 40.4388C9.8153 40.5031 9.79245 40.5703 9.77686 40.6394C9.50807 42.7095 10.2081 44.4506 11.6283 45.9189C12.8219 47.116 14.2026 48.1106 15.7162 48.8635C17.4527 49.7807 19.2905 50.4916 21.1922 50.9817C22.7167 51.3648 24.2572 51.6817 25.7937 52.0167C25.9943 52.0608 26.221 52.0167 26.4316 52.0548C27.3603 52.2032 28.285 52.456 29.2177 52.5021C30.7101 52.5904 32.2085 52.5442 33.7048 52.5824C34.1241 52.5944 34.2464 52.458 34.2625 52.0408C34.3146 50.3338 34.4129 48.6288 34.4992 46.8737L34.5012 46.8696Z" fill="currentColor"/>
<path d="M58.9025 59.3637H69.0803C69.7394 59.3791 70.3743 59.6152 70.8834 60.0341C71.3925 60.453 71.7464 61.0306 71.8885 61.6744C72.2134 63.0785 71.5054 64.2399 70.3299 64.9179C69.8508 65.1799 69.3088 65.3049 68.7633 65.279C65.7164 65.2669 62.6695 65.279 59.6226 65.279C59.3959 65.279 59.1673 65.301 58.8925 65.3131C58.8925 66.2879 58.8644 67.2247 58.8925 68.1614C58.9346 69.3288 57.6308 70.8874 56.5998 71.0819C54.8647 71.4129 53.1677 70.1111 53.1657 68.3279C53.1657 67.6499 53.1657 66.9739 53.1657 66.2959C53.1657 65.2549 53.3402 65.2549 52.1748 65.283C51.5532 65.2816 50.9482 65.082 50.4478 64.7133C49.0436 63.7766 48.6986 61.5039 50.1108 60.1941C50.4173 59.9021 50.7812 59.677 51.1793 59.533C51.5774 59.389 52.0011 59.3293 52.4235 59.3576C53.1617 59.3837 53.1637 59.3576 53.1657 58.6295C53.1657 58.2584 53.1657 57.8893 53.1657 57.4882C52.6863 57.4501 52.2671 57.42 51.8479 57.3839C50.0185 57.2234 48.6385 55.043 49.6414 53.1976C50.201 52.1566 51.0696 51.5328 52.2952 51.5067C53.2299 51.4886 53.1757 51.6571 53.1778 50.6101C53.1778 47.9556 53.1778 45.3005 53.1778 42.6447C53.1778 41.9166 53.1778 41.9166 52.4516 41.9126C51.0475 41.9126 49.6895 40.9799 49.3385 39.7984C48.7588 37.8507 50.1128 35.9111 52.1467 35.899C57.2283 35.8696 62.3058 35.8696 67.3793 35.899C69.1181 35.9006 70.8252 36.3645 72.3258 37.2429C74.2011 38.3068 75.7087 39.9158 76.6484 41.8564C77.2201 43.0459 77.6874 44.2856 77.6513 45.6515C77.6513 45.9584 77.8379 46.2774 77.8098 46.5783C77.6594 48.2271 77.4848 49.8799 76.7166 51.3923C76.1389 52.5257 75.4669 53.5988 74.5202 54.4774C73.3108 55.615 71.8708 56.4791 70.2978 57.0108C69.1404 57.3959 67.967 57.4119 66.7936 57.442C64.3705 57.4902 61.9474 57.4661 59.5243 57.442C59.0409 57.442 58.8403 57.5784 58.8905 58.0799C58.9266 58.461 58.9025 58.8542 58.9025 59.3637ZM58.9025 41.9126C58.9025 44.9996 58.9025 48.0245 58.9025 51.0473C58.9025 51.4485 59.061 51.5167 59.41 51.5147C61.8491 51.5047 64.2903 51.4806 66.7274 51.5147C68.0513 51.5388 69.2207 51.262 70.2637 50.3994C71.3068 49.5369 71.8684 48.3615 72.0108 47.0276C72.1136 46.0425 71.8773 45.0519 71.3409 44.2194C70.4804 42.8373 69.2889 41.9126 67.5638 41.9086H58.9025V41.9126Z" fill="currentColor"/>
</svg>
