<svg width="108" height="88" viewBox="0 0 108 88" fill="none" xmlns="http://www.w3.org/2000/svg">
<path d="M97.8782 81.9991C96.1373 81.7205 94.914 80.6514 93.7125 79.442C90.278 75.9521 86.7961 72.5117 83.3418 69.0357C83.0355 68.7274 82.8438 68.7333 82.494 68.9448C68.6314 77.3275 50.6782 70.5118 45.8011 55.0308C41.9634 42.8321 48.1724 29.5386 59.9759 24.616C63.2496 23.24 66.7796 22.5799 70.3294 22.6798C73.8791 22.7797 77.3664 23.6374 80.5575 25.1953C83.7486 26.7533 86.5698 28.9755 88.8318 31.7129C91.0938 34.4504 92.7445 37.6398 93.673 41.0674C95.5484 47.8771 94.5702 54.3668 90.9716 60.4454C90.7404 60.8406 90.7384 61.0382 91.0724 61.3762C94.5267 64.8008 97.9435 68.261 101.408 71.6738C102.629 72.8753 103.728 74.1104 104 75.877V77.203C103.963 77.2965 103.932 77.3922 103.907 77.4896C103.419 79.7779 102.046 81.2317 99.7892 81.8509C99.5915 81.9062 99.3939 81.9497 99.1963 81.9991H97.8782ZM86.7664 47.6301C86.7691 44.2392 85.7665 40.9235 83.8852 38.1022C82.0039 35.281 79.3284 33.0808 76.197 31.7798C73.0655 30.4788 69.6186 30.1354 66.292 30.7929C62.9654 31.4505 59.9084 33.0795 57.5074 35.4742C55.1065 37.8688 53.4693 40.9214 52.8029 44.2463C52.1366 47.5711 52.4709 51.0189 53.7636 54.1538C55.0563 57.2887 57.2494 59.97 60.0656 61.8588C62.8819 63.7475 66.1949 64.759 69.5859 64.7652C74.1363 64.771 78.5027 62.969 81.7246 59.7556C84.9466 56.5422 86.7601 52.1806 86.7664 47.6301Z" fill="currentColor"/>
<path d="M26.9588 2C27.7492 2.34978 28.0259 2.96436 28.0239 3.82595C28.0107 21.6112 28.0107 39.3964 28.0239 57.1817C28.0239 58.5136 27.5417 58.9978 26.2138 58.9997C24.1388 58.9997 22.0646 58.9997 19.9909 58.9997C18.7104 58.9997 18.2124 58.484 18.2124 57.1975C18.2124 39.3964 18.2124 21.5954 18.2124 3.79433C18.2124 2.92879 18.4989 2.31421 19.3309 2.00395L26.9588 2Z" fill="currentColor"/>
<path d="M9.92829 2C10.7069 2.37349 10.9677 2.98807 10.9677 3.84571C10.9493 21.6138 10.9447 39.3813 10.9539 57.1481C10.9539 57.2489 10.9539 57.3457 10.9539 57.4544C10.9381 58.4148 10.4065 58.9819 9.44019 58.9997C8.14779 59.0234 6.8554 58.9997 5.56301 58.9997C4.78243 58.9997 4.29828 58.6045 4.00977 57.9109V3.01969L5.02944 2H9.92829Z" fill="currentColor"/>
<path d="M39.7149 2C40.5528 2.34187 40.8136 2.98807 40.8117 3.86152C40.7998 21.6151 40.7998 39.3694 40.8117 57.1244C40.8117 58.5077 40.3315 58.9958 38.9403 58.9958C38.3612 58.9958 37.7822 59.0116 37.2072 58.9642C36.4424 58.9029 35.98 58.4049 35.9108 57.6382C35.895 57.4702 35.895 57.3003 35.895 57.1303C35.895 39.3754 35.895 21.6211 35.895 3.86745C35.895 2.99202 36.1341 2.34385 36.9779 2H39.7149Z" fill="currentColor"/>
<path d="M57.0613 2C57.8656 2.39523 58.1008 3.02957 58.0968 3.90105C58.0692 9.76754 58.0692 15.634 58.0968 21.5005C58.1156 21.6711 58.0749 21.8429 57.9817 21.9869C57.8884 22.1309 57.7483 22.2383 57.585 22.291C53.3762 24.2614 49.7354 27.2665 47.0028 31.0255C46.9238 31.1362 46.8447 31.2468 46.7597 31.3516C46.742 31.3753 46.7044 31.3812 46.6056 31.4286V30.8575C46.6056 21.8622 46.6017 12.8668 46.5938 3.8714C46.5938 2.994 46.8467 2.35175 47.6786 2H57.0613Z" fill="currentColor"/>
<path d="M85.6322 2.00009C86.4226 2.39532 86.6697 3.03164 86.6677 3.90509C86.642 10.8216 86.6539 17.7479 86.6539 24.6703V25.2849C86.4562 25.1466 86.312 25.0616 86.1816 24.9648C84.1985 23.4984 82.0253 22.3084 79.7216 21.4275C79.3263 21.2793 79.2295 21.0876 79.2295 20.6904C79.244 15.0624 79.244 9.43301 79.2295 3.80233C79.2295 2.93876 79.516 2.32615 80.3263 1.99219L85.6322 2.00009Z" fill="currentColor"/>
<path d="M75.1234 2C75.9474 2.31618 76.2438 2.92681 76.2419 3.79236C76.2241 9.09236 76.2419 14.3943 76.2419 19.6943V20.2872L72.4674 19.641V19.0323C72.4674 13.9873 72.4813 8.9402 72.4536 3.89512C72.4536 3.01969 72.6967 2.38337 73.501 2.00395L75.1234 2Z" fill="currentColor"/>
<path d="M67.1634 2C67.9539 2.36361 68.2147 2.97621 68.2108 3.83979C68.1831 8.87499 68.1969 13.9181 68.1969 18.9414V19.5343L65.3335 19.8386V19.2971C65.3335 14.1276 65.3434 8.95601 65.3335 3.78643C65.3335 2.91298 65.6398 2.31421 66.4599 2.0079L67.1634 2Z" fill="currentColor"/>
</svg>
