<svg width="88" height="88" viewBox="0 0 88 88" fill="none" xmlns="http://www.w3.org/2000/svg">
<path d="M69.4556 1.99967C69.7141 2.06552 69.9751 2.12731 70.2321 2.19885C72.6023 2.86143 74.3277 5.05077 74.4229 7.51571C74.4318 7.74578 74.4326 7.97585 74.4326 8.20593C74.4326 15.8479 74.4326 23.4899 74.4326 31.1318V31.6733H68.7628V7.84578L9.70967 7.66367V70.7107L32.8427 70.8969V76.5592H32.3776C24.884 76.5592 17.3901 76.5592 9.89588 76.5592C6.87354 76.5592 4.5708 74.5975 4.0748 71.6115C4.05642 71.5478 4.03134 71.4862 4 71.4278V7.12142C4.03262 7.03597 4.05978 6.94853 4.08131 6.85964C4.41957 5.03044 5.36034 3.60205 7.00039 2.71347C7.62648 2.37445 8.35828 2.23056 9.04211 1.99805L69.4556 1.99967Z" fill="currentColor"/>
<path d="M83.6852 74.5989C83.1884 75.6713 82.6843 75.9135 81.5126 75.6395L74.8337 74.077C74.7312 74.0534 74.6263 74.0412 74.4921 74.0185C74.0856 75.1388 73.6831 76.242 73.2831 77.3452C72.8537 78.528 72.4212 79.7085 71.9983 80.893C71.7731 81.5247 71.3543 81.9303 70.677 81.9929C69.9761 82.0564 69.5061 81.7052 69.1768 81.0987C66.718 76.5666 64.258 72.0351 61.797 67.5041C61.6181 67.1724 61.4311 67.1025 61.0725 67.1196C60.3181 67.1529 59.5623 67.1439 58.8088 67.0927C58.5267 67.074 58.4096 67.1423 58.2819 67.3781C55.8654 71.8549 53.4412 76.3284 51.0095 80.7987C50.9517 80.906 50.8964 81.0141 50.8355 81.1239C50.5102 81.6791 50.028 81.9702 49.3889 81.9092C48.7693 81.8499 48.3416 81.4978 48.1294 80.906C47.4334 78.9549 46.7384 77.0059 46.0446 75.0591C45.9088 74.6778 45.7722 74.2965 45.6218 73.877L42.6133 74.5518C41.2009 74.8697 39.7861 75.1794 38.3777 75.5103C37.7045 75.6729 37.1296 75.5485 36.7133 74.9802C36.297 74.412 36.3653 73.825 36.697 73.2275C39.4925 68.187 42.2872 63.1444 45.0811 58.0996C45.2762 57.7484 45.303 57.4687 45.1461 57.0899C41.6473 48.613 45.9828 38.8614 54.6164 35.7696C56.7441 35.0007 59.0092 34.6857 61.266 34.8449C63.5228 35.0041 65.7213 35.6339 67.7199 36.694C69.7185 37.754 71.473 39.2207 72.8705 40.9996C74.2679 42.7785 75.2773 44.8303 75.8338 47.0228C76.7144 50.4593 76.4591 53.8445 75.1077 57.1305C74.9686 57.4696 74.9906 57.7183 75.1589 58.0305C77.8861 63.0937 80.6068 68.1613 83.3209 73.2331C83.447 73.4697 83.5649 73.7112 83.6852 73.9502V74.5989ZM60.0927 61.3011C65.7951 61.3011 70.4445 56.6671 70.4469 50.9763C70.4469 45.2562 65.8284 40.6174 60.131 40.619C54.4131 40.6166 49.7784 45.2383 49.7784 50.9414C49.7784 56.6444 54.4018 61.2979 60.0927 61.3011ZM70.6429 73.3039C71.0006 72.3064 71.3259 71.3779 71.6633 70.4528C71.9073 69.765 72.2577 69.5748 72.9773 69.7349C73.7425 69.9056 74.506 70.0869 75.2711 70.2593C75.4817 70.3072 75.6947 70.3406 75.9785 70.3942L71.4186 62.1555C69.9664 63.6595 68.2572 64.6888 66.4716 65.64L70.6429 73.3039ZM44.9241 69.1772C45.8145 68.9772 46.6048 68.8008 47.3935 68.6219C48.1384 68.4528 48.3831 68.5894 48.6425 69.3219C48.823 69.8314 49.0049 70.3406 49.1881 70.8495C49.2694 71.0828 49.3597 71.3145 49.471 71.6145L53.0081 65.1383C51.4859 64.3205 50.0345 63.4612 48.8165 62.1775C47.5171 64.5132 46.2446 66.8017 44.9241 69.1772Z" fill="currentColor"/>
<path d="M57.737 15.8203V21.4201H17.8579V15.8203H57.737Z" fill="currentColor"/>
<path d="M17.8555 35.2031V29.5781H49.9954V35.2031H17.8555Z" fill="currentColor"/>
<path d="M17.8555 62.7682V57.1367H39.4192V62.7682H17.8555Z" fill="currentColor"/>
<path d="M17.8555 48.9642V43.3652H39.4192V48.9642H17.8555Z" fill="currentColor"/>
</svg>
