<svg width="94" height="88" viewBox="0 0 94 88" fill="none" xmlns="http://www.w3.org/2000/svg">
<path d="M16.9399 82.0005C16.2636 81.5793 15.5005 81.2449 14.9338 80.7122C14.3321 80.1455 13.9061 79.3843 13.4226 78.6919C13.3357 78.5663 13.3404 78.3613 13.3404 78.1932C13.3442 64.4538 13.352 50.7133 13.364 36.972C13.364 36.1078 13.4037 35.2426 13.4481 34.3784C13.5104 33.1807 14.1394 32.3004 15.1217 31.6912C16.5659 30.8015 18.0403 29.9562 19.5213 29.1278C24.3893 26.4051 29.2623 23.6912 34.1404 20.9862C37.4944 19.1283 40.8625 17.295 44.223 15.4485C45.7617 14.5984 47.3258 14.6806 48.8219 15.4693C51.1557 16.6971 53.4443 18.0194 55.7508 19.3049C60.5007 21.9495 65.2573 24.5857 69.9968 27.2492C72.5319 28.6735 75.0632 30.1082 77.5472 31.6176C78.6533 32.2891 79.3088 33.3479 79.3078 34.708C79.2977 48.3178 79.2848 61.9275 79.2691 75.5373C79.2691 76.4818 79.2001 77.4263 79.1746 78.3708C79.1548 79.1264 78.7713 79.7073 78.3246 80.2655C77.7087 81.0211 76.9314 81.5717 76.0653 82.0043L16.9399 82.0005ZM17.5236 77.3725H75.0273V76.9153C75.0474 69.1414 75.067 61.3674 75.0859 53.5935C75.0991 47.5656 75.1142 41.5374 75.1312 35.5089C75.1312 35.1255 75.0084 34.9356 74.6759 34.7533C71.8868 33.2421 69.1109 31.6997 66.3293 30.1706C59.8436 26.606 53.358 23.0398 46.8724 19.4721C46.5031 19.2671 46.2178 19.2558 45.8448 19.4598C43.0339 21.0013 40.2041 22.5087 37.3952 24.053C30.9247 27.6106 24.456 31.173 17.9893 34.7401C17.6408 34.929 17.517 35.1236 17.517 35.5269C17.529 49.3167 17.5324 63.1066 17.5274 76.8964L17.5236 77.3725Z" fill="currentColor"/>
<path d="M89.0061 27.0295C88.8333 27.7077 88.565 28.3282 88.0097 28.7948C87.6224 29.1197 87.1927 29.2671 86.6874 29.3341C85.5388 29.489 84.5707 29.1547 83.5705 28.6021C77.2281 25.1074 70.8574 21.6675 64.4914 18.2182C58.677 15.0682 52.8522 11.9372 47.0434 8.77308C46.5816 8.5209 46.2378 8.53979 45.7948 8.78064C39.7814 12.0549 33.7636 15.3236 27.7414 18.5865C21.286 22.1007 14.8334 25.6209 8.38369 29.1471C8.16349 29.2575 7.9231 29.3218 7.6772 29.336C7.3191 29.3544 6.96025 29.3525 6.60236 29.3303C5.25171 29.2803 4.40731 28.5747 4.08335 27.2307C4.0739 27.191 4.03328 27.1589 4.00684 27.123V25.9896C4.22218 24.9667 4.8418 24.3112 5.75892 23.8106C9.97616 21.5079 14.1594 19.1438 18.3719 16.8326C25.972 12.6616 33.5807 8.50578 41.1979 4.36505C42.7686 3.51121 44.2609 2.47226 46.0309 2H46.881C47.2871 2.1549 47.7093 2.28335 48.0966 2.47226C48.94 2.89256 49.7703 3.3412 50.5986 3.79457C55.6108 6.51665 60.6217 9.24219 65.6314 11.9712C72.8002 15.8909 79.9558 19.8361 87.1313 23.7426C88.0852 24.2621 88.7898 24.9015 89.0061 25.9934V27.0295Z" fill="currentColor"/>
<path d="M48.1265 36.5329H53.7114V43.1813C53.8574 43.2107 54.005 43.2315 54.1534 43.2436C55.522 43.2569 56.8925 43.2767 58.2601 43.271C59.0252 43.271 59.0696 43.2483 59.0913 42.4918C59.1423 40.6528 59.1489 38.8082 59.1725 36.9721C59.1725 36.8313 59.1725 36.6887 59.1725 36.5234H64.7574V53.2413H48.1265V36.5329Z" fill="currentColor"/>
<path d="M28.5933 53.251V36.5331H34.181V43.2033H39.5968V36.5312H45.2082V53.2491L28.5933 53.251Z" fill="currentColor"/>
<path d="M39.6645 56.2012H45.222V72.903H44.7025C39.5257 72.903 34.3479 72.8954 29.171 72.9152C28.6789 72.9152 28.576 72.7754 28.5769 72.3079C28.5835 67.2878 28.5665 62.2687 28.5562 57.2496C28.5562 56.2314 28.5562 56.222 29.6055 56.2163C31.0988 56.2068 32.593 56.2163 34.1873 56.2163V62.7627C34.4386 62.7768 34.5916 62.7929 34.7446 62.7929C36.1765 62.7929 37.6093 62.775 39.0402 62.8052C39.4936 62.8146 39.5814 62.6588 39.5814 62.2385C39.5814 60.3353 39.6164 58.4321 39.64 56.528C39.6409 56.4383 39.6532 56.3466 39.6645 56.2012Z" fill="currentColor"/>
<path d="M59.1054 56.2375H64.7158V72.8713H48.1255V56.2148H53.7179V62.7518H59.1016L59.1054 56.2375Z" fill="currentColor"/>
</svg>
