<svg width="107" height="88" viewBox="0 0 107 88" fill="none" xmlns="http://www.w3.org/2000/svg">
<path d="M53.4725 67.4518C39.6579 67.4518 25.8433 67.4518 12.0288 67.4518C7.46409 67.4518 4.01371 64.0171 4.01371 59.4368C4.00328 43.0313 3.99742 26.6259 3.99611 10.2205C3.98634 5.27654 7.86875 1.96887 12.2653 1.99429C24.7551 2.06662 37.2449 2.01775 49.7347 2.0197C64.674 2.0197 79.6139 2.0197 94.5545 2.0197C98.302 2.0197 101.168 3.89248 102.384 7.27249C102.678 8.10443 102.83 8.98016 102.833 9.86272C102.861 25.7469 102.867 41.6303 102.851 57.5132C102.876 58.5364 102.848 59.5601 102.767 60.5804C102.376 64.3514 99.1407 67.3756 95.3384 67.4225C89.6692 67.487 84.0137 67.4499 78.3523 67.4518C70.0584 67.4557 61.7651 67.4557 53.4725 67.4518ZM53.4216 62.3887C67.1358 62.3887 80.85 62.3887 94.5643 62.3887C96.7361 62.3887 97.7957 61.2998 97.7976 59.1084C97.7976 56.0353 97.7976 52.9628 97.7976 49.8911C97.7976 36.6799 97.7976 23.4681 97.7976 10.2556C97.7976 8.25188 96.6814 7.11805 94.7246 7.11609C89.6236 7.11609 84.5233 7.11609 79.4236 7.11609H36.9595C28.7255 7.11609 20.4928 7.11609 12.2614 7.11609C10.2224 7.11609 9.10424 8.19324 9.10424 10.1501C9.10424 26.5712 9.10424 42.9962 9.10424 59.4251C9.10424 61.2216 10.287 62.3867 12.0952 62.3867L53.4216 62.3887Z" fill="currentColor"/>
<path d="M35.5324 78.962H6.209C4.90704 78.962 4.58448 78.6316 4.57666 77.3179C4.57666 77.1967 4.57666 77.0775 4.57666 76.9563C4.57666 75.6641 4.92072 75.3103 6.2129 75.3103C25.8087 75.3103 45.4052 75.3142 65.0023 75.322C65.1948 75.3437 65.3891 75.3032 65.5569 75.2065C65.7247 75.1097 65.8571 74.9618 65.9348 74.7844C66.8341 73.1618 68.2494 72.2978 70.1007 72.2665C71.952 72.2352 73.4475 73.0485 74.4014 74.6749C74.681 75.1558 74.9664 75.3239 75.5157 75.3239C83.9087 75.307 92.3011 75.307 100.693 75.3239C102.008 75.3239 102.327 75.6426 102.323 76.9563C102.323 78.8076 102.141 78.9776 100.286 78.9757C91.9935 78.9757 83.7009 78.9724 75.4082 78.9659C74.9977 78.9659 74.7201 79.0265 74.4914 79.439C73.5608 81.1221 72.1162 82.0234 70.1769 82.0097C68.2377 81.996 66.7989 81.0889 65.8938 79.3901C65.6689 78.9698 65.3757 78.9698 65.0082 78.9698C56.756 78.9698 48.5044 78.9698 40.2534 78.9698L35.5324 78.962Z" fill="currentColor"/>
<path d="M41.6902 34.7961C41.6902 30.8413 41.6726 26.8866 41.7058 22.9338C41.7059 22.1531 41.8259 21.3771 42.0616 20.6329C42.7791 18.4825 44.603 17.4601 46.7534 18.156C48.1101 18.592 49.3807 19.329 50.628 20.0464C56.0495 23.139 61.4581 26.2538 66.8536 29.3908C68.048 30.0828 69.2913 30.7357 70.3626 31.5939C72.7358 33.4961 72.6791 36.2857 70.2179 38.0998C68.8339 39.1164 67.2973 39.9296 65.8057 40.7937C60.0779 44.117 54.352 47.4403 48.6027 50.7108C47.8024 51.1665 46.9227 51.4657 46.0105 51.5925C43.8601 51.8681 42.1985 50.4195 41.827 48.0971C41.741 47.5212 41.6999 46.9396 41.7039 46.3573C41.6948 42.5035 41.6948 38.6498 41.7039 34.7961H41.6902Z" fill="currentColor"/>
</svg>
