<svg width="135" height="88" viewBox="0 0 135 88" fill="none" xmlns="http://www.w3.org/2000/svg">
<path d="M56.787 52.791C56.787 51.0742 56.787 49.424 56.7752 47.7739C56.7752 47.6013 56.6366 47.4221 56.5359 47.2613C55.5775 45.7393 54.6242 44.216 53.6423 42.7096C53.483 42.4746 53.2545 42.295 52.9885 42.1958C51.4651 41.6727 50.4047 40.6188 49.6045 39.2812C48.3126 37.1224 47.5568 34.821 48.0354 32.2726C48.1426 31.7129 48.3623 31.1062 48.7192 30.6786C49.1625 30.1465 49.1037 29.6483 49.0161 29.0677C48.3257 24.4742 48.731 20.0585 51.2311 16.0077C52.4524 14.0267 54.1274 12.4981 56.09 11.2664C56.303 11.1409 56.4639 10.9433 56.5438 10.7094C57.6879 5.57846 62.6959 1.79303 68.1289 2.00878C72.7838 2.19184 77.0674 5.68829 78.086 10.3877C78.1799 10.9336 78.4841 11.4209 78.9333 11.745C82.2271 14.2359 84.0957 17.6552 85.1378 21.5714C85.8337 24.2236 86.1294 26.9649 86.0152 29.7045C85.9937 29.8761 86.0148 30.0503 86.0766 30.2118C87.3607 32.6622 86.9096 35.1035 86.0126 37.5212C85.398 39.1818 84.4082 40.5927 82.9254 41.6126C82.6939 41.7721 82.4416 41.9669 82.1801 42.0049C81.4321 42.1016 81.1575 42.6312 80.8149 43.2C80.0304 44.4984 79.1596 45.7432 78.3384 47.0181C78.2048 47.2085 78.124 47.4309 78.1043 47.6627C78.0847 49.3404 78.0939 51.018 78.0939 52.7623C78.2913 52.7766 78.4783 52.7989 78.6653 52.8002C80.1468 52.8002 81.6309 52.8459 83.111 52.791C85.687 52.6956 87.7948 53.7325 89.6489 55.397C92.3883 57.8605 94.2019 60.9581 95.6285 64.3068C96.5984 66.5299 97.2812 68.8675 97.6604 71.2631C97.7683 71.9944 97.8246 72.7324 97.8291 73.4716C97.8291 74.3385 97.446 75.0028 96.6523 75.4147C93.1493 77.2278 89.447 78.6267 85.6203 79.5832C82.7436 80.305 79.8369 80.9169 76.9132 81.3851C73.1473 81.9878 69.3358 82.0742 65.5229 81.9761C56.0077 81.7329 46.9736 79.4695 38.3423 75.5075C37.1838 74.9753 36.7732 74.1633 36.921 72.742C37.5057 67.0544 39.7358 61.6607 43.3386 57.2211C44.6461 55.5827 46.1995 54.1548 48.2171 53.4213C49.1516 53.0782 50.1314 52.8746 51.1252 52.8172C52.9741 52.7256 54.8295 52.791 56.787 52.791ZM40.9549 72.3327C45.5813 74.3957 50.428 75.9241 55.4009 76.8883C58.7295 77.5302 62.1035 77.9088 65.4915 78.0207C70.994 78.2018 76.497 77.6745 81.8649 76.4516C85.7964 75.566 89.6296 74.29 93.3075 72.6426C93.6226 72.5001 93.8449 72.372 93.7665 71.93C93.0621 67.8769 91.4428 64.0377 89.0317 60.7045C87.9988 59.2661 86.8259 57.9468 85.1299 57.2577C84.988 57.2132 84.8381 57.1996 84.6904 57.2176C84.5427 57.2356 84.4006 57.285 84.2735 57.3623C83.3582 58.0161 82.4821 58.7379 81.5916 59.4348C77.3333 62.7726 73.0737 66.1095 68.8127 69.4456C67.8307 70.2118 66.9442 70.2197 65.9635 69.4561C63.4791 67.5195 61.0013 65.5647 58.5195 63.6204C55.8521 61.5282 53.1859 59.4361 50.5211 57.344C50.2007 57.0916 49.8934 57.025 49.5783 57.2538C48.6892 57.9076 47.7255 58.4829 46.9632 59.2544C45.2895 60.9359 44.144 62.9953 43.1464 65.1293C42.0728 67.4097 41.2935 69.7895 40.9549 72.3327ZM52.8538 27.7876C53.199 27.2293 53.4631 26.8357 53.6932 26.4238C54.6805 24.6651 55.7004 22.93 55.7618 20.8143C55.7906 19.8441 56.6183 19.1145 57.5336 19.0308C58.5169 18.9484 59.27 19.5211 59.6623 20.405C60.0546 21.289 60.4887 22.1899 61.1007 22.9103C62.8711 24.9776 65.2509 26.1374 67.7693 27.0318C71.607 28.3943 75.6017 28.8755 79.6394 29.0991C80.4109 29.1423 81.1876 29.0991 82.0061 29.0991C82.0693 26.4357 81.6711 23.7814 80.8293 21.2537C79.408 16.9831 76.6556 14.0489 72.2137 12.9179C68.8676 12.0653 65.5059 12.1739 62.1598 12.9885C59.3629 13.6697 56.9556 14.9982 55.1499 17.2812C52.7439 20.3501 52.4524 23.8937 52.859 27.7876H52.8538ZM60.9215 46.1564L60.8326 46.2754C61.5243 46.8913 62.1872 47.5424 62.913 48.1151C65.5281 50.185 68.478 50.3223 71.2618 48.5427C72.7093 47.6183 73.9044 46.4205 74.9531 45.075C76.2936 43.3653 77.4179 41.4966 78.3005 39.5113C78.6692 38.6797 79.3178 38.1148 80.2122 38.2037C80.8659 38.2743 81.1863 38.0272 81.4805 37.5735C81.742 37.1734 82.0284 36.7824 82.218 36.3496C82.6534 35.3571 82.9685 34.3294 82.8469 33.1957C82.6495 33.1827 82.5017 33.167 82.3527 33.1643C78.6993 33.0754 75.059 32.8584 71.4684 32.1261C68.0975 31.4396 64.8272 30.4577 61.8944 28.6075C60.6927 27.8504 59.5956 26.9298 58.4254 26.0642C57.2485 28.5891 55.6285 30.914 53.8384 33.1251C53.7818 33.2198 53.7458 33.3253 53.7327 33.4348C53.7197 33.5443 53.7298 33.6553 53.7625 33.7606C54.0568 34.6432 54.3313 35.5428 54.7315 36.3757C56.2561 39.5701 58.5143 41.8676 62.2435 42.2598C62.7861 42.3187 63.2974 42.4194 63.6504 41.81C63.7903 41.5668 64.0963 41.3981 64.3578 41.2517C65.2574 40.7444 69.3933 40.7208 70.3021 41.1955C71.6358 41.8898 71.8973 43.0718 71.8568 44.4448C71.8045 46.2309 70.7126 47.3738 68.9213 47.3986C67.8752 47.413 66.8291 47.4064 65.7922 47.3986C64.9789 47.3921 64.2624 47.1489 63.6779 46.5487C63.5305 46.3986 63.3381 46.3008 63.13 46.2702C62.4017 46.2192 61.6629 46.1956 60.932 46.1564H60.9215ZM56.4444 56.8445C56.6967 57.059 56.8367 57.1858 56.9844 57.3022C60.3187 59.9173 63.6517 62.5325 66.9834 65.1476C67.3169 65.4091 67.5287 65.3333 67.8268 65.0979C70.3548 63.1043 72.8854 61.1181 75.4186 59.1393L78.3541 56.8445C77.5695 56.8445 76.9733 56.8524 76.3718 56.8445C75.0642 56.8249 74.3111 56.06 74.3098 54.7694C74.3098 53.6527 74.3098 52.536 74.3098 51.3148C72.1523 52.7649 69.9569 53.7207 67.4398 53.7652C64.9227 53.8096 62.7077 52.8355 60.5802 51.4756C60.5802 52.6341 60.592 53.6802 60.5802 54.7249C60.5606 56.1528 59.8572 56.8432 58.4463 56.8458L56.4444 56.8445ZM73.1264 8.9873C71.5573 6.78796 69.4953 5.7432 66.9076 6.00864C64.7749 6.22701 62.9535 7.15409 61.4942 9.05791C65.4601 8.21845 69.2455 8.09815 73.1264 8.9873Z" fill="currentColor"/>
<path d="M105.166 41.4006C105.166 40.3323 105.166 39.3084 105.166 38.2768C105.144 38.1596 105.092 38.0499 105.017 37.9577C104.42 37.0097 103.825 36.0604 103.215 35.1229C103.116 34.9773 102.975 34.8655 102.811 34.8025C101.861 34.4783 101.201 33.8205 100.703 32.9876C99.8974 31.6434 99.428 30.2103 99.7288 28.6229C99.7873 28.2624 99.9332 27.9217 100.154 27.6305C100.43 27.2997 100.393 26.9898 100.339 26.6276C99.8974 23.7627 100.159 21.0168 101.711 18.4945C102.472 17.2614 103.515 16.3095 104.738 15.542C104.87 15.4637 104.97 15.3408 105.019 15.1955C105.733 11.9997 108.852 9.6435 112.234 9.77688C115.133 9.89194 117.801 12.069 118.435 14.9954C118.493 15.3343 118.68 15.6373 118.958 15.8401C121.011 17.3922 122.173 19.5209 122.822 21.9595C123.256 23.6108 123.44 25.3179 123.368 27.0238C123.355 27.1309 123.369 27.2396 123.408 27.3402C124.207 28.8661 123.931 30.3869 123.367 31.8919C123.01 32.9223 122.338 33.8141 121.445 34.4403C121.31 34.5541 121.151 34.6367 120.981 34.6822C120.514 34.7424 120.344 35.0745 120.13 35.4262C119.643 36.2343 119.1 37.0097 118.588 37.8034C118.505 37.9222 118.455 38.0606 118.443 38.2048C118.431 39.2509 118.436 40.297 118.436 41.377C118.559 41.3849 118.676 41.3992 118.792 41.3992C119.715 41.3992 120.638 41.4293 121.56 41.3992C123.164 41.3391 124.477 41.985 125.63 43.0219C127.337 44.5557 128.465 46.4844 129.354 48.57C129.958 49.9541 130.384 51.4093 130.62 52.9007C130.687 53.3562 130.722 53.8158 130.725 54.2762C130.736 54.5281 130.672 54.7777 130.541 54.9932C130.41 55.2088 130.219 55.3806 129.99 55.487C127.809 56.6161 125.503 57.4871 123.12 58.0826C121.331 58.5324 119.519 58.9129 117.699 59.2045C115.353 59.5798 112.98 59.6334 110.605 59.5732C104.679 59.4215 99.054 58.012 93.6786 55.5446C92.9581 55.2138 92.6979 54.7077 92.7934 53.8225C93.1574 50.2805 94.5465 46.9215 96.7906 44.1569C97.6079 43.137 98.5729 42.2479 99.8281 41.7915C100.41 41.5794 101.02 41.4547 101.638 41.4215C102.792 41.36 103.951 41.4006 105.166 41.4006ZM95.3078 53.5754C98.1886 54.8606 101.207 55.8121 104.304 56.4115C109.755 57.4657 115.366 57.3727 120.779 56.1382C123.228 55.5861 125.615 54.7915 127.906 53.7663C128.1 53.6774 128.239 53.5976 128.191 53.3217C127.752 50.7978 126.743 48.4072 125.242 46.3314C124.599 45.437 123.869 44.6146 122.813 44.1857C122.724 44.1581 122.631 44.1497 122.539 44.161C122.447 44.1723 122.358 44.203 122.279 44.2511C121.708 44.6603 121.164 45.1075 120.609 45.5416C117.958 47.6198 115.305 49.6975 112.652 51.7748C112.04 52.2521 111.488 52.2573 110.877 51.7748C109.328 50.5693 107.787 49.3519 106.242 48.1411C104.581 46.8387 102.921 45.536 101.261 44.2328C101.061 44.0745 100.869 44.034 100.674 44.1765C100.12 44.5793 99.5195 44.9415 99.0423 45.4226C97.9962 46.4687 97.2862 47.7514 96.6651 49.0839C95.984 50.5022 95.5262 52.0172 95.3078 53.5754ZM102.72 25.8365C102.935 25.4887 103.1 25.2429 103.244 24.9866C103.858 23.8908 104.494 22.8108 104.531 21.4927C104.55 21.2055 104.672 20.9348 104.875 20.7306C105.078 20.5265 105.348 20.4029 105.635 20.3826C106.247 20.3316 106.716 20.6873 106.961 21.2391C107.205 21.7909 107.475 22.3492 107.861 22.799C108.963 24.0857 110.444 24.8074 112.012 25.3645C114.402 26.2131 116.891 26.5138 119.404 26.6524C119.885 26.6799 120.369 26.6524 120.879 26.6524C120.919 24.9944 120.671 23.3421 120.147 21.7686C119.261 19.109 117.547 17.2824 114.785 16.5776C112.701 16.0467 110.609 16.1147 108.525 16.622C106.783 17.0457 105.283 17.8734 104.159 19.2947C102.643 21.1998 102.467 23.4083 102.72 25.8313V25.8365ZM107.743 37.2686L107.688 37.3431C108.119 37.7263 108.531 38.1277 108.984 38.4899C110.614 39.7779 112.449 39.8642 114.183 38.7514C115.067 38.1681 115.844 37.4375 116.481 36.5913C117.316 35.5267 118.016 34.3634 118.566 33.1275C118.794 32.6045 119.199 32.258 119.757 32.3168C120.166 32.36 120.362 32.2057 120.541 31.9246C120.714 31.6833 120.868 31.4289 121 31.1635C121.271 30.5451 121.467 29.9044 121.393 29.2022C121.27 29.1943 121.178 29.1839 121.085 29.1813C118.81 29.1263 116.543 28.9917 114.307 28.5353C112.208 28.1078 110.171 27.4893 108.344 26.3451C107.596 25.8731 106.914 25.2991 106.184 24.7604C105.451 26.3295 104.443 27.7809 103.329 29.1604C103.294 29.2189 103.272 29.284 103.264 29.3515C103.255 29.4191 103.262 29.4876 103.281 29.5526C103.449 30.1081 103.65 30.6526 103.884 31.1832C104.835 33.172 106.238 34.5999 108.563 34.8444C108.9 34.8797 109.217 34.9437 109.439 34.5632C109.555 34.4125 109.706 34.293 109.879 34.2154C110.439 33.9003 113.018 33.8859 113.581 34.1801C114.412 34.6142 114.575 35.3491 114.549 36.2043C114.516 37.317 113.836 38.0348 112.718 38.044C112.064 38.0532 111.42 38.044 110.77 38.044C110.526 38.0523 110.283 38.0102 110.057 37.9202C109.83 37.8302 109.625 37.6942 109.453 37.521C109.362 37.4274 109.242 37.3668 109.112 37.3484C108.658 37.3078 108.203 37.2935 107.743 37.2686ZM104.951 43.9255C105.109 44.0562 105.196 44.1373 105.289 44.2092C107.361 45.8332 109.437 47.462 111.517 49.0956C111.723 49.2591 111.857 49.212 112.04 49.0655C113.609 47.8234 115.185 46.586 116.768 45.3533C117.348 44.8983 117.93 44.4459 118.598 43.9255C118.113 43.9255 117.739 43.9255 117.364 43.9255C116.549 43.9137 116.08 43.439 116.08 42.6336C116.08 41.938 116.08 41.2423 116.08 40.4826C114.736 41.3849 113.369 41.9798 111.802 42.0086C110.234 42.0373 108.854 41.4293 107.53 40.582C107.53 41.3038 107.538 41.955 107.53 42.6061C107.517 43.4953 107.079 43.9255 106.2 43.9268L104.951 43.9255ZM115.34 14.1219C114.362 12.7516 113.079 12.1017 111.468 12.2665C110.14 12.3972 109.006 12.9804 108.096 14.1651C110.567 13.6447 112.925 13.5636 115.341 14.1219H115.34Z" fill="currentColor"/>
<path d="M16.3882 41.4006C16.3882 40.3323 16.3882 39.3084 16.3816 38.2768C16.3595 38.1596 16.3083 38.0499 16.2326 37.9577C15.635 37.0097 15.0414 36.0604 14.4294 35.1229C14.3312 34.9768 14.19 34.8648 14.0254 34.8025C13.0774 34.4783 12.4171 33.8205 11.9176 32.9876C11.1134 31.6434 10.6427 30.2103 10.9434 28.6229C11.003 28.2625 11.1493 27.9219 11.3697 27.6305C11.6456 27.2997 11.609 26.9898 11.5541 26.6276C11.1239 23.7666 11.3762 21.0168 12.9336 18.4945C13.6946 17.2614 14.738 16.3095 15.9593 15.542C16.0918 15.4638 16.1919 15.3409 16.2417 15.1955C16.9543 11.9997 20.0729 9.6435 23.4569 9.77688C26.3545 9.89194 29.0233 12.069 29.6574 14.9954C29.7139 15.3348 29.9018 15.6383 30.1805 15.8401C32.2321 17.3922 33.3945 19.5209 34.0443 21.9595C34.4774 23.611 34.6616 25.3179 34.5909 27.0238C34.5778 27.1308 34.5908 27.2393 34.6288 27.3402C35.4291 28.8661 35.1519 30.3869 34.5896 31.8919C34.2323 32.9224 33.5592 33.8141 32.6662 34.4403C32.5313 34.5544 32.3727 34.637 32.202 34.6822C31.7365 34.7424 31.5652 35.0745 31.3521 35.4262C30.8643 36.2343 30.3217 37.0097 29.8104 37.8034C29.7268 37.9218 29.6763 38.0604 29.664 38.2048C29.6522 39.2509 29.664 40.297 29.664 41.377C29.7882 41.3849 29.9033 41.3992 30.0196 41.3992C30.9428 41.3992 31.8672 41.4293 32.7878 41.3992C34.3922 41.3391 35.7063 41.985 36.8582 43.0219C38.5646 44.5557 39.6944 46.4844 40.5835 48.57C41.1868 49.9541 41.6117 51.4093 41.8479 52.9007C41.9155 53.3561 41.9504 53.8158 41.9526 54.2762C41.964 54.5282 41.9003 54.7779 41.7694 54.9935C41.6386 55.2091 41.4465 55.3809 41.2177 55.487C39.0368 56.6163 36.7317 57.4873 34.349 58.0826C32.5603 58.5324 30.748 58.9129 28.9265 59.2045C26.582 59.5798 24.2088 59.6334 21.8342 59.5732C15.9083 59.4215 10.2818 58.012 4.90767 55.5446C4.18589 55.2138 3.92699 54.7077 4.02245 53.8225C4.3861 50.2806 5.77477 46.9216 8.01839 44.1569C8.83693 43.137 9.80061 42.2479 11.0559 41.7915C11.6375 41.5794 12.2474 41.4547 12.8656 41.4215C14.0136 41.36 15.1669 41.4006 16.3882 41.4006ZM6.52906 53.5701C9.40992 54.8552 12.4282 55.8067 15.5252 56.4063C17.5981 56.8065 19.6993 57.0426 21.8094 57.1124C25.237 57.2249 28.6649 56.8957 32.0085 56.133C34.4567 55.5809 36.8439 54.7863 39.1347 53.7611C39.3309 53.6721 39.4695 53.5924 39.4211 53.3165C38.9822 50.7923 37.9734 48.4016 36.4712 46.3262C35.8292 45.4318 35.0983 44.6093 34.043 44.1805C33.9546 44.1529 33.8612 44.1445 33.7693 44.1558C33.6773 44.167 33.5888 44.1978 33.5096 44.2458C32.9381 44.6551 32.3929 45.1023 31.8398 45.5364C29.1863 47.6146 26.5332 49.6923 23.8806 51.7696C23.2699 52.2469 22.7168 52.2521 22.1062 51.7696C20.558 50.564 19.0164 49.3467 17.4708 48.1359C15.8102 46.8335 14.15 45.5307 12.4903 44.2275C12.2902 44.0693 12.098 44.0288 11.9032 44.1713C11.3501 44.574 10.7499 44.9362 10.2713 45.4174C9.22528 46.4635 8.51658 47.7462 7.89417 49.0786C7.21044 50.4984 6.74998 52.0151 6.52906 53.5754V53.5701ZM13.9417 25.8313C14.1575 25.4834 14.3209 25.2376 14.4647 24.9813C15.0793 23.8856 15.7135 22.8055 15.7527 21.4875C15.7707 21.2003 15.8924 20.9294 16.0951 20.7252C16.2979 20.521 16.5679 20.3974 16.855 20.3774C17.4682 20.3264 17.9363 20.682 18.1809 21.2338C18.4254 21.7856 18.696 22.344 19.0805 22.7938C20.1841 24.0804 21.6655 24.8022 23.2333 25.3592C25.6236 26.2078 28.1106 26.5086 30.625 26.6472C31.1062 26.6747 31.59 26.6472 32.1 26.6472C32.1387 24.9892 31.8905 23.3369 31.3664 21.7634C30.4825 19.1038 28.7683 17.2771 26.0054 16.5723C23.9224 16.0415 21.829 16.1094 19.7447 16.6168C18.003 17.0404 16.5045 17.8681 15.38 19.2895C13.8711 21.1998 13.6893 23.4083 13.9417 25.8313ZM18.9667 37.2686L18.9118 37.3431C19.342 37.7263 19.7552 38.1277 20.2063 38.4899C21.8368 39.7779 23.6727 39.8642 25.4052 38.7514C26.29 38.1685 27.068 37.4378 27.7052 36.5913C28.5397 35.527 29.2393 34.3636 29.7882 33.1275C30.0183 32.6045 30.4224 32.258 30.9794 32.3168C31.3887 32.36 31.5861 32.2057 31.7639 31.9246C31.9376 31.684 32.0911 31.4294 32.2229 31.1635C32.4949 30.5451 32.691 29.9044 32.6152 29.2022C32.4923 29.1943 32.3994 29.1839 32.3066 29.1813C30.0327 29.1263 27.7654 28.9917 25.5281 28.5353C23.436 28.1078 21.3936 27.4893 19.5669 26.3451C18.819 25.8731 18.1351 25.2991 17.4068 24.7604C16.6719 26.3295 15.6651 27.7809 14.551 29.1604C14.5161 29.2188 14.4938 29.2838 14.4854 29.3514C14.4771 29.4189 14.483 29.4875 14.5026 29.5526C14.6697 30.1081 14.8711 30.6526 15.1054 31.1832C16.0561 33.172 17.4591 34.5999 19.7839 34.8444C20.1226 34.8797 20.4377 34.9437 20.66 34.5632C20.776 34.4128 20.9274 34.2933 21.1007 34.2154C21.6616 33.9003 24.2388 33.8859 24.8024 34.1801C25.634 34.6142 25.7962 35.3491 25.7713 36.2043C25.7386 37.317 25.0587 38.0348 23.9407 38.044C23.2869 38.0532 22.641 38.044 21.9911 38.044C21.7475 38.0523 21.5047 38.0101 21.2781 37.9201C21.0515 37.8301 20.846 37.6942 20.6744 37.521C20.5829 37.4272 20.4629 37.3665 20.3331 37.3484C19.8846 37.3078 19.4257 37.2935 18.9667 37.2686ZM16.175 43.9255C16.3319 44.0562 16.4196 44.1373 16.5111 44.2092C18.5875 45.8376 20.6631 47.4664 22.7378 49.0956C22.9457 49.2591 23.0777 49.212 23.2608 49.0655C24.8299 47.8234 26.4059 46.586 27.989 45.3533C28.5695 44.8983 29.1514 44.4459 29.8196 43.9255C29.3345 43.9255 28.9592 43.9255 28.5852 43.9255C27.7693 43.9137 27.3012 43.439 27.2999 42.6336V40.4826C25.957 41.3849 24.5906 41.9798 23.0228 42.0086C21.455 42.0373 20.0755 41.4293 18.7497 40.582C18.7497 41.3038 18.7575 41.955 18.7497 42.6061C18.7379 43.4953 18.2985 43.9255 17.4212 43.9268L16.175 43.9255ZM26.5637 14.1219C25.5843 12.7516 24.3016 12.1017 22.6907 12.2665C21.3622 12.3972 20.2285 12.9804 19.3198 14.1651C21.7898 13.6447 24.1473 13.5636 26.5637 14.1219Z" fill="currentColor"/>
</svg>
