<svg width="84" height="80" viewBox="0 0 84 80" fill="none" xmlns="http://www.w3.org/2000/svg">
<path d="M68.9219 25.6999H62.7451L72.9614 8.09961C76.3724 13.9732 79.7501 19.7949 83.1777 25.6981H77.0102V72.6568H68.9219V25.6999Z" fill="currentColor"/>
<path d="M62.7378 47.8613C62.7378 48.6951 62.6971 49.5252 62.747 50.3645C62.8228 51.6143 62.2756 52.5424 61.3679 53.3133C60.2272 54.2802 58.8905 54.8848 57.4854 55.347C54.0227 56.4987 50.449 56.8426 46.8236 56.752C43.9857 56.6799 41.1904 56.3157 38.4782 55.4412C36.9382 54.9439 35.461 54.3153 34.2261 53.2227C33.3627 52.4647 32.8931 51.5588 32.9319 50.3627C32.9812 48.668 32.9812 46.9714 32.9319 45.273C32.8986 44.0787 33.3812 43.1728 34.2409 42.4167C35.3113 41.4775 36.574 40.8859 37.8977 40.4107C40.1708 39.6268 42.5385 39.1505 44.9378 38.9946C48.4798 38.6905 52.0476 38.94 55.5128 39.7341C57.1545 40.1205 58.7648 40.6233 60.1957 41.5329C60.8967 42.0028 61.5418 42.5511 62.1185 43.1673C62.5825 43.6405 62.7526 44.2765 62.7434 44.9661C62.7286 45.9386 62.7378 46.9092 62.7378 47.8613ZM48.7371 49.3403C49.6615 49.2516 51.4973 49.1351 53.3128 48.88C55.3464 48.5934 57.332 48.0665 59.1475 47.0626C59.7401 46.7363 60.2856 46.3307 60.7689 45.8572C61.4363 45.1954 61.427 44.5076 60.7689 43.8439C60.327 43.4058 59.8298 43.0273 59.2899 42.718C57.7831 41.8435 56.1248 41.3684 54.4331 41.0171C51.1534 40.3349 47.8404 40.237 44.5145 40.5291C42.3684 40.6907 40.254 41.1416 38.2287 41.8694C37.0306 42.315 35.8659 42.8271 34.9582 43.77C34.2612 44.4947 34.2482 45.1658 34.9341 45.8923C35.2192 46.2063 35.5495 46.4761 35.914 46.6929C36.6323 47.1128 37.3807 47.4792 38.1529 47.7892C41.2754 48.9576 44.5293 49.2904 48.7445 49.3421L48.7371 49.3403Z" fill="currentColor"/>
<path d="M29.8129 32.3359C29.8129 33.1845 29.7759 34.0349 29.8129 34.8798C29.8795 36.0778 29.3637 36.98 28.504 37.7343C27.489 38.6236 26.2965 39.2004 25.0431 39.6589C21.8428 40.8273 18.5132 41.2266 15.1337 41.2488C11.6802 41.271 8.27657 40.8791 4.99685 39.7365C3.64355 39.2632 2.35496 38.6568 1.26974 37.6899C0.424847 36.9356 -0.0354973 36.0353 -0.00221946 34.8595C0.0439998 33.1512 0.042151 31.4374 -0.00221946 29.7273C-0.0317998 28.5681 0.435938 27.6788 1.26789 26.9412C2.49917 25.8486 3.97449 25.2089 5.52006 24.7227C9.00869 23.6134 12.599 23.2843 16.2429 23.41C19.164 23.5117 22.0407 23.911 24.812 24.889C26.0691 25.3327 27.2727 25.8874 28.3246 26.7378C29.3248 27.5476 29.9257 28.5311 29.8295 29.8807C29.7667 30.6923 29.8129 31.515 29.8129 32.3359ZM13.9874 33.8038C17.0416 33.8038 19.1954 33.6374 21.3215 33.2048C23.1425 32.8351 24.9247 32.3414 26.5313 31.3764C27.05 31.0628 27.5229 30.6789 27.9364 30.2357C28.491 29.6404 28.4615 29.0266 27.9253 28.411C27.6749 28.1046 27.378 27.8394 27.0453 27.6252C26.3629 27.2015 25.649 26.8306 24.91 26.516C22.0499 25.379 19.0475 24.9741 15.9933 24.8927C12.4677 24.7984 8.9902 25.1035 5.62729 26.2534C4.49954 26.638 3.40875 27.1113 2.47328 27.8656C1.21796 28.8731 1.21797 29.7994 2.46034 30.8069C2.55517 30.8918 2.65793 30.9673 2.76724 31.0325C3.58069 31.4522 4.36827 31.9421 5.21871 32.2656C8.3191 33.4451 11.5711 33.7816 13.9874 33.8038Z" fill="currentColor"/>
<path d="M55.9554 8.9183C55.9554 9.84268 55.9406 10.7837 55.9554 11.7173C55.9731 12.5033 55.684 13.2653 55.1493 13.8416C54.3599 14.7438 53.3523 15.3372 52.2763 15.8253C50.1336 16.7996 47.8615 17.2932 45.5412 17.589C43.1416 17.8961 40.7166 17.9531 38.3052 17.7591C35.1179 17.504 31.9916 16.9697 29.126 15.4555C28.4112 15.0579 27.7465 14.5762 27.146 14.0209C26.4434 13.3942 26.1292 12.5641 26.1458 11.5935C26.1717 9.89814 26.2013 8.19913 26.1458 6.50565C26.094 5.13756 26.669 4.14108 27.6877 3.32947C29.0484 2.24239 30.6272 1.6138 32.2911 1.14052C36.0034 0.0793234 39.7953 -0.15362 43.6296 0.0904174C46.2789 0.264202 48.8746 0.706058 51.3667 1.65078C52.5629 2.10188 53.698 2.6639 54.6686 3.51803C55.5412 4.28712 56.0478 5.20411 55.9757 6.41505C55.9184 7.247 55.9554 8.0845 55.9554 8.9183ZM40.6106 10.4084C43.979 10.4084 46.8391 10.1144 49.6233 9.27326C51.0487 8.84434 52.439 8.31929 53.5982 7.34499C54.7574 6.37069 54.787 5.45554 53.5686 4.53301C52.8325 3.98738 52.0329 3.53296 51.1874 3.17971C48.9689 2.23498 46.6209 1.82272 44.2305 1.61565C40.3832 1.28103 36.5747 1.48069 32.8383 2.516C31.3371 2.93198 29.8803 3.46997 28.6361 4.45721C27.3419 5.49252 27.3105 6.47237 28.6675 7.42634C29.5464 8.03931 30.4985 8.5399 31.5017 8.91645C34.5799 10.0738 37.8078 10.401 40.6106 10.4084Z" fill="currentColor"/>
<path d="M62.7291 60.994C62.7291 62.8316 62.7495 64.6693 62.718 66.507C62.7051 67.2631 62.2854 67.8714 61.7733 68.4001C60.7343 69.4706 59.4291 70.1065 58.0591 70.6186C55.7278 71.4987 53.2949 71.9294 50.8231 72.1254C47.367 72.4292 43.8848 72.2061 40.4958 71.4635C38.647 71.0439 36.8389 70.4726 35.225 69.4299C34.7514 69.1217 34.3103 68.7661 33.9086 68.3687C33.5849 68.0603 33.3307 67.6864 33.163 67.272C32.9954 66.8575 32.918 66.412 32.9362 65.9653C32.9639 64.2829 32.9362 62.6005 32.9362 60.8867C34.1268 63.5046 36.545 64.3402 38.9706 65.0742C42.8327 66.2426 46.802 66.4589 50.8027 66.1409C53.4058 65.9339 55.9626 65.4846 58.3827 64.4955C59.1522 64.1767 59.8942 63.7952 60.6012 63.3548C61.5515 62.8076 62.3132 62.0681 62.7291 60.994Z" fill="currentColor"/>
<path d="M29.813 45.4649V47.3543C29.813 48.4007 29.7908 49.4471 29.813 50.4972C29.8286 50.9443 29.7493 51.3896 29.5804 51.8039C29.4115 52.2181 29.1569 52.5919 28.8331 52.9006C27.674 54.0857 26.2097 54.7494 24.6771 55.2782C21.5157 56.3615 18.2415 56.735 14.9156 56.7331C11.5194 56.7331 8.17868 56.3431 4.95443 55.2079C3.73063 54.8063 2.5827 54.2027 1.55824 53.422C0.526623 52.603 -0.0612885 51.601 -0.00397662 50.2162C0.0625791 48.6226 0.0108167 47.0234 0.0108167 45.3965C1.18294 48.0033 3.58634 48.8407 5.99529 49.5729C9.91098 50.7616 13.945 50.9761 17.9994 50.6414C20.571 50.4288 23.0927 49.9703 25.5017 49.0071C25.9873 48.8139 26.4608 48.5917 26.9197 48.3416C28.1565 47.6594 29.2658 46.857 29.813 45.4649Z" fill="currentColor"/>
<path d="M29.8129 37.6916V38.0927C29.8129 39.5902 29.7723 41.0914 29.8259 42.5871C29.8703 43.8184 29.3545 44.7391 28.4633 45.5026C27.3263 46.4732 25.9915 47.0796 24.5902 47.5455C21.0609 48.7213 17.4169 49.0652 13.7212 48.9524C10.7632 48.8618 7.84031 48.4588 5.03202 47.4734C3.66763 46.9909 2.36424 46.3863 1.27162 45.4065C0.439674 44.667 -0.022518 43.7722 0.0126086 42.613C0.0588279 41.0877 0.0237008 39.5607 0.0237008 38.0336V37.625C0.484045 38.9728 1.50272 39.7733 2.66005 40.4388C4.50882 41.5037 6.52953 42.075 8.6057 42.4558C12.6327 43.1939 16.7577 43.2227 20.7946 42.5409C22.7229 42.221 24.605 41.7256 26.3742 40.877C26.8072 40.6693 27.227 40.4353 27.6314 40.1763C28.5743 39.5496 29.3933 38.8119 29.8129 37.6916Z" fill="currentColor"/>
<path d="M32.9541 53.041C33.5494 54.8177 34.9286 55.6644 36.4058 56.378C38.5392 57.4097 40.8262 57.9218 43.1593 58.2268C46.6263 58.6882 50.1424 58.6346 53.5938 58.0678C55.7624 57.6981 57.8755 57.1545 59.8297 56.1118C60.7208 55.6348 61.5509 55.0691 62.1462 54.2298C62.3549 53.9024 62.545 53.5636 62.7156 53.2148C62.7156 53.3331 62.7378 53.457 62.7378 53.5846C62.7378 55.0968 62.7008 56.611 62.7507 58.1233C62.7896 59.3194 62.2978 60.2235 61.4344 60.9722C60.1255 62.1092 58.5614 62.7526 56.9308 63.2499C53.6936 64.2353 50.3695 64.5441 47.0029 64.4757C44.1077 64.4147 41.2569 64.0504 38.4875 63.1649C37.0695 62.7101 35.7143 62.1333 34.5256 61.1996C33.786 60.6191 33.1815 59.9443 32.9911 58.9811C32.9731 58.9127 32.9613 58.8428 32.9559 58.7722C32.9541 56.892 32.9541 55.0155 32.9541 53.041Z" fill="currentColor"/>
<path d="M26.1601 14.2754C26.8774 16.0927 28.4341 16.9469 30.0758 17.6771C32.2259 18.6329 34.5128 19.0951 36.8293 19.3743C39.3859 19.6842 41.9688 19.7115 44.5313 19.4556C47.5115 19.1525 50.427 18.5867 53.1078 17.1595C53.5042 16.9399 53.8847 16.6928 54.2466 16.42C55.0044 15.9004 55.5917 15.1685 55.9345 14.3161C55.9345 14.4455 55.9567 14.573 55.9567 14.7006C55.9567 16.2406 55.9345 17.7825 55.966 19.3225C55.9808 19.7771 55.8994 20.2297 55.727 20.6506C55.5547 21.0715 55.2952 21.4512 54.9658 21.7648C53.9822 22.7649 52.7621 23.3787 51.4772 23.8798C49.303 24.7302 47.0401 25.1628 44.7199 25.3976C42.0459 25.675 39.3491 25.6471 36.6814 25.3144C33.949 24.9668 31.2812 24.3808 28.8426 23.0256C28.0634 22.619 27.3757 22.0572 26.8219 21.3747C26.3848 20.8298 26.1497 20.1505 26.1564 19.4519C26.1656 17.7252 26.1601 16.0003 26.1601 14.2754Z" fill="currentColor"/>
<path d="M0.0244141 60.9258C0.579045 62.4233 1.76781 63.2404 3.0712 63.9282C5.05493 64.9746 7.20505 65.5181 9.40323 65.8583C13.6292 66.5358 17.9439 66.4268 22.1302 65.5366C23.8227 65.2028 25.4575 64.6242 26.9832 63.8191C27.8577 63.3403 28.673 62.7783 29.2516 61.9445C29.455 61.6487 29.6011 61.3122 29.7952 60.9572C29.7952 61.1181 29.8137 61.2493 29.8137 61.3806C29.8137 62.9077 29.7878 64.4348 29.8247 65.9618C29.8399 66.4289 29.7549 66.8938 29.5754 67.3253C29.3958 67.7568 29.1259 68.1448 28.7839 68.4632C27.6746 69.5521 26.3158 70.19 24.8867 70.7076C22.5702 71.5451 20.1649 71.9537 17.7209 72.1367C14.2211 72.4324 10.6967 72.1829 7.27345 71.3972C5.36921 70.9443 3.52229 70.3286 1.91201 69.1787C1.04309 68.563 0.303582 67.8346 0.0743345 66.7309C0.0507131 66.6352 0.037088 66.5373 0.0336669 66.4388C0.0275044 64.6011 0.0244141 62.7635 0.0244141 60.9258Z" fill="currentColor"/>
<path d="M0.018967 68.5293C0.636456 70.3522 2.03228 71.1971 3.53163 71.9126C5.69469 72.9479 8.0112 73.4618 10.3721 73.7613C14.4893 74.2679 18.5825 74.144 22.6331 73.1864C24.4006 72.7667 26.107 72.1862 27.647 71.1915C28.7563 70.4705 29.2905 69.8475 29.7916 68.6661C29.8027 68.851 29.8174 68.9656 29.8174 69.0821C29.8174 70.6221 29.7897 72.1658 29.8285 73.704C29.8444 74.1854 29.7556 74.6644 29.5682 75.1081C29.3808 75.5518 29.0994 75.9495 28.7433 76.2738C27.7302 77.2592 26.4897 77.8674 25.1881 78.3629C22.8846 79.2374 20.483 79.6719 18.0389 79.8715C14.9217 80.151 11.7811 80.0117 8.7008 79.4574C6.4416 79.034 4.23601 78.4369 2.27447 77.1797C1.77919 76.8541 1.3205 76.476 0.906375 76.052C0.609249 75.7575 0.37673 75.4044 0.223625 75.0151C0.0705192 74.6258 0.000184845 74.2089 0.0171164 73.7909C0.0356041 72.0771 0.018967 70.3688 0.018967 68.5293Z" fill="currentColor"/>
<path d="M62.7378 68.724V72.7025C62.7258 72.9427 62.7258 73.1834 62.7378 73.4236C62.8857 74.8804 62.1924 75.9176 61.0943 76.7513C59.6633 77.8421 58.0161 78.467 56.3041 78.9329C52.6916 79.9164 49.0107 80.1401 45.2891 79.8961C42.5696 79.7112 39.9037 79.2564 37.3524 78.2618C36.1081 77.7756 34.9323 77.1692 33.971 76.2097C33.6302 75.8898 33.3612 75.5013 33.1818 75.0698C33.0023 74.6383 32.9166 74.1736 32.9301 73.7064C32.9634 72.0259 32.9301 70.3435 32.9301 68.5742C33.7454 70.7132 35.5424 71.5674 37.3967 72.318C39.789 73.2849 42.3108 73.7138 44.8676 73.9153C48.0557 74.1907 51.2665 74.0246 54.4091 73.4217C56.428 73.0224 58.3932 72.4603 60.181 71.4065C61.281 70.7706 62.2405 69.9996 62.7378 68.724Z" fill="currentColor"/>
<path d="M0.0188973 53.1445C0.490334 54.4941 1.51825 55.2947 2.67743 55.9565C4.71108 57.1157 6.92961 57.6888 9.20914 58.0697C12.3781 58.5899 15.6033 58.6739 18.795 58.3192C21.5885 58.0179 24.3191 57.4522 26.839 56.134C27.2242 55.9299 27.5948 55.6995 27.9483 55.4444C28.7525 54.8694 29.4273 54.1817 29.736 53.1723C29.7675 53.2166 29.7915 53.2351 29.7915 53.2555C29.7915 55.0506 29.8026 56.8458 29.7915 58.6409C29.7915 59.3231 29.4717 59.8907 29.052 60.3991C28.2884 61.3087 27.2957 61.9022 26.2382 62.3902C23.929 63.457 21.4739 63.9765 18.9651 64.2519C15.7035 64.6268 12.4057 64.5453 9.16661 64.0098C6.7743 63.603 4.44116 63.0022 2.35204 61.7043C1.85284 61.385 1.38925 61.0131 0.969168 60.5951C0.650846 60.292 0.400904 59.9244 0.236069 59.5169C0.0712346 59.1095 -0.00470035 58.6715 0.0133455 58.2324C0.0392283 56.537 0.0188973 54.8417 0.0188973 53.1445Z" fill="currentColor"/>
<path d="M32.8252 26.4226C33.7625 26.6075 34.6943 26.8312 35.6409 26.9643C40.871 27.7038 46.0439 27.5559 51.0837 25.8106C52.0107 25.4661 52.9022 25.0327 53.7459 24.5165C54.7202 23.9471 55.5226 23.1761 55.8997 22.0059C55.9239 22.0546 55.9419 22.1061 55.9533 22.1593C55.9533 23.9693 55.9755 25.7792 55.9348 27.5873C55.9126 28.5117 55.3488 29.1902 54.6943 29.7781C53.6571 30.7025 52.4203 31.2922 51.1262 31.7674C48.6507 32.6733 46.0772 33.0892 43.4593 33.2575C40.3111 33.4752 37.1478 33.2594 34.0583 32.616C33.6128 32.5198 33.4501 32.3719 33.4556 31.8875C33.4822 30.6738 33.4476 29.4594 33.3521 28.2492C33.2966 27.6428 33.0119 27.0456 32.8252 26.4226Z" fill="currentColor"/>
<path d="M33.4961 38.4556V34.3051C34.2855 34.4512 35.0435 34.6102 35.8071 34.7285C38.8562 35.1965 41.954 35.2587 45.0195 34.9134C47.2879 34.6619 49.5101 34.2145 51.6362 33.3641C52.74 32.9571 53.7637 32.3595 54.6608 31.5985C55.2585 31.0964 55.6919 30.4267 55.905 29.6758C55.9272 29.8791 55.9457 29.9753 55.9457 30.0696C55.9457 31.7088 55.9457 33.3487 55.9457 34.9892V35.076C55.9272 35.9653 55.7997 36.0596 54.9529 35.9024C49.7032 34.8937 44.2985 35.0198 39.1016 36.2722C37.2242 36.7021 35.4186 37.4001 33.7401 38.3447C33.6791 38.3798 33.6015 38.4038 33.4961 38.4556Z" fill="currentColor"/>
<path d="M48.7446 47.4012V48.2498H46.7886V47.5103L43.3037 47.1406C43.4752 46.8156 43.6692 46.503 43.8842 46.2051C43.9563 46.1201 44.1856 46.1385 44.339 46.1515C45.4483 46.2439 46.5575 46.3752 47.6668 46.4325C48.0901 46.425 48.5102 46.3578 48.9147 46.2328C49.0386 46.2033 49.2272 46.0258 49.2161 45.9407C49.1986 45.8635 49.163 45.7915 49.1122 45.7308C49.0614 45.67 48.9969 45.6222 48.924 45.5913C48.1734 45.4064 47.4098 45.2641 46.6555 45.0903C45.9012 44.9165 45.1155 44.7427 44.3612 44.5116C43.9323 44.3804 43.4904 44.1419 43.4738 43.6039C43.4572 43.0659 43.8953 42.7756 44.3353 42.624C44.9584 42.4077 45.611 42.2783 46.2525 42.123C46.4374 42.0768 46.6407 42.0676 46.8589 42.038C46.8718 41.7736 46.8829 41.524 46.8977 41.2227C47.5041 41.2227 48.0939 41.2227 48.6836 41.2227C48.7483 41.2227 48.8482 41.3539 48.8685 41.439C48.8837 41.6019 48.8837 41.7659 48.8685 41.9289L51.8099 42.221C51.6527 42.5183 51.4761 42.8048 51.2811 43.0788C51.2256 43.1215 51.1616 43.1519 51.0933 43.1678C51.0251 43.1838 50.9542 43.1849 50.8855 43.1713C49.6653 42.9864 48.4433 42.844 47.2157 43.0437C46.9846 43.0807 46.7794 43.2859 46.5612 43.4135C46.7609 43.5466 46.9439 43.7518 47.1639 43.7998C48.1974 44.0272 49.2457 44.1899 50.2773 44.421C50.7741 44.5246 51.256 44.6899 51.7119 44.9128C52.5605 45.3417 52.5735 46.1071 51.7655 46.6155C50.9576 47.1239 49.9926 47.2423 49.0515 47.3643L48.7446 47.4012Z" fill="currentColor"/>
<path d="M13.9321 26.4926V25.7383H15.8474C15.8585 25.7512 15.8899 25.7716 15.8936 25.7937C15.9713 26.4611 15.9731 26.4464 16.683 26.4926C17.393 26.5388 18.0807 26.6238 18.8664 26.6996C18.7145 26.9989 18.5403 27.2863 18.3451 27.5593C18.2821 27.6043 18.2104 27.6356 18.1347 27.6512C18.0589 27.6668 17.9807 27.6663 17.9051 27.6499C16.7163 27.465 15.522 27.3208 14.324 27.5223C14.0763 27.563 13.8563 27.7682 13.6233 27.8921C13.8341 28.0271 14.0319 28.2341 14.263 28.2859C15.2539 28.5077 16.2597 28.6556 17.2488 28.8849C17.8008 29.0033 18.3361 29.1896 18.8424 29.4395C19.6281 29.8426 19.6411 30.5784 18.9016 31.0701C18.0881 31.6118 17.1415 31.7283 16.2024 31.8485L15.8326 31.891L15.7919 32.7303H13.86V31.9908L10.3584 31.6211C10.5913 31.2365 10.7503 30.9296 10.9555 30.6597C11.0092 30.5895 11.207 30.6153 11.3364 30.6246C12.5289 30.7189 13.7213 30.8298 14.9175 30.9074C15.2002 30.921 15.4829 30.8789 15.7494 30.7836C15.9488 30.6802 16.1319 30.5481 16.2929 30.3916C16.1284 30.2548 15.9824 30.0515 15.7938 29.9979C15.2521 29.8463 14.6845 29.7575 14.141 29.641C13.3553 29.4783 12.564 29.3341 11.7857 29.1345C11.4597 29.0443 11.1528 28.8959 10.8798 28.6963C10.3935 28.3524 10.3492 27.7867 10.8391 27.4558C11.3123 27.1563 11.8259 26.926 12.3643 26.7717C12.8803 26.6447 13.404 26.5514 13.9321 26.4926Z" fill="currentColor"/>
<path d="M41.9768 8.4643C41.962 8.77304 41.949 9.03557 41.9343 9.32028H40.0078C39.9967 9.07069 39.9838 8.82481 39.9727 8.56783L36.5137 8.19807C36.7411 7.81538 36.9001 7.51033 37.1034 7.23671C37.1552 7.16831 37.353 7.19419 37.4824 7.20343C38.6767 7.29772 39.8692 7.4068 41.0653 7.4863C41.3338 7.50392 41.603 7.4668 41.8566 7.37722C42.0691 7.26941 42.2667 7.13456 42.4445 6.97604C42.2596 6.83553 42.1099 6.62477 41.9084 6.56746C41.3815 6.41771 40.8342 6.33821 40.2962 6.22544C39.4957 6.05905 38.6934 5.90375 37.8928 5.71148C37.6205 5.63725 37.362 5.51924 37.1275 5.36207C36.5155 4.96828 36.473 4.34154 37.0868 3.96255C37.5625 3.69166 38.0715 3.48407 38.6009 3.34505C39.0808 3.23378 39.5666 3.14984 40.0559 3.09362V2.33008H42.0267L42.0877 3.01783L45.0217 3.30807C44.8756 3.59711 44.703 3.87192 44.5059 4.12893C44.3576 4.23326 44.1751 4.27693 43.9956 4.25095C43.0953 4.18994 42.1968 4.09196 41.2964 4.04019C40.9712 4.02332 40.6453 4.0589 40.3314 4.14557C40.1243 4.20104 39.9616 4.38406 39.7657 4.51533C39.9394 4.63735 40.0966 4.82592 40.2889 4.87029C41.1264 5.05516 41.9805 5.19013 42.818 5.38425C43.5055 5.54285 44.1843 5.73722 44.8516 5.96661C45.2362 6.09787 45.5542 6.37334 45.5652 6.82814C45.5763 7.28294 45.2546 7.54177 44.9034 7.74143C44.1121 8.19253 43.2303 8.32009 42.3447 8.42917L41.9768 8.4643Z" fill="currentColor"/>
</svg>
