<svg width="68" height="80" viewBox="0 0 68 80" fill="none" xmlns="http://www.w3.org/2000/svg">
<path d="M4.47443 41.5854L0.0672713 41.9065L0 41.8101L13.3958 29.9201L13.4875 29.9706C13.0717 35.9324 12.6554 41.8942 12.2386 47.856L12.1652 47.8805C11.5277 46.9037 10.8918 45.9253 10.2299 44.9088C8.75777 54.2 13.2689 66.1741 25.0244 71.5535C36.1929 76.6639 49.4571 72.9798 56.515 62.8737C63.6019 52.7188 62.4875 39.1487 53.7986 30.3971C49.0444 25.6078 43.2507 23.0595 36.5062 22.8256C29.7801 22.5993 23.8549 24.7578 18.6895 29.1206L14.5805 24.4154C16.3252 22.868 18.236 21.5186 20.2778 20.3919C22.3065 19.2763 24.454 18.3917 26.6799 17.755C22.9591 12.8036 24.0812 6.10801 28.3783 2.5569C32.5225 -0.873437 38.6555 -0.847454 42.7218 2.59053C47.0342 6.23794 48.1058 12.9152 44.4156 17.836C47.6732 18.77 50.6633 20.2498 53.4347 22.0964L56.1588 19.3738C55.8317 19.0971 55.4755 18.799 55.1407 18.5178L57.7746 15.8915L63.2335 21.3504L60.6348 23.917L59.8108 22.9677L57.5025 25.2745C64.1003 31.8722 67.5123 39.8534 67.2539 49.2746C67.0644 56.172 64.7576 62.3555 60.4972 67.7838C51.9534 78.6726 37.295 82.8214 24.4481 78.0152C20.9094 76.696 17.6339 74.7575 14.7746 72.2903C11.9026 69.8228 9.49573 66.8608 7.66782 63.5448C5.83531 60.2368 4.61668 56.6244 4.07085 52.8823C3.50201 49.1244 3.63888 45.2932 4.47443 41.5854ZM31.6099 9.94192H39.4061V13.7101C39.0071 13.7101 38.625 13.7101 38.2428 13.7101C38.0456 13.7101 37.9768 13.7774 37.9799 13.9746C37.989 14.4882 37.9799 15.0034 37.9799 15.5185V16.5458C38.9674 16.6834 39.9075 16.7965 40.8385 16.9509C40.9492 16.9791 41.0656 16.975 41.1741 16.939C41.2825 16.9029 41.3782 16.8365 41.4499 16.7476C43.2232 14.8734 43.9371 12.6584 43.6573 10.0963C43.1666 5.58215 38.9445 2.20836 34.4547 2.8397C31.1941 3.29831 28.8782 5.09602 27.7378 8.19006C26.5974 11.2841 27.2348 14.0923 29.3841 16.5779C29.6516 16.8836 29.91 17.0839 30.338 16.9325C30.5078 16.889 30.6813 16.8619 30.8562 16.8515L33.0208 16.5595C33.0208 15.6744 33.0208 14.8092 33.0208 13.9455C33.0208 13.7468 32.92 13.7162 32.7579 13.7193C32.3758 13.7193 31.9936 13.7193 31.5977 13.7193L31.6099 9.94192Z" fill="currentColor"/>
<path d="M33.6173 31.7152V28.2207H37.3992V31.7259C41.8034 32.261 44.4816 34.765 45.7382 38.9719L40.4474 41.1563C40.3159 40.8506 40.1998 40.5708 40.0775 40.2957C39.6816 39.4029 39.2016 38.5622 38.4938 37.8758C37.3626 36.7813 36.0158 36.4602 34.5192 36.8455C32.668 37.3178 31.5735 39.3724 32.1758 41.1793C32.2711 41.5008 32.4316 41.7994 32.6473 42.0563C32.8629 42.3132 33.1291 42.5231 33.4293 42.6728C34.5391 43.2139 35.6596 43.7428 36.8061 44.2014C38.694 44.9535 40.6064 45.6353 42.3873 46.6351C44.6803 47.9238 46.0286 49.8881 46.5147 52.4318C46.9203 54.4927 46.6784 56.6285 45.8222 58.5465C44.6222 61.2477 42.479 62.8268 39.6678 63.5697C38.9356 63.7608 38.185 63.8754 37.413 64.0283V68.515H33.6448V63.9932C30.9146 63.6874 28.5406 62.706 26.7765 60.5445C25.5154 58.9975 24.8106 57.1952 24.3643 55.2278L30.239 53.7144C30.2711 53.8412 30.2955 53.9498 30.3276 54.0553C30.4805 54.5689 30.6058 55.0963 30.8076 55.5839C31.5949 57.5101 33.0731 58.5113 35.1231 58.6413C35.8341 58.6803 36.5473 58.6357 37.2479 58.5083C39.4217 58.1261 40.0821 56.2963 39.9124 54.6484C39.81 53.6425 39.3223 52.8614 38.3837 52.4486C36.9773 51.8234 35.5404 51.267 34.1248 50.6631C32.6542 50.0364 31.1286 49.5029 29.7421 48.7232C27.3452 47.3765 25.9097 45.2761 25.549 42.5153C25.3029 40.6412 25.471 38.8022 26.2094 37.0442C27.3987 34.2116 29.5725 32.5789 32.532 31.9293C32.882 31.8574 33.2382 31.7901 33.6173 31.7152Z" fill="currentColor"/>
</svg>
