<svg width="22" height="23" viewBox="0 0 22 23" fill="none" xmlns="http://www.w3.org/2000/svg">
<path fill-rule="evenodd" clip-rule="evenodd" d="M7.49622 6.86065C7.80349 6.68061 8.18283 6.67812 8.49242 6.8541L15.5261 10.8522C15.8397 11.0305 16.0336 11.3646 16.0336 11.7267C16.0336 12.0888 15.8397 12.4228 15.5261 12.6011L8.49242 16.5992C8.18283 16.7752 7.80349 16.7727 7.49622 16.5927C7.18895 16.4127 7 16.0822 7 15.7248V7.72856C7 7.37118 7.18895 7.04069 7.49622 6.86065ZM9 9.45135V14.002L13.0028 11.7267L9 9.45135Z" fill="currentColor"/>
<path fill-rule="evenodd" clip-rule="evenodd" d="M6 2.73611C3.78598 2.73611 2 4.52869 2 6.72904V16.7243C2 18.9247 3.78598 20.7173 6 20.7173H16C18.214 20.7173 20 18.9247 20 16.7243V6.72904C20 4.52869 18.214 2.73611 16 2.73611H6ZM0 6.72904C0 3.40914 2.69117 0.726685 6 0.726685H16C19.3088 0.726685 22 3.40914 22 6.72904V16.7243C22 20.0442 19.3088 22.7267 16 22.7267H6C2.69117 22.7267 0 20.0442 0 16.7243V6.72904Z" fill="currentColor"/>
</svg>
