<svg width="220" height="34" viewBox="0 0 220 34" fill="none" xmlns="http://www.w3.org/2000/svg">
<g clip-path="url(#clip0_9_6110)">
<path d="M184.18 4.58594L184.192 33.9997L220 19.281L184.18 4.58594Z" fill="#E63E1D"/>
<path d="M26.3739 17.2676L25.3084 23.193H23.2851L22.0879 17.2676H23.764L24.3387 22.0079L24.9133 17.2676H26.3739Z" fill="#E63E1D"/>
<path d="M26.543 17.2676H29.9431V18.1801L28.3388 22.1738H30.0029V23.2522H26.543V22.1738L28.0874 18.346H26.543V17.2676Z" fill="#E63E1D"/>
<path d="M30.5762 15.7617H32.2523V23.2396H30.5762V15.7617Z" fill="#E63E1D"/>
<path d="M37.0767 20.4428H34.6823V21.8293C34.6746 21.8814 34.6791 21.9345 34.6955 21.9846C34.7118 22.0347 34.7396 22.0804 34.7766 22.1182C34.8136 22.156 34.8589 22.1849 34.909 22.2026C34.9591 22.2203 35.0126 22.2264 35.0654 22.2204C35.3168 22.2204 35.4366 22.09 35.4366 21.8293V20.9998H37.0887V21.6515C37.1179 21.9026 37.0827 22.1568 36.9864 22.3909C36.8902 22.6249 36.736 22.8312 36.538 22.9907C36.0941 23.2388 35.5856 23.3502 35.0774 23.3107C34.5669 23.3486 34.0561 23.2417 33.6048 23.0026C33.4054 22.8411 33.2496 22.6331 33.1514 22.3973C33.0532 22.1615 33.0156 21.9052 33.0421 21.6515V18.8666C33.0118 18.6131 33.0451 18.3561 33.1391 18.1184C33.2331 17.8807 33.3848 17.6696 33.5809 17.5038C34.0385 17.2708 34.5524 17.1682 35.0654 17.2075C35.5826 17.1627 36.1019 17.2655 36.5619 17.5038C36.7542 17.6721 36.9025 17.8839 36.9943 18.1212C37.086 18.3585 37.1184 18.6142 37.0887 18.8666L37.0767 20.4428ZM34.6823 18.6533V19.4947H35.4366V18.6533C35.4443 18.6028 35.4401 18.5512 35.4244 18.5025C35.4087 18.4538 35.3818 18.4094 35.3459 18.3727C35.31 18.336 35.266 18.308 35.2173 18.2909C35.1687 18.2738 35.1167 18.268 35.0654 18.2741C35.0124 18.2638 34.9576 18.2664 34.9058 18.2816C34.8539 18.2969 34.8066 18.3243 34.7678 18.3615C34.729 18.3988 34.6999 18.4448 34.6829 18.4956C34.6659 18.5464 34.6616 18.6005 34.6704 18.6533H34.6823Z" fill="#E63E1D"/>
<path d="M39.6994 17.2545H40.2741V18.3329H39.6994V21.7933C39.6994 21.983 39.6994 22.1015 39.855 22.137C39.9944 22.1504 40.1347 22.1504 40.2741 22.137V23.2154H39.0769C38.9187 23.2315 38.7589 23.2097 38.611 23.152C38.4631 23.0942 38.3314 23.0022 38.2268 22.8836C38.0777 22.599 38.0114 22.279 38.0353 21.9593V18.3092H37.5684V17.2308H38.0353V16.1523H39.6994V17.2545Z" fill="#E63E1D"/>
<path d="M44.7043 21.4852C44.7428 21.75 44.722 22.02 44.6434 22.276C44.5648 22.532 44.4302 22.7677 44.2493 22.9665C43.7808 23.2299 43.2408 23.3417 42.7049 23.2865C42.2191 23.3221 41.7324 23.2323 41.2922 23.0258C41.098 22.8973 40.9423 22.7195 40.8412 22.511C40.7401 22.3026 40.6974 22.0711 40.7175 21.8407V21.1415H42.3697V21.817C42.3697 22.1014 42.4894 22.2436 42.7288 22.2436C42.9563 22.2436 43.076 22.1014 43.076 21.8052C43.1011 21.5584 43.0375 21.3109 42.8965 21.106C42.6234 20.8758 42.3113 20.6952 41.9746 20.5727C41.5984 20.4316 41.2588 20.2089 40.9809 19.9209C40.7767 19.5994 40.6842 19.2207 40.7175 18.8425C40.6847 18.5923 40.717 18.338 40.8113 18.1036C40.9056 17.8693 41.0587 17.6627 41.2563 17.5033C41.7107 17.2742 42.2208 17.1757 42.7288 17.2189C43.0944 17.2102 43.4599 17.242 43.8183 17.3137C43.9938 17.3488 44.1591 17.4223 44.3021 17.529C44.445 17.6356 44.562 17.7726 44.6444 17.9299C44.7232 18.1216 44.76 18.3276 44.7521 18.5343V19.1743H43.076V18.6292C43.076 18.404 42.9204 18.2973 42.7408 18.2973C42.5612 18.2973 42.3697 18.4395 42.3697 18.7358C42.3555 18.8261 42.3555 18.9181 42.3697 19.0084C42.3697 19.1861 42.7289 19.4113 43.3155 19.6839C43.7565 19.8544 44.1623 20.1034 44.5127 20.4186C44.6704 20.7512 44.7364 21.1192 44.7043 21.4852Z" fill="#E63E1D"/>
<path d="M47.8288 22.4804C47.7498 22.7301 47.5895 22.9469 47.3729 23.097C47.1563 23.247 46.8957 23.3219 46.6316 23.31C46.2907 23.3429 45.9506 23.2406 45.6858 23.0255C45.4766 22.7552 45.3782 22.4166 45.4104 22.0775V21.319C45.3812 20.9885 45.4565 20.6572 45.6259 20.371C45.9746 20.0678 46.382 19.838 46.8232 19.6955C47.4098 19.4347 47.733 19.2096 47.7809 19.0081C47.797 18.902 47.797 18.7942 47.7809 18.6881C47.7809 18.4156 47.6612 18.2734 47.4218 18.2734C47.1823 18.2734 47.1105 18.38 47.0746 18.6052C47.0626 18.7907 47.0626 18.9767 47.0746 19.1622H45.4224V18.7711C45.3953 18.522 45.4315 18.2701 45.5277 18.0383C45.6239 17.8065 45.777 17.6022 45.9731 17.4438C46.425 17.2198 46.9298 17.1215 47.4337 17.1594C47.9507 17.1179 48.4692 17.2205 48.9303 17.4557C49.1275 17.6184 49.281 17.8269 49.3771 18.0626C49.4732 18.2984 49.5089 18.554 49.481 18.8067V23.1914H47.7929L47.8288 22.4804ZM47.8288 20.2051C47.6504 20.3179 47.4785 20.4405 47.314 20.5724C47.246 20.6454 47.1938 20.7315 47.1609 20.8252C47.1279 20.919 47.1148 21.0185 47.1225 21.1176V21.6745C47.1225 21.8997 47.2302 22.0064 47.4337 22.0064C47.6373 22.0064 47.8288 21.793 47.8288 21.3546V20.2051Z" fill="#E63E1D"/>
<path d="M50.3301 15.75H52.0062V23.2279H50.3301V15.75Z" fill="#E63E1D"/>
<path d="M56.856 17.2431V23.1685H55.1919V22.3864C55.1195 22.6427 54.962 22.8674 54.7448 23.0244C54.5276 23.1813 54.2634 23.2613 53.9947 23.2515C53.8229 23.271 53.6489 23.2464 53.4895 23.18C53.3301 23.1136 53.1907 23.0076 53.0848 22.8723C52.9157 22.5772 52.8405 22.2385 52.8693 21.9005V17.1602H54.5095V21.4739C54.5095 21.7346 54.6292 21.8649 54.8567 21.8649C55.0841 21.8649 55.2278 21.6872 55.2278 21.3198V17.1602L56.856 17.2431Z" fill="#E63E1D"/>
<path d="M59.5253 17.2428H60.1V18.3212H59.5253V21.7935C59.5253 21.9712 59.5253 22.0897 59.6809 22.1253C59.8203 22.1387 59.9606 22.1387 60.1 22.1253V23.2037H58.9028C58.7444 23.2229 58.5837 23.2026 58.4352 23.1446C58.2868 23.0867 58.1553 22.9929 58.0528 22.8719C57.9089 22.5857 57.8468 22.2661 57.8732 21.9475V18.2975H57.4062V17.2191H57.8732V16.1406H59.5373L59.5253 17.2428Z" fill="#E63E1D"/>
<path d="M60.5918 21.4609H62.232V23.2267H60.5918V21.4609Z" fill="#E63E1D"/>
<path d="M64.7208 23.2276H63.0566V17.3022H64.6968V18.1317C64.8004 17.8625 64.9689 17.6225 65.1877 17.4325C65.4185 17.2844 65.6913 17.2138 65.9659 17.2311V18.902H65.6785C65.044 18.902 64.7327 19.2339 64.7327 19.8975L64.7208 23.2276Z" fill="#E63E1D"/>
<path d="M70.5155 17.2431V23.1685H68.8513V22.3982C68.7767 22.6523 68.6183 22.8744 68.4013 23.0291C68.1843 23.1837 67.9213 23.262 67.6541 23.2515C67.4834 23.2724 67.3101 23.2496 67.1508 23.1853C66.9915 23.121 66.8515 23.0173 66.7442 22.8841C66.5769 22.5841 66.502 22.2422 66.5288 21.9005V17.1602H68.1689V21.4739C68.1689 21.7227 68.2887 21.8531 68.5161 21.8531C68.7436 21.8531 68.8873 21.6753 68.8873 21.3079V17.1602L70.5155 17.2431Z" fill="#E63E1D"/>
<path d="M180.193 26.7363L0 26.8193V32.7447L180.193 32.6617V26.7363Z" fill="white"/>
<path d="M87.947 16.5902C89.0382 16.6041 90.1252 16.7272 91.1914 16.9576C92.1226 17.1615 93.0128 17.5179 93.8253 18.0123C94.5505 18.4668 95.1575 19.0839 95.5972 19.8136C96.0502 20.629 96.2735 21.5499 96.2437 22.4801V22.6934C96.2464 23.7249 95.9958 24.7417 95.5133 25.6561C95.0418 26.4908 94.4069 27.224 93.6457 27.8129C92.8289 28.433 91.9203 28.9247 90.952 29.2706C89.9137 29.6555 88.8444 29.9529 87.7554 30.1594C86.626 30.3881 85.4819 30.5386 84.3314 30.6097C83.1342 30.6927 82.0327 30.7282 80.9672 30.7282C80.1052 30.7282 79.3031 30.7282 78.5728 30.7282C77.8425 30.7282 77.1242 30.6571 76.5256 30.6097L75.029 30.4912H74.2149H74.1191V7.46507C74.3 7.39924 74.4895 7.35932 74.6818 7.34655C75.053 7.2873 75.5558 7.21619 76.2023 7.15693C76.8488 7.09768 77.5791 7.05029 78.4291 7.00289C79.2791 6.95548 80.1531 6.91992 81.0749 6.91992C82.3828 6.92137 83.6897 6.99257 84.9899 7.13323C86.2113 7.24978 87.4159 7.50018 88.5815 7.87984C89.5696 8.19711 90.4763 8.72273 91.2393 9.42045C91.5837 9.74416 91.8546 10.1366 92.0341 10.5718C92.2137 11.0069 92.2978 11.4749 92.2809 11.9447C92.2836 12.4865 92.1736 13.023 91.9577 13.5208C91.7323 14.0145 91.4247 14.4672 91.0478 14.86C90.6452 15.27 90.1856 15.6211 89.6829 15.9028C89.1417 16.2154 88.5567 16.447 87.947 16.5902ZM86.7498 13.6749C86.7526 13.5641 86.7317 13.454 86.6884 13.3519C86.645 13.2497 86.5802 13.1578 86.4983 13.0823C86.3076 12.9156 86.0888 12.7833 85.8519 12.6913C85.5735 12.5909 85.2842 12.5233 84.9899 12.4898C84.683 12.4663 84.3748 12.4663 84.068 12.4898H83.625H83.23V15.0496H83.4694H83.7448C84.0613 15.0469 84.3773 15.0231 84.6906 14.9785C85.0252 14.9331 85.3542 14.8537 85.6723 14.7415C85.9518 14.6411 86.2111 14.4926 86.4385 14.303C86.5307 14.2254 86.605 14.1292 86.6566 14.0209C86.7083 13.9126 86.7359 13.7946 86.7378 13.6749H86.7498ZM87.2406 20.3113C87.2427 20.169 87.2162 20.0276 87.1628 19.8954C87.1094 19.7632 87.03 19.6427 86.9293 19.541C86.7215 19.3348 86.4671 19.1804 86.1871 19.0907C85.8714 18.9917 85.5466 18.9243 85.2173 18.8893C84.8985 18.8668 84.5784 18.8668 84.2595 18.8893H83.5532H83.23V21.8045H83.6849H84.1518C84.8854 21.8177 85.6142 21.6847 86.2948 21.4135C86.5458 21.3465 86.7699 21.2049 86.9369 21.0078C87.1039 20.8107 87.2057 20.5676 87.2286 20.3113H87.2406Z" fill="white"/>
<path d="M118.32 15.7726L115.866 23.2742H112.406L117.063 6.9082H124.33L129 23.2742H120.823L118.32 15.7726Z" fill="white"/>
<path d="M139.679 6.92168C140.712 6.92018 141.739 7.08427 142.72 7.40757C143.648 7.72398 144.524 8.17529 145.318 8.7467C146.088 9.30582 146.756 9.9912 147.293 10.7732C147.829 11.5453 148.214 12.4093 148.431 13.3211H135.68C135.698 13.761 135.872 14.1806 136.171 14.5062C136.506 14.8696 136.914 15.1601 137.368 15.3595C137.93 15.6015 138.522 15.7689 139.128 15.8572C139.829 15.9682 140.538 16.0237 141.247 16.0231C142.433 16.0192 143.616 15.9001 144.779 15.6676C145.931 15.4493 147.055 15.1076 148.131 14.6484V22.2092C146.893 22.5251 145.638 22.7744 144.372 22.9558C143.183 23.1313 141.983 23.2223 140.78 23.2284C139.438 23.2358 138.1 23.0847 136.794 22.7781C135.643 22.5155 134.554 22.0368 133.585 21.3678C132.679 20.7143 131.948 19.8519 131.454 18.8555C130.902 17.6806 130.635 16.394 130.676 15.0987C130.663 13.9943 130.901 12.901 131.37 11.899C131.838 10.912 132.492 10.0229 133.298 9.28C134.134 8.52543 135.104 7.93073 136.159 7.52607C137.283 7.1037 138.477 6.89854 139.679 6.92168ZM141.906 10.7258C141.54 10.2677 141.073 9.89877 140.541 9.64738C140.018 9.39921 139.445 9.26965 138.865 9.26814C138.293 9.26546 137.728 9.39106 137.213 9.63551C136.689 9.88013 136.242 10.2611 135.92 10.7376L141.906 10.7258Z" fill="white"/>
<path d="M160.187 6.92029V7.74984C161.53 7.22749 162.957 6.94658 164.401 6.92029C165.811 6.85253 167.198 7.2948 168.304 8.16463C170.092 7.40369 172.009 6.98161 173.955 6.92029C175.545 6.83942 177.108 7.36054 178.324 8.37793C179.474 9.50404 180.132 11.0316 180.156 12.6324V23.2981H172.578V11.7554C172.596 11.3813 172.513 11.0091 172.338 10.677C172.26 10.5514 172.148 10.4497 172.015 10.3828C171.882 10.3159 171.733 10.2865 171.584 10.2978C171.124 10.3244 170.679 10.4672 170.291 10.7125V23.2981H162.713L162.617 11.8147C162.598 11.6101 162.545 11.41 162.461 11.2221C162.403 11.0588 162.299 10.9151 162.162 10.8074C161.99 10.68 161.778 10.617 161.563 10.6296C161.356 10.6323 161.151 10.6643 160.953 10.7244C160.678 10.8165 160.416 10.944 160.175 11.1036V23.31H151.926V6.92029H160.187Z" fill="white"/>
<path d="M109.665 16.2833C109.322 15.4613 108.749 14.7539 108.013 14.2449C107.027 13.6067 105.895 13.2237 104.72 13.1309C106.044 13.0027 107.297 12.4777 108.312 11.6259C108.607 11.3746 108.819 11.0417 108.922 10.67C109.024 10.2984 109.012 9.9049 108.887 9.54015C108.444 8.68597 107.691 8.02955 106.779 7.70327C105.355 7.11744 103.819 6.84647 102.278 6.90927C101.081 6.90927 100.051 6.90927 99.249 7.00408C98.4469 7.09888 97.8004 7.13442 97.3215 7.19368C96.9668 7.24158 96.6151 7.30883 96.2679 7.39514C96.1123 7.44209 95.9515 7.46995 95.7891 7.4781V8.75799C96.1424 9.61012 96.3449 10.5161 96.3877 11.4363L96.8067 11.2822C97.3737 11.0911 97.9539 10.9406 98.5427 10.8319C99.1892 10.6976 99.8716 10.5909 100.59 10.5119C101.247 10.4539 101.907 10.442 102.565 10.4764C103.063 10.4775 103.558 10.5452 104.038 10.6778C104.433 10.7963 104.625 10.9978 104.625 11.2704C104.625 11.5429 104.421 11.7088 104.026 11.7918C103.554 11.8919 103.072 11.9435 102.589 11.9459C102.039 11.9754 101.487 11.9754 100.937 11.9459L99.6561 11.8392L99.7279 13.6287H100.865C101.455 13.5933 102.047 13.5933 102.637 13.6287C103.181 13.6612 103.716 13.7855 104.217 13.9961C104.418 14.0616 104.587 14.1986 104.691 14.3804C104.795 14.5622 104.826 14.7758 104.78 14.9797C104.78 15.1337 104.553 15.2522 104.17 15.3233C103.699 15.401 103.222 15.4407 102.745 15.4419C102.113 15.4487 101.481 15.4171 100.853 15.347C100.159 15.347 99.4885 15.193 98.842 15.0745C98.2373 14.9666 97.6411 14.8161 97.0581 14.6241C96.7479 14.5246 96.4474 14.3977 96.1602 14.2449C96.1602 14.316 96.1602 14.3871 96.1003 14.4582C97.3377 15.2788 98.3729 16.3643 99.1293 17.6342C100.002 19.1441 100.445 20.8603 100.41 22.5997V22.8842C100.41 23.1567 100.41 23.4056 100.41 23.6663C100.997 23.6663 101.608 23.6663 102.374 23.6663C103.639 23.6924 104.895 23.4541 106.061 22.9671C107.008 22.5336 107.856 21.9125 108.551 21.1421C109.168 20.4696 109.604 19.6546 109.82 18.7719C110.027 17.9461 109.973 17.0775 109.665 16.2833Z" fill="white"/>
<path d="M135.394 5.7595C137 5.7595 138.303 4.47019 138.303 2.87975C138.303 1.28931 137 0 135.394 0C133.787 0 132.484 1.28931 132.484 2.87975C132.484 4.47019 133.787 5.7595 135.394 5.7595Z" fill="white"/>
<path d="M143.726 5.7595C145.332 5.7595 146.635 4.47019 146.635 2.87975C146.635 1.28931 145.332 0 143.726 0C142.119 0 140.816 1.28931 140.816 2.87975C140.816 4.47019 142.119 5.7595 143.726 5.7595Z" fill="white"/>
</g>
<defs>
<clipPath id="clip0_9_6110">
<rect width="220" height="34" fill="white"/>
</clipPath>
</defs>
</svg>
