<svg width="414" height="64" viewBox="0 0 414 64" fill="none" xmlns="http://www.w3.org/2000/svg">
<g clip-path="url(#clip0_1174_5535)">
<path d="M346.592 8.63281L346.615 63.9998L414 36.294L346.592 8.63281Z" fill="#E63E1D"/>
<path d="M49.6321 32.502L47.6271 43.6557H43.8196L41.5667 32.502H44.7208L45.8022 41.4249L46.8836 32.502H49.6321Z" fill="#E63E1D"/>
<path d="M49.9478 32.502H56.3461V34.2196L53.3272 41.7372H56.4588V43.7672H49.9478V41.7372L52.8541 34.5319H49.9478V32.502Z" fill="#E63E1D"/>
<path d="M57.54 29.6689H60.6941V43.7449H57.54V29.6689Z" fill="#E63E1D"/>
<path d="M69.7735 38.4803H65.2676V41.0903C65.2532 41.1883 65.2617 41.2883 65.2924 41.3826C65.3232 41.4769 65.3754 41.5629 65.4451 41.6341C65.5147 41.7052 65.6 41.7595 65.6942 41.7929C65.7885 41.8262 65.8892 41.8377 65.9886 41.8264C66.4617 41.8264 66.687 41.581 66.687 41.0903V39.5287H69.796V40.7556C69.8509 41.2282 69.7847 41.7068 69.6036 42.1473C69.4225 42.5878 69.1323 42.9761 68.7597 43.2764C67.9244 43.7434 66.9674 43.9531 66.0111 43.8787C65.0505 43.95 64.0893 43.7488 63.24 43.2987C62.8647 42.9947 62.5715 42.6032 62.3867 42.1594C62.2019 41.7155 62.1312 41.2332 62.1811 40.7556V35.5134C62.1241 35.0362 62.1867 34.5525 62.3636 34.105C62.5404 33.6576 62.826 33.2601 63.195 32.948C64.056 32.5095 65.0232 32.3164 65.9886 32.3903C66.9618 32.3061 67.9391 32.4996 68.8048 32.948C69.1666 33.2649 69.4457 33.6636 69.6183 34.1103C69.7909 34.557 69.8519 35.0384 69.796 35.5134L69.7735 38.4803ZM65.2676 35.1119V36.6957H66.687V35.1119C66.7015 35.0167 66.6938 34.9196 66.6642 34.828C66.6346 34.7363 66.584 34.6527 66.5164 34.5836C66.4488 34.5146 66.366 34.4618 66.2745 34.4297C66.1829 34.3975 66.085 34.3866 65.9886 34.398C65.8887 34.3787 65.7856 34.3836 65.6881 34.4123C65.5906 34.4409 65.5015 34.4925 65.4285 34.5626C65.3555 34.6328 65.3007 34.7193 65.2687 34.815C65.2368 34.9106 65.2287 35.0124 65.2451 35.1119H65.2676Z" fill="#E63E1D"/>
<path d="M74.7075 32.4799H75.7889V34.5099H74.7075V41.0236C74.7075 41.3805 74.7075 41.6036 75.0004 41.6705C75.2626 41.6958 75.5267 41.6958 75.7889 41.6705V43.7005H73.536C73.2383 43.7307 72.9377 43.6897 72.6594 43.581C72.381 43.4724 72.1331 43.2991 71.9364 43.0759C71.6558 42.5402 71.531 41.9378 71.5759 41.3359V34.4652H70.6973V32.4353H71.5759V30.4053H74.7075V32.4799Z" fill="#E63E1D"/>
<path d="M84.1246 40.4429C84.1971 40.9414 84.158 41.4496 84.01 41.9314C83.8621 42.4133 83.6089 42.8571 83.2685 43.2313C82.3868 43.727 81.3707 43.9375 80.3622 43.8336C79.4481 43.9007 78.5321 43.7315 77.7038 43.3429C77.3384 43.1009 77.0453 42.7663 76.855 42.3739C76.6648 41.9815 76.5844 41.5457 76.6223 41.1121V39.796H79.7314V41.0675C79.7314 41.6029 79.9566 41.8706 80.4072 41.8706C80.8353 41.8706 81.0606 41.6029 81.0606 41.0452C81.1077 40.5808 80.9881 40.1148 80.7227 39.7291C80.2087 39.2958 79.6215 38.9559 78.9879 38.7252C78.2799 38.4597 77.6409 38.0404 77.118 37.4983C76.7337 36.8932 76.5597 36.1804 76.6223 35.4683C76.5606 34.9975 76.6213 34.5188 76.7987 34.0776C76.9762 33.6365 77.2644 33.2475 77.6362 32.9476C78.4912 32.5163 79.4512 32.3309 80.4072 32.4122C81.0952 32.3959 81.7829 32.4558 82.4574 32.5907C82.7876 32.6567 83.0987 32.7951 83.3677 32.9958C83.6368 33.1966 83.8569 33.4545 84.012 33.7507C84.1603 34.1113 84.2294 34.4992 84.2147 34.8884V36.0929H81.0606V35.0668C81.0606 34.643 80.7677 34.4422 80.4298 34.4422C80.0918 34.4422 79.7314 34.7099 79.7314 35.2676C79.7047 35.4376 79.7047 35.6106 79.7314 35.7806C79.7314 36.1152 80.4073 36.5391 81.5112 37.0522C82.3412 37.3732 83.1047 37.8419 83.7642 38.4352C84.0608 39.0613 84.1852 39.7539 84.1246 40.4429Z" fill="#E63E1D"/>
<path d="M90.0049 42.3172C89.8561 42.7872 89.5545 43.1953 89.147 43.4778C88.7394 43.7602 88.2489 43.9012 87.7519 43.8787C87.1105 43.9407 86.4703 43.7481 85.9721 43.3433C85.5784 42.8344 85.3933 42.197 85.454 41.5587V40.131C85.399 39.5089 85.5407 38.8853 85.8595 38.3464C86.5157 37.7758 87.2822 37.3432 88.1124 37.0749C89.2164 36.5841 89.8246 36.1603 89.9147 35.7811C89.945 35.5814 89.945 35.3784 89.9147 35.1788C89.9147 34.6657 89.6895 34.398 89.2389 34.398C88.7883 34.398 88.6531 34.5988 88.5855 35.0226C88.5631 35.3718 88.5631 35.7219 88.5855 36.0711H85.4764V35.3349C85.4255 34.866 85.4936 34.3918 85.6746 33.9556C85.8556 33.5193 86.1437 33.1346 86.5128 32.8365C87.3631 32.4148 88.3132 32.2298 89.2614 32.3011C90.2343 32.223 91.2099 32.4162 92.0776 32.8588C92.4488 33.1651 92.7377 33.5577 92.9185 34.0014C93.0994 34.4451 93.1665 34.9262 93.1139 35.4018V43.6556H89.9373L90.0049 42.3172ZM90.0049 38.0341C89.6691 38.2465 89.3457 38.4773 89.0361 38.7257C88.9081 38.863 88.81 39.025 88.748 39.2016C88.686 39.3781 88.6613 39.5654 88.6756 39.7518V40.8002C88.6756 41.2241 88.8784 41.4248 89.2614 41.4248C89.6444 41.4248 90.0049 41.0233 90.0049 40.1979V38.0341Z" fill="#E63E1D"/>
<path d="M94.7136 29.6465H97.8677V43.7225H94.7136V29.6465Z" fill="#E63E1D"/>
<path d="M106.992 32.4569V43.6107H103.861V42.1384C103.724 42.6209 103.428 43.0439 103.019 43.3393C102.61 43.6347 102.113 43.7853 101.608 43.7668C101.284 43.8036 100.957 43.7573 100.657 43.6322C100.357 43.5072 100.095 43.3077 99.8954 43.053C99.5771 42.4976 99.4357 41.86 99.4898 41.2238V32.3008H102.576V40.4207C102.576 40.9114 102.802 41.1568 103.23 41.1568C103.658 41.1568 103.928 40.8222 103.928 40.1307V32.3008L106.992 32.4569Z" fill="#E63E1D"/>
<path d="M112.016 32.4574H113.097V34.4874H112.016V41.0235C112.016 41.3581 112.016 41.5811 112.309 41.6481C112.571 41.6733 112.835 41.6733 113.097 41.6481V43.6781H110.844C110.546 43.7141 110.244 43.6759 109.965 43.5668C109.685 43.4577 109.438 43.2813 109.245 43.0534C108.974 42.5148 108.857 41.9131 108.907 41.3134V34.4428H108.028V32.4128H108.907V30.3828H112.039L112.016 32.4574Z" fill="#E63E1D"/>
<path d="M114.021 40.3984H117.108V43.7222H114.021V40.3984Z" fill="#E63E1D"/>
<path d="M121.794 43.7221H118.662V32.5683H121.749V34.1299C121.944 33.6231 122.261 33.1713 122.673 32.8137C123.107 32.5349 123.62 32.402 124.137 32.4345V35.5799H123.596C122.402 35.5799 121.816 36.2045 121.816 37.4537L121.794 43.7221Z" fill="#E63E1D"/>
<path d="M132.698 32.4569V43.6107H129.566V42.1607C129.426 42.639 129.128 43.0571 128.72 43.3482C128.311 43.6392 127.816 43.7866 127.314 43.7668C126.992 43.8062 126.666 43.7633 126.366 43.6422C126.067 43.5211 125.803 43.3259 125.601 43.0753C125.286 42.5106 125.145 41.8669 125.196 41.2238V32.3008H128.282V40.4207C128.282 40.8891 128.508 41.1345 128.936 41.1345C129.364 41.1345 129.634 40.7999 129.634 40.1084V32.3008L132.698 32.4569Z" fill="#E63E1D"/>
<path d="M339.09 50.3252L0 50.4813V61.635L339.09 61.4789V50.3252Z" fill="#413339"/>
<path d="M165.501 31.2302C167.554 31.2563 169.6 31.488 171.606 31.9217C173.359 32.3055 175.034 32.9765 176.563 33.9071C177.928 34.7627 179.07 35.9243 179.897 37.2978C180.75 38.8327 181.17 40.5662 181.114 42.317V42.7185C181.119 44.6603 180.647 46.5742 179.739 48.2954C178.852 49.8666 177.657 51.2468 176.225 52.3553C174.688 53.5226 172.978 54.4481 171.156 55.0991C169.202 55.8238 167.19 56.3835 165.14 56.7722C163.015 57.2027 160.862 57.486 158.697 57.6199C156.444 57.776 154.371 57.8429 152.366 57.8429C150.744 57.8429 149.235 57.8429 147.86 57.8429C146.486 57.8429 145.134 57.7091 144.008 57.6199L141.192 57.3968H139.66H139.479V14.0535C139.82 13.9296 140.176 13.8545 140.538 13.8304C141.237 13.7189 142.183 13.585 143.4 13.4735C144.616 13.3619 145.99 13.2727 147.59 13.1835C149.19 13.0943 150.834 13.0273 152.569 13.0273C155.03 13.0301 157.49 13.1641 159.936 13.4289C162.235 13.6482 164.502 14.1196 166.695 14.8342C168.554 15.4315 170.261 16.4209 171.697 17.7342C172.345 18.3436 172.854 19.0823 173.192 19.9014C173.53 20.7205 173.688 21.6014 173.657 22.4857C173.662 23.5055 173.455 24.5155 173.048 25.4526C172.624 26.3819 172.045 27.234 171.336 27.9733C170.578 28.7451 169.714 29.4061 168.768 29.9364C167.749 30.5247 166.648 30.9607 165.501 31.2302ZM163.248 25.7426C163.253 25.5341 163.214 25.3268 163.133 25.1345C163.051 24.9423 162.929 24.7693 162.775 24.6272C162.416 24.3134 162.004 24.0642 161.558 23.891C161.034 23.7022 160.49 23.5749 159.936 23.5118C159.359 23.4677 158.779 23.4677 158.201 23.5118H157.368H156.624V28.3302H157.075H157.593C158.189 28.3251 158.783 28.2804 159.373 28.1964C160.003 28.111 160.622 27.9615 161.22 27.7503C161.746 27.5613 162.234 27.2819 162.662 26.9249C162.836 26.7788 162.976 26.5978 163.073 26.3939C163.17 26.19 163.222 25.968 163.225 25.7426H163.248ZM164.172 38.2347C164.176 37.9667 164.126 37.7006 164.025 37.4517C163.925 37.2029 163.775 36.9762 163.586 36.7847C163.195 36.3965 162.716 36.106 162.189 35.9371C161.595 35.7508 160.984 35.6237 160.364 35.5579C159.764 35.5155 159.162 35.5155 158.562 35.5579H157.233H156.624V41.0455H157.481H158.359C159.74 41.0703 161.111 40.82 162.392 40.3093C162.864 40.1833 163.286 39.9168 163.6 39.5457C163.914 39.1747 164.106 38.7171 164.149 38.2347H164.172Z" fill="#413339"/>
<path d="M222.658 29.6908L218.039 43.8114H211.528L220.292 13.0049H233.968L242.754 43.8114H227.366L222.658 29.6908Z" fill="#413339"/>
<path d="M262.85 13.0277C264.795 13.0249 266.728 13.3338 268.573 13.9423C270.32 14.5379 271.967 15.3875 273.462 16.4631C274.911 17.5155 276.169 18.8056 277.179 20.2776C278.187 21.731 278.913 23.3574 279.319 25.0737H255.326C255.359 25.9017 255.686 26.6915 256.249 27.3045C256.88 27.9884 257.647 28.5353 258.502 28.9106C259.56 29.3662 260.673 29.6813 261.814 29.8475C263.133 30.0565 264.466 30.1609 265.802 30.1598C268.034 30.1525 270.26 29.9283 272.448 29.4906C274.615 29.0797 276.73 28.4365 278.756 27.5722V41.8043C276.425 42.3989 274.064 42.8681 271.682 43.2097C269.444 43.5399 267.185 43.7113 264.923 43.7227C262.397 43.7367 259.879 43.4522 257.421 42.8751C255.255 42.3808 253.205 41.4796 251.383 40.2205C249.678 38.9903 248.301 37.3671 247.373 35.4913C246.333 33.2798 245.832 30.8579 245.908 28.4198C245.885 26.3408 246.331 24.2829 247.215 22.3968C248.094 20.5389 249.326 18.8654 250.842 17.4669C252.416 16.0465 254.241 14.9271 256.227 14.1654C258.341 13.3703 260.589 12.9842 262.85 13.0277ZM267.041 20.1884C266.353 19.3261 265.474 18.6317 264.472 18.1584C263.488 17.6913 262.41 17.4474 261.318 17.4446C260.243 17.4395 259.18 17.676 258.209 18.1361C257.223 18.5966 256.382 19.3137 255.776 20.2107L267.041 20.1884Z" fill="#413339"/>
<path d="M301.443 13.0271V14.5886C303.972 13.6054 306.657 13.0766 309.374 13.0271C312.028 12.8996 314.638 13.7321 316.718 15.3694C320.084 13.937 323.691 13.1425 327.352 13.0271C330.346 12.8749 333.285 13.8558 335.575 15.7709C337.739 17.8907 338.976 20.766 339.022 23.7793V43.856H324.761V22.1285C324.796 21.4243 324.64 20.7236 324.311 20.0986C324.163 19.8622 323.952 19.6706 323.702 19.5448C323.452 19.4189 323.171 19.3635 322.891 19.3847C322.026 19.4348 321.188 19.7036 320.458 20.1655V43.856H306.197L306.017 22.2401C305.981 21.855 305.882 21.4783 305.724 21.1247C305.614 20.8173 305.419 20.5468 305.161 20.3439C304.837 20.1042 304.438 19.9857 304.034 20.0094C303.644 20.0145 303.258 20.0746 302.885 20.1878C302.368 20.3613 301.875 20.6012 301.421 20.9016V43.8783H285.898V13.0271H301.443Z" fill="#413339"/>
<path d="M206.369 30.6501C205.725 29.103 204.646 27.7713 203.26 26.8133C201.405 25.612 199.274 24.891 197.064 24.7164C199.556 24.475 201.914 23.4867 203.823 21.8833C204.378 21.4103 204.778 20.7837 204.971 20.0841C205.163 19.3845 205.14 18.6438 204.905 17.9572C204.073 16.3494 202.656 15.1138 200.94 14.4996C198.259 13.3969 195.368 12.8868 192.469 13.005C190.216 13.005 188.278 13.005 186.769 13.1835C185.259 13.3619 184.043 13.4288 183.141 13.5403C182.474 13.6305 181.812 13.7571 181.159 13.9196C180.866 14.0079 180.563 14.0604 180.258 14.0757V16.4849C180.923 18.0889 181.304 19.7943 181.384 21.5264L182.173 21.2364C183.24 20.8766 184.331 20.5934 185.439 20.3887C186.656 20.1359 187.94 19.9351 189.292 19.7864C190.528 19.6772 191.77 19.6549 193.009 19.7195C193.946 19.7216 194.878 19.8492 195.78 20.0987C196.524 20.3218 196.884 20.701 196.884 21.2141C196.884 21.7272 196.501 22.0395 195.758 22.1956C194.869 22.384 193.963 22.4812 193.054 22.4856C192.019 22.5413 190.981 22.5413 189.945 22.4856L187.535 22.2849L187.67 25.6533H189.81C190.92 25.5866 192.034 25.5866 193.144 25.6533C194.168 25.7146 195.174 25.9484 196.118 26.3448C196.495 26.4682 196.813 26.7261 197.009 27.0683C197.204 27.4105 197.264 27.8126 197.177 28.1963C197.177 28.4863 196.749 28.7094 196.028 28.8432C195.142 28.9895 194.245 29.0641 193.347 29.0663C192.158 29.0793 190.969 29.0197 189.788 28.8879C188.481 28.8879 187.219 28.5979 186.003 28.3748C184.865 28.1718 183.743 27.8885 182.646 27.5271C182.062 27.3397 181.496 27.1008 180.956 26.8133C180.956 26.9471 180.956 27.081 180.843 27.2148C183.172 28.7595 185.12 30.8026 186.543 33.1932C188.186 36.0353 189.02 39.2658 188.954 42.54V43.0754C188.954 43.5885 188.954 44.0569 188.954 44.5477C190.058 44.5477 191.207 44.5477 192.649 44.5477C195.029 44.5967 197.394 44.1482 199.588 43.2315C201.37 42.4154 202.965 41.2463 204.274 39.7962C205.434 38.5303 206.256 36.9963 206.662 35.3347C207.05 33.7803 206.948 32.1453 206.369 30.6501Z" fill="#413339"/>
<path d="M254.785 10.8414C257.808 10.8414 260.26 8.41448 260.26 5.4207C260.26 2.42693 257.808 0 254.785 0C251.761 0 249.31 2.42693 249.31 5.4207C249.31 8.41448 251.761 10.8414 254.785 10.8414Z" fill="#413339"/>
<path d="M270.465 10.8414C273.489 10.8414 275.94 8.41448 275.94 5.4207C275.94 2.42693 273.489 0 270.465 0C267.442 0 264.991 2.42693 264.991 5.4207C264.991 8.41448 267.442 10.8414 270.465 10.8414Z" fill="#413339"/>
</g>
<defs>
<clipPath id="clip0_1174_5535">
<rect width="414" height="64" fill="white"/>
</clipPath>
</defs>
</svg>
