<?xml version="1.0" standalone="no"?>
<!DOCTYPE svg PUBLIC "-//W3C//DTD SVG 20010904//EN"
 "http://www.w3.org/TR/2001/REC-SVG-20010904/DTD/svg10.dtd">
<svg version="1.0" xmlns="http://www.w3.org/2000/svg"
 width="700.000000pt" height="700.000000pt" viewBox="0 0 700.000000 700.000000"
 preserveAspectRatio="xMidYMid meet">
<metadata>
Created by potrace 1.14, written by Peter Selinger 2001-2017
</metadata>
<g transform="translate(0.000000,700.000000) scale(0.100000,-0.100000)"
fill="#000000" stroke="none">
<path d="M6900 6959 c-52 -21 -104 -43 -115 -49 -11 -5 -60 -25 -110 -46 -49
-20 -103 -42 -120 -49 -102 -43 -690 -287 -735 -305 -30 -12 -71 -28 -90 -37
-69 -30 -96 -42 -185 -78 -49 -20 -103 -42 -120 -50 -16 -7 -109 -45 -205 -85
-96 -39 -188 -78 -205 -85 -16 -7 -124 -52 -240 -99 -115 -48 -219 -91 -230
-96 -32 -15 -429 -181 -440 -184 -5 -2 -21 -8 -35 -13 -14 -6 -151 -63 -305
-127 -154 -65 -291 -122 -305 -128 -14 -5 -146 -60 -294 -122 -147 -61 -268
-115 -268 -119 0 -7 2270 -2297 2376 -2399 11 -10 23 -15 27 -11 3 5 21 44 39
88 18 44 41 99 51 122 11 23 19 46 19 51 0 5 6 22 14 38 8 16 35 81 61 144 26
63 53 129 60 145 7 17 65 156 128 310 63 154 178 433 255 620 77 187 145 354
152 370 7 17 16 39 21 50 4 11 36 88 70 170 33 83 67 164 74 180 7 17 50 120
95 230 73 181 92 225 120 290 43 99 540 1315 537 1315 -1 -1 -45 -19 -97 -41z"/>
<path d="M1845 3955 c-484 -487 -1097 -1104 -1362 -1370 l-483 -485 0 -1050 0
-1050 343 0 343 0 537 537 c295 296 777 781 1072 1078 295 297 824 828 1175
1181 351 352 640 645 642 651 3 11 -1365 1393 -1379 1393 -4 0 -404 -399 -888
-885z"/>
<path d="M4140 2880 c-146 -148 -848 -854 -1560 -1570 -712 -716 -1297 -1303
-1299 -1306 -2 -2 194 -4 436 -4 l440 0 127 128 c668 668 2562 2575 2564 2583
4 11 -419 439 -433 438 -5 0 -129 -121 -275 -269z"/>
</g>
</svg>
