<svg width="320" height="192" viewBox="0 0 320 192" fill="none" xmlns="http://www.w3.org/2000/svg">
<g clip-path="url(#clip0_9_463)" filter="url(#filter0_d_9_463)">
<path fill-rule="evenodd" clip-rule="evenodd" d="M122.671 121.275L142.651 114.941C143.749 114.592 144.94 114.693 145.964 115.222C146.987 115.751 147.759 116.665 148.111 117.763L163.771 167.207L135.511 176.213L119.851 126.739C119.674 126.195 119.607 125.621 119.653 125.051C119.699 124.481 119.858 123.926 120.12 123.418C120.383 122.909 120.743 122.458 121.181 122.091C121.619 121.723 122.125 121.446 122.671 121.275Z" fill="url(#paint0_linear_9_463)"/>
<path fill-rule="evenodd" clip-rule="evenodd" d="M121.891 121.725C116.166 112.66 111.686 102.865 108.571 92.6048C111.781 93.284 114.698 94.9535 116.911 97.3782C112.735 90.2968 109.746 82.5795 108.061 74.5322C110.996 75.9286 113.659 77.8401 115.921 80.1761C111.945 68.8401 109.798 56.9431 109.561 44.9316C116.256 54.8917 121.319 65.8571 124.561 77.4142C125.065 74.1921 126.153 71.0892 127.771 68.2578C131.053 75.8029 133.08 83.8344 133.771 92.0343C134.203 88.7813 135.628 85.7409 137.851 83.3283C141.17 93.4987 143.097 104.072 143.581 114.76L142.741 114.94L122.761 121.275C122.455 121.392 122.163 121.543 121.891 121.725Z" fill="url(#paint1_linear_9_463)"/>
<path fill-rule="evenodd" clip-rule="evenodd" d="M124.38 120.735C123.78 119.654 118.14 109.387 117.33 102.422C119.126 102.354 120.908 102.768 122.49 103.623C120.493 98.6829 120.135 93.2313 121.47 88.0723C122.162 88.6094 122.708 89.3112 123.06 90.1137C123.08 89.2571 123.283 88.4146 123.656 87.6431C124.029 86.8715 124.562 86.1888 125.22 85.6406C125.212 86.5358 125.386 87.4231 125.732 88.2489C126.077 89.0746 126.587 89.8214 127.23 90.4439C129.86 92.7672 131.783 95.7843 132.78 99.15C134.145 98.2741 135.319 97.1302 136.23 95.7876C138.451 102.17 140.088 108.742 141.12 115.421L124.38 120.735Z" fill="url(#paint2_linear_9_463)"/>
<path fill-rule="evenodd" clip-rule="evenodd" d="M128.16 119.534C125.229 112.17 124.408 104.134 125.79 96.3281C125.79 96.3281 132.15 101.552 137.49 116.562L128.16 119.534Z" fill="#ED6F20"/>
<path d="M162.256 162.307L134 171.266L135.54 176.131L163.796 167.172L162.256 162.307Z" fill="url(#paint3_linear_9_463)"/>
<path fill-rule="evenodd" clip-rule="evenodd" d="M149.069 149.945C148.584 150.09 148.132 150.33 147.741 150.651C147.349 150.972 147.025 151.368 146.788 151.816C146.551 152.264 146.406 152.755 146.361 153.259C146.316 153.764 146.372 154.273 146.525 154.756C146.679 155.238 146.927 155.686 147.255 156.072C147.583 156.457 147.985 156.774 148.437 157.002C148.889 157.231 149.382 157.367 149.887 157.403C150.392 157.438 150.9 157.373 151.379 157.21C151.857 157.064 152.301 156.823 152.685 156.502C153.069 156.181 153.385 155.787 153.614 155.342C153.843 154.897 153.981 154.411 154.02 153.912C154.059 153.413 153.997 152.912 153.839 152.437C153.536 151.474 152.863 150.671 151.969 150.204C151.075 149.737 150.032 149.644 149.069 149.945Z" fill="url(#paint4_linear_9_463)"/>
<path fill-rule="evenodd" clip-rule="evenodd" d="M131.25 157.901C130.781 158.044 130.336 158.256 129.93 158.531L133.17 168.739C133.659 168.732 134.145 168.651 134.61 168.498C136.014 168.052 137.184 167.067 137.862 165.758C138.54 164.449 138.67 162.924 138.225 161.518C137.779 160.113 136.794 158.943 135.486 158.264C134.178 157.586 132.654 157.455 131.25 157.901Z" fill="url(#paint5_linear_9_463)"/>
<path fill-rule="evenodd" clip-rule="evenodd" d="M136.889 143.46C136.234 143.669 135.656 144.067 135.227 144.605C134.799 145.142 134.538 145.795 134.48 146.48C134.421 147.165 134.566 147.852 134.897 148.455C135.228 149.058 135.73 149.549 136.34 149.866C136.95 150.184 137.64 150.314 138.323 150.24C139.006 150.165 139.652 149.89 140.179 149.449C140.706 149.008 141.091 148.42 141.285 147.76C141.479 147.1 141.474 146.398 141.269 145.741C141.136 145.301 140.916 144.891 140.623 144.536C140.329 144.182 139.968 143.89 139.56 143.677C139.151 143.465 138.705 143.336 138.246 143.298C137.788 143.261 137.326 143.316 136.889 143.46Z" fill="url(#paint6_linear_9_463)"/>
<path fill-rule="evenodd" clip-rule="evenodd" d="M143.85 128.149C143.022 128.407 142.288 128.904 141.74 129.577C141.192 130.251 140.855 131.071 140.771 131.935C140.687 132.8 140.859 133.67 141.267 134.436C141.675 135.203 142.3 135.832 143.063 136.245C143.826 136.658 144.695 136.836 145.559 136.758C146.423 136.679 147.245 136.347 147.922 135.803C148.598 135.26 149.1 134.528 149.363 133.701C149.626 132.873 149.639 131.986 149.4 131.151C149.06 130.018 148.285 129.066 147.245 128.503C146.205 127.94 144.984 127.813 143.85 128.149Z" fill="url(#paint7_linear_9_463)"/>
<path fill-rule="evenodd" clip-rule="evenodd" d="M123.36 128.779C122.43 129.063 121.612 129.63 121.02 130.4L123.39 137.936C124.318 138.221 125.311 138.221 126.24 137.936C127.312 137.447 128.165 136.579 128.636 135.498C129.106 134.417 129.16 133.201 128.788 132.082C128.415 130.964 127.642 130.023 126.618 129.441C125.594 128.859 124.39 128.677 123.24 128.929L123.36 128.779Z" fill="url(#paint8_linear_9_463)"/>
<path fill-rule="evenodd" clip-rule="evenodd" d="M130.14 118.903C130.102 119.543 130.183 120.184 130.38 120.794C130.798 122.116 131.723 123.218 132.953 123.857C134.182 124.496 135.614 124.62 136.935 124.202C138.256 123.784 139.357 122.858 139.995 121.628C140.634 120.397 140.758 118.964 140.34 117.642C140.144 117.032 139.839 116.462 139.44 115.961L130.14 118.903Z" fill="url(#paint9_linear_9_463)"/>
<path fill-rule="evenodd" clip-rule="evenodd" d="M146.73 152.046C146.475 152.498 146.314 152.997 146.258 153.513C146.201 154.029 146.249 154.551 146.4 155.048C146.636 155.754 147.072 156.375 147.654 156.838C148.236 157.3 148.94 157.584 149.68 157.654C150.42 157.724 151.165 157.577 151.823 157.232C152.482 156.886 153.026 156.357 153.39 155.709L153 156.129C152.56 156.607 152.001 156.959 151.38 157.149C150.681 157.373 149.933 157.39 149.225 157.199C148.517 157.008 147.879 156.616 147.388 156.071C146.897 155.525 146.574 154.85 146.457 154.125C146.34 153.401 146.435 152.658 146.73 151.986V152.046ZM133.26 169.098V168.738C133.749 168.731 134.235 168.65 134.7 168.497C135.588 168.204 136.391 167.699 137.04 167.026C137.255 166.821 137.456 166.6 137.64 166.366C136.96 167.52 135.899 168.401 134.64 168.858C134.256 168.966 133.865 169.047 133.47 169.098H133.26ZM123.57 138.356L123.42 137.936C124.349 138.221 125.341 138.221 126.27 137.936C127.049 137.703 127.753 137.268 128.31 136.675C128.486 136.499 128.646 136.308 128.79 136.105C128.202 137.153 127.236 137.937 126.09 138.296C125.267 138.535 124.393 138.535 123.57 138.296V138.356ZM134.76 145.411C134.517 145.83 134.365 146.294 134.313 146.775C134.262 147.256 134.312 147.743 134.46 148.203C134.665 148.858 135.058 149.438 135.591 149.869C136.124 150.301 136.773 150.565 137.455 150.629C138.138 150.694 138.824 150.555 139.428 150.23C140.032 149.905 140.527 149.409 140.85 148.804L140.52 149.164C140.112 149.602 139.594 149.924 139.02 150.095C138.585 150.235 138.126 150.288 137.67 150.25C137.214 150.213 136.77 150.086 136.364 149.877C135.957 149.668 135.595 149.381 135.299 149.032C135.004 148.683 134.78 148.279 134.64 147.843C134.34 147.06 134.34 146.194 134.64 145.411H134.76ZM141.18 130.581C140.746 131.354 140.555 132.24 140.631 133.123C140.707 134.006 141.048 134.846 141.608 135.533C142.168 136.22 142.922 136.722 143.771 136.974C144.621 137.226 145.526 137.216 146.37 136.945C147.435 136.617 148.329 135.884 148.86 134.904C148.735 135.095 148.583 135.267 148.41 135.414C147.902 135.96 147.261 136.363 146.55 136.585C145.989 136.764 145.397 136.828 144.811 136.773C144.224 136.718 143.655 136.545 143.137 136.265C142.619 135.985 142.163 135.603 141.795 135.142C141.428 134.681 141.158 134.151 141 133.583C140.712 132.592 140.775 131.531 141.18 130.581ZM129.99 119.263C129.951 119.903 130.033 120.545 130.23 121.154C130.435 121.808 130.766 122.415 131.207 122.94C131.647 123.465 132.186 123.898 132.794 124.213C133.402 124.528 134.066 124.72 134.749 124.778C135.431 124.835 136.118 124.756 136.77 124.547C138.033 124.18 139.107 123.342 139.77 122.205C139.607 122.43 139.427 122.641 139.23 122.836C138.611 123.46 137.849 123.924 137.01 124.187C136.358 124.396 135.671 124.475 134.989 124.417C134.306 124.36 133.642 124.168 133.034 123.853C132.426 123.537 131.887 123.105 131.447 122.58C131.007 122.055 130.675 121.448 130.47 120.794C130.303 120.281 130.222 119.743 130.23 119.203L129.99 119.263Z" fill="#230D26"/>
<path fill-rule="evenodd" clip-rule="evenodd" d="M170.67 112.06L194.67 119.955C195.323 120.169 195.927 120.51 196.448 120.958C196.968 121.406 197.396 121.952 197.705 122.566C198.014 123.179 198.2 123.848 198.25 124.533C198.301 125.219 198.216 125.907 198 126.56L178.5 186.031L144.57 174.863L164.07 115.392C164.516 114.082 165.456 113 166.69 112.377C167.924 111.754 169.353 111.64 170.67 112.06Z" fill="url(#paint10_linear_9_463)"/>
<path fill-rule="evenodd" clip-rule="evenodd" d="M169.68 111.818C170.38 98.9366 172.832 86.2105 176.97 73.992C179.633 76.9147 181.312 80.6005 181.77 84.5293C182.682 74.6649 185.184 65.0134 189.18 55.9494C191.104 59.3782 192.375 63.1343 192.93 67.0272C192.93 67.0272 199.35 44.1212 211.53 28C211.8 48.2041 203.43 70.4496 203.43 70.4496C206.188 67.6565 209.431 65.3881 213 63.7549C210.85 73.4315 207.152 82.6971 202.05 91.194C204.747 88.3007 208.283 86.3268 212.16 85.5501C208.212 97.8394 202.632 109.542 195.57 120.344C195.273 120.184 194.962 120.053 194.64 119.954L170.64 112.059C170.327 111.952 170.006 111.872 169.68 111.818Z" fill="url(#paint11_linear_9_463)"/>
<path fill-rule="evenodd" clip-rule="evenodd" d="M172.711 112.719C172.891 111.248 174.571 97.2279 178.711 89.8128C180.526 91.0185 181.986 92.6871 182.941 94.6462C184.458 88.3974 187.951 82.8061 192.901 78.7051C193.155 79.6896 193.155 80.7226 192.901 81.7072C193.513 80.8747 194.3 80.1874 195.208 79.6944C196.115 79.2015 197.12 78.9149 198.151 78.8551C197.509 79.7304 197.052 80.7279 196.81 81.7863C196.567 82.8447 196.544 83.9416 196.741 85.0094C197.491 88.3417 197.701 90.3231 196.051 97.4381C198.01 97.5419 199.97 97.2457 201.811 96.5675C199.497 104.378 196.485 111.964 192.811 119.233L172.711 112.719Z" fill="url(#paint12_linear_9_463)"/>
<path fill-rule="evenodd" clip-rule="evenodd" d="M177.27 114.22C177.63 112.748 181.29 98.3985 191.28 89.8125C191.28 89.8125 193.8 99.4492 188.46 117.882L177.27 114.22Z" fill="#ED6F20"/>
<path d="M146.488 168.991L144.57 174.838L178.547 185.997L180.465 180.15L146.488 168.991Z" fill="url(#paint13_linear_9_463)"/>
<path fill-rule="evenodd" clip-rule="evenodd" d="M176.31 158.74C175.445 158.47 174.52 158.462 173.65 158.717C172.781 158.972 172.006 159.479 171.424 160.173C170.842 160.868 170.479 161.72 170.379 162.621C170.28 163.522 170.449 164.433 170.866 165.238C171.283 166.043 171.929 166.706 172.722 167.145C173.514 167.583 174.419 167.777 175.322 167.702C176.225 167.627 177.086 167.286 177.795 166.722C178.505 166.158 179.032 165.397 179.31 164.534C179.496 163.957 179.566 163.348 179.516 162.743C179.465 162.139 179.296 161.55 179.017 161.011C178.738 160.473 178.355 159.995 177.891 159.605C177.426 159.215 176.889 158.921 176.31 158.74Z" fill="url(#paint14_linear_9_463)"/>
<path fill-rule="evenodd" clip-rule="evenodd" d="M153.24 153.967C152.677 153.782 152.092 153.671 151.5 153.637L147.57 165.915C148.059 166.253 148.595 166.516 149.16 166.696C149.996 166.97 150.876 167.077 151.753 167.01C152.629 166.943 153.484 166.704 154.268 166.307C155.052 165.91 155.751 165.362 156.323 164.695C156.896 164.027 157.332 163.254 157.605 162.418C157.879 161.582 157.986 160.7 157.919 159.823C157.852 158.946 157.614 158.091 157.217 157.306C156.82 156.522 156.272 155.823 155.605 155.25C154.939 154.677 154.166 154.241 153.33 153.967H153.24Z" fill="url(#paint15_linear_9_463)"/>
<path fill-rule="evenodd" clip-rule="evenodd" d="M168.929 143.792C168.4 143.6 167.838 143.517 167.277 143.547C166.715 143.577 166.165 143.72 165.659 143.967C165.154 144.213 164.703 144.559 164.334 144.984C163.964 145.408 163.684 145.902 163.509 146.437C163.334 146.972 163.268 147.537 163.316 148.098C163.363 148.659 163.523 149.205 163.785 149.703C164.047 150.201 164.406 150.641 164.842 150.997C165.277 151.354 165.78 151.619 166.319 151.777C166.848 151.969 167.41 152.052 167.972 152.022C168.534 151.992 169.084 151.849 169.589 151.602C170.095 151.356 170.546 151.01 170.915 150.585C171.284 150.161 171.565 149.666 171.74 149.131C171.915 148.596 171.98 148.032 171.933 147.471C171.885 146.91 171.726 146.364 171.464 145.866C171.202 145.368 170.842 144.928 170.407 144.572C169.972 144.215 169.469 143.95 168.929 143.792Z" fill="url(#paint16_linear_9_463)"/>
<path fill-rule="evenodd" clip-rule="evenodd" d="M186.569 133.734C185.572 133.407 184.5 133.384 183.49 133.667C182.479 133.95 181.575 134.525 180.892 135.322C180.208 136.118 179.775 137.099 179.648 138.142C179.521 139.184 179.706 140.24 180.178 141.178C180.651 142.115 181.39 142.891 182.303 143.409C183.217 143.926 184.262 144.161 185.309 144.084C186.355 144.007 187.355 143.621 188.183 142.976C189.01 142.331 189.629 141.455 189.959 140.458C190.396 139.117 190.284 137.657 189.649 136.397C189.014 135.137 187.907 134.18 186.569 133.734Z" fill="url(#paint17_linear_9_463)"/>
<path fill-rule="evenodd" clip-rule="evenodd" d="M166.02 119.864C164.906 119.519 163.714 119.519 162.6 119.864L159.6 128.87C160.318 129.788 161.287 130.476 162.39 130.852C163.125 131.147 163.913 131.289 164.705 131.268C165.497 131.247 166.276 131.063 166.994 130.729C167.713 130.394 168.354 129.915 168.88 129.322C169.406 128.729 169.805 128.035 170.052 127.281C170.299 126.528 170.388 125.732 170.315 124.942C170.242 124.153 170.008 123.387 169.628 122.691C169.247 121.996 168.727 121.386 168.102 120.9C167.476 120.414 166.757 120.061 165.99 119.864H166.02Z" fill="url(#paint18_linear_9_463)"/>
<path fill-rule="evenodd" clip-rule="evenodd" d="M179.64 115C179.144 115.593 178.768 116.276 178.53 117.011C178.272 117.8 178.172 118.632 178.235 119.459C178.298 120.286 178.524 121.093 178.898 121.833C179.273 122.573 179.79 123.232 180.419 123.772C181.048 124.313 181.777 124.724 182.565 124.982C183.353 125.24 184.184 125.341 185.011 125.277C185.838 125.214 186.644 124.989 187.384 124.614C188.123 124.239 188.782 123.722 189.322 123.092C189.862 122.462 190.272 121.733 190.53 120.944C190.776 120.21 190.878 119.435 190.83 118.663L179.64 115Z" fill="url(#paint19_linear_9_463)"/>
<path fill-rule="evenodd" clip-rule="evenodd" d="M171.031 165.736C171.6 166.733 172.52 167.482 173.611 167.837C174.488 168.115 175.428 168.125 176.311 167.865C177.194 167.605 177.979 167.087 178.566 166.377C179.152 165.667 179.514 164.799 179.604 163.882C179.694 162.966 179.508 162.043 179.071 161.233C179.54 162.274 179.594 163.456 179.221 164.535C178.969 165.289 178.527 165.966 177.937 166.499C177.348 167.032 176.631 167.404 175.856 167.58C175.081 167.755 174.274 167.727 173.512 167.498C172.751 167.27 172.062 166.849 171.511 166.276C171.336 166.11 171.176 165.929 171.031 165.736ZM147.721 166.096V166.276C148.209 166.614 148.745 166.877 149.311 167.057C150.583 167.478 151.953 167.506 153.242 167.138C154.531 166.771 155.68 166.024 156.54 164.995C157.4 163.966 157.932 162.703 158.066 161.368C158.199 160.034 157.929 158.69 157.291 157.51C157.869 158.702 158.081 160.04 157.9 161.352C157.718 162.665 157.152 163.895 156.271 164.885C155.391 165.875 154.237 166.581 152.955 166.915C151.673 167.248 150.321 167.193 149.071 166.757C148.6 166.606 148.148 166.405 147.721 166.156V166.096ZM164.131 150.215C164.654 151.128 165.499 151.813 166.501 152.136C167.024 152.314 167.578 152.386 168.13 152.348C168.682 152.31 169.221 152.162 169.715 151.913C170.209 151.665 170.649 151.32 171.009 150.9C171.369 150.479 171.641 149.991 171.811 149.465C171.984 148.911 172.044 148.328 171.988 147.75C171.931 147.172 171.759 146.612 171.481 146.102C171.842 147.07 171.842 148.136 171.481 149.104C171.311 149.631 171.038 150.119 170.679 150.539C170.319 150.96 169.879 151.304 169.385 151.553C168.891 151.802 168.352 151.949 167.8 151.988C167.248 152.026 166.695 151.954 166.171 151.776C165.494 151.567 164.883 151.184 164.401 150.665C164.246 150.53 164.105 150.379 163.981 150.215H164.131ZM180.571 141.839C181.318 142.966 182.464 143.767 183.778 144.082C185.092 144.396 186.476 144.201 187.652 143.534C188.827 142.868 189.707 141.781 190.113 140.491C190.519 139.202 190.422 137.806 189.841 136.586C190.275 137.528 190.425 138.577 190.271 139.603C190.117 140.629 189.665 141.588 188.973 142.36C188.281 143.133 187.378 143.686 186.375 143.951C185.372 144.216 184.314 144.181 183.331 143.851C182.49 143.596 181.734 143.119 181.141 142.47C180.922 142.288 180.73 142.075 180.571 141.839ZM159.961 129.14C160.679 130.058 161.648 130.746 162.751 131.122C164.207 131.596 165.791 131.474 167.158 130.782C168.524 130.09 169.561 128.884 170.041 127.429C170.293 126.683 170.388 125.892 170.321 125.107C170.254 124.322 170.026 123.559 169.651 122.866C170.209 124.111 170.31 125.512 169.937 126.824C169.564 128.136 168.741 129.274 167.612 130.038C166.482 130.802 165.12 131.143 163.765 131.001C162.409 130.859 161.147 130.242 160.201 129.261L159.991 129.05L159.961 129.14ZM179.401 122.566C180.176 123.877 181.403 124.859 182.851 125.328C184.438 125.849 186.167 125.718 187.658 124.964C189.149 124.209 190.279 122.893 190.801 121.305C191.047 120.571 191.149 119.796 191.101 119.023H190.951C190.944 119.697 190.832 120.365 190.621 121.005C190.099 122.593 188.969 123.909 187.478 124.664C185.987 125.418 184.258 125.549 182.671 125.028C181.69 124.71 180.803 124.153 180.091 123.406C179.802 123.145 179.531 122.864 179.281 122.566H179.401Z" fill="#230D26"/>
</g>
<defs>
<filter id="filter0_d_9_463" x="104" y="26" width="113" height="166" filterUnits="userSpaceOnUse" color-interpolation-filters="sRGB">
<feFlood flood-opacity="0" result="BackgroundImageFix"/>
<feColorMatrix in="SourceAlpha" type="matrix" values="0 0 0 0 0 0 0 0 0 0 0 0 0 0 0 0 0 0 127 0" result="hardAlpha"/>
<feOffset dy="2"/>
<feGaussianBlur stdDeviation="2"/>
<feComposite in2="hardAlpha" operator="out"/>
<feColorMatrix type="matrix" values="0 0 0 0 0 0 0 0 0 0 0 0 0 0 0 0 0 0 0.25 0"/>
<feBlend mode="normal" in2="BackgroundImageFix" result="effect1_dropShadow_9_463"/>
<feBlend mode="normal" in="SourceGraphic" in2="effect1_dropShadow_9_463" result="shape"/>
</filter>
<linearGradient id="paint0_linear_9_463" x1="137.971" y1="145.862" x2="143.941" y2="144.153" gradientUnits="userSpaceOnUse">
<stop stop-color="#2C0E27"/>
<stop offset="0.01" stop-color="#2C0E27"/>
<stop offset="0.26" stop-color="#E33293"/>
<stop offset="0.52" stop-color="#EA2891"/>
<stop offset="1" stop-color="#3B084D"/>
</linearGradient>
<linearGradient id="paint1_linear_9_463" x1="130.891" y1="112.479" x2="109.624" y2="45.3304" gradientUnits="userSpaceOnUse">
<stop stop-color="#A71C20"/>
<stop offset="1" stop-color="#F47D20"/>
</linearGradient>
<linearGradient id="paint2_linear_9_463" x1="131.34" y1="114.191" x2="123.17" y2="88.3458" gradientUnits="userSpaceOnUse">
<stop stop-color="#A71C20"/>
<stop offset="1" stop-color="#F47D20"/>
</linearGradient>
<linearGradient id="paint3_linear_9_463" x1="149.044" y1="169.802" x2="148.714" y2="168.691" gradientUnits="userSpaceOnUse">
<stop stop-color="#0089CB"/>
<stop offset="1" stop-color="#0065B1"/>
</linearGradient>
<linearGradient id="paint4_linear_9_463" x1="147.329" y1="154.508" x2="153.12" y2="152.679" gradientUnits="userSpaceOnUse">
<stop stop-color="#E86E25"/>
<stop offset="0.31" stop-color="#F6891F"/>
<stop offset="0.55" stop-color="#FAA541"/>
<stop offset="1" stop-color="#EE791F"/>
</linearGradient>
<linearGradient id="paint5_linear_9_463" x1="133.32" y1="163.065" x2="137.4" y2="161.775" gradientUnits="userSpaceOnUse">
<stop stop-color="#E86E25"/>
<stop offset="0.31" stop-color="#F6891F"/>
<stop offset="0.55" stop-color="#FAA541"/>
<stop offset="1" stop-color="#EE791F"/>
</linearGradient>
<linearGradient id="paint6_linear_9_463" x1="135.269" y1="147.633" x2="140.58" y2="145.954" gradientUnits="userSpaceOnUse">
<stop stop-color="#E86E25"/>
<stop offset="0.31" stop-color="#F6891F"/>
<stop offset="0.55" stop-color="#FAA541"/>
<stop offset="1" stop-color="#EE791F"/>
</linearGradient>
<linearGradient id="paint7_linear_9_463" x1="141.81" y1="133.433" x2="148.531" y2="131.304" gradientUnits="userSpaceOnUse">
<stop stop-color="#E86E25"/>
<stop offset="0.31" stop-color="#F6891F"/>
<stop offset="0.55" stop-color="#FAA541"/>
<stop offset="1" stop-color="#EE791F"/>
</linearGradient>
<linearGradient id="paint8_linear_9_463" x1="123.72" y1="133.673" x2="128.58" y2="132.144" gradientUnits="userSpaceOnUse">
<stop stop-color="#E86E25"/>
<stop offset="0.31" stop-color="#F6891F"/>
<stop offset="0.55" stop-color="#FAA541"/>
<stop offset="1" stop-color="#EE791F"/>
</linearGradient>
<linearGradient id="paint9_linear_9_463" x1="131.94" y1="122.055" x2="140.251" y2="119.417" gradientUnits="userSpaceOnUse">
<stop stop-color="#E86E25"/>
<stop offset="0.31" stop-color="#F6891F"/>
<stop offset="0.55" stop-color="#FAA541"/>
<stop offset="1" stop-color="#EE791F"/>
</linearGradient>
<linearGradient id="paint10_linear_9_463" x1="164.97" y1="145.293" x2="182.554" y2="153.179" gradientUnits="userSpaceOnUse">
<stop stop-color="#EF3E23"/>
<stop offset="0.39" stop-color="#FCB316"/>
<stop offset="0.83" stop-color="#EF3E23"/>
<stop offset="1" stop-color="#EF3E23"/>
</linearGradient>
<linearGradient id="paint11_linear_9_463" x1="184.95" y1="109.056" x2="211.443" y2="28.4312" gradientUnits="userSpaceOnUse">
<stop stop-color="#C01F25"/>
<stop offset="1" stop-color="#F78F3F"/>
</linearGradient>
<linearGradient id="paint12_linear_9_463" x1="184.231" y1="110.948" x2="194.714" y2="79.0096" gradientUnits="userSpaceOnUse">
<stop stop-color="#C01F25"/>
<stop offset="1" stop-color="#F78F3F"/>
</linearGradient>
<linearGradient id="paint13_linear_9_463" x1="162.255" y1="178.184" x2="162.705" y2="176.864" gradientUnits="userSpaceOnUse">
<stop stop-color="#0089CB"/>
<stop offset="1" stop-color="#0065B1"/>
</linearGradient>
<linearGradient id="paint14_linear_9_463" x1="171.39" y1="161.982" x2="178.321" y2="164.231" gradientUnits="userSpaceOnUse">
<stop stop-color="#56185D"/>
<stop offset="0.3" stop-color="#98247D"/>
<stop offset="0.53" stop-color="#DB1A8E"/>
<stop offset="1" stop-color="#E72991"/>
</linearGradient>
<linearGradient id="paint15_linear_9_463" x1="151.68" y1="160.512" x2="156.511" y2="162.101" gradientUnits="userSpaceOnUse">
<stop stop-color="#56185D"/>
<stop offset="0.3" stop-color="#98247D"/>
<stop offset="0.53" stop-color="#DB1A8E"/>
<stop offset="1" stop-color="#E72991"/>
</linearGradient>
<linearGradient id="paint16_linear_9_463" x1="164.459" y1="146.764" x2="170.79" y2="148.832" gradientUnits="userSpaceOnUse">
<stop stop-color="#56185D"/>
<stop offset="0.3" stop-color="#98247D"/>
<stop offset="0.53" stop-color="#DB1A8E"/>
<stop offset="1" stop-color="#E72991"/>
</linearGradient>
<linearGradient id="paint17_linear_9_463" x1="180.839" y1="137.486" x2="188.88" y2="140.125" gradientUnits="userSpaceOnUse">
<stop stop-color="#56185D"/>
<stop offset="0.3" stop-color="#98247D"/>
<stop offset="0.53" stop-color="#DB1A8E"/>
<stop offset="1" stop-color="#E72991"/>
</linearGradient>
<linearGradient id="paint18_linear_9_463" x1="162.96" y1="124.937" x2="168.75" y2="126.856" gradientUnits="userSpaceOnUse">
<stop stop-color="#56185D"/>
<stop offset="0.3" stop-color="#98247D"/>
<stop offset="0.53" stop-color="#DB1A8E"/>
<stop offset="1" stop-color="#E72991"/>
</linearGradient>
<linearGradient id="paint19_linear_9_463" x1="178.62" y1="119.173" x2="188.582" y2="122.441" gradientUnits="userSpaceOnUse">
<stop stop-color="#56185D"/>
<stop offset="0.3" stop-color="#98247D"/>
<stop offset="0.53" stop-color="#DB1A8E"/>
<stop offset="1" stop-color="#E72991"/>
</linearGradient>
<clipPath id="clip0_9_463">
<rect width="105" height="158" fill="white" transform="translate(108 28)"/>
</clipPath>
</defs>
</svg>
