<svg width="320" height="192" viewBox="0 0 320 192" fill="none" xmlns="http://www.w3.org/2000/svg">
<g clip-path="url(#clip0_9_230)" filter="url(#filter0_d_9_230)">
<path fill-rule="evenodd" clip-rule="evenodd" d="M169.832 106.607L168.68 108.303C172.644 113.389 175.135 119.466 175.88 125.871C177.352 136.911 180.488 142.831 188.904 148.719C197.32 154.607 201.224 153.839 208.488 160.943C215.752 168.047 223.112 175.887 225.288 178.351C227.232 179.987 229.692 180.884 232.232 180.884C234.773 180.884 237.232 179.987 239.176 178.351C243.24 174.095 246.344 167.759 240.36 160.207C231.306 148.707 221.367 137.933 210.632 127.983C199.313 118.175 187.362 109.121 174.856 100.879L173.288 102.351L131.688 63.9512L128.488 68.9752L169.832 106.639V106.607ZM225.288 164.367L211.112 151.247C210.824 150.982 210.592 150.664 210.427 150.309C210.262 149.954 210.169 149.57 210.153 149.18C210.136 148.789 210.197 148.399 210.332 148.031C210.466 147.664 210.672 147.327 210.936 147.039C211.201 146.751 211.52 146.518 211.875 146.354C212.229 146.189 212.613 146.096 213.004 146.08C213.395 146.063 213.785 146.124 214.152 146.258C214.519 146.393 214.856 146.598 215.144 146.863L229.352 159.983C229.64 160.25 229.873 160.571 230.036 160.928C230.2 161.284 230.292 161.67 230.307 162.062C230.322 162.454 230.259 162.846 230.123 163.214C229.987 163.582 229.779 163.919 229.512 164.207C229.245 164.495 228.925 164.727 228.568 164.891C228.211 165.055 227.826 165.147 227.433 165.162C227.041 165.177 226.65 165.114 226.282 164.978C225.914 164.842 225.576 164.634 225.288 164.367ZM181.416 132.847C180.84 130.191 181.672 125.551 184.36 124.303C186.248 123.407 188.712 124.559 191.464 126.543C195.269 129.283 198.526 132.713 201.064 136.655C201.493 137.609 201.706 138.646 201.688 139.691C201.67 140.737 201.421 141.766 200.96 142.704C200.498 143.643 199.835 144.467 199.018 145.12C198.201 145.773 197.25 146.237 196.232 146.479C192.104 147.215 187.816 143.439 184.68 139.119C183.203 137.255 182.095 135.126 181.416 132.847Z" fill="url(#paint0_linear_9_230)"/>
<path fill-rule="evenodd" clip-rule="evenodd" d="M194.568 132.4C194.049 134.485 192.938 136.375 191.368 137.84C191.013 138.141 190.746 138.531 190.594 138.97C190.442 139.409 190.411 139.881 190.504 140.336C191.131 141.448 192.016 142.392 193.086 143.088C194.156 143.785 195.377 144.213 196.648 144.336C197.145 144.3 197.626 144.148 198.054 143.892C198.482 143.637 198.844 143.285 199.112 142.864C199.745 141.586 199.953 140.139 199.705 138.735C199.458 137.33 198.768 136.041 197.736 135.056C196.819 134.017 195.751 133.122 194.568 132.4Z" fill="url(#paint1_linear_9_230)"/>
<path fill-rule="evenodd" clip-rule="evenodd" d="M220.936 158.831C221.096 158.987 221.285 159.109 221.492 159.192C221.699 159.274 221.92 159.315 222.143 159.312C222.366 159.309 222.586 159.262 222.791 159.174C222.995 159.086 223.181 158.959 223.336 158.799C223.492 158.639 223.614 158.451 223.697 158.244C223.779 158.037 223.82 157.815 223.817 157.592C223.814 157.37 223.768 157.15 223.679 156.945C223.591 156.74 223.464 156.555 223.304 156.399L214.728 148.047C214.405 147.727 213.968 147.547 213.512 147.547C213.057 147.547 212.62 147.727 212.296 148.047C212.139 148.205 212.013 148.392 211.928 148.598C211.843 148.804 211.799 149.024 211.799 149.247C211.799 149.47 211.843 149.691 211.928 149.897C212.013 150.103 212.139 150.29 212.296 150.447L220.936 158.831Z" fill="url(#paint2_linear_9_230)"/>
<path fill-rule="evenodd" clip-rule="evenodd" d="M124.904 65.8072C119.208 61.1032 118.728 56.3993 123.816 51.2793C125.297 49.6552 126.625 47.8984 127.784 46.0312C128.079 48.2968 128.842 50.4762 130.024 52.4313C131.473 53.8441 132.309 55.7699 132.351 57.7934C132.393 59.8168 131.638 61.7756 130.248 63.2473C129.387 62.0508 128.586 60.8119 127.848 59.5353C127.592 58.9912 127.217 58.5109 126.753 58.1291C126.288 57.7473 125.744 57.4734 125.16 57.3272C122.408 57.1032 123.944 64.0792 124.904 65.8072Z" fill="url(#paint3_linear_9_230)"/>
<path fill-rule="evenodd" clip-rule="evenodd" d="M169.001 108.688L168.489 109.456C172.453 114.542 174.943 120.619 175.689 127.024C177.161 138.064 180.297 143.984 188.713 149.872C197.129 155.76 201.033 154.992 208.297 162.096C215.561 169.2 222.921 177.04 225.097 179.504C227.041 181.14 229.5 182.037 232.041 182.037C234.582 182.037 237.041 181.14 238.985 179.504C241.359 177.243 242.923 174.262 243.433 171.024C242.712 173.81 241.24 176.345 239.177 178.352C237.233 179.988 234.774 180.885 232.233 180.885C229.692 180.885 227.233 179.988 225.289 178.352C223.113 175.888 215.689 168.016 208.489 160.944C201.289 153.872 197.321 154.544 188.905 148.72C180.489 142.896 177.353 136.912 175.881 125.872C175.127 119.641 172.755 113.717 169.001 108.688ZM128.809 69.2637L128.297 70.1276L169.289 107.44L169.833 106.608L128.809 69.2637ZM230.121 163.248C230.12 162.848 230.034 162.452 229.868 162.088C229.703 161.724 229.462 161.399 229.161 161.136L214.953 148.016C214.666 147.747 214.328 147.538 213.96 147.401C213.592 147.264 213.2 147.201 212.808 147.215C212.415 147.23 212.029 147.323 211.672 147.488C211.315 147.652 210.995 147.886 210.729 148.176C210.482 148.459 210.287 148.784 210.153 149.136C210.136 148.55 210.293 147.973 210.603 147.477C210.913 146.98 211.362 146.586 211.895 146.343C212.428 146.101 213.02 146.021 213.598 146.113C214.177 146.206 214.714 146.467 215.145 146.864L229.353 159.984C229.778 160.385 230.077 160.901 230.213 161.469C230.35 162.038 230.318 162.633 230.121 163.184V163.248ZM201.321 141.392C201.428 140.171 201.242 138.942 200.777 137.808C198.238 133.866 194.982 130.435 191.177 127.696C188.425 125.712 185.961 124.496 184.041 125.456C183.276 125.932 182.626 126.572 182.139 127.331C181.652 128.089 181.34 128.946 181.225 129.84C181.242 128.739 181.528 127.659 182.058 126.694C182.588 125.729 183.345 124.909 184.265 124.304C186.153 123.408 188.617 124.56 191.369 126.544C195.174 129.283 198.43 132.714 200.969 136.656C201.624 138.145 201.782 139.806 201.417 141.392H201.321Z" fill="url(#paint4_linear_9_230)"/>
<path fill-rule="evenodd" clip-rule="evenodd" d="M146.888 106.609L148.04 108.305C144.076 113.394 141.576 119.468 140.808 125.873C139.368 136.913 136.232 142.833 127.816 148.721C119.4 154.609 115.496 153.841 108.232 160.945C100.968 168.049 93.5759 175.889 91.4319 178.353C89.4801 179.985 87.0164 180.88 84.4718 180.88C81.9272 180.88 79.4637 179.985 77.5119 178.353C73.4479 174.097 70.3759 167.761 76.3599 160.209C85.443 148.674 95.4263 137.877 106.216 127.921C117.535 118.113 129.486 109.059 141.992 100.817L143.56 102.289L185.16 63.8887L188.36 68.9127L147.016 106.577L146.888 106.609ZM91.3999 164.369L105.608 151.249C106.189 150.71 106.533 149.962 106.563 149.17C106.593 148.378 106.307 147.606 105.768 147.025C105.229 146.443 104.481 146.1 103.689 146.07C102.897 146.04 102.125 146.326 101.544 146.865L87.3359 159.985C87.048 160.252 86.8155 160.573 86.6517 160.929C86.4879 161.286 86.3959 161.671 86.381 162.064C86.3661 162.456 86.4287 162.847 86.5651 163.215C86.7015 163.583 86.909 163.921 87.1758 164.209C87.4427 164.497 87.7637 164.729 88.1204 164.893C88.4771 165.057 88.8625 165.149 89.2547 165.164C89.647 165.178 90.0383 165.116 90.4064 164.979C90.7745 164.843 91.112 164.636 91.3999 164.369ZM135.304 132.849C135.88 130.193 135.048 125.553 132.36 124.305C130.472 123.409 128.008 124.561 125.256 126.545C121.436 129.267 118.176 132.7 115.656 136.657C115.227 137.611 115.014 138.647 115.032 139.693C115.05 140.739 115.299 141.767 115.76 142.706C116.222 143.644 116.885 144.469 117.702 145.122C118.519 145.774 119.471 146.238 120.488 146.481C124.616 147.217 128.904 143.441 132.04 139.121C133.517 137.257 134.625 135.128 135.304 132.849Z" fill="url(#paint5_linear_9_230)"/>
<path fill-rule="evenodd" clip-rule="evenodd" d="M122.216 132.4C122.722 134.49 123.835 136.383 125.416 137.84C125.773 138.138 126.04 138.529 126.187 138.97C126.334 139.411 126.355 139.884 126.248 140.336C125.628 141.447 124.748 142.392 123.684 143.088C122.619 143.785 121.402 144.213 120.136 144.336C119.639 144.3 119.157 144.148 118.729 143.892C118.302 143.637 117.939 143.285 117.672 142.864C117.038 141.586 116.831 140.139 117.078 138.735C117.326 137.33 118.016 136.041 119.048 135.056C119.965 134.017 121.033 133.122 122.216 132.4Z" fill="url(#paint6_linear_9_230)"/>
<path fill-rule="evenodd" clip-rule="evenodd" d="M95.7833 158.832C95.6237 158.989 95.4345 159.114 95.2267 159.198C95.0189 159.283 94.7964 159.325 94.572 159.324C94.3477 159.322 94.1259 159.277 93.9192 159.19C93.7125 159.102 93.5249 158.975 93.3673 158.816C93.2097 158.656 93.0852 158.467 93.0007 158.259C92.9162 158.051 92.8736 157.829 92.875 157.604C92.8765 157.38 92.9222 157.158 93.0094 156.951C93.0966 156.745 93.2237 156.557 93.3833 156.4L101.991 148.048C102.151 147.892 102.34 147.77 102.547 147.687C102.754 147.605 102.975 147.564 103.198 147.567C103.421 147.57 103.641 147.616 103.846 147.704C104.05 147.792 104.236 147.92 104.391 148.08C104.547 148.239 104.669 148.428 104.752 148.635C104.834 148.842 104.875 149.063 104.872 149.286C104.869 149.509 104.823 149.729 104.735 149.934C104.647 150.139 104.519 150.324 104.359 150.48L95.7833 158.832Z" fill="url(#paint7_linear_9_230)"/>
<path fill-rule="evenodd" clip-rule="evenodd" d="M191.815 65.8072C197.511 61.1032 197.991 56.3993 192.871 51.2793C191.4 49.6556 190.082 47.8987 188.935 46.0312C188.624 48.2928 187.862 50.469 186.695 52.4313C185.246 53.8441 184.411 55.7699 184.369 57.7934C184.327 59.8168 185.082 61.7756 186.471 63.2473C187.333 62.0508 188.134 60.8119 188.871 59.5353C189.12 58.9859 189.492 58.501 189.958 58.1182C190.424 57.7353 190.972 57.4647 191.559 57.3272C194.311 57.1032 192.775 64.0792 191.815 65.8072Z" fill="url(#paint8_linear_9_230)"/>
<path fill-rule="evenodd" clip-rule="evenodd" d="M147.465 107.376L148.617 109.072C144.653 114.161 142.152 120.235 141.385 126.64C139.945 137.68 136.809 143.6 128.393 149.488C119.977 155.376 116.073 154.608 108.809 161.712C101.545 168.816 94.1528 176.656 92.0088 179.12C90.057 180.752 87.5934 181.647 85.0488 181.647C82.5042 181.647 80.0406 180.752 78.0888 179.12L77.8008 178.8C79.5862 180.295 81.876 181.051 84.2008 180.912C86.8809 181.036 89.5092 180.145 91.5608 178.416C93.7048 175.952 101.161 168.08 108.361 161.008C115.561 153.936 119.497 154.608 127.945 148.784C136.393 142.96 139.497 136.976 140.937 125.936C141.704 119.531 144.205 113.457 148.169 108.368L147.017 106.672L188.361 69.0078L188.873 69.8398L147.529 107.472L147.465 107.376ZM87.3048 164.336C87.0306 163.747 86.9419 163.089 87.0505 162.449C87.1591 161.809 87.4598 161.217 87.9128 160.752L102.121 147.632C102.623 147.171 103.268 146.895 103.948 146.848C104.628 146.802 105.304 146.988 105.865 147.376C105.787 147.245 105.69 147.126 105.577 147.024C105.312 146.733 104.991 146.498 104.634 146.333C104.277 146.168 103.89 146.077 103.497 146.064C102.774 146.102 102.086 146.384 101.545 146.864L87.3368 159.984C87.0474 160.25 86.8135 160.57 86.6487 160.927C86.4839 161.284 86.3914 161.67 86.3766 162.062C86.3617 162.455 86.4248 162.847 86.5621 163.215C86.6995 163.583 86.9083 163.921 87.1768 164.208L87.3048 164.336ZM116.841 144.368C116.184 143.346 115.785 142.181 115.679 140.971C115.574 139.761 115.763 138.544 116.233 137.424C118.753 133.467 122.012 130.034 125.833 127.312C128.585 125.328 131.049 124.112 132.937 125.072C133.183 125.172 133.41 125.312 133.609 125.488C133.238 124.976 132.742 124.568 132.169 124.304C131.754 124.118 131.31 124.01 130.857 123.984C128.789 124.302 126.85 125.188 125.257 126.544C121.436 129.266 118.177 132.699 115.657 136.656C115.106 137.933 114.925 139.339 115.134 140.713C115.344 142.088 115.935 143.377 116.841 144.432V144.368Z" fill="url(#paint9_linear_9_230)"/>
</g>
<defs>
<filter id="filter0_d_9_230" x="69" y="44" width="178.688" height="144" filterUnits="userSpaceOnUse" color-interpolation-filters="sRGB">
<feFlood flood-opacity="0" result="BackgroundImageFix"/>
<feColorMatrix in="SourceAlpha" type="matrix" values="0 0 0 0 0 0 0 0 0 0 0 0 0 0 0 0 0 0 127 0" result="hardAlpha"/>
<feOffset dy="2"/>
<feGaussianBlur stdDeviation="2"/>
<feComposite in2="hardAlpha" operator="out"/>
<feColorMatrix type="matrix" values="0 0 0 0 0 0 0 0 0 0 0 0 0 0 0 0 0 0 0.25 0"/>
<feBlend mode="normal" in2="BackgroundImageFix" result="effect1_dropShadow_9_230"/>
<feBlend mode="normal" in="SourceGraphic" in2="effect1_dropShadow_9_230" result="shape"/>
</filter>
<linearGradient id="paint0_linear_9_230" x1="183.656" y1="123.215" x2="180.872" y2="126.543" gradientUnits="userSpaceOnUse">
<stop stop-color="#2C0E27"/>
<stop offset="0.01" stop-color="#2C0E27"/>
<stop offset="0.26" stop-color="#E33293"/>
<stop offset="0.52" stop-color="#EA2891"/>
<stop offset="1" stop-color="#3B084D"/>
</linearGradient>
<linearGradient id="paint1_linear_9_230" x1="194.184" y1="141.968" x2="197.448" y2="135.824" gradientUnits="userSpaceOnUse">
<stop stop-color="#0089CB"/>
<stop offset="1" stop-color="#0065B1"/>
</linearGradient>
<linearGradient id="paint2_linear_9_230" x1="217.16" y1="154.703" x2="218.504" y2="152.175" gradientUnits="userSpaceOnUse">
<stop stop-color="#0089CB"/>
<stop offset="1" stop-color="#0065B1"/>
</linearGradient>
<linearGradient id="paint3_linear_9_230" x1="123.656" y1="63.1512" x2="130.824" y2="49.6152" gradientUnits="userSpaceOnUse">
<stop stop-color="#C01F25"/>
<stop offset="1" stop-color="#F78F3F"/>
</linearGradient>
<linearGradient id="paint4_linear_9_230" x1="184.745" y1="106.768" x2="188.393" y2="151.632" gradientUnits="userSpaceOnUse">
<stop stop-color="#2A0F27"/>
<stop offset="0.01" stop-color="#2A0F27"/>
<stop offset="0.26" stop-color="#D0108C"/>
<stop offset="0.52" stop-color="#D40E8C"/>
<stop offset="1" stop-color="#370145"/>
</linearGradient>
<linearGradient id="paint5_linear_9_230" x1="82.5359" y1="135.505" x2="205.96" y2="104.913" gradientUnits="userSpaceOnUse">
<stop stop-color="#EF3E23"/>
<stop offset="0.39" stop-color="#FCB316"/>
<stop offset="0.83" stop-color="#EF3E23"/>
<stop offset="1" stop-color="#EF3E23"/>
</linearGradient>
<linearGradient id="paint6_linear_9_230" x1="122.536" y1="141.968" x2="119.272" y2="135.824" gradientUnits="userSpaceOnUse">
<stop stop-color="#0089CB"/>
<stop offset="1" stop-color="#0065B1"/>
</linearGradient>
<linearGradient id="paint7_linear_9_230" x1="99.5594" y1="154.704" x2="98.2154" y2="152.176" gradientUnits="userSpaceOnUse">
<stop stop-color="#0089CB"/>
<stop offset="1" stop-color="#0065B1"/>
</linearGradient>
<linearGradient id="paint8_linear_9_230" x1="193.063" y1="63.1512" x2="185.863" y2="49.6153" gradientUnits="userSpaceOnUse">
<stop stop-color="#C01F25"/>
<stop offset="1" stop-color="#F78F3F"/>
</linearGradient>
<linearGradient id="paint9_linear_9_230" x1="123.241" y1="117.2" x2="142.793" y2="130.672" gradientUnits="userSpaceOnUse">
<stop stop-color="#B93A1D"/>
<stop offset="0.39" stop-color="#B9521D"/>
<stop offset="0.83" stop-color="#BD3720"/>
<stop offset="1" stop-color="#BD3720"/>
</linearGradient>
<clipPath id="clip0_9_230">
<rect width="170.688" height="136" fill="white" transform="translate(73 46)"/>
</clipPath>
</defs>
</svg>
