<svg width="200" height="200" viewBox="-26 -26 180 180" fill="none" xmlns="http://www.w3.org/2000/svg">
<g filter="url(#filter0_d_1185_11516)">
<path d="M80.5895 54.1722L71.3652 105.48L95.9577 108.751L105.182 57.4429L80.5895 54.1722Z" fill="#85D3E8"/>
<path fill-rule="evenodd" clip-rule="evenodd" d="M81.9777 116.694L66.6121 114.545C64.4884 114.266 65.238 112.719 65.9125 111.558C66.9619 109.732 68.5609 106.873 68.9856 106.078C69.4104 105.283 69.7602 105.197 70.6097 105.326L72.6084 105.584L83.7016 107.067L94.7948 108.528L96.7936 108.807C97.6431 108.915 97.9429 109.173 98.0678 109.946C98.1927 110.72 98.7174 113.943 99.0922 115.963C99.2921 117.253 99.467 118.907 97.3683 118.628L81.9777 116.694Z" fill="url(#paint0_linear_1185_11516)"/>
<path d="M79.9709 50.7703L79.4707 53.5523C79.4243 53.8104 79.6299 54.0519 79.9299 54.0918L105.856 57.5398C106.156 57.5797 106.437 57.4029 106.483 57.1448L106.983 54.3628C107.029 54.1048 106.824 53.8633 106.524 53.8234L80.5981 50.3753C80.2981 50.3354 80.0173 50.5123 79.9709 50.7703Z" fill="url(#paint1_linear_1185_11516)"/>
<path fill-rule="evenodd" clip-rule="evenodd" d="M87.5737 85.5997C92.5706 86.2659 96.4932 89.8976 98.517 94.7971L96.0185 108.808L71.4336 105.52L73.9321 91.5308C77.6048 87.2974 82.6017 84.9336 87.5737 85.5997Z" fill="#1C4482"/>
<path fill-rule="evenodd" clip-rule="evenodd" d="M89.672 73.9747C94.669 74.6409 98.5665 78.2726 100.615 83.1721L98.5166 94.7978C96.4928 89.8123 92.5702 86.2021 87.5733 85.6004C82.5763 84.9987 77.5794 87.298 73.9316 91.5314L76.0054 79.9057C79.7031 75.6724 84.6751 73.3086 89.672 73.9747Z" fill="#5698D2"/>
<path fill-rule="evenodd" clip-rule="evenodd" d="M91.822 62.3497C96.8189 63.0159 100.717 66.6476 102.765 71.5471L100.667 83.1728C98.6178 78.1873 94.7202 74.5771 89.7233 73.9754C84.7263 73.3737 79.7294 75.673 76.0566 79.9064L78.1553 68.2807C81.8281 64.0474 86.825 61.6836 91.822 62.3497Z" fill="#52B9D5"/>
<path fill-rule="evenodd" clip-rule="evenodd" d="M92.3947 61.6639C94.859 62.1353 97.1345 63.1589 98.9905 64.6307C100.847 66.1025 102.217 67.9704 102.963 70.0447L102.713 71.549C100.665 66.5635 96.742 62.9533 91.7701 62.3516C89.2881 62.1622 86.7916 62.5323 84.5266 63.4253C82.2616 64.3184 80.3061 65.7036 78.853 67.4445C82.5507 63.3186 87.4727 60.9977 92.3947 61.6639Z" fill="#0790AE"/>
<path fill-rule="evenodd" clip-rule="evenodd" d="M92.796 24.939L87.5492 25.8201L90.0726 21.6297L80.4785 19.3733L90.3724 17.2889L85.8003 9.98254L94.7198 14.6887L97.693 9.44531L100.017 15.097L105.288 13.6357L104.064 17.2674L116.506 21.3289L102.615 23.4133L103.065 27.1095L98.9172 25.8631L93.7454 34.8886L92.796 24.939Z" fill="#EF4423"/>
<path fill-rule="evenodd" clip-rule="evenodd" d="M105.862 44.046L107.036 41.4029L102.814 40.6937L106.561 38.9101L100.84 33.7097L107.161 35.5363L107.836 30.5078L111.358 34.8701L115.231 31.6897L114.831 35.9231L120.578 35.2999L114.931 39.3614L119.728 42.112L114.232 41.8326L115.231 45.056L111.983 43.1865L110.209 47.5058L109.085 43.1005L105.862 44.046Z" fill="#EF4423"/>
<path fill-rule="evenodd" clip-rule="evenodd" d="M79.3291 39.4457L79.7788 36.7165H76.5059L79.654 35.0404L76.8557 33.1923H79.8788V30.6351L82.5522 32.2897L84.501 29.3242L85.1755 32.1608L88.5485 30.4417L86.8245 33.2353L90.847 35.9644L86.5997 36.5446L87.0244 38.9729L84.1512 37.4472L83.0019 40.4342L81.6777 38.0489L79.3291 39.4457Z" fill="#EF4423"/>
<path fill-rule="evenodd" clip-rule="evenodd" d="M110.311 12.2607L114.983 14.4096L111.585 16.2792C111.735 16.2792 115.557 16.0858 115.557 16.0858L114.633 18.9008L117.356 17.0098L118.256 19.7389L119.28 16.537L122.253 18.4711L121.079 15.7204L126.076 15.5485L121.079 13.6789L123.702 9.91833L119.93 12.2392L119.405 8.28516L117.781 12.2822L115.033 10.1332L115.682 12.583L110.311 12.2607Z" fill="#EF4423"/>
<path fill-rule="evenodd" clip-rule="evenodd" d="M76.8281 10.3025L78.9268 7.96016L76.953 7.4444L79.0268 6.84271L77.2778 4.69378C77.2778 4.69378 79.7763 5.6393 79.7763 5.55334C79.7763 5.46738 79.5264 2.86719 79.5264 2.86719L81.2004 5.35995L84.0487 3.55486L82.5496 6.09057L84.8482 6.32695L82.7495 7.25101L84.4235 8.75525L82.2998 8.32547L82.4747 10.0876L80.9756 8.88418L79.8013 10.8397V8.69078L76.8281 10.3025Z" fill="#EF4423"/>
<path fill-rule="evenodd" clip-rule="evenodd" d="M108.412 41.767L110.111 41.2083L110.511 43.0134L111.335 41.3373L112.735 42.3043L112.61 40.8L114.184 40.6066L112.784 39.3603L114.533 38.1783L112.51 38.0064L113.534 36.0509L111.61 37.4047L109.112 35.4922L109.536 37.7915L107.713 37.9849L108.962 39.2098L107.213 40.0479L108.912 40.5637L108.412 41.767Z" fill="#F47521"/>
<path fill-rule="evenodd" clip-rule="evenodd" d="M81.6774 35.7233L81.4276 36.7978L82.5019 36.1316L83.0266 36.9697L83.6013 35.7448L85.1253 36.5614L84.6506 35.2506L86.3496 35.358L84.7506 34.7993L85.0754 33.4884L83.976 33.8323L83.8011 32.7578L83.0266 33.9182L81.4776 33.1231L81.8274 34.305H80.5781L81.7024 35.0572L80.9029 35.6374L81.6774 35.7233Z" fill="#F47521"/>
<path fill-rule="evenodd" clip-rule="evenodd" d="M94.4447 23.0686L90.8969 23.6703L92.7207 20.6403L87.6738 19.4584L93.0705 18.341L90.5471 14.3225L95.4441 16.9012L97.4178 13.4414L98.9169 17.0301L102.615 16.0201L101.865 18.212L109.71 20.7692L100.641 22.1231L100.966 24.8307L98.0175 23.9496L95.0193 29.15L94.4447 23.0686Z" fill="#F47521"/>
<path fill-rule="evenodd" clip-rule="evenodd" d="M95.5697 21.8001L95.8945 25.2169L97.3686 22.6167L99.5423 23.2614L99.2924 21.2414L105.039 20.3818L100.367 18.8561L100.767 17.6312L98.1431 18.3618L97.2437 16.1914L95.9695 18.4263L93.8208 17.3088L94.9201 19.0495L92.6465 19.5222L94.5203 19.9735L93.1712 22.1869L95.5697 21.8001Z" fill="#FBC311"/>
<path fill-rule="evenodd" clip-rule="evenodd" d="M116.256 14.0004L117.655 14.0219L116.98 12.7755L118.18 13.5921L118.829 12.3242L119.304 13.5491L120.378 12.9044L119.654 14.3442L121.977 14.9244L120.079 15.1178L120.428 16.2138L118.405 15.2253L116.506 16.4072L117.53 14.7095L116.256 14.0004Z" fill="#F47521"/>
<path fill-rule="evenodd" clip-rule="evenodd" d="M79.3281 7.29533L80.2026 6.86556L79.503 6.11345L80.2525 6.37131L80.5774 5.66216L81.0271 6.32832L82.0514 5.42578L81.8266 6.37131L82.7011 6.67216C82.7011 6.67216 81.7267 7.12345 81.6767 7.12345C81.6006 7.4641 81.5505 7.80865 81.5268 8.15492L80.8522 7.38131L79.9527 7.983L80.2026 7.20939L79.3281 7.29533Z" fill="#F47521"/>
<path d="M47.4774 53.057L23.1211 56.375L32.4701 107.144L56.8264 103.826L47.4774 53.057Z" fill="#E287B8"/>
<path fill-rule="evenodd" clip-rule="evenodd" d="M46.3733 114.939L31.1326 117.088C29.0589 117.367 29.2338 115.712 29.4337 114.445C29.7835 112.446 30.2832 109.33 30.4081 108.471C30.4048 108.324 30.4351 108.178 30.4973 108.041C30.5596 107.905 30.6526 107.78 30.7709 107.674C30.8892 107.568 31.0306 107.484 31.187 107.425C31.3434 107.366 31.5117 107.334 31.6823 107.332L33.6561 107.074L44.6243 105.57L55.6177 104.087L57.5914 103.807C57.7537 103.762 57.9252 103.745 58.0953 103.758C58.2654 103.772 58.4305 103.815 58.5803 103.886C58.7302 103.956 58.8616 104.052 58.9666 104.168C59.0715 104.284 59.1477 104.417 59.1904 104.56C59.6402 105.333 61.2142 108.17 62.2636 109.975C62.9382 111.114 63.6877 112.64 61.589 112.94L46.3733 114.939Z" fill="url(#paint2_linear_1185_11516)"/>
<path d="M47.461 49.2737L21.7721 52.7732C21.4859 52.8121 21.2907 53.0433 21.336 53.2895L21.848 56.0699C21.8933 56.3161 22.1621 56.484 22.4483 56.445L48.1371 52.9455C48.4233 52.9065 48.6186 52.6754 48.5732 52.4292L48.0612 49.6488C48.0159 49.4026 47.7472 49.2347 47.461 49.2737Z" fill="url(#paint3_linear_1185_11516)"/>
<path fill-rule="evenodd" clip-rule="evenodd" d="M40.7036 84.1618C45.7005 83.4742 50.5725 85.8165 54.2452 89.9854L56.7437 103.846L32.4086 107.155L29.9102 93.2948C31.859 88.3522 35.7566 84.828 40.7036 84.1618Z" fill="#88126E"/>
<path fill-rule="evenodd" clip-rule="evenodd" d="M38.5805 72.6404C43.5774 71.9742 48.4494 74.295 52.1472 78.4854L54.2459 89.9822C50.5731 85.8133 45.6512 83.5354 40.7042 84.1586C35.7573 84.7818 31.9096 88.4564 29.9108 93.2915L27.7871 81.7948C29.7859 76.8523 33.6585 73.328 38.5805 72.6404Z" fill="#B23694"/>
<path fill-rule="evenodd" clip-rule="evenodd" d="M36.4555 61.1443C41.4524 60.4781 46.4494 62.799 50.0222 66.9679L52.1459 78.4861C48.4482 74.2957 43.5262 72.0393 38.5792 72.641C33.6323 73.2427 29.7846 76.9389 27.7858 81.7955L25.6621 70.2772C27.6609 65.3347 31.5335 61.8105 36.4555 61.1443Z" fill="#C4549F"/>
<g style="mix-blend-mode:multiply">
<path fill-rule="evenodd" clip-rule="evenodd" d="M35.8303 60.4616C40.8272 59.7954 45.6493 62.0948 49.2971 66.1992C47.8534 64.4682 45.9091 63.0917 43.6565 62.2059C41.404 61.3201 38.9215 60.9559 36.4549 61.1493C31.458 61.8154 27.6603 65.3397 25.6615 70.2822L26.6859 75.7834L25.3867 68.7779C26.1333 66.7288 27.4898 64.8833 29.3218 63.4245C31.1538 61.9656 33.3976 60.9442 35.8303 60.4616Z" fill="#C4549F"/>
</g>
<path fill-rule="evenodd" clip-rule="evenodd" d="M25.9608 25.7985L21.3137 27.9904L22.2131 23.3917L12.3691 23.757L20.9639 19.2228L14.0931 13.5282L24.1369 15.6341L25.1113 9.91797L29.3088 14.6456L33.756 11.895L33.881 15.6341L47.0229 16.2358L34.6805 21.823L36.3794 25.1753L32.0571 25.0894L30.3581 34.9314L25.9608 25.7985Z" fill="#EF4423"/>
<path fill-rule="evenodd" clip-rule="evenodd" d="M18.3906 42.9009L17.866 40.2148L14.7429 41.0098L17.2414 38.6031L13.9434 37.5931L16.7917 36.8409L15.8422 34.4341L18.9403 35.2937L19.7149 31.9844L21.3638 34.4986L23.8623 32.0059L23.3376 35.1003L28.0847 36.6046L24.262 38.2807L25.5363 40.4297L22.2883 39.7205V42.9009L20.1895 41.0098L18.3906 42.9009Z" fill="#EF4423"/>
<path fill-rule="evenodd" clip-rule="evenodd" d="M5.62399 16.1933L6.77326 13.4426H4.72458L6.49847 12.3252L4 10.8424C4.89609 10.9273 5.79682 10.9703 6.69831 10.9714L5.54904 8.52161L8.04751 10.4341L10.0963 7.98438L9.59654 10.7565L11.8452 10.3912L10.1962 11.8095L12.2949 12.798L10.1462 12.9269L10.9207 14.5386L9.07189 13.7865L8.67212 15.9354L7.99756 13.9799L5.62399 16.1933Z" fill="#EF4423"/>
<path fill-rule="evenodd" clip-rule="evenodd" d="M19.2643 38.864L19.4142 39.9385L20.1637 39.036L20.9633 39.7021L21.0632 38.3913L22.8121 38.7781L21.9127 37.6606L23.5367 37.2953L21.8377 37.1879L21.6878 35.877L20.7634 36.4787L20.2387 35.5117L19.8889 36.8226L18.165 36.4787L18.9145 37.4887L17.7402 37.8111L19.0644 38.2409L18.5148 38.993L19.2643 38.864Z" fill="#F47521"/>
<path fill-rule="evenodd" clip-rule="evenodd" d="M26.8367 23.6253L23.7136 25.108L24.3632 21.7772L19.1914 21.9706L23.8885 19.4993L20.1158 16.3619L25.6375 17.5438L26.2871 13.7617L28.9354 16.7487L32.0585 14.8362L32.1335 17.0926L40.4284 17.4794L32.3583 21.111L33.6076 23.5823L30.5095 23.4963L29.5351 29.2125L26.8367 23.6253Z" fill="#F47521"/>
<path fill-rule="evenodd" clip-rule="evenodd" d="M27.4595 22.1224L28.9586 25.2598L29.4583 22.4232L31.7069 22.4662L30.7825 20.6396L35.8794 18.3188L30.9324 18.1039L30.9074 16.8575L28.6838 18.2113L27.0598 16.4062L26.66 18.856L24.2365 18.3403L25.8855 19.6941L23.8867 20.7256L25.8355 20.6611L25.3358 23.1109L27.4595 22.1224Z" fill="#FBC311"/>
<path fill-rule="evenodd" clip-rule="evenodd" d="M7.074 12.6705L7.72363 12.0258L6.82422 11.5101H7.62367V10.7579L8.29831 11.2737L8.94786 10.1562V11.2307H9.87235C9.62493 11.4758 9.35775 11.7056 9.07282 11.9184C9.12328 12.2658 9.19837 12.6103 9.29768 12.9499L8.4232 12.3911L7.77357 13.1862V12.3911L7.074 12.6705Z" fill="#F47521"/>
<path fill-rule="evenodd" clip-rule="evenodd" d="M90.297 73.2928C95.0191 73.916 98.7668 77.1179 100.891 81.6736L100.616 83.1779C98.5669 78.1924 94.6694 74.5822 89.6724 73.9805C87.1943 73.7928 84.702 74.1638 82.4413 75.0568C80.1806 75.9499 78.2295 77.3343 76.7803 79.0734C80.4531 74.9475 85.3751 72.6266 90.297 73.2928Z" fill="#005690"/>
<path fill-rule="evenodd" clip-rule="evenodd" d="M98.7938 93.2911C96.6701 88.7354 92.9224 85.5335 88.2252 84.9103C83.5281 84.2872 78.3563 86.565 74.6836 90.691C76.1328 88.9518 78.0839 87.5674 80.3446 86.6743C82.6053 85.7813 85.0975 85.4103 87.5756 85.598C92.5726 86.2641 96.4952 89.8958 98.5189 94.7954L96.1454 108.054L98.7938 93.2911Z" fill="#05172E"/>
<g style="mix-blend-mode:multiply">
<path fill-rule="evenodd" clip-rule="evenodd" d="M40.0788 83.5986C42.2941 83.4063 44.5304 83.6815 46.594 84.4005C48.6577 85.1194 50.4864 86.2604 51.9215 87.7245C50.5069 86.416 48.7548 85.4116 46.8063 84.792C44.8578 84.1724 42.7674 83.955 40.7034 84.1573C35.7065 84.8235 31.9088 88.4552 29.91 93.2902L29.6602 91.8934C30.4038 89.8489 31.7568 88.0074 33.5847 86.5522C35.4125 85.097 37.6514 84.0787 40.0788 83.5986Z" fill="#88126E"/>
</g>
<g style="mix-blend-mode:multiply">
<path fill-rule="evenodd" clip-rule="evenodd" d="M37.9553 71.978C42.9522 71.3118 47.7493 73.5897 51.422 77.7156C49.983 75.9791 48.0403 74.5971 45.7871 73.7073C43.5339 72.8175 41.049 72.4509 38.5799 72.6441C33.583 73.3318 29.7853 76.942 27.7865 81.7986L27.5117 80.2943C28.247 78.2399 29.5999 76.389 31.4337 74.9287C33.2676 73.4684 35.5173 72.4505 37.9553 71.978Z" fill="#B23694"/>
</g>
</g>
<defs>
<filter id="filter0_d_1185_11516" x="0" y="0.867188" width="130.076" height="123.793" filterUnits="userSpaceOnUse" color-interpolation-filters="sRGB">
<feFlood flood-opacity="0" result="BackgroundImageFix"/>
<feColorMatrix in="SourceAlpha" type="matrix" values="0 0 0 0 0 0 0 0 0 0 0 0 0 0 0 0 0 0 127 0" result="hardAlpha"/>
<feOffset dy="2"/>
<feGaussianBlur stdDeviation="2"/>
<feComposite in2="hardAlpha" operator="out"/>
<feColorMatrix type="matrix" values="0 0 0 0 0 0 0 0 0 0 0 0 0 0 0 0 0 0 0.25 0"/>
<feBlend mode="normal" in2="BackgroundImageFix" result="effect1_dropShadow_1185_11516"/>
<feBlend mode="normal" in="SourceGraphic" in2="effect1_dropShadow_1185_11516" result="shape"/>
</filter>
<linearGradient id="paint0_linear_1185_11516" x1="82.4024" y1="114.395" x2="83.0904" y2="109.185" gradientUnits="userSpaceOnUse">
<stop stop-color="#194177"/>
<stop offset="1" stop-color="#3C72B8"/>
</linearGradient>
<linearGradient id="paint1_linear_1185_11516" x1="93.0605" y1="54.652" x2="93.2277" y2="53.3338" gradientUnits="userSpaceOnUse">
<stop stop-color="#194177"/>
<stop offset="1" stop-color="#3C72B8"/>
</linearGradient>
<linearGradient id="paint2_linear_1185_11516" x1="28.934" y1="112.489" x2="60.6659" y2="106.643" gradientUnits="userSpaceOnUse">
<stop stop-color="#5B1A5F"/>
<stop offset="0.31" stop-color="#B31F88"/>
<stop offset="0.55" stop-color="#D34097"/>
<stop offset="1" stop-color="#691E77"/>
</linearGradient>
<linearGradient id="paint3_linear_1185_11516" x1="22.1327" y1="54.6178" x2="47.5494" y2="49.9519" gradientUnits="userSpaceOnUse">
<stop stop-color="#5B1A5F"/>
<stop offset="0.31" stop-color="#B31F88"/>
<stop offset="0.55" stop-color="#D34097"/>
<stop offset="1" stop-color="#691E77"/>
</linearGradient>
</defs>
</svg>
