<svg width="320" height="198" viewBox="0 0 320 198" fill="none" xmlns="http://www.w3.org/2000/svg">
<g clip-path="url(#clip0_9_5854)" filter="url(#filter0_d_9_5854)">
<path fill-rule="evenodd" clip-rule="evenodd" d="M156.043 126.042C156.043 126.3 155.871 126.558 155.814 126.787C155.705 126.628 155.619 126.454 155.556 126.271H155.384C155.521 126.484 155.645 126.704 155.757 126.931C155.841 127.184 155.908 127.443 155.957 127.705C155.957 128.02 156.273 128.307 156.387 128.651C156.387 128.88 156.387 129.224 156.387 129.453C156.387 129.74 156.559 129.94 156.617 130.227C156.617 130.571 156.617 130.886 156.617 131.202C156.617 131.374 156.617 131.574 156.617 131.746C156.617 132.004 156.617 132.291 156.617 132.549C156.617 132.807 156.617 133.036 156.617 133.294C156.617 133.495 156.445 133.753 156.416 133.954C156.43 134.154 156.43 134.355 156.416 134.555C156.416 134.785 156.215 134.985 156.158 135.215C156.158 135.473 156.015 135.731 155.9 136.017C155.9 136.189 155.585 136.476 155.47 136.648C155.327 136.906 155.327 137.049 155.184 137.307C155.012 137.537 154.754 137.709 154.553 137.938C154.381 138.11 154.295 138.368 154.094 138.568C153.951 138.712 153.693 138.827 153.521 138.999C153.292 139.199 153.148 139.428 152.919 139.629C152.653 139.818 152.375 139.99 152.088 140.145C151.744 140.403 151.514 140.718 151.171 140.976C150.97 141.12 150.683 141.177 150.483 141.32C150.225 141.464 150.024 141.693 149.766 141.865L149.021 142.352L148.361 142.926C148.093 143.071 147.835 143.234 147.587 143.413L146.67 143.986C146.298 144.273 145.982 144.645 145.61 144.932C145.38 145.133 145.122 145.247 144.893 145.448C144.635 145.677 144.463 145.935 144.234 146.165C143.973 146.349 143.724 146.55 143.488 146.767C143.288 146.967 143.173 147.254 142.972 147.483C142.8 147.713 142.514 147.913 142.342 148.143C142.196 148.409 142.071 148.687 141.969 148.974C141.755 149.238 141.572 149.527 141.425 149.834C141.397 150.158 141.397 150.484 141.425 150.808C141.28 151.132 141.165 151.468 141.081 151.812C140.981 152.381 140.981 152.962 141.081 153.531C141.132 153.97 141.228 154.402 141.367 154.821C141.53 155.19 141.721 155.544 141.94 155.882L143.746 155.108C143.69 154.923 143.602 154.749 143.488 154.592C143.488 154.449 143.345 154.277 143.288 154.105C143.288 153.847 143.288 153.445 143.087 153.13C143.074 152.997 143.074 152.862 143.087 152.729C143.087 152.471 143.087 152.041 143.087 151.697C143.087 151.697 143.087 151.468 143.087 151.353C143.087 151.038 143.374 150.952 143.517 150.292L143.66 150.034C143.909 149.642 144.187 149.268 144.492 148.916C144.841 148.431 145.224 147.972 145.638 147.54C146.03 147.184 146.442 146.849 146.871 146.537C147.215 146.251 147.444 145.964 147.817 145.677L148.677 145.133L149.365 144.559L150.196 144.043L150.827 143.527C151.085 143.355 151.342 143.241 151.572 143.069L152.145 142.61L152.89 142.123C153.151 141.938 153.4 141.737 153.636 141.521L154.352 141.034L154.897 140.489C155.126 140.26 155.442 140.088 155.671 139.83C155.9 139.6 156.043 139.342 156.244 139.113C156.579 138.784 156.877 138.418 157.133 138.024C157.362 137.623 157.448 137.279 157.649 136.877C157.828 136.561 157.991 136.236 158.136 135.903C158.279 135.444 158.308 135.157 158.423 134.699C158.562 134.105 158.658 133.501 158.709 132.893C158.738 132.444 158.738 131.994 158.709 131.546C158.709 131.23 158.709 130.915 158.709 130.6C158.709 130.256 158.537 129.912 158.48 129.568C158.423 128.905 158.259 128.257 157.993 127.647C157.763 127.017 157.534 126.501 157.247 125.727L157.047 125.383L156.043 126.042Z" fill="url(#paint0_linear_9_5854)"/>
<path fill-rule="evenodd" clip-rule="evenodd" d="M155.47 126.3C155.667 126.617 155.831 126.953 155.957 127.303C155.957 127.705 156.531 128.651 156.531 128.88C156.531 129.081 156.531 129.797 156.76 130.084C156.856 130.547 156.913 131.016 156.932 131.488C156.932 131.947 156.932 131.861 156.932 132.119C156.932 132.406 156.932 132.635 156.932 133.208C156.913 133.541 156.846 133.87 156.731 134.183C156.731 134.556 156.559 134.986 156.531 135.1C156.429 135.424 156.305 135.74 156.158 136.046C156.009 136.406 155.826 136.752 155.613 137.078L155.212 137.623C155.059 137.848 154.887 138.059 154.696 138.253L154.008 138.97C153.825 139.123 153.633 139.267 153.435 139.4C153.239 139.644 153.007 139.856 152.747 140.031C152.36 140.274 151.995 140.553 151.658 140.862C151.242 141.161 150.812 141.438 150.368 141.693C150.024 141.951 149.106 142.582 148.82 142.868C148.533 143.126 147.731 143.556 147.186 143.958C146.613 144.33 145.839 145.076 145.294 145.448C144.721 145.821 144.749 146.107 144.319 146.394C143.979 146.612 143.694 146.906 143.488 147.254C143.309 147.544 143.086 147.805 142.829 148.028C142.598 148.236 142.43 148.504 142.342 148.802C142.185 149.137 141.993 149.454 141.768 149.748C141.671 149.965 141.612 150.198 141.596 150.436C141.544 150.8 141.447 151.156 141.31 151.496C141.157 151.991 141.157 152.521 141.31 153.016C141.31 153.532 141.482 153.876 141.539 154.22C141.588 154.597 141.695 154.964 141.854 155.309L142.198 155.939L142.915 155.624C142.729 155.313 142.594 154.974 142.514 154.621C142.42 154.105 142.285 153.597 142.112 153.102C141.958 152.725 141.958 152.303 142.112 151.926C142.292 151.508 142.399 151.062 142.428 150.608C142.447 150.233 142.599 149.877 142.858 149.605C143.133 149.211 143.382 148.799 143.603 148.372C143.95 147.866 144.387 147.429 144.893 147.082C146.154 146.279 145.466 146.05 146.441 145.534C147.387 145.076 146.899 144.961 147.673 144.703C148.447 144.474 148.161 143.671 149.25 143.413C150.368 143.126 150.081 142.553 151.17 141.98C152.26 141.406 152.575 140.776 153.521 140.489C154.495 140.174 153.951 139.515 154.667 139.257C154.936 139.151 155.166 138.964 155.325 138.723C155.484 138.482 155.564 138.198 155.556 137.909C155.556 137.594 156.416 137.135 156.473 136.648C156.507 136.471 156.598 136.31 156.731 136.19C156.943 135.924 157.081 135.608 157.133 135.272C157.305 134.154 157.448 134.24 157.362 133.581C157.344 133.201 157.403 132.821 157.534 132.463C157.649 132.07 157.649 131.652 157.534 131.259C157.408 130.492 157.226 129.735 156.989 128.995C156.559 128.106 156.989 127.733 156.588 127.303C156.421 127.132 156.294 126.927 156.215 126.702L155.929 126.1L155.47 126.3Z" fill="url(#paint1_linear_9_5854)"/>
<path fill-rule="evenodd" clip-rule="evenodd" d="M157.018 125.44C157.134 125.697 157.195 125.975 157.195 126.257C157.195 126.539 157.134 126.817 157.018 127.074C156.821 127.454 156.648 127.847 156.502 128.249C156.168 127.481 156.107 126.621 156.33 125.813H156.129C156.129 126.071 155.957 126.329 155.9 126.558C155.791 126.399 155.705 126.225 155.642 126.042H155.47C155.607 126.255 155.731 126.475 155.843 126.701C155.927 126.955 155.994 127.213 156.043 127.475C156.043 127.791 156.359 128.077 156.473 128.421C156.473 128.651 156.473 128.995 156.473 129.224C156.473 129.511 156.645 129.711 156.703 129.998C156.703 130.342 156.703 130.657 156.703 130.972C156.703 131.144 156.703 131.345 156.703 131.517C156.703 131.775 156.703 132.062 156.703 132.32C156.703 132.578 156.703 132.807 156.703 133.065C156.703 133.266 156.531 133.524 156.502 133.724C156.516 133.925 156.516 134.126 156.502 134.326C156.502 134.556 156.301 134.756 156.244 134.985C156.244 135.243 156.101 135.501 155.986 135.788C155.986 135.96 155.671 136.247 155.556 136.419C155.413 136.677 155.413 136.82 155.27 137.078C155.098 137.307 154.84 137.479 154.639 137.709C154.467 137.881 154.381 138.139 154.18 138.339C154.037 138.483 153.779 138.597 153.607 138.769C153.378 138.97 153.234 139.199 153.005 139.4C152.739 139.588 152.461 139.761 152.174 139.916C151.83 140.174 151.6 140.489 151.256 140.747C151.056 140.89 150.769 140.948 150.568 141.091C150.31 141.234 150.11 141.464 149.852 141.636L149.107 142.123L148.447 142.696C148.179 142.842 147.921 143.005 147.673 143.184L146.756 143.757C146.383 144.044 146.068 144.416 145.696 144.703C145.466 144.903 145.208 145.018 144.979 145.219C144.721 145.448 144.549 145.706 144.32 145.935C144.059 146.12 143.81 146.321 143.574 146.537C143.374 146.738 143.259 147.025 143.058 147.254C142.886 147.483 142.6 147.684 142.428 147.913C142.282 148.18 142.157 148.458 142.055 148.745C141.841 149.009 141.658 149.298 141.51 149.604C141.483 149.929 141.483 150.255 141.51 150.579C141.366 150.902 141.251 151.238 141.166 151.582C141.067 152.151 141.067 152.733 141.166 153.302C141.218 153.741 141.314 154.173 141.453 154.592C141.616 154.96 141.807 155.315 142.026 155.653C141.809 155.332 141.677 154.961 141.642 154.575C141.607 154.189 141.67 153.8 141.826 153.446C142.055 152.99 142.401 152.604 142.829 152.328C142.957 152.948 142.877 153.593 142.6 154.162C142.336 154.625 142.151 155.129 142.055 155.653L142.342 155.509C142.387 154.896 142.628 154.313 143.03 153.847C143.236 154.227 143.353 154.648 143.374 155.079L143.746 154.936C143.689 154.751 143.602 154.577 143.488 154.42C143.488 154.277 143.345 154.105 143.288 153.933C143.288 153.675 143.288 153.274 143.087 152.958C143.074 152.825 143.074 152.69 143.087 152.557C143.087 152.299 143.087 151.869 143.087 151.525C143.087 151.525 143.087 151.296 143.087 151.181C143.087 150.866 143.374 150.78 143.517 150.12L143.66 149.862C143.909 149.47 144.187 149.096 144.492 148.745C144.841 148.259 145.224 147.8 145.638 147.369C146.03 147.012 146.442 146.677 146.871 146.365C147.215 146.079 147.444 145.792 147.817 145.505L148.677 144.961L149.365 144.387L150.196 143.872L150.826 143.356C151.084 143.184 151.342 143.069 151.572 142.897L152.145 142.438L152.89 141.951C153.151 141.766 153.4 141.565 153.636 141.349L154.352 140.862L154.897 140.317C155.126 140.088 155.442 139.916 155.671 139.658C155.9 139.429 156.043 139.171 156.244 138.941C156.579 138.612 156.877 138.246 157.133 137.852C157.362 137.451 157.448 137.107 157.649 136.705C157.828 136.389 157.991 136.064 158.136 135.731C158.279 135.272 158.308 134.986 158.423 134.527C158.562 133.933 158.658 133.329 158.709 132.721C158.738 132.272 158.738 131.822 158.709 131.374C158.709 131.058 158.709 130.743 158.709 130.428C158.709 130.084 158.537 129.74 158.48 129.396C158.423 128.734 158.259 128.085 157.993 127.475C157.763 126.845 157.534 126.329 157.247 125.555L157.047 125.211H156.875L157.018 125.44ZM156.817 127.877C157.032 127.347 157.205 126.8 157.333 126.243C157.582 126.535 157.746 126.89 157.807 127.269C157.868 127.649 157.823 128.037 157.677 128.393C157.419 128.937 157.018 129.367 156.817 129.883C156.599 129.232 156.599 128.528 156.817 127.877ZM157.276 129.511C157.505 128.966 157.821 128.507 158.05 128.02C158.247 128.355 158.35 128.736 158.35 129.124C158.35 129.512 158.247 129.893 158.05 130.227C157.706 130.743 157.247 131.058 157.047 131.431C156.942 130.779 157.032 130.111 157.305 129.511H157.276ZM157.505 131.144C157.876 130.733 158.185 130.269 158.423 129.769C158.588 130.108 158.654 130.487 158.613 130.862C158.573 131.237 158.427 131.594 158.193 131.89C157.821 132.377 157.276 132.664 156.961 133.065C156.932 132.383 157.122 131.71 157.505 131.144ZM157.505 132.836C157.919 132.483 158.285 132.079 158.595 131.632C158.731 131.982 158.755 132.367 158.663 132.732C158.57 133.097 158.366 133.424 158.079 133.667C157.62 134.068 157.047 134.298 156.674 134.642C156.76 133.969 157.051 133.339 157.505 132.836ZM158.652 133.495C158.668 133.889 158.578 134.281 158.392 134.629C158.205 134.977 157.929 135.268 157.591 135.473C157.075 135.759 156.531 135.817 156.129 136.075C156.368 135.435 156.774 134.87 157.305 134.441C157.735 134.097 158.222 133.868 158.652 133.495ZM158.279 135.358C158.224 135.746 158.064 136.11 157.816 136.413C157.569 136.717 157.243 136.946 156.875 137.078C156.301 137.279 155.757 137.279 155.327 137.422C155.701 136.831 156.212 136.339 156.817 135.989C157.333 135.731 157.849 135.559 158.279 135.358ZM157.62 137.021C157.499 137.391 157.281 137.722 156.988 137.979C156.696 138.236 156.34 138.41 155.957 138.483C155.384 138.483 154.868 138.483 154.295 138.626C154.739 138.091 155.325 137.694 155.986 137.479C156.531 137.279 157.075 137.221 157.62 137.021ZM156.645 138.597C156.453 138.948 156.172 139.241 155.829 139.448C155.487 139.654 155.096 139.766 154.696 139.773H153.98C153.686 139.716 153.384 139.716 153.091 139.773C153.6 139.273 154.251 138.943 154.954 138.827C155.527 138.827 156.072 138.827 156.645 138.683V138.597ZM154.524 139.916C154.811 139.916 155.126 139.916 155.441 139.916C155.222 140.218 154.933 140.462 154.598 140.627C154.264 140.791 153.894 140.872 153.521 140.862C152.89 140.862 152.346 140.661 151.744 140.718C152.128 140.373 152.586 140.121 153.083 139.982C153.58 139.842 154.103 139.82 154.61 139.916H154.524ZM154.094 141.091C153.759 141.453 153.328 141.713 152.851 141.84C152.374 141.966 151.871 141.955 151.4 141.808C151.048 141.753 150.691 141.753 150.339 141.808C151.944 140.604 152.919 141.148 154.094 141.206V141.091ZM152.747 142.123C152.394 142.467 151.954 142.708 151.474 142.819C150.993 142.93 150.492 142.908 150.024 142.754C149.671 142.727 149.316 142.727 148.963 142.754C150.597 141.578 151.543 142.209 152.747 142.238V142.123ZM151.314 143.126C150.966 143.46 150.536 143.695 150.067 143.806C149.598 143.917 149.108 143.9 148.648 143.757C148.277 143.7 147.901 143.7 147.53 143.757C149.164 142.496 150.139 143.126 151.314 143.212V143.126ZM149.881 144.13C149.536 144.44 149.121 144.662 148.672 144.777C148.222 144.892 147.752 144.896 147.301 144.789C146.911 144.732 146.515 144.732 146.125 144.789C147.702 143.47 148.734 144.072 149.881 144.187V144.13ZM146.67 144.932C146.994 144.888 147.321 144.888 147.645 144.932C147.921 144.96 148.2 144.96 148.476 144.932C148.271 145.22 147.993 145.449 147.671 145.595C147.348 145.741 146.993 145.799 146.641 145.763C146.037 145.635 145.412 145.635 144.807 145.763C145.013 145.455 145.289 145.201 145.613 145.021C145.937 144.842 146.3 144.742 146.67 144.732V144.932ZM143.574 147.025C144.054 146.441 144.744 146.07 145.495 145.993C146.048 145.949 146.604 145.949 147.157 145.993C146.938 146.288 146.646 146.52 146.309 146.666C145.971 146.812 145.602 146.866 145.237 146.824H144.721C144.377 146.824 144.033 146.996 143.775 146.996C143.743 147.009 143.709 147.016 143.675 147.016C143.64 147.016 143.606 147.009 143.574 146.996V147.025ZM142.428 148.515C142.625 148.177 142.89 147.883 143.206 147.652C143.521 147.42 143.881 147.255 144.262 147.168C144.796 147.109 145.334 147.109 145.867 147.168C145.094 148.2 144.377 148.085 143.488 148.286C143.144 148.286 142.772 148.515 142.542 148.515H142.428ZM144.721 148.257C144.599 148.571 144.401 148.85 144.147 149.069C143.892 149.289 143.587 149.443 143.259 149.518C142.648 149.615 142.085 149.907 141.654 150.35C141.686 149.96 141.831 149.587 142.07 149.277C142.309 148.967 142.632 148.732 143.001 148.601C143.564 148.44 144.139 148.325 144.721 148.257ZM143.804 149.576C143.697 150.034 143.433 150.439 143.058 150.722C142.772 150.923 142.399 151.066 142.084 151.324C141.711 151.582 141.51 152.098 141.224 152.098C141.208 151.7 141.298 151.305 141.485 150.953C141.671 150.6 141.947 150.303 142.284 150.092C142.765 149.852 143.276 149.678 143.804 149.576ZM143.144 150.894C143.15 151.536 142.903 152.154 142.456 152.614C141.989 153.011 141.675 153.559 141.568 154.162C141.382 153.81 141.302 153.411 141.338 153.015C141.373 152.618 141.523 152.24 141.768 151.926C142.163 151.504 142.629 151.155 143.144 150.894Z" fill="url(#paint2_linear_9_5854)"/>
<path fill-rule="evenodd" clip-rule="evenodd" d="M140.965 126.932C140.965 126.932 142.427 132.952 155.01 135.216C167.594 137.452 170.461 132.35 170.461 132.35L174.216 105.978L143.889 100.561L140.965 126.932Z" fill="url(#paint3_linear_9_5854)"/>
<path fill-rule="evenodd" clip-rule="evenodd" d="M140.965 126.932C140.965 126.932 142.484 132.35 155.068 134.614C167.652 136.879 170.518 132.235 170.518 132.235L180.579 68.1125L147.873 62.2363L140.965 126.932Z" fill="url(#paint4_linear_9_5854)"/>
<path fill-rule="evenodd" clip-rule="evenodd" d="M165.674 134.814L164.355 135.043L174.015 66.8789L175.248 67.1082L165.674 134.814Z" fill="white"/>
<path fill-rule="evenodd" clip-rule="evenodd" d="M140.965 126.932C140.965 126.932 142.484 132.349 155.068 134.614C156.128 134.815 157.103 134.958 157.934 135.044C143.029 116.182 149.708 72.9849 150.682 62.723L147.816 62.207L140.965 126.932Z" fill="url(#paint5_linear_9_5854)"/>
<path fill-rule="evenodd" clip-rule="evenodd" d="M147.787 63.0675C158.737 71.4376 175.993 77.1705 179.003 78.1451L180.494 68.5424H180.15L177.283 67.5965L147.787 62.3223V63.1822V63.0675ZM145.638 83.1327L146.67 73.3868C157.963 81.7568 175.563 87.5471 177.427 88.149L175.907 97.723C171.894 96.4044 156.1 90.9581 145.638 83.1327ZM143.488 103.198C152.589 109.205 162.463 113.949 172.84 117.301L174.331 107.698C163.799 104.271 153.773 99.4509 144.52 93.366L143.488 103.141V103.198ZM141.338 123.263L142.37 113.517C151.37 119.348 161.08 124.001 171.264 127.362L170.518 132.178C169.743 133.046 168.8 133.748 167.745 134.24C166.691 134.733 165.547 135.007 164.384 135.044C156.263 132.067 148.526 128.131 141.338 123.321V123.263Z" fill="url(#paint6_linear_9_5854)"/>
<path fill-rule="evenodd" clip-rule="evenodd" d="M147.817 62.7223C158.795 71.0924 176.08 76.854 179.061 77.7999L180.552 68.1973H180.208L179.577 67.9966L147.874 62.2637V62.7797L147.817 62.7223ZM145.667 82.7875L146.727 73.0129C157.993 81.4116 175.679 87.3452 177.485 87.8038L175.965 97.3778C171.981 96.0879 156.129 90.613 145.667 82.7875ZM143.517 102.853C152.625 108.874 162.509 113.628 172.898 116.984L174.389 107.382C163.854 103.963 153.827 99.1419 144.578 93.0495L143.517 102.824V102.853ZM141.367 122.918L142.428 113.172C151.418 119.02 161.131 123.674 171.322 127.017L170.519 132.177C169.83 132.966 168.992 133.61 168.052 134.073C167.112 134.536 166.09 134.807 165.044 134.871C156.704 131.869 148.754 127.875 141.367 122.975V122.918Z" fill="url(#paint7_linear_9_5854)"/>
<path fill-rule="evenodd" clip-rule="evenodd" d="M147.817 62.723C148.705 63.3823 149.623 64.0415 150.683 64.6721C150.683 63.9269 150.826 63.2676 150.884 62.723L148.017 62.207V62.723H147.817ZM146.097 78.8325L145.667 82.8169C146.641 83.5622 147.673 84.2501 148.734 84.938C148.935 81.3836 149.193 78.0013 149.479 74.9628C148.533 74.3609 147.616 73.7015 146.613 73.0422L145.982 78.7752L146.097 78.8325ZM143.517 102.911C145.208 104.143 147.043 105.319 148.935 106.437C148.619 102.882 148.476 99.2704 148.447 95.7447C147.11 94.9229 145.82 94.0629 144.578 93.1648L143.517 102.911ZM141.367 122.976C145.755 126.008 150.408 128.637 155.27 130.83C153.189 126.881 151.655 122.667 150.712 118.304C147.843 116.795 145.075 115.1 142.428 113.23L141.367 122.976Z" fill="url(#paint8_linear_9_5854)"/>
<path fill-rule="evenodd" clip-rule="evenodd" d="M167.797 73.6144C170.09 74.589 172.211 75.3916 174.017 76.0508L175.278 67.1075L168.886 65.9609L167.797 73.6144ZM164.93 93.307C167.195 94.2529 169.345 95.0842 171.122 95.7435L172.498 86.1122C170.749 85.4529 168.628 84.6216 166.306 83.6756L164.93 93.307ZM162.064 112.971C164.357 113.945 166.478 114.777 168.284 115.436L169.66 105.805C167.883 105.145 165.761 104.314 163.468 103.34L162.064 112.971ZM159.197 132.635C161.261 133.523 163.21 134.269 164.93 134.928H165.475L166.822 125.612C165.016 124.953 162.895 124.121 160.602 123.147L159.197 132.635Z" fill="url(#paint9_linear_9_5854)"/>
<path fill-rule="evenodd" clip-rule="evenodd" d="M172.783 75.5929L174.016 76.0515L175.277 67.1082L174.016 66.8789L172.783 75.4783V75.5929ZM169.917 95.2855L171.092 95.7442L172.468 86.1128L171.264 85.6542L169.917 95.2855ZM167.05 115.007L168.197 115.437L169.573 105.805L168.397 105.375L167.05 115.007ZM164.184 134.699L164.814 134.929H165.359L166.706 125.613L165.56 125.183L164.184 134.699Z" fill="url(#paint10_linear_9_5854)"/>
<path fill-rule="evenodd" clip-rule="evenodd" d="M165.474 186.668L180.638 77.3412C180.953 75.0767 180.265 73.0415 179.09 72.8409C177.915 72.6402 176.711 74.2742 176.395 76.5673L161.117 186.668H165.474Z" fill="white"/>
<path fill-rule="evenodd" clip-rule="evenodd" d="M165.216 188.504L180.638 77.3138C180.953 75.0493 180.265 73.0142 179.09 72.8135C177.915 72.6129 176.711 74.2467 176.395 76.5399L161.117 186.641L165.216 188.504Z" fill="white"/>
<path fill-rule="evenodd" clip-rule="evenodd" d="M179.09 72.8414C179.222 72.8637 179.349 72.9125 179.463 72.9848C178.402 73.1281 177.427 74.676 177.141 76.7112L161.891 186.669H161.117L176.395 76.7112C176.711 74.2747 178.001 72.6121 179.09 72.8414Z" fill="#D0CDCD"/>
<path fill-rule="evenodd" clip-rule="evenodd" d="M165.273 188.073L161.374 184.748V185.665L160.83 189.564C160.75 190.13 160.898 190.705 161.242 191.162C161.586 191.619 162.098 191.92 162.664 192C163.231 192.08 163.806 191.932 164.262 191.588C164.719 191.244 165.021 190.732 165.101 190.166L165.273 188.073Z" fill="url(#paint11_linear_9_5854)"/>
<path fill-rule="evenodd" clip-rule="evenodd" d="M163.982 191.684L164.556 187.471L165.272 188.073L164.957 190.251C164.906 190.546 164.793 190.826 164.625 191.073C164.457 191.321 164.238 191.529 163.982 191.684Z" fill="#D0CDCD"/>
<path fill-rule="evenodd" clip-rule="evenodd" d="M176.395 76.7118L175.85 80.6389L179.749 83.964L180.465 78.6324L176.681 75.4219C176.553 75.8439 176.457 76.2751 176.395 76.7118ZM174.331 91.6174L178.229 94.9139L178.946 89.6109L175.134 86.1425L174.417 91.4741L174.331 91.6174ZM172.812 102.567L176.71 105.892L177.455 100.561L173.528 97.2357L172.812 102.567ZM171.292 113.517L175.134 116.842L175.879 111.511L171.952 108.186L171.235 113.517H171.292ZM169.745 124.496L173.643 127.792L174.388 122.461L170.49 119.164L169.745 124.496ZM168.225 135.446L172.152 138.742L172.869 133.439L168.971 130.114L168.225 135.446ZM166.735 146.395L170.633 149.721L171.35 144.389L167.451 141.064L166.735 146.395ZM165.216 157.345L169.085 160.67L169.831 155.339L165.932 152.014L165.216 157.345ZM163.668 168.324L167.566 171.62L168.311 166.289L164.413 162.992L163.668 168.324ZM162.148 179.274L166.047 182.57L166.792 177.267L162.894 173.942L162.148 179.274Z" fill="url(#paint12_linear_9_5854)"/>
<path fill-rule="evenodd" clip-rule="evenodd" d="M179.09 72.8414C179.222 72.8637 179.349 72.9125 179.463 72.9848C178.402 73.1281 177.427 74.676 177.141 76.7112L161.891 186.669H161.117L176.395 76.7112C176.711 74.2747 178.001 72.6121 179.09 72.8414Z" fill="#D0CDCD"/>
<path fill-rule="evenodd" clip-rule="evenodd" d="M162.062 185.35L161.374 184.748V185.665L160.829 189.564C160.786 189.871 160.81 190.183 160.899 190.48C160.988 190.777 161.141 191.051 161.345 191.284L162.062 185.35Z" fill="#51100D"/>
<path fill-rule="evenodd" clip-rule="evenodd" d="M166.793 177.038L166.105 176.407L165.359 181.739L166.047 182.341L166.793 177.038ZM177.456 100.331L176.739 99.7292L175.994 105.061L176.711 105.663L177.456 100.331ZM175.908 111.281L175.22 110.679L174.475 116.011L175.191 116.613L175.908 111.281ZM179.778 77.8008L179.032 83.1324L179.749 83.7344L180.466 78.4027L179.778 77.8008ZM178.946 89.2666L178.258 88.6647L177.513 93.9676L178.23 94.5696L178.946 89.2666ZM168.312 165.944L167.624 165.343L166.879 170.674L167.567 171.276L168.312 165.944ZM171.35 144.045L170.662 143.443L169.917 148.774L170.605 149.376L171.35 144.045ZM169.831 154.995L169.143 154.393L168.398 159.724L169.086 160.326L169.831 154.995ZM174.389 122.116L173.701 121.514L172.956 126.846L173.643 127.448L174.389 122.116ZM172.87 133.095L172.182 132.493L171.436 137.796L172.153 138.398L172.87 133.095Z" fill="#C51F25"/>
<path fill-rule="evenodd" clip-rule="evenodd" d="M169.029 26.1186L143.402 67.0229C145.552 68.6855 150.798 71.1506 163.726 73.4725C176.051 75.6796 181.383 75.2497 183.791 74.4471L170.72 26.4052C170.72 26.4052 170.433 25.0866 170.118 25.0293C169.802 25.0293 169.143 26.1472 169.143 26.1472L169.029 26.1186Z" fill="url(#paint13_linear_9_5854)"/>
<path fill-rule="evenodd" clip-rule="evenodd" d="M170.031 25.1152C169.888 25.1152 169.802 25.5739 169.802 25.9465L165.244 73.8451C169.114 74.5044 172.267 74.9056 174.818 75.0776L170.404 25.7172V25.5452L170.031 25.1152Z" fill="url(#paint14_linear_9_5854)"/>
<path fill-rule="evenodd" clip-rule="evenodd" d="M170.033 25.114L173.071 74.9044H173.759H174.762L170.405 25.6586C170.405 25.3147 170.147 24.9994 170.004 24.9707L170.033 25.114Z" fill="url(#paint15_linear_9_5854)"/>
<path fill-rule="evenodd" clip-rule="evenodd" d="M169.831 25.1152L144.205 66.0196C145.959 67.2619 147.892 68.2285 149.938 68.8861L169.889 25.1152H169.831Z" fill="url(#paint16_linear_9_5854)"/>
<path fill-rule="evenodd" clip-rule="evenodd" d="M142.887 66.5933C142.887 66.5933 143.173 66.8512 143.403 66.9946C145.753 68.6571 151.171 71.0363 163.697 73.2721C175.593 75.422 181.039 75.1354 183.562 74.3901C183.906 74.3901 184.221 74.2467 184.25 74.1034C184.25 73.9028 183.533 73.5301 183.333 73.5588C176.821 74.2827 170.235 73.9244 163.841 72.4982C151.887 70.3484 146.327 67.9692 143.775 66.3066H143.317C143.087 66.3066 142.858 66.3066 142.801 66.6506L142.887 66.5933Z" fill="url(#paint17_linear_9_5854)"/>
<path fill-rule="evenodd" clip-rule="evenodd" d="M142.428 70.0036C142.428 70.0036 140.766 73.7873 163.181 77.8004C183.419 81.4408 183.762 78.345 183.762 78.345L184.307 74.1313C182.129 75.0199 176.854 75.5358 163.783 73.1853C150.082 70.7202 144.893 68.1118 142.915 66.4492L142.428 70.0036Z" fill="url(#paint18_linear_9_5854)"/>
<path fill-rule="evenodd" clip-rule="evenodd" d="M164.729 78.0584C168.713 78.7464 171.895 79.1476 174.389 79.377L174.99 74.7046C172.411 74.504 169.258 74.1026 165.302 73.4434L164.729 78.0584Z" fill="url(#paint19_linear_9_5854)"/>
<path fill-rule="evenodd" clip-rule="evenodd" d="M172.555 79.2055L174.389 79.3775L174.991 74.7052L173.185 74.5332L172.555 79.2055Z" fill="url(#paint20_linear_9_5854)"/>
<path fill-rule="evenodd" clip-rule="evenodd" d="M142.427 70.0036C142.427 70.0036 141.653 71.7808 148.447 74.2173L149.077 69.545C146.86 68.8765 144.775 67.8291 142.914 66.4492L142.427 70.0036Z" fill="url(#paint21_linear_9_5854)"/>
<path fill-rule="evenodd" clip-rule="evenodd" d="M126.404 146.109L124.656 146.854C124.061 147.06 123.508 147.371 123.022 147.771L122.162 148.259C121.92 148.444 121.69 148.645 121.474 148.861C121.073 149.205 120.872 149.319 120.5 149.692C120.106 150.115 119.742 150.565 119.41 151.039C119.156 151.342 118.916 151.658 118.694 151.985C118.694 152.243 118.436 152.673 118.321 152.931C118.117 153.272 117.935 153.627 117.776 153.992C117.663 154.406 117.577 154.827 117.518 155.253C117.518 155.539 117.375 155.797 117.346 156.084C117.346 156.399 117.346 156.715 117.346 157.001C117.346 157.259 117.346 157.489 117.346 157.718C117.318 157.975 117.318 158.235 117.346 158.492C117.346 158.779 117.346 159.065 117.346 159.352C117.346 159.61 117.346 159.896 117.346 160.154C117.346 160.384 117.346 160.613 117.346 160.814C117.361 161.072 117.361 161.33 117.346 161.588C117.346 161.846 117.346 162.075 117.346 162.333C117.346 162.62 117.346 162.906 117.346 163.193C117.346 163.451 117.346 163.738 117.346 163.996C117.346 164.311 117.346 164.597 117.346 164.913C117.346 165.343 117.346 165.687 117.346 166.088C117.346 166.547 117.346 167.063 117.346 167.521C117.276 168.074 117.161 168.621 117.002 169.155C116.938 169.585 116.833 170.007 116.687 170.416V170.646C116.343 171.162 116.401 171.391 116.2 171.62L115.971 171.85C115.713 172.05 115.483 172.394 115.311 172.538L114.996 172.767C114.709 172.91 114.423 173.14 114.165 173.254L113.735 173.455L113.219 173.598L113.706 175.261C114.069 175.205 114.425 175.109 114.767 174.974C115.142 174.803 115.497 174.591 115.827 174.343C116.305 174.064 116.739 173.716 117.117 173.312C117.316 173.042 117.489 172.754 117.633 172.452C117.849 172.236 118.05 172.006 118.235 171.764C118.407 171.448 118.407 171.133 118.55 170.846C118.689 170.6 118.804 170.341 118.894 170.072C118.908 169.796 118.908 169.518 118.894 169.241C118.984 168.987 119.06 168.729 119.124 168.467C119.124 168.152 119.124 167.865 119.124 167.579C119.139 167.283 119.139 166.986 119.124 166.69C119.137 166.423 119.137 166.155 119.124 165.887C119.124 165.486 119.124 165.027 119.124 164.597C119.124 164.282 119.124 163.967 119.124 163.652C119.124 163.365 119.124 163.107 119.124 162.82C119.124 162.591 119.124 162.276 119.124 162.046C119.138 161.779 119.138 161.511 119.124 161.244C119.109 160.976 119.109 160.708 119.124 160.441C119.124 160.212 119.124 159.983 118.952 159.782C118.952 159.381 118.952 159.037 118.952 158.635C118.952 158.377 118.952 158.062 118.952 157.775C118.938 157.518 118.938 157.259 118.952 157.001C118.937 156.772 118.937 156.542 118.952 156.313C118.952 156.084 119.095 155.855 119.124 155.625C119.124 155.367 119.124 155.081 119.124 154.823C119.124 154.565 119.324 154.479 119.439 154.192C119.439 154.192 119.439 153.705 119.64 153.533C119.64 153.275 119.926 153.103 120.07 152.845C120.07 152.673 120.242 152.444 120.356 152.272C120.356 152.1 120.643 152.014 120.758 151.842C120.901 151.842 120.987 151.469 121.13 151.297C121.274 151.125 121.474 151.01 121.646 150.838C121.818 150.666 121.99 150.437 122.162 150.294C122.299 150.189 122.442 150.093 122.592 150.007C122.828 149.791 123.077 149.59 123.337 149.405C123.558 149.273 123.788 149.159 124.025 149.061L124.627 148.631C124.927 148.509 125.233 148.404 125.545 148.316C125.774 148.316 125.974 148.029 126.204 147.943L126.863 147.771V147.628H126.376C126.513 147.436 126.637 147.234 126.748 147.026L126.519 145.908L126.404 146.109Z" fill="url(#paint22_linear_9_5854)"/>
<path fill-rule="evenodd" clip-rule="evenodd" d="M126.404 147.341C126.201 147.416 125.989 147.464 125.773 147.484C125.257 147.484 125.2 148 124.34 148.287C123.686 148.608 123.054 148.972 122.448 149.376C122.106 149.555 121.819 149.822 121.617 150.15C121.434 150.47 121.19 150.753 120.9 150.981C120.384 151.354 120.527 151.382 119.868 152.214C119.649 152.455 119.5 152.753 119.438 153.074C119.409 153.24 119.34 153.397 119.238 153.532C118.951 153.847 119.238 154.679 118.865 154.908C118.665 155.082 118.519 155.309 118.443 155.563C118.367 155.816 118.364 156.086 118.435 156.341C118.664 156.972 117.89 157.029 118.206 157.861C118.55 158.663 118.206 159.294 118.492 160.354C118.722 161.415 118.12 161.616 118.492 162.504C118.951 163.393 118.177 163.708 118.492 164.367C118.779 165.027 118.492 164.769 118.492 165.715C118.693 166.661 118.148 166.345 118.292 167.692C118.341 168.245 118.273 168.802 118.091 169.326C117.943 169.798 117.819 170.276 117.718 170.76C117.664 171.105 117.504 171.426 117.26 171.677C116.971 171.99 116.721 172.336 116.514 172.709C116.113 173.311 115.884 173.397 115.683 173.483C115.234 173.685 114.802 173.925 114.393 174.199C114.1 174.374 113.781 174.5 113.447 174.572L113.648 175.231L114.279 175.059C114.62 174.932 114.947 174.769 115.253 174.572L116.199 173.941C116.632 173.713 116.99 173.365 117.231 172.938C117.389 172.622 117.581 172.324 117.804 172.05C117.966 171.901 118.102 171.727 118.206 171.534C118.284 171.197 118.4 170.87 118.55 170.559C118.708 170.31 118.797 170.023 118.808 169.728C118.833 169.414 118.901 169.106 119.008 168.81C119.074 168.45 119.074 168.081 119.008 167.721C119.008 167.263 119.18 167.091 119.008 166.489C119.008 165.887 119.008 164.941 119.008 164.31C118.921 163.731 118.863 163.147 118.836 162.562C118.836 162.189 118.836 161.186 118.836 160.813C118.757 160.358 118.709 159.898 118.693 159.437C118.72 159.017 118.72 158.596 118.693 158.176C118.655 157.9 118.655 157.62 118.693 157.345C118.67 157.125 118.67 156.904 118.693 156.685C118.693 156.513 118.693 156.141 118.693 155.797C118.718 155.544 118.766 155.295 118.836 155.051L119.008 154.449C119.119 154.106 119.253 153.771 119.41 153.446L119.868 152.615L120.413 151.87C120.576 151.601 120.768 151.351 120.986 151.124C121.24 150.901 121.479 150.661 121.703 150.408C121.875 150.207 121.846 150.408 122.19 150.035C122.524 149.743 122.879 149.475 123.251 149.232C123.602 149.062 123.938 148.86 124.254 148.631C124.426 148.631 125.343 148.172 125.687 148C125.997 147.852 126.324 147.746 126.662 147.685V147.111L126.404 147.341Z" fill="url(#paint23_linear_9_5854)"/>
<path fill-rule="evenodd" clip-rule="evenodd" d="M126.404 146.108L124.656 146.853C124.061 147.059 123.508 147.369 123.022 147.77L122.162 148.257C121.92 148.443 121.69 148.644 121.474 148.859C121.073 149.203 120.872 149.318 120.5 149.691C120.106 150.114 119.742 150.564 119.41 151.038C119.156 151.341 118.916 151.657 118.694 151.984C118.694 152.242 118.436 152.672 118.321 152.93C118.117 153.271 117.935 153.626 117.776 153.99C117.663 154.405 117.577 154.826 117.518 155.252C117.518 155.538 117.375 155.796 117.346 156.083C117.346 156.398 117.346 156.714 117.346 157C117.346 157.258 117.346 157.487 117.346 157.717C117.318 157.974 117.318 158.234 117.346 158.491C117.346 158.777 117.346 159.064 117.346 159.351C117.346 159.609 117.346 159.895 117.346 160.153C117.346 160.383 117.346 160.612 117.346 160.813C117.361 161.07 117.361 161.329 117.346 161.586C117.346 161.844 117.346 162.074 117.346 162.332C117.346 162.618 117.346 162.905 117.346 163.192C117.346 163.45 117.346 163.736 117.346 163.994C117.346 164.31 117.346 164.596 117.346 164.912C117.346 165.342 117.346 165.686 117.346 166.087C117.346 166.545 117.346 167.061 117.346 167.52C117.276 168.073 117.161 168.619 117.002 169.154C116.938 169.584 116.833 170.006 116.687 170.415V170.644C116.343 171.16 116.401 171.39 116.2 171.619L115.971 171.848C115.713 172.049 115.483 172.393 115.311 172.536L114.996 172.766C114.709 172.909 114.423 173.138 114.165 173.253L113.735 173.454L113.219 173.597V173.941C113.523 173.671 113.886 173.474 114.279 173.368C114.165 173.941 113.886 174.469 113.477 174.887V175.174C113.778 174.771 114.019 174.327 114.193 173.855C114.449 173.309 114.87 172.858 115.397 172.565C115.422 173.028 115.333 173.491 115.139 173.912C114.976 174.238 114.742 174.523 114.454 174.746C114.167 174.969 113.833 175.125 113.477 175.202C113.84 175.147 114.196 175.051 114.537 174.916C114.913 174.744 115.268 174.533 115.598 174.285C116.075 174.005 116.51 173.657 116.888 173.253C117.087 172.983 117.26 172.696 117.404 172.393C117.619 172.177 117.821 171.947 118.006 171.705C118.178 171.39 118.178 171.074 118.321 170.788C118.459 170.541 118.575 170.282 118.665 170.014C118.679 169.737 118.679 169.46 118.665 169.183C118.755 168.929 118.831 168.67 118.894 168.409C118.894 168.093 118.894 167.807 118.894 167.52C118.91 167.224 118.91 166.927 118.894 166.631C118.908 166.364 118.908 166.096 118.894 165.829C118.894 165.428 118.894 164.969 118.894 164.539C118.894 164.224 118.894 163.908 118.894 163.593C118.894 163.306 118.894 163.048 118.894 162.762C118.894 162.532 118.894 162.217 118.894 161.988C118.909 161.72 118.909 161.453 118.894 161.185C118.88 160.918 118.88 160.65 118.894 160.383C118.894 160.153 118.894 159.924 118.722 159.723C118.722 159.322 118.722 158.978 118.722 158.577C118.722 158.319 118.722 158.003 118.722 157.717C118.709 157.459 118.709 157.201 118.722 156.943C118.708 156.714 118.708 156.484 118.722 156.255C118.722 156.026 118.866 155.796 118.894 155.567C118.894 155.309 118.894 155.022 118.894 154.764C118.894 154.506 119.095 154.42 119.21 154.134C119.21 154.134 119.21 153.646 119.41 153.474C119.41 153.216 119.697 153.044 119.84 152.786C119.84 152.614 120.012 152.385 120.127 152.213C120.127 152.041 120.414 151.955 120.528 151.783C120.672 151.783 120.758 151.411 120.901 151.239C121.044 151.067 121.245 150.952 121.417 150.78C121.589 150.608 121.761 150.379 121.933 150.235C122.069 150.13 122.213 150.034 122.363 149.949C122.598 149.732 122.847 149.531 123.108 149.347C123.328 149.215 123.558 149.1 123.796 149.003L124.398 148.573C124.698 148.451 125.004 148.345 125.315 148.257C125.545 148.257 125.745 147.971 125.975 147.885L126.634 147.713V147.57H126.147C126.283 147.377 126.408 147.176 126.519 146.968V146.767C126.082 147.422 125.451 147.924 124.713 148.2C124.907 147.848 125.08 147.484 125.229 147.111C125.463 146.628 125.859 146.243 126.347 146.022V145.85H125.975L126.404 146.108ZM124.369 147.655C124.525 147.338 124.76 147.066 125.051 146.865C125.342 146.664 125.68 146.542 126.032 146.509C125.721 146.947 125.444 147.406 125.201 147.885C124.868 148.435 124.379 148.874 123.796 149.146C124.025 148.716 124.111 148.143 124.369 147.655ZM122.879 148.601C122.992 148.254 123.19 147.941 123.455 147.691C123.721 147.44 124.045 147.261 124.398 147.168C124.169 147.627 124.054 148.114 123.796 148.63C123.531 149.192 123.114 149.669 122.592 150.006C122.66 149.533 122.756 149.064 122.879 148.601ZM121.589 149.519C121.664 149.173 121.832 148.855 122.074 148.597C122.316 148.339 122.624 148.153 122.965 148.057C122.748 148.512 122.593 148.994 122.506 149.49C122.303 150.111 121.937 150.665 121.446 151.095C121.446 150.608 121.446 150.092 121.446 149.519H121.589ZM120.385 150.751C120.409 150.397 120.528 150.055 120.73 149.763C120.932 149.47 121.209 149.237 121.532 149.089C121.415 149.579 121.339 150.077 121.302 150.579C121.204 151.209 120.925 151.796 120.5 152.27C120.5 151.812 120.5 151.296 120.5 150.751H120.385ZM119.41 152.213C119.362 151.849 119.408 151.479 119.544 151.138C119.679 150.797 119.9 150.496 120.184 150.264C120.184 150.78 120.184 151.239 120.184 151.726C120.172 152.359 120.005 152.979 119.697 153.532C119.697 153.13 119.382 152.729 119.296 152.213H119.41ZM118.665 153.704C118.554 153.354 118.538 152.982 118.618 152.624C118.699 152.266 118.873 151.936 119.124 151.669C119.124 152.07 119.382 152.528 119.468 153.044C119.587 153.669 119.527 154.315 119.296 154.908C119.296 154.535 118.866 154.191 118.665 153.704ZM118.178 155.166C118.017 154.85 117.945 154.496 117.971 154.142C117.996 153.789 118.117 153.449 118.321 153.159C118.321 153.646 118.722 154.048 118.894 154.506C119.114 155.102 119.174 155.744 119.066 156.37C118.796 155.95 118.499 155.548 118.178 155.166ZM118.006 156.8C117.789 156.518 117.651 156.184 117.605 155.831C117.56 155.479 117.609 155.12 117.748 154.793C118.006 155.252 118.321 155.567 118.579 155.997C118.896 156.543 119.036 157.174 118.98 157.803C118.78 157.43 118.35 157.201 118.006 156.8ZM118.006 158.29C117.785 158.034 117.63 157.728 117.555 157.398C117.48 157.068 117.487 156.725 117.576 156.398C118.178 157.258 119.095 157.545 119.124 159.265C118.772 158.889 118.399 158.535 118.006 158.204V158.29ZM117.518 158.061C118.206 158.777 119.152 159.064 119.21 160.927C118.608 160.096 117.346 159.924 117.518 158.061ZM117.518 159.58C118.235 160.325 119.21 160.555 119.296 162.446C118.665 161.615 117.404 161.472 117.518 159.58ZM117.518 161.156C118.235 161.844 119.21 162.102 119.296 164.023C118.665 163.134 117.432 163.048 117.518 161.156ZM117.518 162.733C118.235 163.392 119.238 163.679 119.21 165.6C118.665 164.711 117.404 164.568 117.518 162.733ZM118.092 165.915C117.873 165.693 117.718 165.416 117.643 165.113C117.567 164.811 117.574 164.494 117.662 164.195C117.948 164.568 118.407 164.883 118.751 165.313C118.962 165.569 119.103 165.875 119.158 166.202C119.213 166.529 119.182 166.865 119.066 167.176C118.923 166.631 118.464 166.316 118.092 165.915ZM118.436 167.864C118.006 167.262 117.404 167.004 117.662 165.743C118.017 166.065 118.353 166.41 118.665 166.775C118.855 167.053 118.986 167.366 119.05 167.696C119.114 168.027 119.11 168.367 119.038 168.695C118.78 168.695 118.694 168.208 118.436 167.864ZM118.178 169.527C117.805 168.839 117.318 168.437 117.604 167.262C117.945 167.584 118.252 167.939 118.522 168.323C118.674 168.64 118.753 168.988 118.753 169.34C118.753 169.693 118.674 170.04 118.522 170.358C118.35 170.358 118.235 169.871 118.063 169.527H118.178ZM117.461 170.444C117.325 170.173 117.254 169.873 117.254 169.57C117.254 169.266 117.325 168.967 117.461 168.695C117.755 169.118 118.005 169.569 118.206 170.043C118.322 170.382 118.341 170.748 118.26 171.097C118.179 171.447 118.001 171.767 117.748 172.02C117.807 171.475 117.697 170.924 117.432 170.444H117.461ZM116.859 172.364C116.859 171.992 116.859 171.676 116.859 171.332C116.849 170.91 116.98 170.496 117.232 170.157C117.484 170.561 117.659 171.008 117.748 171.476C117.773 171.84 117.713 172.206 117.574 172.544C117.435 172.882 117.22 173.184 116.945 173.425C116.745 173.253 116.945 172.794 116.945 172.364H116.859ZM115.741 172.938C115.807 172.348 116.094 171.805 116.544 171.418C116.647 171.929 116.647 172.456 116.544 172.966C116.464 173.333 116.285 173.671 116.028 173.943C115.77 174.216 115.443 174.413 115.082 174.514C115.45 174.069 115.661 173.515 115.684 172.938H115.741Z" fill="url(#paint24_linear_9_5854)"/>
<path fill-rule="evenodd" clip-rule="evenodd" d="M105.622 151.955C105.622 151.955 108.488 156.398 119.954 153.646C131.42 150.894 132.452 145.706 132.452 145.706L128.124 122.373L100.605 129.023L105.622 151.955Z" fill="#142916"/>
<path fill-rule="evenodd" clip-rule="evenodd" d="M93.0391 95.5158L105.623 151.956C105.623 151.956 108.489 155.883 119.955 153.132C131.421 150.265 132.51 145.478 132.51 145.478L122.822 88.3496L93.0391 95.5158Z" fill="url(#paint25_linear_9_5854)"/>
<path fill-rule="evenodd" clip-rule="evenodd" d="M129.07 149.404C128.729 149.643 128.375 149.863 128.009 150.063L116.83 89.8673L117.948 89.6094L129.07 149.404Z" fill="white"/>
<path fill-rule="evenodd" clip-rule="evenodd" d="M93.0391 95.5154L105.623 151.956C105.623 151.956 108.489 155.883 119.955 153.131C120.901 152.902 121.79 152.673 122.621 152.415C104.448 142.181 97.8261 103.685 95.7335 94.8848L93.0391 95.5154Z" fill="url(#paint26_linear_9_5854)"/>
<path fill-rule="evenodd" clip-rule="evenodd" d="M122.535 88.8067L119.869 89.0647L93.0391 95.5142L93.211 96.2881C105.021 99.1546 121.446 97.6354 124.312 97.3201L122.85 88.7207L122.535 88.8067ZM97.1094 113.802C107.062 115.574 117.218 115.902 127.265 114.777L125.831 106.177C124.054 106.378 107.285 108.041 95.2176 105.232L97.1094 113.831V113.802ZM101.008 131.316C110.665 132.967 120.502 133.285 130.246 132.262L128.784 123.663C118.898 124.693 108.919 124.385 99.116 122.746L101.008 131.345V131.316ZM104.906 148.802C112.537 150.158 120.305 150.582 128.039 150.063C131.966 147.741 132.482 145.477 132.482 145.477L131.765 141.177C122.213 142.14 112.577 141.851 103.1 140.317L104.906 148.802Z" fill="url(#paint27_linear_9_5854)"/>
<path fill-rule="evenodd" clip-rule="evenodd" d="M122.478 88.5216H121.876L93.0391 95.4585V95.9171C104.849 98.7836 121.302 97.2643 124.14 96.949L122.678 88.3496H122.363L122.478 88.5216ZM97.0521 113.488C107.015 115.251 117.178 115.589 127.236 114.492L125.774 105.892C124.054 106.064 107.228 107.727 95.1602 104.918L97.0521 113.517V113.488ZM100.951 131.003C110.606 132.667 120.446 132.985 130.188 131.948L128.755 123.349C118.861 124.395 108.87 124.086 99.0586 122.432L100.951 131.031V131.003ZM104.849 148.517C112.682 149.881 120.652 150.285 128.583 149.721C132.023 147.542 132.482 145.478 132.482 145.478L131.708 140.863C122.157 141.841 112.518 141.552 103.043 140.003L104.849 148.517Z" fill="url(#paint28_linear_9_5854)"/>
<path fill-rule="evenodd" clip-rule="evenodd" d="M93.0392 95.5154V95.974C93.9947 96.2034 94.9501 96.404 95.9056 96.576C95.9056 95.9453 95.619 95.3721 95.533 94.8848L92.8672 95.5154H93.0392ZM96.2783 110.02L97.0522 113.488C98.1128 113.746 99.1734 113.947 100.291 114.147C99.4314 111.08 98.6861 108.185 98.0841 105.548C97.0809 105.376 96.1063 105.204 95.2177 104.975L96.3356 110.02H96.2783ZM100.951 131.002C102.844 131.416 104.758 131.731 106.684 131.948C105.394 129.082 104.247 126.215 103.215 123.349C101.839 123.148 100.349 122.89 99.1447 122.603L101.037 131.203L100.951 131.002ZM104.849 148.516C109.516 149.418 114.256 149.888 119.009 149.921C116.072 147.407 113.547 144.447 111.528 141.149C108.638 140.965 105.765 140.582 102.928 140.003L104.849 148.516Z" fill="url(#paint29_linear_9_5854)"/>
<path fill-rule="evenodd" clip-rule="evenodd" d="M112.072 91.0432L117.805 89.6387L119.267 97.5214C117.547 97.5214 115.483 97.7507 113.219 97.7794L112.072 91.0432ZM118.149 124.122C120.414 124.122 122.478 123.979 124.197 123.864L125.774 132.464C124.025 132.464 121.962 132.664 119.726 132.693L118.149 124.093V124.122ZM114.939 106.579C117.232 106.579 119.267 106.436 120.987 106.321L122.564 114.921C120.815 114.921 118.751 115.121 116.515 115.15L114.939 106.551V106.579ZM121.36 141.407C123.624 141.407 125.688 141.407 127.408 141.206L128.927 149.433L128.497 149.72C126.835 149.72 124.971 149.892 122.936 149.92L121.36 141.407Z" fill="#88C540"/>
<path fill-rule="evenodd" clip-rule="evenodd" d="M116.83 89.7814L117.977 89.5234L119.439 97.4062H118.235L116.83 89.6954V89.7814ZM123.136 123.835H124.283L125.859 132.434H124.741L123.136 123.835ZM126.375 141.263H127.493L129.013 149.518L128.583 149.805H127.952L126.375 141.206V141.263ZM119.897 106.378H121.072L122.649 114.978H121.474L119.897 106.378Z" fill="#C7E096"/>
<path fill-rule="evenodd" clip-rule="evenodd" d="M142.6 186.668L125.402 96.0594C125.029 94.0529 123.854 92.6197 122.793 92.8777C121.733 93.1357 121.159 94.9702 121.532 96.9767L138.473 186.668H142.6Z" fill="white"/>
<path fill-rule="evenodd" clip-rule="evenodd" d="M142.6 186.668L125.402 96.0594C125.029 94.0529 123.854 92.6197 122.793 92.8777C121.733 93.1357 121.159 94.9702 121.532 96.9767L138.473 186.668H142.6Z" fill="white"/>
<path fill-rule="evenodd" clip-rule="evenodd" d="M122.878 92.877H123.222C122.726 93.3918 122.379 94.0315 122.217 94.7281C122.056 95.4246 122.086 96.1519 122.305 96.8326L139.274 186.696H138.558L121.617 97.0046C121.244 94.9694 121.789 93.1063 122.878 92.877Z" fill="#D0CDCD"/>
<path fill-rule="evenodd" clip-rule="evenodd" d="M141.855 186.668L124.8 96.2314C124.456 94.4255 123.481 93.107 122.535 93.021L122.879 92.8777C123.94 92.6197 125.115 94.0529 125.488 96.0594L142.686 186.668H141.855Z" fill="#D0CDCD"/>
<path fill-rule="evenodd" clip-rule="evenodd" d="M121.616 96.9774L122.275 100.446L126.575 101.764L125.687 97.0634L121.501 95.7734C121.46 96.1737 121.46 96.5771 121.501 96.9774H121.616ZM142.599 186.669L142.771 187.615C142.818 187.871 142.814 188.134 142.759 188.388C142.705 188.643 142.601 188.884 142.453 189.098C142.305 189.312 142.117 189.495 141.898 189.637C141.68 189.778 141.436 189.875 141.18 189.922C140.924 189.969 140.661 189.966 140.407 189.911C140.152 189.857 139.911 189.753 139.697 189.605C139.482 189.457 139.299 189.269 139.158 189.05C139.016 188.832 138.919 188.587 138.872 188.331L138.557 186.669L137.869 182.771L142.169 184.118L142.627 186.583L142.599 186.669ZM124.11 110.134L128.41 111.453L127.521 106.752L123.221 105.433L124.11 110.134ZM125.944 119.823L130.216 121.142L129.327 116.441L125.056 115.122L125.944 119.823ZM127.75 129.483L132.05 130.83L131.161 126.101L126.862 124.782L127.75 129.483ZM129.585 139.172L133.885 140.49L132.996 135.789L128.696 134.471L129.585 139.172ZM131.419 148.86L135.719 150.179L134.831 145.478L130.531 144.159L131.419 148.86ZM133.254 158.549L137.525 159.868L136.636 155.138L132.365 153.819L133.254 158.549ZM135.06 168.209L139.36 169.528L138.471 164.826L134.171 163.508L135.06 168.209ZM136.894 177.898L141.194 179.216L140.305 174.515L136.006 173.197L136.894 177.898Z" fill="url(#paint30_linear_9_5854)"/>
<path fill-rule="evenodd" clip-rule="evenodd" d="M122.878 92.877H123.222C122.726 93.3918 122.379 94.0315 122.217 94.7281C122.056 95.4246 122.086 96.1519 122.305 96.8326L139.246 186.696H138.558L121.617 97.0046C121.244 94.9694 121.789 93.1063 122.878 92.877Z" fill="#D0CDCD"/>
<path fill-rule="evenodd" clip-rule="evenodd" d="M137.869 182.77L138.643 183.085L139.876 189.678C139.629 189.536 139.417 189.342 139.254 189.109C139.09 188.876 138.98 188.61 138.93 188.33L137.869 182.77Z" fill="#51100D"/>
<path fill-rule="evenodd" clip-rule="evenodd" d="M142.312 189.277L141.338 183.945L142.14 184.203V184.49L142.771 187.901C142.791 188.149 142.76 188.399 142.681 188.635C142.602 188.872 142.477 189.09 142.312 189.277Z" fill="#C51F25"/>
<path fill-rule="evenodd" clip-rule="evenodd" d="M101.438 56.416C101.151 56.416 100.893 57.6772 100.893 57.6772L90.5742 101.19C92.8961 101.763 98.113 101.878 109.894 99.0689C121.073 96.3457 125.545 94.0526 127.294 92.5047L102.355 57.3332C102.355 57.3332 101.753 56.416 101.467 56.416H101.438Z" fill="url(#paint31_linear_9_5854)"/>
<path fill-rule="evenodd" clip-rule="evenodd" d="M101.437 56.416C101.293 56.416 101.437 56.846 101.437 57.1899L111.24 98.7249C114.766 97.8363 117.575 97.0051 119.839 96.2311L101.924 56.6453V56.502L101.437 56.416Z" fill="url(#paint32_linear_9_5854)"/>
<path fill-rule="evenodd" clip-rule="evenodd" d="M101.437 56.4446L118.234 96.7757L118.865 96.5751L119.754 96.2598L101.924 56.846C101.752 56.6453 101.552 56.416 101.408 56.416L101.437 56.4446Z" fill="url(#paint33_linear_9_5854)"/>
<path fill-rule="evenodd" clip-rule="evenodd" d="M101.265 56.6454L90.9453 100.158C92.8326 100.533 94.767 100.611 96.6782 100.388L101.609 55.4414L101.265 56.6454Z" fill="url(#paint34_linear_9_5854)"/>
<path fill-rule="evenodd" clip-rule="evenodd" d="M126.776 91.8738C121.454 94.852 115.699 96.9797 109.72 98.18C98.8564 100.817 93.4102 100.874 90.773 100.416C90.773 100.416 89.9417 100.416 90.0277 101.018C90.0277 101.018 90.343 101.018 90.5724 101.018C93.0662 101.534 98.3978 101.505 109.778 98.782C120.613 96.1735 125.199 93.909 127.148 92.3611C127.435 92.2178 127.664 92.0172 127.636 91.8738C127.636 91.8738 127.292 91.7305 127.034 91.7305H126.718L126.776 91.8738Z" fill="url(#paint35_linear_9_5854)"/>
<path fill-rule="evenodd" clip-rule="evenodd" d="M109.836 98.8117C97.3668 101.678 92.1498 101.678 90 100.876L90.602 104.029C90.602 104.029 90.258 107.784 110.667 102.882C129.07 98.4391 128.497 95.7447 128.497 95.7447L127.751 91.9609C126.146 93.4802 121.76 95.9453 109.865 98.8117H109.836Z" fill="url(#paint36_linear_9_5854)"/>
<path fill-rule="evenodd" clip-rule="evenodd" d="M111.24 98.4665L112.071 102.508C115.712 101.591 118.521 100.76 120.671 100.014L119.868 95.8867C117.604 96.6893 114.766 97.5492 111.269 98.4378L111.24 98.4665Z" fill="url(#paint37_linear_9_5854)"/>
<path fill-rule="evenodd" clip-rule="evenodd" d="M118.291 96.4607L119.094 100.56L120.699 100.044L119.896 95.916L118.291 96.4607Z" fill="url(#paint38_linear_9_5854)"/>
<path fill-rule="evenodd" clip-rule="evenodd" d="M90.602 104.028C90.602 104.028 90.43 105.805 96.9655 105.318L96.1629 101.19C94.1066 101.463 92.0177 101.357 90 100.875L90.602 104.028Z" fill="url(#paint39_linear_9_5854)"/>
<path fill-rule="evenodd" clip-rule="evenodd" d="M181.412 157.402C181.412 157.574 181.269 157.775 181.24 157.947C181.254 158.185 181.254 158.425 181.24 158.663C181.176 158.84 181.099 159.013 181.011 159.179C181.027 159.36 181.027 159.543 181.011 159.724C181.011 159.953 180.782 160.125 180.696 160.326C180.696 160.326 180.696 160.584 180.696 160.698C180.566 160.839 180.451 160.993 180.352 161.157C180.352 161.3 180.18 161.444 180.065 161.587C180.065 161.587 179.807 161.788 179.721 161.902C179.721 161.902 179.578 162.16 179.463 162.246C179.336 162.351 179.202 162.447 179.062 162.533C178.89 162.533 178.775 162.82 178.603 162.934L178.144 163.135C177.944 163.135 177.886 163.336 177.714 163.422C177.508 163.483 177.297 163.531 177.084 163.565C176.929 163.649 176.766 163.716 176.596 163.766C176.425 163.78 176.252 163.78 176.081 163.766L175.507 163.909H174.819L173.959 164.052H172.153H171.58H171.265C171.151 164.038 171.035 164.038 170.921 164.052H170.176L169.172 164.196H168.57C168.347 164.236 168.126 164.293 167.911 164.367H167.223C167.022 164.429 166.829 164.516 166.65 164.626C166.446 164.66 166.245 164.708 166.048 164.769C165.86 164.873 165.678 164.988 165.503 165.113C165.303 165.113 165.073 165.285 164.844 165.428C164.672 165.571 164.586 165.801 164.414 165.944C164.271 166.116 163.984 166.231 163.841 166.431C163.605 166.759 163.413 167.115 163.267 167.492C163.133 167.777 163.027 168.075 162.952 168.381C162.938 168.658 162.938 168.935 162.952 169.212L164.328 169.412C164.342 169.279 164.342 169.145 164.328 169.011V168.667C164.328 168.467 164.5 168.209 164.557 168.008L164.701 167.75C164.701 167.578 164.987 167.377 165.131 167.148V166.976C165.131 166.804 165.475 166.833 165.79 166.489H165.962C166.255 166.335 166.562 166.21 166.879 166.116C167.27 165.953 167.672 165.819 168.083 165.715C168.398 165.715 168.828 165.715 169.172 165.715L170.061 165.571H170.778H171.408H172.067H172.669H173.271H173.787H174.389H175.077H175.679H176.195C176.434 165.585 176.673 165.585 176.912 165.571L177.514 165.342C177.829 165.267 178.136 165.162 178.431 165.027C178.701 164.888 178.952 164.715 179.176 164.511C179.408 164.409 179.629 164.284 179.836 164.138C180.094 163.909 180.208 163.737 180.438 163.508C180.747 163.213 181.034 162.897 181.297 162.562C181.498 162.218 181.584 162.074 181.756 161.73C181.756 161.53 182.014 161.386 182.129 161.157C182.129 160.956 182.129 160.698 182.358 160.469C182.569 160.045 182.714 159.59 182.788 159.122C182.788 158.692 182.788 158.291 183.046 157.717V156.972H182.129L181.727 157.345C181.712 157.211 181.712 157.077 181.727 156.943H181.584C181.598 157.115 181.598 157.288 181.584 157.459L181.412 157.402Z" fill="url(#paint40_linear_9_5854)"/>
<path fill-rule="evenodd" clip-rule="evenodd" d="M181.411 157.631C181.411 157.946 181.239 158.663 181.181 158.806C181.054 159.065 180.949 159.333 180.866 159.609C180.753 159.919 180.609 160.217 180.436 160.497C180.436 160.784 180.436 160.755 180.235 160.899C180.081 161.101 179.938 161.312 179.805 161.529C179.658 161.706 179.495 161.869 179.318 162.017L178.859 162.504L178.286 162.934L177.57 163.335L177.14 163.536L176.595 163.708C176.366 163.724 176.136 163.724 175.907 163.708C175.746 163.742 175.58 163.742 175.42 163.708C175.211 163.738 174.998 163.738 174.789 163.708C174.465 163.671 174.138 163.671 173.814 163.708H172.725H171.378C171.12 163.708 170.461 163.708 170.002 163.708C169.515 163.708 168.798 163.88 168.311 163.909C167.852 163.909 167.766 164.081 167.394 164.109C167.113 164.103 166.836 164.173 166.591 164.31C166.371 164.412 166.14 164.489 165.903 164.539C165.689 164.56 165.487 164.65 165.33 164.797C165.111 164.939 164.881 165.064 164.642 165.17C164.498 165.17 164.413 165.37 164.298 165.514C164.114 165.705 163.913 165.877 163.696 166.03C163.428 166.274 163.221 166.579 163.094 166.918C163.002 167.181 162.897 167.44 162.779 167.692C162.676 167.94 162.608 168.2 162.578 168.466C162.565 168.638 162.565 168.81 162.578 168.982H163.123C163.091 168.725 163.091 168.465 163.123 168.208C163.257 167.871 163.372 167.527 163.467 167.176C163.467 167.004 163.467 166.832 163.925 166.488C164.168 166.293 164.389 166.071 164.585 165.829C164.729 165.602 164.954 165.438 165.215 165.37C165.568 165.25 165.913 165.106 166.247 164.94C166.635 164.765 167.054 164.667 167.48 164.654C168.54 164.654 168.196 164.253 168.97 164.31C169.159 164.348 169.354 164.348 169.543 164.31C169.543 164.31 169.715 164.31 170.002 164.31C170.107 164.332 170.215 164.331 170.319 164.307C170.424 164.282 170.521 164.234 170.604 164.167C170.735 164.107 170.876 164.076 171.02 164.076C171.163 164.076 171.305 164.107 171.435 164.167C171.729 164.288 172.059 164.288 172.353 164.167C172.605 164.094 172.874 164.094 173.127 164.167C173.421 164.213 173.721 164.213 174.015 164.167C174.366 164.11 174.724 164.11 175.076 164.167C175.184 164.205 175.3 164.212 175.412 164.187C175.524 164.161 175.626 164.105 175.706 164.023C175.85 164.023 175.964 163.794 176.194 163.851C176.392 163.901 176.602 163.883 176.789 163.8C176.976 163.716 177.129 163.573 177.226 163.393C177.369 163.192 178.028 163.249 178.229 162.991C178.312 162.895 178.422 162.826 178.544 162.791C178.784 162.727 178.995 162.586 179.146 162.389C179.662 161.816 179.719 161.902 179.92 161.472C180.048 161.238 180.224 161.033 180.436 160.87C180.648 160.687 180.807 160.449 180.895 160.182C181.092 159.675 181.265 159.159 181.411 158.634C181.411 157.918 181.841 157.832 181.783 157.459C181.769 157.297 181.769 157.134 181.783 156.972V156.484H181.353C181.386 156.732 181.386 156.982 181.353 157.23L181.411 157.631Z" fill="url(#paint41_linear_9_5854)"/>
<path fill-rule="evenodd" clip-rule="evenodd" d="M181.412 157.403C181.412 157.575 181.269 157.775 181.24 157.947C181.254 158.186 181.254 158.425 181.24 158.664C181.176 158.841 181.099 159.013 181.011 159.18C181.027 159.361 181.027 159.543 181.011 159.724C181.011 159.954 180.782 160.126 180.696 160.327C180.696 160.327 180.696 160.584 180.696 160.699C180.566 160.84 180.451 160.994 180.352 161.158C180.352 161.301 180.18 161.444 180.065 161.588C180.065 161.588 179.807 161.788 179.721 161.903C179.721 161.903 179.578 162.161 179.463 162.247C179.336 162.352 179.202 162.448 179.062 162.534C178.89 162.534 178.775 162.82 178.603 162.935L178.144 163.136C177.944 163.136 177.886 163.336 177.714 163.422C177.508 163.484 177.297 163.531 177.084 163.566C176.929 163.649 176.766 163.717 176.596 163.766C176.425 163.78 176.252 163.78 176.081 163.766L175.507 163.91H174.819L173.959 164.053H172.153H171.58H171.265C171.151 164.038 171.035 164.038 170.921 164.053H170.176L169.172 164.196H168.57C168.347 164.237 168.126 164.294 167.911 164.368H167.223C167.022 164.43 166.829 164.517 166.65 164.626C166.446 164.66 166.245 164.708 166.048 164.769C165.86 164.874 165.678 164.989 165.503 165.113C165.303 165.113 165.073 165.285 164.844 165.429C164.672 165.572 164.586 165.801 164.414 165.945C164.271 166.117 163.984 166.231 163.841 166.432C163.605 166.76 163.413 167.116 163.267 167.493C163.133 167.777 163.027 168.075 162.952 168.381C162.938 168.658 162.938 168.936 162.952 169.212C162.95 168.945 163.011 168.681 163.131 168.442C163.25 168.203 163.425 167.995 163.64 167.837C163.951 167.643 164.306 167.534 164.672 167.521C164.525 167.944 164.243 168.307 163.869 168.553C163.542 168.728 163.243 168.95 162.981 169.212H163.21C163.452 168.847 163.819 168.582 164.242 168.467C164.202 168.766 164.115 169.056 163.984 169.327H164.271C164.285 169.194 164.285 169.059 164.271 168.926V168.582C164.271 168.381 164.443 168.123 164.5 167.923L164.643 167.665C164.643 167.493 164.93 167.292 165.073 167.063V166.891C165.073 166.719 165.417 166.747 165.733 166.403H165.905C166.198 166.25 166.505 166.125 166.822 166.031C167.213 165.867 167.615 165.733 168.026 165.629C168.341 165.629 168.771 165.629 169.115 165.629L170.004 165.486H170.72H171.351H172.01H172.612H173.214H173.73H174.332H175.02H175.622H176.138C176.377 165.5 176.616 165.5 176.854 165.486L177.456 165.257C177.772 165.182 178.079 165.076 178.374 164.941C178.644 164.803 178.894 164.63 179.119 164.426C179.35 164.323 179.571 164.198 179.778 164.053C180.036 163.824 180.151 163.652 180.38 163.422C180.689 163.128 180.977 162.812 181.24 162.476C181.441 162.132 181.527 161.989 181.699 161.645C181.699 161.444 181.957 161.301 182.071 161.072C182.071 160.871 182.071 160.613 182.301 160.384C182.512 159.959 182.657 159.505 182.731 159.037C182.731 158.607 182.731 158.205 182.989 157.632V156.973H182.845C182.807 157.167 182.729 157.352 182.615 157.515C182.502 157.678 182.356 157.815 182.186 157.919C181.927 158.064 181.678 158.227 181.441 158.406C181.522 157.829 181.806 157.3 182.243 156.915H182.071L181.67 157.288C181.655 157.155 181.655 157.02 181.67 156.887H181.527C181.541 157.058 181.541 157.231 181.527 157.403H181.412ZM181.67 158.377C182.001 158.151 182.308 157.892 182.587 157.603C182.62 157.87 182.582 158.14 182.476 158.387C182.37 158.634 182.201 158.848 181.985 159.008C181.641 159.237 181.24 159.352 180.925 159.581C181.036 159.11 181.298 158.687 181.67 158.377ZM182.358 158.922C182.35 159.192 182.268 159.455 182.121 159.682C181.975 159.909 181.769 160.092 181.527 160.212C181.125 160.412 180.724 160.441 180.466 160.584C180.643 160.155 180.942 159.786 181.326 159.524L182.358 158.922ZM181.928 160.097C181.906 160.364 181.808 160.62 181.645 160.833C181.483 161.047 181.263 161.209 181.011 161.301C180.61 161.444 180.18 161.301 179.836 161.53C180.066 161.11 180.429 160.778 180.868 160.584C181.243 160.476 181.601 160.311 181.928 160.097ZM181.355 161.272C181.3 161.535 181.166 161.774 180.971 161.958C180.777 162.143 180.53 162.263 180.266 162.304H179.062C179.371 161.939 179.779 161.67 180.237 161.53C180.623 161.479 180.999 161.373 181.355 161.215V161.272ZM180.667 162.419C180.535 162.659 180.34 162.859 180.102 162.995C179.864 163.132 179.594 163.2 179.32 163.193C178.89 163.193 178.546 163.021 178.23 163.021C178.6 162.72 179.047 162.531 179.52 162.476C179.922 162.476 180.294 162.476 180.667 162.476V162.419ZM178.288 163.881C177.886 163.881 177.571 163.594 177.256 163.537C177.69 163.314 178.173 163.205 178.66 163.222L179.778 163.365C179.631 163.532 179.45 163.667 179.248 163.761C179.046 163.855 178.826 163.905 178.603 163.91H178.288V163.881ZM177.227 164.397C176.889 164.187 176.534 164.005 176.167 163.852C176.646 163.726 177.149 163.726 177.628 163.852C178.001 163.852 178.374 164.11 178.775 164.168C178.48 164.399 178.118 164.53 177.743 164.54C177.573 164.573 177.398 164.573 177.227 164.54V164.397ZM176.023 164.683C175.651 164.454 175.393 164.168 175.077 164.024C175.569 163.944 176.073 163.994 176.539 164.168C176.912 164.311 177.227 164.569 177.6 164.712C177.35 164.837 177.076 164.905 176.797 164.913C176.523 164.906 176.256 164.827 176.023 164.683ZM174.905 164.884C174.533 164.655 174.275 164.34 173.902 164.139C175.278 163.996 175.651 164.655 176.396 165.056C176.186 165.079 175.975 165.079 175.765 165.056C175.454 165.063 175.15 164.961 174.905 164.769V164.884ZM172.698 164.225C174.103 164.225 174.475 164.798 175.163 165.257H174.647C173.673 165.257 173.329 164.483 172.698 164.168V164.225ZM171.523 164.225C172.927 164.225 173.271 164.827 173.959 165.314H173.501C172.497 165.314 172.182 164.54 171.523 164.196V164.225ZM170.29 164.225C171.723 164.225 172.096 164.827 172.727 165.314H172.268C171.236 165.314 170.921 164.54 170.233 164.196L170.29 164.225ZM169.058 164.225C170.491 164.024 170.892 164.77 171.523 165.257H171.093C170.09 165.257 169.774 164.483 169.058 164.168V164.225ZM169.058 165.113C168.729 164.818 168.337 164.602 167.911 164.483C168.14 164.36 168.396 164.296 168.656 164.296C168.916 164.296 169.172 164.36 169.402 164.483C169.803 164.683 170.118 165.027 170.434 165.199C170.254 165.234 170.069 165.234 169.889 165.199C169.59 165.188 169.3 165.088 169.058 164.913V165.113ZM167.481 165.113C167.195 164.97 166.822 164.941 166.765 164.741C167.251 164.542 167.797 164.542 168.284 164.741C168.625 164.947 168.95 165.177 169.258 165.429C169.069 165.465 168.874 165.465 168.685 165.429C168.242 165.378 167.824 165.198 167.481 164.913V165.113ZM166.249 165.486C165.962 165.486 165.618 165.486 165.561 165.199C165.809 165.09 166.077 165.033 166.349 165.033C166.62 165.033 166.889 165.09 167.137 165.199C167.472 165.367 167.789 165.569 168.083 165.801C167.877 165.898 167.652 165.947 167.424 165.945C167.016 165.897 166.618 165.78 166.249 165.601V165.486ZM165.847 165.486C166.24 165.611 166.623 165.765 166.994 165.945C166.807 166.083 166.589 166.173 166.359 166.208C166.13 166.243 165.895 166.221 165.675 166.145C165.27 165.986 164.819 165.986 164.414 166.145C164.576 165.926 164.796 165.755 165.049 165.654C165.302 165.553 165.579 165.524 165.847 165.572V165.486ZM163.497 166.919C163.643 166.683 163.844 166.486 164.084 166.346C164.324 166.206 164.595 166.127 164.873 166.117C165.249 166.151 165.617 166.248 165.962 166.403C165.736 166.636 165.427 166.77 165.102 166.776C164.988 166.79 164.872 166.79 164.758 166.776H164.299C164.041 166.776 163.783 166.948 163.611 166.948L163.497 166.919ZM165.073 166.919C164.843 167.301 164.473 167.579 164.041 167.693C163.618 167.758 163.232 167.972 162.952 168.295C162.965 168.015 163.058 167.744 163.221 167.515C163.384 167.287 163.609 167.11 163.869 167.005C164.174 166.964 164.482 166.964 164.787 167.005H165.073V166.919Z" fill="url(#paint42_linear_9_5854)"/>
<path fill-rule="evenodd" clip-rule="evenodd" d="M172.612 151.87C172.612 151.87 171.265 155.998 177.915 162.017C184.565 168.037 188.148 166.116 188.148 166.116L200.13 151.784L184.078 137.309L172.612 151.87Z" fill="#172164"/>
<path fill-rule="evenodd" clip-rule="evenodd" d="M172.611 151.87C172.611 151.87 171.522 155.683 178.172 161.674C184.822 167.693 188.262 165.974 188.262 165.974L218.016 131.576L200.817 115.982L172.611 151.87Z" fill="url(#paint43_linear_9_5854)"/>
<path fill-rule="evenodd" clip-rule="evenodd" d="M184.42 165.714L183.561 165.37L214.547 128.307L215.206 128.909L184.42 165.714Z" fill="white"/>
<path fill-rule="evenodd" clip-rule="evenodd" d="M172.611 151.87C172.611 151.87 171.522 155.682 178.172 161.673C178.745 162.189 179.261 162.619 179.777 163.02C177.886 146.28 197.865 122.89 202.222 117.157L200.703 115.781L172.611 151.87Z" fill="url(#paint44_linear_9_5854)"/>
<path fill-rule="evenodd" clip-rule="evenodd" d="M200.331 116.354C203.652 123.79 208.036 130.703 213.345 136.878L217.788 131.719L217.616 131.518L216.297 129.913L200.704 115.867L200.331 116.354ZM191.732 127.534L195.974 122.087C199.312 129.341 203.643 136.094 208.844 142.153L204.373 147.312C199.252 141.303 194.997 134.607 191.732 127.419V127.534ZM183.132 138.713C186.328 145.661 190.455 152.142 195.401 157.976L199.844 152.816C194.834 146.884 190.641 140.31 187.375 133.267L183.132 138.713ZM174.533 149.863L178.775 144.446C181.971 151.258 186.037 157.627 190.872 163.393L188.636 165.973C187.855 166.214 187.031 166.284 186.22 166.18C185.409 166.077 184.63 165.801 183.935 165.371C180.064 160.614 176.782 155.407 174.16 149.863H174.533Z" fill="url(#paint45_linear_9_5854)"/>
<path fill-rule="evenodd" clip-rule="evenodd" d="M200.474 116.154C203.801 123.595 208.184 130.517 213.488 136.706L217.96 131.518L217.788 131.346L217.472 130.973L200.703 115.867L200.474 116.154ZM191.875 127.333L196.088 121.887C199.433 129.18 203.764 135.98 208.959 142.095L204.516 147.255C199.38 141.247 195.123 134.539 191.875 127.333ZM183.132 138.512C186.333 145.473 190.47 151.963 195.429 157.804L199.872 152.644C194.842 146.722 190.638 140.146 187.374 133.095L183.132 138.512ZM174.533 149.691L178.746 144.245C181.953 151.058 186.029 157.427 190.872 163.192L188.464 166.059C187.765 166.276 187.031 166.352 186.302 166.283C185.574 166.214 184.867 166.002 184.221 165.658C180.287 160.758 176.966 155.396 174.332 149.691H174.533Z" fill="url(#paint46_linear_9_5854)"/>
<path fill-rule="evenodd" clip-rule="evenodd" d="M188.636 136.076C188.12 135.072 187.661 134.069 187.26 133.209L183.017 138.627C183.591 140.003 184.25 141.493 184.938 142.726C186.085 140.49 187.317 138.283 188.636 136.19V136.076ZM196.92 124.065C196.576 123.349 196.26 122.632 195.974 121.887L193.48 125.126L191.76 127.333C192.066 128.136 192.41 128.938 192.792 129.741C194.225 127.677 195.659 125.756 196.92 124.008V124.065ZM181.613 150.351C180.471 148.378 179.447 146.339 178.546 144.245L174.332 149.691C175.817 153.115 177.611 156.397 179.692 159.495C179.918 156.374 180.564 153.298 181.613 150.351ZM200.703 115.953L200.474 116.24C200.761 116.956 201.047 117.702 201.391 118.418L202.223 117.329L200.703 115.953Z" fill="#212D74"/>
<path fill-rule="evenodd" clip-rule="evenodd" d="M208.327 130.027C209.359 131.461 210.305 132.722 211.194 133.783L215.264 128.938L211.882 125.871L208.385 130.027H208.327ZM190.412 151.411C191.415 152.844 192.361 154.106 193.279 155.166L197.664 149.949C196.862 148.889 195.916 147.599 194.798 146.166L190.412 151.411ZM199.384 140.719C200.387 142.153 201.333 143.414 202.251 144.474L206.636 139.258C205.834 138.197 204.859 136.936 203.77 135.502L199.384 140.719ZM181.469 162.075C182.357 163.364 183.217 164.54 184.02 165.572L184.364 165.715L188.606 160.641C187.804 159.581 186.858 158.291 185.74 156.858L181.469 162.075Z" fill="#59C9E6"/>
<path fill-rule="evenodd" clip-rule="evenodd" d="M210.562 133.066L211.136 133.782L215.206 128.938L214.547 128.336L210.562 133.066ZM192.676 154.478L193.192 155.166L197.577 149.949L197.061 149.232L192.676 154.478ZM183.732 165.17L184.048 165.571L184.392 165.715L188.634 160.641L188.118 159.953L183.732 165.17ZM201.648 143.786L202.192 144.474L206.578 139.257C206.406 139.028 206.234 138.77 206.033 138.541L201.648 143.786Z" fill="#6BCBDC"/>
<path fill-rule="evenodd" clip-rule="evenodd" d="M173.327 186.669L214.604 136.907C215.636 135.675 215.98 134.213 215.35 133.639C214.719 133.066 213.401 133.639 212.483 134.872L169.486 186.468L173.327 186.669Z" fill="white"/>
<path fill-rule="evenodd" clip-rule="evenodd" d="M173.327 186.669L214.604 136.907C215.636 135.675 215.98 134.213 215.35 133.639C214.719 133.066 213.401 133.639 212.483 134.872L169.486 186.468L173.327 186.669Z" fill="white"/>
<path fill-rule="evenodd" clip-rule="evenodd" d="M215.264 133.753C215.337 133.817 215.395 133.895 215.436 133.983C214.748 133.668 213.601 134.241 212.569 135.33L169.888 186.668H169.4L212.397 135.072C213.401 133.725 214.748 133.18 215.264 133.753Z" fill="#D0CDCD"/>
<path fill-rule="evenodd" clip-rule="evenodd" d="M172.611 186.668L214.204 136.648C214.612 136.268 214.911 135.786 215.072 135.252C215.234 134.719 215.25 134.152 215.121 133.609H215.35C215.981 134.183 215.637 135.645 214.605 136.877L173.328 186.524L172.611 186.668Z" fill="#D0CDCD"/>
<path fill-rule="evenodd" clip-rule="evenodd" d="M212.398 134.986L210.621 137.107L211.71 140.547L214.118 137.681L213.058 134.355C212.81 134.546 212.589 134.767 212.398 135.015V134.986ZM173.529 186.582L174.418 185.493L173.329 182.082L170.921 184.949L169.43 186.754C169.272 186.902 169.148 187.081 169.064 187.28C168.981 187.48 168.942 187.695 168.948 187.911C168.954 188.126 169.007 188.339 169.102 188.533C169.197 188.727 169.332 188.898 169.498 189.036C169.665 189.174 169.859 189.274 170.067 189.331C170.275 189.388 170.493 189.4 170.707 189.365C170.92 189.331 171.124 189.252 171.304 189.133C171.484 189.014 171.637 188.858 171.752 188.675L173.357 186.754L173.529 186.554V186.582ZM205.662 143.213L206.751 146.624L209.159 143.758L208.07 140.318L205.662 143.184V143.213ZM200.675 149.175L201.793 152.586L204.2 149.72L203.111 146.309L200.675 149.175ZM195.716 155.137L196.834 158.548L199.241 155.682L198.152 152.271L195.716 155.137ZM190.757 161.1L191.875 164.511L194.282 161.644L193.164 158.233L190.757 161.1ZM185.798 167.062L186.916 170.502L189.323 167.635L188.205 164.224L185.798 167.09V167.062ZM180.867 172.938L181.957 176.349L184.393 173.483L183.275 170.043L180.867 172.909V172.938ZM175.908 178.9L176.998 182.311L179.405 179.445L178.316 176.005L175.908 178.9Z" fill="url(#paint47_linear_9_5854)"/>
<path fill-rule="evenodd" clip-rule="evenodd" d="M215.264 133.753C215.337 133.817 215.395 133.895 215.436 133.983C214.748 133.668 213.601 134.241 212.569 135.33L169.859 186.668H169.4L212.397 135.072C213.401 133.725 214.748 133.18 215.264 133.753Z" fill="#D0CDCD"/>
<path fill-rule="evenodd" clip-rule="evenodd" d="M193.165 158.089L190.757 160.956L190.929 161.472L193.337 158.605L193.165 158.003V158.089ZM212.37 134.985L211.109 136.505L210.593 137.107L210.793 137.737L212.771 135.329L213.201 134.871L213.029 134.326L212.857 134.527L212.37 134.985ZM173.3 181.967L170.892 184.833L169.402 186.639C169.264 186.805 169.162 186.997 169.103 187.205C169.043 187.412 169.028 187.629 169.058 187.843L173.501 182.54L173.3 181.938V181.967ZM205.777 143.556V143.699L208.214 140.833L208.042 140.346V140.202L207.124 141.32L205.634 143.126L205.777 143.585V143.556ZM200.646 149.06L200.789 149.576L203.197 146.709V146.451V146.107L202.251 147.225L200.761 149.002L200.646 149.06ZM198.124 152.127L196.404 154.162L195.687 155.022L195.888 155.624L198.296 152.757L198.124 152.156V152.127ZM185.769 166.947L185.941 167.52L188.349 164.653L188.148 164.051L185.74 166.918L185.769 166.947ZM183.275 170.186V170.014L180.868 172.88L181.068 173.482L183.476 170.616V170.157L183.275 170.186ZM175.88 178.986L176.052 179.502L178.46 176.635V176.205V176.005L176.052 178.871L175.88 178.986Z" fill="#51100D"/>
<path fill-rule="evenodd" clip-rule="evenodd" d="M204.172 149.577L203.971 148.947L201.563 151.813L201.764 152.415L204.172 149.549V149.577ZM211.625 140.405L213.688 137.911L214.032 137.51L213.832 136.879L211.424 139.745V140.233L211.625 140.405ZM174.275 185.637L174.074 185.007L170.434 189.392C170.83 189.393 171.21 189.239 171.494 188.963L174.16 185.781L174.275 185.637ZM206.666 146.51L208.93 143.644L209.073 143.5V143.328L208.93 142.87L206.522 145.736L206.723 146.367L206.666 146.51ZM196.748 158.435L199.156 155.568L198.955 154.966L196.547 157.833L196.748 158.435ZM191.989 164.168L194.197 161.502L193.996 160.9L191.588 163.766L191.789 164.368L191.989 164.139V164.168ZM186.6 169.757L186.772 170.302L188.55 168.152L189.18 167.378L188.98 166.776L186.572 169.643L186.6 169.757ZM181.613 175.72L181.785 176.235L183.935 173.656L184.221 173.34L184.021 172.71L181.584 175.576L181.613 175.72ZM176.654 181.682L176.854 182.312L179.262 179.446V179.274L179.119 178.815L176.654 181.682Z" fill="#C51F25"/>
<path fill-rule="evenodd" clip-rule="evenodd" d="M204.172 149.577L203.971 148.947L201.563 151.813L201.764 152.415L204.172 149.549V149.577ZM211.625 140.405L213.688 137.911L214.032 137.51L213.832 136.879L211.424 139.745V140.233L211.625 140.405ZM174.275 185.637L174.074 185.007L170.434 189.392C170.83 189.393 171.21 189.239 171.494 188.963L174.16 185.781L174.275 185.637ZM206.666 146.51L208.93 143.644L209.073 143.5V143.328L208.93 142.87L206.522 145.736L206.723 146.367L206.666 146.51ZM196.748 158.435L199.156 155.568L198.955 154.966L196.547 157.833L196.748 158.435ZM191.989 164.168L194.197 161.502L193.996 160.9L191.588 163.766L191.789 164.368L191.989 164.139V164.168ZM186.6 169.757L186.772 170.302L188.55 168.152L189.18 167.378L188.98 166.776L186.572 169.643L186.6 169.757ZM181.613 175.72L181.785 176.235L183.935 173.656L184.221 173.34L184.021 172.71L181.584 175.576L181.613 175.72ZM176.654 181.682L176.854 182.312L179.262 179.446V179.274L179.119 178.815L176.654 181.682Z" fill="#C51F25"/>
<path fill-rule="evenodd" clip-rule="evenodd" d="M227.562 101.879C227.261 101.94 226.971 102.046 226.702 102.194L196.26 117.071C196.919 118.848 199.126 122.259 206.006 128.537C212.513 134.413 215.866 136.133 217.472 136.506L227.476 103.054C227.476 103.054 227.791 102.137 227.476 101.994C227.476 101.994 227.59 101.879 227.562 101.879Z" fill="url(#paint48_linear_9_5854)"/>
<path fill-rule="evenodd" clip-rule="evenodd" d="M227.217 102.309L206.664 129.167C208.728 131.002 210.476 132.378 211.91 133.438L227.675 102.509C227.675 102.509 227.389 102.739 227.245 102.939L227.217 102.309Z" fill="url(#paint49_linear_9_5854)"/>
<path fill-rule="evenodd" clip-rule="evenodd" d="M210.994 132.693L211.395 133.008L211.969 133.438L227.62 102.48C227.62 102.251 227.62 101.993 227.62 101.936L210.994 132.693Z" fill="url(#paint50_linear_9_5854)"/>
<path fill-rule="evenodd" clip-rule="evenodd" d="M227.562 101.878H227.304H226.731L196.289 116.755C196.884 118.163 197.696 119.469 198.697 120.624L227.619 101.562L227.562 101.878Z" fill="url(#paint51_linear_9_5854)"/>
<path fill-rule="evenodd" clip-rule="evenodd" d="M196.289 116.526C196.257 116.513 196.223 116.506 196.188 116.506C196.154 116.506 196.12 116.513 196.088 116.526C196.088 116.526 196.088 116.784 196.26 116.956C197.034 118.819 199.384 122.23 206.006 128.193C212.312 133.926 215.666 135.732 217.472 136.219C217.672 136.219 217.902 136.362 217.959 136.219C217.959 136.219 217.758 135.588 217.644 135.531C213.49 133.563 209.693 130.919 206.407 127.705C202.537 124.629 199.263 120.869 196.747 116.612C196.747 116.612 196.518 116.526 196.289 116.526Z" fill="url(#paint52_linear_9_5854)"/>
<path fill-rule="evenodd" clip-rule="evenodd" d="M194.568 118.504C194.568 118.504 192.16 120.138 204.027 130.83C214.748 140.461 216.095 138.77 216.095 138.77L217.987 136.448C216.353 136.19 213.028 134.527 206.12 128.307C198.839 121.743 196.718 118.275 196.173 116.555L194.568 118.504Z" fill="url(#paint53_linear_9_5854)"/>
<path fill-rule="evenodd" clip-rule="evenodd" d="M204.859 131.546C206.981 133.438 208.729 134.842 210.134 135.903L212.226 133.352C210.764 132.291 209.016 130.858 206.923 129.023L204.859 131.546Z" fill="url(#paint54_linear_9_5854)"/>
<path fill-rule="evenodd" clip-rule="evenodd" d="M209.102 135.129L210.133 135.903L212.226 133.352L211.194 132.578L209.102 135.129Z" fill="url(#paint55_linear_9_5854)"/>
<path fill-rule="evenodd" clip-rule="evenodd" d="M194.569 118.504C194.569 118.504 193.422 119.278 196.575 123.234L198.696 120.682C197.631 119.457 196.778 118.062 196.174 116.555L194.569 118.504Z" fill="url(#paint56_linear_9_5854)"/>
</g>
<defs>
<filter id="filter0_d_9_5854" x="86" y="23" width="145.705" height="175" filterUnits="userSpaceOnUse" color-interpolation-filters="sRGB">
<feFlood flood-opacity="0" result="BackgroundImageFix"/>
<feColorMatrix in="SourceAlpha" type="matrix" values="0 0 0 0 0 0 0 0 0 0 0 0 0 0 0 0 0 0 127 0" result="hardAlpha"/>
<feOffset dy="2"/>
<feGaussianBlur stdDeviation="2"/>
<feComposite in2="hardAlpha" operator="out"/>
<feColorMatrix type="matrix" values="0 0 0 0 0 0 0 0 0 0 0 0 0 0 0 0 0 0 0.25 0"/>
<feBlend mode="normal" in2="BackgroundImageFix" result="effect1_dropShadow_9_5854"/>
<feBlend mode="normal" in="SourceGraphic" in2="effect1_dropShadow_9_5854" result="shape"/>
</filter>
<linearGradient id="paint0_linear_9_5854" x1="144.033" y1="153.245" x2="156.875" y2="131.202" gradientUnits="userSpaceOnUse">
<stop stop-color="#EE3526"/>
<stop offset="0.64" stop-color="#FDFAD9"/>
<stop offset="1" stop-color="#FDFAD9"/>
</linearGradient>
<linearGradient id="paint1_linear_9_5854" x1="144.835" y1="155.452" x2="149.164" y2="143.327" gradientUnits="userSpaceOnUse">
<stop stop-color="#EE3627"/>
<stop offset="0.11" stop-color="#E0594F"/>
<stop offset="0.22" stop-color="#D47771"/>
<stop offset="0.33" stop-color="#CA908C"/>
<stop offset="0.46" stop-color="#C2A3A2"/>
<stop offset="0.6" stop-color="#BDB1B1"/>
<stop offset="0.76" stop-color="#BAB9BA"/>
<stop offset="1" stop-color="#B9BBBD"/>
</linearGradient>
<linearGradient id="paint2_linear_9_5854" x1="155.986" y1="135.846" x2="145.753" y2="143.757" gradientUnits="userSpaceOnUse">
<stop stop-color="#EE3526"/>
<stop offset="0.12" stop-color="#D15047"/>
<stop offset="0.25" stop-color="#B96862"/>
<stop offset="0.39" stop-color="#A67978"/>
<stop offset="0.55" stop-color="#988687"/>
<stop offset="0.73" stop-color="#908E90"/>
<stop offset="1" stop-color="#8E9093"/>
</linearGradient>
<linearGradient id="paint3_linear_9_5854" x1="140.965" y1="118.247" x2="174.216" y2="118.247" gradientUnits="userSpaceOnUse">
<stop stop-color="#1E090B"/>
<stop offset="0.16" stop-color="#350C0F"/>
<stop offset="0.51" stop-color="#711318"/>
<stop offset="1" stop-color="#D11F26"/>
</linearGradient>
<linearGradient id="paint4_linear_9_5854" x1="168.598" y1="101.02" x2="146.898" y2="97.7231" gradientUnits="userSpaceOnUse">
<stop stop-color="#A55925"/>
<stop offset="0.01" stop-color="#A55925"/>
<stop offset="0.18" stop-color="#F9F188"/>
<stop offset="0.34" stop-color="white"/>
<stop offset="0.51" stop-color="#FDE900"/>
<stop offset="0.96" stop-color="#A56326"/>
<stop offset="1" stop-color="#A56326"/>
</linearGradient>
<linearGradient id="paint5_linear_9_5854" x1="150.424" y1="98.2384" x2="166.218" y2="100.704" gradientUnits="userSpaceOnUse">
<stop stop-color="#B87E2B"/>
<stop offset="0.96" stop-color="#FDF49B"/>
<stop offset="1" stop-color="#FDF49B"/>
</linearGradient>
<linearGradient id="paint6_linear_9_5854" x1="167.566" y1="131.633" x2="154.61" y2="62.093" gradientUnits="userSpaceOnUse">
<stop stop-color="#1E090B"/>
<stop offset="0.16" stop-color="#350C0F"/>
<stop offset="0.51" stop-color="#711318"/>
<stop offset="1" stop-color="#D11F26"/>
</linearGradient>
<linearGradient id="paint7_linear_9_5854" x1="152.89" y1="111.567" x2="169.315" y2="74.1882" gradientUnits="userSpaceOnUse">
<stop stop-color="#1E090B"/>
<stop offset="0.16" stop-color="#350C0F"/>
<stop offset="0.51" stop-color="#711318"/>
<stop offset="1" stop-color="#D11F26"/>
</linearGradient>
<linearGradient id="paint8_linear_9_5854" x1="140.679" y1="117.042" x2="164.356" y2="72.4403" gradientUnits="userSpaceOnUse">
<stop stop-color="#1E090B"/>
<stop offset="0.16" stop-color="#350C0F"/>
<stop offset="0.51" stop-color="#711318"/>
<stop offset="1" stop-color="#D11F26"/>
</linearGradient>
<linearGradient id="paint9_linear_9_5854" x1="153.063" y1="127.103" x2="182.33" y2="71.9518" gradientUnits="userSpaceOnUse">
<stop stop-color="#FEEAE5"/>
<stop offset="0.01" stop-color="#FEEAE5"/>
<stop offset="1" stop-color="#EE2A24"/>
</linearGradient>
<linearGradient id="paint10_linear_9_5854" x1="154.724" y1="129.31" x2="184.879" y2="72.4398" gradientUnits="userSpaceOnUse">
<stop stop-color="#1E090B"/>
<stop offset="0.02" stop-color="#450F10"/>
<stop offset="0.03" stop-color="#681514"/>
<stop offset="0.05" stop-color="#891A18"/>
<stop offset="0.07" stop-color="#A51E1B"/>
<stop offset="0.1" stop-color="#BC221E"/>
<stop offset="0.13" stop-color="#CF2520"/>
<stop offset="0.17" stop-color="#DD2722"/>
<stop offset="0.22" stop-color="#E72923"/>
<stop offset="0.31" stop-color="#ED2A24"/>
<stop offset="1" stop-color="#EE2A24"/>
</linearGradient>
<linearGradient id="paint11_linear_9_5854" x1="168.082" y1="199.252" x2="160.285" y2="183.917" gradientUnits="userSpaceOnUse">
<stop stop-color="#811517"/>
<stop offset="0.24" stop-color="#ED1C24"/>
<stop offset="0.36" stop-color="#ED1C24"/>
<stop offset="0.54" stop-color="#DF1E26"/>
<stop offset="0.96" stop-color="#4F110D"/>
<stop offset="1" stop-color="#4F110D"/>
</linearGradient>
<linearGradient id="paint12_linear_9_5854" x1="195.113" y1="258.732" x2="162.492" y2="80.6102" gradientUnits="userSpaceOnUse">
<stop stop-color="#811517"/>
<stop offset="0.24" stop-color="#ED1C24"/>
<stop offset="0.36" stop-color="#ED1C24"/>
<stop offset="0.54" stop-color="#DF1E26"/>
<stop offset="0.96" stop-color="#4F110D"/>
<stop offset="1" stop-color="#4F110D"/>
</linearGradient>
<linearGradient id="paint13_linear_9_5854" x1="187.03" y1="52.3753" x2="152.088" y2="46.9864" gradientUnits="userSpaceOnUse">
<stop stop-color="#EF3E23"/>
<stop offset="0.39" stop-color="#FCB316"/>
<stop offset="0.83" stop-color="#EF3E23"/>
<stop offset="1" stop-color="#EF3E23"/>
</linearGradient>
<linearGradient id="paint14_linear_9_5854" x1="175.563" y1="50.1394" x2="166.419" y2="49.6808" gradientUnits="userSpaceOnUse">
<stop stop-color="#FDCE07"/>
<stop offset="0.28" stop-color="#FDC909"/>
<stop offset="0.6" stop-color="#FBBC0F"/>
<stop offset="0.94" stop-color="#F9A519"/>
<stop offset="1" stop-color="#F9A01B"/>
</linearGradient>
<linearGradient id="paint15_linear_9_5854" x1="172.182" y1="50.0522" x2="171.982" y2="50.0522" gradientUnits="userSpaceOnUse">
<stop stop-color="white"/>
<stop offset="0.29" stop-color="white"/>
<stop offset="1" stop-color="#F7EC00"/>
</linearGradient>
<linearGradient id="paint16_linear_9_5854" x1="150.597" y1="46.069" x2="161.346" y2="47.7603" gradientUnits="userSpaceOnUse">
<stop stop-color="#C51F25"/>
<stop offset="0.56" stop-color="#EC5E24"/>
<stop offset="1" stop-color="#F47B20"/>
</linearGradient>
<linearGradient id="paint17_linear_9_5854" x1="184.049" y1="74.3041" x2="142.715" y2="68.1985" gradientUnits="userSpaceOnUse">
<stop stop-color="#EF3E23"/>
<stop offset="0.24" stop-color="#F7EC00"/>
<stop offset="0.53" stop-color="#FAA61A"/>
<stop offset="0.83" stop-color="#C82026"/>
<stop offset="1" stop-color="#C82026"/>
</linearGradient>
<linearGradient id="paint18_linear_9_5854" x1="183.189" y1="76.4532" x2="144.205" y2="70.9209" gradientUnits="userSpaceOnUse">
<stop stop-color="#EF3824"/>
<stop offset="0.39" stop-color="#FEBC11"/>
<stop offset="1" stop-color="#EF3E23"/>
</linearGradient>
<linearGradient id="paint19_linear_9_5854" x1="165.76" y1="75.7652" x2="173.901" y2="77.0264" gradientUnits="userSpaceOnUse">
<stop stop-color="#FBAD18"/>
<stop offset="0.17" stop-color="#FABE12"/>
<stop offset="0.49" stop-color="#FAD708"/>
<stop offset="0.77" stop-color="#F9E702"/>
<stop offset="1" stop-color="#F9EC00"/>
</linearGradient>
<linearGradient id="paint20_linear_9_5854" x1="174.361" y1="77.027" x2="173.185" y2="76.855" gradientUnits="userSpaceOnUse">
<stop stop-color="white"/>
<stop offset="0.08" stop-color="white"/>
<stop offset="0.93" stop-color="#F9EC00"/>
<stop offset="1" stop-color="#F9EC00"/>
</linearGradient>
<linearGradient id="paint21_linear_9_5854" x1="143.402" y1="69.9176" x2="148.074" y2="70.7489" gradientUnits="userSpaceOnUse">
<stop stop-color="#A51C20"/>
<stop offset="1" stop-color="#EA4924"/>
</linearGradient>
<linearGradient id="paint22_linear_9_5854" x1="115.283" y1="172.71" x2="122.907" y2="149.262" gradientUnits="userSpaceOnUse">
<stop stop-color="#EE3526"/>
<stop offset="0.64" stop-color="#FDFAD9"/>
<stop offset="1" stop-color="#FDFAD9"/>
</linearGradient>
<linearGradient id="paint23_linear_9_5854" x1="112.759" y1="173.425" x2="118.693" y2="162.533" gradientUnits="userSpaceOnUse">
<stop stop-color="#EE3627"/>
<stop offset="0.11" stop-color="#E0594F"/>
<stop offset="0.22" stop-color="#D47771"/>
<stop offset="0.33" stop-color="#CA908C"/>
<stop offset="0.46" stop-color="#C2A3A2"/>
<stop offset="0.6" stop-color="#BDB1B1"/>
<stop offset="0.76" stop-color="#BAB9BA"/>
<stop offset="1" stop-color="#B9BBBD"/>
</linearGradient>
<linearGradient id="paint24_linear_9_5854" x1="124.771" y1="160.182" x2="117.576" y2="160.927" gradientUnits="userSpaceOnUse">
<stop stop-color="#EE3526"/>
<stop offset="0.12" stop-color="#D15047"/>
<stop offset="0.25" stop-color="#B96862"/>
<stop offset="0.39" stop-color="#A67978"/>
<stop offset="0.55" stop-color="#988687"/>
<stop offset="0.73" stop-color="#908E90"/>
<stop offset="1" stop-color="#8E9093"/>
</linearGradient>
<linearGradient id="paint25_linear_9_5854" x1="124.112" y1="120.167" x2="106.626" y2="123.894" gradientUnits="userSpaceOnUse">
<stop stop-color="#A55925"/>
<stop offset="0.01" stop-color="#A55925"/>
<stop offset="0.18" stop-color="#F9F188"/>
<stop offset="0.34" stop-color="white"/>
<stop offset="0.51" stop-color="#FDE900"/>
<stop offset="0.96" stop-color="#A56326"/>
<stop offset="1" stop-color="#A56326"/>
</linearGradient>
<linearGradient id="paint26_linear_9_5854" x1="105.795" y1="124.438" x2="112.502" y2="123.033" gradientUnits="userSpaceOnUse">
<stop stop-color="#B87E2B"/>
<stop offset="0.96" stop-color="#FDF49B"/>
<stop offset="1" stop-color="#FDF49B"/>
</linearGradient>
<linearGradient id="paint27_linear_9_5854" x1="103.989" y1="142.983" x2="123.768" y2="92.4184" gradientUnits="userSpaceOnUse">
<stop stop-color="#1F562B"/>
<stop offset="0.42" stop-color="#1B4423"/>
<stop offset="1" stop-color="#132414"/>
</linearGradient>
<linearGradient id="paint28_linear_9_5854" x1="104.734" y1="141.092" x2="121.532" y2="98.1529" gradientUnits="userSpaceOnUse">
<stop stop-color="#22562B"/>
<stop offset="0.31" stop-color="#5BBA47"/>
<stop offset="0.55" stop-color="#009E4A"/>
<stop offset="1" stop-color="#1A371A"/>
</linearGradient>
<linearGradient id="paint29_linear_9_5854" x1="89.7427" y1="164.568" x2="111.012" y2="109.962" gradientUnits="userSpaceOnUse">
<stop stop-color="#009E4A"/>
<stop offset="0.11" stop-color="#009E4A"/>
<stop offset="0.97" stop-color="#132414"/>
<stop offset="1" stop-color="#1A371A"/>
</linearGradient>
<linearGradient id="paint30_linear_9_5854" x1="96.4486" y1="233.708" x2="144.232" y2="111.08" gradientUnits="userSpaceOnUse">
<stop stop-color="#811517"/>
<stop offset="0.24" stop-color="#ED1C24"/>
<stop offset="0.36" stop-color="#ED1C24"/>
<stop offset="0.54" stop-color="#DF1E26"/>
<stop offset="0.96" stop-color="#4F110D"/>
<stop offset="1" stop-color="#4F110D"/>
</linearGradient>
<linearGradient id="paint31_linear_9_5854" x1="117.032" y1="75.2773" x2="86.4752" y2="81.9275" gradientUnits="userSpaceOnUse">
<stop stop-color="#2C0E27"/>
<stop offset="0.01" stop-color="#2C0E27"/>
<stop offset="0.39" stop-color="#EA2891"/>
<stop offset="1" stop-color="#3B084D"/>
</linearGradient>
<linearGradient id="paint32_linear_9_5854" x1="109.348" y1="76.7392" x2="106.424" y2="77.7138" gradientUnits="userSpaceOnUse">
<stop stop-color="#D34097"/>
<stop offset="0.68" stop-color="#D34097"/>
<stop offset="1" stop-color="#DB1A8E"/>
</linearGradient>
<linearGradient id="paint33_linear_9_5854" x1="110.122" y1="76.5959" x2="110.008" y2="76.6245" gradientUnits="userSpaceOnUse">
<stop stop-color="white"/>
<stop offset="0.29" stop-color="white"/>
<stop offset="1" stop-color="#E9ADCF"/>
</linearGradient>
<linearGradient id="paint34_linear_9_5854" x1="86.445" y1="81.6696" x2="104.532" y2="77.7138" gradientUnits="userSpaceOnUse">
<stop stop-color="#3B084D"/>
<stop offset="0.52" stop-color="#71226B"/>
<stop offset="1" stop-color="#B61D8A"/>
</linearGradient>
<linearGradient id="paint35_linear_9_5854" x1="127.951" y1="93.3357" x2="90.343" y2="101.39" gradientUnits="userSpaceOnUse">
<stop stop-color="#2C0E27"/>
<stop offset="0.01" stop-color="#2C0E27"/>
<stop offset="0.1" stop-color="#AE1F7C"/>
<stop offset="0.24" stop-color="#DB7EB3"/>
<stop offset="0.45" stop-color="#EA2891"/>
<stop offset="0.77" stop-color="#95257C"/>
<stop offset="1" stop-color="#3B084D"/>
</linearGradient>
<linearGradient id="paint36_linear_9_5854" x1="127.436" y1="95.9453" x2="91.4619" y2="102.739" gradientUnits="userSpaceOnUse">
<stop stop-color="#681652"/>
<stop offset="0.48" stop-color="#EA2891"/>
<stop offset="1" stop-color="#3B084D"/>
</linearGradient>
<linearGradient id="paint37_linear_9_5854" x1="112.415" y1="100.014" x2="119.467" y2="98.4665" gradientUnits="userSpaceOnUse">
<stop stop-color="#EA2891"/>
<stop offset="0.24" stop-color="#EF57A9"/>
<stop offset="0.78" stop-color="#FACDE5"/>
<stop offset="1" stop-color="white"/>
</linearGradient>
<linearGradient id="paint38_linear_9_5854" x1="119.925" y1="98.1518" x2="119.036" y2="98.3525" gradientUnits="userSpaceOnUse">
<stop stop-color="white"/>
<stop offset="0.08" stop-color="white"/>
<stop offset="0.93" stop-color="#FAD1E3"/>
<stop offset="1" stop-color="#FAD1E3"/>
</linearGradient>
<linearGradient id="paint39_linear_9_5854" x1="91.2039" y1="103.541" x2="95.5036" y2="102.681" gradientUnits="userSpaceOnUse">
<stop stop-color="#3B084D"/>
<stop offset="0.59" stop-color="#641A63"/>
<stop offset="1" stop-color="#7B2470"/>
</linearGradient>
<linearGradient id="paint40_linear_9_5854" x1="164.529" y1="168.753" x2="180.896" y2="160.125" gradientUnits="userSpaceOnUse">
<stop stop-color="#EE3526"/>
<stop offset="0.64" stop-color="#FDFAD9"/>
<stop offset="1" stop-color="#FDFAD9"/>
</linearGradient>
<linearGradient id="paint41_linear_9_5854" x1="164.212" y1="170.387" x2="171.464" y2="164.654" gradientUnits="userSpaceOnUse">
<stop stop-color="#EE3627"/>
<stop offset="0.11" stop-color="#E0594F"/>
<stop offset="0.22" stop-color="#D47771"/>
<stop offset="0.33" stop-color="#CA908C"/>
<stop offset="0.46" stop-color="#C2A3A2"/>
<stop offset="0.6" stop-color="#BDB1B1"/>
<stop offset="0.76" stop-color="#BAB9BA"/>
<stop offset="1" stop-color="#B9BBBD"/>
</linearGradient>
<linearGradient id="paint42_linear_9_5854" x1="178.861" y1="162.706" x2="169.201" y2="163.68" gradientUnits="userSpaceOnUse">
<stop stop-color="#EE3526"/>
<stop offset="0.12" stop-color="#D15047"/>
<stop offset="0.25" stop-color="#B96862"/>
<stop offset="0.39" stop-color="#A67978"/>
<stop offset="0.55" stop-color="#988687"/>
<stop offset="0.73" stop-color="#908E90"/>
<stop offset="1" stop-color="#8E9093"/>
</linearGradient>
<linearGradient id="paint43_linear_9_5854" x1="196.288" y1="144.618" x2="190.297" y2="139.516" gradientUnits="userSpaceOnUse">
<stop stop-color="#A55925"/>
<stop offset="0.01" stop-color="#A55925"/>
<stop offset="0.18" stop-color="#F9F188"/>
<stop offset="0.34" stop-color="white"/>
<stop offset="0.51" stop-color="#FDE900"/>
<stop offset="0.96" stop-color="#A56326"/>
<stop offset="1" stop-color="#A56326"/>
</linearGradient>
<linearGradient id="paint44_linear_9_5854" x1="189.724" y1="139.028" x2="192.906" y2="141.866" gradientUnits="userSpaceOnUse">
<stop stop-color="#B87E2B"/>
<stop offset="0.96" stop-color="#FDF49B"/>
<stop offset="1" stop-color="#FDF49B"/>
</linearGradient>
<linearGradient id="paint45_linear_9_5854" x1="187.375" y1="162.648" x2="203.226" y2="122.431" gradientUnits="userSpaceOnUse">
<stop stop-color="#0052A4"/>
<stop offset="0.15" stop-color="#004992"/>
<stop offset="0.46" stop-color="#003062"/>
<stop offset="0.9" stop-color="#000A15"/>
<stop offset="1" stop-color="#000002"/>
</linearGradient>
<linearGradient id="paint46_linear_9_5854" x1="185.54" y1="146.997" x2="206.694" y2="132.607" gradientUnits="userSpaceOnUse">
<stop stop-color="#212D74"/>
<stop offset="0.24" stop-color="#45C6EB"/>
<stop offset="1" stop-color="#212D74"/>
</linearGradient>
<linearGradient id="paint47_linear_9_5854" x1="182.788" y1="200.313" x2="186.113" y2="186.009" gradientUnits="userSpaceOnUse">
<stop stop-color="#811517"/>
<stop offset="0.24" stop-color="#ED1C24"/>
<stop offset="0.36" stop-color="#ED1C24"/>
<stop offset="0.54" stop-color="#DF1E26"/>
<stop offset="0.96" stop-color="#4F110D"/>
<stop offset="1" stop-color="#4F110D"/>
</linearGradient>
<linearGradient id="paint48_linear_9_5854" x1="224.036" y1="121.428" x2="210.592" y2="109.819" gradientUnits="userSpaceOnUse">
<stop stop-color="#EF3E23"/>
<stop offset="0.39" stop-color="#FCB316"/>
<stop offset="0.83" stop-color="#EF3E23"/>
<stop offset="1" stop-color="#EF3E23"/>
</linearGradient>
<linearGradient id="paint49_linear_9_5854" x1="219.821" y1="117.673" x2="218.56" y2="116.784" gradientUnits="userSpaceOnUse">
<stop stop-color="#FDCE07"/>
<stop offset="0.28" stop-color="#FDC909"/>
<stop offset="0.6" stop-color="#FBBC0F"/>
<stop offset="0.94" stop-color="#F9A519"/>
<stop offset="1" stop-color="#F9A01B"/>
</linearGradient>
<linearGradient id="paint50_linear_9_5854" x1="219.622" y1="117.586" x2="219.594" y2="117.558" gradientUnits="userSpaceOnUse">
<stop stop-color="white"/>
<stop offset="0.29" stop-color="white"/>
<stop offset="1" stop-color="#F7EC00"/>
</linearGradient>
<linearGradient id="paint51_linear_9_5854" x1="209.102" y1="107.955" x2="212.829" y2="111.165" gradientUnits="userSpaceOnUse">
<stop stop-color="#C51F25"/>
<stop offset="0.56" stop-color="#EC5E24"/>
<stop offset="1" stop-color="#F47B20"/>
</linearGradient>
<linearGradient id="paint52_linear_9_5854" x1="217.672" y1="136.649" x2="195.515" y2="117.501" gradientUnits="userSpaceOnUse">
<stop stop-color="#EF3E23"/>
<stop offset="0.24" stop-color="#F7EC00"/>
<stop offset="0.53" stop-color="#FAA61A"/>
<stop offset="0.83" stop-color="#C82026"/>
<stop offset="1" stop-color="#C82026"/>
</linearGradient>
<linearGradient id="paint53_linear_9_5854" x1="215.006" y1="136.763" x2="196.259" y2="120.31" gradientUnits="userSpaceOnUse">
<stop stop-color="#EF3824"/>
<stop offset="0.39" stop-color="#FEBC11"/>
<stop offset="1" stop-color="#EF3E23"/>
</linearGradient>
<linearGradient id="paint54_linear_9_5854" x1="206.837" y1="131.001" x2="210.22" y2="133.896" gradientUnits="userSpaceOnUse">
<stop stop-color="#FBAD18"/>
<stop offset="0.17" stop-color="#FABE12"/>
<stop offset="0.49" stop-color="#FAD708"/>
<stop offset="0.77" stop-color="#F9E702"/>
<stop offset="1" stop-color="#F9EC00"/>
</linearGradient>
<linearGradient id="paint55_linear_9_5854" x1="210.821" y1="134.355" x2="210.506" y2="134.097" gradientUnits="userSpaceOnUse">
<stop stop-color="white"/>
<stop offset="0.08" stop-color="white"/>
<stop offset="0.93" stop-color="#F9EC00"/>
<stop offset="1" stop-color="#F9EC00"/>
</linearGradient>
<linearGradient id="paint56_linear_9_5854" x1="195.514" y1="118.991" x2="197.263" y2="120.826" gradientUnits="userSpaceOnUse">
<stop stop-color="#A51C20"/>
<stop offset="1" stop-color="#EA4924"/>
</linearGradient>
<clipPath id="clip0_9_5854">
<rect width="137.705" height="167" fill="white" transform="translate(90 25)"/>
</clipPath>
</defs>
</svg>
